<?xml version="1.0" encoding="utf-8"?>
<svg xmlns="http://www.w3.org/2000/svg" width="300" height="300"
        viewBox="0 0 300 300" class="creatureMap" style="position:absolute;">
    <defs>
        <filter id="blur" x="-30%" y="-30%" width="160%" height="160%">
            <feGaussianBlur stdDeviation="3" />
        </filter>
        <pattern id="pattern-untameable" width="10" height="10" patternTransform="rotate(135)" patternUnits="userSpaceOnUse">
            <rect width="4" height="10" fill="black"></rect>
        </pattern>
        <filter id="groupStroke">
            <feFlood result="outsideColor" flood-color="black"/>
            <feMorphology in="SourceAlpha" operator="dilate" radius="2"/>
            <feComposite result="strokeoutline1" in="outsideColor" operator="in"/>
            <feComposite result="strokeoutline2" in="strokeoutline1" in2="SourceAlpha" operator="out"/>
            <feGaussianBlur in="strokeoutline2" result="strokeblur" stdDeviation="1"/>
        </filter>
        <style>
            .spawningMap-very-common { fill: #0F0; }
            .spawningMap-common { fill: #B2FF00; }
            .spawningMap-uncommon { fill: #FF0; }
            .spawningMap-very-uncommon { fill: #FC0; }
            .spawningMap-rare { fill: #F60; }
            .spawningMap-very-rare { fill: #F00; }
            .spawning-map-point { stroke:black; stroke-width:1; }
        </style>
    </defs>

<g filter="url(#blur)" opacity="0.7">
<g class="spawningMap-very-rare">
<rect x="221" y="142" width="17" height="16" />
<rect x="187" y="153" width="17" height="17" />
<rect x="233" y="142" width="16" height="16" />
<rect x="233" y="165" width="16" height="16" />
<rect x="244" y="165" width="17" height="16" />
<rect x="176" y="176" width="16" height="16" />
<rect x="187" y="176" width="17" height="16" />
<rect x="176" y="187" width="16" height="17" />
<rect x="187" y="187" width="17" height="17" />
<rect x="199" y="187" width="16" height="17" />
<rect x="187" y="199" width="17" height="16" />
<rect x="187" y="210" width="17" height="17" />
<rect x="199" y="210" width="16" height="17" />
<rect x="199" y="221" width="16" height="17" />
<rect x="210" y="221" width="17" height="17" />
<rect x="233" y="176" width="16" height="16" />
<rect x="142" y="267" width="16" height="17" />
<rect x="210" y="233" width="17" height="16" />
<rect x="96" y="210" width="17" height="17" />
<rect x="5" y="16" width="17" height="17" />
<rect x="108" y="221" width="16" height="17" />
<rect x="96" y="221" width="17" height="17" />
<rect x="108" y="210" width="16" height="17" />
</g>
<g class="spawningMap-rare">
<rect x="108" y="165" width="16" height="16" />
<rect x="142" y="165" width="16" height="16" />
<rect x="199" y="153" width="16" height="17" />
<rect x="210" y="153" width="17" height="17" />
<rect x="187" y="165" width="17" height="16" />
<rect x="199" y="165" width="16" height="16" />
<rect x="210" y="165" width="17" height="16" />
<rect x="221" y="165" width="17" height="16" />
<rect x="108" y="176" width="16" height="16" />
<rect x="108" y="187" width="16" height="17" />
<rect x="119" y="176" width="16" height="16" />
<rect x="130" y="176" width="17" height="16" />
<rect x="142" y="176" width="16" height="16" />
<rect x="153" y="176" width="17" height="16" />
<rect x="165" y="176" width="16" height="16" />
<rect x="119" y="187" width="16" height="17" />
<rect x="130" y="187" width="17" height="17" />
<rect x="142" y="187" width="16" height="17" />
<rect x="153" y="187" width="17" height="17" />
<rect x="165" y="187" width="16" height="17" />
<rect x="142" y="199" width="16" height="16" />
<rect x="153" y="199" width="17" height="16" />
<rect x="165" y="199" width="16" height="16" />
<rect x="153" y="210" width="17" height="17" />
<rect x="165" y="210" width="16" height="17" />
<rect x="199" y="176" width="16" height="16" />
<rect x="210" y="176" width="17" height="16" />
<rect x="221" y="176" width="17" height="16" />
<rect x="176" y="199" width="16" height="16" />
</g>
</g>
<g fill="url(#pattern-untameable)" opacity="0.3">
<rect x="221" y="142" width="17" height="16"/>
<rect x="187" y="153" width="17" height="17"/>
<rect x="233" y="142" width="16" height="16"/>
<rect x="233" y="165" width="16" height="16"/>
<rect x="244" y="165" width="17" height="16"/>
<rect x="176" y="176" width="16" height="16"/>
<rect x="187" y="176" width="17" height="16"/>
<rect x="176" y="187" width="16" height="17"/>
<rect x="187" y="187" width="17" height="17"/>
<rect x="199" y="187" width="16" height="17"/>
<rect x="187" y="199" width="17" height="16"/>
<rect x="187" y="210" width="17" height="17"/>
<rect x="199" y="210" width="16" height="17"/>
<rect x="199" y="221" width="16" height="17"/>
<rect x="210" y="221" width="17" height="17"/>
<rect x="233" y="176" width="16" height="16"/>
<rect x="142" y="267" width="16" height="17"/>
<rect x="210" y="233" width="17" height="16"/>
<rect x="96" y="210" width="17" height="17"/>
<rect x="5" y="16" width="17" height="17"/>
<rect x="108" y="221" width="16" height="17"/>
<rect x="96" y="221" width="17" height="17"/>
<rect x="108" y="210" width="16" height="17"/>
<rect x="108" y="165" width="16" height="16"/>
<rect x="142" y="165" width="16" height="16"/>
<rect x="199" y="153" width="16" height="17"/>
<rect x="210" y="153" width="17" height="17"/>
<rect x="187" y="165" width="17" height="16"/>
<rect x="199" y="165" width="16" height="16"/>
<rect x="210" y="165" width="17" height="16"/>
<rect x="221" y="165" width="17" height="16"/>
<rect x="108" y="176" width="16" height="16"/>
<rect x="108" y="187" width="16" height="17"/>
<rect x="119" y="176" width="16" height="16"/>
<rect x="130" y="176" width="17" height="16"/>
<rect x="142" y="176" width="16" height="16"/>
<rect x="153" y="176" width="17" height="16"/>
<rect x="165" y="176" width="16" height="16"/>
<rect x="119" y="187" width="16" height="17"/>
<rect x="130" y="187" width="17" height="17"/>
<rect x="142" y="187" width="16" height="17"/>
<rect x="153" y="187" width="17" height="17"/>
<rect x="165" y="187" width="16" height="17"/>
<rect x="142" y="199" width="16" height="16"/>
<rect x="153" y="199" width="17" height="16"/>
<rect x="165" y="199" width="16" height="16"/>
<rect x="153" y="210" width="17" height="17"/>
<rect x="165" y="210" width="16" height="17"/>
<rect x="199" y="176" width="16" height="16"/>
<rect x="210" y="176" width="17" height="16"/>
<rect x="221" y="176" width="17" height="16"/>
<rect x="176" y="199" width="16" height="16"/>
</g>
</svg>