<?xml version="1.0" encoding="utf-8"?>
<svg xmlns="http://www.w3.org/2000/svg" width="300" height="300" viewBox="0 0 300 300" class="creatureMap" style="position:absolute;">
    <defs>
        <filter id="blur" x="-30%" y="-30%" width="160%" height="160%">
            <feGaussianBlur stdDeviation="3" />
        </filter>
        <pattern id="pattern-untameable" width="10" height="10" patternTransform="rotate(135)" patternUnits="userSpaceOnUse">'
            <rect width="4" height="10" fill="black"></rect>
        </pattern>
        <filter id="groupStroke">
            <feFlood result="outsideColor" flood-color="black"/>
            <feMorphology in="SourceAlpha" operator="dilate" radius="2"/>
            <feComposite result="strokeoutline1" in="outsideColor" operator="in"/>
            <feComposite result="strokeoutline2" in="strokeoutline1" in2="SourceAlpha" operator="out"/>
            <feGaussianBlur in="strokeoutline2" result="strokeblur" stdDeviation="1"/>
        </filter>
        <style>
            .spawningMap-very-common { fill: #0F0; }
            .spawningMap-common { fill: #B2FF00; }
            .spawningMap-uncommon { fill: #FF0; }
            .spawningMap-very-uncommon { fill: #FC0; }
            .spawningMap-rare { fill: #F60; }
            .spawningMap-very-rare { fill: #F00; }
            .spawning-map-point { stroke:black; stroke-width:1; }
        </style>
    </defs>

<g filter="url(#blur)" opacity="0.7">
<g class="spawningMap-very-rare">
<rect x="142" y="62" width="16" height="17" />
<rect x="142" y="73" width="16" height="17" />
<rect x="153" y="73" width="17" height="17" />
<rect x="142" y="85" width="16" height="16" />
<rect x="130" y="96" width="17" height="17" />
<rect x="142" y="96" width="16" height="17" />
<rect x="130" y="108" width="17" height="16" />
<rect x="153" y="108" width="17" height="16" />
</g>
<g class="spawningMap-rare">
<rect x="119" y="119" width="16" height="16" />
<rect x="130" y="119" width="17" height="16" />
<rect x="153" y="119" width="17" height="16" />
<rect x="130" y="130" width="17" height="17" />
<rect x="142" y="130" width="16" height="17" />
<rect x="153" y="130" width="17" height="17" />
<rect x="142" y="142" width="16" height="16" />
<rect x="153" y="142" width="17" height="16" />
<rect x="142" y="153" width="16" height="17" />
<rect x="165" y="153" width="16" height="17" />
<rect x="153" y="165" width="17" height="16" />
<rect x="210" y="199" width="17" height="16" />
<rect x="210" y="210" width="17" height="17" />
<rect x="142" y="39" width="16" height="17" />
<rect x="142" y="51" width="16" height="16" />
</g>
<g class="spawningMap-very-uncommon">
<rect x="51" y="108" width="16" height="16" />
<rect x="39" y="108" width="17" height="16" />
<rect x="28" y="108" width="16" height="16" />
<rect x="51" y="96" width="16" height="17" />
<rect x="39" y="96" width="17" height="17" />
<rect x="28" y="96" width="16" height="17" />
<rect x="51" y="85" width="16" height="16" />
<rect x="39" y="85" width="17" height="16" />
<rect x="28" y="85" width="16" height="16" />
<rect x="51" y="73" width="16" height="17" />
<rect x="39" y="73" width="17" height="17" />
<rect x="28" y="73" width="16" height="17" />
<rect x="51" y="62" width="16" height="17" />
<rect x="39" y="62" width="17" height="17" />
<rect x="28" y="62" width="16" height="17" />
<rect x="62" y="62" width="17" height="17" />
<rect x="73" y="62" width="17" height="17" />
<rect x="85" y="62" width="16" height="17" />
<rect x="62" y="73" width="17" height="17" />
<rect x="73" y="73" width="17" height="17" />
<rect x="85" y="73" width="16" height="17" />
<rect x="96" y="73" width="17" height="17" />
<rect x="62" y="85" width="17" height="16" />
<rect x="73" y="85" width="17" height="16" />
<rect x="85" y="85" width="16" height="16" />
<rect x="62" y="96" width="17" height="17" />
<rect x="73" y="96" width="17" height="17" />
<rect x="85" y="96" width="16" height="17" />
<rect x="62" y="108" width="17" height="16" />
<rect x="73" y="108" width="17" height="16" />
<rect x="85" y="108" width="16" height="16" />
<rect x="165" y="62" width="16" height="17" />
<rect x="119" y="73" width="16" height="17" />
<rect x="165" y="73" width="16" height="17" />
<rect x="119" y="85" width="16" height="16" />
<rect x="165" y="85" width="16" height="16" />
<rect x="165" y="96" width="16" height="17" />
<rect x="176" y="62" width="16" height="17" />
<rect x="39" y="119" width="17" height="16" />
<rect x="51" y="119" width="16" height="16" />
<rect x="39" y="130" width="17" height="17" />
<rect x="39" y="165" width="17" height="16" />
<rect x="51" y="165" width="16" height="16" />
<rect x="73" y="119" width="17" height="16" />
<rect x="85" y="119" width="16" height="16" />
<rect x="119" y="165" width="16" height="16" />
<rect x="130" y="165" width="17" height="16" />
<rect x="39" y="176" width="17" height="16" />
<rect x="51" y="176" width="16" height="16" />
<rect x="39" y="187" width="17" height="17" />
<rect x="51" y="187" width="16" height="17" />
<rect x="39" y="199" width="17" height="16" />
<rect x="51" y="199" width="16" height="16" />
<rect x="39" y="210" width="17" height="17" />
<rect x="51" y="210" width="16" height="17" />
<rect x="73" y="176" width="17" height="16" />
<rect x="85" y="176" width="16" height="16" />
<rect x="96" y="176" width="17" height="16" />
<rect x="62" y="187" width="17" height="17" />
<rect x="73" y="187" width="17" height="17" />
<rect x="85" y="187" width="16" height="17" />
<rect x="96" y="187" width="17" height="17" />
<rect x="62" y="199" width="17" height="16" />
<rect x="73" y="199" width="17" height="16" />
<rect x="85" y="199" width="16" height="16" />
<rect x="96" y="199" width="17" height="16" />
<rect x="85" y="210" width="16" height="17" />
<rect x="62" y="221" width="17" height="17" />
<rect x="73" y="221" width="17" height="17" />
<rect x="85" y="221" width="16" height="17" />
<rect x="119" y="210" width="16" height="17" />
<rect x="130" y="210" width="17" height="17" />
<rect x="142" y="210" width="16" height="17" />
<rect x="119" y="221" width="16" height="17" />
<rect x="130" y="221" width="17" height="17" />
<rect x="142" y="221" width="16" height="17" />
<rect x="73" y="233" width="17" height="16" />
<rect x="85" y="233" width="16" height="16" />
<rect x="96" y="233" width="17" height="16" />
<rect x="108" y="233" width="16" height="16" />
<rect x="96" y="244" width="17" height="17" />
<rect x="108" y="244" width="16" height="17" />
<rect x="119" y="233" width="16" height="16" />
<rect x="130" y="233" width="17" height="16" />
<rect x="142" y="233" width="16" height="16" />
<rect x="153" y="233" width="17" height="16" />
<rect x="119" y="244" width="16" height="17" />
<rect x="130" y="244" width="17" height="17" />
<rect x="142" y="244" width="16" height="17" />
<rect x="119" y="256" width="16" height="16" />
<rect x="187" y="233" width="17" height="16" />
<rect x="176" y="244" width="16" height="17" />
<rect x="187" y="244" width="17" height="17" />
<rect x="199" y="244" width="16" height="17" />
<rect x="176" y="256" width="16" height="16" />
<rect x="187" y="256" width="17" height="16" />
<rect x="199" y="256" width="16" height="16" />
<rect x="51" y="28" width="16" height="16" />
<rect x="39" y="39" width="17" height="17" />
<rect x="39" y="51" width="17" height="16" />
<rect x="51" y="51" width="16" height="16" />
<rect x="96" y="51" width="17" height="16" />
<rect x="85" y="51" width="16" height="16" />
<rect x="73" y="51" width="17" height="16" />
<rect x="62" y="51" width="17" height="16" />
<rect x="96" y="39" width="17" height="17" />
<rect x="73" y="39" width="17" height="17" />
<rect x="62" y="39" width="17" height="17" />
<rect x="73" y="28" width="17" height="16" />
<rect x="62" y="28" width="17" height="16" />
<rect x="73" y="16" width="17" height="17" />
<rect x="62" y="16" width="17" height="17" />
<rect x="165" y="39" width="16" height="17" />
<rect x="165" y="51" width="16" height="16" />
<rect x="176" y="51" width="16" height="16" />
<rect x="176" y="39" width="16" height="17" />
<rect x="51" y="16" width="16" height="17" />
<rect x="39" y="28" width="17" height="16" />
<rect x="51" y="39" width="16" height="17" />
</g>
</g>
</svg>