<?xml version="1.0" encoding="utf-8"?>
<svg xmlns="http://www.w3.org/2000/svg" width="300" height="300" viewBox="0 0 300 300" class="creatureMap" style="position:absolute;">
    <defs>
        <filter id="blur" x="-30%" y="-30%" width="160%" height="160%">
            <feGaussianBlur stdDeviation="3" />
        </filter>
        <pattern id="pattern-untameable" width="10" height="10" patternTransform="rotate(135)" patternUnits="userSpaceOnUse">'
            <rect width="4" height="10" fill="black"></rect>
        </pattern>
        <filter id="groupStroke">
            <feFlood result="outsideColor" flood-color="black"/>
            <feMorphology in="SourceAlpha" operator="dilate" radius="2"/>
            <feComposite result="strokeoutline1" in="outsideColor" operator="in"/>
            <feComposite result="strokeoutline2" in="strokeoutline1" in2="SourceAlpha" operator="out"/>
            <feGaussianBlur in="strokeoutline2" result="strokeblur" stdDeviation="1"/>
        </filter>
        <style>
            .spawningMap-very-common { fill: #0F0; }
            .spawningMap-common { fill: #B2FF00; }
            .spawningMap-uncommon { fill: #FF0; }
            .spawningMap-very-uncommon { fill: #FC0; }
            .spawningMap-rare { fill: #F60; }
            .spawningMap-very-rare { fill: #F00; }
            .spawning-map-point { stroke:black; stroke-width:1; }
        </style>
    </defs>

<g filter="url(#blur)" opacity="0.7">
<g class="spawningMap-very-rare">
<rect x="100" y="173" width="20" height="14" />
</g>
<g class="spawningMap-rare">
<rect x="129" y="208" width="12" height="12" />
<rect x="129" y="216" width="12" height="13" />
<rect x="103" y="233" width="12" height="13" />
<rect x="94" y="225" width="13" height="12" />
<rect x="94" y="233" width="13" height="13" />
<rect x="77" y="233" width="13" height="13" />
<rect x="137" y="225" width="13" height="12" />
<rect x="128" y="242" width="13" height="12" />
<rect x="146" y="242" width="12" height="12" />
<rect x="137" y="242" width="12" height="12" />
<rect x="120" y="242" width="12" height="12" />
<rect x="111" y="191" width="13" height="12" />
<rect x="137" y="216" width="13" height="13" />
<rect x="155" y="139" width="13" height="14" />
<rect x="86" y="233" width="12" height="13" />
<rect x="141" y="182" width="13" height="14" />
<rect x="149" y="173" width="14" height="15" />
<rect x="149" y="183" width="14" height="15" />
<rect x="158" y="178" width="13" height="15" />
<rect x="175" y="189" width="13" height="13" />
<rect x="166" y="185" width="14" height="17" />
<rect x="192" y="182" width="14" height="17" />
<rect x="132" y="156" width="15" height="14" />
<rect x="132" y="173" width="14" height="19" />
<rect x="119" y="165" width="18" height="13" />
<rect x="123" y="173" width="14" height="16" />
<rect x="110" y="151" width="18" height="14" />
<rect x="120" y="251" width="12" height="12" />
<rect x="106" y="136" width="14" height="18" />
<rect x="115" y="173" width="14" height="15" />
<rect x="98" y="137" width="13" height="16" />
<rect x="76" y="137" width="18" height="14" />
<rect x="95" y="128" width="13" height="14" />
<rect x="69" y="200" width="12" height="13" />
<rect x="69" y="192" width="12" height="12" />
<rect x="86" y="183" width="12" height="13" />
<rect x="69" y="183" width="12" height="13" />
<rect x="69" y="216" width="12" height="13" />
<rect x="103" y="216" width="12" height="13" />
<rect x="94" y="216" width="13" height="13" />
<rect x="94" y="208" width="13" height="12" />
<rect x="86" y="208" width="12" height="12" />
<rect x="111" y="216" width="13" height="13" />
<rect x="129" y="225" width="12" height="12" />
<rect x="111" y="208" width="13" height="12" />
<rect x="120" y="208" width="13" height="12" />
<rect x="111" y="199" width="13" height="13" />
<rect x="120" y="199" width="13" height="13" />
<rect x="129" y="233" width="12" height="13" />
<rect x="103" y="225" width="12" height="12" />
<rect x="69" y="225" width="12" height="12" />
<rect x="69" y="233" width="12" height="13" />
<rect x="137" y="251" width="12" height="12" />
<rect x="43" y="268" width="12" height="12" />
<rect x="34" y="268" width="13" height="12" />
<rect x="26" y="233" width="12" height="13" />
<rect x="34" y="251" width="13" height="12" />
<rect x="111" y="242" width="13" height="12" />
<rect x="69" y="166" width="12" height="12" />
<rect x="60" y="166" width="13" height="12" />
<rect x="52" y="166" width="12" height="12" />
<rect x="51" y="225" width="13" height="12" />
<rect x="43" y="225" width="12" height="12" />
<rect x="34" y="225" width="13" height="12" />
<rect x="26" y="225" width="12" height="12" />
<rect x="51" y="216" width="13" height="13" />
<rect x="43" y="216" width="12" height="13" />
<rect x="34" y="216" width="13" height="13" />
<rect x="26" y="216" width="12" height="13" />
<rect x="128" y="251" width="13" height="12" />
<rect x="137" y="259" width="12" height="13" />
<rect x="128" y="259" width="13" height="13" />
<rect x="137" y="268" width="12" height="12" />
<rect x="128" y="268" width="13" height="12" />
<rect x="60" y="216" width="13" height="13" />
<rect x="43" y="208" width="12" height="12" />
<rect x="60" y="242" width="12" height="12" />
<rect x="60" y="251" width="12" height="12" />
<rect x="60" y="225" width="12" height="12" />
<rect x="60" y="233" width="12" height="13" />
<rect x="51" y="242" width="13" height="12" />
<rect x="51" y="251" width="13" height="12" />
<rect x="43" y="251" width="12" height="12" />
<rect x="43" y="233" width="12" height="13" />
<rect x="34" y="233" width="13" height="13" />
<rect x="43" y="242" width="12" height="12" />
<rect x="69" y="242" width="12" height="12" />
<rect x="69" y="251" width="12" height="12" />
<rect x="77" y="242" width="12" height="12" />
<rect x="77" y="251" width="12" height="12" />
<rect x="85" y="268" width="13" height="12" />
<rect x="34" y="208" width="13" height="12" />
<rect x="26" y="208" width="12" height="12" />
<rect x="77" y="259" width="12" height="13" />
<rect x="77" y="268" width="12" height="12" />
<rect x="43" y="199" width="12" height="13" />
<rect x="68" y="259" width="13" height="13" />
<rect x="68" y="268" width="13" height="12" />
<rect x="34" y="199" width="13" height="13" />
<rect x="26" y="199" width="12" height="13" />
<rect x="94" y="276" width="13" height="13" />
<rect x="85" y="276" width="13" height="13" />
<rect x="26" y="242" width="12" height="12" />
<rect x="26" y="251" width="12" height="12" />
<rect x="77" y="276" width="12" height="13" />
<rect x="68" y="276" width="13" height="13" />
<rect x="60" y="276" width="12" height="13" />
<rect x="51" y="276" width="13" height="13" />
<rect x="77" y="183" width="13" height="13" />
<rect x="26" y="259" width="12" height="13" />
<rect x="77" y="175" width="13" height="12" />
<rect x="77" y="216" width="13" height="13" />
<rect x="103" y="191" width="12" height="12" />
<rect x="86" y="216" width="12" height="13" />
<rect x="86" y="225" width="12" height="12" />
<rect x="77" y="225" width="13" height="12" />
<rect x="60" y="157" width="13" height="13" />
<rect x="26" y="268" width="12" height="12" />
<rect x="26" y="276" width="12" height="13" />
<rect x="17" y="242" width="12" height="12" />
<rect x="69" y="157" width="12" height="13" />
<rect x="17" y="251" width="12" height="12" />
<rect x="17" y="259" width="12" height="13" />
<rect x="17" y="268" width="12" height="12" />
<rect x="52" y="140" width="12" height="13" />
<rect x="52" y="149" width="12" height="12" />
<rect x="17" y="276" width="12" height="13" />
<rect x="8" y="242" width="13" height="12" />
<rect x="8" y="251" width="13" height="12" />
<rect x="8" y="259" width="13" height="13" />
<rect x="8" y="268" width="13" height="12" />
<rect x="0" y="242" width="12" height="12" />
<rect x="0" y="251" width="12" height="12" />
<rect x="0" y="259" width="12" height="13" />
<rect x="0" y="268" width="12" height="12" />
<rect x="0" y="242" width="4" height="12" />
<rect x="0" y="251" width="4" height="12" />
<rect x="0" y="259" width="4" height="13" />
<rect x="0" y="268" width="4" height="12" />
<rect x="0" y="276" width="4" height="13" />
<rect x="0" y="199" width="4" height="13" />
<rect x="0" y="208" width="4" height="12" />
<rect x="0" y="216" width="4" height="13" />
<rect x="0" y="225" width="4" height="12" />
<rect x="0" y="233" width="4" height="13" />
<rect x="0" y="199" width="12" height="13" />
<rect x="0" y="208" width="12" height="12" />
<rect x="0" y="216" width="12" height="13" />
<rect x="0" y="225" width="12" height="12" />
<rect x="0" y="233" width="12" height="13" />
<rect x="8" y="199" width="13" height="13" />
<rect x="8" y="208" width="13" height="12" />
<rect x="8" y="216" width="13" height="13" />
<rect x="8" y="225" width="13" height="12" />
<rect x="8" y="233" width="13" height="13" />
<rect x="51" y="208" width="13" height="12" />
<rect x="51" y="199" width="13" height="13" />
<rect x="51" y="191" width="13" height="12" />
<rect x="43" y="191" width="12" height="12" />
<rect x="146" y="251" width="12" height="12" />
<rect x="146" y="259" width="12" height="13" />
<rect x="146" y="268" width="12" height="12" />
<rect x="146" y="276" width="12" height="13" />
<rect x="137" y="285" width="13" height="12" />
<rect x="137" y="294" width="12" height="6" />
<rect x="128" y="285" width="13" height="12" />
<rect x="128" y="294" width="13" height="6" />
<rect x="120" y="285" width="12" height="12" />
<rect x="120" y="294" width="12" height="6" />
<rect x="94" y="285" width="13" height="12" />
<rect x="94" y="294" width="12" height="6" />
<rect x="86" y="285" width="12" height="12" />
<rect x="85" y="294" width="13" height="6" />
<rect x="77" y="285" width="12" height="12" />
<rect x="77" y="294" width="12" height="6" />
<rect x="8" y="191" width="13" height="12" />
<rect x="0" y="185" width="2" height="13" />
<rect x="68" y="285" width="13" height="12" />
<rect x="68" y="294" width="13" height="6" />
<rect x="60" y="285" width="12" height="12" />
<rect x="60" y="294" width="12" height="6" />
<rect x="8" y="276" width="13" height="13" />
<rect x="0" y="276" width="12" height="13" />
<rect x="8" y="285" width="13" height="12" />
<rect x="0" y="285" width="12" height="12" />
<rect x="0" y="293" width="12" height="7" />
<rect x="0" y="293" width="3" height="7" />
<rect x="17" y="191" width="12" height="12" />
<rect x="0" y="177" width="2" height="12" />
<rect x="25" y="182" width="13" height="13" />
<rect x="17" y="182" width="12" height="13" />
<rect x="51" y="285" width="13" height="12" />
<rect x="43" y="285" width="12" height="12" />
<rect x="146" y="285" width="12" height="12" />
<rect x="146" y="294" width="12" height="6" />
<rect x="154" y="285" width="13" height="12" />
<rect x="154" y="294" width="13" height="6" />
<rect x="163" y="285" width="12" height="12" />
<rect x="163" y="294" width="12" height="6" />
<rect x="163" y="251" width="12" height="12" />
<rect x="163" y="259" width="12" height="13" />
<rect x="163" y="268" width="12" height="12" />
<rect x="163" y="276" width="12" height="13" />
<rect x="154" y="251" width="13" height="12" />
<rect x="154" y="259" width="13" height="13" />
<rect x="154" y="268" width="13" height="12" />
<rect x="154" y="276" width="13" height="13" />
<rect x="0" y="168" width="2" height="13" />
<rect x="188" y="285" width="13" height="13" />
<rect x="146" y="142" width="14" height="15" />
<rect x="183" y="188" width="14" height="14" />
<rect x="201" y="182" width="13" height="14" />
<rect x="115" y="140" width="13" height="16" />
<rect x="86" y="145" width="16" height="19" />
<rect x="95" y="120" width="13" height="14" />
<rect x="60" y="259" width="12" height="13" />
<rect x="60" y="268" width="12" height="12" />
<rect x="43" y="276" width="12" height="13" />
<rect x="34" y="276" width="13" height="13" />
<rect x="60" y="140" width="13" height="13" />
<rect x="60" y="149" width="13" height="12" />
<rect x="52" y="157" width="12" height="13" />
<rect x="69" y="175" width="12" height="12" />
<rect x="60" y="175" width="13" height="12" />
<rect x="52" y="175" width="12" height="12" />
<rect x="103" y="208" width="12" height="12" />
<rect x="34" y="191" width="13" height="12" />
<rect x="26" y="191" width="12" height="12" />
<rect x="103" y="199" width="12" height="13" />
<rect x="17" y="199" width="12" height="13" />
<rect x="94" y="199" width="13" height="13" />
<rect x="17" y="208" width="12" height="12" />
<rect x="17" y="216" width="12" height="13" />
<rect x="17" y="225" width="12" height="12" />
<rect x="17" y="233" width="12" height="13" />
<rect x="60" y="200" width="12" height="12" />
<rect x="60" y="191" width="12" height="13" />
<rect x="60" y="183" width="12" height="12" />
<rect x="51" y="183" width="13" height="12" />
<rect x="120" y="216" width="13" height="13" />
<rect x="26" y="285" width="12" height="12" />
<rect x="26" y="294" width="12" height="6" />
<rect x="17" y="285" width="13" height="12" />
<rect x="17" y="294" width="12" height="6" />
<rect x="94" y="191" width="13" height="12" />
<rect x="171" y="268" width="13" height="13" />
<rect x="171" y="277" width="13" height="12" />
<rect x="171" y="285" width="13" height="13" />
<rect x="180" y="285" width="12" height="13" />
<rect x="197" y="285" width="13" height="13" />
<rect x="0" y="171" width="11" height="12" />
<rect x="0" y="162" width="11" height="13" />
<rect x="146" y="225" width="12" height="12" />
<rect x="146" y="233" width="12" height="13" />
<rect x="77" y="166" width="13" height="12" />
<rect x="51" y="259" width="13" height="13" />
<rect x="51" y="268" width="13" height="12" />
<rect x="60" y="208" width="13" height="12" />
<rect x="34" y="242" width="13" height="12" />
<rect x="103" y="242" width="12" height="12" />
<rect x="94" y="242" width="12" height="12" />
<rect x="137" y="234" width="12" height="12" />
<rect x="137" y="276" width="12" height="13" />
<rect x="128" y="276" width="13" height="13" />
<rect x="120" y="276" width="12" height="13" />
<rect x="111" y="276" width="13" height="13" />
</g>
<g class="spawningMap-very-uncommon">
<rect x="155" y="131" width="13" height="13" />
<rect x="137" y="147" width="14" height="14" />
<rect x="141" y="173" width="13" height="14" />
<rect x="158" y="187" width="13" height="15" />
<rect x="132" y="165" width="14" height="13" />
<rect x="89" y="137" width="14" height="14" />
<rect x="86" y="128" width="14" height="14" />
<rect x="78" y="128" width="13" height="14" />
<rect x="155" y="122" width="13" height="14" />
<rect x="123" y="156" width="14" height="14" />
<rect x="86" y="120" width="14" height="14" />
<rect x="78" y="120" width="13" height="14" />
</g>
</g>
</svg>