<svg xmlns="http://www.w3.org/2000/svg" width="1024" height="1024" viewBox="0 0 1024 1024" style="position: absolute; width:100%; height:100%;">
<defs>
    <filter id="blur" x="-30%" y="-30%" width="160%" height="160%">'
        <feColorMatrix type="matrix" values="1 0 0 1 0, 0 1 0 0 0, 0 0 1 0 0, 0 0 0 0.7 0"/>
        <feGaussianBlur stdDeviation="10" />
    </filter>
</defs>
<a href="/Mod:Crystal_Isles/Northland" class="svgRegion">
    <g filter="url(#blur)">
<rect x="358" y="19" width="327" height="267" />
    </g>
    <text x="512" y="60">Northland</text>
</a>
<a href="/Mod:Crystal_Isles/The_Great_Forest_North" class="svgRegion">
    <g filter="url(#blur)">
<rect x="88" y="45" width="272" height="154" />
    </g>
    <text x="512" y="60">The Great Forest North</text>
</a>
<a href="/Mod:Crystal_Isles/The_Great_Forest" class="svgRegion">
    <g filter="url(#blur)">
<rect x="88" y="197" width="272" height="189" />
    </g>
    <text x="512" y="60">The Great Forest</text>
</a>
<a href="/Mod:Crystal_Isles/Halcyon_Plains" class="svgRegion">
    <g filter="url(#blur)">
<rect x="64" y="384" width="120" height="102" />
<rect x="179" y="384" width="282" height="102" />
<rect x="358" y="341" width="43" height="102" />
<rect x="459" y="448" width="111" height="38" />
    </g>
    <text x="512" y="60">Halcyon Plains</text>
</a>
<a href="/Mod:Crystal_Isles/LowerHalcyon_Plains" class="svgRegion">
    <g filter="url(#blur)">
<rect x="566" y="390" width="191" height="49" />
<rect x="691" y="312" width="47" height="127" />
    </g>
    <text x="512" y="60">LowerHalcyon Plains</text>
</a>
<a href="/Mod:Crystal_Isles/Eldritch_Isle" class="svgRegion">
    <g filter="url(#blur)">
<rect x="681" y="45" width="251" height="267" />
    </g>
    <text x="512" y="60">Eldritch Isle</text>
</a>
<a href="/Mod:Crystal_Isles/Apotheosis" class="svgRegion">
    <g filter="url(#blur)">
<rect x="732" y="311" width="251" height="251" />
    </g>
    <text x="512" y="60">Apotheosis</text>
</a>
<a href="/Mod:Crystal_Isles/The_Great_Valley" class="svgRegion">
    <g filter="url(#blur)">
<rect x="704" y="642" width="320" height="324" />
<rect x="704" y="602" width="320" height="47" />
<rect x="660" y="689" width="49" height="275" />
    </g>
    <text x="512" y="60">The Great Valley</text>
</a>
<a href="/Mod:Crystal_Isles/The_Tropics" class="svgRegion">
    <g filter="url(#blur)">
<rect x="283" y="651" width="119" height="75" />
    </g>
    <text x="512" y="60">The Tropics</text>
</a>
<a href="/Mod:Crystal_Isles/Bloodfall%27s_Hallow" class="svgRegion">
    <g filter="url(#blur)">
<rect x="277" y="536" width="98" height="131" />
    </g>
    <text x="512" y="60">Bloodfall&#x27;s Hallow</text>
</a>
<a href="/Mod:Crystal_Isles/Wander%27s_End" class="svgRegion">
    <g filter="url(#blur)">
<rect x="316" y="866" width="52" height="53" />
<rect x="362" y="829" width="202" height="127" />
    </g>
    <text x="512" y="60">Wander&#x27;s End</text>
</a>
<a href="/Mod:Crystal_Isles/The_White_Shoals" class="svgRegion">
    <g filter="url(#blur)">
<rect x="61" y="545" width="224" height="405" />
<rect x="285" y="780" width="79" height="87" />
<rect x="284" y="920" width="86" height="32" />
<rect x="61" y="485" width="121" height="64" />
<rect x="284" y="867" width="32" height="54" />
    </g>
    <text x="512" y="60">The White Shoals</text>
</a>
<a href="/Mod:Crystal_Isles/Wander%27s_Tail" class="svgRegion">
    <g filter="url(#blur)">
<rect x="282" y="722" width="123" height="62" />
    </g>
    <text x="512" y="60">Wander&#x27;s Tail</text>
</a>
<a href="/Mod:Crystal_Isles/Northern_Islands" class="svgRegion">
    <g filter="url(#blur)">
<rect x="611" y="140" width="82" height="177" />
    </g>
    <text x="512" y="60">Northern Islands</text>
</a>
<a href="/Mod:Crystal_Isles/Wander%27s_Hope" class="svgRegion">
    <g filter="url(#blur)">
<rect x="361" y="707" width="177" height="124" />
<rect x="562" y="694" width="100" height="290" />
    </g>
    <text x="512" y="60">Wander&#x27;s Hope</text>
</a>
<a href="/Mod:Crystal_Isles/Tundrafalls" class="svgRegion">
    <g filter="url(#blur)">
<rect x="397" y="276" width="253" height="130" />
<rect x="647" y="313" width="49" height="81" />
<rect x="460" y="404" width="109" height="80" />
<rect x="356" y="281" width="45" height="62" />
    </g>
    <text x="512" y="60">Tundrafalls</text>
</a>
<a href="/Mod:Crystal_Isles/Central_River" class="svgRegion">
    <g filter="url(#blur)">
<rect x="184" y="410" width="86" height="136" />
<rect x="266" y="482" width="305" height="73" />
    </g>
    <text x="512" y="60">Central River</text>
</a>
<a href="/Mod:Crystal_Isles/Desert_Savannah" class="svgRegion">
    <g filter="url(#blur)">
<rect x="394" y="648" width="210" height="61" />
<rect x="453" y="629" width="145" height="21" />
    </g>
    <text x="512" y="60">Desert Savannah</text>
</a>
<a href="/Mod:Crystal_Isles/Copper_Peaks" class="svgRegion">
    <g filter="url(#blur)">
<rect x="456" y="553" width="116" height="77" />
    </g>
    <text x="512" y="60">Copper Peaks</text>
</a>
<a href="/Mod:Crystal_Isles/Crook%27s_Canyon" class="svgRegion">
    <g filter="url(#blur)">
<rect x="428" y="769" width="49" height="17" />
<rect x="389" y="751" width="52" height="34" />
<rect x="463" y="737" width="41" height="52" />
<rect x="482" y="706" width="20" height="53" />
    </g>
    <text x="512" y="60">Crook&#x27;s Canyon</text>
</a>
<a href="/Mod:Crystal_Isles/Midland_Savannah" class="svgRegion">
    <g filter="url(#blur)">
<rect x="403" y="553" width="54" height="77" />
<rect x="390" y="612" width="65" height="40" />
    </g>
    <text x="512" y="60">Midland Savannah</text>
</a>
<a href="/Mod:Crystal_Isles/Central_Oasis" class="svgRegion">
    <g filter="url(#blur)">
<rect x="477" y="791" width="99" height="39" />
<rect x="498" y="744" width="68" height="49" />
<rect x="529" y="707" width="31" height="49" />
    </g>
    <text x="512" y="60">Central Oasis</text>
</a>
<a href="/Mod:Crystal_Isles/The_Wetlands" class="svgRegion">
    <g filter="url(#blur)">
<rect x="373" y="524" width="56" height="31" />
<rect x="358" y="554" width="45" height="60" />
<rect x="359" y="602" width="32" height="50" />
    </g>
    <text x="512" y="60">The Wetlands</text>
</a>
<a href="/Mod:Crystal_Isles/Emberfall" class="svgRegion">
    <g filter="url(#blur)">
<rect x="704" y="561" width="96" height="42" />
<rect x="704" y="492" width="30" height="69" />
<rect x="570" y="492" width="134" height="69" />
<rect x="570" y="561" width="134" height="69" />
<rect x="596" y="626" width="112" height="69" />
<rect x="624" y="557" width="18" height="19" />
<rect x="578" y="489" width="112" height="155" />
<rect x="617" y="581" width="73" height="63" />
    </g>
    <text x="512" y="60">Emberfall</text>
</a>
<a href="/Mod:Crystal_Isles/Fire_Swamp" class="svgRegion">
    <g filter="url(#blur)">
<rect x="567" y="438" width="179" height="56" />
<rect x="557" y="464" width="40" height="63" />
<rect x="732" y="492" width="27" height="73" />
<rect x="744" y="564" width="47" height="38" />
    </g>
    <text x="512" y="60">Fire Swamp</text>
</a>
<a href="/Mod:Crystal_Isles/Desert_Wyvern_Hive" class="svgRegion">
    <g filter="url(#blur)">
<rect x="403" y="793" width="45" height="49" />
    </g>
    <text x="512" y="60">Desert Wyvern Hive</text>
</a>
<a href="/Mod:Crystal_Isles/Cooling_Pond" class="svgRegion">
    <g filter="url(#blur)">
<rect x="619" y="523" width="13" height="13" />
<rect x="620" y="513" width="9" height="12" />
    </g>
    <text x="512" y="60">Cooling Pond</text>
</a>
</svg>