<?xml version="1.0" encoding="utf-8"?>
<svg xmlns="http://www.w3.org/2000/svg" width="300" height="300"
        viewBox="0 0 300 300" class="creatureMap" style="position:absolute;">
    <defs>
        <filter id="blur" x="-30%" y="-30%" width="160%" height="160%">
            <feGaussianBlur stdDeviation="3" />
        </filter>
        <pattern id="pattern-untameable" width="10" height="10" patternTransform="rotate(135)" patternUnits="userSpaceOnUse">
            <rect width="4" height="10" fill="black"></rect>
        </pattern>
        <filter id="groupStroke">
            <feFlood result="outsideColor" flood-color="black"/>
            <feMorphology in="SourceAlpha" operator="dilate" radius="2"/>
            <feComposite result="strokeoutline1" in="outsideColor" operator="in"/>
            <feComposite result="strokeoutline2" in="strokeoutline1" in2="SourceAlpha" operator="out"/>
            <feGaussianBlur in="strokeoutline2" result="strokeblur" stdDeviation="1"/>
        </filter>
        <style>
            .spawningMap-very-common { fill: #0F0; }
            .spawningMap-common { fill: #B2FF00; }
            .spawningMap-uncommon { fill: #FF0; }
            .spawningMap-very-uncommon { fill: #FC0; }
            .spawningMap-rare { fill: #F60; }
            .spawningMap-very-rare { fill: #F00; }
            .spawning-map-point { stroke:black; stroke-width:1; }
        </style>
    </defs>

<g filter="url(#blur)" opacity="0.7">
<g class="spawningMap-very-rare">
<rect x="211" y="172" width="69" height="54" />
</g>
<g class="spawningMap-rare">
<rect x="182" y="64" width="24" height="16" />
<rect x="241" y="104" width="42" height="26" />
<rect x="119" y="198" width="36" height="28" />
<rect x="107" y="44" width="35" height="34" />
<rect x="146" y="183" width="13" height="19" />
<rect x="147" y="168" width="18" height="19" />
<rect x="154" y="157" width="12" height="19" />
<rect x="150" y="157" width="10" height="19" />
<rect x="151" y="146" width="14" height="19" />
<rect x="150" y="132" width="11" height="20" />
<rect x="147" y="168" width="18" height="19" />
<rect x="154" y="157" width="12" height="19" />
<rect x="150" y="157" width="10" height="19" />
<rect x="151" y="146" width="14" height="19" />
<rect x="150" y="132" width="11" height="20" />
<rect x="242" y="173" width="36" height="33" />
<rect x="181" y="198" width="35" height="28" />
<rect x="211" y="198" width="36" height="28" />
<rect x="253" y="143" width="34" height="33" />
<rect x="253" y="114" width="33" height="34" />
<rect x="253" y="86" width="32" height="33" />
<rect x="253" y="57" width="29" height="34" />
<rect x="253" y="6" width="35" height="34" />
<rect x="231" y="55" width="35" height="34" />
<rect x="200" y="62" width="36" height="34" />
<rect x="170" y="62" width="35" height="34" />
<rect x="139" y="62" width="35" height="34" />
<rect x="146" y="183" width="13" height="19" />
<rect x="263" y="3" width="35" height="87" />
<rect x="263" y="149" width="35" height="69" />
<rect x="211" y="173" width="36" height="33" />
<rect x="150" y="198" width="35" height="28" />
<rect x="242" y="198" width="36" height="28" />
<rect x="263" y="3" width="35" height="87" />
<rect x="150" y="132" width="11" height="20" />
<rect x="151" y="146" width="14" height="19" />
<rect x="150" y="157" width="10" height="19" />
<rect x="154" y="157" width="12" height="19" />
<rect x="147" y="168" width="18" height="19" />
<rect x="146" y="183" width="13" height="19" />
</g>
<g class="spawningMap-very-uncommon">
<rect x="239" y="195" width="40" height="33" />
<rect x="237" y="149" width="31" height="69" />
<rect x="236" y="85" width="32" height="69" />
<rect x="244" y="19" width="24" height="71" />
<rect x="263" y="85" width="35" height="69" />
<rect x="263" y="85" width="35" height="69" />
<rect x="237" y="149" width="31" height="69" />
<rect x="236" y="85" width="32" height="69" />
<rect x="244" y="19" width="24" height="71" />
</g>
</g>
<g filter="url(#groupStroke)" opacity="0.8">
<rect x="146" y="183" width="13" height="19"/>
<rect x="147" y="168" width="18" height="19"/>
<rect x="154" y="157" width="12" height="19"/>
<rect x="150" y="157" width="10" height="19"/>
<rect x="151" y="146" width="14" height="19"/>
<rect x="150" y="132" width="11" height="20"/>
<rect x="147" y="168" width="18" height="19"/>
<rect x="154" y="157" width="12" height="19"/>
<rect x="150" y="157" width="10" height="19"/>
<rect x="151" y="146" width="14" height="19"/>
<rect x="150" y="132" width="11" height="20"/>
<rect x="146" y="183" width="13" height="19"/>
<rect x="150" y="132" width="11" height="20"/>
<rect x="151" y="146" width="14" height="19"/>
<rect x="150" y="157" width="10" height="19"/>
<rect x="154" y="157" width="12" height="19"/>
<rect x="147" y="168" width="18" height="19"/>
<rect x="146" y="183" width="13" height="19"/>
</g>
</svg>