<?xml version="1.0" encoding="utf-8"?>
<svg xmlns="http://www.w3.org/2000/svg" width="300" height="300"
        viewBox="0 0 300 300" class="creatureMap" style="position:absolute;">
    <defs>
        <filter id="blur" x="-30%" y="-30%" width="160%" height="160%">
            <feGaussianBlur stdDeviation="3" />
        </filter>
        <pattern id="pattern-untameable" width="10" height="10" patternTransform="rotate(135)" patternUnits="userSpaceOnUse">
            <rect width="4" height="10" fill="black"></rect>
        </pattern>
        <filter id="groupStroke">
            <feFlood result="outsideColor" flood-color="black"/>
            <feMorphology in="SourceAlpha" operator="dilate" radius="2"/>
            <feComposite result="strokeoutline1" in="outsideColor" operator="in"/>
            <feComposite result="strokeoutline2" in="strokeoutline1" in2="SourceAlpha" operator="out"/>
            <feGaussianBlur in="strokeoutline2" result="strokeblur" stdDeviation="1"/>
        </filter>
        <style>
            .spawningMap-very-common { fill: #0F0; }
            .spawningMap-common { fill: #B2FF00; }
            .spawningMap-uncommon { fill: #FF0; }
            .spawningMap-very-uncommon { fill: #FC0; }
            .spawningMap-rare { fill: #F60; }
            .spawningMap-very-rare { fill: #F00; }
            .spawning-map-point { stroke:black; stroke-width:1; }
        </style>
    </defs>

<g filter="url(#blur)" opacity="0.7">
<g class="spawningMap-very-rare">
<rect x="91" y="97" width="13" height="13" />
<rect x="207" y="93" width="20" height="16" />
<rect x="182" y="69" width="24" height="18" />
<rect x="99" y="89" width="13" height="13" />
<rect x="83" y="97" width="13" height="13" />
<rect x="107" y="89" width="13" height="13" />
<rect x="99" y="81" width="13" height="13" />
<rect x="195" y="90" width="17" height="14" />
<rect x="218" y="69" width="13" height="20" />
<rect x="195" y="82" width="17" height="13" />
<rect x="182" y="82" width="17" height="13" />
<rect x="130" y="138" width="25" height="14" />
<rect x="120" y="148" width="26" height="17" />
<rect x="124" y="160" width="22" height="12" />
<rect x="124" y="167" width="22" height="13" />
<rect x="83" y="73" width="13" height="14" />
<rect x="91" y="73" width="13" height="14" />
<rect x="99" y="73" width="13" height="14" />
<rect x="107" y="73" width="13" height="14" />
<rect x="107" y="81" width="13" height="13" />
<rect x="91" y="81" width="13" height="13" />
<rect x="83" y="81" width="13" height="13" />
<rect x="83" y="89" width="13" height="13" />
<rect x="91" y="89" width="13" height="13" />
</g>
<g class="spawningMap-rare">
<rect x="141" y="120" width="13" height="14" />
<rect x="171" y="101" width="11" height="13" />
<rect x="156" y="142" width="20" height="11" />
<rect x="124" y="174" width="22" height="11" />
<rect x="185" y="101" width="14" height="15" />
<rect x="156" y="124" width="25" height="10" />
<rect x="175" y="94" width="14" height="13" />
<rect x="177" y="101" width="13" height="13" />
<rect x="185" y="111" width="14" height="10" />
<rect x="177" y="109" width="13" height="13" />
<rect x="177" y="116" width="19" height="12" />
<rect x="168" y="109" width="14" height="13" />
<rect x="158" y="109" width="15" height="13" />
<rect x="130" y="133" width="25" height="10" />
<rect x="130" y="128" width="25" height="10" />
</g>
</g>
</svg>