<?xml version="1.0" encoding="utf-8"?>
<svg xmlns="http://www.w3.org/2000/svg" width="300" height="300"
        viewBox="0 0 300 300" class="creatureMap" style="position:absolute;">
    <defs>
        <filter id="blur" x="-30%" y="-30%" width="160%" height="160%">
            <feGaussianBlur stdDeviation="3" />
        </filter>
        <pattern id="pattern-untameable" width="10" height="10" patternTransform="rotate(135)" patternUnits="userSpaceOnUse">
            <rect width="4" height="10" fill="black"></rect>
        </pattern>
        <filter id="groupStroke">
            <feFlood result="outsideColor" flood-color="black"/>
            <feMorphology in="SourceAlpha" operator="dilate" radius="2"/>
            <feComposite result="strokeoutline1" in="outsideColor" operator="in"/>
            <feComposite result="strokeoutline2" in="strokeoutline1" in2="SourceAlpha" operator="out"/>
            <feGaussianBlur in="strokeoutline2" result="strokeblur" stdDeviation="1"/>
        </filter>
        <style>
            .spawningMap-very-common { fill: #0F0; }
            .spawningMap-common { fill: #B2FF00; }
            .spawningMap-uncommon { fill: #FF0; }
            .spawningMap-very-uncommon { fill: #FC0; }
            .spawningMap-rare { fill: #F60; }
            .spawningMap-very-rare { fill: #F00; }
            .spawning-map-point { stroke:black; stroke-width:1; }
        </style>
    </defs>

<g filter="url(#blur)" opacity="0.7">
<g class="spawningMap-very-rare">
<rect x="106" y="217" width="33" height="23" />
</g>
</g>
<g class="spawning-map-point" opacity="0.8">
<g class="spawningMap-very-rare">
<circle cx="115" cy="195" r="4" />
<circle cx="115" cy="196" r="4" />
<circle cx="115" cy="194" r="4" />
<circle cx="116" cy="195" r="4" />
<circle cx="120" cy="202" r="4" />
<circle cx="124" cy="204" r="4" />
<circle cx="124" cy="205" r="4" />
<circle cx="128" cy="203" r="4" />
<circle cx="127" cy="203" r="4" />
<circle cx="117" cy="204" r="4" />
<circle cx="119" cy="208" r="4" />
<circle cx="117" cy="208" r="4" />
<circle cx="121" cy="207" r="4" />
<circle cx="123" cy="198" r="4" />
<circle cx="121" cy="200" r="4" />
<circle cx="127" cy="201" r="4" />
<circle cx="122" cy="211" r="4" />
<circle cx="125" cy="206" r="4" />
<circle cx="118" cy="203" r="4" />
<circle cx="117" cy="210" r="4" />
<circle cx="119" cy="211" r="4" />
<circle cx="123" cy="211" r="4" />
<circle cx="119" cy="207" r="4" />
<circle cx="127" cy="203" r="4" />
<circle cx="127" cy="202" r="4" />
<circle cx="127" cy="204" r="4" />
<circle cx="122" cy="204" r="4" />
<circle cx="209" cy="66" r="4" />
<circle cx="220" cy="64" r="4" />
<circle cx="221" cy="63" r="4" />
<circle cx="215" cy="64" r="4" />
<circle cx="216" cy="65" r="4" />
<circle cx="209" cy="65" r="4" />
<circle cx="210" cy="67" r="4" />
<circle cx="217" cy="64" r="4" />
<circle cx="217" cy="63" r="4" />
<circle cx="224" cy="60" r="4" />
<circle cx="222" cy="56" r="4" />
<circle cx="209" cy="68" r="4" />
<circle cx="220" cy="57" r="4" />
<circle cx="220" cy="56" r="4" />
<circle cx="218" cy="54" r="4" />
<circle cx="218" cy="53" r="4" />
<circle cx="217" cy="52" r="4" />
<circle cx="216" cy="51" r="4" />
<circle cx="214" cy="52" r="4" />
<circle cx="214" cy="49" r="4" />
<circle cx="212" cy="48" r="4" />
<circle cx="211" cy="48" r="4" />
<circle cx="212" cy="65" r="4" />
<circle cx="210" cy="46" r="4" />
<circle cx="213" cy="65" r="4" />
<circle cx="212" cy="64" r="4" />
<circle cx="216" cy="64" r="4" />
<circle cx="216" cy="64" r="4" />
<circle cx="215" cy="64" r="4" />
<circle cx="219" cy="63" r="4" />
</g>
</g>
<g fill="url(#pattern-untameable)" opacity="0.3">
<rect x="106" y="217" width="33" height="23"/>
</g>
</svg>