<?xml version="1.0" encoding="utf-8"?>
<svg xmlns="http://www.w3.org/2000/svg" width="300" height="300" viewBox="0 0 300 300" class="creatureMap" style="position:absolute;">
    <defs>
        <filter id="blur" x="-30%" y="-30%" width="160%" height="160%">
            <feGaussianBlur stdDeviation="3" />
        </filter>
        <pattern id="pattern-untameable" width="10" height="10" patternTransform="rotate(135)" patternUnits="userSpaceOnUse">'
            <rect width="4" height="10" fill="black"></rect>
        </pattern>
        <filter id="groupStroke">
            <feFlood result="outsideColor" flood-color="black"/>
            <feMorphology in="SourceAlpha" operator="dilate" radius="2"/>
            <feComposite result="strokeoutline1" in="outsideColor" operator="in"/>
            <feComposite result="strokeoutline2" in="strokeoutline1" in2="SourceAlpha" operator="out"/>
            <feGaussianBlur in="strokeoutline2" result="strokeblur" stdDeviation="1"/>
        </filter>
        <style>
            .spawningMap-very-common { fill: #0F0; }
            .spawningMap-common { fill: #B2FF00; }
            .spawningMap-uncommon { fill: #FF0; }
            .spawningMap-very-uncommon { fill: #FC0; }
            .spawningMap-rare { fill: #F60; }
            .spawningMap-very-rare { fill: #F00; }
            .spawning-map-point { stroke:black; stroke-width:1; }
        </style>
    </defs>

<g filter="url(#blur)" opacity="0.7">
<g class="spawningMap-very-rare">
<rect x="156" y="213" width="11" height="14" />
<rect x="156" y="205" width="11" height="14" />
<rect x="157" y="194" width="20" height="9" />
<rect x="172" y="150" width="10" height="18" />
<rect x="134" y="229" width="9" height="17" />
<rect x="177" y="245" width="13" height="13" />
<rect x="185" y="245" width="13" height="13" />
<rect x="185" y="158" width="13" height="13" />
<rect x="192" y="158" width="13" height="13" />
<rect x="91" y="97" width="13" height="13" />
<rect x="194" y="102" width="13" height="17" />
<rect x="206" y="72" width="16" height="13" />
<rect x="170" y="129" width="11" height="10" />
<rect x="164" y="131" width="12" height="10" />
<rect x="160" y="132" width="9" height="9" />
<rect x="156" y="137" width="10" height="9" />
<rect x="150" y="127" width="10" height="13" />
<rect x="120" y="138" width="12" height="10" />
<rect x="126" y="133" width="8" height="10" />
<rect x="166" y="98" width="10" height="13" />
<rect x="157" y="179" width="13" height="13" />
<rect x="192" y="245" width="13" height="13" />
<rect x="169" y="213" width="13" height="14" />
<rect x="169" y="205" width="13" height="14" />
<rect x="161" y="213" width="13" height="14" />
<rect x="161" y="205" width="13" height="14" />
<rect x="161" y="198" width="13" height="13" />
<rect x="99" y="89" width="13" height="13" />
<rect x="156" y="198" width="11" height="13" />
<rect x="169" y="198" width="13" height="13" />
<rect x="172" y="175" width="10" height="16" />
<rect x="172" y="163" width="10" height="17" />
<rect x="172" y="186" width="10" height="17" />
<rect x="177" y="122" width="13" height="13" />
<rect x="83" y="97" width="13" height="13" />
<rect x="163" y="117" width="18" height="12" />
<rect x="209" y="83" width="13" height="14" />
<rect x="107" y="89" width="13" height="13" />
<rect x="99" y="81" width="13" height="13" />
<rect x="185" y="93" width="13" height="13" />
<rect x="83" y="73" width="13" height="14" />
<rect x="91" y="73" width="13" height="14" />
<rect x="99" y="73" width="13" height="14" />
<rect x="107" y="73" width="13" height="14" />
<rect x="157" y="163" width="13" height="13" />
<rect x="107" y="81" width="13" height="13" />
<rect x="91" y="81" width="13" height="13" />
<rect x="83" y="81" width="13" height="13" />
<rect x="83" y="89" width="13" height="13" />
<rect x="157" y="147" width="13" height="13" />
<rect x="185" y="253" width="13" height="13" />
<rect x="177" y="253" width="13" height="13" />
<rect x="192" y="237" width="13" height="13" />
<rect x="91" y="89" width="13" height="13" />
<rect x="192" y="253" width="13" height="13" />
<rect x="192" y="229" width="13" height="13" />
<rect x="192" y="205" width="13" height="14" />
<rect x="192" y="198" width="13" height="13" />
<rect x="192" y="190" width="13" height="13" />
<rect x="185" y="190" width="13" height="13" />
<rect x="185" y="182" width="13" height="13" />
<rect x="192" y="182" width="13" height="13" />
<rect x="185" y="174" width="13" height="13" />
<rect x="192" y="174" width="13" height="13" />
<rect x="185" y="166" width="13" height="13" />
<rect x="192" y="166" width="13" height="13" />
</g>
<g class="spawningMap-rare">
<rect x="151" y="138" width="10" height="13" />
</g>
</g>
</svg>