<?xml version="1.0" encoding="utf-8"?>
<svg xmlns="http://www.w3.org/2000/svg" width="300" height="300" viewBox="0 0 300 300" class="creatureMap" style="position:absolute;">
    <defs>
        <filter id="blur" x="-30%" y="-30%" width="160%" height="160%">
            <feGaussianBlur stdDeviation="3" />
        </filter>
        <pattern id="pattern-untameable" width="10" height="10" patternTransform="rotate(135)" patternUnits="userSpaceOnUse">'
            <rect width="4" height="10" fill="black"></rect>
        </pattern>
        <filter id="groupStroke">
            <feFlood result="outsideColor" flood-color="black"/>
            <feMorphology in="SourceAlpha" operator="dilate" radius="2"/>
            <feComposite result="strokeoutline1" in="outsideColor" operator="in"/>
            <feComposite result="strokeoutline2" in="strokeoutline1" in2="SourceAlpha" operator="out"/>
            <feGaussianBlur in="strokeoutline2" result="strokeblur" stdDeviation="1"/>
        </filter>
        <style>
            .spawningMap-very-common { fill: #0F0; }
            .spawningMap-common { fill: #B2FF00; }
            .spawningMap-uncommon { fill: #FF0; }
            .spawningMap-very-uncommon { fill: #FC0; }
            .spawningMap-rare { fill: #F60; }
            .spawningMap-very-rare { fill: #F00; }
            .spawning-map-point { stroke:black; stroke-width:1; }
        </style>
    </defs>

<g filter="url(#blur)" opacity="0.7">
<g class="spawningMap-rare">
<rect x="200" y="201" width="20" height="21" />
<rect x="211" y="250" width="20" height="21" />
<rect x="211" y="233" width="20" height="21" />
<rect x="200" y="217" width="20" height="21" />
</g>
<g class="spawningMap-very-uncommon">
<rect x="51" y="268" width="14" height="12" />
<rect x="100" y="229" width="17" height="15" />
<rect x="113" y="220" width="15" height="15" />
<rect x="56" y="49" width="20" height="13" />
<rect x="50" y="56" width="16" height="15" />
<rect x="124" y="220" width="15" height="15" />
<rect x="100" y="220" width="17" height="15" />
</g>
<g class="spawningMap-uncommon">
<rect x="16" y="109" width="12" height="17" />
<rect x="22" y="109" width="11" height="17" />
<rect x="28" y="121" width="11" height="16" />
<rect x="50" y="109" width="11" height="17" />
<rect x="50" y="121" width="11" height="16" />
<rect x="33" y="144" width="11" height="16" />
<rect x="44" y="155" width="11" height="17" />
<rect x="56" y="109" width="11" height="16" />
<rect x="56" y="121" width="11" height="16" />
<rect x="136" y="105" width="13" height="13" />
<rect x="136" y="97" width="13" height="13" />
<rect x="129" y="105" width="13" height="13" />
<rect x="129" y="97" width="13" height="13" />
<rect x="121" y="105" width="13" height="13" />
<rect x="121" y="97" width="13" height="13" />
<rect x="113" y="105" width="13" height="13" />
<rect x="113" y="97" width="13" height="13" />
<rect x="113" y="40" width="11" height="16" />
<rect x="16" y="98" width="12" height="16" />
<rect x="22" y="98" width="11" height="16" />
<rect x="28" y="98" width="11" height="16" />
<rect x="33" y="98" width="11" height="16" />
<rect x="39" y="98" width="11" height="16" />
<rect x="28" y="109" width="11" height="17" />
<rect x="33" y="109" width="11" height="17" />
<rect x="39" y="144" width="11" height="16" />
<rect x="33" y="121" width="11" height="16" />
<rect x="44" y="144" width="12" height="16" />
<rect x="39" y="109" width="11" height="17" />
<rect x="39" y="121" width="11" height="16" />
<rect x="44" y="109" width="12" height="17" />
<rect x="44" y="121" width="12" height="16" />
<rect x="50" y="132" width="11" height="17" />
<rect x="50" y="144" width="11" height="16" />
<rect x="56" y="132" width="11" height="17" />
<rect x="56" y="144" width="11" height="16" />
<rect x="39" y="132" width="11" height="17" />
<rect x="33" y="132" width="11" height="17" />
<rect x="44" y="132" width="12" height="17" />
</g>
</g>
</svg>