<?xml version="1.0" encoding="utf-8"?>
<svg xmlns="http://www.w3.org/2000/svg" width="300" height="300"
        viewBox="0 0 300 300" class="creatureMap" style="position:absolute;">
    <defs>
        <filter id="blur" x="-30%" y="-30%" width="160%" height="160%">
            <feGaussianBlur stdDeviation="3" />
        </filter>
        <pattern id="pattern-untameable" width="10" height="10" patternTransform="rotate(135)" patternUnits="userSpaceOnUse">
            <rect width="4" height="10" fill="black"></rect>
        </pattern>
        <filter id="groupStroke">
            <feFlood result="outsideColor" flood-color="black"/>
            <feMorphology in="SourceAlpha" operator="dilate" radius="2"/>
            <feComposite result="strokeoutline1" in="outsideColor" operator="in"/>
            <feComposite result="strokeoutline2" in="strokeoutline1" in2="SourceAlpha" operator="out"/>
            <feGaussianBlur in="strokeoutline2" result="strokeblur" stdDeviation="1"/>
        </filter>
        <style>
            .spawningMap-very-common { fill: #0F0; }
            .spawningMap-common { fill: #B2FF00; }
            .spawningMap-uncommon { fill: #FF0; }
            .spawningMap-very-uncommon { fill: #FC0; }
            .spawningMap-rare { fill: #F60; }
            .spawningMap-very-rare { fill: #F00; }
            .spawning-map-point { stroke:black; stroke-width:1; }
        </style>
    </defs>

<g filter="url(#blur)" opacity="0.7">
<g class="spawningMap-very-rare">
<rect x="148" y="20" width="24" height="22" />
</g>
<g class="spawningMap-rare">
<rect x="46" y="238" width="13" height="16" />
<rect x="30" y="254" width="13" height="13" />
<rect x="30" y="33" width="15" height="14" />
<rect x="25" y="58" width="13" height="15" />
<rect x="64" y="23" width="13" height="16" />
<rect x="99" y="26" width="14" height="15" />
<rect x="52" y="91" width="13" height="16" />
<rect x="149" y="180" width="13" height="21" />
<rect x="153" y="59" width="16" height="15" />
<rect x="215" y="39" width="16" height="17" />
<rect x="226" y="51" width="16" height="18" />
<rect x="237" y="51" width="16" height="18" />
<rect x="258" y="31" width="16" height="17" />
<rect x="226" y="17" width="36" height="14" />
<rect x="259" y="56" width="23" height="18" />
<rect x="269" y="32" width="16" height="29" />
<rect x="258" y="18" width="16" height="18" />
<rect x="103" y="147" width="14" height="23" />
<rect x="89" y="167" width="21" height="14" />
<rect x="67" y="180" width="15" height="13" />
<rect x="62" y="215" width="16" height="19" />
<rect x="73" y="215" width="16" height="19" />
<rect x="89" y="188" width="26" height="11" />
<rect x="135" y="218" width="16" height="16" />
<rect x="146" y="207" width="16" height="16" />
<rect x="62" y="238" width="13" height="16" />
<rect x="54" y="238" width="13" height="16" />
<rect x="69" y="238" width="13" height="13" />
<rect x="25" y="48" width="13" height="15" />
<rect x="44" y="81" width="13" height="15" />
<rect x="160" y="30" width="16" height="23" />
<rect x="109" y="19" width="23" height="14" />
<rect x="153" y="69" width="16" height="16" />
<rect x="135" y="74" width="17" height="21" />
<rect x="128" y="19" width="24" height="14" />
<rect x="215" y="26" width="16" height="17" />
<rect x="226" y="26" width="16" height="17" />
<rect x="237" y="26" width="16" height="17" />
<rect x="248" y="26" width="15" height="17" />
<rect x="226" y="39" width="16" height="17" />
<rect x="237" y="39" width="16" height="17" />
<rect x="248" y="39" width="15" height="17" />
<rect x="248" y="51" width="15" height="18" />
<rect x="258" y="43" width="16" height="18" />
<rect x="204" y="26" width="16" height="17" />
<rect x="56" y="24" width="13" height="15" />
<rect x="131" y="37" width="16" height="23" />
<rect x="103" y="129" width="14" height="22" />
<rect x="94" y="129" width="13" height="22" />
<rect x="94" y="147" width="13" height="23" />
<rect x="67" y="172" width="15" height="14" />
<rect x="59" y="188" width="15" height="13" />
<rect x="59" y="196" width="15" height="13" />
<rect x="160" y="49" width="16" height="15" />
<rect x="62" y="204" width="16" height="16" />
<rect x="73" y="204" width="16" height="16" />
<rect x="77" y="193" width="16" height="16" />
<rect x="89" y="193" width="16" height="16" />
<rect x="100" y="193" width="16" height="16" />
<rect x="135" y="196" width="16" height="16" />
<rect x="135" y="207" width="16" height="16" />
<rect x="146" y="196" width="16" height="16" />
<rect x="54" y="212" width="13" height="18" />
<rect x="120" y="37" width="16" height="23" />
<rect x="149" y="163" width="13" height="22" />
<rect x="46" y="249" width="13" height="18" />
<rect x="54" y="249" width="13" height="18" />
<rect x="62" y="249" width="13" height="18" />
<rect x="69" y="246" width="13" height="13" />
</g>
<g class="spawningMap-very-uncommon">
<rect x="130" y="261" width="13" height="13" />
<rect x="130" y="269" width="13" height="13" />
<rect x="30" y="226" width="13" height="17" />
<rect x="69" y="254" width="13" height="13" />
<rect x="32" y="65" width="13" height="14" />
<rect x="164" y="187" width="13" height="13" />
<rect x="157" y="187" width="13" height="13" />
<rect x="216" y="253" width="13" height="13" />
<rect x="185" y="237" width="13" height="13" />
<rect x="200" y="158" width="13" height="13" />
<rect x="66" y="34" width="18" height="10" />
<rect x="98" y="41" width="15" height="13" />
<rect x="138" y="229" width="13" height="13" />
<rect x="161" y="245" width="13" height="13" />
<rect x="146" y="245" width="13" height="13" />
<rect x="138" y="245" width="13" height="13" />
<rect x="48" y="76" width="17" height="11" />
<rect x="127" y="80" width="13" height="16" />
<rect x="37" y="73" width="16" height="13" />
<rect x="200" y="190" width="13" height="13" />
<rect x="200" y="198" width="13" height="13" />
<rect x="200" y="205" width="13" height="14" />
<rect x="46" y="212" width="13" height="13" />
<rect x="100" y="204" width="13" height="13" />
<rect x="100" y="212" width="13" height="13" />
<rect x="84" y="220" width="13" height="13" />
<rect x="77" y="178" width="14" height="15" />
<rect x="192" y="221" width="13" height="14" />
<rect x="138" y="253" width="13" height="13" />
<rect x="79" y="38" width="13" height="14" />
<rect x="146" y="229" width="13" height="13" />
<rect x="146" y="221" width="13" height="14" />
<rect x="153" y="221" width="13" height="14" />
<rect x="138" y="261" width="13" height="13" />
<rect x="138" y="269" width="13" height="13" />
<rect x="79" y="46" width="13" height="14" />
<rect x="48" y="34" width="13" height="13" />
<rect x="32" y="42" width="13" height="13" />
<rect x="32" y="50" width="13" height="13" />
<rect x="161" y="221" width="13" height="14" />
<rect x="40" y="34" width="13" height="13" />
<rect x="83" y="54" width="18" height="11" />
<rect x="92" y="41" width="11" height="18" />
<rect x="93" y="32" width="11" height="14" />
<rect x="72" y="54" width="16" height="11" />
<rect x="108" y="38" width="17" height="11" />
<rect x="108" y="54" width="17" height="11" />
<rect x="108" y="49" width="17" height="11" />
<rect x="98" y="49" width="15" height="11" />
<rect x="108" y="43" width="17" height="11" />
<rect x="79" y="31" width="13" height="13" />
<rect x="108" y="32" width="17" height="11" />
<rect x="97" y="54" width="16" height="11" />
<rect x="32" y="57" width="13" height="14" />
<rect x="71" y="26" width="13" height="13" />
<rect x="224" y="253" width="13" height="13" />
<rect x="48" y="70" width="17" height="11" />
<rect x="72" y="60" width="16" height="11" />
<rect x="48" y="26" width="13" height="13" />
<rect x="62" y="136" width="13" height="13" />
<rect x="62" y="144" width="13" height="13" />
<rect x="69" y="149" width="13" height="13" />
<rect x="69" y="156" width="13" height="14" />
<rect x="69" y="164" width="13" height="14" />
<rect x="69" y="188" width="13" height="13" />
<rect x="69" y="196" width="13" height="13" />
<rect x="46" y="204" width="13" height="13" />
<rect x="54" y="204" width="13" height="13" />
<rect x="84" y="204" width="13" height="13" />
<rect x="84" y="212" width="13" height="13" />
<rect x="92" y="204" width="13" height="13" />
<rect x="92" y="212" width="13" height="13" />
<rect x="92" y="220" width="13" height="13" />
<rect x="157" y="155" width="13" height="13" />
<rect x="164" y="171" width="13" height="13" />
<rect x="157" y="171" width="13" height="13" />
<rect x="38" y="246" width="13" height="13" />
<rect x="30" y="238" width="13" height="13" />
<rect x="38" y="238" width="13" height="13" />
<rect x="208" y="182" width="13" height="13" />
<rect x="208" y="190" width="13" height="13" />
<rect x="208" y="198" width="13" height="13" />
<rect x="38" y="226" width="13" height="17" />
<rect x="208" y="205" width="13" height="14" />
<rect x="208" y="213" width="13" height="14" />
<rect x="200" y="213" width="13" height="14" />
<rect x="192" y="213" width="13" height="14" />
<rect x="208" y="221" width="13" height="14" />
<rect x="200" y="221" width="13" height="14" />
<rect x="208" y="229" width="13" height="13" />
<rect x="200" y="229" width="13" height="13" />
<rect x="30" y="246" width="13" height="13" />
<rect x="216" y="237" width="13" height="13" />
<rect x="208" y="237" width="13" height="13" />
<rect x="224" y="245" width="13" height="13" />
<rect x="216" y="245" width="13" height="13" />
<rect x="38" y="254" width="13" height="13" />
<rect x="185" y="221" width="13" height="13" />
<rect x="185" y="229" width="13" height="13" />
<rect x="177" y="229" width="13" height="13" />
<rect x="177" y="237" width="13" height="13" />
<rect x="200" y="182" width="13" height="13" />
<rect x="200" y="174" width="13" height="13" />
<rect x="200" y="166" width="13" height="13" />
<rect x="164" y="155" width="13" height="13" />
<rect x="161" y="229" width="13" height="13" />
<rect x="153" y="229" width="13" height="13" />
<rect x="161" y="237" width="13" height="13" />
<rect x="153" y="237" width="13" height="13" />
<rect x="146" y="237" width="13" height="13" />
<rect x="138" y="237" width="13" height="13" />
<rect x="153" y="245" width="13" height="13" />
<rect x="153" y="253" width="13" height="13" />
<rect x="161" y="253" width="13" height="13" />
<rect x="161" y="261" width="13" height="13" />
<rect x="161" y="269" width="13" height="13" />
</g>
<g class="spawningMap-uncommon">
<rect x="146" y="276" width="13" height="10" />
<rect x="153" y="276" width="13" height="10" />
<rect x="138" y="276" width="13" height="10" />
<rect x="164" y="179" width="13" height="13" />
<rect x="177" y="158" width="13" height="13" />
<rect x="177" y="150" width="13" height="13" />
<rect x="153" y="261" width="13" height="13" />
<rect x="146" y="269" width="13" height="13" />
<rect x="153" y="269" width="13" height="13" />
<rect x="164" y="163" width="13" height="13" />
<rect x="164" y="147" width="13" height="13" />
<rect x="169" y="245" width="13" height="13" />
<rect x="169" y="237" width="13" height="13" />
<rect x="169" y="229" width="13" height="13" />
<rect x="169" y="221" width="13" height="13" />
<rect x="177" y="221" width="13" height="13" />
<rect x="177" y="213" width="13" height="14" />
<rect x="185" y="213" width="13" height="14" />
<rect x="185" y="205" width="13" height="14" />
<rect x="185" y="198" width="13" height="13" />
<rect x="177" y="205" width="13" height="14" />
<rect x="177" y="198" width="13" height="13" />
<rect x="177" y="190" width="13" height="13" />
<rect x="177" y="182" width="13" height="13" />
<rect x="177" y="174" width="13" height="13" />
<rect x="177" y="166" width="13" height="13" />
<rect x="169" y="253" width="13" height="13" />
<rect x="146" y="253" width="13" height="13" />
<rect x="146" y="261" width="13" height="13" />
</g>
</g>
</svg>