<?xml version="1.0" encoding="utf-8"?>
<svg xmlns="http://www.w3.org/2000/svg" width="300" height="300" viewBox="0 0 300 300" class="creatureMap" style="position:absolute;">
    <defs>
        <filter id="blur" x="-30%" y="-30%" width="160%" height="160%">
            <feGaussianBlur stdDeviation="3" />
        </filter>
        <pattern id="pattern-untameable" width="10" height="10" patternTransform="rotate(135)" patternUnits="userSpaceOnUse">'
            <rect width="4" height="10" fill="black"></rect>
        </pattern>
        <filter id="groupStroke">
            <feFlood result="outsideColor" flood-color="black"/>
            <feMorphology in="SourceAlpha" operator="dilate" radius="2"/>
            <feComposite result="strokeoutline1" in="outsideColor" operator="in"/>
            <feComposite result="strokeoutline2" in="strokeoutline1" in2="SourceAlpha" operator="out"/>
            <feGaussianBlur in="strokeoutline2" result="strokeblur" stdDeviation="1"/>
        </filter>
        <style>
            .spawningMap-very-common { fill: #0F0; }
            .spawningMap-common { fill: #B2FF00; }
            .spawningMap-uncommon { fill: #FF0; }
            .spawningMap-very-uncommon { fill: #FC0; }
            .spawningMap-rare { fill: #F60; }
            .spawningMap-very-rare { fill: #F00; }
            .spawning-map-point { stroke:black; stroke-width:1; }
        </style>
    </defs>

<g filter="url(#blur)" opacity="0.7">
<g class="spawningMap-uncommon">
<rect x="25" y="100" width="29" height="17" />
<rect x="154" y="220" width="26" height="26" />
</g>
<g class="spawningMap-common">
<rect x="250" y="80" width="22" height="25" />
<rect x="32" y="245" width="19" height="17" />
<rect x="19" y="260" width="21" height="23" />
<rect x="98" y="277" width="25" height="23" />
<rect x="198" y="243" width="24" height="24" />
<rect x="211" y="251" width="25" height="24" />
<rect x="100" y="173" width="20" height="14" />
<rect x="68" y="120" width="15" height="22" />
<rect x="268" y="18" width="24" height="25" />
<rect x="236" y="196" width="27" height="27" />
</g>
<g class="spawningMap-very-common">
<rect x="52" y="106" width="21" height="20" />
<rect x="52" y="123" width="21" height="21" />
<rect x="32" y="113" width="21" height="20" />
<rect x="13" y="86" width="20" height="21" />
<rect x="30" y="86" width="21" height="21" />
<rect x="68" y="147" width="20" height="21" />
<rect x="99" y="130" width="21" height="20" />
<rect x="99" y="113" width="21" height="20" />
<rect x="140" y="156" width="11" height="11" />
<rect x="132" y="150" width="10" height="11" />
<rect x="180" y="172" width="11" height="11" />
<rect x="191" y="180" width="11" height="11" />
<rect x="210" y="190" width="11" height="11" />
<rect x="224" y="198" width="10" height="11" />
<rect x="111" y="217" width="7" height="8" />
<rect x="228" y="151" width="15" height="13" />
<rect x="285" y="197" width="14" height="13" />
<rect x="285" y="190" width="14" height="13" />
<rect x="257" y="126" width="14" height="13" />
<rect x="249" y="117" width="13" height="14" />
<rect x="257" y="134" width="14" height="14" />
<rect x="266" y="147" width="13" height="14" />
<rect x="0" y="107" width="11" height="9" />
<rect x="155" y="131" width="13" height="13" />
<rect x="137" y="147" width="14" height="14" />
<rect x="155" y="139" width="13" height="14" />
<rect x="141" y="173" width="13" height="14" />
<rect x="141" y="182" width="13" height="14" />
<rect x="149" y="173" width="14" height="15" />
<rect x="149" y="183" width="14" height="15" />
<rect x="158" y="178" width="13" height="15" />
<rect x="158" y="187" width="13" height="15" />
<rect x="175" y="189" width="13" height="13" />
<rect x="166" y="185" width="14" height="17" />
<rect x="192" y="182" width="14" height="17" />
<rect x="132" y="156" width="15" height="14" />
<rect x="132" y="165" width="14" height="13" />
<rect x="132" y="173" width="14" height="19" />
<rect x="119" y="165" width="18" height="13" />
<rect x="123" y="173" width="14" height="16" />
<rect x="110" y="151" width="18" height="14" />
<rect x="106" y="136" width="14" height="18" />
<rect x="115" y="173" width="14" height="15" />
<rect x="257" y="117" width="14" height="14" />
<rect x="98" y="137" width="13" height="16" />
<rect x="89" y="137" width="14" height="14" />
<rect x="76" y="137" width="18" height="14" />
<rect x="95" y="128" width="13" height="14" />
<rect x="86" y="128" width="14" height="14" />
<rect x="78" y="128" width="13" height="14" />
<rect x="155" y="114" width="13" height="13" />
<rect x="146" y="116" width="14" height="11" />
<rect x="257" y="143" width="14" height="14" />
<rect x="266" y="139" width="13" height="13" />
<rect x="146" y="122" width="14" height="14" />
<rect x="147" y="130" width="13" height="17" />
<rect x="139" y="116" width="12" height="14" />
<rect x="139" y="139" width="12" height="14" />
<rect x="141" y="165" width="13" height="13" />
<rect x="129" y="148" width="14" height="13" />
<rect x="132" y="187" width="14" height="13" />
<rect x="155" y="122" width="13" height="14" />
<rect x="163" y="197" width="14" height="14" />
<rect x="184" y="70" width="14" height="14" />
<rect x="209" y="182" width="14" height="16" />
<rect x="218" y="184" width="13" height="14" />
<rect x="226" y="188" width="15" height="17" />
<rect x="98" y="150" width="13" height="20" />
<rect x="78" y="112" width="33" height="13" />
<rect x="198" y="85" width="14" height="14" />
<rect x="230" y="72" width="12" height="13" />
<rect x="223" y="73" width="12" height="12" />
<rect x="216" y="73" width="13" height="12" />
<rect x="217" y="66" width="12" height="12" />
<rect x="224" y="79" width="13" height="16" />
<rect x="216" y="79" width="13" height="12" />
<rect x="218" y="92" width="12" height="12" />
<rect x="223" y="66" width="12" height="12" />
<rect x="238" y="160" width="11" height="16" />
<rect x="265" y="71" width="16" height="18" />
<rect x="231" y="158" width="12" height="23" />
<rect x="221" y="158" width="16" height="16" />
<rect x="182" y="79" width="15" height="14" />
<rect x="192" y="87" width="13" height="14" />
<rect x="184" y="87" width="13" height="14" />
<rect x="189" y="96" width="13" height="14" />
<rect x="182" y="96" width="12" height="14" />
<rect x="180" y="105" width="14" height="13" />
<rect x="180" y="113" width="16" height="14" />
<rect x="172" y="105" width="13" height="13" />
<rect x="172" y="113" width="13" height="14" />
<rect x="163" y="107" width="14" height="11" />
<rect x="163" y="113" width="14" height="14" />
<rect x="163" y="122" width="14" height="13" />
<rect x="221" y="151" width="13" height="13" />
<rect x="188" y="54" width="12" height="15" />
<rect x="181" y="54" width="13" height="16" />
<rect x="77" y="202" width="16" height="11" />
<rect x="88" y="196" width="14" height="11" />
<rect x="79" y="196" width="14" height="11" />
<rect x="54" y="128" width="14" height="11" />
<rect x="46" y="128" width="13" height="11" />
<rect x="34" y="69" width="15" height="19" />
<rect x="27" y="72" width="12" height="16" />
<rect x="243" y="39" width="17" height="11" />
<rect x="236" y="36" width="12" height="12" />
<rect x="0" y="80" width="12" height="12" />
<rect x="3" y="85" width="10" height="10" />
<rect x="58" y="90" width="10" height="10" />
<rect x="0" y="89" width="17" height="20" />
<rect x="63" y="104" width="9" height="9" />
<rect x="108" y="78" width="9" height="10" />
<rect x="119" y="75" width="8" height="8" />
<rect x="119" y="79" width="10" height="10" />
<rect x="118" y="84" width="11" height="18" />
<rect x="126" y="93" width="10" height="9" />
<rect x="117" y="97" width="9" height="14" />
<rect x="117" y="106" width="8" height="11" />
<rect x="119" y="117" width="10" height="19" />
<rect x="154" y="163" width="7" height="8" />
<rect x="167" y="149" width="9" height="9" />
<rect x="173" y="138" width="9" height="9" />
<rect x="194" y="155" width="9" height="9" />
<rect x="202" y="131" width="9" height="9" />
<rect x="218" y="129" width="8" height="8" />
<rect x="221" y="134" width="15" height="11" />
<rect x="236" y="139" width="10" height="14" />
<rect x="224" y="104" width="9" height="9" />
<rect x="226" y="101" width="11" height="9" />
<rect x="204" y="52" width="11" height="11" />
<rect x="206" y="52" width="14" height="15" />
<rect x="284" y="94" width="10" height="11" />
<rect x="287" y="90" width="10" height="11" />
<rect x="278" y="92" width="12" height="9" />
<rect x="275" y="133" width="10" height="11" />
<rect x="264" y="199" width="11" height="10" />
<rect x="192" y="79" width="13" height="14" />
<rect x="88" y="188" width="14" height="13" />
<rect x="79" y="188" width="14" height="13" />
<rect x="29" y="152" width="16" height="14" />
<rect x="20" y="151" width="12" height="14" />
<rect x="63" y="244" width="15" height="13" />
<rect x="255" y="239" width="21" height="20" />
<rect x="187" y="235" width="10" height="9" />
<rect x="204" y="212" width="13" height="10" />
<rect x="268" y="227" width="12" height="12" />
<rect x="253" y="16" width="9" height="9" />
<rect x="156" y="25" width="12" height="11" />
<rect x="137" y="8" width="17" height="13" />
<rect x="118" y="1" width="11" height="11" />
<rect x="74" y="33" width="13" height="14" />
<rect x="146" y="142" width="14" height="15" />
<rect x="183" y="188" width="14" height="14" />
<rect x="201" y="182" width="13" height="14" />
<rect x="123" y="156" width="14" height="14" />
<rect x="115" y="140" width="13" height="16" />
<rect x="86" y="145" width="16" height="19" />
<rect x="95" y="120" width="13" height="14" />
<rect x="86" y="120" width="14" height="14" />
<rect x="78" y="120" width="13" height="14" />
<rect x="180" y="122" width="15" height="12" />
<rect x="172" y="122" width="13" height="13" />
<rect x="163" y="130" width="14" height="14" />
<rect x="163" y="139" width="14" height="14" />
<rect x="215" y="86" width="14" height="12" />
<rect x="219" y="59" width="16" height="13" />
<rect x="224" y="90" width="12" height="15" />
<rect x="278" y="29" width="19" height="19" />
<rect x="46" y="232" width="16" height="21" />
<rect x="114" y="210" width="15" height="20" />
<rect x="233" y="237" width="17" height="20" />
<rect x="70" y="23" width="13" height="13" />
<rect x="50" y="52" width="12" height="12" />
<rect x="37" y="0" width="11" height="8" />
<rect x="23" y="0" width="10" height="8" />
<rect x="88" y="202" width="13" height="15" />
<rect x="73" y="208" width="20" height="14" />
<rect x="54" y="121" width="12" height="12" />
<rect x="46" y="114" width="13" height="19" />
<rect x="260" y="204" width="10" height="11" />
<rect x="273" y="175" width="9" height="9" />
<rect x="19" y="118" width="18" height="16" />
<rect x="83" y="101" width="18" height="15" />
<rect x="236" y="75" width="14" height="13" />
<rect x="188" y="45" width="12" height="15" />
<rect x="181" y="47" width="12" height="13" />
<rect x="294" y="197" width="6" height="13" />
<rect x="294" y="190" width="6" height="13" />
<rect x="224" y="169" width="12" height="16" />
<rect x="218" y="169" width="12" height="12" />
<rect x="172" y="75" width="10" height="12" />
<rect x="168" y="74" width="10" height="16" />
<rect x="264" y="101" width="14" height="14" />
<rect x="249" y="126" width="13" height="13" />
<rect x="257" y="109" width="14" height="13" />
</g>
</g>
<g fill="url(#pattern-untameable)" opacity="0.3">
<rect x="111" y="217" width="7" height="8"/>
</g>
</svg>