<?xml version="1.0" encoding="utf-8"?>
<svg xmlns="http://www.w3.org/2000/svg" width="300" height="300" viewBox="0 0 300 300" class="creatureMap" style="position:absolute;">
    <defs>
        <filter id="blur" x="-30%" y="-30%" width="160%" height="160%">
            <feGaussianBlur stdDeviation="3" />
        </filter>
        <pattern id="pattern-untameable" width="10" height="10" patternTransform="rotate(135)" patternUnits="userSpaceOnUse">'
            <rect width="4" height="10" fill="black"></rect>
        </pattern>
        <filter id="groupStroke">
            <feFlood result="outsideColor" flood-color="black"/>
            <feMorphology in="SourceAlpha" operator="dilate" radius="2"/>
            <feComposite result="strokeoutline1" in="outsideColor" operator="in"/>
            <feComposite result="strokeoutline2" in="strokeoutline1" in2="SourceAlpha" operator="out"/>
            <feGaussianBlur in="strokeoutline2" result="strokeblur" stdDeviation="1"/>
        </filter>
        <style>
            .spawningMap-very-common { fill: #0F0; }
            .spawningMap-common { fill: #B2FF00; }
            .spawningMap-uncommon { fill: #FF0; }
            .spawningMap-very-uncommon { fill: #FC0; }
            .spawningMap-rare { fill: #F60; }
            .spawningMap-very-rare { fill: #F00; }
            .spawning-map-point { stroke:black; stroke-width:1; }
        </style>
    </defs>

<g filter="url(#blur)" opacity="0.7">
<g class="spawningMap-common">
<rect x="220" y="234" width="11" height="10" />
<rect x="289" y="293" width="11" height="7" />
<rect x="224" y="245" width="11" height="11" />
</g>
<g class="spawningMap-very-common">
<rect x="192" y="215" width="10" height="11" />
<rect x="282" y="285" width="11" height="10" />
<rect x="278" y="240" width="10" height="11" />
<rect x="249" y="228" width="11" height="10" />
<rect x="299" y="147" width="1" height="11" />
<rect x="183" y="224" width="11" height="11" />
<rect x="292" y="207" width="8" height="11" />
<rect x="245" y="135" width="11" height="10" />
<rect x="195" y="225" width="11" height="10" />
<rect x="246" y="290" width="11" height="10" />
<rect x="276" y="288" width="11" height="11" />
<rect x="242" y="176" width="11" height="11" />
<rect x="287" y="253" width="11" height="11" />
<rect x="206" y="234" width="11" height="11" />
<rect x="270" y="266" width="10" height="11" />
<rect x="292" y="155" width="8" height="10" />
<rect x="219" y="222" width="11" height="11" />
<rect x="240" y="282" width="10" height="11" />
<rect x="191" y="231" width="11" height="11" />
<rect x="194" y="239" width="10" height="11" />
</g>
</g>
</svg>