<?xml version="1.0" encoding="utf-8"?>
<svg xmlns="http://www.w3.org/2000/svg" width="300" height="300"
        viewBox="0 0 300 300" class="creatureMap" style="position:absolute;">
    <defs>
        <filter id="blur" x="-30%" y="-30%" width="160%" height="160%">
            <feGaussianBlur stdDeviation="3" />
        </filter>
        <pattern id="pattern-untameable" width="10" height="10" patternTransform="rotate(135)" patternUnits="userSpaceOnUse">
            <rect width="4" height="10" fill="black"></rect>
        </pattern>
        <filter id="groupStroke">
            <feFlood result="outsideColor" flood-color="black"/>
            <feMorphology in="SourceAlpha" operator="dilate" radius="2"/>
            <feComposite result="strokeoutline1" in="outsideColor" operator="in"/>
            <feComposite result="strokeoutline2" in="strokeoutline1" in2="SourceAlpha" operator="out"/>
            <feGaussianBlur in="strokeoutline2" result="strokeblur" stdDeviation="1"/>
        </filter>
        <style>
            .spawningMap-very-common { fill: #0F0; }
            .spawningMap-common { fill: #B2FF00; }
            .spawningMap-uncommon { fill: #FF0; }
            .spawningMap-very-uncommon { fill: #FC0; }
            .spawningMap-rare { fill: #F60; }
            .spawningMap-very-rare { fill: #F00; }
            .spawning-map-point { stroke:black; stroke-width:1; }
        </style>
    </defs>

<g filter="url(#blur)" opacity="0.7">
<g class="spawningMap-rare">
<rect x="182" y="79" width="15" height="14" />
<rect x="184" y="87" width="13" height="14" />
<rect x="68" y="120" width="15" height="22" />
<rect x="154" y="220" width="26" height="26" />
</g>
<g class="spawningMap-very-uncommon">
<rect x="257" y="126" width="14" height="13" />
<rect x="249" y="117" width="13" height="14" />
<rect x="257" y="134" width="14" height="14" />
<rect x="266" y="147" width="13" height="14" />
<rect x="257" y="117" width="14" height="14" />
<rect x="155" y="114" width="13" height="13" />
<rect x="146" y="116" width="14" height="11" />
<rect x="257" y="143" width="14" height="14" />
<rect x="266" y="139" width="13" height="13" />
<rect x="146" y="122" width="14" height="14" />
<rect x="147" y="130" width="13" height="17" />
<rect x="139" y="116" width="12" height="14" />
<rect x="139" y="139" width="12" height="14" />
<rect x="141" y="165" width="13" height="13" />
<rect x="129" y="148" width="14" height="13" />
<rect x="132" y="187" width="14" height="13" />
<rect x="163" y="197" width="14" height="14" />
<rect x="192" y="87" width="13" height="14" />
<rect x="189" y="96" width="13" height="14" />
<rect x="182" y="96" width="12" height="14" />
<rect x="180" y="105" width="14" height="13" />
<rect x="180" y="113" width="16" height="14" />
<rect x="172" y="105" width="13" height="13" />
<rect x="172" y="113" width="13" height="14" />
<rect x="163" y="107" width="14" height="11" />
<rect x="163" y="113" width="14" height="14" />
<rect x="163" y="122" width="14" height="13" />
<rect x="192" y="79" width="13" height="14" />
<rect x="180" y="122" width="15" height="12" />
<rect x="172" y="122" width="13" height="13" />
<rect x="163" y="130" width="14" height="14" />
<rect x="163" y="139" width="14" height="14" />
<rect x="264" y="101" width="14" height="14" />
<rect x="249" y="126" width="13" height="13" />
<rect x="257" y="109" width="14" height="13" />
</g>
</g>
</svg>