<?xml version="1.0" encoding="utf-8"?>
<svg xmlns="http://www.w3.org/2000/svg" width="300" height="300"
        viewBox="0 0 300 300" class="creatureMap" style="position:absolute;">
    <defs>
        <filter id="blur" x="-30%" y="-30%" width="160%" height="160%">
            <feGaussianBlur stdDeviation="3" />
        </filter>
        <pattern id="pattern-untameable" width="10" height="10" patternTransform="rotate(135)" patternUnits="userSpaceOnUse">
            <rect width="4" height="10" fill="black"></rect>
        </pattern>
        <filter id="groupStroke">
            <feFlood result="outsideColor" flood-color="black"/>
            <feMorphology in="SourceAlpha" operator="dilate" radius="2"/>
            <feComposite result="strokeoutline1" in="outsideColor" operator="in"/>
            <feComposite result="strokeoutline2" in="strokeoutline1" in2="SourceAlpha" operator="out"/>
            <feGaussianBlur in="strokeoutline2" result="strokeblur" stdDeviation="1"/>
        </filter>
        <style>
            .spawningMap-very-common { fill: #0F0; }
            .spawningMap-common { fill: #B2FF00; }
            .spawningMap-uncommon { fill: #FF0; }
            .spawningMap-very-uncommon { fill: #FC0; }
            .spawningMap-rare { fill: #F60; }
            .spawningMap-very-rare { fill: #F00; }
            .spawning-map-point { stroke:black; stroke-width:1; }
        </style>
    </defs>

<g filter="url(#blur)" opacity="0.7">
<g class="spawningMap-uncommon">
<rect x="214" y="7" width="16" height="16" />
<rect x="223" y="17" width="16" height="17" />
<rect x="208" y="17" width="17" height="17" />
<rect x="233" y="15" width="17" height="17" />
<rect x="247" y="12" width="17" height="17" />
</g>
<g class="spawningMap-common">
<rect x="219" y="0" width="10" height="9" />
<rect x="220" y="3" width="9" height="10" />
<rect x="223" y="0" width="9" height="8" />
<rect x="224" y="2" width="9" height="10" />
<rect x="227" y="0" width="9" height="7" />
<rect x="228" y="2" width="9" height="9" />
<rect x="231" y="0" width="9" height="7" />
<rect x="231" y="1" width="10" height="9" />
<rect x="235" y="0" width="9" height="7" />
<rect x="235" y="1" width="10" height="9" />
<rect x="238" y="0" width="10" height="6" />
<rect x="239" y="0" width="10" height="10" />
<rect x="243" y="0" width="9" height="7" />
<rect x="242" y="1" width="9" height="9" />
<rect x="247" y="0" width="9" height="8" />
<rect x="245" y="2" width="10" height="10" />
</g>
<g class="spawningMap-very-common">
<rect x="218" y="9" width="8" height="8" />
<rect x="258" y="4" width="8" height="8" />
<rect x="257" y="2" width="8" height="8" />
<rect x="255" y="3" width="8" height="7" />
<rect x="253" y="3" width="7" height="7" />
<rect x="250" y="2" width="8" height="8" />
<rect x="218" y="3" width="8" height="8" />
<rect x="212" y="5" width="8" height="8" />
<rect x="216" y="8" width="7" height="8" />
<rect x="258" y="7" width="8" height="7" />
</g>
</g>
</svg>