<?xml version="1.0" encoding="utf-8"?>
<svg xmlns="http://www.w3.org/2000/svg" width="300" height="300" viewBox="0 0 300 300" class="creatureMap" style="position:absolute;">
    <defs>
        <filter id="blur" x="-30%" y="-30%" width="160%" height="160%">
            <feGaussianBlur stdDeviation="3" />
        </filter>
        <pattern id="pattern-untameable" width="10" height="10" patternTransform="rotate(135)" patternUnits="userSpaceOnUse">'
            <rect width="4" height="10" fill="black"></rect>
        </pattern>
        <filter id="groupStroke">
            <feFlood result="outsideColor" flood-color="black"/>
            <feMorphology in="SourceAlpha" operator="dilate" radius="2"/>
            <feComposite result="strokeoutline1" in="outsideColor" operator="in"/>
            <feComposite result="strokeoutline2" in="strokeoutline1" in2="SourceAlpha" operator="out"/>
            <feGaussianBlur in="strokeoutline2" result="strokeblur" stdDeviation="1"/>
        </filter>
        <style>
            .spawningMap-very-common { fill: #0F0; }
            .spawningMap-common { fill: #B2FF00; }
            .spawningMap-uncommon { fill: #FF0; }
            .spawningMap-very-uncommon { fill: #FC0; }
            .spawningMap-rare { fill: #F60; }
            .spawningMap-very-rare { fill: #F00; }
            .spawning-map-point { stroke:black; stroke-width:1; }
        </style>
    </defs>

<g filter="url(#blur)" opacity="0.7">
<g class="spawningMap-very-uncommon">
<rect x="193" y="166" width="13" height="12" />
<rect x="193" y="157" width="13" height="13" />
<rect x="257" y="251" width="13" height="12" />
<rect x="202" y="166" width="12" height="12" />
<rect x="129" y="208" width="12" height="12" />
<rect x="240" y="268" width="13" height="12" />
<rect x="240" y="225" width="13" height="12" />
<rect x="202" y="157" width="12" height="13" />
<rect x="210" y="157" width="13" height="13" />
<rect x="214" y="225" width="13" height="12" />
<rect x="213" y="149" width="13" height="12" />
<rect x="206" y="225" width="12" height="12" />
<rect x="219" y="161" width="12" height="13" />
<rect x="222" y="144" width="12" height="13" />
<rect x="223" y="216" width="12" height="13" />
<rect x="214" y="216" width="13" height="13" />
<rect x="222" y="136" width="12" height="12" />
<rect x="129" y="216" width="12" height="13" />
<rect x="180" y="216" width="12" height="13" />
<rect x="266" y="277" width="12" height="12" />
<rect x="222" y="127" width="12" height="13" />
<rect x="214" y="277" width="13" height="12" />
<rect x="206" y="277" width="12" height="12" />
<rect x="230" y="127" width="13" height="13" />
<rect x="266" y="294" width="12" height="6" />
<rect x="226" y="119" width="13" height="12" />
<rect x="214" y="294" width="13" height="6" />
<rect x="235" y="119" width="12" height="12" />
<rect x="103" y="233" width="12" height="13" />
<rect x="94" y="225" width="13" height="12" />
<rect x="94" y="233" width="13" height="13" />
<rect x="77" y="233" width="13" height="13" />
<rect x="137" y="225" width="13" height="12" />
<rect x="128" y="242" width="13" height="12" />
<rect x="146" y="242" width="12" height="12" />
<rect x="223" y="110" width="13" height="13" />
<rect x="137" y="242" width="12" height="12" />
<rect x="120" y="242" width="12" height="12" />
<rect x="232" y="110" width="12" height="13" />
<rect x="223" y="102" width="13" height="12" />
<rect x="168" y="89" width="13" height="12" />
<rect x="232" y="102" width="12" height="12" />
<rect x="168" y="97" width="13" height="13" />
<rect x="103" y="65" width="12" height="12" />
<rect x="223" y="93" width="13" height="12" />
<rect x="160" y="97" width="12" height="13" />
<rect x="160" y="89" width="12" height="12" />
<rect x="111" y="191" width="13" height="12" />
<rect x="159" y="155" width="12" height="13" />
<rect x="159" y="164" width="12" height="12" />
<rect x="167" y="157" width="13" height="12" />
<rect x="232" y="93" width="12" height="12" />
<rect x="176" y="168" width="13" height="12" />
<rect x="176" y="159" width="13" height="12" />
<rect x="223" y="84" width="13" height="13" />
<rect x="232" y="84" width="12" height="13" />
<rect x="232" y="76" width="12" height="12" />
<rect x="240" y="76" width="13" height="12" />
<rect x="227" y="67" width="13" height="13" />
<rect x="236" y="67" width="12" height="13" />
<rect x="206" y="81" width="12" height="12" />
<rect x="215" y="81" width="12" height="12" />
<rect x="203" y="72" width="12" height="13" />
<rect x="211" y="72" width="13" height="13" />
<rect x="224" y="39" width="12" height="13" />
<rect x="232" y="39" width="13" height="13" />
<rect x="241" y="42" width="12" height="13" />
<rect x="250" y="42" width="12" height="13" />
<rect x="202" y="125" width="12" height="13" />
<rect x="137" y="216" width="13" height="13" />
<rect x="134" y="133" width="12" height="13" />
<rect x="125" y="133" width="13" height="13" />
<rect x="134" y="125" width="12" height="12" />
<rect x="125" y="125" width="13" height="12" />
<rect x="134" y="116" width="12" height="13" />
<rect x="134" y="108" width="12" height="12" />
<rect x="125" y="116" width="13" height="13" />
<rect x="125" y="108" width="13" height="12" />
<rect x="117" y="116" width="12" height="13" />
<rect x="117" y="99" width="12" height="13" />
<rect x="117" y="91" width="12" height="12" />
<rect x="108" y="99" width="13" height="13" />
<rect x="108" y="91" width="13" height="12" />
<rect x="100" y="99" width="12" height="13" />
<rect x="100" y="91" width="12" height="12" />
<rect x="120" y="82" width="13" height="12" />
<rect x="112" y="82" width="12" height="12" />
<rect x="94" y="65" width="13" height="12" />
<rect x="86" y="233" width="12" height="13" />
<rect x="120" y="251" width="12" height="12" />
<rect x="69" y="200" width="12" height="13" />
<rect x="69" y="192" width="12" height="12" />
<rect x="86" y="183" width="12" height="13" />
<rect x="69" y="183" width="12" height="13" />
<rect x="69" y="216" width="12" height="13" />
<rect x="103" y="216" width="12" height="13" />
<rect x="94" y="216" width="13" height="13" />
<rect x="94" y="208" width="13" height="12" />
<rect x="86" y="208" width="12" height="12" />
<rect x="111" y="216" width="13" height="13" />
<rect x="129" y="225" width="12" height="12" />
<rect x="111" y="208" width="13" height="12" />
<rect x="120" y="208" width="13" height="12" />
<rect x="111" y="199" width="13" height="13" />
<rect x="120" y="199" width="13" height="13" />
<rect x="129" y="233" width="12" height="13" />
<rect x="103" y="225" width="12" height="12" />
<rect x="69" y="225" width="12" height="12" />
<rect x="69" y="233" width="12" height="13" />
<rect x="137" y="251" width="12" height="12" />
<rect x="43" y="268" width="12" height="12" />
<rect x="34" y="268" width="13" height="12" />
<rect x="26" y="233" width="12" height="13" />
<rect x="34" y="251" width="13" height="12" />
<rect x="111" y="242" width="13" height="12" />
<rect x="69" y="166" width="12" height="12" />
<rect x="60" y="166" width="13" height="12" />
<rect x="52" y="166" width="12" height="12" />
<rect x="51" y="225" width="13" height="12" />
<rect x="43" y="225" width="12" height="12" />
<rect x="34" y="225" width="13" height="12" />
<rect x="26" y="225" width="12" height="12" />
<rect x="51" y="216" width="13" height="13" />
<rect x="43" y="216" width="12" height="13" />
<rect x="34" y="216" width="13" height="13" />
<rect x="26" y="216" width="12" height="13" />
<rect x="128" y="251" width="13" height="12" />
<rect x="137" y="259" width="12" height="13" />
<rect x="128" y="259" width="13" height="13" />
<rect x="103" y="56" width="12" height="13" />
<rect x="137" y="268" width="12" height="12" />
<rect x="128" y="268" width="13" height="12" />
<rect x="60" y="216" width="13" height="13" />
<rect x="43" y="208" width="12" height="12" />
<rect x="60" y="242" width="12" height="12" />
<rect x="60" y="251" width="12" height="12" />
<rect x="60" y="225" width="12" height="12" />
<rect x="60" y="233" width="12" height="13" />
<rect x="51" y="242" width="13" height="12" />
<rect x="51" y="251" width="13" height="12" />
<rect x="43" y="251" width="12" height="12" />
<rect x="43" y="233" width="12" height="13" />
<rect x="34" y="233" width="13" height="13" />
<rect x="43" y="242" width="12" height="12" />
<rect x="69" y="242" width="12" height="12" />
<rect x="69" y="251" width="12" height="12" />
<rect x="77" y="242" width="12" height="12" />
<rect x="77" y="251" width="12" height="12" />
<rect x="85" y="268" width="13" height="12" />
<rect x="34" y="208" width="13" height="12" />
<rect x="26" y="208" width="12" height="12" />
<rect x="77" y="259" width="12" height="13" />
<rect x="77" y="268" width="12" height="12" />
<rect x="43" y="199" width="12" height="13" />
<rect x="68" y="259" width="13" height="13" />
<rect x="68" y="268" width="13" height="12" />
<rect x="34" y="199" width="13" height="13" />
<rect x="26" y="199" width="12" height="13" />
<rect x="94" y="276" width="13" height="13" />
<rect x="85" y="276" width="13" height="13" />
<rect x="26" y="242" width="12" height="12" />
<rect x="26" y="251" width="12" height="12" />
<rect x="77" y="276" width="12" height="13" />
<rect x="68" y="276" width="13" height="13" />
<rect x="60" y="276" width="12" height="13" />
<rect x="51" y="276" width="13" height="13" />
<rect x="77" y="183" width="13" height="13" />
<rect x="26" y="259" width="12" height="13" />
<rect x="77" y="175" width="13" height="12" />
<rect x="77" y="216" width="13" height="13" />
<rect x="103" y="191" width="12" height="12" />
<rect x="86" y="216" width="12" height="13" />
<rect x="86" y="225" width="12" height="12" />
<rect x="77" y="225" width="13" height="12" />
<rect x="60" y="157" width="13" height="13" />
<rect x="26" y="268" width="12" height="12" />
<rect x="26" y="276" width="12" height="13" />
<rect x="17" y="242" width="12" height="12" />
<rect x="69" y="157" width="12" height="13" />
<rect x="17" y="251" width="12" height="12" />
<rect x="17" y="259" width="12" height="13" />
<rect x="17" y="268" width="12" height="12" />
<rect x="52" y="140" width="12" height="13" />
<rect x="52" y="149" width="12" height="12" />
<rect x="17" y="276" width="12" height="13" />
<rect x="8" y="242" width="13" height="12" />
<rect x="8" y="251" width="13" height="12" />
<rect x="8" y="259" width="13" height="13" />
<rect x="8" y="268" width="13" height="12" />
<rect x="0" y="242" width="12" height="12" />
<rect x="0" y="251" width="12" height="12" />
<rect x="0" y="259" width="12" height="13" />
<rect x="0" y="268" width="12" height="12" />
<rect x="0" y="242" width="4" height="12" />
<rect x="0" y="251" width="4" height="12" />
<rect x="0" y="259" width="4" height="13" />
<rect x="0" y="268" width="4" height="12" />
<rect x="0" y="276" width="4" height="13" />
<rect x="0" y="199" width="4" height="13" />
<rect x="0" y="208" width="4" height="12" />
<rect x="0" y="216" width="4" height="13" />
<rect x="0" y="225" width="4" height="12" />
<rect x="0" y="233" width="4" height="13" />
<rect x="0" y="199" width="12" height="13" />
<rect x="0" y="208" width="12" height="12" />
<rect x="0" y="216" width="12" height="13" />
<rect x="0" y="225" width="12" height="12" />
<rect x="0" y="233" width="12" height="13" />
<rect x="8" y="199" width="13" height="13" />
<rect x="8" y="208" width="13" height="12" />
<rect x="8" y="216" width="13" height="13" />
<rect x="8" y="225" width="13" height="12" />
<rect x="8" y="233" width="13" height="13" />
<rect x="51" y="208" width="13" height="12" />
<rect x="51" y="199" width="13" height="13" />
<rect x="51" y="191" width="13" height="12" />
<rect x="43" y="191" width="12" height="12" />
<rect x="146" y="251" width="12" height="12" />
<rect x="146" y="259" width="12" height="13" />
<rect x="146" y="268" width="12" height="12" />
<rect x="146" y="276" width="12" height="13" />
<rect x="137" y="285" width="13" height="12" />
<rect x="137" y="294" width="12" height="6" />
<rect x="128" y="285" width="13" height="12" />
<rect x="128" y="294" width="13" height="6" />
<rect x="120" y="285" width="12" height="12" />
<rect x="120" y="294" width="12" height="6" />
<rect x="94" y="285" width="13" height="12" />
<rect x="94" y="294" width="12" height="6" />
<rect x="86" y="285" width="12" height="12" />
<rect x="85" y="294" width="13" height="6" />
<rect x="77" y="285" width="12" height="12" />
<rect x="77" y="294" width="12" height="6" />
<rect x="8" y="191" width="13" height="12" />
<rect x="0" y="185" width="2" height="13" />
<rect x="68" y="285" width="13" height="12" />
<rect x="68" y="294" width="13" height="6" />
<rect x="60" y="285" width="12" height="12" />
<rect x="60" y="294" width="12" height="6" />
<rect x="8" y="276" width="13" height="13" />
<rect x="0" y="276" width="12" height="13" />
<rect x="8" y="285" width="13" height="12" />
<rect x="0" y="285" width="12" height="12" />
<rect x="0" y="293" width="12" height="7" />
<rect x="0" y="293" width="3" height="7" />
<rect x="17" y="191" width="12" height="12" />
<rect x="0" y="177" width="2" height="12" />
<rect x="25" y="182" width="13" height="13" />
<rect x="17" y="182" width="12" height="13" />
<rect x="51" y="285" width="13" height="12" />
<rect x="43" y="285" width="12" height="12" />
<rect x="146" y="285" width="12" height="12" />
<rect x="146" y="294" width="12" height="6" />
<rect x="154" y="285" width="13" height="12" />
<rect x="154" y="294" width="13" height="6" />
<rect x="167" y="166" width="13" height="12" />
<rect x="163" y="285" width="12" height="12" />
<rect x="163" y="294" width="12" height="6" />
<rect x="163" y="251" width="12" height="12" />
<rect x="163" y="259" width="12" height="13" />
<rect x="163" y="268" width="12" height="12" />
<rect x="163" y="276" width="12" height="13" />
<rect x="154" y="251" width="13" height="12" />
<rect x="154" y="259" width="13" height="13" />
<rect x="154" y="268" width="13" height="12" />
<rect x="154" y="276" width="13" height="13" />
<rect x="0" y="168" width="2" height="13" />
<rect x="188" y="285" width="13" height="13" />
<rect x="275" y="251" width="12" height="12" />
<rect x="176" y="150" width="13" height="13" />
<rect x="176" y="142" width="13" height="12" />
<rect x="176" y="133" width="13" height="13" />
<rect x="185" y="142" width="12" height="12" />
<rect x="185" y="133" width="12" height="13" />
<rect x="185" y="168" width="12" height="12" />
<rect x="185" y="159" width="12" height="12" />
<rect x="185" y="150" width="12" height="13" />
<rect x="210" y="166" width="13" height="12" />
<rect x="205" y="149" width="12" height="12" />
<rect x="240" y="93" width="13" height="12" />
<rect x="240" y="84" width="13" height="13" />
<rect x="215" y="93" width="12" height="12" />
<rect x="193" y="125" width="13" height="13" />
<rect x="177" y="174" width="12" height="13" />
<rect x="117" y="108" width="12" height="12" />
<rect x="117" y="125" width="12" height="12" />
<rect x="94" y="82" width="13" height="12" />
<rect x="94" y="73" width="13" height="13" />
<rect x="94" y="56" width="13" height="13" />
<rect x="160" y="80" width="12" height="13" />
<rect x="160" y="72" width="12" height="12" />
<rect x="168" y="80" width="13" height="13" />
<rect x="168" y="72" width="13" height="12" />
<rect x="223" y="208" width="12" height="12" />
<rect x="188" y="208" width="13" height="12" />
<rect x="60" y="259" width="12" height="13" />
<rect x="60" y="268" width="12" height="12" />
<rect x="43" y="276" width="12" height="13" />
<rect x="34" y="276" width="13" height="13" />
<rect x="60" y="140" width="13" height="13" />
<rect x="60" y="149" width="13" height="12" />
<rect x="52" y="157" width="12" height="13" />
<rect x="69" y="175" width="12" height="12" />
<rect x="60" y="175" width="13" height="12" />
<rect x="52" y="175" width="12" height="12" />
<rect x="103" y="208" width="12" height="12" />
<rect x="34" y="191" width="13" height="12" />
<rect x="26" y="191" width="12" height="12" />
<rect x="103" y="199" width="12" height="13" />
<rect x="17" y="199" width="12" height="13" />
<rect x="94" y="199" width="13" height="13" />
<rect x="17" y="208" width="12" height="12" />
<rect x="17" y="216" width="12" height="13" />
<rect x="17" y="225" width="12" height="12" />
<rect x="17" y="233" width="12" height="13" />
<rect x="60" y="200" width="12" height="12" />
<rect x="60" y="191" width="12" height="13" />
<rect x="60" y="183" width="12" height="12" />
<rect x="51" y="183" width="13" height="12" />
<rect x="120" y="216" width="13" height="13" />
<rect x="26" y="285" width="12" height="12" />
<rect x="26" y="294" width="12" height="6" />
<rect x="17" y="285" width="13" height="12" />
<rect x="17" y="294" width="12" height="6" />
<rect x="94" y="191" width="13" height="12" />
<rect x="171" y="268" width="13" height="13" />
<rect x="171" y="277" width="13" height="12" />
<rect x="171" y="285" width="13" height="13" />
<rect x="180" y="285" width="12" height="13" />
<rect x="197" y="285" width="13" height="13" />
<rect x="0" y="171" width="11" height="12" />
<rect x="0" y="162" width="11" height="13" />
<rect x="146" y="225" width="12" height="12" />
<rect x="146" y="233" width="12" height="13" />
<rect x="77" y="166" width="13" height="12" />
<rect x="51" y="259" width="13" height="13" />
<rect x="51" y="268" width="13" height="12" />
<rect x="60" y="208" width="13" height="12" />
<rect x="34" y="242" width="13" height="12" />
<rect x="103" y="242" width="12" height="12" />
<rect x="94" y="242" width="12" height="12" />
<rect x="137" y="234" width="12" height="12" />
<rect x="137" y="276" width="12" height="13" />
<rect x="128" y="276" width="13" height="13" />
<rect x="120" y="276" width="12" height="13" />
<rect x="111" y="276" width="13" height="13" />
</g>
<g class="spawningMap-uncommon">
<rect x="257" y="242" width="13" height="13" />
<rect x="214" y="259" width="13" height="13" />
<rect x="232" y="277" width="12" height="12" />
<rect x="283" y="285" width="13" height="13" />
<rect x="249" y="285" width="12" height="13" />
<rect x="240" y="285" width="13" height="13" />
<rect x="232" y="294" width="12" height="6" />
<rect x="223" y="294" width="12" height="6" />
<rect x="120" y="56" width="12" height="13" />
<rect x="245" y="67" width="12" height="13" />
<rect x="253" y="67" width="13" height="13" />
<rect x="253" y="59" width="13" height="12" />
<rect x="240" y="110" width="13" height="13" />
<rect x="240" y="102" width="13" height="12" />
<rect x="213" y="140" width="13" height="12" />
<rect x="196" y="140" width="12" height="13" />
<rect x="213" y="131" width="13" height="13" />
<rect x="205" y="140" width="12" height="12" />
<rect x="205" y="131" width="12" height="13" />
<rect x="103" y="82" width="13" height="12" />
<rect x="103" y="73" width="13" height="13" />
<rect x="125" y="99" width="13" height="13" />
<rect x="125" y="90" width="13" height="13" />
<rect x="134" y="99" width="12" height="13" />
<rect x="134" y="90" width="12" height="13" />
<rect x="143" y="99" width="12" height="13" />
<rect x="143" y="90" width="12" height="13" />
<rect x="151" y="99" width="12" height="13" />
<rect x="151" y="90" width="12" height="13" />
<rect x="138" y="71" width="12" height="13" />
<rect x="138" y="63" width="12" height="12" />
<rect x="112" y="65" width="12" height="12" />
<rect x="120" y="65" width="13" height="12" />
<rect x="111" y="251" width="13" height="12" />
<rect x="120" y="251" width="12" height="12" />
<rect x="111" y="259" width="13" height="13" />
<rect x="120" y="259" width="12" height="13" />
<rect x="103" y="259" width="12" height="13" />
<rect x="94" y="251" width="13" height="12" />
<rect x="94" y="259" width="13" height="13" />
<rect x="94" y="268" width="13" height="12" />
<rect x="292" y="268" width="8" height="12" />
<rect x="292" y="242" width="8" height="13" />
<rect x="292" y="216" width="8" height="13" />
<rect x="275" y="259" width="12" height="13" />
<rect x="196" y="149" width="12" height="12" />
<rect x="213" y="123" width="13" height="12" />
<rect x="213" y="114" width="13" height="13" />
<rect x="205" y="114" width="12" height="13" />
<rect x="112" y="73" width="12" height="13" />
<rect x="249" y="76" width="12" height="12" />
<rect x="120" y="73" width="13" height="13" />
<rect x="129" y="71" width="12" height="13" />
<rect x="129" y="63" width="12" height="12" />
<rect x="146" y="69" width="13" height="12" />
<rect x="146" y="60" width="13" height="12" />
<rect x="111" y="56" width="13" height="13" />
<rect x="245" y="59" width="12" height="12" />
<rect x="103" y="251" width="12" height="12" />
<rect x="111" y="268" width="13" height="12" />
<rect x="120" y="268" width="12" height="12" />
<rect x="103" y="268" width="12" height="12" />
<rect x="85" y="242" width="13" height="12" />
<rect x="85" y="251" width="13" height="12" />
<rect x="85" y="259" width="13" height="13" />
<rect x="236" y="59" width="12" height="12" />
</g>
<g class="spawningMap-common">
<rect x="275" y="233" width="12" height="13" />
<rect x="275" y="216" width="12" height="13" />
<rect x="266" y="268" width="12" height="12" />
<rect x="266" y="251" width="12" height="12" />
<rect x="266" y="259" width="12" height="13" />
<rect x="266" y="242" width="12" height="13" />
<rect x="266" y="225" width="12" height="12" />
<rect x="266" y="233" width="12" height="13" />
<rect x="266" y="216" width="12" height="13" />
<rect x="257" y="268" width="13" height="12" />
<rect x="257" y="259" width="13" height="13" />
<rect x="257" y="225" width="13" height="12" />
<rect x="257" y="233" width="13" height="13" />
<rect x="257" y="216" width="13" height="13" />
<rect x="249" y="268" width="12" height="12" />
<rect x="249" y="251" width="12" height="12" />
<rect x="249" y="259" width="12" height="13" />
<rect x="249" y="242" width="12" height="13" />
<rect x="249" y="225" width="12" height="12" />
<rect x="249" y="233" width="12" height="13" />
<rect x="249" y="216" width="12" height="13" />
<rect x="240" y="251" width="13" height="12" />
<rect x="240" y="259" width="13" height="13" />
<rect x="240" y="242" width="13" height="13" />
<rect x="240" y="233" width="13" height="13" />
<rect x="240" y="216" width="13" height="13" />
<rect x="232" y="268" width="12" height="12" />
<rect x="232" y="251" width="12" height="12" />
<rect x="232" y="259" width="12" height="13" />
<rect x="232" y="242" width="12" height="13" />
<rect x="232" y="225" width="12" height="12" />
<rect x="232" y="233" width="12" height="13" />
<rect x="223" y="268" width="12" height="12" />
<rect x="223" y="251" width="12" height="12" />
<rect x="223" y="259" width="12" height="13" />
<rect x="223" y="242" width="12" height="13" />
<rect x="223" y="225" width="12" height="12" />
<rect x="223" y="233" width="12" height="13" />
<rect x="214" y="268" width="13" height="12" />
<rect x="214" y="251" width="13" height="12" />
<rect x="214" y="242" width="13" height="13" />
<rect x="214" y="233" width="13" height="13" />
<rect x="292" y="199" width="8" height="13" />
<rect x="283" y="199" width="13" height="13" />
<rect x="206" y="268" width="12" height="12" />
<rect x="206" y="251" width="12" height="12" />
<rect x="206" y="259" width="12" height="13" />
<rect x="206" y="242" width="12" height="13" />
<rect x="206" y="233" width="12" height="13" />
<rect x="275" y="199" width="12" height="13" />
<rect x="197" y="277" width="13" height="12" />
<rect x="197" y="268" width="13" height="12" />
<rect x="197" y="251" width="13" height="12" />
<rect x="197" y="259" width="13" height="13" />
<rect x="197" y="242" width="13" height="13" />
<rect x="197" y="225" width="13" height="12" />
<rect x="197" y="233" width="13" height="13" />
<rect x="188" y="277" width="13" height="12" />
<rect x="188" y="268" width="13" height="12" />
<rect x="188" y="251" width="13" height="12" />
<rect x="188" y="259" width="13" height="13" />
<rect x="188" y="242" width="13" height="13" />
<rect x="188" y="225" width="13" height="12" />
<rect x="188" y="233" width="13" height="13" />
<rect x="232" y="216" width="12" height="13" />
<rect x="206" y="216" width="12" height="13" />
<rect x="197" y="216" width="13" height="13" />
<rect x="188" y="216" width="13" height="13" />
<rect x="214" y="208" width="13" height="12" />
<rect x="214" y="199" width="13" height="12" />
<rect x="206" y="199" width="12" height="12" />
<rect x="180" y="251" width="12" height="12" />
<rect x="180" y="259" width="12" height="13" />
<rect x="180" y="242" width="12" height="13" />
<rect x="180" y="225" width="12" height="12" />
<rect x="180" y="233" width="12" height="13" />
<rect x="283" y="277" width="13" height="12" />
<rect x="275" y="277" width="12" height="12" />
<rect x="257" y="277" width="13" height="12" />
<rect x="249" y="277" width="12" height="12" />
<rect x="240" y="277" width="13" height="12" />
<rect x="223" y="277" width="12" height="12" />
<rect x="275" y="285" width="12" height="13" />
<rect x="266" y="285" width="12" height="13" />
<rect x="257" y="285" width="13" height="13" />
<rect x="232" y="285" width="12" height="13" />
<rect x="223" y="285" width="12" height="13" />
<rect x="214" y="285" width="13" height="13" />
<rect x="206" y="285" width="12" height="13" />
<rect x="283" y="294" width="13" height="6" />
<rect x="275" y="294" width="12" height="6" />
<rect x="257" y="294" width="13" height="6" />
<rect x="249" y="294" width="12" height="6" />
<rect x="240" y="294" width="13" height="6" />
<rect x="206" y="294" width="12" height="6" />
<rect x="232" y="180" width="12" height="12" />
<rect x="232" y="171" width="12" height="13" />
<rect x="240" y="173" width="13" height="13" />
<rect x="240" y="182" width="13" height="12" />
<rect x="249" y="182" width="12" height="12" />
<rect x="249" y="191" width="12" height="12" />
<rect x="258" y="191" width="12" height="12" />
<rect x="263" y="199" width="13" height="13" />
<rect x="263" y="208" width="13" height="12" />
<rect x="292" y="294" width="8" height="6" />
<rect x="292" y="277" width="8" height="12" />
<rect x="292" y="208" width="8" height="12" />
<rect x="292" y="251" width="8" height="12" />
<rect x="292" y="259" width="8" height="13" />
<rect x="292" y="225" width="8" height="12" />
<rect x="292" y="233" width="8" height="13" />
<rect x="283" y="268" width="13" height="12" />
<rect x="283" y="251" width="13" height="12" />
<rect x="283" y="259" width="13" height="13" />
<rect x="283" y="242" width="13" height="13" />
<rect x="283" y="225" width="13" height="12" />
<rect x="283" y="233" width="13" height="13" />
<rect x="283" y="216" width="13" height="13" />
<rect x="275" y="268" width="12" height="12" />
<rect x="275" y="242" width="12" height="13" />
<rect x="275" y="225" width="12" height="12" />
<rect x="292" y="285" width="8" height="13" />
<rect x="180" y="277" width="12" height="12" />
<rect x="180" y="268" width="12" height="12" />
<rect x="232" y="208" width="12" height="12" />
<rect x="206" y="208" width="12" height="12" />
<rect x="197" y="208" width="13" height="12" />
<rect x="180" y="208" width="12" height="12" />
<rect x="197" y="199" width="13" height="12" />
<rect x="171" y="251" width="13" height="12" />
<rect x="171" y="259" width="13" height="13" />
<rect x="171" y="242" width="13" height="13" />
<rect x="171" y="225" width="13" height="12" />
<rect x="171" y="233" width="13" height="13" />
<rect x="171" y="216" width="13" height="13" />
<rect x="283" y="208" width="13" height="12" />
<rect x="275" y="208" width="12" height="12" />
<rect x="266" y="191" width="13" height="12" />
<rect x="249" y="173" width="12" height="13" />
<rect x="255" y="199" width="12" height="13" />
</g>
</g>
</svg>