<?xml version="1.0" encoding="utf-8"?>
<svg xmlns="http://www.w3.org/2000/svg" width="300" height="300"
        viewBox="0 0 300 300" class="creatureMap" style="position:absolute;">
    <defs>
        <filter id="blur" x="-30%" y="-30%" width="160%" height="160%">
            <feGaussianBlur stdDeviation="3" />
        </filter>
        <pattern id="pattern-untameable" width="10" height="10" patternTransform="rotate(135)" patternUnits="userSpaceOnUse">
            <rect width="4" height="10" fill="black"></rect>
        </pattern>
        <filter id="groupStroke">
            <feFlood result="outsideColor" flood-color="black"/>
            <feMorphology in="SourceAlpha" operator="dilate" radius="2"/>
            <feComposite result="strokeoutline1" in="outsideColor" operator="in"/>
            <feComposite result="strokeoutline2" in="strokeoutline1" in2="SourceAlpha" operator="out"/>
            <feGaussianBlur in="strokeoutline2" result="strokeblur" stdDeviation="1"/>
        </filter>
        <style>
            .spawningMap-very-common { fill: #0F0; }
            .spawningMap-common { fill: #B2FF00; }
            .spawningMap-uncommon { fill: #FF0; }
            .spawningMap-very-uncommon { fill: #FC0; }
            .spawningMap-rare { fill: #F60; }
            .spawningMap-very-rare { fill: #F00; }
            .spawning-map-point { stroke:black; stroke-width:1; }
        </style>
    </defs>

<g class="spawning-map-point" opacity="0.8">
<g class="spawningMap-very-rare">
<circle cx="232" cy="189" r="4" />
<circle cx="220" cy="183" r="4" />
<circle cx="230" cy="172" r="4" />
<circle cx="233" cy="163" r="4" />
<circle cx="231" cy="153" r="4" />
<circle cx="220" cy="150" r="4" />
<circle cx="224" cy="139" r="4" />
<circle cx="219" cy="134" r="4" />
<circle cx="214" cy="125" r="4" />
<circle cx="213" cy="117" r="4" />
<circle cx="218" cy="110" r="4" />
<circle cx="208" cy="143" r="4" />
<circle cx="200" cy="159" r="4" />
<circle cx="196" cy="182" r="4" />
<circle cx="185" cy="181" r="4" />
<circle cx="160" cy="167" r="4" />
<circle cx="151" cy="168" r="4" />
<circle cx="173" cy="147" r="4" />
<circle cx="157" cy="114" r="4" />
<circle cx="197" cy="120" r="4" />
<circle cx="238" cy="184" r="4" />
<circle cx="241" cy="177" r="4" />
<circle cx="244" cy="180" r="4" />
<circle cx="248" cy="189" r="4" />
<circle cx="252" cy="180" r="4" />
<circle cx="258" cy="191" r="4" />
<circle cx="272" cy="191" r="4" />
<circle cx="294" cy="176" r="4" />
<circle cx="289" cy="138" r="4" />
<circle cx="280" cy="139" r="4" />
<circle cx="253" cy="153" r="4" />
<circle cx="243" cy="164" r="4" />
<circle cx="244" cy="155" r="4" />
<circle cx="241" cy="146" r="4" />
<circle cx="240" cy="139" r="4" />
<circle cx="245" cy="121" r="4" />
<circle cx="249" cy="116" r="4" />
<circle cx="243" cy="112" r="4" />
<circle cx="250" cy="45" r="4" />
<circle cx="242" cy="59" r="4" />
<circle cx="250" cy="67" r="4" />
<circle cx="238" cy="70" r="4" />
<circle cx="251" cy="79" r="4" />
<circle cx="237" cy="85" r="4" />
<circle cx="245" cy="102" r="4" />
<circle cx="248" cy="105" r="4" />
<circle cx="257" cy="97" r="4" />
<circle cx="272" cy="88" r="4" />
<circle cx="286" cy="95" r="4" />
<circle cx="221" cy="45" r="4" />
<circle cx="214" cy="54" r="4" />
<circle cx="217" cy="67" r="4" />
<circle cx="214" cy="75" r="4" />
<circle cx="227" cy="76" r="4" />
<circle cx="231" cy="93" r="4" />
<circle cx="210" cy="82" r="4" />
<circle cx="215" cy="95" r="4" />
<circle cx="182" cy="97" r="4" />
<circle cx="183" cy="84" r="4" />
<circle cx="183" cy="63" r="4" />
<circle cx="176" cy="49" r="4" />
<circle cx="163" cy="52" r="4" />
<circle cx="171" cy="69" r="4" />
<circle cx="173" cy="88" r="4" />
<circle cx="172" cy="95" r="4" />
<circle cx="159" cy="101" r="4" />
<circle cx="156" cy="98" r="4" />
<circle cx="159" cy="88" r="4" />
<circle cx="154" cy="70" r="4" />
<circle cx="118" cy="170" r="4" />
<circle cx="92" cy="165" r="4" />
<circle cx="77" cy="136" r="4" />
<circle cx="112" cy="132" r="4" />
<circle cx="109" cy="128" r="4" />
<circle cx="112" cy="119" r="4" />
<circle cx="99" cy="113" r="4" />
<circle cx="121" cy="117" r="4" />
<circle cx="128" cy="137" r="4" />
<circle cx="141" cy="139" r="4" />
<circle cx="140" cy="134" r="4" />
<circle cx="134" cy="123" r="4" />
<circle cx="124" cy="126" r="4" />
<circle cx="125" cy="131" r="4" />
<circle cx="136" cy="149" r="4" />
<circle cx="145" cy="71" r="4" />
<circle cx="142" cy="81" r="4" />
<circle cx="145" cy="92" r="4" />
<circle cx="145" cy="98" r="4" />
<circle cx="136" cy="102" r="4" />
<circle cx="127" cy="89" r="4" />
<circle cx="125" cy="77" r="4" />
<circle cx="111" cy="84" r="4" />
<circle cx="92" cy="103" r="4" />
<circle cx="87" cy="92" r="4" />
<circle cx="91" cy="83" r="4" />
<circle cx="109" cy="102" r="4" />
<circle cx="157" cy="212" r="4" />
<circle cx="159" cy="229" r="4" />
<circle cx="169" cy="223" r="4" />
<circle cx="176" cy="234" r="4" />
<circle cx="161" cy="243" r="4" />
<circle cx="176" cy="216" r="4" />
<circle cx="184" cy="215" r="4" />
<circle cx="187" cy="211" r="4" />
<circle cx="190" cy="227" r="4" />
<circle cx="202" cy="219" r="4" />
<circle cx="214" cy="206" r="4" />
<circle cx="219" cy="219" r="4" />
<circle cx="198" cy="225" r="4" />
<circle cx="193" cy="245" r="4" />
<circle cx="180" cy="248" r="4" />
<circle cx="187" cy="247" r="4" />
<circle cx="163" cy="269" r="4" />
<circle cx="164" cy="281" r="4" />
<circle cx="181" cy="292" r="4" />
<circle cx="204" cy="290" r="4" />
<circle cx="199" cy="267" r="4" />
<circle cx="217" cy="290" r="4" />
<circle cx="250" cy="291" r="4" />
<circle cx="267" cy="300" r="4" />
<circle cx="284" cy="286" r="4" />
<circle cx="286" cy="281" r="4" />
<circle cx="299" cy="283" r="4" />
<circle cx="289" cy="272" r="4" />
<circle cx="286" cy="241" r="4" />
<circle cx="276" cy="226" r="4" />
<circle cx="275" cy="237" r="4" />
<circle cx="266" cy="243" r="4" />
<circle cx="276" cy="263" r="4" />
<circle cx="261" cy="263" r="4" />
<circle cx="241" cy="254" r="4" />
<circle cx="229" cy="253" r="4" />
<circle cx="215" cy="237" r="4" />
<circle cx="265" cy="208" r="4" />
<circle cx="259" cy="199" r="4" />
<circle cx="101" cy="198" r="4" />
<circle cx="123" cy="197" r="4" />
<circle cx="116" cy="205" r="4" />
<circle cx="133" cy="210" r="4" />
<circle cx="121" cy="216" r="4" />
<circle cx="122" cy="223" r="4" />
<circle cx="144" cy="223" r="4" />
<circle cx="134" cy="223" r="4" />
<circle cx="149" cy="231" r="4" />
<circle cx="137" cy="237" r="4" />
<circle cx="100" cy="208" r="4" />
<circle cx="108" cy="209" r="4" />
<circle cx="123" cy="231" r="4" />
<circle cx="98" cy="217" r="4" />
<circle cx="90" cy="216" r="4" />
<circle cx="81" cy="221" r="4" />
<circle cx="79" cy="202" r="4" />
<circle cx="66" cy="203" r="4" />
<circle cx="56" cy="205" r="4" />
<circle cx="42" cy="201" r="4" />
<circle cx="21" cy="199" r="4" />
<circle cx="36" cy="209" r="4" />
<circle cx="28" cy="214" r="4" />
<circle cx="16" cy="225" r="4" />
<circle cx="30" cy="230" r="4" />
<circle cx="20" cy="241" r="4" />
<circle cx="39" cy="234" r="4" />
<circle cx="35" cy="221" r="4" />
<circle cx="67" cy="230" r="4" />
<circle cx="78" cy="233" r="4" />
<circle cx="102" cy="227" r="4" />
<circle cx="88" cy="240" r="4" />
<circle cx="62" cy="234" r="4" />
<circle cx="58" cy="248" r="4" />
<circle cx="50" cy="243" r="4" />
<circle cx="108" cy="226" r="4" />
<circle cx="107" cy="239" r="4" />
<circle cx="123" cy="240" r="4" />
<circle cx="134" cy="243" r="4" />
<circle cx="147" cy="244" r="4" />
<circle cx="149" cy="251" r="4" />
<circle cx="120" cy="252" r="4" />
<circle cx="135" cy="259" r="4" />
<circle cx="141" cy="274" r="4" />
<circle cx="133" cy="279" r="4" />
<circle cx="119" cy="283" r="4" />
<circle cx="115" cy="295" r="4" />
<circle cx="102" cy="278" r="4" />
<circle cx="80" cy="299" r="4" />
<circle cx="57" cy="294" r="4" />
<circle cx="46" cy="289" r="4" />
<circle cx="79" cy="265" r="4" />
<circle cx="79" cy="242" r="4" />
<circle cx="39" cy="281" r="4" />
<circle cx="70" cy="272" r="4" />
<circle cx="39" cy="276" r="4" />
</g>
<g class="spawningMap-uncommon">
<circle cx="263" cy="83" r="4" />
<circle cx="271" cy="82" r="4" />
<circle cx="269" cy="93" r="4" />
<circle cx="262" cy="78" r="4" />
<circle cx="266" cy="70" r="4" />
<circle cx="274" cy="79" r="4" />
</g>
<g class="spawningMap-common">
<circle cx="208" cy="79" r="4" />
<circle cx="216" cy="87" r="4" />
<circle cx="217" cy="81" r="4" />
<circle cx="215" cy="76" r="4" />
<circle cx="209" cy="67" r="4" />
<circle cx="208" cy="71" r="4" />
<circle cx="203" cy="74" r="4" />
</g>
</g>
</svg>