<?xml version="1.0" encoding="utf-8"?>
<svg xmlns="http://www.w3.org/2000/svg" width="300" height="300"
        viewBox="0 0 300 300" class="creatureMap" style="position:absolute;">
    <defs>
        <filter id="blur" x="-30%" y="-30%" width="160%" height="160%">
            <feGaussianBlur stdDeviation="3" />
        </filter>
        <pattern id="pattern-untameable" width="10" height="10" patternTransform="rotate(135)" patternUnits="userSpaceOnUse">
            <rect width="4" height="10" fill="black"></rect>
        </pattern>
        <filter id="groupStroke">
            <feFlood result="outsideColor" flood-color="black"/>
            <feMorphology in="SourceAlpha" operator="dilate" radius="2"/>
            <feComposite result="strokeoutline1" in="outsideColor" operator="in"/>
            <feComposite result="strokeoutline2" in="strokeoutline1" in2="SourceAlpha" operator="out"/>
            <feGaussianBlur in="strokeoutline2" result="strokeblur" stdDeviation="1"/>
        </filter>
        <style>
            .spawningMap-very-common { fill: #0F0; }
            .spawningMap-common { fill: #B2FF00; }
            .spawningMap-uncommon { fill: #FF0; }
            .spawningMap-very-uncommon { fill: #FC0; }
            .spawningMap-rare { fill: #F60; }
            .spawningMap-very-rare { fill: #F00; }
            .spawning-map-point { stroke:black; stroke-width:1; }
        </style>
    </defs>

<g filter="url(#blur)" opacity="0.7">
<g class="spawningMap-very-rare">
<rect x="25" y="100" width="29" height="17" />
</g>
<g class="spawningMap-rare">
<rect x="52" y="106" width="21" height="20" />
<rect x="52" y="123" width="21" height="21" />
<rect x="32" y="113" width="21" height="20" />
<rect x="13" y="86" width="20" height="21" />
<rect x="30" y="86" width="21" height="21" />
<rect x="68" y="147" width="20" height="21" />
<rect x="99" y="130" width="21" height="20" />
<rect x="99" y="113" width="21" height="20" />
</g>
<g class="spawningMap-very-uncommon">
<rect x="140" y="156" width="11" height="11" />
<rect x="132" y="150" width="10" height="11" />
<rect x="180" y="172" width="11" height="11" />
<rect x="191" y="180" width="11" height="11" />
<rect x="210" y="190" width="11" height="11" />
<rect x="224" y="198" width="10" height="11" />
</g>
</g>
<g fill="url(#pattern-untameable)" opacity="0.3">
<rect x="25" y="100" width="29" height="17"/>
<rect x="52" y="106" width="21" height="20"/>
<rect x="52" y="123" width="21" height="21"/>
<rect x="32" y="113" width="21" height="20"/>
<rect x="13" y="86" width="20" height="21"/>
<rect x="30" y="86" width="21" height="21"/>
<rect x="68" y="147" width="20" height="21"/>
<rect x="99" y="130" width="21" height="20"/>
<rect x="99" y="113" width="21" height="20"/>
<rect x="140" y="156" width="11" height="11"/>
<rect x="132" y="150" width="10" height="11"/>
<rect x="180" y="172" width="11" height="11"/>
<rect x="191" y="180" width="11" height="11"/>
<rect x="210" y="190" width="11" height="11"/>
<rect x="224" y="198" width="10" height="11"/>
</g>
</svg>