<?xml version="1.0" encoding="utf-8"?>
<svg xmlns="http://www.w3.org/2000/svg" width="300" height="300" viewBox="0 0 300 300" class="creatureMap" style="position:absolute;">
    <defs>
        <filter id="blur" x="-30%" y="-30%" width="160%" height="160%">
            <feGaussianBlur stdDeviation="3" />
        </filter>
        <pattern id="pattern-untameable" width="10" height="10" patternTransform="rotate(135)" patternUnits="userSpaceOnUse">'
            <rect width="4" height="10" fill="black"></rect>
        </pattern>
        <filter id="groupStroke">
            <feFlood result="outsideColor" flood-color="black"/>
            <feMorphology in="SourceAlpha" operator="dilate" radius="2"/>
            <feComposite result="strokeoutline1" in="outsideColor" operator="in"/>
            <feComposite result="strokeoutline2" in="strokeoutline1" in2="SourceAlpha" operator="out"/>
            <feGaussianBlur in="strokeoutline2" result="strokeblur" stdDeviation="1"/>
        </filter>
        <style>
            .spawningMap-very-common { fill: #0F0; }
            .spawningMap-common { fill: #B2FF00; }
            .spawningMap-uncommon { fill: #FF0; }
            .spawningMap-very-uncommon { fill: #FC0; }
            .spawningMap-rare { fill: #F60; }
            .spawningMap-very-rare { fill: #F00; }
            .spawning-map-point { stroke:black; stroke-width:1; }
        </style>
    </defs>

<g filter="url(#blur)" opacity="0.7">
<g class="spawningMap-very-rare">
<rect x="170" y="101" width="12" height="11" />
<rect x="199" y="32" width="15" height="14" />
<rect x="199" y="23" width="15" height="14" />
<rect x="153" y="49" width="14" height="14" />
<rect x="153" y="23" width="14" height="14" />
<rect x="143" y="49" width="15" height="14" />
<rect x="143" y="41" width="15" height="13" />
<rect x="143" y="32" width="15" height="14" />
<rect x="171" y="49" width="15" height="14" />
<rect x="171" y="41" width="15" height="13" />
<rect x="171" y="23" width="15" height="14" />
<rect x="162" y="49" width="14" height="14" />
<rect x="162" y="23" width="14" height="14" />
<rect x="190" y="41" width="14" height="13" />
<rect x="190" y="32" width="14" height="14" />
<rect x="190" y="23" width="14" height="14" />
<rect x="181" y="49" width="14" height="14" />
<rect x="181" y="41" width="14" height="13" />
<rect x="181" y="23" width="14" height="14" />
<rect x="97" y="119" width="14" height="13" />
<rect x="97" y="110" width="14" height="14" />
<rect x="97" y="101" width="14" height="14" />
<rect x="97" y="75" width="14" height="14" />
<rect x="97" y="67" width="14" height="13" />
<rect x="97" y="58" width="14" height="14" />
<rect x="97" y="49" width="14" height="14" />
<rect x="87" y="110" width="15" height="14" />
<rect x="87" y="119" width="15" height="13" />
<rect x="106" y="75" width="14" height="14" />
<rect x="106" y="67" width="14" height="13" />
<rect x="134" y="145" width="14" height="13" />
<rect x="78" y="110" width="15" height="14" />
<rect x="78" y="119" width="15" height="13" />
<rect x="41" y="49" width="14" height="14" />
<rect x="22" y="171" width="15" height="13" />
<rect x="13" y="162" width="14" height="14" />
<rect x="3" y="127" width="15" height="14" />
<rect x="3" y="75" width="15" height="14" />
<rect x="59" y="179" width="15" height="14" />
<rect x="59" y="49" width="15" height="14" />
<rect x="59" y="41" width="15" height="13" />
<rect x="50" y="136" width="15" height="14" />
<rect x="50" y="84" width="15" height="14" />
<rect x="50" y="75" width="15" height="14" />
<rect x="50" y="58" width="15" height="14" />
<rect x="50" y="49" width="15" height="14" />
<rect x="41" y="136" width="14" height="14" />
<rect x="41" y="127" width="14" height="14" />
<rect x="199" y="32" width="15" height="14" />
<rect x="199" y="23" width="15" height="14" />
<rect x="227" y="145" width="15" height="13" />
<rect x="153" y="49" width="14" height="14" />
<rect x="0" y="84" width="9" height="14" />
<rect x="87" y="110" width="15" height="14" />
<rect x="153" y="119" width="14" height="13" />
<rect x="153" y="23" width="14" height="14" />
<rect x="153" y="153" width="14" height="14" />
<rect x="143" y="49" width="15" height="14" />
<rect x="143" y="41" width="15" height="13" />
<rect x="143" y="32" width="15" height="14" />
<rect x="171" y="49" width="15" height="14" />
<rect x="171" y="41" width="15" height="13" />
<rect x="171" y="23" width="15" height="14" />
<rect x="162" y="49" width="14" height="14" />
<rect x="162" y="23" width="14" height="14" />
<rect x="190" y="41" width="14" height="13" />
<rect x="190" y="32" width="14" height="14" />
<rect x="190" y="23" width="14" height="14" />
<rect x="181" y="49" width="14" height="14" />
<rect x="181" y="41" width="14" height="13" />
<rect x="181" y="23" width="14" height="14" />
<rect x="190" y="153" width="14" height="14" />
<rect x="41" y="75" width="14" height="14" />
<rect x="181" y="101" width="14" height="14" />
<rect x="181" y="84" width="14" height="14" />
<rect x="181" y="145" width="14" height="13" />
<rect x="181" y="153" width="14" height="14" />
<rect x="41" y="67" width="14" height="13" />
<rect x="41" y="58" width="14" height="14" />
<rect x="31" y="136" width="15" height="14" />
<rect x="31" y="127" width="15" height="14" />
<rect x="31" y="119" width="15" height="13" />
<rect x="31" y="110" width="15" height="14" />
<rect x="31" y="101" width="15" height="14" />
<rect x="31" y="93" width="15" height="13" />
<rect x="31" y="84" width="15" height="14" />
<rect x="31" y="145" width="15" height="13" />
<rect x="31" y="171" width="15" height="13" />
<rect x="31" y="179" width="15" height="14" />
<rect x="31" y="75" width="15" height="14" />
<rect x="87" y="127" width="15" height="14" />
<rect x="31" y="67" width="15" height="13" />
<rect x="22" y="136" width="15" height="14" />
<rect x="22" y="127" width="15" height="14" />
<rect x="22" y="119" width="15" height="13" />
<rect x="22" y="110" width="15" height="14" />
<rect x="190" y="145" width="14" height="13" />
<rect x="22" y="84" width="15" height="14" />
<rect x="22" y="145" width="15" height="13" />
<rect x="22" y="153" width="15" height="14" />
<rect x="22" y="162" width="15" height="14" />
<rect x="22" y="75" width="15" height="14" />
<rect x="22" y="67" width="15" height="13" />
<rect x="13" y="136" width="14" height="14" />
<rect x="13" y="127" width="14" height="14" />
<rect x="13" y="119" width="14" height="13" />
<rect x="13" y="110" width="14" height="14" />
<rect x="13" y="101" width="14" height="14" />
<rect x="13" y="93" width="14" height="13" />
<rect x="13" y="84" width="14" height="14" />
<rect x="13" y="145" width="14" height="13" />
<rect x="13" y="153" width="14" height="14" />
<rect x="13" y="75" width="14" height="14" />
<rect x="13" y="67" width="14" height="13" />
<rect x="3" y="119" width="15" height="13" />
<rect x="3" y="110" width="15" height="14" />
<rect x="3" y="101" width="15" height="14" />
<rect x="3" y="93" width="15" height="13" />
<rect x="3" y="84" width="15" height="14" />
<rect x="87" y="101" width="15" height="14" />
<rect x="87" y="119" width="15" height="13" />
<rect x="78" y="119" width="15" height="13" />
<rect x="78" y="110" width="15" height="14" />
<rect x="87" y="162" width="15" height="14" />
<rect x="87" y="171" width="15" height="13" />
<rect x="87" y="179" width="15" height="14" />
<rect x="87" y="49" width="15" height="14" />
<rect x="87" y="41" width="15" height="13" />
<rect x="78" y="127" width="15" height="14" />
<rect x="78" y="101" width="15" height="14" />
<rect x="78" y="153" width="15" height="14" />
<rect x="78" y="162" width="15" height="14" />
<rect x="78" y="171" width="15" height="13" />
<rect x="78" y="179" width="15" height="14" />
<rect x="78" y="41" width="15" height="13" />
<rect x="50" y="179" width="15" height="14" />
<rect x="41" y="179" width="14" height="14" />
<rect x="55" y="188" width="14" height="14" />
<rect x="45" y="188" width="15" height="14" />
<rect x="55" y="196" width="14" height="14" />
<rect x="45" y="196" width="15" height="14" />
<rect x="55" y="205" width="14" height="14" />
<rect x="45" y="205" width="15" height="14" />
<rect x="69" y="127" width="14" height="14" />
<rect x="69" y="119" width="14" height="13" />
<rect x="69" y="110" width="14" height="14" />
<rect x="153" y="162" width="14" height="14" />
<rect x="0" y="93" width="9" height="13" />
<rect x="0" y="119" width="9" height="13" />
<rect x="0" y="110" width="9" height="14" />
<rect x="0" y="101" width="9" height="14" />
<rect x="41" y="93" width="14" height="13" />
<rect x="171" y="84" width="15" height="14" />
<rect x="171" y="145" width="15" height="13" />
<rect x="171" y="153" width="15" height="14" />
<rect x="41" y="84" width="14" height="14" />
<rect x="41" y="145" width="14" height="13" />
<rect x="69" y="179" width="14" height="14" />
<rect x="162" y="119" width="14" height="13" />
<rect x="162" y="84" width="14" height="14" />
<rect x="162" y="153" width="14" height="14" />
<rect x="162" y="162" width="14" height="14" />
<rect x="69" y="41" width="14" height="13" />
<rect x="171" y="162" width="15" height="14" />
</g>
</g>
</svg>