<?xml version="1.0" encoding="utf-8"?>
<svg xmlns="http://www.w3.org/2000/svg" width="300" height="300"
        viewBox="0 0 300 300" class="creatureMap" style="position:absolute;">
    <defs>
        <filter id="blur" x="-30%" y="-30%" width="160%" height="160%">
            <feGaussianBlur stdDeviation="3" />
        </filter>
        <pattern id="pattern-untameable" width="10" height="10" patternTransform="rotate(135)" patternUnits="userSpaceOnUse">
            <rect width="4" height="10" fill="black"></rect>
        </pattern>
        <filter id="groupStroke">
            <feFlood result="outsideColor" flood-color="black"/>
            <feMorphology in="SourceAlpha" operator="dilate" radius="2"/>
            <feComposite result="strokeoutline1" in="outsideColor" operator="in"/>
            <feComposite result="strokeoutline2" in="strokeoutline1" in2="SourceAlpha" operator="out"/>
            <feGaussianBlur in="strokeoutline2" result="strokeblur" stdDeviation="1"/>
        </filter>
        <style>
            .spawningMap-very-common { fill: #0F0; }
            .spawningMap-common { fill: #B2FF00; }
            .spawningMap-uncommon { fill: #FF0; }
            .spawningMap-very-uncommon { fill: #FC0; }
            .spawningMap-rare { fill: #F60; }
            .spawningMap-very-rare { fill: #F00; }
            .spawning-map-point { stroke:black; stroke-width:1; }
        </style>
    </defs>

<g class="spawning-map-point" opacity="0.8">
<g class="spawningMap-rare">
<circle cx="189" cy="39" r="4" />
<circle cx="187" cy="53" r="4" />
<circle cx="174" cy="49" r="4" />
<circle cx="170" cy="36" r="4" />
<circle cx="183" cy="35" r="4" />
<circle cx="164" cy="37" r="4" />
<circle cx="156" cy="42" r="4" />
<circle cx="159" cy="40" r="4" />
<circle cx="175" cy="56" r="4" />
<circle cx="165" cy="52" r="4" />
<circle cx="161" cy="48" r="4" />
<circle cx="188" cy="40" r="4" />
<circle cx="188" cy="45" r="4" />
<circle cx="100" cy="266" r="4" />
<circle cx="104" cy="267" r="4" />
<circle cx="102" cy="287" r="4" />
<circle cx="103" cy="285" r="4" />
<circle cx="105" cy="288" r="4" />
<circle cx="99" cy="284" r="4" />
<circle cx="107" cy="265" r="4" />
</g>
<g class="spawningMap-very-uncommon">
<circle cx="198" cy="280" r="4" />
<circle cx="199" cy="282" r="4" />
<circle cx="199" cy="284" r="4" />
<circle cx="201" cy="287" r="4" />
<circle cx="202" cy="283" r="4" />
<circle cx="202" cy="280" r="4" />
</g>
<g class="spawningMap-uncommon">
<circle cx="194" cy="160" r="4" />
<circle cx="193" cy="161" r="4" />
<circle cx="195" cy="162" r="4" />
<circle cx="198" cy="162" r="4" />
<circle cx="196" cy="159" r="4" />
<circle cx="195" cy="160" r="4" />
<circle cx="192" cy="157" r="4" />
<circle cx="193" cy="159" r="4" />
<circle cx="192" cy="158" r="4" />
<circle cx="190" cy="157" r="4" />
<circle cx="189" cy="158" r="4" />
</g>
</g>
</svg>