<?xml version="1.0" encoding="utf-8"?>
<svg xmlns="http://www.w3.org/2000/svg" width="300" height="300" viewBox="0 0 300 300" class="creatureMap" style="position:absolute;">
    <defs>
        <filter id="blur" x="-30%" y="-30%" width="160%" height="160%">
            <feGaussianBlur stdDeviation="3" />
        </filter>
        <pattern id="pattern-untameable" width="10" height="10" patternTransform="rotate(135)" patternUnits="userSpaceOnUse">'
            <rect width="4" height="10" fill="black"></rect>
        </pattern>
        <filter id="groupStroke">
            <feFlood result="outsideColor" flood-color="black"/>
            <feMorphology in="SourceAlpha" operator="dilate" radius="2"/>
            <feComposite result="strokeoutline1" in="outsideColor" operator="in"/>
            <feComposite result="strokeoutline2" in="strokeoutline1" in2="SourceAlpha" operator="out"/>
            <feGaussianBlur in="strokeoutline2" result="strokeblur" stdDeviation="1"/>
        </filter>
        <style>
            .spawningMap-very-common { fill: #0F0; }
            .spawningMap-common { fill: #B2FF00; }
            .spawningMap-uncommon { fill: #FF0; }
            .spawningMap-very-uncommon { fill: #FC0; }
            .spawningMap-rare { fill: #F60; }
            .spawningMap-very-rare { fill: #F00; }
            .spawning-map-point { stroke:black; stroke-width:1; }
        </style>
    </defs>

<g filter="url(#blur)" opacity="0.7">
<g class="spawningMap-uncommon">
<rect x="65" y="85" width="18" height="17" />
<rect x="43" y="102" width="18" height="17" />
<rect x="41" y="111" width="18" height="17" />
<rect x="48" y="125" width="17" height="16" />
<rect x="54" y="135" width="17" height="17" />
<rect x="66" y="143" width="17" height="17" />
<rect x="84" y="148" width="17" height="17" />
<rect x="97" y="149" width="18" height="17" />
<rect x="105" y="159" width="17" height="17" />
<rect x="97" y="165" width="17" height="17" />
<rect x="111" y="132" width="17" height="17" />
<rect x="123" y="117" width="18" height="17" />
<rect x="117" y="100" width="17" height="17" />
</g>
<g class="spawningMap-common">
<rect x="81" y="81" width="15" height="15" />
</g>
<g class="spawningMap-very-common">
<rect x="60" y="90" width="18" height="17" />
<rect x="97" y="82" width="15" height="15" />
<rect x="122" y="111" width="15" height="15" />
<rect x="120" y="125" width="15" height="15" />
<rect x="102" y="140" width="18" height="17" />
<rect x="72" y="146" width="16" height="16" />
<rect x="44" y="117" width="15" height="15" />
<rect x="110" y="90" width="18" height="17" />
<rect x="104" y="80" width="18" height="17" />
</g>
</g>
</svg>