<?xml version="1.0" encoding="utf-8"?>
<svg xmlns="http://www.w3.org/2000/svg" width="300" height="300" viewBox="0 0 300 300" class="creatureMap" style="position:absolute;">
    <defs>
        <filter id="blur" x="-30%" y="-30%" width="160%" height="160%">
            <feGaussianBlur stdDeviation="3" />
        </filter>
        <pattern id="pattern-untameable" width="10" height="10" patternTransform="rotate(135)" patternUnits="userSpaceOnUse">'
            <rect width="4" height="10" fill="black"></rect>
        </pattern>
        <filter id="groupStroke">
            <feFlood result="outsideColor" flood-color="black"/>
            <feMorphology in="SourceAlpha" operator="dilate" radius="2"/>
            <feComposite result="strokeoutline1" in="outsideColor" operator="in"/>
            <feComposite result="strokeoutline2" in="strokeoutline1" in2="SourceAlpha" operator="out"/>
            <feGaussianBlur in="strokeoutline2" result="strokeblur" stdDeviation="1"/>
        </filter>
        <style>
            .spawningMap-very-common { fill: #0F0; }
            .spawningMap-common { fill: #B2FF00; }
            .spawningMap-uncommon { fill: #FF0; }
            .spawningMap-very-uncommon { fill: #FC0; }
            .spawningMap-rare { fill: #F60; }
            .spawningMap-very-rare { fill: #F00; }
            .spawning-map-point { stroke:black; stroke-width:1; }
        </style>
    </defs>

<g filter="url(#blur)" opacity="0.7">
<g class="spawningMap-very-uncommon">
<rect x="81" y="61" width="12" height="14" />
</g>
<g class="spawningMap-uncommon">
<rect x="143" y="29" width="16" height="17" />
<rect x="153" y="153" width="14" height="12" />
<rect x="151" y="148" width="13" height="13" />
<rect x="193" y="186" width="15" height="14" />
</g>
<g class="spawningMap-common">
<rect x="78" y="109" width="29" height="21" />
<rect x="78" y="123" width="15" height="14" />
<rect x="88" y="113" width="16" height="15" />
<rect x="96" y="259" width="16" height="14" />
<rect x="182" y="37" width="11" height="12" />
<rect x="169" y="49" width="13" height="13" />
<rect x="165" y="48" width="13" height="12" />
<rect x="156" y="43" width="15" height="14" />
<rect x="176" y="29" width="12" height="13" />
<rect x="166" y="28" width="12" height="13" />
<rect x="162" y="33" width="13" height="12" />
<rect x="155" y="33" width="13" height="12" />
<rect x="148" y="31" width="13" height="12" />
<rect x="157" y="29" width="14" height="12" />
<rect x="46" y="158" width="11" height="11" />
<rect x="53" y="154" width="12" height="10" />
<rect x="49" y="158" width="11" height="10" />
<rect x="48" y="164" width="12" height="11" />
<rect x="56" y="168" width="11" height="10" />
<rect x="57" y="163" width="11" height="11" />
<rect x="57" y="158" width="11" height="10" />
<rect x="162" y="157" width="12" height="10" />
<rect x="162" y="161" width="12" height="10" />
<rect x="169" y="161" width="11" height="10" />
<rect x="169" y="156" width="11" height="11" />
<rect x="169" y="152" width="11" height="10" />
<rect x="162" y="152" width="12" height="10" />
<rect x="155" y="150" width="12" height="10" />
<rect x="147" y="149" width="11" height="11" />
<rect x="146" y="146" width="10" height="11" />
<rect x="153" y="161" width="10" height="11" />
<rect x="157" y="155" width="10" height="11" />
<rect x="153" y="157" width="10" height="11" />
<rect x="153" y="180" width="11" height="11" />
<rect x="149" y="181" width="10" height="11" />
<rect x="146" y="165" width="11" height="11" />
<rect x="143" y="163" width="11" height="10" />
<rect x="142" y="158" width="11" height="11" />
<rect x="145" y="154" width="11" height="11" />
<rect x="184" y="105" width="12" height="11" />
<rect x="184" y="110" width="12" height="11" />
<rect x="178" y="109" width="12" height="10" />
<rect x="174" y="110" width="12" height="11" />
<rect x="176" y="116" width="12" height="11" />
<rect x="174" y="121" width="12" height="11" />
<rect x="172" y="123" width="12" height="11" />
<rect x="173" y="89" width="12" height="11" />
<rect x="174" y="90" width="12" height="11" />
<rect x="176" y="89" width="12" height="11" />
<rect x="178" y="91" width="12" height="11" />
<rect x="180" y="92" width="12" height="11" />
<rect x="179" y="90" width="12" height="11" />
<rect x="182" y="94" width="12" height="11" />
<rect x="182" y="97" width="13" height="10" />
</g>
<g class="spawningMap-very-common">
<rect x="175" y="158" width="12" height="13" />
<rect x="182" y="153" width="12" height="12" />
<rect x="185" y="149" width="11" height="12" />
<rect x="188" y="151" width="12" height="12" />
<rect x="188" y="154" width="12" height="13" />
<rect x="192" y="154" width="12" height="12" />
<rect x="194" y="150" width="12" height="12" />
<rect x="181" y="156" width="12" height="12" />
<rect x="180" y="159" width="12" height="12" />
<rect x="195" y="276" width="11" height="14" />
<rect x="89" y="108" width="15" height="15" />
<rect x="95" y="109" width="12" height="14" />
<rect x="84" y="121" width="11" height="15" />
<rect x="93" y="280" width="16" height="12" />
<rect x="170" y="43" width="12" height="11" />
<rect x="164" y="45" width="12" height="11" />
<rect x="143" y="47" width="12" height="10" />
<rect x="149" y="52" width="12" height="12" />
<rect x="152" y="46" width="8" height="8" />
<rect x="68" y="68" width="8" height="9" />
<rect x="64" y="72" width="10" height="9" />
<rect x="62" y="69" width="12" height="9" />
<rect x="74" y="65" width="9" height="10" />
<rect x="80" y="69" width="12" height="8" />
<rect x="150" y="157" width="10" height="11" />
<rect x="145" y="154" width="10" height="10" />
</g>
</g>
<g fill="url(#pattern-untameable)" opacity="0.3">
<rect x="153" y="153" width="14" height="12"/>
<rect x="151" y="148" width="13" height="13"/>
<rect x="162" y="157" width="12" height="10"/>
<rect x="162" y="161" width="12" height="10"/>
<rect x="169" y="161" width="11" height="10"/>
<rect x="169" y="156" width="11" height="11"/>
<rect x="169" y="152" width="11" height="10"/>
<rect x="162" y="152" width="12" height="10"/>
<rect x="155" y="150" width="12" height="10"/>
<rect x="147" y="149" width="11" height="11"/>
<rect x="146" y="146" width="10" height="11"/>
<rect x="153" y="161" width="10" height="11"/>
<rect x="157" y="155" width="10" height="11"/>
<rect x="153" y="157" width="10" height="11"/>
<rect x="153" y="180" width="11" height="11"/>
<rect x="149" y="181" width="10" height="11"/>
<rect x="146" y="165" width="11" height="11"/>
<rect x="143" y="163" width="11" height="10"/>
<rect x="142" y="158" width="11" height="11"/>
<rect x="145" y="154" width="11" height="11"/>
<rect x="150" y="157" width="10" height="11"/>
<rect x="145" y="154" width="10" height="10"/>
</g>
<g filter="url(#groupStroke)" opacity="0.8">
<rect x="81" y="61" width="12" height="14"/>
<rect x="143" y="29" width="16" height="17"/>
<rect x="153" y="153" width="14" height="12"/>
<rect x="151" y="148" width="13" height="13"/>
<rect x="193" y="186" width="15" height="14"/>
<rect x="78" y="109" width="29" height="21"/>
<rect x="78" y="123" width="15" height="14"/>
<rect x="88" y="113" width="16" height="15"/>
<rect x="96" y="259" width="16" height="14"/>
<rect x="182" y="37" width="11" height="12"/>
<rect x="169" y="49" width="13" height="13"/>
<rect x="165" y="48" width="13" height="12"/>
<rect x="156" y="43" width="15" height="14"/>
<rect x="176" y="29" width="12" height="13"/>
<rect x="166" y="28" width="12" height="13"/>
<rect x="162" y="33" width="13" height="12"/>
<rect x="155" y="33" width="13" height="12"/>
<rect x="148" y="31" width="13" height="12"/>
<rect x="157" y="29" width="14" height="12"/>
<rect x="46" y="158" width="11" height="11"/>
<rect x="53" y="154" width="12" height="10"/>
<rect x="49" y="158" width="11" height="10"/>
<rect x="48" y="164" width="12" height="11"/>
<rect x="56" y="168" width="11" height="10"/>
<rect x="57" y="163" width="11" height="11"/>
<rect x="57" y="158" width="11" height="10"/>
<rect x="162" y="157" width="12" height="10"/>
<rect x="162" y="161" width="12" height="10"/>
<rect x="169" y="161" width="11" height="10"/>
<rect x="169" y="156" width="11" height="11"/>
<rect x="169" y="152" width="11" height="10"/>
<rect x="162" y="152" width="12" height="10"/>
<rect x="155" y="150" width="12" height="10"/>
<rect x="147" y="149" width="11" height="11"/>
<rect x="146" y="146" width="10" height="11"/>
<rect x="153" y="161" width="10" height="11"/>
<rect x="157" y="155" width="10" height="11"/>
<rect x="153" y="157" width="10" height="11"/>
<rect x="153" y="180" width="11" height="11"/>
<rect x="149" y="181" width="10" height="11"/>
<rect x="146" y="165" width="11" height="11"/>
<rect x="143" y="163" width="11" height="10"/>
<rect x="142" y="158" width="11" height="11"/>
<rect x="145" y="154" width="11" height="11"/>
<rect x="184" y="105" width="12" height="11"/>
<rect x="184" y="110" width="12" height="11"/>
<rect x="178" y="109" width="12" height="10"/>
<rect x="174" y="110" width="12" height="11"/>
<rect x="176" y="116" width="12" height="11"/>
<rect x="174" y="121" width="12" height="11"/>
<rect x="172" y="123" width="12" height="11"/>
<rect x="173" y="89" width="12" height="11"/>
<rect x="174" y="90" width="12" height="11"/>
<rect x="176" y="89" width="12" height="11"/>
<rect x="178" y="91" width="12" height="11"/>
<rect x="180" y="92" width="12" height="11"/>
<rect x="179" y="90" width="12" height="11"/>
<rect x="182" y="94" width="12" height="11"/>
<rect x="182" y="97" width="13" height="10"/>
<rect x="175" y="158" width="12" height="13"/>
<rect x="182" y="153" width="12" height="12"/>
<rect x="185" y="149" width="11" height="12"/>
<rect x="188" y="151" width="12" height="12"/>
<rect x="188" y="154" width="12" height="13"/>
<rect x="192" y="154" width="12" height="12"/>
<rect x="194" y="150" width="12" height="12"/>
<rect x="181" y="156" width="12" height="12"/>
<rect x="180" y="159" width="12" height="12"/>
<rect x="195" y="276" width="11" height="14"/>
<rect x="89" y="108" width="15" height="15"/>
<rect x="95" y="109" width="12" height="14"/>
<rect x="84" y="121" width="11" height="15"/>
<rect x="93" y="280" width="16" height="12"/>
<rect x="170" y="43" width="12" height="11"/>
<rect x="164" y="45" width="12" height="11"/>
<rect x="143" y="47" width="12" height="10"/>
<rect x="149" y="52" width="12" height="12"/>
<rect x="152" y="46" width="8" height="8"/>
<rect x="68" y="68" width="8" height="9"/>
<rect x="64" y="72" width="10" height="9"/>
<rect x="62" y="69" width="12" height="9"/>
<rect x="74" y="65" width="9" height="10"/>
<rect x="80" y="69" width="12" height="8"/>
<rect x="150" y="157" width="10" height="11"/>
<rect x="145" y="154" width="10" height="10"/>
</g>
</svg>