<?xml version="1.0" encoding="utf-8"?>
<svg xmlns="http://www.w3.org/2000/svg" width="300" height="300"
        viewBox="0 0 300 300" class="creatureMap" style="position:absolute;">
    <defs>
        <filter id="blur" x="-30%" y="-30%" width="160%" height="160%">
            <feGaussianBlur stdDeviation="3" />
        </filter>
        <pattern id="pattern-untameable" width="10" height="10" patternTransform="rotate(135)" patternUnits="userSpaceOnUse">
            <rect width="4" height="10" fill="black"></rect>
        </pattern>
        <filter id="groupStroke">
            <feFlood result="outsideColor" flood-color="black"/>
            <feMorphology in="SourceAlpha" operator="dilate" radius="2"/>
            <feComposite result="strokeoutline1" in="outsideColor" operator="in"/>
            <feComposite result="strokeoutline2" in="strokeoutline1" in2="SourceAlpha" operator="out"/>
            <feGaussianBlur in="strokeoutline2" result="strokeblur" stdDeviation="1"/>
        </filter>
        <style>
            .spawningMap-very-common { fill: #0F0; }
            .spawningMap-common { fill: #B2FF00; }
            .spawningMap-uncommon { fill: #FF0; }
            .spawningMap-very-uncommon { fill: #FC0; }
            .spawningMap-rare { fill: #F60; }
            .spawningMap-very-rare { fill: #F00; }
            .spawning-map-point { stroke:black; stroke-width:1; }
        </style>
    </defs>

<g filter="url(#blur)" opacity="0.7">
<g class="spawningMap-rare">
<rect x="90" y="273" width="14" height="14" />
<rect x="93" y="265" width="14" height="14" />
</g>
<g class="spawningMap-very-uncommon">
<rect x="185" y="227" width="14" height="14" />
<rect x="74" y="227" width="15" height="14" />
<rect x="46" y="253" width="15" height="14" />
<rect x="46" y="244" width="15" height="14" />
<rect x="176" y="270" width="14" height="14" />
<rect x="166" y="270" width="15" height="14" />
<rect x="102" y="270" width="14" height="14" />
<rect x="157" y="279" width="15" height="13" />
<rect x="148" y="279" width="15" height="13" />
<rect x="139" y="279" width="14" height="13" />
<rect x="130" y="279" width="14" height="14" />
<rect x="120" y="279" width="15" height="14" />
<rect x="111" y="279" width="15" height="14" />
<rect x="56" y="218" width="14" height="14" />
<rect x="46" y="218" width="15" height="14" />
<rect x="241" y="263" width="14" height="14" />
<rect x="231" y="253" width="15" height="14" />
<rect x="231" y="244" width="15" height="14" />
<rect x="231" y="270" width="15" height="14" />
<rect x="222" y="253" width="14" height="14" />
<rect x="222" y="244" width="14" height="14" />
<rect x="222" y="270" width="14" height="14" />
<rect x="231" y="261" width="15" height="14" />
<rect x="222" y="261" width="14" height="14" />
<rect x="213" y="253" width="14" height="14" />
<rect x="213" y="244" width="14" height="14" />
<rect x="213" y="236" width="14" height="13" />
<rect x="213" y="261" width="14" height="14" />
<rect x="213" y="227" width="14" height="14" />
<rect x="203" y="253" width="15" height="14" />
<rect x="203" y="244" width="15" height="14" />
<rect x="203" y="236" width="15" height="13" />
<rect x="203" y="261" width="15" height="14" />
<rect x="203" y="227" width="15" height="14" />
<rect x="194" y="253" width="15" height="14" />
<rect x="194" y="244" width="15" height="14" />
<rect x="194" y="236" width="15" height="13" />
<rect x="194" y="261" width="15" height="14" />
<rect x="194" y="227" width="15" height="14" />
<rect x="185" y="253" width="14" height="14" />
<rect x="185" y="244" width="14" height="14" />
<rect x="185" y="236" width="14" height="13" />
<rect x="185" y="261" width="14" height="14" />
<rect x="176" y="253" width="14" height="14" />
<rect x="176" y="244" width="14" height="14" />
<rect x="176" y="236" width="14" height="13" />
<rect x="166" y="253" width="15" height="14" />
<rect x="166" y="244" width="15" height="14" />
<rect x="166" y="236" width="15" height="13" />
<rect x="157" y="253" width="15" height="14" />
<rect x="157" y="244" width="15" height="14" />
<rect x="157" y="236" width="15" height="13" />
<rect x="148" y="253" width="15" height="14" />
<rect x="148" y="244" width="15" height="14" />
<rect x="148" y="236" width="15" height="13" />
<rect x="148" y="227" width="15" height="14" />
<rect x="139" y="253" width="14" height="14" />
<rect x="139" y="244" width="14" height="14" />
<rect x="139" y="236" width="14" height="13" />
<rect x="139" y="227" width="14" height="14" />
<rect x="130" y="253" width="14" height="14" />
<rect x="130" y="244" width="14" height="14" />
<rect x="130" y="236" width="14" height="13" />
<rect x="130" y="227" width="14" height="14" />
<rect x="120" y="253" width="15" height="14" />
<rect x="120" y="244" width="15" height="14" />
<rect x="120" y="236" width="15" height="13" />
<rect x="120" y="227" width="15" height="14" />
<rect x="111" y="253" width="15" height="14" />
<rect x="111" y="244" width="15" height="14" />
<rect x="111" y="236" width="15" height="13" />
<rect x="111" y="227" width="15" height="14" />
<rect x="102" y="253" width="14" height="14" />
<rect x="102" y="244" width="14" height="14" />
<rect x="102" y="236" width="14" height="13" />
<rect x="102" y="227" width="14" height="14" />
<rect x="93" y="253" width="14" height="14" />
<rect x="93" y="236" width="14" height="13" />
<rect x="93" y="263" width="14" height="14" />
<rect x="93" y="227" width="14" height="14" />
<rect x="83" y="253" width="15" height="14" />
<rect x="83" y="244" width="15" height="14" />
<rect x="83" y="236" width="15" height="13" />
<rect x="83" y="227" width="15" height="14" />
<rect x="74" y="253" width="15" height="14" />
<rect x="74" y="244" width="15" height="14" />
<rect x="74" y="236" width="15" height="13" />
<rect x="65" y="253" width="14" height="14" />
<rect x="65" y="244" width="14" height="14" />
<rect x="65" y="236" width="14" height="13" />
<rect x="65" y="262" width="14" height="13" />
<rect x="56" y="253" width="14" height="14" />
<rect x="56" y="244" width="14" height="14" />
<rect x="56" y="262" width="14" height="13" />
<rect x="176" y="261" width="14" height="14" />
<rect x="166" y="261" width="15" height="14" />
<rect x="157" y="261" width="15" height="14" />
<rect x="148" y="261" width="15" height="14" />
<rect x="139" y="261" width="14" height="14" />
<rect x="130" y="261" width="14" height="14" />
<rect x="120" y="261" width="15" height="14" />
<rect x="111" y="261" width="15" height="14" />
<rect x="102" y="261" width="14" height="14" />
<rect x="157" y="270" width="15" height="14" />
<rect x="148" y="270" width="15" height="14" />
<rect x="139" y="270" width="14" height="14" />
<rect x="130" y="270" width="14" height="14" />
<rect x="120" y="270" width="15" height="14" />
<rect x="111" y="270" width="15" height="14" />
<rect x="56" y="236" width="14" height="13" />
<rect x="46" y="236" width="15" height="13" />
<rect x="56" y="227" width="14" height="14" />
<rect x="46" y="227" width="15" height="14" />
<rect x="213" y="270" width="14" height="14" />
<rect x="93" y="244" width="14" height="14" />
</g>
</g>
<g class="spawning-map-point" opacity="0.8">
<g class="spawningMap-very-rare">
<circle cx="189" cy="39" r="4" />
<circle cx="187" cy="53" r="4" />
<circle cx="174" cy="49" r="4" />
<circle cx="170" cy="36" r="4" />
<circle cx="183" cy="35" r="4" />
<circle cx="164" cy="37" r="4" />
<circle cx="156" cy="42" r="4" />
<circle cx="159" cy="40" r="4" />
<circle cx="175" cy="56" r="4" />
<circle cx="165" cy="52" r="4" />
<circle cx="161" cy="48" r="4" />
<circle cx="188" cy="40" r="4" />
<circle cx="188" cy="45" r="4" />
<circle cx="100" cy="266" r="4" />
<circle cx="104" cy="267" r="4" />
<circle cx="102" cy="287" r="4" />
<circle cx="103" cy="285" r="4" />
<circle cx="105" cy="288" r="4" />
<circle cx="99" cy="284" r="4" />
<circle cx="107" cy="265" r="4" />
</g>
<g class="spawningMap-rare">
<circle cx="198" cy="280" r="4" />
<circle cx="199" cy="282" r="4" />
<circle cx="199" cy="284" r="4" />
<circle cx="201" cy="287" r="4" />
<circle cx="202" cy="283" r="4" />
<circle cx="202" cy="280" r="4" />
</g>
<g class="spawningMap-very-uncommon">
<circle cx="194" cy="160" r="4" />
<circle cx="193" cy="161" r="4" />
<circle cx="195" cy="162" r="4" />
<circle cx="198" cy="162" r="4" />
<circle cx="196" cy="159" r="4" />
<circle cx="195" cy="160" r="4" />
<circle cx="192" cy="157" r="4" />
<circle cx="193" cy="159" r="4" />
<circle cx="192" cy="158" r="4" />
<circle cx="190" cy="157" r="4" />
<circle cx="189" cy="158" r="4" />
</g>
</g>
</svg>