<?xml version="1.0" encoding="utf-8"?>
<svg xmlns="http://www.w3.org/2000/svg" width="300" height="300"
        viewBox="0 0 300 300" class="creatureMap" style="position:absolute;">
    <defs>
        <filter id="blur" x="-30%" y="-30%" width="160%" height="160%">
            <feGaussianBlur stdDeviation="3" />
        </filter>
        <pattern id="pattern-untameable" width="10" height="10" patternTransform="rotate(135)" patternUnits="userSpaceOnUse">
            <rect width="4" height="10" fill="black"></rect>
        </pattern>
        <filter id="groupStroke">
            <feFlood result="outsideColor" flood-color="black"/>
            <feMorphology in="SourceAlpha" operator="dilate" radius="2"/>
            <feComposite result="strokeoutline1" in="outsideColor" operator="in"/>
            <feComposite result="strokeoutline2" in="strokeoutline1" in2="SourceAlpha" operator="out"/>
            <feGaussianBlur in="strokeoutline2" result="strokeblur" stdDeviation="1"/>
        </filter>
        <style>
            .spawningMap-very-common { fill: #0F0; }
            .spawningMap-common { fill: #B2FF00; }
            .spawningMap-uncommon { fill: #FF0; }
            .spawningMap-very-uncommon { fill: #FC0; }
            .spawningMap-rare { fill: #F60; }
            .spawningMap-very-rare { fill: #F00; }
            .spawning-map-point { stroke:black; stroke-width:1; }
        </style>
    </defs>

<g filter="url(#blur)" opacity="0.7">
<g class="spawningMap-very-rare">
<rect x="19" y="200" width="29" height="24" />
<rect x="0" y="181" width="24" height="24" />
<rect x="44" y="5" width="29" height="24" />
<rect x="41" y="207" width="29" height="25" />
<rect x="19" y="238" width="29" height="24" />
<rect x="0" y="238" width="24" height="24" />
<rect x="0" y="238" width="1" height="24" />
<rect x="0" y="219" width="24" height="24" />
<rect x="0" y="219" width="1" height="24" />
<rect x="0" y="200" width="24" height="24" />
<rect x="0" y="200" width="1" height="24" />
<rect x="0" y="181" width="1" height="24" />
<rect x="0" y="162" width="1" height="24" />
<rect x="0" y="143" width="1" height="24" />
<rect x="0" y="67" width="1" height="24" />
<rect x="0" y="48" width="16" height="24" />
<rect x="5" y="29" width="29" height="24" />
<rect x="29" y="18" width="29" height="24" />
<rect x="19" y="219" width="29" height="24" />
</g>
<g class="spawningMap-rare">
<rect x="285" y="34" width="15" height="14" />
<rect x="115" y="179" width="15" height="14" />
<rect x="115" y="49" width="15" height="14" />
<rect x="134" y="15" width="14" height="13" />
<rect x="134" y="6" width="14" height="14" />
<rect x="125" y="179" width="14" height="14" />
<rect x="228" y="195" width="15" height="14" />
<rect x="247" y="195" width="15" height="14" />
<rect x="238" y="195" width="14" height="14" />
<rect x="256" y="195" width="15" height="14" />
<rect x="154" y="195" width="14" height="14" />
<rect x="173" y="195" width="14" height="14" />
<rect x="163" y="195" width="15" height="14" />
<rect x="191" y="195" width="15" height="14" />
<rect x="182" y="195" width="14" height="14" />
<rect x="98" y="195" width="15" height="14" />
<rect x="117" y="195" width="14" height="14" />
<rect x="107" y="195" width="15" height="14" />
<rect x="256" y="227" width="15" height="13" />
<rect x="228" y="235" width="15" height="14" />
<rect x="245" y="252" width="15" height="14" />
<rect x="236" y="252" width="14" height="14" />
<rect x="72" y="13" width="15" height="13" />
<rect x="275" y="218" width="15" height="14" />
<rect x="275" y="48" width="15" height="13" />
<rect x="275" y="34" width="15" height="14" />
<rect x="285" y="57" width="15" height="14" />
<rect x="285" y="48" width="15" height="13" />
<rect x="209" y="6" width="14" height="14" />
<rect x="199" y="58" width="15" height="14" />
<rect x="199" y="6" width="15" height="14" />
<rect x="227" y="32" width="15" height="14" />
<rect x="227" y="23" width="15" height="14" />
<rect x="227" y="15" width="15" height="13" />
<rect x="227" y="6" width="15" height="14" />
<rect x="218" y="32" width="14" height="14" />
<rect x="218" y="15" width="14" height="13" />
<rect x="218" y="6" width="14" height="14" />
<rect x="246" y="58" width="14" height="14" />
<rect x="246" y="49" width="14" height="14" />
<rect x="246" y="41" width="14" height="13" />
<rect x="246" y="32" width="14" height="14" />
<rect x="246" y="23" width="14" height="14" />
<rect x="246" y="15" width="14" height="13" />
<rect x="246" y="6" width="14" height="14" />
<rect x="237" y="32" width="14" height="14" />
<rect x="237" y="23" width="14" height="14" />
<rect x="237" y="15" width="14" height="13" />
<rect x="237" y="6" width="14" height="14" />
<rect x="190" y="58" width="14" height="14" />
<rect x="162" y="6" width="14" height="14" />
<rect x="190" y="6" width="14" height="14" />
<rect x="181" y="6" width="14" height="14" />
<rect x="89" y="195" width="14" height="14" />
<rect x="266" y="209" width="14" height="13" />
<rect x="71" y="195" width="14" height="14" />
<rect x="72" y="206" width="14" height="14" />
<rect x="209" y="179" width="14" height="14" />
<rect x="227" y="179" width="15" height="14" />
<rect x="218" y="179" width="14" height="14" />
<rect x="246" y="179" width="14" height="14" />
<rect x="237" y="179" width="14" height="14" />
<rect x="71" y="217" width="15" height="14" />
<rect x="71" y="27" width="15" height="14" />
<rect x="210" y="218" width="14" height="14" />
<rect x="201" y="218" width="14" height="14" />
<rect x="154" y="218" width="14" height="14" />
<rect x="145" y="218" width="14" height="14" />
<rect x="173" y="218" width="14" height="14" />
<rect x="163" y="218" width="15" height="14" />
<rect x="191" y="218" width="15" height="14" />
<rect x="182" y="218" width="14" height="14" />
<rect x="135" y="218" width="15" height="14" />
<rect x="126" y="218" width="15" height="14" />
<rect x="98" y="218" width="15" height="14" />
<rect x="89" y="218" width="14" height="14" />
<rect x="117" y="218" width="14" height="14" />
<rect x="107" y="218" width="15" height="14" />
<rect x="228" y="209" width="15" height="13" />
<rect x="247" y="209" width="15" height="13" />
<rect x="238" y="209" width="14" height="13" />
<rect x="256" y="209" width="15" height="13" />
<rect x="210" y="209" width="14" height="13" />
<rect x="201" y="209" width="14" height="13" />
<rect x="154" y="209" width="14" height="13" />
<rect x="173" y="209" width="14" height="13" />
<rect x="163" y="209" width="15" height="13" />
<rect x="191" y="209" width="15" height="13" />
<rect x="182" y="209" width="14" height="13" />
<rect x="266" y="195" width="14" height="14" />
<rect x="89" y="209" width="14" height="13" />
<rect x="117" y="209" width="14" height="13" />
<rect x="107" y="209" width="15" height="13" />
<rect x="228" y="218" width="15" height="14" />
<rect x="219" y="218" width="15" height="14" />
<rect x="247" y="218" width="15" height="14" />
<rect x="238" y="218" width="14" height="14" />
<rect x="256" y="218" width="15" height="14" />
<rect x="228" y="227" width="15" height="13" />
<rect x="219" y="227" width="15" height="13" />
<rect x="247" y="227" width="15" height="13" />
<rect x="238" y="227" width="14" height="13" />
<rect x="247" y="235" width="15" height="14" />
<rect x="238" y="235" width="14" height="14" />
<rect x="245" y="244" width="15" height="14" />
<rect x="236" y="244" width="14" height="14" />
<rect x="153" y="6" width="14" height="14" />
<rect x="275" y="218" width="15" height="14" />
<rect x="275" y="209" width="15" height="13" />
<rect x="275" y="195" width="15" height="14" />
<rect x="285" y="218" width="15" height="14" />
<rect x="285" y="209" width="15" height="13" />
<rect x="285" y="195" width="15" height="14" />
<rect x="275" y="218" width="15" height="14" />
<rect x="275" y="177" width="15" height="13" />
<rect x="275" y="163" width="15" height="14" />
<rect x="285" y="186" width="15" height="14" />
<rect x="285" y="177" width="15" height="13" />
<rect x="285" y="163" width="15" height="14" />
<rect x="275" y="218" width="15" height="14" />
<rect x="275" y="145" width="15" height="13" />
<rect x="275" y="131" width="15" height="14" />
<rect x="285" y="154" width="15" height="14" />
<rect x="285" y="145" width="15" height="13" />
<rect x="285" y="131" width="15" height="14" />
<rect x="275" y="218" width="15" height="14" />
<rect x="275" y="113" width="15" height="13" />
<rect x="275" y="99" width="15" height="14" />
<rect x="285" y="122" width="15" height="14" />
<rect x="285" y="113" width="15" height="13" />
<rect x="285" y="99" width="15" height="14" />
<rect x="275" y="218" width="15" height="14" />
<rect x="275" y="80" width="15" height="14" />
<rect x="275" y="66" width="15" height="14" />
<rect x="285" y="89" width="15" height="14" />
<rect x="285" y="80" width="15" height="14" />
<rect x="285" y="66" width="15" height="14" />
<rect x="266" y="218" width="14" height="14" />
<rect x="143" y="6" width="15" height="14" />
<rect x="171" y="6" width="15" height="14" />
<rect x="98" y="209" width="15" height="13" />
<rect x="92" y="6" width="35" height="29" />
<rect x="210" y="6" width="36" height="29" />
<rect x="181" y="6" width="36" height="29" />
<rect x="152" y="6" width="35" height="29" />
<rect x="121" y="6" width="35" height="29" />
</g>
<g class="spawningMap-very-uncommon">
<rect x="97" y="179" width="14" height="14" />
<rect x="97" y="41" width="14" height="13" />
<rect x="97" y="32" width="14" height="14" />
<rect x="97" y="23" width="14" height="14" />
<rect x="97" y="15" width="14" height="13" />
<rect x="97" y="6" width="14" height="14" />
<rect x="87" y="32" width="15" height="14" />
<rect x="87" y="23" width="15" height="14" />
<rect x="87" y="15" width="15" height="13" />
<rect x="87" y="6" width="15" height="14" />
<rect x="115" y="153" width="15" height="14" />
<rect x="115" y="162" width="15" height="14" />
<rect x="115" y="171" width="15" height="13" />
<rect x="115" y="67" width="15" height="13" />
<rect x="115" y="58" width="15" height="14" />
<rect x="115" y="41" width="15" height="13" />
<rect x="115" y="32" width="15" height="14" />
<rect x="115" y="23" width="15" height="14" />
<rect x="115" y="15" width="15" height="13" />
<rect x="115" y="6" width="15" height="14" />
<rect x="106" y="179" width="14" height="14" />
<rect x="106" y="58" width="14" height="14" />
<rect x="106" y="49" width="14" height="14" />
<rect x="106" y="41" width="14" height="13" />
<rect x="106" y="32" width="14" height="14" />
<rect x="106" y="23" width="14" height="14" />
<rect x="106" y="15" width="14" height="13" />
<rect x="106" y="6" width="14" height="14" />
<rect x="134" y="58" width="14" height="14" />
<rect x="125" y="58" width="14" height="14" />
<rect x="125" y="41" width="14" height="13" />
<rect x="125" y="32" width="14" height="14" />
<rect x="125" y="23" width="14" height="14" />
<rect x="125" y="15" width="14" height="13" />
<rect x="125" y="6" width="14" height="14" />
<rect x="117" y="167" width="15" height="14" />
<rect x="235" y="87" width="14" height="11" />
<rect x="65" y="130" width="14" height="14" />
<rect x="65" y="122" width="14" height="13" />
<rect x="65" y="113" width="14" height="14" />
<rect x="65" y="104" width="14" height="14" />
<rect x="65" y="96" width="14" height="14" />
<rect x="219" y="195" width="15" height="14" />
<rect x="210" y="195" width="14" height="14" />
<rect x="201" y="195" width="14" height="14" />
<rect x="145" y="195" width="14" height="14" />
<rect x="135" y="195" width="15" height="14" />
<rect x="126" y="195" width="15" height="14" />
<rect x="219" y="235" width="15" height="14" />
<rect x="209" y="136" width="14" height="14" />
<rect x="209" y="145" width="14" height="13" />
<rect x="209" y="153" width="14" height="14" />
<rect x="209" y="162" width="14" height="14" />
<rect x="209" y="75" width="14" height="14" />
<rect x="209" y="67" width="14" height="13" />
<rect x="246" y="110" width="14" height="14" />
<rect x="199" y="67" width="15" height="13" />
<rect x="227" y="119" width="15" height="13" />
<rect x="227" y="110" width="15" height="14" />
<rect x="227" y="67" width="15" height="13" />
<rect x="218" y="110" width="14" height="14" />
<rect x="218" y="101" width="14" height="14" />
<rect x="218" y="162" width="14" height="14" />
<rect x="218" y="67" width="14" height="13" />
<rect x="246" y="127" width="14" height="14" />
<rect x="246" y="119" width="14" height="13" />
<rect x="225" y="87" width="15" height="11" />
<rect x="246" y="101" width="14" height="14" />
<rect x="246" y="145" width="14" height="13" />
<rect x="246" y="162" width="14" height="14" />
<rect x="246" y="171" width="14" height="13" />
<rect x="246" y="67" width="14" height="13" />
<rect x="237" y="119" width="14" height="13" />
<rect x="237" y="110" width="14" height="14" />
<rect x="237" y="171" width="14" height="13" />
<rect x="237" y="67" width="14" height="13" />
<rect x="237" y="58" width="14" height="14" />
<rect x="206" y="90" width="15" height="13" />
<rect x="208" y="81" width="14" height="14" />
<rect x="189" y="172" width="14" height="14" />
<rect x="179" y="173" width="15" height="14" />
<rect x="169" y="181" width="14" height="13" />
<rect x="155" y="181" width="14" height="14" />
<rect x="143" y="177" width="14" height="14" />
<rect x="136" y="168" width="15" height="14" />
<rect x="125" y="171" width="15" height="14" />
<rect x="115" y="156" width="15" height="13" />
<rect x="134" y="179" width="14" height="14" />
<rect x="102" y="130" width="14" height="14" />
<rect x="102" y="113" width="14" height="14" />
<rect x="102" y="104" width="14" height="14" />
<rect x="102" y="96" width="14" height="14" />
<rect x="93" y="130" width="14" height="14" />
<rect x="93" y="122" width="14" height="13" />
<rect x="93" y="113" width="14" height="14" />
<rect x="93" y="104" width="14" height="14" />
<rect x="93" y="96" width="14" height="14" />
<rect x="83" y="130" width="15" height="14" />
<rect x="83" y="122" width="15" height="13" />
<rect x="83" y="113" width="15" height="14" />
<rect x="83" y="104" width="15" height="14" />
<rect x="83" y="96" width="15" height="14" />
<rect x="74" y="130" width="15" height="14" />
<rect x="74" y="122" width="15" height="13" />
<rect x="74" y="113" width="15" height="14" />
<rect x="74" y="104" width="15" height="14" />
<rect x="74" y="96" width="15" height="14" />
<rect x="102" y="122" width="14" height="13" />
<rect x="199" y="179" width="15" height="14" />
<rect x="190" y="179" width="14" height="14" />
<rect x="181" y="179" width="14" height="14" />
<rect x="219" y="209" width="15" height="13" />
<rect x="145" y="209" width="14" height="13" />
<rect x="135" y="209" width="15" height="13" />
<rect x="126" y="209" width="15" height="13" />
<rect x="218" y="119" width="14" height="13" />
</g>
</g>
</svg>