<?xml version="1.0" encoding="utf-8"?>
<svg xmlns="http://www.w3.org/2000/svg" width="300" height="300"
        viewBox="0 0 300 300" class="creatureMap" style="position:absolute;">
    <defs>
        <filter id="blur" x="-30%" y="-30%" width="160%" height="160%">
            <feGaussianBlur stdDeviation="3" />
        </filter>
        <pattern id="pattern-untameable" width="10" height="10" patternTransform="rotate(135)" patternUnits="userSpaceOnUse">
            <rect width="4" height="10" fill="black"></rect>
        </pattern>
        <filter id="groupStroke">
            <feFlood result="outsideColor" flood-color="black"/>
            <feMorphology in="SourceAlpha" operator="dilate" radius="2"/>
            <feComposite result="strokeoutline1" in="outsideColor" operator="in"/>
            <feComposite result="strokeoutline2" in="strokeoutline1" in2="SourceAlpha" operator="out"/>
            <feGaussianBlur in="strokeoutline2" result="strokeblur" stdDeviation="1"/>
        </filter>
        <style>
            .spawningMap-very-common { fill: #0F0; }
            .spawningMap-common { fill: #B2FF00; }
            .spawningMap-uncommon { fill: #FF0; }
            .spawningMap-very-uncommon { fill: #FC0; }
            .spawningMap-rare { fill: #F60; }
            .spawningMap-very-rare { fill: #F00; }
            .spawning-map-point { stroke:black; stroke-width:1; }
        </style>
    </defs>

<g filter="url(#blur)" opacity="0.7">
<g class="spawningMap-very-uncommon">
<rect x="254" y="65" width="27" height="16" />
</g>
<g class="spawningMap-uncommon">
<rect x="275" y="68" width="9" height="10" />
<rect x="261" y="59" width="9" height="9" />
<rect x="263" y="44" width="9" height="10" />
<rect x="259" y="41" width="18" height="18" />
<rect x="245" y="54" width="19" height="18" />
<rect x="260" y="41" width="9" height="9" />
<rect x="249" y="62" width="9" height="9" />
<rect x="257" y="28" width="9" height="9" />
<rect x="269" y="72" width="9" height="9" />
<rect x="245" y="41" width="19" height="18" />
<rect x="259" y="54" width="18" height="18" />
<rect x="247" y="41" width="12" height="13" />
<rect x="253" y="58" width="10" height="9" />
</g>
<g class="spawningMap-common">
<rect x="262" y="47" width="13" height="12" />
<rect x="262" y="67" width="13" height="13" />
<rect x="247" y="67" width="12" height="13" />
<rect x="254" y="67" width="13" height="13" />
</g>
</g>
<g fill="url(#pattern-untameable)" opacity="0.3">
<rect x="261" y="59" width="9" height="9"/>
<rect x="263" y="44" width="9" height="10"/>
<rect x="260" y="41" width="9" height="9"/>
<rect x="249" y="62" width="9" height="9"/>
<rect x="257" y="28" width="9" height="9"/>
<rect x="269" y="72" width="9" height="9"/>
<rect x="253" y="58" width="10" height="9"/>
</g>
<g filter="url(#groupStroke)" opacity="0.8">
<rect x="254" y="65" width="27" height="16"/>
<rect x="275" y="68" width="9" height="10"/>
<rect x="261" y="59" width="9" height="9"/>
<rect x="263" y="44" width="9" height="10"/>
<rect x="259" y="41" width="18" height="18"/>
<rect x="245" y="54" width="19" height="18"/>
<rect x="260" y="41" width="9" height="9"/>
<rect x="249" y="62" width="9" height="9"/>
<rect x="257" y="28" width="9" height="9"/>
<rect x="269" y="72" width="9" height="9"/>
<rect x="245" y="41" width="19" height="18"/>
<rect x="259" y="54" width="18" height="18"/>
<rect x="247" y="41" width="12" height="13"/>
<rect x="253" y="58" width="10" height="9"/>
<rect x="262" y="47" width="13" height="12"/>
<rect x="262" y="67" width="13" height="13"/>
<rect x="247" y="67" width="12" height="13"/>
<rect x="254" y="67" width="13" height="13"/>
</g>
</svg>