<?xml version="1.0" encoding="utf-8"?>
<svg xmlns="http://www.w3.org/2000/svg" width="300" height="300"
        viewBox="0 0 300 300" class="creatureMap" style="position:absolute;">
    <defs>
        <filter id="blur" x="-30%" y="-30%" width="160%" height="160%">
            <feGaussianBlur stdDeviation="3" />
        </filter>
        <pattern id="pattern-untameable" width="10" height="10" patternTransform="rotate(135)" patternUnits="userSpaceOnUse">
            <rect width="4" height="10" fill="black"></rect>
        </pattern>
        <filter id="groupStroke">
            <feFlood result="outsideColor" flood-color="black"/>
            <feMorphology in="SourceAlpha" operator="dilate" radius="2"/>
            <feComposite result="strokeoutline1" in="outsideColor" operator="in"/>
            <feComposite result="strokeoutline2" in="strokeoutline1" in2="SourceAlpha" operator="out"/>
            <feGaussianBlur in="strokeoutline2" result="strokeblur" stdDeviation="1"/>
        </filter>
        <style>
            .spawningMap-very-common { fill: #0F0; }
            .spawningMap-common { fill: #B2FF00; }
            .spawningMap-uncommon { fill: #FF0; }
            .spawningMap-very-uncommon { fill: #FC0; }
            .spawningMap-rare { fill: #F60; }
            .spawningMap-very-rare { fill: #F00; }
            .spawning-map-point { stroke:black; stroke-width:1; }
        </style>
    </defs>

<g filter="url(#blur)" opacity="0.7">
<g class="spawningMap-very-rare">
<rect x="2" y="1" width="19" height="19" />
<rect x="0" y="1" width="7" height="19" />
<rect x="68" y="1" width="19" height="19" />
<rect x="81" y="1" width="19" height="19" />
<rect x="95" y="1" width="13" height="19" />
<rect x="15" y="1" width="19" height="19" />
<rect x="29" y="14" width="18" height="19" />
<rect x="29" y="1" width="18" height="19" />
<rect x="259" y="155" width="18" height="16" />
<rect x="245" y="155" width="19" height="16" />
<rect x="232" y="155" width="19" height="16" />
<rect x="219" y="155" width="18" height="16" />
<rect x="206" y="155" width="18" height="16" />
<rect x="193" y="155" width="18" height="16" />
<rect x="259" y="166" width="18" height="18" />
<rect x="245" y="166" width="19" height="18" />
<rect x="232" y="166" width="19" height="18" />
<rect x="219" y="166" width="18" height="18" />
<rect x="206" y="166" width="18" height="18" />
<rect x="193" y="166" width="18" height="18" />
<rect x="285" y="205" width="15" height="19" />
<rect x="285" y="219" width="15" height="18" />
<rect x="272" y="219" width="18" height="18" />
<rect x="285" y="232" width="15" height="18" />
<rect x="272" y="232" width="18" height="18" />
<rect x="206" y="232" width="18" height="18" />
<rect x="193" y="232" width="18" height="18" />
<rect x="176" y="232" width="22" height="18" />
<rect x="285" y="245" width="15" height="19" />
<rect x="272" y="245" width="18" height="19" />
<rect x="232" y="245" width="19" height="19" />
<rect x="206" y="245" width="18" height="19" />
<rect x="193" y="245" width="18" height="19" />
<rect x="176" y="245" width="22" height="19" />
<rect x="285" y="258" width="15" height="19" />
<rect x="272" y="258" width="18" height="19" />
<rect x="245" y="258" width="19" height="19" />
<rect x="232" y="258" width="19" height="19" />
<rect x="206" y="258" width="18" height="19" />
<rect x="193" y="258" width="18" height="19" />
<rect x="176" y="258" width="22" height="19" />
<rect x="285" y="272" width="15" height="18" />
<rect x="206" y="272" width="18" height="18" />
<rect x="193" y="272" width="18" height="18" />
<rect x="176" y="272" width="22" height="18" />
<rect x="285" y="285" width="15" height="14" />
<rect x="272" y="285" width="18" height="14" />
<rect x="259" y="285" width="18" height="14" />
<rect x="219" y="285" width="18" height="14" />
<rect x="206" y="285" width="18" height="14" />
<rect x="193" y="285" width="18" height="14" />
<rect x="176" y="285" width="22" height="14" />
<rect x="285" y="155" width="15" height="16" />
<rect x="272" y="155" width="18" height="16" />
<rect x="285" y="166" width="15" height="18" />
<rect x="272" y="166" width="18" height="18" />
<rect x="176" y="166" width="22" height="18" />
<rect x="285" y="179" width="15" height="18" />
<rect x="272" y="179" width="18" height="18" />
<rect x="193" y="179" width="18" height="18" />
<rect x="176" y="179" width="22" height="18" />
<rect x="285" y="192" width="15" height="19" />
<rect x="272" y="192" width="18" height="19" />
<rect x="193" y="192" width="18" height="19" />
<rect x="176" y="192" width="22" height="19" />
<rect x="176" y="205" width="22" height="19" />
<rect x="176" y="219" width="22" height="18" />
<rect x="245" y="272" width="19" height="18" />
<rect x="232" y="272" width="19" height="18" />
<rect x="245" y="285" width="19" height="14" />
<rect x="232" y="285" width="19" height="14" />
<rect x="68" y="107" width="19" height="18" />
<rect x="42" y="1" width="18" height="19" />
<rect x="55" y="1" width="18" height="19" />
<rect x="206" y="179" width="18" height="18" />
</g>
<g class="spawningMap-rare">
<rect x="95" y="160" width="13" height="15" />
<rect x="95" y="94" width="13" height="18" />
<rect x="82" y="94" width="18" height="18" />
<rect x="95" y="80" width="13" height="19" />
<rect x="82" y="80" width="18" height="19" />
<rect x="95" y="67" width="13" height="19" />
<rect x="82" y="67" width="18" height="19" />
<rect x="68" y="94" width="19" height="18" />
<rect x="68" y="80" width="19" height="19" />
<rect x="68" y="67" width="19" height="19" />
<rect x="2" y="160" width="19" height="15" />
<rect x="0" y="160" width="7" height="15" />
<rect x="2" y="94" width="19" height="18" />
<rect x="0" y="94" width="7" height="18" />
<rect x="2" y="80" width="19" height="19" />
<rect x="0" y="80" width="7" height="19" />
<rect x="2" y="67" width="19" height="19" />
<rect x="0" y="67" width="7" height="19" />
<rect x="2" y="54" width="19" height="18" />
<rect x="0" y="54" width="7" height="18" />
<rect x="2" y="41" width="19" height="18" />
<rect x="0" y="41" width="7" height="18" />
<rect x="2" y="28" width="19" height="18" />
<rect x="0" y="28" width="7" height="18" />
<rect x="2" y="14" width="19" height="19" />
<rect x="0" y="14" width="7" height="19" />
<rect x="68" y="54" width="19" height="18" />
<rect x="68" y="41" width="19" height="18" />
<rect x="68" y="28" width="19" height="18" />
<rect x="68" y="14" width="19" height="19" />
<rect x="81" y="54" width="19" height="18" />
<rect x="81" y="41" width="19" height="18" />
<rect x="81" y="28" width="19" height="18" />
<rect x="81" y="14" width="19" height="19" />
<rect x="95" y="54" width="13" height="18" />
<rect x="95" y="41" width="13" height="18" />
<rect x="95" y="28" width="13" height="18" />
<rect x="95" y="14" width="13" height="19" />
<rect x="29" y="160" width="18" height="15" />
<rect x="15" y="160" width="19" height="15" />
<rect x="95" y="147" width="13" height="18" />
<rect x="68" y="147" width="19" height="18" />
<rect x="95" y="133" width="13" height="19" />
<rect x="82" y="133" width="18" height="19" />
<rect x="68" y="133" width="19" height="19" />
<rect x="2" y="120" width="19" height="19" />
<rect x="0" y="120" width="7" height="19" />
<rect x="2" y="107" width="19" height="18" />
<rect x="0" y="107" width="7" height="18" />
<rect x="29" y="94" width="18" height="18" />
<rect x="29" y="80" width="18" height="19" />
<rect x="29" y="67" width="18" height="19" />
<rect x="29" y="120" width="18" height="19" />
<rect x="15" y="120" width="19" height="19" />
<rect x="29" y="107" width="18" height="18" />
<rect x="15" y="107" width="19" height="18" />
<rect x="15" y="94" width="19" height="18" />
<rect x="15" y="80" width="19" height="19" />
<rect x="15" y="67" width="19" height="19" />
<rect x="15" y="54" width="19" height="18" />
<rect x="15" y="41" width="19" height="18" />
<rect x="15" y="28" width="19" height="18" />
<rect x="15" y="14" width="19" height="19" />
<rect x="29" y="54" width="18" height="18" />
<rect x="29" y="41" width="18" height="18" />
<rect x="29" y="28" width="18" height="18" />
<rect x="29" y="147" width="18" height="18" />
<rect x="15" y="147" width="19" height="18" />
<rect x="29" y="133" width="18" height="19" />
<rect x="15" y="133" width="19" height="19" />
<rect x="82" y="160" width="18" height="15" />
<rect x="68" y="160" width="19" height="15" />
<rect x="55" y="160" width="19" height="15" />
<rect x="42" y="160" width="18" height="15" />
<rect x="95" y="120" width="13" height="19" />
<rect x="82" y="120" width="18" height="19" />
<rect x="68" y="120" width="19" height="19" />
<rect x="95" y="107" width="13" height="18" />
<rect x="82" y="107" width="18" height="18" />
<rect x="2" y="147" width="19" height="18" />
<rect x="0" y="147" width="7" height="18" />
<rect x="2" y="133" width="19" height="19" />
<rect x="0" y="133" width="7" height="19" />
<rect x="55" y="94" width="18" height="18" />
<rect x="55" y="80" width="18" height="19" />
<rect x="55" y="67" width="18" height="19" />
<rect x="55" y="120" width="19" height="19" />
<rect x="42" y="120" width="18" height="19" />
<rect x="55" y="107" width="19" height="18" />
<rect x="42" y="107" width="18" height="18" />
<rect x="42" y="94" width="18" height="18" />
<rect x="42" y="80" width="18" height="19" />
<rect x="42" y="67" width="18" height="19" />
<rect x="42" y="54" width="18" height="18" />
<rect x="42" y="41" width="18" height="18" />
<rect x="42" y="28" width="18" height="18" />
<rect x="42" y="14" width="18" height="19" />
<rect x="55" y="41" width="18" height="18" />
<rect x="55" y="28" width="18" height="18" />
<rect x="55" y="14" width="18" height="19" />
<rect x="55" y="147" width="19" height="18" />
<rect x="42" y="147" width="18" height="18" />
<rect x="55" y="133" width="19" height="19" />
<rect x="42" y="133" width="18" height="19" />
<rect x="55" y="54" width="18" height="18" />
<rect x="82" y="147" width="18" height="18" />
</g>
</g>
</svg>