<?xml version="1.0" encoding="utf-8"?>
<svg xmlns="http://www.w3.org/2000/svg" width="300" height="300"
        viewBox="0 0 300 300" class="creatureMap" style="position:absolute;">
    <defs>
        <filter id="blur" x="-30%" y="-30%" width="160%" height="160%">
            <feGaussianBlur stdDeviation="3" />
        </filter>
        <pattern id="pattern-untameable" width="10" height="10" patternTransform="rotate(135)" patternUnits="userSpaceOnUse">
            <rect width="4" height="10" fill="black"></rect>
        </pattern>
        <filter id="groupStroke">
            <feFlood result="outsideColor" flood-color="black"/>
            <feMorphology in="SourceAlpha" operator="dilate" radius="2"/>
            <feComposite result="strokeoutline1" in="outsideColor" operator="in"/>
            <feComposite result="strokeoutline2" in="strokeoutline1" in2="SourceAlpha" operator="out"/>
            <feGaussianBlur in="strokeoutline2" result="strokeblur" stdDeviation="1"/>
        </filter>
        <style>
            .spawningMap-very-common { fill: #0F0; }
            .spawningMap-common { fill: #B2FF00; }
            .spawningMap-uncommon { fill: #FF0; }
            .spawningMap-very-uncommon { fill: #FC0; }
            .spawningMap-rare { fill: #F60; }
            .spawningMap-very-rare { fill: #F00; }
            .spawning-map-point { stroke:black; stroke-width:1; }
        </style>
    </defs>

<g filter="url(#blur)" opacity="0.7">
<g class="spawningMap-very-rare">
<rect x="176" y="80" width="15" height="19" />
<rect x="176" y="67" width="19" height="19" />
<rect x="163" y="94" width="19" height="18" />
<rect x="150" y="94" width="18" height="11" />
<rect x="163" y="80" width="19" height="19" />
<rect x="150" y="80" width="18" height="19" />
<rect x="163" y="67" width="19" height="19" />
<rect x="150" y="67" width="18" height="19" />
<rect x="123" y="107" width="19" height="18" />
<rect x="123" y="94" width="19" height="18" />
<rect x="141" y="94" width="14" height="14" />
<rect x="129" y="86" width="13" height="13" />
<rect x="137" y="80" width="18" height="19" />
<rect x="130" y="67" width="12" height="19" />
<rect x="137" y="67" width="18" height="19" />
<rect x="129" y="54" width="13" height="18" />
<rect x="137" y="54" width="18" height="18" />
<rect x="132" y="41" width="10" height="18" />
<rect x="137" y="41" width="18" height="18" />
<rect x="134" y="28" width="8" height="18" />
<rect x="137" y="28" width="18" height="18" />
<rect x="130" y="14" width="12" height="19" />
<rect x="137" y="14" width="18" height="19" />
<rect x="150" y="54" width="18" height="18" />
<rect x="150" y="41" width="18" height="18" />
<rect x="150" y="28" width="18" height="18" />
<rect x="150" y="14" width="18" height="19" />
<rect x="163" y="54" width="19" height="18" />
<rect x="163" y="41" width="19" height="18" />
<rect x="163" y="28" width="19" height="18" />
<rect x="163" y="14" width="19" height="19" />
<rect x="177" y="54" width="10" height="18" />
<rect x="176" y="49" width="11" height="10" />
<rect x="176" y="27" width="15" height="15" />
<rect x="176" y="14" width="19" height="19" />
<rect x="178" y="80" width="12" height="19" />
<rect x="190" y="72" width="8" height="14" />
<rect x="176" y="67" width="19" height="19" />
<rect x="163" y="94" width="19" height="13" />
<rect x="163" y="80" width="19" height="19" />
<rect x="150" y="80" width="18" height="19" />
<rect x="163" y="67" width="19" height="19" />
<rect x="150" y="67" width="18" height="19" />
<rect x="151" y="63" width="30" height="14" />
<rect x="124" y="107" width="24" height="18" />
<rect x="123" y="94" width="19" height="18" />
<rect x="137" y="94" width="18" height="18" />
<rect x="123" y="80" width="19" height="19" />
<rect x="137" y="80" width="18" height="19" />
<rect x="123" y="67" width="19" height="19" />
<rect x="137" y="67" width="18" height="19" />
<rect x="137" y="54" width="18" height="18" />
<rect x="137" y="41" width="18" height="18" />
<rect x="137" y="28" width="18" height="18" />
<rect x="137" y="14" width="18" height="19" />
<rect x="150" y="54" width="18" height="18" />
<rect x="150" y="41" width="18" height="18" />
<rect x="150" y="28" width="18" height="18" />
<rect x="150" y="14" width="18" height="19" />
<rect x="163" y="54" width="19" height="18" />
<rect x="163" y="41" width="19" height="18" />
<rect x="176" y="54" width="19" height="18" />
<rect x="151" y="103" width="13" height="25" />
<rect x="138" y="99" width="17" height="31" />
<rect x="125" y="73" width="27" height="31" />
<rect x="151" y="73" width="13" height="31" />
</g>
</g>
</svg>