<?xml version="1.0" encoding="utf-8"?>
<svg xmlns="http://www.w3.org/2000/svg" width="300" height="300" viewBox="0 0 300 300" class="creatureMap" style="position:absolute;">
    <defs>
        <filter id="blur" x="-30%" y="-30%" width="160%" height="160%">
            <feGaussianBlur stdDeviation="3" />
        </filter>
        <pattern id="pattern-untameable" width="10" height="10" patternTransform="rotate(135)" patternUnits="userSpaceOnUse">'
            <rect width="4" height="10" fill="black"></rect>
        </pattern>
        <filter id="groupStroke">
            <feFlood result="outsideColor" flood-color="black"/>
            <feMorphology in="SourceAlpha" operator="dilate" radius="2"/>
            <feComposite result="strokeoutline1" in="outsideColor" operator="in"/>
            <feComposite result="strokeoutline2" in="strokeoutline1" in2="SourceAlpha" operator="out"/>
            <feGaussianBlur in="strokeoutline2" result="strokeblur" stdDeviation="1"/>
        </filter>
        <style>
            .spawningMap-very-common { fill: #0F0; }
            .spawningMap-common { fill: #B2FF00; }
            .spawningMap-uncommon { fill: #FF0; }
            .spawningMap-very-uncommon { fill: #FC0; }
            .spawningMap-rare { fill: #F60; }
            .spawningMap-very-rare { fill: #F00; }
            .spawning-map-point { stroke:black; stroke-width:1; }
        </style>
    </defs>

<g filter="url(#blur)" opacity="0.7">
<g class="spawningMap-rare">
<rect x="194" y="26" width="35" height="47" />
</g>
<g class="spawningMap-very-uncommon">
<rect x="289" y="28" width="11" height="19" />
<rect x="265" y="10" width="19" height="15" />
<rect x="249" y="12" width="15" height="15" />
<rect x="254" y="18" width="15" height="15" />
<rect x="224" y="22" width="25" height="24" />
<rect x="240" y="39" width="26" height="37" />
</g>
<g class="spawningMap-uncommon">
<rect x="263" y="18" width="14" height="15" />
<rect x="278" y="14" width="14" height="12" />
</g>
<g class="spawningMap-common">
<rect x="289" y="24" width="11" height="10" />
<rect x="283" y="20" width="12" height="11" />
<rect x="258" y="10" width="13" height="9" />
</g>
</g>
<g fill="url(#pattern-untameable)" opacity="0.3">
<rect x="289" y="28" width="11" height="19"/>
<rect x="265" y="10" width="19" height="15"/>
<rect x="249" y="12" width="15" height="15"/>
<rect x="254" y="18" width="15" height="15"/>
<rect x="263" y="18" width="14" height="15"/>
<rect x="278" y="14" width="14" height="12"/>
<rect x="289" y="24" width="11" height="10"/>
<rect x="283" y="20" width="12" height="11"/>
<rect x="258" y="10" width="13" height="9"/>
</g>
</svg>