<?xml version="1.0" encoding="utf-8"?>
<svg xmlns="http://www.w3.org/2000/svg" width="300" height="300"
        viewBox="0 0 300 300" class="creatureMap" style="position:absolute;">
    <defs>
        <filter id="blur" x="-30%" y="-30%" width="160%" height="160%">
            <feGaussianBlur stdDeviation="3" />
        </filter>
        <pattern id="pattern-untameable" width="10" height="10" patternTransform="rotate(135)" patternUnits="userSpaceOnUse">
            <rect width="4" height="10" fill="black"></rect>
        </pattern>
        <filter id="groupStroke">
            <feFlood result="outsideColor" flood-color="black"/>
            <feMorphology in="SourceAlpha" operator="dilate" radius="2"/>
            <feComposite result="strokeoutline1" in="outsideColor" operator="in"/>
            <feComposite result="strokeoutline2" in="strokeoutline1" in2="SourceAlpha" operator="out"/>
            <feGaussianBlur in="strokeoutline2" result="strokeblur" stdDeviation="1"/>
        </filter>
        <style>
            .spawningMap-very-common { fill: #0F0; }
            .spawningMap-common { fill: #B2FF00; }
            .spawningMap-uncommon { fill: #FF0; }
            .spawningMap-very-uncommon { fill: #FC0; }
            .spawningMap-rare { fill: #F60; }
            .spawningMap-very-rare { fill: #F00; }
            .spawning-map-point { stroke:black; stroke-width:1; }
        </style>
    </defs>

<g class="spawning-map-point" opacity="0.8">
<g class="spawningMap-rare">
<circle cx="140" cy="146" r="4" />
<circle cx="140" cy="149" r="4" />
<circle cx="124" cy="140" r="4" />
<circle cx="119" cy="134" r="4" />
<circle cx="119" cy="130" r="4" />
<circle cx="136" cy="129" r="4" />
<circle cx="97" cy="136" r="4" />
<circle cx="104" cy="141" r="4" />
<circle cx="108" cy="143" r="4" />
<circle cx="105" cy="141" r="4" />
<circle cx="107" cy="143" r="4" />
<circle cx="25" cy="68" r="4" />
<circle cx="29" cy="72" r="4" />
<circle cx="57" cy="72" r="4" />
<circle cx="62" cy="84" r="4" />
<circle cx="66" cy="73" r="4" />
<circle cx="79" cy="79" r="4" />
<circle cx="56" cy="64" r="4" />
<circle cx="78" cy="51" r="4" />
<circle cx="53" cy="38" r="4" />
<circle cx="49" cy="22" r="4" />
<circle cx="53" cy="53" r="4" />
<circle cx="47" cy="59" r="4" />
<circle cx="53" cy="65" r="4" />
<circle cx="53" cy="75" r="4" />
<circle cx="51" cy="89" r="4" />
<circle cx="52" cy="95" r="4" />
<circle cx="48" cy="98" r="4" />
<circle cx="43" cy="99" r="4" />
<circle cx="37" cy="99" r="4" />
<circle cx="28" cy="97" r="4" />
<circle cx="79" cy="2" r="4" />
<circle cx="16" cy="69" r="4" />
<circle cx="14" cy="23" r="4" />
<circle cx="9" cy="22" r="4" />
<circle cx="0" cy="26" r="4" />
<circle cx="0" cy="67" r="4" />
<circle cx="9" cy="84" r="4" />
<circle cx="9" cy="84" r="4" />
<circle cx="7" cy="71" r="4" />
<circle cx="10" cy="78" r="4" />
<circle cx="18" cy="94" r="4" />
<circle cx="12" cy="83" r="4" />
<circle cx="17" cy="79" r="4" />
</g>
<g class="spawningMap-very-uncommon">
<circle cx="227" cy="151" r="4" />
<circle cx="229" cy="150" r="4" />
<circle cx="215" cy="151" r="4" />
<circle cx="213" cy="148" r="4" />
<circle cx="217" cy="148" r="4" />
<circle cx="226" cy="149" r="4" />
<circle cx="213" cy="149" r="4" />
<circle cx="213" cy="150" r="4" />
<circle cx="216" cy="149" r="4" />
<circle cx="178" cy="176" r="4" />
<circle cx="175" cy="173" r="4" />
<circle cx="174" cy="174" r="4" />
<circle cx="163" cy="179" r="4" />
<circle cx="165" cy="177" r="4" />
<circle cx="168" cy="165" r="4" />
<circle cx="166" cy="161" r="4" />
<circle cx="161" cy="170" r="4" />
<circle cx="154" cy="168" r="4" />
<circle cx="154" cy="178" r="4" />
<circle cx="151" cy="170" r="4" />
<circle cx="153" cy="167" r="4" />
</g>
</g>
</svg>