<?xml version="1.0" encoding="utf-8"?>
<svg xmlns="http://www.w3.org/2000/svg" width="300" height="300" viewBox="0 0 300 300" class="creatureMap" style="position:absolute;">
    <defs>
        <filter id="blur" x="-30%" y="-30%" width="160%" height="160%">
            <feGaussianBlur stdDeviation="3" />
        </filter>
        <pattern id="pattern-untameable" width="10" height="10" patternTransform="rotate(135)" patternUnits="userSpaceOnUse">'
            <rect width="4" height="10" fill="black"></rect>
        </pattern>
        <filter id="groupStroke">
            <feFlood result="outsideColor" flood-color="black"/>
            <feMorphology in="SourceAlpha" operator="dilate" radius="2"/>
            <feComposite result="strokeoutline1" in="outsideColor" operator="in"/>
            <feComposite result="strokeoutline2" in="strokeoutline1" in2="SourceAlpha" operator="out"/>
            <feGaussianBlur in="strokeoutline2" result="strokeblur" stdDeviation="1"/>
        </filter>
        <style>
            .spawningMap-very-common { fill: #0F0; }
            .spawningMap-common { fill: #B2FF00; }
            .spawningMap-uncommon { fill: #FF0; }
            .spawningMap-very-uncommon { fill: #FC0; }
            .spawningMap-rare { fill: #F60; }
            .spawningMap-very-rare { fill: #F00; }
            .spawning-map-point { stroke:black; stroke-width:1; }
        </style>
    </defs>

<g filter="url(#blur)" opacity="0.7">
<g class="spawningMap-uncommon">
<rect x="258" y="0" width="27" height="18" />
<rect x="121" y="1" width="11" height="19" />
</g>
<g class="spawningMap-common">
<rect x="243" y="45" width="17" height="16" />
<rect x="243" y="35" width="17" height="16" />
<rect x="254" y="45" width="16" height="16" />
<rect x="264" y="45" width="16" height="16" />
<rect x="140" y="17" width="16" height="17" />
<rect x="274" y="45" width="17" height="16" />
<rect x="274" y="45" width="17" height="16" />
<rect x="274" y="45" width="17" height="16" />
<rect x="256" y="13" width="16" height="20" />
<rect x="127" y="0" width="22" height="7" />
<rect x="131" y="13" width="10" height="11" />
<rect x="129" y="17" width="9" height="8" />
<rect x="129" y="12" width="7" height="7" />
<rect x="133" y="12" width="11" height="7" />
<rect x="138" y="13" width="16" height="10" />
<rect x="134" y="3" width="16" height="12" />
</g>
<g class="spawningMap-very-common">
<rect x="189" y="42" width="12" height="10" />
<rect x="194" y="37" width="8" height="10" />
<rect x="196" y="32" width="9" height="11" />
<rect x="199" y="33" width="11" height="9" />
<rect x="201" y="36" width="10" height="18" />
<rect x="205" y="43" width="12" height="13" />
<rect x="211" y="45" width="11" height="9" />
<rect x="216" y="42" width="14" height="12" />
<rect x="225" y="41" width="12" height="13" />
<rect x="231" y="39" width="12" height="10" />
<rect x="237" y="39" width="10" height="9" />
<rect x="240" y="42" width="9" height="17" />
<rect x="243" y="55" width="17" height="12" />
<rect x="254" y="39" width="16" height="12" />
<rect x="254" y="55" width="16" height="16" />
<rect x="264" y="39" width="16" height="12" />
<rect x="264" y="55" width="16" height="12" />
<rect x="274" y="39" width="17" height="12" />
<rect x="274" y="55" width="17" height="12" />
<rect x="285" y="39" width="15" height="12" />
<rect x="285" y="45" width="12" height="13" />
<rect x="285" y="45" width="12" height="13" />
<rect x="281" y="28" width="11" height="16" />
<rect x="276" y="19" width="16" height="15" />
<rect x="266" y="19" width="16" height="14" />
<rect x="246" y="21" width="16" height="12" />
<rect x="243" y="8" width="11" height="19" />
<rect x="248" y="2" width="16" height="16" />
</g>
</g>
<g fill="url(#pattern-untameable)" opacity="0.3">
<rect x="258" y="0" width="27" height="18"/>
<rect x="121" y="1" width="11" height="19"/>
<rect x="243" y="45" width="17" height="16"/>
<rect x="243" y="35" width="17" height="16"/>
<rect x="254" y="45" width="16" height="16"/>
<rect x="264" y="45" width="16" height="16"/>
<rect x="140" y="17" width="16" height="17"/>
<rect x="274" y="45" width="17" height="16"/>
<rect x="274" y="45" width="17" height="16"/>
<rect x="274" y="45" width="17" height="16"/>
<rect x="256" y="13" width="16" height="20"/>
<rect x="127" y="0" width="22" height="7"/>
<rect x="131" y="13" width="10" height="11"/>
<rect x="129" y="17" width="9" height="8"/>
<rect x="129" y="12" width="7" height="7"/>
<rect x="133" y="12" width="11" height="7"/>
<rect x="138" y="13" width="16" height="10"/>
<rect x="134" y="3" width="16" height="12"/>
<rect x="189" y="42" width="12" height="10"/>
<rect x="194" y="37" width="8" height="10"/>
<rect x="196" y="32" width="9" height="11"/>
<rect x="199" y="33" width="11" height="9"/>
<rect x="201" y="36" width="10" height="18"/>
<rect x="205" y="43" width="12" height="13"/>
<rect x="211" y="45" width="11" height="9"/>
<rect x="216" y="42" width="14" height="12"/>
<rect x="225" y="41" width="12" height="13"/>
<rect x="231" y="39" width="12" height="10"/>
<rect x="237" y="39" width="10" height="9"/>
<rect x="240" y="42" width="9" height="17"/>
<rect x="254" y="39" width="16" height="12"/>
<rect x="264" y="39" width="16" height="12"/>
<rect x="274" y="39" width="17" height="12"/>
<rect x="285" y="39" width="15" height="12"/>
<rect x="285" y="45" width="12" height="13"/>
<rect x="285" y="45" width="12" height="13"/>
<rect x="281" y="28" width="11" height="16"/>
<rect x="276" y="19" width="16" height="15"/>
<rect x="266" y="19" width="16" height="14"/>
<rect x="246" y="21" width="16" height="12"/>
<rect x="243" y="8" width="11" height="19"/>
<rect x="248" y="2" width="16" height="16"/>
</g>
<g filter="url(#groupStroke)" opacity="0.8">
<rect x="258" y="0" width="27" height="18"/>
<rect x="121" y="1" width="11" height="19"/>
<rect x="243" y="45" width="17" height="16"/>
<rect x="243" y="35" width="17" height="16"/>
<rect x="254" y="45" width="16" height="16"/>
<rect x="264" y="45" width="16" height="16"/>
<rect x="140" y="17" width="16" height="17"/>
<rect x="274" y="45" width="17" height="16"/>
<rect x="274" y="45" width="17" height="16"/>
<rect x="274" y="45" width="17" height="16"/>
<rect x="256" y="13" width="16" height="20"/>
<rect x="127" y="0" width="22" height="7"/>
<rect x="131" y="13" width="10" height="11"/>
<rect x="129" y="17" width="9" height="8"/>
<rect x="129" y="12" width="7" height="7"/>
<rect x="133" y="12" width="11" height="7"/>
<rect x="138" y="13" width="16" height="10"/>
<rect x="134" y="3" width="16" height="12"/>
<rect x="189" y="42" width="12" height="10"/>
<rect x="194" y="37" width="8" height="10"/>
<rect x="196" y="32" width="9" height="11"/>
<rect x="199" y="33" width="11" height="9"/>
<rect x="201" y="36" width="10" height="18"/>
<rect x="205" y="43" width="12" height="13"/>
<rect x="211" y="45" width="11" height="9"/>
<rect x="216" y="42" width="14" height="12"/>
<rect x="225" y="41" width="12" height="13"/>
<rect x="231" y="39" width="12" height="10"/>
<rect x="237" y="39" width="10" height="9"/>
<rect x="240" y="42" width="9" height="17"/>
<rect x="243" y="55" width="17" height="12"/>
<rect x="254" y="39" width="16" height="12"/>
<rect x="254" y="55" width="16" height="16"/>
<rect x="264" y="39" width="16" height="12"/>
<rect x="264" y="55" width="16" height="12"/>
<rect x="274" y="39" width="17" height="12"/>
<rect x="274" y="55" width="17" height="12"/>
<rect x="285" y="39" width="15" height="12"/>
<rect x="285" y="45" width="12" height="13"/>
<rect x="285" y="45" width="12" height="13"/>
<rect x="281" y="28" width="11" height="16"/>
<rect x="276" y="19" width="16" height="15"/>
<rect x="266" y="19" width="16" height="14"/>
<rect x="246" y="21" width="16" height="12"/>
<rect x="243" y="8" width="11" height="19"/>
<rect x="248" y="2" width="16" height="16"/>
</g>
</svg>