<?xml version="1.0" encoding="utf-8"?>
<svg xmlns="http://www.w3.org/2000/svg" width="300" height="300"
        viewBox="0 0 300 300" class="creatureMap" style="position:absolute;">
    <defs>
        <filter id="blur" x="-30%" y="-30%" width="160%" height="160%">
            <feGaussianBlur stdDeviation="3" />
        </filter>
        <pattern id="pattern-untameable" width="10" height="10" patternTransform="rotate(135)" patternUnits="userSpaceOnUse">
            <rect width="4" height="10" fill="black"></rect>
        </pattern>
        <filter id="groupStroke">
            <feFlood result="outsideColor" flood-color="black"/>
            <feMorphology in="SourceAlpha" operator="dilate" radius="2"/>
            <feComposite result="strokeoutline1" in="outsideColor" operator="in"/>
            <feComposite result="strokeoutline2" in="strokeoutline1" in2="SourceAlpha" operator="out"/>
            <feGaussianBlur in="strokeoutline2" result="strokeblur" stdDeviation="1"/>
        </filter>
        <style>
            .spawningMap-very-common { fill: #0F0; }
            .spawningMap-common { fill: #B2FF00; }
            .spawningMap-uncommon { fill: #FF0; }
            .spawningMap-very-uncommon { fill: #FC0; }
            .spawningMap-rare { fill: #F60; }
            .spawningMap-very-rare { fill: #F00; }
            .spawning-map-point { stroke:black; stroke-width:1; }
        </style>
    </defs>

<g filter="url(#blur)" opacity="0.7">
<g class="spawningMap-very-rare">
<rect x="170" y="101" width="12" height="11" />
<rect x="164" y="93" width="12" height="10" />
<rect x="156" y="92" width="12" height="10" />
<rect x="199" y="49" width="15" height="14" />
<rect x="199" y="41" width="15" height="13" />
<rect x="199" y="32" width="15" height="14" />
<rect x="199" y="23" width="15" height="14" />
<rect x="199" y="15" width="15" height="13" />
<rect x="218" y="23" width="14" height="14" />
<rect x="153" y="58" width="14" height="14" />
<rect x="153" y="49" width="14" height="14" />
<rect x="153" y="23" width="14" height="14" />
<rect x="153" y="15" width="14" height="13" />
<rect x="143" y="58" width="15" height="14" />
<rect x="143" y="49" width="15" height="14" />
<rect x="143" y="41" width="15" height="13" />
<rect x="143" y="32" width="15" height="14" />
<rect x="143" y="23" width="15" height="14" />
<rect x="143" y="15" width="15" height="13" />
<rect x="171" y="58" width="15" height="14" />
<rect x="171" y="49" width="15" height="14" />
<rect x="171" y="41" width="15" height="13" />
<rect x="171" y="23" width="15" height="14" />
<rect x="171" y="15" width="15" height="13" />
<rect x="162" y="58" width="14" height="14" />
<rect x="162" y="49" width="14" height="14" />
<rect x="162" y="23" width="14" height="14" />
<rect x="162" y="15" width="14" height="13" />
<rect x="190" y="49" width="14" height="14" />
<rect x="190" y="41" width="14" height="13" />
<rect x="190" y="32" width="14" height="14" />
<rect x="190" y="23" width="14" height="14" />
<rect x="190" y="15" width="14" height="13" />
<rect x="181" y="58" width="14" height="14" />
<rect x="181" y="49" width="14" height="14" />
<rect x="181" y="41" width="14" height="13" />
<rect x="181" y="23" width="14" height="14" />
<rect x="181" y="15" width="14" height="13" />
<rect x="134" y="49" width="14" height="14" />
<rect x="134" y="41" width="14" height="13" />
<rect x="134" y="32" width="14" height="14" />
<rect x="134" y="23" width="14" height="14" />
<rect x="171" y="93" width="15" height="13" />
<rect x="97" y="119" width="14" height="13" />
<rect x="97" y="110" width="14" height="14" />
<rect x="97" y="101" width="14" height="14" />
<rect x="87" y="110" width="15" height="14" />
<rect x="87" y="119" width="15" height="13" />
<rect x="134" y="136" width="14" height="14" />
<rect x="134" y="145" width="14" height="13" />
<rect x="134" y="153" width="14" height="14" />
<rect x="125" y="136" width="14" height="14" />
<rect x="125" y="145" width="14" height="13" />
<rect x="125" y="153" width="14" height="14" />
<rect x="209" y="41" width="14" height="13" />
<rect x="209" y="32" width="14" height="14" />
<rect x="78" y="110" width="15" height="14" />
<rect x="78" y="119" width="15" height="13" />
<rect x="209" y="23" width="14" height="14" />
<rect x="209" y="15" width="14" height="13" />
<rect x="199" y="49" width="15" height="14" />
<rect x="199" y="41" width="15" height="13" />
<rect x="199" y="32" width="15" height="14" />
<rect x="209" y="58" width="14" height="14" />
<rect x="209" y="49" width="14" height="14" />
<rect x="199" y="23" width="15" height="14" />
<rect x="199" y="127" width="15" height="14" />
<rect x="199" y="119" width="15" height="13" />
<rect x="199" y="110" width="15" height="14" />
<rect x="199" y="15" width="15" height="13" />
<rect x="218" y="23" width="14" height="14" />
<rect x="227" y="136" width="15" height="14" />
<rect x="153" y="58" width="14" height="14" />
<rect x="227" y="84" width="15" height="14" />
<rect x="227" y="145" width="15" height="13" />
<rect x="227" y="153" width="15" height="14" />
<rect x="153" y="49" width="14" height="14" />
<rect x="227" y="58" width="15" height="14" />
<rect x="227" y="49" width="15" height="14" />
<rect x="227" y="41" width="15" height="13" />
<rect x="218" y="58" width="14" height="14" />
<rect x="218" y="49" width="14" height="14" />
<rect x="218" y="41" width="14" height="13" />
<rect x="246" y="84" width="14" height="14" />
<rect x="237" y="136" width="14" height="14" />
<rect x="237" y="93" width="14" height="13" />
<rect x="237" y="84" width="14" height="14" />
<rect x="237" y="145" width="14" height="13" />
<rect x="237" y="153" width="14" height="14" />
<rect x="237" y="49" width="14" height="14" />
<rect x="237" y="41" width="14" height="13" />
<rect x="87" y="110" width="15" height="14" />
<rect x="153" y="119" width="14" height="13" />
<rect x="153" y="23" width="14" height="14" />
<rect x="153" y="84" width="14" height="14" />
<rect x="153" y="15" width="14" height="13" />
<rect x="153" y="153" width="14" height="14" />
<rect x="143" y="58" width="15" height="14" />
<rect x="153" y="171" width="14" height="13" />
<rect x="143" y="49" width="15" height="14" />
<rect x="143" y="41" width="15" height="13" />
<rect x="143" y="32" width="15" height="14" />
<rect x="143" y="23" width="15" height="14" />
<rect x="143" y="15" width="15" height="13" />
<rect x="171" y="58" width="15" height="14" />
<rect x="171" y="49" width="15" height="14" />
<rect x="171" y="41" width="15" height="13" />
<rect x="171" y="23" width="15" height="14" />
<rect x="171" y="15" width="15" height="13" />
<rect x="162" y="58" width="14" height="14" />
<rect x="162" y="49" width="14" height="14" />
<rect x="162" y="23" width="14" height="14" />
<rect x="162" y="15" width="14" height="13" />
<rect x="190" y="49" width="14" height="14" />
<rect x="190" y="41" width="14" height="13" />
<rect x="190" y="32" width="14" height="14" />
<rect x="190" y="23" width="14" height="14" />
<rect x="190" y="15" width="14" height="13" />
<rect x="181" y="58" width="14" height="14" />
<rect x="181" y="49" width="14" height="14" />
<rect x="181" y="41" width="14" height="13" />
<rect x="181" y="23" width="14" height="14" />
<rect x="181" y="15" width="14" height="13" />
<rect x="134" y="49" width="14" height="14" />
<rect x="134" y="41" width="14" height="13" />
<rect x="134" y="32" width="14" height="14" />
<rect x="134" y="23" width="14" height="14" />
<rect x="162" y="171" width="14" height="13" />
<rect x="190" y="136" width="14" height="14" />
<rect x="190" y="119" width="14" height="13" />
<rect x="190" y="110" width="14" height="14" />
<rect x="190" y="153" width="14" height="14" />
<rect x="181" y="119" width="14" height="13" />
<rect x="181" y="110" width="14" height="14" />
<rect x="181" y="101" width="14" height="14" />
<rect x="181" y="84" width="14" height="14" />
<rect x="181" y="145" width="14" height="13" />
<rect x="181" y="153" width="14" height="14" />
<rect x="181" y="162" width="14" height="14" />
<rect x="87" y="127" width="15" height="14" />
<rect x="190" y="145" width="14" height="13" />
<rect x="87" y="101" width="15" height="14" />
<rect x="87" y="119" width="15" height="13" />
<rect x="78" y="119" width="15" height="13" />
<rect x="78" y="110" width="15" height="14" />
<rect x="78" y="127" width="15" height="14" />
<rect x="78" y="101" width="15" height="14" />
<rect x="209" y="41" width="14" height="13" />
<rect x="209" y="32" width="14" height="14" />
<rect x="69" y="127" width="14" height="14" />
<rect x="143" y="136" width="15" height="14" />
<rect x="69" y="119" width="14" height="13" />
<rect x="69" y="110" width="14" height="14" />
<rect x="143" y="84" width="15" height="14" />
<rect x="143" y="145" width="15" height="13" />
<rect x="143" y="153" width="15" height="14" />
<rect x="153" y="110" width="14" height="14" />
<rect x="153" y="162" width="14" height="14" />
<rect x="209" y="23" width="14" height="14" />
<rect x="171" y="136" width="15" height="14" />
<rect x="171" y="119" width="15" height="13" />
<rect x="171" y="84" width="15" height="14" />
<rect x="171" y="145" width="15" height="13" />
<rect x="171" y="153" width="15" height="14" />
<rect x="171" y="171" width="15" height="13" />
<rect x="190" y="162" width="14" height="14" />
<rect x="162" y="119" width="14" height="13" />
<rect x="162" y="110" width="14" height="14" />
<rect x="162" y="93" width="14" height="13" />
<rect x="162" y="84" width="14" height="14" />
<rect x="162" y="153" width="14" height="14" />
<rect x="162" y="162" width="14" height="14" />
<rect x="209" y="15" width="14" height="13" />
<rect x="171" y="162" width="15" height="14" />
</g>
</g>
<g fill="url(#pattern-untameable)" opacity="0.3">
<rect x="170" y="101" width="12" height="11"/>
<rect x="164" y="93" width="12" height="10"/>
<rect x="156" y="92" width="12" height="10"/>
<rect x="199" y="49" width="15" height="14"/>
<rect x="199" y="41" width="15" height="13"/>
<rect x="199" y="32" width="15" height="14"/>
<rect x="199" y="23" width="15" height="14"/>
<rect x="199" y="15" width="15" height="13"/>
<rect x="218" y="23" width="14" height="14"/>
<rect x="153" y="58" width="14" height="14"/>
<rect x="153" y="49" width="14" height="14"/>
<rect x="153" y="23" width="14" height="14"/>
<rect x="153" y="15" width="14" height="13"/>
<rect x="143" y="58" width="15" height="14"/>
<rect x="143" y="49" width="15" height="14"/>
<rect x="143" y="41" width="15" height="13"/>
<rect x="143" y="32" width="15" height="14"/>
<rect x="143" y="23" width="15" height="14"/>
<rect x="143" y="15" width="15" height="13"/>
<rect x="171" y="58" width="15" height="14"/>
<rect x="171" y="49" width="15" height="14"/>
<rect x="171" y="41" width="15" height="13"/>
<rect x="171" y="23" width="15" height="14"/>
<rect x="171" y="15" width="15" height="13"/>
<rect x="162" y="58" width="14" height="14"/>
<rect x="162" y="49" width="14" height="14"/>
<rect x="162" y="23" width="14" height="14"/>
<rect x="162" y="15" width="14" height="13"/>
<rect x="190" y="49" width="14" height="14"/>
<rect x="190" y="41" width="14" height="13"/>
<rect x="190" y="32" width="14" height="14"/>
<rect x="190" y="23" width="14" height="14"/>
<rect x="190" y="15" width="14" height="13"/>
<rect x="181" y="58" width="14" height="14"/>
<rect x="181" y="49" width="14" height="14"/>
<rect x="181" y="41" width="14" height="13"/>
<rect x="181" y="23" width="14" height="14"/>
<rect x="181" y="15" width="14" height="13"/>
<rect x="134" y="49" width="14" height="14"/>
<rect x="134" y="41" width="14" height="13"/>
<rect x="134" y="32" width="14" height="14"/>
<rect x="134" y="23" width="14" height="14"/>
<rect x="171" y="93" width="15" height="13"/>
<rect x="97" y="119" width="14" height="13"/>
<rect x="97" y="110" width="14" height="14"/>
<rect x="97" y="101" width="14" height="14"/>
<rect x="87" y="110" width="15" height="14"/>
<rect x="87" y="119" width="15" height="13"/>
<rect x="134" y="136" width="14" height="14"/>
<rect x="134" y="145" width="14" height="13"/>
<rect x="134" y="153" width="14" height="14"/>
<rect x="125" y="136" width="14" height="14"/>
<rect x="125" y="145" width="14" height="13"/>
<rect x="125" y="153" width="14" height="14"/>
<rect x="209" y="41" width="14" height="13"/>
<rect x="209" y="32" width="14" height="14"/>
<rect x="78" y="110" width="15" height="14"/>
<rect x="78" y="119" width="15" height="13"/>
<rect x="209" y="23" width="14" height="14"/>
<rect x="209" y="15" width="14" height="13"/>
<rect x="199" y="49" width="15" height="14"/>
<rect x="199" y="41" width="15" height="13"/>
<rect x="199" y="32" width="15" height="14"/>
<rect x="209" y="58" width="14" height="14"/>
<rect x="209" y="49" width="14" height="14"/>
<rect x="199" y="23" width="15" height="14"/>
<rect x="199" y="127" width="15" height="14"/>
<rect x="199" y="119" width="15" height="13"/>
<rect x="199" y="110" width="15" height="14"/>
<rect x="199" y="15" width="15" height="13"/>
<rect x="218" y="23" width="14" height="14"/>
<rect x="227" y="136" width="15" height="14"/>
<rect x="153" y="58" width="14" height="14"/>
<rect x="227" y="84" width="15" height="14"/>
<rect x="227" y="145" width="15" height="13"/>
<rect x="227" y="153" width="15" height="14"/>
<rect x="153" y="49" width="14" height="14"/>
<rect x="227" y="58" width="15" height="14"/>
<rect x="227" y="49" width="15" height="14"/>
<rect x="227" y="41" width="15" height="13"/>
<rect x="218" y="58" width="14" height="14"/>
<rect x="218" y="49" width="14" height="14"/>
<rect x="218" y="41" width="14" height="13"/>
<rect x="246" y="84" width="14" height="14"/>
<rect x="237" y="136" width="14" height="14"/>
<rect x="237" y="93" width="14" height="13"/>
<rect x="237" y="84" width="14" height="14"/>
<rect x="237" y="145" width="14" height="13"/>
<rect x="237" y="153" width="14" height="14"/>
<rect x="237" y="49" width="14" height="14"/>
<rect x="237" y="41" width="14" height="13"/>
<rect x="87" y="110" width="15" height="14"/>
<rect x="153" y="119" width="14" height="13"/>
<rect x="153" y="23" width="14" height="14"/>
<rect x="153" y="84" width="14" height="14"/>
<rect x="153" y="15" width="14" height="13"/>
<rect x="153" y="153" width="14" height="14"/>
<rect x="143" y="58" width="15" height="14"/>
<rect x="153" y="171" width="14" height="13"/>
<rect x="143" y="49" width="15" height="14"/>
<rect x="143" y="41" width="15" height="13"/>
<rect x="143" y="32" width="15" height="14"/>
<rect x="143" y="23" width="15" height="14"/>
<rect x="143" y="15" width="15" height="13"/>
<rect x="171" y="58" width="15" height="14"/>
<rect x="171" y="49" width="15" height="14"/>
<rect x="171" y="41" width="15" height="13"/>
<rect x="171" y="23" width="15" height="14"/>
<rect x="171" y="15" width="15" height="13"/>
<rect x="162" y="58" width="14" height="14"/>
<rect x="162" y="49" width="14" height="14"/>
<rect x="162" y="23" width="14" height="14"/>
<rect x="162" y="15" width="14" height="13"/>
<rect x="190" y="49" width="14" height="14"/>
<rect x="190" y="41" width="14" height="13"/>
<rect x="190" y="32" width="14" height="14"/>
<rect x="190" y="23" width="14" height="14"/>
<rect x="190" y="15" width="14" height="13"/>
<rect x="181" y="58" width="14" height="14"/>
<rect x="181" y="49" width="14" height="14"/>
<rect x="181" y="41" width="14" height="13"/>
<rect x="181" y="23" width="14" height="14"/>
<rect x="181" y="15" width="14" height="13"/>
<rect x="134" y="49" width="14" height="14"/>
<rect x="134" y="41" width="14" height="13"/>
<rect x="134" y="32" width="14" height="14"/>
<rect x="134" y="23" width="14" height="14"/>
<rect x="162" y="171" width="14" height="13"/>
<rect x="190" y="136" width="14" height="14"/>
<rect x="190" y="119" width="14" height="13"/>
<rect x="190" y="110" width="14" height="14"/>
<rect x="190" y="153" width="14" height="14"/>
<rect x="181" y="119" width="14" height="13"/>
<rect x="181" y="110" width="14" height="14"/>
<rect x="181" y="101" width="14" height="14"/>
<rect x="181" y="84" width="14" height="14"/>
<rect x="181" y="145" width="14" height="13"/>
<rect x="181" y="153" width="14" height="14"/>
<rect x="181" y="162" width="14" height="14"/>
<rect x="87" y="127" width="15" height="14"/>
<rect x="190" y="145" width="14" height="13"/>
<rect x="87" y="101" width="15" height="14"/>
<rect x="87" y="119" width="15" height="13"/>
<rect x="78" y="119" width="15" height="13"/>
<rect x="78" y="110" width="15" height="14"/>
<rect x="78" y="127" width="15" height="14"/>
<rect x="78" y="101" width="15" height="14"/>
<rect x="209" y="41" width="14" height="13"/>
<rect x="209" y="32" width="14" height="14"/>
<rect x="69" y="127" width="14" height="14"/>
<rect x="143" y="136" width="15" height="14"/>
<rect x="69" y="119" width="14" height="13"/>
<rect x="69" y="110" width="14" height="14"/>
<rect x="143" y="84" width="15" height="14"/>
<rect x="143" y="145" width="15" height="13"/>
<rect x="143" y="153" width="15" height="14"/>
<rect x="153" y="110" width="14" height="14"/>
<rect x="153" y="162" width="14" height="14"/>
<rect x="209" y="23" width="14" height="14"/>
<rect x="171" y="136" width="15" height="14"/>
<rect x="171" y="119" width="15" height="13"/>
<rect x="171" y="84" width="15" height="14"/>
<rect x="171" y="145" width="15" height="13"/>
<rect x="171" y="153" width="15" height="14"/>
<rect x="171" y="171" width="15" height="13"/>
<rect x="190" y="162" width="14" height="14"/>
<rect x="162" y="119" width="14" height="13"/>
<rect x="162" y="110" width="14" height="14"/>
<rect x="162" y="93" width="14" height="13"/>
<rect x="162" y="84" width="14" height="14"/>
<rect x="162" y="153" width="14" height="14"/>
<rect x="162" y="162" width="14" height="14"/>
<rect x="209" y="15" width="14" height="13"/>
<rect x="171" y="162" width="15" height="14"/>
</g>
</svg>