<?xml version="1.0" encoding="utf-8"?>
<svg xmlns="http://www.w3.org/2000/svg" width="300" height="300"
        viewBox="0 0 300 300" class="creatureMap" style="position:absolute;">
    <defs>
        <filter id="blur" x="-30%" y="-30%" width="160%" height="160%">
            <feGaussianBlur stdDeviation="3" />
        </filter>
        <pattern id="pattern-untameable" width="10" height="10" patternTransform="rotate(135)" patternUnits="userSpaceOnUse">
            <rect width="4" height="10" fill="black"></rect>
        </pattern>
        <filter id="groupStroke">
            <feFlood result="outsideColor" flood-color="black"/>
            <feMorphology in="SourceAlpha" operator="dilate" radius="2"/>
            <feComposite result="strokeoutline1" in="outsideColor" operator="in"/>
            <feComposite result="strokeoutline2" in="strokeoutline1" in2="SourceAlpha" operator="out"/>
            <feGaussianBlur in="strokeoutline2" result="strokeblur" stdDeviation="1"/>
        </filter>
        <style>
            .spawningMap-very-common { fill: #0F0; }
            .spawningMap-common { fill: #B2FF00; }
            .spawningMap-uncommon { fill: #FF0; }
            .spawningMap-very-uncommon { fill: #FC0; }
            .spawningMap-rare { fill: #F60; }
            .spawningMap-very-rare { fill: #F00; }
            .spawning-map-point { stroke:black; stroke-width:1; }
        </style>
    </defs>

<g filter="url(#blur)" opacity="0.7">
<g class="spawningMap-very-rare">
<rect x="31" y="119" width="15" height="13" />
<rect x="185" y="227" width="14" height="14" />
<rect x="74" y="227" width="15" height="14" />
<rect x="46" y="253" width="15" height="14" />
<rect x="46" y="244" width="15" height="14" />
<rect x="176" y="270" width="14" height="14" />
<rect x="166" y="270" width="15" height="14" />
<rect x="102" y="270" width="14" height="14" />
<rect x="157" y="279" width="15" height="13" />
<rect x="148" y="279" width="15" height="13" />
<rect x="139" y="279" width="14" height="13" />
<rect x="130" y="279" width="14" height="14" />
<rect x="120" y="279" width="15" height="14" />
<rect x="111" y="279" width="15" height="14" />
<rect x="56" y="218" width="14" height="14" />
<rect x="46" y="218" width="15" height="14" />
<rect x="90" y="273" width="14" height="14" />
<rect x="53" y="229" width="14" height="14" />
<rect x="31" y="127" width="15" height="14" />
<rect x="31" y="136" width="15" height="14" />
<rect x="31" y="144" width="15" height="14" />
<rect x="31" y="153" width="15" height="14" />
<rect x="13" y="75" width="14" height="14" />
<rect x="67" y="35" width="14" height="13" />
<rect x="26" y="62" width="14" height="14" />
<rect x="93" y="265" width="14" height="14" />
<rect x="0" y="119" width="9" height="13" />
<rect x="0" y="84" width="9" height="14" />
<rect x="3" y="119" width="15" height="13" />
<rect x="241" y="263" width="14" height="14" />
<rect x="3" y="84" width="15" height="14" />
<rect x="231" y="253" width="15" height="14" />
<rect x="231" y="244" width="15" height="14" />
<rect x="231" y="270" width="15" height="14" />
<rect x="222" y="253" width="14" height="14" />
<rect x="222" y="244" width="14" height="14" />
<rect x="222" y="270" width="14" height="14" />
<rect x="231" y="261" width="15" height="14" />
<rect x="222" y="261" width="14" height="14" />
<rect x="13" y="119" width="14" height="13" />
<rect x="213" y="253" width="14" height="14" />
<rect x="213" y="244" width="14" height="14" />
<rect x="213" y="236" width="14" height="13" />
<rect x="213" y="261" width="14" height="14" />
<rect x="213" y="227" width="14" height="14" />
<rect x="203" y="253" width="15" height="14" />
<rect x="203" y="244" width="15" height="14" />
<rect x="203" y="236" width="15" height="13" />
<rect x="203" y="261" width="15" height="14" />
<rect x="203" y="227" width="15" height="14" />
<rect x="194" y="253" width="15" height="14" />
<rect x="194" y="244" width="15" height="14" />
<rect x="194" y="236" width="15" height="13" />
<rect x="194" y="261" width="15" height="14" />
<rect x="194" y="227" width="15" height="14" />
<rect x="185" y="253" width="14" height="14" />
<rect x="185" y="244" width="14" height="14" />
<rect x="185" y="236" width="14" height="13" />
<rect x="185" y="261" width="14" height="14" />
<rect x="176" y="253" width="14" height="14" />
<rect x="176" y="244" width="14" height="14" />
<rect x="176" y="236" width="14" height="13" />
<rect x="166" y="253" width="15" height="14" />
<rect x="166" y="244" width="15" height="14" />
<rect x="166" y="236" width="15" height="13" />
<rect x="13" y="127" width="14" height="14" />
<rect x="157" y="253" width="15" height="14" />
<rect x="157" y="244" width="15" height="14" />
<rect x="157" y="236" width="15" height="13" />
<rect x="13" y="136" width="14" height="14" />
<rect x="13" y="144" width="14" height="14" />
<rect x="13" y="153" width="14" height="14" />
<rect x="13" y="162" width="14" height="14" />
<rect x="22" y="162" width="14" height="14" />
<rect x="13" y="170" width="14" height="14" />
<rect x="148" y="253" width="15" height="14" />
<rect x="148" y="244" width="15" height="14" />
<rect x="148" y="236" width="15" height="13" />
<rect x="22" y="170" width="14" height="14" />
<rect x="148" y="227" width="15" height="14" />
<rect x="22" y="179" width="14" height="14" />
<rect x="31" y="179" width="15" height="14" />
<rect x="37" y="187" width="14" height="14" />
<rect x="47" y="192" width="14" height="13" />
<rect x="56" y="192" width="15" height="13" />
<rect x="42" y="239" width="14" height="14" />
<rect x="22" y="119" width="14" height="13" />
<rect x="22" y="127" width="14" height="14" />
<rect x="22" y="136" width="14" height="14" />
<rect x="22" y="144" width="14" height="14" />
<rect x="22" y="153" width="14" height="14" />
<rect x="13" y="84" width="14" height="14" />
<rect x="22" y="84" width="14" height="14" />
<rect x="139" y="253" width="14" height="14" />
<rect x="139" y="244" width="14" height="14" />
<rect x="139" y="236" width="14" height="13" />
<rect x="22" y="75" width="14" height="14" />
<rect x="139" y="227" width="14" height="14" />
<rect x="130" y="253" width="14" height="14" />
<rect x="130" y="244" width="14" height="14" />
<rect x="130" y="236" width="14" height="13" />
<rect x="130" y="227" width="14" height="14" />
<rect x="120" y="253" width="15" height="14" />
<rect x="120" y="244" width="15" height="14" />
<rect x="120" y="236" width="15" height="13" />
<rect x="29" y="55" width="14" height="14" />
<rect x="120" y="227" width="15" height="14" />
<rect x="111" y="253" width="15" height="14" />
<rect x="111" y="244" width="15" height="14" />
<rect x="111" y="236" width="15" height="13" />
<rect x="36" y="45" width="15" height="14" />
<rect x="111" y="227" width="15" height="14" />
<rect x="102" y="253" width="14" height="14" />
<rect x="102" y="244" width="14" height="14" />
<rect x="102" y="236" width="14" height="13" />
<rect x="46" y="39" width="14" height="14" />
<rect x="102" y="227" width="14" height="14" />
<rect x="93" y="253" width="14" height="14" />
<rect x="57" y="35" width="15" height="13" />
<rect x="93" y="236" width="14" height="13" />
<rect x="93" y="263" width="14" height="14" />
<rect x="93" y="227" width="14" height="14" />
<rect x="83" y="253" width="15" height="14" />
<rect x="83" y="244" width="15" height="14" />
<rect x="83" y="236" width="15" height="13" />
<rect x="83" y="227" width="15" height="14" />
<rect x="74" y="253" width="15" height="14" />
<rect x="74" y="244" width="15" height="14" />
<rect x="74" y="236" width="15" height="13" />
<rect x="65" y="253" width="14" height="14" />
<rect x="65" y="244" width="14" height="14" />
<rect x="65" y="236" width="14" height="13" />
<rect x="65" y="262" width="14" height="13" />
<rect x="56" y="253" width="14" height="14" />
<rect x="56" y="244" width="14" height="14" />
<rect x="56" y="262" width="14" height="13" />
<rect x="176" y="261" width="14" height="14" />
<rect x="166" y="261" width="15" height="14" />
<rect x="157" y="261" width="15" height="14" />
<rect x="148" y="261" width="15" height="14" />
<rect x="139" y="261" width="14" height="14" />
<rect x="130" y="261" width="14" height="14" />
<rect x="120" y="261" width="15" height="14" />
<rect x="111" y="261" width="15" height="14" />
<rect x="102" y="261" width="14" height="14" />
<rect x="157" y="270" width="15" height="14" />
<rect x="148" y="270" width="15" height="14" />
<rect x="139" y="270" width="14" height="14" />
<rect x="130" y="270" width="14" height="14" />
<rect x="120" y="270" width="15" height="14" />
<rect x="111" y="270" width="15" height="14" />
<rect x="25" y="67" width="15" height="13" />
<rect x="56" y="236" width="14" height="13" />
<rect x="46" y="236" width="15" height="13" />
<rect x="56" y="227" width="14" height="14" />
<rect x="46" y="227" width="15" height="14" />
<rect x="213" y="270" width="14" height="14" />
<rect x="93" y="244" width="14" height="14" />
</g>
<g class="spawningMap-rare">
<rect x="22" y="110" width="14" height="14" />
<rect x="22" y="101" width="14" height="14" />
<rect x="22" y="93" width="14" height="13" />
<rect x="0" y="110" width="9" height="14" />
<rect x="0" y="101" width="9" height="14" />
<rect x="0" y="93" width="9" height="13" />
<rect x="3" y="110" width="15" height="14" />
<rect x="3" y="93" width="15" height="13" />
<rect x="13" y="110" width="14" height="14" />
<rect x="13" y="101" width="14" height="14" />
<rect x="13" y="93" width="14" height="13" />
<rect x="3" y="101" width="15" height="14" />
</g>
<g class="spawningMap-very-uncommon">
<rect x="178" y="81" width="10" height="9" />
<rect x="188" y="80" width="8" height="8" />
</g>
<g class="spawningMap-uncommon">
<rect x="162" y="122" width="7" height="7" />
<rect x="191" y="107" width="7" height="7" />
<rect x="142" y="99" width="7" height="8" />
<rect x="184" y="115" width="7" height="8" />
</g>
<g class="spawningMap-common">
<rect x="173" y="122" width="8" height="7" />
<rect x="159" y="124" width="7" height="8" />
<rect x="152" y="92" width="7" height="6" />
<rect x="179" y="90" width="7" height="7" />
<rect x="143" y="100" width="8" height="7" />
<rect x="175" y="89" width="7" height="7" />
</g>
<g class="spawningMap-very-common">
<rect x="31" y="137" width="7" height="7" />
</g>
</g>
<g filter="url(#groupStroke)" opacity="0.8">
<rect x="178" y="81" width="10" height="9"/>
<rect x="188" y="80" width="8" height="8"/>
<rect x="162" y="122" width="7" height="7"/>
<rect x="191" y="107" width="7" height="7"/>
<rect x="142" y="99" width="7" height="8"/>
<rect x="184" y="115" width="7" height="8"/>
<rect x="173" y="122" width="8" height="7"/>
<rect x="159" y="124" width="7" height="8"/>
<rect x="152" y="92" width="7" height="6"/>
<rect x="179" y="90" width="7" height="7"/>
<rect x="143" y="100" width="8" height="7"/>
<rect x="175" y="89" width="7" height="7"/>
<rect x="31" y="137" width="7" height="7"/>
</g>
</svg>