<?xml version="1.0" encoding="utf-8"?>
<svg xmlns="http://www.w3.org/2000/svg" width="300" height="300"
        viewBox="0 0 300 300" class="creatureMap" style="position:absolute;">
    <defs>
        <filter id="blur" x="-30%" y="-30%" width="160%" height="160%">
            <feGaussianBlur stdDeviation="3" />
        </filter>
        <pattern id="pattern-untameable" width="10" height="10" patternTransform="rotate(135)" patternUnits="userSpaceOnUse">
            <rect width="4" height="10" fill="black"></rect>
        </pattern>
        <filter id="groupStroke">
            <feFlood result="outsideColor" flood-color="black"/>
            <feMorphology in="SourceAlpha" operator="dilate" radius="2"/>
            <feComposite result="strokeoutline1" in="outsideColor" operator="in"/>
            <feComposite result="strokeoutline2" in="strokeoutline1" in2="SourceAlpha" operator="out"/>
            <feGaussianBlur in="strokeoutline2" result="strokeblur" stdDeviation="1"/>
        </filter>
        <style>
            .spawningMap-very-common { fill: #0F0; }
            .spawningMap-common { fill: #B2FF00; }
            .spawningMap-uncommon { fill: #FF0; }
            .spawningMap-very-uncommon { fill: #FC0; }
            .spawningMap-rare { fill: #F60; }
            .spawningMap-very-rare { fill: #F00; }
            .spawning-map-point { stroke:black; stroke-width:1; }
        </style>
    </defs>

<g filter="url(#blur)" opacity="0.7">
<g class="spawningMap-very-rare">
<rect x="14" y="92" width="30" height="32" />
<rect x="59" y="75" width="15" height="14" />
<rect x="59" y="67" width="15" height="13" />
<rect x="59" y="58" width="15" height="14" />
<rect x="50" y="145" width="15" height="13" />
<rect x="50" y="153" width="15" height="14" />
<rect x="50" y="162" width="15" height="14" />
<rect x="50" y="171" width="15" height="13" />
<rect x="50" y="67" width="15" height="13" />
<rect x="41" y="162" width="14" height="14" />
<rect x="31" y="162" width="15" height="14" />
<rect x="87" y="67" width="15" height="13" />
<rect x="87" y="58" width="15" height="14" />
<rect x="23" y="142" width="20" height="21" />
<rect x="78" y="75" width="15" height="14" />
<rect x="78" y="67" width="15" height="13" />
<rect x="78" y="58" width="15" height="14" />
<rect x="78" y="49" width="15" height="14" />
<rect x="41" y="153" width="14" height="14" />
<rect x="69" y="171" width="14" height="13" />
<rect x="69" y="75" width="14" height="14" />
<rect x="69" y="67" width="14" height="13" />
<rect x="69" y="58" width="14" height="14" />
<rect x="69" y="49" width="14" height="14" />
<rect x="59" y="153" width="15" height="14" />
<rect x="59" y="162" width="15" height="14" />
<rect x="59" y="171" width="15" height="13" />
</g>
<g class="spawningMap-rare">
<rect x="36" y="102" width="11" height="11" />
<rect x="30" y="97" width="11" height="10" />
<rect x="30" y="108" width="11" height="10" />
<rect x="36" y="108" width="11" height="10" />
<rect x="30" y="102" width="11" height="11" />
<rect x="22" y="102" width="14" height="14" />
</g>
</g>
<g fill="url(#pattern-untameable)" opacity="0.3">
<rect x="14" y="92" width="30" height="32"/>
<rect x="59" y="75" width="15" height="14"/>
<rect x="59" y="67" width="15" height="13"/>
<rect x="59" y="58" width="15" height="14"/>
<rect x="50" y="145" width="15" height="13"/>
<rect x="50" y="153" width="15" height="14"/>
<rect x="50" y="162" width="15" height="14"/>
<rect x="50" y="171" width="15" height="13"/>
<rect x="50" y="67" width="15" height="13"/>
<rect x="41" y="162" width="14" height="14"/>
<rect x="31" y="162" width="15" height="14"/>
<rect x="87" y="67" width="15" height="13"/>
<rect x="87" y="58" width="15" height="14"/>
<rect x="23" y="142" width="20" height="21"/>
<rect x="78" y="75" width="15" height="14"/>
<rect x="78" y="67" width="15" height="13"/>
<rect x="78" y="58" width="15" height="14"/>
<rect x="78" y="49" width="15" height="14"/>
<rect x="41" y="153" width="14" height="14"/>
<rect x="69" y="171" width="14" height="13"/>
<rect x="69" y="75" width="14" height="14"/>
<rect x="69" y="67" width="14" height="13"/>
<rect x="69" y="58" width="14" height="14"/>
<rect x="69" y="49" width="14" height="14"/>
<rect x="59" y="153" width="15" height="14"/>
<rect x="59" y="162" width="15" height="14"/>
<rect x="59" y="171" width="15" height="13"/>
<rect x="36" y="102" width="11" height="11"/>
<rect x="30" y="97" width="11" height="10"/>
<rect x="30" y="108" width="11" height="10"/>
<rect x="36" y="108" width="11" height="10"/>
<rect x="30" y="102" width="11" height="11"/>
<rect x="22" y="102" width="14" height="14"/>
</g>
</svg>