<?xml version="1.0" encoding="utf-8"?>
<svg xmlns="http://www.w3.org/2000/svg" width="300" height="300"
        viewBox="0 0 300 300" class="creatureMap" style="position:absolute;">
    <defs>
        <filter id="blur" x="-30%" y="-30%" width="160%" height="160%">
            <feGaussianBlur stdDeviation="3" />
        </filter>
        <pattern id="pattern-untameable" width="10" height="10" patternTransform="rotate(135)" patternUnits="userSpaceOnUse">
            <rect width="4" height="10" fill="black"></rect>
        </pattern>
        <filter id="groupStroke">
            <feFlood result="outsideColor" flood-color="black"/>
            <feMorphology in="SourceAlpha" operator="dilate" radius="2"/>
            <feComposite result="strokeoutline1" in="outsideColor" operator="in"/>
            <feComposite result="strokeoutline2" in="strokeoutline1" in2="SourceAlpha" operator="out"/>
            <feGaussianBlur in="strokeoutline2" result="strokeblur" stdDeviation="1"/>
        </filter>
        <style>
            .spawningMap-very-common { fill: #0F0; }
            .spawningMap-common { fill: #B2FF00; }
            .spawningMap-uncommon { fill: #FF0; }
            .spawningMap-very-uncommon { fill: #FC0; }
            .spawningMap-rare { fill: #F60; }
            .spawningMap-very-rare { fill: #F00; }
            .spawning-map-point { stroke:black; stroke-width:1; }
        </style>
    </defs>

<g class="spawning-map-point" opacity="0.8">
<g class="spawningMap-very-rare">
<circle cx="230" cy="251" r="4" />
<circle cx="231" cy="275" r="4" />
<circle cx="103" cy="246" r="4" />
<circle cx="106" cy="249" r="4" />
<circle cx="116" cy="252" r="4" />
<circle cx="112" cy="258" r="4" />
<circle cx="101" cy="257" r="4" />
<circle cx="94" cy="255" r="4" />
<circle cx="96" cy="252" r="4" />
<circle cx="102" cy="247" r="4" />
<circle cx="95" cy="249" r="4" />
<circle cx="96" cy="244" r="4" />
<circle cx="240" cy="277" r="4" />
<circle cx="93" cy="241" r="4" />
<circle cx="96" cy="235" r="4" />
<circle cx="96" cy="231" r="4" />
<circle cx="93" cy="237" r="4" />
<circle cx="88" cy="231" r="4" />
<circle cx="89" cy="243" r="4" />
<circle cx="80" cy="241" r="4" />
<circle cx="79" cy="246" r="4" />
<circle cx="73" cy="242" r="4" />
<circle cx="68" cy="243" r="4" />
<circle cx="239" cy="268" r="4" />
<circle cx="77" cy="257" r="4" />
<circle cx="84" cy="257" r="4" />
<circle cx="76" cy="265" r="4" />
<circle cx="77" cy="262" r="4" />
<circle cx="70" cy="266" r="4" />
<circle cx="62" cy="266" r="4" />
<circle cx="69" cy="260" r="4" />
<circle cx="61" cy="259" r="4" />
<circle cx="69" cy="263" r="4" />
<circle cx="57" cy="263" r="4" />
<circle cx="247" cy="268" r="4" />
<circle cx="54" cy="265" r="4" />
<circle cx="48" cy="258" r="4" />
<circle cx="55" cy="255" r="4" />
<circle cx="61" cy="254" r="4" />
<circle cx="66" cy="247" r="4" />
<circle cx="76" cy="246" r="4" />
<circle cx="61" cy="236" r="4" />
<circle cx="64" cy="236" r="4" />
<circle cx="63" cy="230" r="4" />
<circle cx="63" cy="226" r="4" />
<circle cx="248" cy="274" r="4" />
<circle cx="54" cy="227" r="4" />
<circle cx="52" cy="230" r="4" />
<circle cx="57" cy="239" r="4" />
<circle cx="59" cy="251" r="4" />
<circle cx="65" cy="256" r="4" />
<circle cx="99" cy="238" r="4" />
<circle cx="115" cy="247" r="4" />
<circle cx="136" cy="263" r="4" />
<circle cx="144" cy="260" r="4" />
<circle cx="157" cy="249" r="4" />
<circle cx="220" cy="274" r="4" />
<circle cx="162" cy="245" r="4" />
<circle cx="176" cy="250" r="4" />
<circle cx="181" cy="256" r="4" />
<circle cx="175" cy="266" r="4" />
<circle cx="177" cy="275" r="4" />
<circle cx="181" cy="272" r="4" />
<circle cx="183" cy="272" r="4" />
<circle cx="182" cy="266" r="4" />
<circle cx="182" cy="263" r="4" />
<circle cx="195" cy="267" r="4" />
<circle cx="216" cy="269" r="4" />
<circle cx="192" cy="267" r="4" />
<circle cx="193" cy="264" r="4" />
<circle cx="199" cy="256" r="4" />
<circle cx="205" cy="254" r="4" />
<circle cx="200" cy="248" r="4" />
<circle cx="198" cy="246" r="4" />
<circle cx="214" cy="272" r="4" />
<circle cx="212" cy="269" r="4" />
<circle cx="212" cy="266" r="4" />
<circle cx="232" cy="255" r="4" />
<circle cx="208" cy="266" r="4" />
<circle cx="215" cy="262" r="4" />
<circle cx="217" cy="257" r="4" />
<circle cx="215" cy="253" r="4" />
<circle cx="219" cy="245" r="4" />
<circle cx="217" cy="251" r="4" />
<circle cx="215" cy="246" r="4" />
<circle cx="210" cy="247" r="4" />
<circle cx="210" cy="255" r="4" />
<circle cx="202" cy="258" r="4" />
<circle cx="234" cy="265" r="4" />
<circle cx="194" cy="260" r="4" />
<circle cx="192" cy="251" r="4" />
<circle cx="192" cy="246" r="4" />
<circle cx="186" cy="248" r="4" />
<circle cx="184" cy="245" r="4" />
<circle cx="186" cy="242" r="4" />
<circle cx="194" cy="239" r="4" />
<circle cx="196" cy="236" r="4" />
<circle cx="199" cy="238" r="4" />
<circle cx="204" cy="232" r="4" />
<circle cx="226" cy="265" r="4" />
<circle cx="207" cy="232" r="4" />
<circle cx="212" cy="232" r="4" />
<circle cx="216" cy="236" r="4" />
<circle cx="173" cy="251" r="4" />
<circle cx="165" cy="247" r="4" />
<circle cx="161" cy="242" r="4" />
<circle cx="162" cy="253" r="4" />
<circle cx="164" cy="258" r="4" />
<circle cx="163" cy="265" r="4" />
<circle cx="169" cy="266" r="4" />
<circle cx="223" cy="260" r="4" />
<circle cx="172" cy="272" r="4" />
<circle cx="169" cy="270" r="4" />
<circle cx="164" cy="271" r="4" />
<circle cx="160" cy="267" r="4" />
<circle cx="153" cy="255" r="4" />
<circle cx="149" cy="261" r="4" />
<circle cx="148" cy="267" r="4" />
<circle cx="152" cy="278" r="4" />
<circle cx="147" cy="282" r="4" />
<circle cx="157" cy="276" r="4" />
<circle cx="219" cy="262" r="4" />
<circle cx="139" cy="281" r="4" />
<circle cx="142" cy="278" r="4" />
<circle cx="139" cy="275" r="4" />
<circle cx="137" cy="272" r="4" />
<circle cx="133" cy="279" r="4" />
<circle cx="129" cy="278" r="4" />
<circle cx="125" cy="280" r="4" />
<circle cx="121" cy="276" r="4" />
<circle cx="120" cy="280" r="4" />
<circle cx="117" cy="281" r="4" />
<circle cx="221" cy="267" r="4" />
<circle cx="117" cy="284" r="4" />
<circle cx="113" cy="283" r="4" />
<circle cx="115" cy="278" r="4" />
<circle cx="116" cy="275" r="4" />
<circle cx="114" cy="275" r="4" />
<circle cx="109" cy="282" r="4" />
<circle cx="120" cy="262" r="4" />
<circle cx="126" cy="262" r="4" />
<circle cx="126" cy="258" r="4" />
<circle cx="132" cy="255" r="4" />
<circle cx="224" cy="270" r="4" />
<circle cx="136" cy="252" r="4" />
<circle cx="139" cy="251" r="4" />
<circle cx="141" cy="254" r="4" />
<circle cx="136" cy="256" r="4" />
<circle cx="145" cy="246" r="4" />
<circle cx="146" cy="242" r="4" />
<circle cx="148" cy="238" r="4" />
<circle cx="154" cy="239" r="4" />
<circle cx="152" cy="237" r="4" />
<circle cx="146" cy="233" r="4" />
<circle cx="228" cy="272" r="4" />
<circle cx="138" cy="233" r="4" />
<circle cx="137" cy="241" r="4" />
<circle cx="142" cy="242" r="4" />
<circle cx="129" cy="248" r="4" />
<circle cx="126" cy="239" r="4" />
<circle cx="123" cy="232" r="4" />
<circle cx="125" cy="229" r="4" />
<circle cx="114" cy="234" r="4" />
<circle cx="103" cy="233" r="4" />
<circle cx="103" cy="240" r="4" />
</g>
</g>
</svg>