<?xml version="1.0" encoding="utf-8"?>
<svg xmlns="http://www.w3.org/2000/svg" width="300" height="300" viewBox="0 0 300 300" class="creatureMap" style="position:absolute;">
    <defs>
        <filter id="blur" x="-30%" y="-30%" width="160%" height="160%">
            <feGaussianBlur stdDeviation="3" />
        </filter>
        <pattern id="pattern-untameable" width="10" height="10" patternTransform="rotate(135)" patternUnits="userSpaceOnUse">'
            <rect width="4" height="10" fill="black"></rect>
        </pattern>
        <filter id="groupStroke">
            <feFlood result="outsideColor" flood-color="black"/>
            <feMorphology in="SourceAlpha" operator="dilate" radius="2"/>
            <feComposite result="strokeoutline1" in="outsideColor" operator="in"/>
            <feComposite result="strokeoutline2" in="strokeoutline1" in2="SourceAlpha" operator="out"/>
            <feGaussianBlur in="strokeoutline2" result="strokeblur" stdDeviation="1"/>
        </filter>
        <style>
            .spawningMap-very-common { fill: #0F0; }
            .spawningMap-common { fill: #B2FF00; }
            .spawningMap-uncommon { fill: #FF0; }
            .spawningMap-very-uncommon { fill: #FC0; }
            .spawningMap-rare { fill: #F60; }
            .spawningMap-very-rare { fill: #F00; }
            .spawning-map-point { stroke:black; stroke-width:1; }
        </style>
    </defs>

<g filter="url(#blur)" opacity="0.7">
<g class="spawningMap-very-rare">
<rect x="34" y="277" width="16" height="15" />
<rect x="171" y="277" width="15" height="15" />
<rect x="76" y="3" width="16" height="16" />
<rect x="87" y="3" width="15" height="16" />
<rect x="97" y="3" width="16" height="16" />
<rect x="108" y="14" width="15" height="15" />
<rect x="97" y="14" width="16" height="15" />
<rect x="87" y="14" width="15" height="15" />
<rect x="76" y="14" width="16" height="15" />
<rect x="87" y="24" width="15" height="16" />
<rect x="97" y="24" width="16" height="16" />
<rect x="108" y="24" width="15" height="16" />
<rect x="108" y="35" width="15" height="15" />
<rect x="97" y="35" width="16" height="15" />
<rect x="87" y="35" width="15" height="15" />
<rect x="118" y="3" width="16" height="16" />
<rect x="129" y="3" width="15" height="16" />
<rect x="139" y="3" width="16" height="16" />
<rect x="118" y="14" width="16" height="15" />
<rect x="118" y="24" width="16" height="16" />
<rect x="118" y="35" width="16" height="15" />
<rect x="129" y="35" width="15" height="15" />
<rect x="129" y="24" width="15" height="16" />
<rect x="139" y="24" width="16" height="16" />
<rect x="139" y="14" width="16" height="15" />
<rect x="150" y="14" width="15" height="15" />
<rect x="150" y="24" width="15" height="16" />
<rect x="150" y="35" width="15" height="15" />
<rect x="139" y="35" width="16" height="15" />
<rect x="169" y="0" width="19" height="3" />
<rect x="118" y="0" width="16" height="8" />
<rect x="286" y="172" width="14" height="15" />
<rect x="129" y="0" width="15" height="8" />
</g>
</g>
</svg>