<?xml version="1.0" encoding="utf-8"?>
<svg xmlns="http://www.w3.org/2000/svg" width="300" height="300"
        viewBox="0 0 300 300" class="creatureMap" style="position:absolute;">
    <defs>
        <filter id="blur" x="-30%" y="-30%" width="160%" height="160%">
            <feGaussianBlur stdDeviation="3" />
        </filter>
        <pattern id="pattern-untameable" width="10" height="10" patternTransform="rotate(135)" patternUnits="userSpaceOnUse">
            <rect width="4" height="10" fill="black"></rect>
        </pattern>
        <filter id="groupStroke">
            <feFlood result="outsideColor" flood-color="black"/>
            <feMorphology in="SourceAlpha" operator="dilate" radius="2"/>
            <feComposite result="strokeoutline1" in="outsideColor" operator="in"/>
            <feComposite result="strokeoutline2" in="strokeoutline1" in2="SourceAlpha" operator="out"/>
            <feGaussianBlur in="strokeoutline2" result="strokeblur" stdDeviation="1"/>
        </filter>
        <style>
            .spawningMap-very-common { fill: #0F0; }
            .spawningMap-common { fill: #B2FF00; }
            .spawningMap-uncommon { fill: #FF0; }
            .spawningMap-very-uncommon { fill: #FC0; }
            .spawningMap-rare { fill: #F60; }
            .spawningMap-very-rare { fill: #F00; }
            .spawning-map-point { stroke:black; stroke-width:1; }
        </style>
    </defs>

<g filter="url(#blur)" opacity="0.7">
<g class="spawningMap-uncommon">
<rect x="51" y="108" width="16" height="17" />
<rect x="118" y="107" width="17" height="17" />
<rect x="119" y="73" width="16" height="17" />
<rect x="119" y="62" width="16" height="16" />
<rect x="130" y="107" width="16" height="17" />
<rect x="141" y="96" width="17" height="17" />
<rect x="141" y="107" width="17" height="17" />
<rect x="141" y="62" width="16" height="16" />
<rect x="61" y="119" width="17" height="17" />
<rect x="141" y="73" width="17" height="16" />
<rect x="144" y="16" width="17" height="17" />
<rect x="155" y="16" width="17" height="17" />
<rect x="38" y="108" width="17" height="16" />
<rect x="27" y="108" width="17" height="16" />
<rect x="152" y="39" width="16" height="17" />
<rect x="61" y="62" width="16" height="16" />
<rect x="72" y="62" width="17" height="16" />
<rect x="102" y="9" width="17" height="16" />
<rect x="114" y="9" width="16" height="16" />
<rect x="80" y="17" width="16" height="16" />
<rect x="72" y="28" width="17" height="16" />
<rect x="72" y="39" width="17" height="17" />
<rect x="50" y="131" width="16" height="16" />
<rect x="72" y="50" width="17" height="17" />
<rect x="84" y="50" width="16" height="17" />
<rect x="95" y="50" width="16" height="17" />
<rect x="106" y="50" width="17" height="17" />
<rect x="118" y="50" width="16" height="17" />
<rect x="129" y="50" width="17" height="17" />
<rect x="140" y="50" width="17" height="17" />
<rect x="50" y="153" width="17" height="17" />
<rect x="50" y="119" width="16" height="17" />
<rect x="144" y="28" width="17" height="16" />
<rect x="155" y="28" width="17" height="16" />
<rect x="62" y="97" width="17" height="16" />
<rect x="51" y="97" width="16" height="16" />
<rect x="95" y="73" width="17" height="16" />
<rect x="107" y="73" width="16" height="16" />
<rect x="130" y="62" width="16" height="16" />
<rect x="73" y="108" width="16" height="16" />
<rect x="73" y="119" width="16" height="17" />
<rect x="84" y="119" width="16" height="17" />
<rect x="73" y="131" width="16" height="16" />
<rect x="73" y="142" width="16" height="16" />
<rect x="61" y="142" width="17" height="16" />
<rect x="50" y="142" width="16" height="16" />
<rect x="95" y="96" width="17" height="17" />
<rect x="107" y="84" width="16" height="17" />
<rect x="118" y="84" width="17" height="17" />
<rect x="118" y="96" width="17" height="16" />
<rect x="130" y="96" width="16" height="16" />
<rect x="130" y="84" width="16" height="17" />
<rect x="130" y="73" width="16" height="16" />
<rect x="91" y="9" width="16" height="16" />
<rect x="140" y="39" width="17" height="17" />
<rect x="62" y="108" width="17" height="16" />
<rect x="84" y="108" width="17" height="16" />
<rect x="95" y="108" width="17" height="16" />
<rect x="107" y="108" width="16" height="16" />
<rect x="73" y="96" width="16" height="17" />
<rect x="84" y="96" width="17" height="17" />
<rect x="38" y="142" width="17" height="16" />
<rect x="107" y="96" width="16" height="17" />
<rect x="73" y="84" width="16" height="17" />
<rect x="84" y="84" width="17" height="17" />
<rect x="95" y="84" width="17" height="17" />
<rect x="73" y="73" width="16" height="16" />
<rect x="84" y="73" width="17" height="16" />
<rect x="62" y="85" width="17" height="17" />
</g>
<g class="spawningMap-common">
<rect x="65" y="50" width="12" height="17" />
<rect x="123" y="124" width="16" height="17" />
<rect x="84" y="220" width="17" height="16" />
<rect x="107" y="220" width="16" height="16" />
<rect x="96" y="209" width="16" height="16" />
<rect x="96" y="197" width="16" height="17" />
<rect x="96" y="186" width="16" height="16" />
<rect x="96" y="220" width="16" height="16" />
<rect x="84" y="209" width="17" height="16" />
<rect x="84" y="197" width="17" height="17" />
<rect x="84" y="186" width="17" height="16" />
<rect x="164" y="220" width="16" height="16" />
<rect x="152" y="220" width="17" height="16" />
<rect x="141" y="220" width="16" height="16" />
<rect x="130" y="220" width="16" height="16" />
<rect x="73" y="220" width="16" height="16" />
<rect x="61" y="220" width="17" height="16" />
<rect x="107" y="231" width="16" height="17" />
<rect x="130" y="209" width="16" height="16" />
<rect x="130" y="197" width="16" height="17" />
<rect x="118" y="209" width="17" height="16" />
<rect x="96" y="231" width="16" height="17" />
<rect x="84" y="233" width="17" height="17" />
<rect x="73" y="231" width="16" height="17" />
<rect x="61" y="231" width="17" height="17" />
<rect x="107" y="243" width="16" height="16" />
<rect x="96" y="243" width="16" height="16" />
<rect x="84" y="243" width="17" height="16" />
<rect x="118" y="197" width="17" height="17" />
<rect x="73" y="243" width="16" height="16" />
<rect x="118" y="186" width="17" height="16" />
<rect x="118" y="175" width="17" height="16" />
<rect x="73" y="209" width="16" height="16" />
<rect x="73" y="197" width="16" height="17" />
<rect x="73" y="186" width="16" height="16" />
<rect x="61" y="209" width="17" height="16" />
<rect x="198" y="197" width="16" height="17" />
<rect x="186" y="197" width="17" height="17" />
<rect x="175" y="197" width="17" height="17" />
<rect x="198" y="186" width="16" height="16" />
<rect x="186" y="186" width="17" height="16" />
<rect x="175" y="186" width="17" height="16" />
<rect x="164" y="209" width="16" height="16" />
<rect x="164" y="197" width="16" height="17" />
<rect x="107" y="254" width="16" height="17" />
<rect x="96" y="254" width="16" height="17" />
<rect x="84" y="254" width="17" height="16" />
<rect x="107" y="265" width="16" height="17" />
<rect x="96" y="265" width="16" height="17" />
<rect x="118" y="231" width="17" height="17" />
<rect x="118" y="243" width="17" height="16" />
<rect x="118" y="254" width="17" height="17" />
<rect x="130" y="243" width="16" height="16" />
<rect x="186" y="251" width="16" height="16" />
<rect x="186" y="262" width="16" height="17" />
<rect x="186" y="273" width="16" height="17" />
<rect x="174" y="262" width="17" height="17" />
<rect x="170" y="234" width="17" height="17" />
<rect x="170" y="246" width="17" height="16" />
<rect x="198" y="220" width="16" height="16" />
<rect x="186" y="220" width="17" height="16" />
<rect x="198" y="209" width="16" height="16" />
<rect x="186" y="209" width="17" height="16" />
<rect x="175" y="209" width="17" height="16" />
<rect x="231" y="205" width="17" height="17" />
<rect x="242" y="205" width="17" height="17" />
<rect x="242" y="216" width="17" height="17" />
<rect x="242" y="228" width="17" height="16" />
<rect x="242" y="239" width="17" height="17" />
<rect x="242" y="250" width="17" height="17" />
<rect x="242" y="262" width="17" height="16" />
<rect x="254" y="262" width="16" height="16" />
<rect x="242" y="273" width="17" height="17" />
<rect x="231" y="273" width="17" height="17" />
<rect x="231" y="285" width="17" height="15" />
<rect x="220" y="285" width="16" height="15" />
<rect x="208" y="285" width="17" height="15" />
<rect x="197" y="285" width="17" height="15" />
<rect x="197" y="273" width="17" height="17" />
<rect x="175" y="220" width="17" height="16" />
<rect x="197" y="262" width="17" height="16" />
<rect x="208" y="262" width="17" height="16" />
<rect x="220" y="262" width="16" height="16" />
<rect x="107" y="209" width="16" height="16" />
<rect x="220" y="250" width="16" height="17" />
<rect x="220" y="239" width="16" height="17" />
<rect x="231" y="239" width="16" height="17" />
<rect x="231" y="228" width="16" height="16" />
<rect x="231" y="216" width="16" height="17" />
<rect x="220" y="216" width="16" height="17" />
<rect x="220" y="228" width="16" height="16" />
<rect x="197" y="239" width="16" height="17" />
<rect x="197" y="251" width="16" height="16" />
<rect x="107" y="197" width="16" height="17" />
<rect x="208" y="251" width="17" height="16" />
<rect x="164" y="186" width="16" height="16" />
<rect x="152" y="209" width="17" height="16" />
<rect x="152" y="197" width="17" height="17" />
<rect x="152" y="186" width="17" height="16" />
<rect x="141" y="197" width="16" height="17" />
<rect x="141" y="186" width="16" height="16" />
<rect x="130" y="186" width="16" height="16" />
<rect x="130" y="175" width="16" height="16" />
<rect x="220" y="182" width="16" height="17" />
<rect x="231" y="194" width="17" height="16" />
<rect x="141" y="209" width="16" height="16" />
<rect x="137" y="202" width="17" height="17" />
<rect x="149" y="202" width="16" height="17" />
<rect x="111" y="120" width="17" height="16" />
<rect x="111" y="131" width="17" height="17" />
<rect x="123" y="136" width="16" height="16" />
<rect x="107" y="186" width="16" height="16" />
<rect x="107" y="175" width="16" height="16" />
</g>
<g class="spawningMap-very-common">
<rect x="58" y="150" width="7" height="8" />
<rect x="54" y="147" width="7" height="7" />
<rect x="61" y="146" width="8" height="7" />
<rect x="53" y="149" width="7" height="7" />
<rect x="53" y="151" width="10" height="7" />
<rect x="58" y="146" width="7" height="6" />
<rect x="57" y="149" width="9" height="7" />
<rect x="60" y="148" width="7" height="7" />
<rect x="57" y="146" width="7" height="7" />
<rect x="56" y="147" width="7" height="7" />
<rect x="63" y="149" width="7" height="8" />
<rect x="70" y="247" width="8" height="8" />
<rect x="61" y="150" width="7" height="7" />
<rect x="181" y="273" width="10" height="10" />
<rect x="209" y="213" width="17" height="12" />
<rect x="225" y="205" width="11" height="17" />
<rect x="254" y="246" width="12" height="17" />
<rect x="60" y="149" width="6" height="7" />
<rect x="220" y="211" width="11" height="11" />
<rect x="254" y="246" width="12" height="17" />
<rect x="209" y="194" width="11" height="16" />
<rect x="209" y="186" width="17" height="13" />
<rect x="226" y="194" width="10" height="16" />
<rect x="209" y="205" width="11" height="13" />
</g>
</g>
<g filter="url(#groupStroke)" opacity="0.8">
<rect x="58" y="150" width="7" height="8"/>
<rect x="54" y="147" width="7" height="7"/>
<rect x="61" y="146" width="8" height="7"/>
<rect x="53" y="149" width="7" height="7"/>
<rect x="53" y="151" width="10" height="7"/>
<rect x="58" y="146" width="7" height="6"/>
<rect x="57" y="149" width="9" height="7"/>
<rect x="60" y="148" width="7" height="7"/>
<rect x="57" y="146" width="7" height="7"/>
<rect x="56" y="147" width="7" height="7"/>
<rect x="63" y="149" width="7" height="8"/>
<rect x="61" y="150" width="7" height="7"/>
<rect x="60" y="149" width="6" height="7"/>
</g>
</svg>