<?xml version="1.0" encoding="utf-8"?>
<svg xmlns="http://www.w3.org/2000/svg" width="300" height="300" viewBox="0 0 300 300" class="creatureMap" style="position:absolute;">
    <defs>
        <filter id="blur" x="-30%" y="-30%" width="160%" height="160%">
            <feGaussianBlur stdDeviation="3" />
        </filter>
        <pattern id="pattern-untameable" width="10" height="10" patternTransform="rotate(135)" patternUnits="userSpaceOnUse">'
            <rect width="4" height="10" fill="black"></rect>
        </pattern>
        <filter id="groupStroke">
            <feFlood result="outsideColor" flood-color="black"/>
            <feMorphology in="SourceAlpha" operator="dilate" radius="2"/>
            <feComposite result="strokeoutline1" in="outsideColor" operator="in"/>
            <feComposite result="strokeoutline2" in="strokeoutline1" in2="SourceAlpha" operator="out"/>
            <feGaussianBlur in="strokeoutline2" result="strokeblur" stdDeviation="1"/>
        </filter>
        <style>
            .spawningMap-very-common { fill: #0F0; }
            .spawningMap-common { fill: #B2FF00; }
            .spawningMap-uncommon { fill: #FF0; }
            .spawningMap-very-uncommon { fill: #FC0; }
            .spawningMap-rare { fill: #F60; }
            .spawningMap-very-rare { fill: #F00; }
            .spawning-map-point { stroke:black; stroke-width:1; }
        </style>
    </defs>

<g filter="url(#blur)" opacity="0.7">
<g class="spawningMap-very-rare">
<rect x="51" y="108" width="16" height="17" />
<rect x="141" y="62" width="16" height="16" />
<rect x="61" y="119" width="17" height="17" />
<rect x="141" y="73" width="17" height="16" />
<rect x="144" y="16" width="17" height="17" />
<rect x="155" y="16" width="17" height="17" />
<rect x="38" y="108" width="17" height="16" />
<rect x="27" y="108" width="17" height="16" />
<rect x="152" y="39" width="16" height="17" />
<rect x="61" y="62" width="16" height="16" />
<rect x="72" y="62" width="17" height="16" />
<rect x="102" y="9" width="17" height="16" />
<rect x="114" y="9" width="16" height="16" />
<rect x="80" y="17" width="16" height="16" />
<rect x="72" y="28" width="17" height="16" />
<rect x="72" y="39" width="17" height="17" />
<rect x="50" y="131" width="16" height="16" />
<rect x="72" y="50" width="17" height="17" />
<rect x="84" y="50" width="16" height="17" />
<rect x="95" y="50" width="16" height="17" />
<rect x="106" y="50" width="17" height="17" />
<rect x="118" y="50" width="16" height="17" />
<rect x="129" y="50" width="17" height="17" />
<rect x="140" y="50" width="17" height="17" />
<rect x="50" y="153" width="17" height="17" />
<rect x="50" y="119" width="16" height="17" />
<rect x="144" y="28" width="17" height="16" />
<rect x="155" y="28" width="17" height="16" />
<rect x="62" y="97" width="17" height="16" />
<rect x="51" y="97" width="16" height="16" />
<rect x="95" y="73" width="17" height="16" />
<rect x="107" y="73" width="16" height="16" />
<rect x="130" y="62" width="16" height="16" />
<rect x="73" y="108" width="16" height="16" />
<rect x="73" y="119" width="16" height="17" />
<rect x="84" y="119" width="16" height="17" />
<rect x="73" y="131" width="16" height="16" />
<rect x="73" y="142" width="16" height="16" />
<rect x="61" y="142" width="17" height="16" />
<rect x="50" y="142" width="16" height="16" />
<rect x="95" y="96" width="17" height="17" />
<rect x="107" y="84" width="16" height="17" />
<rect x="118" y="84" width="17" height="17" />
<rect x="118" y="96" width="17" height="16" />
<rect x="130" y="96" width="16" height="16" />
<rect x="130" y="84" width="16" height="17" />
<rect x="130" y="73" width="16" height="16" />
<rect x="91" y="9" width="16" height="16" />
<rect x="140" y="39" width="17" height="17" />
<rect x="62" y="108" width="17" height="16" />
<rect x="84" y="108" width="17" height="16" />
<rect x="95" y="108" width="17" height="16" />
<rect x="107" y="108" width="16" height="16" />
<rect x="73" y="96" width="16" height="17" />
<rect x="84" y="96" width="17" height="17" />
<rect x="38" y="142" width="17" height="16" />
<rect x="107" y="96" width="16" height="17" />
<rect x="73" y="84" width="16" height="17" />
<rect x="84" y="84" width="17" height="17" />
<rect x="95" y="84" width="17" height="17" />
<rect x="73" y="73" width="16" height="16" />
<rect x="84" y="73" width="17" height="16" />
<rect x="62" y="85" width="17" height="17" />
</g>
<g class="spawningMap-rare">
<rect x="118" y="107" width="17" height="17" />
<rect x="119" y="73" width="16" height="17" />
<rect x="119" y="62" width="16" height="16" />
<rect x="130" y="107" width="16" height="17" />
<rect x="141" y="96" width="17" height="17" />
<rect x="141" y="107" width="17" height="17" />
<rect x="65" y="50" width="12" height="17" />
</g>
</g>
</svg>