<?xml version="1.0" encoding="utf-8"?>
<svg xmlns="http://www.w3.org/2000/svg" width="300" height="300" viewBox="0 0 300 300" class="creatureMap" style="position:absolute;">
    <defs>
        <filter id="blur" x="-30%" y="-30%" width="160%" height="160%">
            <feGaussianBlur stdDeviation="3" />
        </filter>
        <pattern id="pattern-untameable" width="10" height="10" patternTransform="rotate(135)" patternUnits="userSpaceOnUse">'
            <rect width="4" height="10" fill="black"></rect>
        </pattern>
        <filter id="groupStroke">
            <feFlood result="outsideColor" flood-color="black"/>
            <feMorphology in="SourceAlpha" operator="dilate" radius="2"/>
            <feComposite result="strokeoutline1" in="outsideColor" operator="in"/>
            <feComposite result="strokeoutline2" in="strokeoutline1" in2="SourceAlpha" operator="out"/>
            <feGaussianBlur in="strokeoutline2" result="strokeblur" stdDeviation="1"/>
        </filter>
        <style>
            .spawningMap-very-common { fill: #0F0; }
            .spawningMap-common { fill: #B2FF00; }
            .spawningMap-uncommon { fill: #FF0; }
            .spawningMap-very-uncommon { fill: #FC0; }
            .spawningMap-rare { fill: #F60; }
            .spawningMap-very-rare { fill: #F00; }
            .spawning-map-point { stroke:black; stroke-width:1; }
        </style>
    </defs>

<g filter="url(#blur)" opacity="0.7">
<g class="spawningMap-very-common">
<rect x="144" y="114" width="12" height="12" />
<rect x="112" y="81" width="13" height="16" />
<rect x="114" y="43" width="16" height="13" />
<rect x="137" y="31" width="13" height="12" />
<rect x="91" y="20" width="16" height="16" />
<rect x="91" y="43" width="16" height="13" />
<rect x="141" y="64" width="12" height="13" />
<rect x="134" y="68" width="12" height="13" />
<rect x="127" y="72" width="12" height="13" />
<rect x="120" y="77" width="12" height="13" />
<rect x="127" y="94" width="12" height="13" />
<rect x="134" y="99" width="13" height="15" />
<rect x="142" y="106" width="12" height="13" />
<rect x="120" y="91" width="12" height="13" />
<rect x="112" y="95" width="13" height="13" />
<rect x="105" y="85" width="12" height="15" />
<rect x="105" y="95" width="12" height="13" />
<rect x="97" y="87" width="13" height="14" />
<rect x="90" y="86" width="12" height="14" />
<rect x="83" y="92" width="12" height="13" />
<rect x="80" y="100" width="12" height="13" />
<rect x="77" y="108" width="13" height="13" />
<rect x="70" y="114" width="12" height="13" />
<rect x="102" y="43" width="17" height="13" />
<rect x="137" y="9" width="13" height="16" />
<rect x="137" y="20" width="13" height="16" />
<rect x="114" y="31" width="16" height="17" />
<rect x="114" y="20" width="16" height="16" />
<rect x="102" y="20" width="17" height="16" />
<rect x="125" y="9" width="17" height="16" />
<rect x="125" y="20" width="17" height="16" />
<rect x="125" y="31" width="17" height="17" />
<rect x="102" y="31" width="17" height="17" />
<rect x="91" y="31" width="16" height="17" />
</g>
</g>
</svg>