<?xml version="1.0" encoding="utf-8"?>
<svg xmlns="http://www.w3.org/2000/svg" width="300" height="300"
        viewBox="0 0 300 300" class="creatureMap" style="position:absolute;">
    <defs>
        <filter id="blur" x="-30%" y="-30%" width="160%" height="160%">
            <feGaussianBlur stdDeviation="3" />
        </filter>
        <pattern id="pattern-untameable" width="10" height="10" patternTransform="rotate(135)" patternUnits="userSpaceOnUse">
            <rect width="4" height="10" fill="black"></rect>
        </pattern>
        <filter id="groupStroke">
            <feFlood result="outsideColor" flood-color="black"/>
            <feMorphology in="SourceAlpha" operator="dilate" radius="2"/>
            <feComposite result="strokeoutline1" in="outsideColor" operator="in"/>
            <feComposite result="strokeoutline2" in="strokeoutline1" in2="SourceAlpha" operator="out"/>
            <feGaussianBlur in="strokeoutline2" result="strokeblur" stdDeviation="1"/>
        </filter>
        <style>
            .spawningMap-very-common { fill: #0F0; }
            .spawningMap-common { fill: #B2FF00; }
            .spawningMap-uncommon { fill: #FF0; }
            .spawningMap-very-uncommon { fill: #FC0; }
            .spawningMap-rare { fill: #F60; }
            .spawningMap-very-rare { fill: #F00; }
            .spawning-map-point { stroke:black; stroke-width:1; }
        </style>
    </defs>

<g filter="url(#blur)" opacity="0.7">
<g class="spawningMap-very-rare">
<rect x="154" y="122" width="23" height="11" />
<rect x="164" y="70" width="16" height="16" />
<rect x="157" y="8" width="19" height="25" />
<rect x="173" y="7" width="14" height="14" />
<rect x="131" y="18" width="17" height="18" />
<rect x="126" y="35" width="18" height="18" />
<rect x="126" y="56" width="18" height="18" />
<rect x="130" y="74" width="18" height="18" />
<rect x="123" y="78" width="13" height="18" />
<rect x="123" y="89" width="14" height="18" />
<rect x="123" y="108" width="26" height="17" />
<rect x="123" y="14" width="12" height="14" />
<rect x="149" y="108" width="14" height="14" />
<rect x="171" y="104" width="14" height="14" />
<rect x="181" y="103" width="14" height="14" />
<rect x="179" y="118" width="17" height="15" />
<rect x="182" y="78" width="16" height="16" />
<rect x="123" y="121" width="26" height="11" />
<rect x="179" y="58" width="19" height="21" />
<rect x="175" y="39" width="22" height="19" />
<rect x="149" y="28" width="24" height="19" />
<rect x="131" y="8" width="14" height="14" />
</g>
<g class="spawningMap-rare">
<rect x="255" y="232" width="13" height="17" />
<rect x="264" y="261" width="11" height="10" />
</g>
<g class="spawningMap-very-uncommon">
<rect x="235" y="183" width="12" height="12" />
<rect x="233" y="213" width="16" height="11" />
<rect x="233" y="213" width="11" height="10" />
<rect x="234" y="219" width="10" height="8" />
<rect x="232" y="227" width="10" height="10" />
<rect x="228" y="225" width="13" height="11" />
<rect x="235" y="221" width="10" height="9" />
<rect x="240" y="228" width="8" height="8" />
<rect x="231" y="226" width="8" height="9" />
<rect x="223" y="230" width="20" height="10" />
<rect x="239" y="219" width="11" height="26" />
<rect x="219" y="230" width="10" height="9" />
<rect x="250" y="211" width="9" height="9" />
<rect x="250" y="209" width="8" height="9" />
<rect x="247" y="208" width="7" height="8" />
<rect x="245" y="212" width="9" height="10" />
<rect x="245" y="218" width="9" height="17" />
<rect x="253" y="223" width="9" height="9" />
</g>
</g>
</svg>