<?xml version="1.0" encoding="utf-8"?>
<svg xmlns="http://www.w3.org/2000/svg" width="300" height="300"
        viewBox="0 0 300 300" class="creatureMap" style="position:absolute;">
    <defs>
        <filter id="blur" x="-30%" y="-30%" width="160%" height="160%">
            <feGaussianBlur stdDeviation="3" />
        </filter>
        <pattern id="pattern-untameable" width="10" height="10" patternTransform="rotate(135)" patternUnits="userSpaceOnUse">
            <rect width="4" height="10" fill="black"></rect>
        </pattern>
        <filter id="groupStroke">
            <feFlood result="outsideColor" flood-color="black"/>
            <feMorphology in="SourceAlpha" operator="dilate" radius="2"/>
            <feComposite result="strokeoutline1" in="outsideColor" operator="in"/>
            <feComposite result="strokeoutline2" in="strokeoutline1" in2="SourceAlpha" operator="out"/>
            <feGaussianBlur in="strokeoutline2" result="strokeblur" stdDeviation="1"/>
        </filter>
        <style>
            .spawningMap-very-common { fill: #0F0; }
            .spawningMap-common { fill: #B2FF00; }
            .spawningMap-uncommon { fill: #FF0; }
            .spawningMap-very-uncommon { fill: #FC0; }
            .spawningMap-rare { fill: #F60; }
            .spawningMap-very-rare { fill: #F00; }
            .spawning-map-point { stroke:black; stroke-width:1; }
        </style>
    </defs>

<g filter="url(#blur)" opacity="0.7">
<g class="spawningMap-rare">
<rect x="4" y="184" width="20" height="12" />
<rect x="4" y="191" width="20" height="18" />
<rect x="4" y="204" width="20" height="19" />
<rect x="4" y="217" width="20" height="19" />
<rect x="4" y="231" width="20" height="18" />
<rect x="4" y="244" width="20" height="18" />
<rect x="4" y="257" width="20" height="18" />
<rect x="4" y="270" width="20" height="19" />
<rect x="4" y="283" width="20" height="15" />
</g>
<g class="spawningMap-very-uncommon">
<rect x="46" y="217" width="18" height="19" />
<rect x="46" y="244" width="18" height="18" />
<rect x="32" y="184" width="19" height="12" />
<rect x="32" y="191" width="19" height="18" />
<rect x="32" y="217" width="19" height="19" />
<rect x="32" y="231" width="19" height="18" />
<rect x="32" y="244" width="19" height="18" />
<rect x="32" y="257" width="19" height="18" />
<rect x="32" y="270" width="19" height="19" />
<rect x="32" y="283" width="19" height="15" />
<rect x="19" y="184" width="19" height="12" />
<rect x="19" y="191" width="19" height="18" />
<rect x="19" y="204" width="19" height="19" />
<rect x="19" y="217" width="19" height="19" />
<rect x="19" y="231" width="19" height="18" />
<rect x="19" y="244" width="19" height="18" />
<rect x="19" y="257" width="19" height="18" />
<rect x="19" y="270" width="19" height="19" />
<rect x="19" y="283" width="19" height="15" />
<rect x="32" y="204" width="19" height="19" />
</g>
<g class="spawningMap-uncommon">
<rect x="285" y="155" width="15" height="16" />
<rect x="272" y="155" width="18" height="16" />
<rect x="285" y="166" width="15" height="18" />
<rect x="272" y="166" width="18" height="18" />
<rect x="285" y="179" width="15" height="18" />
<rect x="272" y="179" width="18" height="18" />
<rect x="285" y="192" width="15" height="19" />
<rect x="272" y="192" width="18" height="19" />
<rect x="245" y="272" width="19" height="18" />
<rect x="232" y="272" width="19" height="18" />
<rect x="245" y="285" width="19" height="14" />
<rect x="232" y="285" width="19" height="14" />
</g>
</g>
</svg>