<?xml version="1.0" encoding="utf-8"?>
<svg xmlns="http://www.w3.org/2000/svg" width="300" height="300"
        viewBox="0 0 300 300" class="creatureMap" style="position:absolute;">
    <defs>
        <filter id="blur" x="-30%" y="-30%" width="160%" height="160%">
            <feGaussianBlur stdDeviation="3" />
        </filter>
        <pattern id="pattern-untameable" width="10" height="10" patternTransform="rotate(135)" patternUnits="userSpaceOnUse">
            <rect width="4" height="10" fill="black"></rect>
        </pattern>
        <filter id="groupStroke">
            <feFlood result="outsideColor" flood-color="black"/>
            <feMorphology in="SourceAlpha" operator="dilate" radius="2"/>
            <feComposite result="strokeoutline1" in="outsideColor" operator="in"/>
            <feComposite result="strokeoutline2" in="strokeoutline1" in2="SourceAlpha" operator="out"/>
            <feGaussianBlur in="strokeoutline2" result="strokeblur" stdDeviation="1"/>
        </filter>
        <style>
            .spawningMap-very-common { fill: #0F0; }
            .spawningMap-common { fill: #B2FF00; }
            .spawningMap-uncommon { fill: #FF0; }
            .spawningMap-very-uncommon { fill: #FC0; }
            .spawningMap-rare { fill: #F60; }
            .spawningMap-very-rare { fill: #F00; }
            .spawning-map-point { stroke:black; stroke-width:1; }
        </style>
    </defs>

<g filter="url(#blur)" opacity="0.7">
<g class="spawningMap-very-uncommon">
<rect x="176" y="155" width="22" height="16" />
<rect x="259" y="179" width="18" height="18" />
<rect x="245" y="179" width="19" height="18" />
<rect x="232" y="179" width="19" height="18" />
<rect x="219" y="179" width="18" height="18" />
<rect x="259" y="192" width="18" height="19" />
<rect x="245" y="192" width="19" height="19" />
<rect x="232" y="192" width="19" height="19" />
<rect x="219" y="192" width="18" height="19" />
<rect x="206" y="192" width="18" height="19" />
<rect x="272" y="205" width="18" height="19" />
<rect x="259" y="205" width="18" height="19" />
<rect x="245" y="205" width="19" height="19" />
<rect x="232" y="205" width="19" height="19" />
<rect x="219" y="205" width="18" height="19" />
<rect x="206" y="205" width="18" height="19" />
<rect x="193" y="205" width="18" height="19" />
<rect x="259" y="219" width="18" height="18" />
<rect x="245" y="219" width="19" height="18" />
<rect x="232" y="219" width="19" height="18" />
<rect x="219" y="219" width="18" height="18" />
<rect x="206" y="219" width="18" height="18" />
<rect x="193" y="219" width="18" height="18" />
<rect x="259" y="232" width="18" height="18" />
<rect x="245" y="232" width="19" height="18" />
<rect x="232" y="232" width="19" height="18" />
<rect x="219" y="232" width="18" height="18" />
<rect x="245" y="245" width="19" height="19" />
<rect x="219" y="245" width="18" height="19" />
<rect x="259" y="258" width="18" height="19" />
<rect x="219" y="258" width="18" height="19" />
<rect x="272" y="271" width="18" height="19" />
<rect x="259" y="271" width="18" height="19" />
<rect x="219" y="271" width="18" height="19" />
<rect x="259" y="245" width="18" height="19" />
</g>
<g class="spawningMap-common">
<rect x="8" y="36" width="9" height="10" />
<rect x="11" y="38" width="9" height="10" />
</g>
</g>
<g filter="url(#groupStroke)" opacity="0.8">
<rect x="8" y="36" width="9" height="10"/>
<rect x="11" y="38" width="9" height="10"/>
</g>
</svg>