<?xml version="1.0" encoding="utf-8"?>
<svg xmlns="http://www.w3.org/2000/svg" width="300" height="300" viewBox="0 0 300 300" class="creatureMap" style="position:absolute;">
    <defs>
        <filter id="blur" x="-30%" y="-30%" width="160%" height="160%">
            <feGaussianBlur stdDeviation="3" />
        </filter>
        <pattern id="pattern-untameable" width="10" height="10" patternTransform="rotate(135)" patternUnits="userSpaceOnUse">'
            <rect width="4" height="10" fill="black"></rect>
        </pattern>
        <filter id="groupStroke">
            <feFlood result="outsideColor" flood-color="black"/>
            <feMorphology in="SourceAlpha" operator="dilate" radius="2"/>
            <feComposite result="strokeoutline1" in="outsideColor" operator="in"/>
            <feComposite result="strokeoutline2" in="strokeoutline1" in2="SourceAlpha" operator="out"/>
            <feGaussianBlur in="strokeoutline2" result="strokeblur" stdDeviation="1"/>
        </filter>
        <style>
            .spawningMap-very-common { fill: #0F0; }
            .spawningMap-common { fill: #B2FF00; }
            .spawningMap-uncommon { fill: #FF0; }
            .spawningMap-very-uncommon { fill: #FC0; }
            .spawningMap-rare { fill: #F60; }
            .spawningMap-very-rare { fill: #F00; }
            .spawning-map-point { stroke:black; stroke-width:1; }
        </style>
    </defs>

<g filter="url(#blur)" opacity="0.7">
<g class="spawningMap-rare">
<rect x="244" y="164" width="18" height="18" />
<rect x="257" y="164" width="18" height="18" />
<rect x="257" y="152" width="18" height="17" />
<rect x="270" y="152" width="18" height="17" />
<rect x="270" y="139" width="18" height="17" />
<rect x="257" y="139" width="18" height="17" />
<rect x="231" y="164" width="18" height="18" />
<rect x="102" y="203" width="18" height="17" />
<rect x="76" y="203" width="18" height="17" />
<rect x="76" y="215" width="18" height="18" />
<rect x="63" y="203" width="18" height="17" />
<rect x="50" y="190" width="18" height="17" />
<rect x="193" y="152" width="17" height="17" />
<rect x="167" y="177" width="18" height="18" />
<rect x="154" y="190" width="18" height="17" />
<rect x="154" y="203" width="18" height="17" />
<rect x="141" y="203" width="18" height="17" />
<rect x="128" y="203" width="18" height="17" />
<rect x="115" y="203" width="18" height="17" />
<rect x="154" y="215" width="18" height="18" />
<rect x="167" y="215" width="18" height="18" />
<rect x="180" y="215" width="18" height="18" />
<rect x="193" y="215" width="18" height="18" />
<rect x="193" y="203" width="17" height="17" />
<rect x="193" y="190" width="17" height="17" />
<rect x="193" y="177" width="17" height="18" />
</g>
</g>
<g fill="url(#pattern-untameable)" opacity="0.3">
<rect x="244" y="164" width="18" height="18"/>
<rect x="257" y="164" width="18" height="18"/>
<rect x="257" y="152" width="18" height="17"/>
<rect x="270" y="152" width="18" height="17"/>
<rect x="270" y="139" width="18" height="17"/>
<rect x="257" y="139" width="18" height="17"/>
<rect x="231" y="164" width="18" height="18"/>
<rect x="102" y="203" width="18" height="17"/>
<rect x="76" y="203" width="18" height="17"/>
<rect x="76" y="215" width="18" height="18"/>
<rect x="63" y="203" width="18" height="17"/>
<rect x="50" y="190" width="18" height="17"/>
<rect x="193" y="152" width="17" height="17"/>
<rect x="167" y="177" width="18" height="18"/>
<rect x="154" y="190" width="18" height="17"/>
<rect x="154" y="203" width="18" height="17"/>
<rect x="141" y="203" width="18" height="17"/>
<rect x="128" y="203" width="18" height="17"/>
<rect x="115" y="203" width="18" height="17"/>
<rect x="154" y="215" width="18" height="18"/>
<rect x="167" y="215" width="18" height="18"/>
<rect x="180" y="215" width="18" height="18"/>
<rect x="193" y="215" width="18" height="18"/>
<rect x="193" y="203" width="17" height="17"/>
<rect x="193" y="190" width="17" height="17"/>
<rect x="193" y="177" width="17" height="18"/>
</g>
</svg>