<?xml version="1.0" encoding="utf-8"?>
<svg xmlns="http://www.w3.org/2000/svg" width="300" height="300"
        viewBox="0 0 300 300" class="creatureMap" style="position:absolute;">
    <defs>
        <filter id="blur" x="-30%" y="-30%" width="160%" height="160%">
            <feGaussianBlur stdDeviation="3" />
        </filter>
        <pattern id="pattern-untameable" width="10" height="10" patternTransform="rotate(135)" patternUnits="userSpaceOnUse">
            <rect width="4" height="10" fill="black"></rect>
        </pattern>
        <filter id="groupStroke">
            <feFlood result="outsideColor" flood-color="black"/>
            <feMorphology in="SourceAlpha" operator="dilate" radius="2"/>
            <feComposite result="strokeoutline1" in="outsideColor" operator="in"/>
            <feComposite result="strokeoutline2" in="strokeoutline1" in2="SourceAlpha" operator="out"/>
            <feGaussianBlur in="strokeoutline2" result="strokeblur" stdDeviation="1"/>
        </filter>
        <style>
            .spawningMap-very-common { fill: #0F0; }
            .spawningMap-common { fill: #B2FF00; }
            .spawningMap-uncommon { fill: #FF0; }
            .spawningMap-very-uncommon { fill: #FC0; }
            .spawningMap-rare { fill: #F60; }
            .spawningMap-very-rare { fill: #F00; }
            .spawning-map-point { stroke:black; stroke-width:1; }
        </style>
    </defs>

<g class="spawning-map-point" opacity="0.8">
<g class="spawningMap-very-uncommon">
<circle cx="220" cy="217" r="4" />
<circle cx="248" cy="220" r="4" />
<circle cx="262" cy="231" r="4" />
<circle cx="263" cy="232" r="4" />
<circle cx="258" cy="246" r="4" />
<circle cx="259" cy="247" r="4" />
<circle cx="229" cy="270" r="4" />
<circle cx="229" cy="269" r="4" />
<circle cx="227" cy="246" r="4" />
<circle cx="218" cy="241" r="4" />
<circle cx="217" cy="240" r="4" />
<circle cx="220" cy="218" r="4" />
<circle cx="219" cy="232" r="4" />
<circle cx="226" cy="236" r="4" />
<circle cx="226" cy="237" r="4" />
<circle cx="227" cy="242" r="4" />
<circle cx="227" cy="238" r="4" />
<circle cx="237" cy="222" r="4" />
<circle cx="248" cy="222" r="4" />
<circle cx="241" cy="233" r="4" />
<circle cx="239" cy="232" r="4" />
<circle cx="244" cy="241" r="4" />
<circle cx="233" cy="216" r="4" />
<circle cx="258" cy="246" r="4" />
<circle cx="239" cy="234" r="4" />
<circle cx="226" cy="246" r="4" />
<circle cx="232" cy="261" r="4" />
<circle cx="240" cy="256" r="4" />
<circle cx="246" cy="259" r="4" />
<circle cx="232" cy="261" r="4" />
<circle cx="232" cy="207" r="4" />
<circle cx="251" cy="248" r="4" />
<circle cx="252" cy="231" r="4" />
<circle cx="240" cy="191" r="4" />
<circle cx="245" cy="242" r="4" />
<circle cx="241" cy="200" r="4" />
<circle cx="240" cy="192" r="4" />
<circle cx="240" cy="191" r="4" />
<circle cx="252" cy="213" r="4" />
<circle cx="250" cy="212" r="4" />
<circle cx="272" cy="250" r="4" />
<circle cx="258" cy="221" r="4" />
<circle cx="249" cy="222" r="4" />
</g>
</g>
</svg>