<?xml version="1.0" encoding="utf-8"?>
<svg xmlns="http://www.w3.org/2000/svg" width="300" height="300" viewBox="0 0 300 300" class="creatureMap" style="position:absolute;">
    <defs>
        <filter id="blur" x="-30%" y="-30%" width="160%" height="160%">
            <feGaussianBlur stdDeviation="3" />
        </filter>
        <pattern id="pattern-untameable" width="10" height="10" patternTransform="rotate(135)" patternUnits="userSpaceOnUse">'
            <rect width="4" height="10" fill="black"></rect>
        </pattern>
        <filter id="groupStroke">
            <feFlood result="outsideColor" flood-color="black"/>
            <feMorphology in="SourceAlpha" operator="dilate" radius="2"/>
            <feComposite result="strokeoutline1" in="outsideColor" operator="in"/>
            <feComposite result="strokeoutline2" in="strokeoutline1" in2="SourceAlpha" operator="out"/>
            <feGaussianBlur in="strokeoutline2" result="strokeblur" stdDeviation="1"/>
        </filter>
        <style>
            .spawningMap-very-common { fill: #0F0; }
            .spawningMap-common { fill: #B2FF00; }
            .spawningMap-uncommon { fill: #FF0; }
            .spawningMap-very-uncommon { fill: #FC0; }
            .spawningMap-rare { fill: #F60; }
            .spawningMap-very-rare { fill: #F00; }
            .spawning-map-point { stroke:black; stroke-width:1; }
        </style>
    </defs>

<g filter="url(#blur)" opacity="0.7">
<g class="spawningMap-very-common">
<rect x="174" y="43" width="8" height="6" />
<rect x="78" y="234" width="10" height="10" />
<rect x="72" y="219" width="10" height="10" />
<rect x="66" y="226" width="10" height="10" />
<rect x="148" y="51" width="9" height="9" />
<rect x="148" y="53" width="9" height="7" />
<rect x="145" y="47" width="8" height="9" />
<rect x="145" y="45" width="8" height="10" />
<rect x="45" y="212" width="9" height="9" />
<rect x="182" y="31" width="6" height="7" />
</g>
</g>
<g filter="url(#groupStroke)" opacity="0.8">
<rect x="174" y="43" width="8" height="6"/>
<rect x="148" y="51" width="9" height="9"/>
<rect x="148" y="53" width="9" height="7"/>
<rect x="145" y="47" width="8" height="9"/>
<rect x="145" y="45" width="8" height="10"/>
<rect x="182" y="31" width="6" height="7"/>
</g>
</svg>