<?xml version="1.0" encoding="utf-8"?>
<svg xmlns="http://www.w3.org/2000/svg" width="300" height="300" viewBox="0 0 300 300" class="creatureMap" style="position:absolute;">
    <defs>
        <filter id="blur" x="-30%" y="-30%" width="160%" height="160%">
            <feGaussianBlur stdDeviation="3" />
        </filter>
        <pattern id="pattern-untameable" width="10" height="10" patternTransform="rotate(135)" patternUnits="userSpaceOnUse">'
            <rect width="4" height="10" fill="black"></rect>
        </pattern>
        <filter id="groupStroke">
            <feFlood result="outsideColor" flood-color="black"/>
            <feMorphology in="SourceAlpha" operator="dilate" radius="2"/>
            <feComposite result="strokeoutline1" in="outsideColor" operator="in"/>
            <feComposite result="strokeoutline2" in="strokeoutline1" in2="SourceAlpha" operator="out"/>
            <feGaussianBlur in="strokeoutline2" result="strokeblur" stdDeviation="1"/>
        </filter>
        <style>
            .spawningMap-very-common { fill: #0F0; }
            .spawningMap-common { fill: #B2FF00; }
            .spawningMap-uncommon { fill: #FF0; }
            .spawningMap-very-uncommon { fill: #FC0; }
            .spawningMap-rare { fill: #F60; }
            .spawningMap-very-rare { fill: #F00; }
            .spawning-map-point { stroke:black; stroke-width:1; }
        </style>
    </defs>

<g class="spawning-map-point" opacity="0.8">
<g class="spawningMap-uncommon">
<circle cx="228" cy="216" r="4" />
<circle cx="237" cy="225" r="4" />
<circle cx="237" cy="220" r="4" />
<circle cx="233" cy="222" r="4" />
<circle cx="234" cy="232" r="4" />
<circle cx="232" cy="217" r="4" />
<circle cx="236" cy="211" r="4" />
<circle cx="241" cy="211" r="4" />
<circle cx="241" cy="209" r="4" />
<circle cx="239" cy="210" r="4" />
<circle cx="240" cy="210" r="4" />
<circle cx="227" cy="216" r="4" />
<circle cx="241" cy="214" r="4" />
<circle cx="242" cy="215" r="4" />
<circle cx="238" cy="215" r="4" />
<circle cx="236" cy="214" r="4" />
<circle cx="234" cy="215" r="4" />
<circle cx="234" cy="224" r="4" />
<circle cx="235" cy="225" r="4" />
<circle cx="238" cy="229" r="4" />
<circle cx="253" cy="230" r="4" />
<circle cx="251" cy="227" r="4" />
<circle cx="226" cy="213" r="4" />
<circle cx="249" cy="232" r="4" />
<circle cx="253" cy="233" r="4" />
<circle cx="240" cy="235" r="4" />
<circle cx="233" cy="235" r="4" />
<circle cx="251" cy="205" r="4" />
<circle cx="248" cy="203" r="4" />
<circle cx="249" cy="204" r="4" />
<circle cx="247" cy="205" r="4" />
<circle cx="250" cy="205" r="4" />
<circle cx="242" cy="207" r="4" />
<circle cx="226" cy="210" r="4" />
<circle cx="230" cy="216" r="4" />
<circle cx="233" cy="216" r="4" />
<circle cx="238" cy="226" r="4" />
<circle cx="229" cy="230" r="4" />
<circle cx="242" cy="224" r="4" />
<circle cx="229" cy="227" r="4" />
<circle cx="225" cy="227" r="4" />
<circle cx="223" cy="227" r="4" />
<circle cx="222" cy="228" r="4" />
<circle cx="229" cy="210" r="4" />
<circle cx="231" cy="211" r="4" />
<circle cx="229" cy="211" r="4" />
<circle cx="229" cy="212" r="4" />
<circle cx="230" cy="217" r="4" />
<circle cx="230" cy="219" r="4" />
<circle cx="244" cy="224" r="4" />
<circle cx="233" cy="218" r="4" />
<circle cx="236" cy="211" r="4" />
<circle cx="238" cy="211" r="4" />
<circle cx="240" cy="204" r="4" />
<circle cx="242" cy="204" r="4" />
<circle cx="243" cy="207" r="4" />
<circle cx="247" cy="212" r="4" />
<circle cx="250" cy="215" r="4" />
<circle cx="251" cy="214" r="4" />
<circle cx="240" cy="215" r="4" />
<circle cx="241" cy="216" r="4" />
<circle cx="241" cy="217" r="4" />
<circle cx="240" cy="217" r="4" />
<circle cx="240" cy="214" r="4" />
<circle cx="241" cy="215" r="4" />
<circle cx="240" cy="218" r="4" />
<circle cx="239" cy="219" r="4" />
<circle cx="233" cy="227" r="4" />
<circle cx="234" cy="227" r="4" />
<circle cx="234" cy="225" r="4" />
<circle cx="238" cy="228" r="4" />
<circle cx="237" cy="231" r="4" />
<circle cx="235" cy="231" r="4" />
<circle cx="231" cy="236" r="4" />
<circle cx="231" cy="238" r="4" />
<circle cx="230" cy="239" r="4" />
<circle cx="228" cy="239" r="4" />
<circle cx="228" cy="238" r="4" />
<circle cx="228" cy="238" r="4" />
<circle cx="228" cy="238" r="4" />
<circle cx="229" cy="240" r="4" />
<circle cx="230" cy="240" r="4" />
<circle cx="231" cy="238" r="4" />
<circle cx="219" cy="237" r="4" />
<circle cx="219" cy="239" r="4" />
<circle cx="220" cy="238" r="4" />
<circle cx="220" cy="237" r="4" />
<circle cx="221" cy="238" r="4" />
<circle cx="221" cy="237" r="4" />
<circle cx="220" cy="236" r="4" />
<circle cx="219" cy="237" r="4" />
<circle cx="217" cy="238" r="4" />
<circle cx="217" cy="237" r="4" />
<circle cx="217" cy="236" r="4" />
<circle cx="218" cy="235" r="4" />
<circle cx="217" cy="233" r="4" />
<circle cx="244" cy="207" r="4" />
<circle cx="244" cy="208" r="4" />
<circle cx="244" cy="208" r="4" />
<circle cx="248" cy="206" r="4" />
</g>
</g>
</svg>