<?xml version="1.0" encoding="utf-8"?>
<svg xmlns="http://www.w3.org/2000/svg" width="300" height="300" viewBox="0 0 300 300" class="creatureMap" style="position:absolute;">
    <defs>
        <filter id="blur" x="-30%" y="-30%" width="160%" height="160%">
            <feGaussianBlur stdDeviation="3" />
        </filter>
        <pattern id="pattern-untameable" width="10" height="10" patternTransform="rotate(135)" patternUnits="userSpaceOnUse">'
            <rect width="4" height="10" fill="black"></rect>
        </pattern>
        <filter id="groupStroke">
            <feFlood result="outsideColor" flood-color="black"/>
            <feMorphology in="SourceAlpha" operator="dilate" radius="2"/>
            <feComposite result="strokeoutline1" in="outsideColor" operator="in"/>
            <feComposite result="strokeoutline2" in="strokeoutline1" in2="SourceAlpha" operator="out"/>
            <feGaussianBlur in="strokeoutline2" result="strokeblur" stdDeviation="1"/>
        </filter>
        <style>
            .spawningMap-very-common { fill: #0F0; }
            .spawningMap-common { fill: #B2FF00; }
            .spawningMap-uncommon { fill: #FF0; }
            .spawningMap-very-uncommon { fill: #FC0; }
            .spawningMap-rare { fill: #F60; }
            .spawningMap-very-rare { fill: #F00; }
            .spawning-map-point { stroke:black; stroke-width:1; }
        </style>
    </defs>

<g filter="url(#blur)" opacity="0.7">
<g class="spawningMap-very-uncommon">
<rect x="173" y="154" width="20" height="15" />
<rect x="247" y="176" width="18" height="17" />
<rect x="236" y="176" width="17" height="17" />
<rect x="224" y="176" width="17" height="17" />
<rect x="212" y="176" width="17" height="17" />
<rect x="247" y="188" width="18" height="17" />
<rect x="236" y="188" width="17" height="17" />
<rect x="224" y="188" width="17" height="17" />
<rect x="212" y="188" width="17" height="17" />
<rect x="200" y="188" width="17" height="17" />
<rect x="259" y="200" width="18" height="17" />
<rect x="247" y="200" width="18" height="17" />
<rect x="236" y="200" width="17" height="17" />
<rect x="224" y="200" width="17" height="17" />
<rect x="212" y="200" width="17" height="17" />
<rect x="200" y="200" width="17" height="17" />
<rect x="188" y="200" width="17" height="17" />
<rect x="247" y="211" width="18" height="18" />
<rect x="236" y="211" width="17" height="18" />
<rect x="224" y="211" width="17" height="18" />
<rect x="212" y="211" width="17" height="18" />
<rect x="200" y="211" width="17" height="18" />
<rect x="188" y="211" width="17" height="18" />
<rect x="247" y="223" width="18" height="18" />
<rect x="236" y="223" width="17" height="18" />
<rect x="224" y="223" width="17" height="18" />
<rect x="212" y="223" width="17" height="18" />
<rect x="236" y="235" width="17" height="17" />
<rect x="212" y="235" width="17" height="17" />
<rect x="247" y="247" width="18" height="17" />
<rect x="212" y="247" width="17" height="17" />
<rect x="259" y="259" width="18" height="17" />
<rect x="247" y="259" width="18" height="17" />
<rect x="212" y="259" width="17" height="17" />
<rect x="247" y="235" width="18" height="17" />
</g>
<g class="spawningMap-uncommon">
<rect x="156" y="22" width="18" height="23" />
<rect x="126" y="112" width="23" height="16" />
<rect x="176" y="67" width="18" height="20" />
<rect x="172" y="50" width="21" height="18" />
<rect x="149" y="40" width="22" height="17" />
</g>
<g class="spawningMap-common">
<rect x="154" y="125" width="21" height="10" />
<rect x="162" y="78" width="15" height="15" />
<rect x="132" y="31" width="17" height="16" />
<rect x="128" y="46" width="17" height="17" />
<rect x="129" y="65" width="16" height="17" />
<rect x="132" y="81" width="16" height="17" />
<rect x="126" y="95" width="13" height="17" />
<rect x="176" y="121" width="15" height="14" />
<rect x="178" y="84" width="15" height="16" />
<rect x="126" y="123" width="23" height="12" />
</g>
<g class="spawningMap-very-common">
<rect x="171" y="21" width="13" height="13" />
<rect x="126" y="85" width="12" height="16" />
<rect x="126" y="27" width="11" height="13" />
<rect x="149" y="112" width="13" height="13" />
<rect x="168" y="108" width="14" height="14" />
<rect x="178" y="107" width="13" height="13" />
<rect x="132" y="22" width="14" height="13" />
</g>
</g>
</svg>