<?xml version="1.0" encoding="utf-8"?>
<svg xmlns="http://www.w3.org/2000/svg" width="300" height="300" viewBox="0 0 300 300" class="creatureMap" style="position:absolute;">
    <defs>
        <filter id="blur" x="-30%" y="-30%" width="160%" height="160%">
            <feGaussianBlur stdDeviation="3" />
        </filter>
        <pattern id="pattern-untameable" width="10" height="10" patternTransform="rotate(135)" patternUnits="userSpaceOnUse">'
            <rect width="4" height="10" fill="black"></rect>
        </pattern>
        <filter id="groupStroke">
            <feFlood result="outsideColor" flood-color="black"/>
            <feMorphology in="SourceAlpha" operator="dilate" radius="2"/>
            <feComposite result="strokeoutline1" in="outsideColor" operator="in"/>
            <feComposite result="strokeoutline2" in="strokeoutline1" in2="SourceAlpha" operator="out"/>
            <feGaussianBlur in="strokeoutline2" result="strokeblur" stdDeviation="1"/>
        </filter>
        <style>
            .spawningMap-very-common { fill: #0F0; }
            .spawningMap-common { fill: #B2FF00; }
            .spawningMap-uncommon { fill: #FF0; }
            .spawningMap-very-uncommon { fill: #FC0; }
            .spawningMap-rare { fill: #F60; }
            .spawningMap-very-rare { fill: #F00; }
            .spawning-map-point { stroke:black; stroke-width:1; }
        </style>
    </defs>

<g filter="url(#blur)" opacity="0.7">
<g class="spawningMap-very-uncommon">
<rect x="173" y="87" width="18" height="17" />
<rect x="173" y="75" width="18" height="17" />
<rect x="162" y="99" width="17" height="17" />
<rect x="150" y="99" width="17" height="17" />
<rect x="162" y="87" width="17" height="17" />
<rect x="150" y="87" width="17" height="17" />
<rect x="162" y="75" width="17" height="17" />
<rect x="150" y="75" width="17" height="17" />
<rect x="150" y="123" width="17" height="11" />
<rect x="138" y="123" width="17" height="11" />
<rect x="150" y="111" width="17" height="17" />
<rect x="138" y="111" width="17" height="17" />
<rect x="126" y="123" width="17" height="11" />
<rect x="126" y="111" width="17" height="17" />
<rect x="162" y="111" width="17" height="17" />
<rect x="126" y="99" width="17" height="17" />
<rect x="138" y="99" width="17" height="17" />
<rect x="126" y="87" width="17" height="17" />
<rect x="138" y="87" width="17" height="17" />
<rect x="126" y="75" width="17" height="17" />
<rect x="173" y="123" width="18" height="11" />
<rect x="138" y="75" width="17" height="17" />
<rect x="126" y="63" width="17" height="18" />
<rect x="138" y="63" width="17" height="18" />
<rect x="126" y="51" width="17" height="18" />
<rect x="138" y="51" width="17" height="18" />
<rect x="126" y="40" width="17" height="17" />
<rect x="138" y="40" width="17" height="17" />
<rect x="162" y="123" width="17" height="11" />
<rect x="138" y="28" width="17" height="17" />
<rect x="126" y="28" width="17" height="17" />
<rect x="126" y="21" width="17" height="11" />
<rect x="138" y="20" width="17" height="13" />
<rect x="150" y="63" width="17" height="18" />
<rect x="150" y="51" width="17" height="18" />
<rect x="150" y="40" width="17" height="17" />
<rect x="150" y="28" width="17" height="17" />
<rect x="150" y="20" width="17" height="13" />
<rect x="161" y="63" width="18" height="18" />
<rect x="161" y="51" width="18" height="18" />
<rect x="161" y="40" width="18" height="17" />
<rect x="161" y="28" width="18" height="17" />
<rect x="161" y="20" width="18" height="13" />
<rect x="173" y="63" width="18" height="18" />
<rect x="173" y="51" width="18" height="18" />
<rect x="173" y="40" width="18" height="17" />
<rect x="173" y="111" width="18" height="17" />
<rect x="173" y="28" width="18" height="17" />
<rect x="173" y="20" width="18" height="13" />
<rect x="173" y="99" width="18" height="17" />
</g>
</g>
</svg>