<?xml version="1.0" encoding="utf-8"?>
<svg xmlns="http://www.w3.org/2000/svg" width="300" height="300" viewBox="0 0 300 300" class="creatureMap" style="position:absolute;">
    <defs>
        <filter id="blur" x="-30%" y="-30%" width="160%" height="160%">
            <feGaussianBlur stdDeviation="3" />
        </filter>
        <pattern id="pattern-untameable" width="10" height="10" patternTransform="rotate(135)" patternUnits="userSpaceOnUse">'
            <rect width="4" height="10" fill="black"></rect>
        </pattern>
        <filter id="groupStroke">
            <feFlood result="outsideColor" flood-color="black"/>
            <feMorphology in="SourceAlpha" operator="dilate" radius="2"/>
            <feComposite result="strokeoutline1" in="outsideColor" operator="in"/>
            <feComposite result="strokeoutline2" in="strokeoutline1" in2="SourceAlpha" operator="out"/>
            <feGaussianBlur in="strokeoutline2" result="strokeblur" stdDeviation="1"/>
        </filter>
        <style>
            .spawningMap-very-common { fill: #0F0; }
            .spawningMap-common { fill: #B2FF00; }
            .spawningMap-uncommon { fill: #FF0; }
            .spawningMap-very-uncommon { fill: #FC0; }
            .spawningMap-rare { fill: #F60; }
            .spawningMap-very-rare { fill: #F00; }
            .spawning-map-point { stroke:black; stroke-width:1; }
        </style>
    </defs>

<g class="spawning-map-point" opacity="0.8">
<g class="spawningMap-rare">
<circle cx="72" cy="130" r="4" />
<circle cx="75" cy="120" r="4" />
<circle cx="58" cy="119" r="4" />
<circle cx="65" cy="112" r="4" />
<circle cx="55" cy="104" r="4" />
<circle cx="55" cy="81" r="4" />
<circle cx="69" cy="81" r="4" />
<circle cx="56" cy="45" r="4" />
<circle cx="70" cy="45" r="4" />
<circle cx="95" cy="45" r="4" />
<circle cx="109" cy="45" r="4" />
<circle cx="95" cy="62" r="4" />
<circle cx="109" cy="62" r="4" />
<circle cx="95" cy="76" r="4" />
<circle cx="109" cy="76" r="4" />
<circle cx="95" cy="89" r="4" />
<circle cx="109" cy="89" r="4" />
<circle cx="95" cy="107" r="4" />
<circle cx="109" cy="107" r="4" />
<circle cx="92" cy="121" r="4" />
<circle cx="106" cy="121" r="4" />
<circle cx="92" cy="138" r="4" />
<circle cx="106" cy="138" r="4" />
<circle cx="96" cy="161" r="4" />
<circle cx="70" cy="164" r="4" />
<circle cx="44" cy="162" r="4" />
<circle cx="32" cy="146" r="4" />
<circle cx="32" cy="126" r="4" />
<circle cx="24" cy="115" r="4" />
<circle cx="24" cy="100" r="4" />
<circle cx="24" cy="88" r="4" />
<circle cx="24" cy="71" r="4" />
<circle cx="24" cy="60" r="4" />
<circle cx="33" cy="60" r="4" />
<circle cx="24" cy="44" r="4" />
<circle cx="33" cy="44" r="4" />
<circle cx="24" cy="30" r="4" />
<circle cx="33" cy="30" r="4" />
<circle cx="44" cy="30" r="4" />
</g>
</g>
</svg>