<?xml version="1.0" encoding="utf-8"?>
<svg xmlns="http://www.w3.org/2000/svg" width="300" height="300"
        viewBox="0 0 300 300" class="creatureMap" style="position:absolute;">
    <defs>
        <filter id="blur" x="-30%" y="-30%" width="160%" height="160%">
            <feGaussianBlur stdDeviation="3" />
        </filter>
        <pattern id="pattern-untameable" width="10" height="10" patternTransform="rotate(135)" patternUnits="userSpaceOnUse">
            <rect width="4" height="10" fill="black"></rect>
        </pattern>
        <filter id="groupStroke">
            <feFlood result="outsideColor" flood-color="black"/>
            <feMorphology in="SourceAlpha" operator="dilate" radius="2"/>
            <feComposite result="strokeoutline1" in="outsideColor" operator="in"/>
            <feComposite result="strokeoutline2" in="strokeoutline1" in2="SourceAlpha" operator="out"/>
            <feGaussianBlur in="strokeoutline2" result="strokeblur" stdDeviation="1"/>
        </filter>
        <style>
            .spawningMap-very-common { fill: #0F0; }
            .spawningMap-common { fill: #B2FF00; }
            .spawningMap-uncommon { fill: #FF0; }
            .spawningMap-very-uncommon { fill: #FC0; }
            .spawningMap-rare { fill: #F60; }
            .spawningMap-very-rare { fill: #F00; }
            .spawning-map-point { stroke:black; stroke-width:1; }
        </style>
    </defs>

<g filter="url(#blur)" opacity="0.7">
<g class="spawningMap-very-uncommon">
<rect x="4" y="184" width="20" height="12" />
<rect x="4" y="191" width="20" height="18" />
<rect x="4" y="204" width="20" height="19" />
<rect x="4" y="217" width="20" height="19" />
<rect x="4" y="231" width="20" height="18" />
<rect x="4" y="244" width="20" height="18" />
<rect x="4" y="257" width="20" height="18" />
<rect x="4" y="270" width="20" height="19" />
<rect x="4" y="283" width="20" height="15" />
<rect x="85" y="191" width="19" height="18" />
<rect x="85" y="184" width="19" height="12" />
<rect x="85" y="204" width="19" height="19" />
<rect x="85" y="217" width="19" height="19" />
<rect x="85" y="231" width="19" height="18" />
<rect x="85" y="244" width="19" height="18" />
<rect x="85" y="257" width="19" height="18" />
<rect x="85" y="270" width="19" height="19" />
<rect x="85" y="283" width="19" height="15" />
<rect x="72" y="184" width="19" height="12" />
<rect x="72" y="191" width="19" height="18" />
<rect x="72" y="204" width="19" height="19" />
<rect x="72" y="217" width="19" height="19" />
<rect x="72" y="231" width="19" height="18" />
<rect x="72" y="244" width="19" height="18" />
<rect x="72" y="257" width="19" height="18" />
<rect x="72" y="270" width="19" height="19" />
<rect x="72" y="283" width="19" height="15" />
<rect x="59" y="184" width="18" height="12" />
<rect x="59" y="191" width="18" height="18" />
<rect x="59" y="204" width="18" height="19" />
<rect x="59" y="217" width="18" height="19" />
<rect x="59" y="231" width="18" height="18" />
<rect x="59" y="244" width="18" height="18" />
<rect x="59" y="257" width="18" height="18" />
<rect x="59" y="270" width="18" height="19" />
<rect x="59" y="283" width="18" height="15" />
<rect x="46" y="184" width="18" height="12" />
<rect x="46" y="191" width="18" height="18" />
<rect x="46" y="204" width="18" height="19" />
<rect x="46" y="231" width="18" height="18" />
<rect x="46" y="257" width="18" height="18" />
<rect x="46" y="270" width="18" height="19" />
<rect x="46" y="283" width="18" height="15" />
</g>
<g class="spawningMap-uncommon">
<rect x="157" y="8" width="19" height="25" />
<rect x="123" y="108" width="26" height="17" />
<rect x="179" y="58" width="19" height="21" />
<rect x="175" y="39" width="22" height="19" />
<rect x="149" y="28" width="24" height="19" />
<rect x="46" y="217" width="18" height="19" />
<rect x="46" y="244" width="18" height="18" />
<rect x="32" y="184" width="19" height="12" />
<rect x="32" y="191" width="19" height="18" />
<rect x="32" y="217" width="19" height="19" />
<rect x="32" y="231" width="19" height="18" />
<rect x="32" y="244" width="19" height="18" />
<rect x="32" y="257" width="19" height="18" />
<rect x="32" y="270" width="19" height="19" />
<rect x="32" y="283" width="19" height="15" />
<rect x="19" y="184" width="19" height="12" />
<rect x="19" y="191" width="19" height="18" />
<rect x="19" y="204" width="19" height="19" />
<rect x="19" y="217" width="19" height="19" />
<rect x="19" y="231" width="19" height="18" />
<rect x="19" y="244" width="19" height="18" />
<rect x="19" y="257" width="19" height="18" />
<rect x="19" y="270" width="19" height="19" />
<rect x="19" y="283" width="19" height="15" />
<rect x="32" y="204" width="19" height="19" />
</g>
<g class="spawningMap-common">
<rect x="154" y="122" width="23" height="11" />
<rect x="164" y="70" width="16" height="16" />
<rect x="131" y="18" width="17" height="18" />
<rect x="126" y="35" width="18" height="18" />
<rect x="126" y="56" width="18" height="18" />
<rect x="130" y="74" width="18" height="18" />
<rect x="123" y="89" width="14" height="18" />
<rect x="179" y="118" width="17" height="15" />
<rect x="182" y="78" width="16" height="16" />
<rect x="123" y="121" width="26" height="11" />
</g>
<g class="spawningMap-very-common">
<rect x="173" y="7" width="14" height="14" />
<rect x="123" y="78" width="13" height="18" />
<rect x="123" y="14" width="12" height="14" />
<rect x="149" y="108" width="14" height="14" />
<rect x="171" y="104" width="14" height="14" />
<rect x="181" y="103" width="14" height="14" />
<rect x="131" y="8" width="14" height="14" />
</g>
</g>
</svg>