<?xml version="1.0" encoding="utf-8"?>
<svg xmlns="http://www.w3.org/2000/svg" width="300" height="300" viewBox="0 0 300 300" class="creatureMap" style="position:absolute;">
    <defs>
        <filter id="blur" x="-30%" y="-30%" width="160%" height="160%">
            <feGaussianBlur stdDeviation="3" />
        </filter>
        <pattern id="pattern-untameable" width="10" height="10" patternTransform="rotate(135)" patternUnits="userSpaceOnUse">'
            <rect width="4" height="10" fill="black"></rect>
        </pattern>
        <filter id="groupStroke">
            <feFlood result="outsideColor" flood-color="black"/>
            <feMorphology in="SourceAlpha" operator="dilate" radius="2"/>
            <feComposite result="strokeoutline1" in="outsideColor" operator="in"/>
            <feComposite result="strokeoutline2" in="strokeoutline1" in2="SourceAlpha" operator="out"/>
            <feGaussianBlur in="strokeoutline2" result="strokeblur" stdDeviation="1"/>
        </filter>
        <style>
            .spawningMap-very-common { fill: #0F0; }
            .spawningMap-common { fill: #B2FF00; }
            .spawningMap-uncommon { fill: #FF0; }
            .spawningMap-very-uncommon { fill: #FC0; }
            .spawningMap-rare { fill: #F60; }
            .spawningMap-very-rare { fill: #F00; }
            .spawning-map-point { stroke:black; stroke-width:1; }
        </style>
    </defs>

<g filter="url(#blur)" opacity="0.7">
<g class="spawningMap-very-uncommon">
<rect x="173" y="154" width="20" height="15" />
<rect x="173" y="223" width="20" height="18" />
<rect x="173" y="235" width="20" height="17" />
<rect x="173" y="247" width="20" height="17" />
<rect x="173" y="259" width="20" height="17" />
<rect x="173" y="271" width="20" height="13" />
<rect x="173" y="164" width="20" height="17" />
<rect x="173" y="176" width="20" height="17" />
<rect x="173" y="188" width="20" height="17" />
<rect x="173" y="200" width="20" height="17" />
<rect x="173" y="211" width="20" height="18" />
<rect x="247" y="176" width="18" height="17" />
<rect x="236" y="176" width="17" height="17" />
<rect x="224" y="176" width="17" height="17" />
<rect x="212" y="176" width="17" height="17" />
<rect x="247" y="188" width="18" height="17" />
<rect x="236" y="188" width="17" height="17" />
<rect x="224" y="188" width="17" height="17" />
<rect x="212" y="188" width="17" height="17" />
<rect x="200" y="188" width="17" height="17" />
<rect x="259" y="200" width="18" height="17" />
<rect x="247" y="200" width="18" height="17" />
<rect x="236" y="200" width="17" height="17" />
<rect x="224" y="200" width="17" height="17" />
<rect x="212" y="200" width="17" height="17" />
<rect x="200" y="200" width="17" height="17" />
<rect x="188" y="200" width="17" height="17" />
<rect x="247" y="211" width="18" height="18" />
<rect x="236" y="211" width="17" height="18" />
<rect x="224" y="211" width="17" height="18" />
<rect x="212" y="211" width="17" height="18" />
<rect x="200" y="211" width="17" height="18" />
<rect x="188" y="211" width="17" height="18" />
<rect x="247" y="223" width="18" height="18" />
<rect x="236" y="223" width="17" height="18" />
<rect x="224" y="223" width="17" height="18" />
<rect x="212" y="223" width="17" height="18" />
<rect x="236" y="235" width="17" height="17" />
<rect x="212" y="235" width="17" height="17" />
<rect x="247" y="247" width="18" height="17" />
<rect x="212" y="247" width="17" height="17" />
<rect x="259" y="259" width="18" height="17" />
<rect x="247" y="259" width="18" height="17" />
<rect x="212" y="259" width="17" height="17" />
<rect x="247" y="235" width="18" height="17" />
</g>
<g class="spawningMap-uncommon">
<rect x="247" y="154" width="18" height="15" />
<rect x="236" y="154" width="17" height="15" />
<rect x="224" y="154" width="17" height="15" />
<rect x="212" y="154" width="17" height="15" />
<rect x="200" y="154" width="17" height="15" />
<rect x="188" y="154" width="17" height="15" />
<rect x="247" y="164" width="18" height="17" />
<rect x="236" y="164" width="17" height="17" />
<rect x="224" y="164" width="17" height="17" />
<rect x="212" y="164" width="17" height="17" />
<rect x="200" y="164" width="17" height="17" />
<rect x="188" y="164" width="17" height="17" />
<rect x="271" y="200" width="16" height="17" />
<rect x="271" y="211" width="16" height="18" />
<rect x="259" y="211" width="18" height="18" />
<rect x="271" y="223" width="16" height="18" />
<rect x="259" y="223" width="18" height="18" />
<rect x="200" y="223" width="17" height="18" />
<rect x="188" y="223" width="17" height="18" />
<rect x="271" y="235" width="16" height="17" />
<rect x="259" y="235" width="18" height="17" />
<rect x="224" y="235" width="17" height="17" />
<rect x="200" y="235" width="17" height="17" />
<rect x="188" y="235" width="17" height="17" />
<rect x="271" y="247" width="16" height="17" />
<rect x="259" y="247" width="18" height="17" />
<rect x="236" y="247" width="17" height="17" />
<rect x="224" y="247" width="17" height="17" />
<rect x="200" y="247" width="17" height="17" />
<rect x="188" y="247" width="17" height="17" />
<rect x="271" y="259" width="16" height="17" />
<rect x="200" y="259" width="17" height="17" />
<rect x="188" y="259" width="17" height="17" />
<rect x="271" y="271" width="16" height="13" />
<rect x="259" y="271" width="18" height="13" />
<rect x="247" y="271" width="18" height="13" />
<rect x="212" y="271" width="17" height="13" />
<rect x="200" y="271" width="17" height="13" />
<rect x="188" y="271" width="17" height="13" />
<rect x="271" y="154" width="16" height="15" />
<rect x="259" y="154" width="18" height="15" />
<rect x="271" y="164" width="16" height="17" />
<rect x="259" y="164" width="18" height="17" />
<rect x="271" y="176" width="16" height="17" />
<rect x="259" y="176" width="18" height="17" />
<rect x="188" y="176" width="17" height="17" />
<rect x="271" y="188" width="16" height="17" />
<rect x="259" y="188" width="18" height="17" />
<rect x="188" y="188" width="17" height="17" />
<rect x="236" y="259" width="17" height="17" />
<rect x="224" y="259" width="17" height="17" />
<rect x="236" y="271" width="17" height="13" />
<rect x="224" y="271" width="17" height="13" />
<rect x="200" y="176" width="17" height="17" />
</g>
</g>
</svg>