<?xml version="1.0" encoding="utf-8"?>
<svg xmlns="http://www.w3.org/2000/svg" width="300" height="300"
        viewBox="0 0 300 300" class="creatureMap" style="position:absolute;">
    <defs>
        <filter id="blur" x="-30%" y="-30%" width="160%" height="160%">
            <feGaussianBlur stdDeviation="3" />
        </filter>
        <pattern id="pattern-untameable" width="10" height="10" patternTransform="rotate(135)" patternUnits="userSpaceOnUse">
            <rect width="4" height="10" fill="black"></rect>
        </pattern>
        <filter id="groupStroke">
            <feFlood result="outsideColor" flood-color="black"/>
            <feMorphology in="SourceAlpha" operator="dilate" radius="2"/>
            <feComposite result="strokeoutline1" in="outsideColor" operator="in"/>
            <feComposite result="strokeoutline2" in="strokeoutline1" in2="SourceAlpha" operator="out"/>
            <feGaussianBlur in="strokeoutline2" result="strokeblur" stdDeviation="1"/>
        </filter>
        <style>
            .spawningMap-very-common { fill: #0F0; }
            .spawningMap-common { fill: #B2FF00; }
            .spawningMap-uncommon { fill: #FF0; }
            .spawningMap-very-uncommon { fill: #FC0; }
            .spawningMap-rare { fill: #F60; }
            .spawningMap-very-rare { fill: #F00; }
            .spawning-map-point { stroke:black; stroke-width:1; }
        </style>
    </defs>

<g filter="url(#blur)" opacity="0.7">
<g class="spawningMap-very-uncommon">
<rect x="176" y="232" width="22" height="18" />
<rect x="176" y="245" width="22" height="19" />
<rect x="176" y="258" width="22" height="19" />
<rect x="176" y="272" width="22" height="18" />
<rect x="176" y="285" width="22" height="14" />
<rect x="176" y="166" width="22" height="18" />
<rect x="176" y="179" width="22" height="18" />
<rect x="176" y="192" width="22" height="19" />
<rect x="176" y="205" width="22" height="19" />
<rect x="176" y="219" width="22" height="18" />
<rect x="176" y="155" width="22" height="16" />
</g>
<g class="spawningMap-uncommon">
<rect x="259" y="155" width="18" height="16" />
<rect x="245" y="155" width="19" height="16" />
<rect x="232" y="155" width="19" height="16" />
<rect x="219" y="155" width="18" height="16" />
<rect x="206" y="155" width="18" height="16" />
<rect x="193" y="155" width="18" height="16" />
<rect x="259" y="166" width="18" height="18" />
<rect x="245" y="166" width="19" height="18" />
<rect x="232" y="166" width="19" height="18" />
<rect x="219" y="166" width="18" height="18" />
<rect x="206" y="166" width="18" height="18" />
<rect x="193" y="166" width="18" height="18" />
<rect x="285" y="205" width="15" height="19" />
<rect x="285" y="219" width="15" height="18" />
<rect x="272" y="219" width="18" height="18" />
<rect x="285" y="232" width="15" height="18" />
<rect x="272" y="232" width="18" height="18" />
<rect x="206" y="232" width="18" height="18" />
<rect x="193" y="232" width="18" height="18" />
<rect x="285" y="245" width="15" height="19" />
<rect x="272" y="245" width="18" height="19" />
<rect x="232" y="245" width="19" height="19" />
<rect x="206" y="245" width="18" height="19" />
<rect x="193" y="245" width="18" height="19" />
<rect x="285" y="258" width="15" height="19" />
<rect x="272" y="258" width="18" height="19" />
<rect x="245" y="258" width="19" height="19" />
<rect x="232" y="258" width="19" height="19" />
<rect x="206" y="258" width="18" height="19" />
<rect x="193" y="258" width="18" height="19" />
<rect x="285" y="272" width="15" height="18" />
<rect x="206" y="272" width="18" height="18" />
<rect x="193" y="272" width="18" height="18" />
<rect x="285" y="285" width="15" height="14" />
<rect x="272" y="285" width="18" height="14" />
<rect x="259" y="285" width="18" height="14" />
<rect x="219" y="285" width="18" height="14" />
<rect x="206" y="285" width="18" height="14" />
<rect x="193" y="285" width="18" height="14" />
<rect x="206" y="179" width="18" height="18" />
<rect x="193" y="179" width="18" height="18" />
<rect x="193" y="192" width="18" height="19" />
<rect x="259" y="179" width="18" height="18" />
<rect x="245" y="179" width="19" height="18" />
<rect x="232" y="179" width="19" height="18" />
<rect x="219" y="179" width="18" height="18" />
<rect x="259" y="192" width="18" height="19" />
<rect x="245" y="192" width="19" height="19" />
<rect x="232" y="192" width="19" height="19" />
<rect x="219" y="192" width="18" height="19" />
<rect x="206" y="192" width="18" height="19" />
<rect x="272" y="205" width="18" height="19" />
<rect x="259" y="205" width="18" height="19" />
<rect x="245" y="205" width="19" height="19" />
<rect x="232" y="205" width="19" height="19" />
<rect x="219" y="205" width="18" height="19" />
<rect x="206" y="205" width="18" height="19" />
<rect x="193" y="205" width="18" height="19" />
<rect x="259" y="219" width="18" height="18" />
<rect x="245" y="219" width="19" height="18" />
<rect x="232" y="219" width="19" height="18" />
<rect x="219" y="219" width="18" height="18" />
<rect x="206" y="219" width="18" height="18" />
<rect x="193" y="219" width="18" height="18" />
<rect x="259" y="232" width="18" height="18" />
<rect x="245" y="232" width="19" height="18" />
<rect x="232" y="232" width="19" height="18" />
<rect x="219" y="232" width="18" height="18" />
<rect x="259" y="245" width="18" height="19" />
<rect x="245" y="245" width="19" height="19" />
<rect x="219" y="245" width="18" height="19" />
<rect x="259" y="258" width="18" height="19" />
<rect x="219" y="258" width="18" height="19" />
<rect x="272" y="272" width="18" height="18" />
<rect x="259" y="272" width="18" height="18" />
<rect x="219" y="272" width="18" height="18" />
</g>
<g class="spawningMap-common">
<rect x="272" y="155" width="18" height="16" />
<rect x="285" y="166" width="15" height="18" />
<rect x="272" y="166" width="18" height="18" />
<rect x="285" y="179" width="15" height="18" />
<rect x="272" y="179" width="18" height="18" />
<rect x="285" y="192" width="15" height="19" />
<rect x="272" y="192" width="18" height="19" />
<rect x="245" y="272" width="19" height="18" />
<rect x="232" y="272" width="19" height="18" />
<rect x="245" y="285" width="19" height="14" />
<rect x="232" y="285" width="19" height="14" />
<rect x="285" y="155" width="15" height="16" />
</g>
</g>
<g fill="url(#pattern-untameable)" opacity="0.3">
<rect x="176" y="232" width="22" height="18"/>
<rect x="176" y="245" width="22" height="19"/>
<rect x="176" y="258" width="22" height="19"/>
<rect x="176" y="272" width="22" height="18"/>
<rect x="176" y="285" width="22" height="14"/>
<rect x="176" y="166" width="22" height="18"/>
<rect x="176" y="179" width="22" height="18"/>
<rect x="176" y="192" width="22" height="19"/>
<rect x="176" y="205" width="22" height="19"/>
<rect x="176" y="219" width="22" height="18"/>
<rect x="176" y="155" width="22" height="16"/>
<rect x="259" y="155" width="18" height="16"/>
<rect x="245" y="155" width="19" height="16"/>
<rect x="232" y="155" width="19" height="16"/>
<rect x="219" y="155" width="18" height="16"/>
<rect x="206" y="155" width="18" height="16"/>
<rect x="193" y="155" width="18" height="16"/>
<rect x="259" y="166" width="18" height="18"/>
<rect x="245" y="166" width="19" height="18"/>
<rect x="232" y="166" width="19" height="18"/>
<rect x="219" y="166" width="18" height="18"/>
<rect x="206" y="166" width="18" height="18"/>
<rect x="193" y="166" width="18" height="18"/>
<rect x="285" y="205" width="15" height="19"/>
<rect x="285" y="219" width="15" height="18"/>
<rect x="272" y="219" width="18" height="18"/>
<rect x="285" y="232" width="15" height="18"/>
<rect x="272" y="232" width="18" height="18"/>
<rect x="206" y="232" width="18" height="18"/>
<rect x="193" y="232" width="18" height="18"/>
<rect x="285" y="245" width="15" height="19"/>
<rect x="272" y="245" width="18" height="19"/>
<rect x="232" y="245" width="19" height="19"/>
<rect x="206" y="245" width="18" height="19"/>
<rect x="193" y="245" width="18" height="19"/>
<rect x="285" y="258" width="15" height="19"/>
<rect x="272" y="258" width="18" height="19"/>
<rect x="245" y="258" width="19" height="19"/>
<rect x="232" y="258" width="19" height="19"/>
<rect x="206" y="258" width="18" height="19"/>
<rect x="193" y="258" width="18" height="19"/>
<rect x="285" y="272" width="15" height="18"/>
<rect x="206" y="272" width="18" height="18"/>
<rect x="193" y="272" width="18" height="18"/>
<rect x="285" y="285" width="15" height="14"/>
<rect x="272" y="285" width="18" height="14"/>
<rect x="259" y="285" width="18" height="14"/>
<rect x="219" y="285" width="18" height="14"/>
<rect x="206" y="285" width="18" height="14"/>
<rect x="193" y="285" width="18" height="14"/>
<rect x="206" y="179" width="18" height="18"/>
<rect x="193" y="179" width="18" height="18"/>
<rect x="193" y="192" width="18" height="19"/>
<rect x="259" y="179" width="18" height="18"/>
<rect x="245" y="179" width="19" height="18"/>
<rect x="232" y="179" width="19" height="18"/>
<rect x="219" y="179" width="18" height="18"/>
<rect x="259" y="192" width="18" height="19"/>
<rect x="245" y="192" width="19" height="19"/>
<rect x="232" y="192" width="19" height="19"/>
<rect x="219" y="192" width="18" height="19"/>
<rect x="206" y="192" width="18" height="19"/>
<rect x="272" y="205" width="18" height="19"/>
<rect x="259" y="205" width="18" height="19"/>
<rect x="245" y="205" width="19" height="19"/>
<rect x="232" y="205" width="19" height="19"/>
<rect x="219" y="205" width="18" height="19"/>
<rect x="206" y="205" width="18" height="19"/>
<rect x="193" y="205" width="18" height="19"/>
<rect x="259" y="219" width="18" height="18"/>
<rect x="245" y="219" width="19" height="18"/>
<rect x="232" y="219" width="19" height="18"/>
<rect x="219" y="219" width="18" height="18"/>
<rect x="206" y="219" width="18" height="18"/>
<rect x="193" y="219" width="18" height="18"/>
<rect x="259" y="232" width="18" height="18"/>
<rect x="245" y="232" width="19" height="18"/>
<rect x="232" y="232" width="19" height="18"/>
<rect x="219" y="232" width="18" height="18"/>
<rect x="259" y="245" width="18" height="19"/>
<rect x="245" y="245" width="19" height="19"/>
<rect x="219" y="245" width="18" height="19"/>
<rect x="259" y="258" width="18" height="19"/>
<rect x="219" y="258" width="18" height="19"/>
<rect x="272" y="272" width="18" height="18"/>
<rect x="259" y="272" width="18" height="18"/>
<rect x="219" y="272" width="18" height="18"/>
<rect x="272" y="155" width="18" height="16"/>
<rect x="285" y="166" width="15" height="18"/>
<rect x="272" y="166" width="18" height="18"/>
<rect x="285" y="179" width="15" height="18"/>
<rect x="272" y="179" width="18" height="18"/>
<rect x="285" y="192" width="15" height="19"/>
<rect x="272" y="192" width="18" height="19"/>
<rect x="245" y="272" width="19" height="18"/>
<rect x="232" y="272" width="19" height="18"/>
<rect x="245" y="285" width="19" height="14"/>
<rect x="232" y="285" width="19" height="14"/>
<rect x="285" y="155" width="15" height="16"/>
</g>
</svg>