<?xml version="1.0" encoding="utf-8"?>
<svg xmlns="http://www.w3.org/2000/svg" width="300" height="300" viewBox="0 0 300 300" class="creatureMap" style="position:absolute;">
    <defs>
        <filter id="blur" x="-30%" y="-30%" width="160%" height="160%">
            <feGaussianBlur stdDeviation="3" />
        </filter>
        <pattern id="pattern-untameable" width="10" height="10" patternTransform="rotate(135)" patternUnits="userSpaceOnUse">'
            <rect width="4" height="10" fill="black"></rect>
        </pattern>
        <filter id="groupStroke">
            <feFlood result="outsideColor" flood-color="black"/>
            <feMorphology in="SourceAlpha" operator="dilate" radius="2"/>
            <feComposite result="strokeoutline1" in="outsideColor" operator="in"/>
            <feComposite result="strokeoutline2" in="strokeoutline1" in2="SourceAlpha" operator="out"/>
            <feGaussianBlur in="strokeoutline2" result="strokeblur" stdDeviation="1"/>
        </filter>
        <style>
            .spawningMap-very-common { fill: #0F0; }
            .spawningMap-common { fill: #B2FF00; }
            .spawningMap-uncommon { fill: #FF0; }
            .spawningMap-very-uncommon { fill: #FC0; }
            .spawningMap-rare { fill: #F60; }
            .spawningMap-very-rare { fill: #F00; }
            .spawning-map-point { stroke:black; stroke-width:1; }
        </style>
    </defs>

<g class="spawning-map-point" opacity="0.8">
<g class="spawningMap-very-uncommon">
<circle cx="213" cy="210" r="4" />
<circle cx="238" cy="213" r="4" />
<circle cx="251" cy="223" r="4" />
<circle cx="251" cy="224" r="4" />
<circle cx="248" cy="237" r="4" />
<circle cx="248" cy="237" r="4" />
<circle cx="221" cy="258" r="4" />
<circle cx="221" cy="257" r="4" />
<circle cx="219" cy="236" r="4" />
<circle cx="211" cy="231" r="4" />
<circle cx="211" cy="231" r="4" />
<circle cx="213" cy="211" r="4" />
<circle cx="212" cy="224" r="4" />
<circle cx="219" cy="228" r="4" />
<circle cx="219" cy="228" r="4" />
<circle cx="219" cy="233" r="4" />
<circle cx="219" cy="229" r="4" />
<circle cx="228" cy="214" r="4" />
<circle cx="239" cy="214" r="4" />
<circle cx="232" cy="224" r="4" />
<circle cx="230" cy="223" r="4" />
<circle cx="235" cy="232" r="4" />
<circle cx="224" cy="210" r="4" />
<circle cx="247" cy="237" r="4" />
<circle cx="230" cy="226" r="4" />
<circle cx="219" cy="236" r="4" />
<circle cx="224" cy="250" r="4" />
<circle cx="231" cy="246" r="4" />
<circle cx="237" cy="248" r="4" />
<circle cx="224" cy="250" r="4" />
<circle cx="224" cy="202" r="4" />
<circle cx="241" cy="239" r="4" />
<circle cx="242" cy="223" r="4" />
<circle cx="231" cy="187" r="4" />
<circle cx="235" cy="233" r="4" />
<circle cx="232" cy="195" r="4" />
<circle cx="231" cy="188" r="4" />
<circle cx="231" cy="187" r="4" />
<circle cx="242" cy="207" r="4" />
<circle cx="240" cy="206" r="4" />
<circle cx="260" cy="240" r="4" />
<circle cx="247" cy="214" r="4" />
<circle cx="239" cy="215" r="4" />
</g>
</g>
</svg>