<?xml version="1.0" encoding="utf-8"?>
<svg xmlns="http://www.w3.org/2000/svg" width="300" height="300"
        viewBox="0 0 300 300" class="creatureMap" style="position:absolute;">
    <defs>
        <filter id="blur" x="-30%" y="-30%" width="160%" height="160%">
            <feGaussianBlur stdDeviation="3" />
        </filter>
        <pattern id="pattern-untameable" width="10" height="10" patternTransform="rotate(135)" patternUnits="userSpaceOnUse">
            <rect width="4" height="10" fill="black"></rect>
        </pattern>
        <filter id="groupStroke">
            <feFlood result="outsideColor" flood-color="black"/>
            <feMorphology in="SourceAlpha" operator="dilate" radius="2"/>
            <feComposite result="strokeoutline1" in="outsideColor" operator="in"/>
            <feComposite result="strokeoutline2" in="strokeoutline1" in2="SourceAlpha" operator="out"/>
            <feGaussianBlur in="strokeoutline2" result="strokeblur" stdDeviation="1"/>
        </filter>
        <style>
            .spawningMap-very-common { fill: #0F0; }
            .spawningMap-common { fill: #B2FF00; }
            .spawningMap-uncommon { fill: #FF0; }
            .spawningMap-very-uncommon { fill: #FC0; }
            .spawningMap-rare { fill: #F60; }
            .spawningMap-very-rare { fill: #F00; }
            .spawning-map-point { stroke:black; stroke-width:1; }
        </style>
    </defs>

<g class="spawning-map-point" opacity="0.8">
<g class="spawningMap-rare">
<circle cx="64" cy="128" r="4" />
<circle cx="67" cy="117" r="4" />
<circle cx="48" cy="116" r="4" />
<circle cx="56" cy="107" r="4" />
<circle cx="44" cy="98" r="4" />
<circle cx="44" cy="74" r="4" />
<circle cx="60" cy="74" r="4" />
<circle cx="45" cy="33" r="4" />
<circle cx="61" cy="33" r="4" />
<circle cx="89" cy="33" r="4" />
<circle cx="105" cy="33" r="4" />
<circle cx="89" cy="52" r="4" />
<circle cx="105" cy="52" r="4" />
<circle cx="89" cy="68" r="4" />
<circle cx="105" cy="68" r="4" />
<circle cx="89" cy="82" r="4" />
<circle cx="105" cy="82" r="4" />
<circle cx="89" cy="102" r="4" />
<circle cx="105" cy="102" r="4" />
<circle cx="85" cy="118" r="4" />
<circle cx="101" cy="118" r="4" />
<circle cx="85" cy="137" r="4" />
<circle cx="101" cy="137" r="4" />
<circle cx="90" cy="163" r="4" />
<circle cx="61" cy="165" r="4" />
<circle cx="32" cy="163" r="4" />
<circle cx="18" cy="146" r="4" />
<circle cx="18" cy="124" r="4" />
<circle cx="10" cy="111" r="4" />
<circle cx="10" cy="95" r="4" />
<circle cx="10" cy="82" r="4" />
<circle cx="10" cy="62" r="4" />
<circle cx="10" cy="50" r="4" />
<circle cx="20" cy="50" r="4" />
<circle cx="10" cy="33" r="4" />
<circle cx="20" cy="33" r="4" />
<circle cx="10" cy="17" r="4" />
<circle cx="20" cy="17" r="4" />
<circle cx="32" cy="17" r="4" />
</g>
</g>
</svg>