<?xml version="1.0" encoding="utf-8"?>
<svg xmlns="http://www.w3.org/2000/svg" width="300" height="300" viewBox="0 0 300 300" class="creatureMap" style="position:absolute;">
    <defs>
        <filter id="blur" x="-30%" y="-30%" width="160%" height="160%">
            <feGaussianBlur stdDeviation="3" />
        </filter>
        <pattern id="pattern-untameable" width="10" height="10" patternTransform="rotate(135)" patternUnits="userSpaceOnUse">'
            <rect width="4" height="10" fill="black"></rect>
        </pattern>
        <filter id="groupStroke">
            <feFlood result="outsideColor" flood-color="black"/>
            <feMorphology in="SourceAlpha" operator="dilate" radius="2"/>
            <feComposite result="strokeoutline1" in="outsideColor" operator="in"/>
            <feComposite result="strokeoutline2" in="strokeoutline1" in2="SourceAlpha" operator="out"/>
            <feGaussianBlur in="strokeoutline2" result="strokeblur" stdDeviation="1"/>
        </filter>
        <style>
            .spawningMap-very-common { fill: #0F0; }
            .spawningMap-common { fill: #B2FF00; }
            .spawningMap-uncommon { fill: #FF0; }
            .spawningMap-very-uncommon { fill: #FC0; }
            .spawningMap-rare { fill: #F60; }
            .spawningMap-very-rare { fill: #F00; }
            .spawning-map-point { stroke:black; stroke-width:1; }
        </style>
    </defs>

<g filter="url(#blur)" opacity="0.7">
<g class="spawningMap-very-uncommon">
<rect x="173" y="154" width="20" height="15" />
<rect x="247" y="176" width="18" height="17" />
<rect x="236" y="176" width="17" height="17" />
<rect x="224" y="176" width="17" height="17" />
<rect x="212" y="176" width="17" height="17" />
<rect x="247" y="188" width="18" height="17" />
<rect x="236" y="188" width="17" height="17" />
<rect x="224" y="188" width="17" height="17" />
<rect x="212" y="188" width="17" height="17" />
<rect x="200" y="188" width="17" height="17" />
<rect x="259" y="200" width="18" height="17" />
<rect x="247" y="200" width="18" height="17" />
<rect x="236" y="200" width="17" height="17" />
<rect x="224" y="200" width="17" height="17" />
<rect x="212" y="200" width="17" height="17" />
<rect x="200" y="200" width="17" height="17" />
<rect x="188" y="200" width="17" height="17" />
<rect x="247" y="211" width="18" height="18" />
<rect x="236" y="211" width="17" height="18" />
<rect x="224" y="211" width="17" height="18" />
<rect x="212" y="211" width="17" height="18" />
<rect x="200" y="211" width="17" height="18" />
<rect x="188" y="211" width="17" height="18" />
<rect x="247" y="223" width="18" height="18" />
<rect x="236" y="223" width="17" height="18" />
<rect x="224" y="223" width="17" height="18" />
<rect x="212" y="223" width="17" height="18" />
<rect x="236" y="235" width="17" height="17" />
<rect x="212" y="235" width="17" height="17" />
<rect x="247" y="247" width="18" height="17" />
<rect x="212" y="247" width="17" height="17" />
<rect x="259" y="259" width="18" height="17" />
<rect x="247" y="259" width="18" height="17" />
<rect x="212" y="259" width="17" height="17" />
<rect x="247" y="235" width="18" height="17" />
<rect x="244" y="223" width="13" height="17" />
<rect x="252" y="249" width="10" height="10" />
</g>
<g class="spawningMap-uncommon">
<rect x="226" y="179" width="12" height="12" />
<rect x="224" y="207" width="16" height="10" />
<rect x="224" y="206" width="11" height="10" />
<rect x="225" y="211" width="10" height="9" />
<rect x="223" y="219" width="10" height="9" />
<rect x="220" y="217" width="12" height="11" />
<rect x="226" y="214" width="10" height="9" />
<rect x="230" y="220" width="8" height="7" />
<rect x="223" y="218" width="7" height="8" />
<rect x="216" y="222" width="18" height="10" />
<rect x="230" y="211" width="10" height="24" />
<rect x="212" y="222" width="10" height="9" />
<rect x="240" y="204" width="8" height="9" />
<rect x="240" y="203" width="8" height="9" />
<rect x="237" y="202" width="7" height="7" />
<rect x="235" y="205" width="9" height="10" />
<rect x="235" y="211" width="9" height="16" />
<rect x="243" y="216" width="8" height="8" />
</g>
</g>
</svg>