<?xml version="1.0" encoding="utf-8"?>
<svg xmlns="http://www.w3.org/2000/svg" width="300" height="300"
        viewBox="0 0 300 300" class="creatureMap" style="position:absolute;">
    <defs>
        <filter id="blur" x="-30%" y="-30%" width="160%" height="160%">
            <feGaussianBlur stdDeviation="3" />
        </filter>
        <pattern id="pattern-untameable" width="10" height="10" patternTransform="rotate(135)" patternUnits="userSpaceOnUse">
            <rect width="4" height="10" fill="black"></rect>
        </pattern>
        <filter id="groupStroke">
            <feFlood result="outsideColor" flood-color="black"/>
            <feMorphology in="SourceAlpha" operator="dilate" radius="2"/>
            <feComposite result="strokeoutline1" in="outsideColor" operator="in"/>
            <feComposite result="strokeoutline2" in="strokeoutline1" in2="SourceAlpha" operator="out"/>
            <feGaussianBlur in="strokeoutline2" result="strokeblur" stdDeviation="1"/>
        </filter>
        <style>
            .spawningMap-very-common { fill: #0F0; }
            .spawningMap-common { fill: #B2FF00; }
            .spawningMap-uncommon { fill: #FF0; }
            .spawningMap-very-uncommon { fill: #FC0; }
            .spawningMap-rare { fill: #F60; }
            .spawningMap-very-rare { fill: #F00; }
            .spawning-map-point { stroke:black; stroke-width:1; }
        </style>
    </defs>

<g filter="url(#blur)" opacity="0.7">
<g class="spawningMap-very-uncommon">
<rect x="4" y="184" width="20" height="12" />
<rect x="4" y="191" width="20" height="18" />
<rect x="4" y="204" width="20" height="19" />
<rect x="4" y="217" width="20" height="19" />
<rect x="4" y="231" width="20" height="18" />
<rect x="4" y="244" width="20" height="18" />
<rect x="4" y="257" width="20" height="18" />
<rect x="4" y="270" width="20" height="19" />
<rect x="4" y="283" width="20" height="15" />
<rect x="85" y="191" width="19" height="18" />
<rect x="85" y="184" width="19" height="12" />
<rect x="85" y="204" width="19" height="19" />
<rect x="85" y="217" width="19" height="19" />
<rect x="85" y="231" width="19" height="18" />
<rect x="85" y="244" width="19" height="18" />
<rect x="85" y="257" width="19" height="18" />
<rect x="85" y="270" width="19" height="19" />
<rect x="85" y="283" width="19" height="15" />
<rect x="72" y="184" width="19" height="12" />
<rect x="72" y="191" width="19" height="18" />
<rect x="72" y="204" width="19" height="19" />
<rect x="72" y="217" width="19" height="19" />
<rect x="72" y="231" width="19" height="18" />
<rect x="72" y="244" width="19" height="18" />
<rect x="72" y="257" width="19" height="18" />
<rect x="72" y="270" width="19" height="19" />
<rect x="72" y="283" width="19" height="15" />
<rect x="59" y="184" width="18" height="12" />
<rect x="59" y="191" width="18" height="18" />
<rect x="59" y="204" width="18" height="19" />
<rect x="59" y="217" width="18" height="19" />
<rect x="59" y="231" width="18" height="18" />
<rect x="59" y="244" width="18" height="18" />
<rect x="59" y="257" width="18" height="18" />
<rect x="59" y="270" width="18" height="19" />
<rect x="59" y="283" width="18" height="15" />
<rect x="46" y="184" width="18" height="12" />
<rect x="46" y="191" width="18" height="18" />
<rect x="46" y="204" width="18" height="19" />
<rect x="46" y="231" width="18" height="18" />
<rect x="46" y="257" width="18" height="18" />
<rect x="46" y="270" width="18" height="19" />
<rect x="46" y="283" width="18" height="15" />
</g>
<g class="spawningMap-uncommon">
<rect x="152" y="184" width="11" height="12" />
<rect x="152" y="191" width="11" height="18" />
<rect x="152" y="204" width="11" height="19" />
<rect x="152" y="217" width="11" height="19" />
<rect x="152" y="231" width="11" height="18" />
<rect x="152" y="244" width="11" height="18" />
<rect x="152" y="257" width="11" height="18" />
<rect x="152" y="270" width="11" height="19" />
<rect x="152" y="283" width="11" height="15" />
<rect x="138" y="184" width="19" height="12" />
<rect x="138" y="191" width="19" height="18" />
<rect x="138" y="204" width="19" height="19" />
<rect x="138" y="217" width="19" height="19" />
<rect x="138" y="231" width="19" height="18" />
<rect x="138" y="244" width="19" height="18" />
<rect x="138" y="257" width="19" height="18" />
<rect x="138" y="283" width="19" height="15" />
<rect x="125" y="184" width="18" height="12" />
<rect x="125" y="191" width="18" height="18" />
<rect x="125" y="204" width="18" height="19" />
<rect x="125" y="217" width="18" height="19" />
<rect x="125" y="231" width="18" height="18" />
<rect x="125" y="244" width="18" height="18" />
<rect x="125" y="257" width="18" height="18" />
<rect x="125" y="270" width="18" height="19" />
<rect x="125" y="283" width="18" height="15" />
<rect x="112" y="184" width="18" height="12" />
<rect x="112" y="191" width="18" height="18" />
<rect x="112" y="204" width="18" height="19" />
<rect x="112" y="217" width="18" height="19" />
<rect x="112" y="231" width="18" height="18" />
<rect x="112" y="244" width="18" height="18" />
<rect x="112" y="257" width="18" height="18" />
<rect x="112" y="270" width="18" height="19" />
<rect x="112" y="283" width="18" height="15" />
<rect x="99" y="184" width="18" height="12" />
<rect x="99" y="191" width="18" height="18" />
<rect x="99" y="204" width="18" height="19" />
<rect x="99" y="217" width="18" height="19" />
<rect x="99" y="231" width="18" height="18" />
<rect x="99" y="244" width="18" height="18" />
<rect x="99" y="257" width="18" height="18" />
<rect x="99" y="270" width="18" height="19" />
<rect x="99" y="283" width="18" height="15" />
<rect x="46" y="217" width="18" height="19" />
<rect x="46" y="244" width="18" height="18" />
<rect x="32" y="184" width="19" height="12" />
<rect x="32" y="191" width="19" height="18" />
<rect x="32" y="217" width="19" height="19" />
<rect x="32" y="231" width="19" height="18" />
<rect x="32" y="244" width="19" height="18" />
<rect x="32" y="257" width="19" height="18" />
<rect x="32" y="270" width="19" height="19" />
<rect x="32" y="283" width="19" height="15" />
<rect x="19" y="184" width="19" height="12" />
<rect x="19" y="191" width="19" height="18" />
<rect x="19" y="204" width="19" height="19" />
<rect x="19" y="217" width="19" height="19" />
<rect x="19" y="231" width="19" height="18" />
<rect x="19" y="244" width="19" height="18" />
<rect x="19" y="257" width="19" height="18" />
<rect x="19" y="270" width="19" height="19" />
<rect x="19" y="283" width="19" height="15" />
<rect x="285" y="133" width="15" height="15" />
<rect x="272" y="133" width="18" height="15" />
<rect x="259" y="133" width="18" height="15" />
<rect x="285" y="120" width="15" height="19" />
<rect x="272" y="120" width="18" height="19" />
<rect x="259" y="120" width="18" height="19" />
<rect x="285" y="107" width="15" height="18" />
<rect x="272" y="107" width="18" height="18" />
<rect x="285" y="94" width="15" height="18" />
<rect x="272" y="94" width="18" height="18" />
<rect x="285" y="80" width="15" height="19" />
<rect x="272" y="80" width="18" height="19" />
<rect x="285" y="67" width="15" height="19" />
<rect x="272" y="67" width="18" height="19" />
<rect x="259" y="94" width="18" height="18" />
<rect x="245" y="94" width="19" height="18" />
<rect x="259" y="80" width="18" height="19" />
<rect x="245" y="80" width="19" height="19" />
<rect x="259" y="67" width="18" height="19" />
<rect x="245" y="67" width="19" height="19" />
<rect x="245" y="133" width="19" height="15" />
<rect x="232" y="133" width="19" height="15" />
<rect x="245" y="120" width="19" height="19" />
<rect x="232" y="120" width="19" height="19" />
<rect x="245" y="107" width="19" height="18" />
<rect x="232" y="107" width="19" height="18" />
<rect x="219" y="133" width="18" height="15" />
<rect x="209" y="133" width="15" height="15" />
<rect x="219" y="120" width="18" height="19" />
<rect x="209" y="120" width="15" height="19" />
<rect x="219" y="107" width="18" height="18" />
<rect x="209" y="107" width="15" height="18" />
<rect x="259" y="107" width="18" height="18" />
<rect x="219" y="94" width="18" height="18" />
<rect x="232" y="94" width="19" height="18" />
<rect x="209" y="94" width="15" height="18" />
<rect x="219" y="80" width="18" height="19" />
<rect x="232" y="80" width="19" height="19" />
<rect x="209" y="80" width="15" height="19" />
<rect x="219" y="67" width="18" height="19" />
<rect x="232" y="67" width="19" height="19" />
<rect x="209" y="67" width="15" height="19" />
<rect x="219" y="54" width="18" height="18" />
<rect x="232" y="54" width="19" height="18" />
<rect x="209" y="54" width="15" height="18" />
<rect x="219" y="41" width="18" height="18" />
<rect x="232" y="41" width="19" height="18" />
<rect x="209" y="41" width="15" height="18" />
<rect x="219" y="28" width="18" height="18" />
<rect x="232" y="28" width="19" height="18" />
<rect x="209" y="28" width="15" height="18" />
<rect x="219" y="14" width="18" height="19" />
<rect x="232" y="14" width="19" height="19" />
<rect x="209" y="14" width="15" height="19" />
<rect x="219" y="1" width="18" height="19" />
<rect x="232" y="1" width="19" height="19" />
<rect x="209" y="1" width="15" height="19" />
<rect x="245" y="54" width="19" height="18" />
<rect x="245" y="41" width="19" height="18" />
<rect x="245" y="28" width="19" height="18" />
<rect x="245" y="14" width="19" height="19" />
<rect x="245" y="1" width="19" height="19" />
<rect x="259" y="41" width="18" height="18" />
<rect x="259" y="28" width="18" height="18" />
<rect x="259" y="14" width="18" height="19" />
<rect x="259" y="1" width="18" height="19" />
<rect x="272" y="54" width="18" height="18" />
<rect x="272" y="41" width="18" height="18" />
<rect x="272" y="28" width="18" height="18" />
<rect x="272" y="14" width="18" height="19" />
<rect x="272" y="1" width="18" height="19" />
<rect x="285" y="54" width="15" height="18" />
<rect x="285" y="41" width="15" height="18" />
<rect x="285" y="28" width="15" height="18" />
<rect x="285" y="14" width="15" height="19" />
<rect x="285" y="1" width="15" height="19" />
<rect x="32" y="204" width="19" height="19" />
<rect x="138" y="270" width="19" height="19" />
<rect x="259" y="54" width="18" height="18" />
</g>
</g>
</svg>