<?xml version="1.0" encoding="utf-8"?>
<svg xmlns="http://www.w3.org/2000/svg" width="300" height="300"
        viewBox="0 0 300 300" class="creatureMap" style="position:absolute;">
    <defs>
        <filter id="blur" x="-30%" y="-30%" width="160%" height="160%">
            <feGaussianBlur stdDeviation="3" />
        </filter>
        <pattern id="pattern-untameable" width="10" height="10" patternTransform="rotate(135)" patternUnits="userSpaceOnUse">
            <rect width="4" height="10" fill="black"></rect>
        </pattern>
        <filter id="groupStroke">
            <feFlood result="outsideColor" flood-color="black"/>
            <feMorphology in="SourceAlpha" operator="dilate" radius="2"/>
            <feComposite result="strokeoutline1" in="outsideColor" operator="in"/>
            <feComposite result="strokeoutline2" in="strokeoutline1" in2="SourceAlpha" operator="out"/>
            <feGaussianBlur in="strokeoutline2" result="strokeblur" stdDeviation="1"/>
        </filter>
        <style>
            .spawningMap-very-common { fill: #0F0; }
            .spawningMap-common { fill: #B2FF00; }
            .spawningMap-uncommon { fill: #FF0; }
            .spawningMap-very-uncommon { fill: #FC0; }
            .spawningMap-rare { fill: #F60; }
            .spawningMap-very-rare { fill: #F00; }
            .spawning-map-point { stroke:black; stroke-width:1; }
        </style>
    </defs>

<g filter="url(#blur)" opacity="0.7">
<g class="spawningMap-very-rare">
<rect x="18" y="85" width="11" height="11" />
<rect x="16" y="95" width="11" height="11" />
<rect x="37" y="213" width="10" height="11" />
<rect x="19" y="110" width="12" height="11" />
<rect x="25" y="120" width="11" height="11" />
<rect x="24" y="130" width="11" height="11" />
<rect x="24" y="135" width="11" height="11" />
<rect x="26" y="144" width="11" height="11" />
<rect x="29" y="158" width="11" height="11" />
<rect x="30" y="169" width="12" height="11" />
<rect x="31" y="185" width="10" height="11" />
<rect x="29" y="193" width="10" height="11" />
<rect x="30" y="198" width="11" height="11" />
<rect x="30" y="203" width="10" height="11" />
<rect x="32" y="208" width="10" height="11" />
<rect x="45" y="222" width="10" height="11" />
<rect x="39" y="218" width="10" height="11" />
</g>
<g class="spawningMap-rare">
<rect x="96" y="62" width="17" height="17" />
<rect x="108" y="62" width="16" height="17" />
<rect x="108" y="73" width="16" height="17" />
<rect x="96" y="85" width="17" height="16" />
<rect x="108" y="85" width="16" height="16" />
<rect x="96" y="96" width="17" height="17" />
<rect x="108" y="96" width="16" height="17" />
<rect x="96" y="108" width="17" height="16" />
<rect x="108" y="108" width="16" height="16" />
<rect x="119" y="62" width="16" height="17" />
<rect x="130" y="62" width="17" height="17" />
<rect x="153" y="62" width="17" height="17" />
<rect x="130" y="73" width="17" height="17" />
<rect x="130" y="85" width="17" height="16" />
<rect x="153" y="85" width="17" height="16" />
<rect x="119" y="96" width="16" height="17" />
<rect x="153" y="96" width="17" height="17" />
<rect x="119" y="108" width="16" height="16" />
<rect x="142" y="108" width="16" height="16" />
<rect x="165" y="108" width="16" height="16" />
<rect x="176" y="73" width="16" height="17" />
<rect x="176" y="85" width="16" height="16" />
<rect x="187" y="85" width="17" height="16" />
<rect x="176" y="96" width="16" height="17" />
<rect x="187" y="96" width="17" height="17" />
<rect x="176" y="108" width="16" height="16" />
<rect x="187" y="108" width="17" height="16" />
<rect x="51" y="130" width="16" height="17" />
<rect x="39" y="142" width="17" height="16" />
<rect x="51" y="142" width="16" height="16" />
<rect x="28" y="153" width="16" height="17" />
<rect x="39" y="153" width="17" height="17" />
<rect x="51" y="153" width="16" height="17" />
<rect x="62" y="119" width="17" height="16" />
<rect x="96" y="119" width="17" height="16" />
<rect x="108" y="119" width="16" height="16" />
<rect x="62" y="130" width="17" height="17" />
<rect x="73" y="130" width="17" height="17" />
<rect x="85" y="130" width="16" height="17" />
<rect x="96" y="130" width="17" height="17" />
<rect x="108" y="130" width="16" height="17" />
<rect x="62" y="142" width="17" height="16" />
<rect x="73" y="142" width="17" height="16" />
<rect x="85" y="142" width="16" height="16" />
<rect x="96" y="142" width="17" height="16" />
<rect x="108" y="142" width="16" height="16" />
<rect x="62" y="153" width="17" height="17" />
<rect x="73" y="153" width="17" height="17" />
<rect x="85" y="153" width="16" height="17" />
<rect x="96" y="153" width="17" height="17" />
<rect x="108" y="153" width="16" height="17" />
<rect x="62" y="165" width="17" height="16" />
<rect x="73" y="165" width="17" height="16" />
<rect x="85" y="165" width="16" height="16" />
<rect x="96" y="165" width="17" height="16" />
<rect x="142" y="119" width="16" height="16" />
<rect x="165" y="119" width="16" height="16" />
<rect x="119" y="130" width="16" height="17" />
<rect x="165" y="130" width="16" height="17" />
<rect x="119" y="142" width="16" height="16" />
<rect x="130" y="142" width="17" height="16" />
<rect x="165" y="142" width="16" height="16" />
<rect x="119" y="153" width="16" height="17" />
<rect x="130" y="153" width="17" height="17" />
<rect x="153" y="153" width="17" height="17" />
<rect x="165" y="165" width="16" height="16" />
<rect x="176" y="119" width="16" height="16" />
<rect x="199" y="119" width="16" height="16" />
<rect x="210" y="119" width="17" height="16" />
<rect x="210" y="130" width="17" height="17" />
<rect x="221" y="130" width="17" height="17" />
<rect x="210" y="142" width="17" height="16" />
<rect x="176" y="153" width="16" height="17" />
<rect x="221" y="153" width="17" height="17" />
<rect x="176" y="165" width="16" height="16" />
<rect x="62" y="176" width="17" height="16" />
<rect x="108" y="199" width="16" height="16" />
<rect x="62" y="210" width="17" height="17" />
<rect x="73" y="210" width="17" height="17" />
<rect x="119" y="199" width="16" height="16" />
<rect x="130" y="199" width="17" height="16" />
<rect x="153" y="221" width="17" height="17" />
<rect x="165" y="221" width="16" height="17" />
<rect x="210" y="187" width="17" height="17" />
<rect x="221" y="187" width="17" height="17" />
<rect x="221" y="199" width="17" height="16" />
<rect x="221" y="210" width="17" height="17" />
<rect x="176" y="221" width="16" height="17" />
<rect x="187" y="221" width="17" height="17" />
<rect x="221" y="221" width="17" height="17" />
<rect x="233" y="187" width="16" height="17" />
<rect x="244" y="187" width="17" height="17" />
<rect x="256" y="187" width="16" height="17" />
<rect x="233" y="199" width="16" height="16" />
<rect x="244" y="199" width="17" height="16" />
<rect x="256" y="199" width="16" height="16" />
<rect x="244" y="210" width="17" height="17" />
<rect x="165" y="233" width="16" height="16" />
<rect x="153" y="244" width="17" height="17" />
<rect x="165" y="244" width="16" height="17" />
<rect x="176" y="233" width="16" height="16" />
<rect x="199" y="233" width="16" height="16" />
<rect x="130" y="39" width="17" height="17" />
<rect x="119" y="39" width="16" height="17" />
<rect x="108" y="51" width="16" height="16" />
<rect x="165" y="28" width="16" height="16" />
<rect x="108" y="39" width="16" height="17" />
<rect x="85" y="39" width="16" height="17" />
<rect x="108" y="28" width="16" height="16" />
<rect x="96" y="28" width="17" height="16" />
<rect x="153" y="28" width="17" height="16" />
<rect x="85" y="28" width="16" height="16" />
<rect x="96" y="16" width="17" height="17" />
<rect x="85" y="16" width="16" height="17" />
<rect x="153" y="39" width="17" height="17" />
<rect x="119" y="51" width="16" height="16" />
<rect x="130" y="51" width="17" height="16" />
<rect x="153" y="51" width="17" height="16" />
<rect x="130" y="28" width="17" height="16" />
<rect x="119" y="28" width="16" height="16" />
</g>
</g>
</svg>