<svg xmlns="http://www.w3.org/2000/svg" width="1024" height="1024" viewBox="0 0 1024 1024" style="position: absolute; width:100%; height:100%;">
<defs>
    <filter id="blur" x="-30%" y="-30%" width="160%" height="160%">'
        <feColorMatrix type="matrix" values="1 0 0 1 0, 0 1 0 0 0, 0 0 1 0 0, 0 0 0 0.7 0"/>
        <feGaussianBlur stdDeviation="10" />
    </filter>
</defs>
<a href="/The_Unknown_(Valguero)" class="svgRegion">
    <g filter="url(#blur)">
<rect x="553" y="296" width="130" height="253" />
<rect x="570" y="417" width="87" height="133" />
    </g>
    <text x="512" y="60">The Unknown</text>
</a>
<a href="/Boreal_Forest_(Valguero)" class="svgRegion">
    <g filter="url(#blur)">
<rect x="476" y="157" width="394" height="487" />
<rect x="239" y="157" width="237" height="338" />
    </g>
    <text x="512" y="60">Boreal Forest</text>
</a>
<a href="/Jungle_(Valguero)" class="svgRegion">
    <g filter="url(#blur)">
<rect x="852" y="231" width="172" height="518" />
    </g>
    <text x="512" y="60">Jungle</text>
</a>
<a href="/The_Lake_(Valguero)" class="svgRegion">
    <g filter="url(#blur)">
<rect x="237" y="371" width="390" height="390" />
    </g>
    <text x="512" y="60">The Lake</text>
</a>
<a href="/The_Redwoods_(Valguero)" class="svgRegion">
    <g filter="url(#blur)">
<rect x="0" y="752" width="757" height="272" />
<rect x="0" y="328" width="410" height="424" />
<rect x="0" y="222" width="281" height="344" />
<rect x="259" y="222" width="15" height="237" />
<rect x="0" y="521" width="410" height="231" />
    </g>
    <text x="512" y="60">The Redwoods</text>
</a>
<a href="/The_White_Cliffs_(Valguero)" class="svgRegion">
    <g filter="url(#blur)">
<rect x="447" y="694" width="577" height="330" />
<rect x="913" y="662" width="111" height="147" />
    </g>
    <text x="512" y="60">The White Cliffs</text>
</a>
<a href="/Forsaken_Oasis_(Valguero)" class="svgRegion">
    <g filter="url(#blur)">
<rect x="453" y="471" width="108" height="80" />
    </g>
    <text x="512" y="60">Forsaken Oasis</text>
</a>
<a href="/Tundra_(Valguero)" class="svgRegion">
    <g filter="url(#blur)">
<rect x="0" y="222" width="287" height="379" />
    </g>
    <text x="512" y="60">Tundra</text>
</a>
<a href="/Felsblock_Pass_(Valguero)" class="svgRegion">
    <g filter="url(#blur)">
<rect x="601" y="120" width="79" height="39" />
<rect x="696" y="95" width="58" height="45" />
<rect x="674" y="120" width="26" height="27" />
<rect x="683" y="108" width="38" height="38" />
    </g>
    <text x="512" y="60">Felsblock Pass</text>
</a>
<a href="/Tundra_Crossing_(Valguero)" class="svgRegion">
    <g filter="url(#blur)">
<rect x="4" y="186" width="323" height="57" />
    </g>
    <text x="512" y="60">Tundra Crossing</text>
</a>
<a href="/Snow_Desert_(Valguero)" class="svgRegion">
    <g filter="url(#blur)">
<rect x="748" y="0" width="276" height="143" />
    </g>
    <text x="512" y="60">Snow Desert</text>
</a>
<a href="/Snow_Mountains_(Valguero)" class="svgRegion">
    <g filter="url(#blur)">
<rect x="0" y="0" width="560" height="213" />
<rect x="939" y="0" width="85" height="231" />
<rect x="0" y="0" width="735" height="223" />
<rect x="585" y="0" width="354" height="146" />
    </g>
    <text x="512" y="60">Snow Mountains</text>
</a>
<a href="/Jungle_Cliff_Ridge_(Valguero)" class="svgRegion">
    <g filter="url(#blur)">
<rect x="957" y="142" width="67" height="84" />
    </g>
    <text x="512" y="60">Jungle Cliff Ridge</text>
</a>
<a href="/Icewall_Plateau_(Valguero)" class="svgRegion">
    <g filter="url(#blur)">
<rect x="405" y="0" width="196" height="153" />
    </g>
    <text x="512" y="60">Icewall Plateau</text>
</a>
<a href="/Beaver_Lake_(Valguero)" class="svgRegion">
    <g filter="url(#blur)">
<rect x="740" y="514" width="108" height="107" />
    </g>
    <text x="512" y="60">Beaver Lake</text>
</a>
<a href="/Beaver_Moore_(Valguero)" class="svgRegion">
    <g filter="url(#blur)">
<rect x="29" y="352" width="69" height="75" />
    </g>
    <text x="512" y="60">Beaver Moore</text>
</a>
<a href="/Bergfestung_(Valguero)" class="svgRegion">
    <g filter="url(#blur)">
<rect x="130" y="289" width="48" height="78" />
    </g>
    <text x="512" y="60">Bergfestung</text>
</a>
<a href="/Claw_Valley_(Valguero)" class="svgRegion">
    <g filter="url(#blur)">
<rect x="77" y="285" width="58" height="115" />
<rect x="134" y="336" width="23" height="55" />
    </g>
    <text x="512" y="60">Claw Valley</text>
</a>
<a href="/Forgotten_City_(Valguero)" class="svgRegion">
    <g filter="url(#blur)">
<rect x="962" y="858" width="58" height="108" />
<rect x="950" y="912" width="43" height="98" />
<rect x="975" y="912" width="14" height="57" />
    </g>
    <text x="512" y="60">Forgotten City</text>
</a>
<a href="/Grand_Glacier_(Valguero)" class="svgRegion">
    <g filter="url(#blur)">
<rect x="0" y="0" width="83" height="60" />
    </g>
    <text x="512" y="60">Grand Glacier</text>
</a>
<a href="/Green_Canyon_(Valguero)" class="svgRegion">
    <g filter="url(#blur)">
<rect x="976" y="383" width="48" height="48" />
<rect x="956" y="371" width="65" height="42" />
    </g>
    <text x="512" y="60">Green Canyon</text>
</a>
<a href="/Hidden_Lake_(Valguero)" class="svgRegion">
    <g filter="url(#blur)">
<rect x="1002" y="279" width="22" height="38" />
    </g>
    <text x="512" y="60">Hidden Lake</text>
</a>
<a href="/Highmountain_(Valguero)" class="svgRegion">
    <g filter="url(#blur)">
<rect x="298" y="849" width="133" height="111" />
<rect x="290" y="867" width="53" height="58" />
    </g>
    <text x="512" y="60">Highmountain</text>
</a>
<a href="/Schwarzwald_(Valguero)" class="svgRegion">
    <g filter="url(#blur)">
<rect x="375" y="35" width="115" height="125" />
    </g>
    <text x="512" y="60">Schwarzwald</text>
</a>
<a href="/Skeleton_Gorge_(Valguero)" class="svgRegion">
    <g filter="url(#blur)">
<rect x="370" y="191" width="82" height="67" />
    </g>
    <text x="512" y="60">Skeleton Gorge</text>
</a>
<a href="/The_Dam_(Valguero)" class="svgRegion">
    <g filter="url(#blur)">
<rect x="125" y="977" width="74" height="47" />
<rect x="569" y="253" width="69" height="60" />
    </g>
    <text x="512" y="60">The Dam</text>
</a>
<a href="/The_Falls_(Valguero)" class="svgRegion">
    <g filter="url(#blur)">
<rect x="346" y="1008" width="74" height="16" />
    </g>
    <text x="512" y="60">The Falls</text>
</a>
<a href="/The_Farm_(Valguero)" class="svgRegion">
    <g filter="url(#blur)">
<rect x="516" y="547" width="41" height="41" />
    </g>
    <text x="512" y="60">The Farm</text>
</a>
<a href="/The_Great_Trench_(Valguero)" class="svgRegion">
    <g filter="url(#blur)">
<rect x="749" y="0" width="127" height="47" />
    </g>
    <text x="512" y="60">The Great Trench</text>
</a>
<a href="/The_Island_(Valguero)" class="svgRegion">
    <g filter="url(#blur)">
<rect x="0" y="941" width="20" height="83" />
    </g>
    <text x="512" y="60">The Island</text>
</a>
<a href="/The_Lair_(Valguero)" class="svgRegion">
    <g filter="url(#blur)">
<rect x="382" y="770" width="64" height="81" />
    </g>
    <text x="512" y="60">The Lair</text>
</a>
<a href="/The_Lost_Temple_(Valguero)" class="svgRegion">
    <g filter="url(#blur)">
<rect x="940" y="456" width="29" height="33" />
    </g>
    <text x="512" y="60">The Lost Temple</text>
</a>
<a href="/The_Maul_(Valguero)" class="svgRegion">
    <g filter="url(#blur)">
<rect x="680" y="833" width="73" height="73" />
    </g>
    <text x="512" y="60">The Maul</text>
</a>
<a href="/The_Moore_(Valguero)" class="svgRegion">
    <g filter="url(#blur)">
<rect x="27" y="1000" width="40" height="24" />
    </g>
    <text x="512" y="60">The Moore</text>
</a>
<a href="/The_Outpost_(Valguero)" class="svgRegion">
    <g filter="url(#blur)">
<rect x="484" y="211" width="52" height="45" />
    </g>
    <text x="512" y="60">The Outpost</text>
</a>
<a href="/The_Pillar_(Valguero)" class="svgRegion">
    <g filter="url(#blur)">
<rect x="510" y="658" width="41" height="36" />
    </g>
    <text x="512" y="60">The Pillar</text>
</a>
<a href="/The_Stronghold_(Valguero)" class="svgRegion">
    <g filter="url(#blur)">
<rect x="0" y="571" width="80" height="131" />
    </g>
    <text x="512" y="60">The Stronghold</text>
</a>
<a href="/The_Valley_(Valguero)" class="svgRegion">
    <g filter="url(#blur)">
<rect x="280" y="248" width="51" height="112" />
    </g>
    <text x="512" y="60">The Valley</text>
</a>
<a href="/Weather_Top_(Valguero)" class="svgRegion">
    <g filter="url(#blur)">
<rect x="700" y="364" width="73" height="60" />
    </g>
    <text x="512" y="60">Weather Top</text>
</a>
<a href="/The_Twin_Peaks_(Valguero)" class="svgRegion">
    <g filter="url(#blur)">
<rect x="328" y="628" width="45" height="34" />
    </g>
    <text x="512" y="60">The Twin Peaks</text>
</a>
<a href="/Urwald_Swamp_(Valguero)" class="svgRegion">
    <g filter="url(#blur)">
<rect x="865" y="346" width="101" height="204" />
    </g>
    <text x="512" y="60">Urwald Swamp</text>
</a>
<a href="/The_Skyguard_(Valguero)" class="svgRegion">
    <g filter="url(#blur)">
<rect x="734" y="953" width="290" height="71" />
    </g>
    <text x="512" y="60">The Skyguard</text>
</a>
<a href="/Glacier_Throughway_(Valguero)" class="svgRegion">
    <g filter="url(#blur)">
<rect x="634" y="28" width="114" height="95" />
    </g>
    <text x="512" y="60">Glacier Throughway</text>
</a>
<a href="/The_Paradise_(Valguero)" class="svgRegion">
    <g filter="url(#blur)">
<rect x="594" y="746" width="159" height="155" />
    </g>
    <text x="512" y="60">The Paradise</text>
</a>
<a href="/Felsblock_Plateau_(Valguero)" class="svgRegion">
    <g filter="url(#blur)">
<rect x="742" y="72" width="75" height="34" />
    </g>
    <text x="512" y="60">Felsblock Plateau</text>
</a>
<a href="/Glacier_Narrows_(Valguero)" class="svgRegion">
    <g filter="url(#blur)">
<rect x="591" y="2" width="43" height="128" />
    </g>
    <text x="512" y="60">Glacier Narrows</text>
</a>
<a href="/The_Emerald_Forest_(Valguero)" class="svgRegion">
    <g filter="url(#blur)">
<rect x="590" y="309" width="434" height="45" />
<rect x="596" y="107" width="428" height="217" />
<rect x="559" y="354" width="313" height="213" />
<rect x="491" y="170" width="133" height="187" />
<rect x="491" y="337" width="70" height="67" />
<rect x="556" y="334" width="10" height="14" />
    </g>
    <text x="512" y="60">The Emerald Forest</text>
</a>
<a href="/The_Abyss_(Valguero)" class="svgRegion">
    <g filter="url(#blur)">
<rect x="0" y="254" width="441" height="371" />
<rect x="336" y="457" width="508" height="356" />
    </g>
    <text x="512" y="60">The Abyss</text>
</a>
</svg>