<svg xmlns="http://www.w3.org/2000/svg" width="1024" height="1024" viewBox="0 0 1024 1024" style="position: absolute; width:100%; height:100%;">
<defs>
    <filter id="blur" x="-30%" y="-30%" width="160%" height="160%">'
        <feColorMatrix type="matrix" values="1 0 0 1 0, 0 1 0 0 0, 0 0 1 0 0, 0 0 0 0.7 0"/>
        <feGaussianBlur stdDeviation="10" />
    </filter>
</defs>
<a href="/Spire_Rock_Trail_(Genesis)" class="svgRegion">
    <g filter="url(#blur)">
<rect x="290" y="766" width="22" height="28" />
<rect x="243" y="812" width="17" height="27" />
<rect x="248" y="794" width="25" height="28" />
<rect x="260" y="788" width="27" height="16" />
<rect x="280" y="774" width="13" height="25" />
<rect x="281" y="750" width="14" height="26" />
<rect x="290" y="751" width="26" height="13" />
<rect x="314" y="752" width="26" height="14" />
<rect x="332" y="756" width="27" height="26" />
<rect x="346" y="769" width="23" height="28" />
<rect x="358" y="790" width="23" height="28" />
<rect x="366" y="808" width="13" height="26" />
<rect x="359" y="831" width="19" height="28" />
<rect x="343" y="848" width="28" height="23" />
<rect x="323" y="858" width="26" height="13" />
<rect x="304" y="845" width="27" height="26" />
<rect x="296" y="828" width="22" height="28" />
<rect x="287" y="806" width="21" height="28" />
<rect x="287" y="788" width="16" height="27" />
    </g>
    <text x="512" y="60">Spire Rock Trail</text>
</a>
<a href="/System_Root_(Genesis)" class="svgRegion">
    <g filter="url(#blur)">
<rect x="400" y="489" width="169" height="118" />
    </g>
    <text x="512" y="60">System Root</text>
</a>
<a href="/High_Orbit_(Genesis)" class="svgRegion">
    <g filter="url(#blur)">
<rect x="51" y="45" width="344" height="556" />
    </g>
    <text x="512" y="60">High Orbit</text>
</a>
<a href="/Volcano_(Genesis)" class="svgRegion">
    <g filter="url(#blur)">
<rect x="686" y="49" width="292" height="457" />
    </g>
    <text x="512" y="60">Volcano</text>
</a>
<a href="/Swamp_(Genesis)" class="svgRegion">
    <g filter="url(#blur)">
<rect x="583" y="520" width="395" height="458" />
    </g>
    <text x="512" y="60">Swamp</text>
</a>
<a href="/Ocean_(Genesis)" class="svgRegion">
    <g filter="url(#blur)">
<rect x="396" y="49" width="291" height="438" />
    </g>
    <text x="512" y="60">Ocean</text>
</a>
<a href="/Arctic_(Genesis)" class="svgRegion">
    <g filter="url(#blur)">
<rect x="48" y="607" width="521" height="370" />
    </g>
    <text x="512" y="60">Arctic</text>
</a>
<a href="/West_Arctic_(Genesis)" class="svgRegion">
    <g filter="url(#blur)">
<rect x="50" y="787" width="242" height="188" />
<rect x="50" y="614" width="242" height="173" />
    </g>
    <text x="512" y="60">West Arctic</text>
</a>
<a href="/Shallows_(Genesis)" class="svgRegion">
    <g filter="url(#blur)">
<rect x="396" y="49" width="291" height="438" />
    </g>
    <text x="512" y="60">Shallows</text>
</a>
<a href="/Open_Water_(Genesis)" class="svgRegion">
    <g filter="url(#blur)">
<rect x="396" y="49" width="291" height="438" />
    </g>
    <text x="512" y="60">Open Water</text>
</a>
<a href="/The_Trench_(Genesis)" class="svgRegion">
    <g filter="url(#blur)">
<rect x="396" y="49" width="291" height="438" />
    </g>
    <text x="512" y="60">The Trench</text>
</a>
<a href="/Mid_Arctic_(Genesis)" class="svgRegion">
    <g filter="url(#blur)">
<rect x="396" y="614" width="26" height="361" />
<rect x="348" y="614" width="48" height="361" />
<rect x="292" y="614" width="57" height="361" />
    </g>
    <text x="512" y="60">Mid Arctic</text>
</a>
<a href="/East_Arctic_(Genesis)" class="svgRegion">
    <g filter="url(#blur)">
<rect x="449" y="614" width="116" height="361" />
<rect x="422" y="614" width="28" height="361" />
    </g>
    <text x="512" y="60">East Arctic</text>
</a>
<a href="/It%27s_Cold_Up_Here_(Genesis)" class="svgRegion">
    <g filter="url(#blur)">
<rect x="54" y="618" width="284" height="348" />
<rect x="54" y="618" width="284" height="348" />
<rect x="54" y="618" width="284" height="348" />
<rect x="54" y="618" width="284" height="348" />
<rect x="54" y="618" width="284" height="348" />
<rect x="54" y="618" width="284" height="348" />
<rect x="54" y="618" width="284" height="348" />
<rect x="54" y="618" width="284" height="348" />
<rect x="54" y="618" width="284" height="348" />
<rect x="54" y="618" width="284" height="348" />
<rect x="54" y="618" width="284" height="348" />
    </g>
    <text x="512" y="60">It&#x27;s Cold Up Here</text>
</a>
<a href="/Big_Brother_(Genesis)" class="svgRegion">
    <g filter="url(#blur)">
<rect x="15" y="418" width="108" height="103" />
<rect x="29" y="470" width="85" height="98" />
    </g>
    <text x="512" y="60">Big Brother</text>
</a>
<a href="/Lesser_Ophelia_(Genesis)" class="svgRegion">
    <g filter="url(#blur)">
<rect x="82" y="533" width="53" height="58" />
<rect x="80" y="556" width="55" height="53" />
    </g>
    <text x="512" y="60">Lesser Ophelia</text>
</a>
<a href="/Keyleth_(Genesis)" class="svgRegion">
    <g filter="url(#blur)">
<rect x="145" y="159" width="49" height="73" />
<rect x="151" y="136" width="29" height="71" />
    </g>
    <text x="512" y="60">Keyleth</text>
</a>
<a href="/Crater_Carrot_(Genesis)" class="svgRegion">
    <g filter="url(#blur)">
<rect x="284" y="66" width="54" height="85" />
    </g>
    <text x="512" y="60">Crater Carrot</text>
</a>
<a href="/The_Stepstones_(Genesis)" class="svgRegion">
    <g filter="url(#blur)">
<rect x="48" y="53" width="119" height="70" />
<rect x="32" y="50" width="138" height="121" />
    </g>
    <text x="512" y="60">The Stepstones</text>
</a>
<a href="/Trinket_(Genesis)" class="svgRegion">
    <g filter="url(#blur)">
<rect x="223" y="56" width="46" height="104" />
    </g>
    <text x="512" y="60">Trinket</text>
</a>
<a href="/Percy_(Genesis)" class="svgRegion">
    <g filter="url(#blur)">
<rect x="123" y="237" width="39" height="53" />
    </g>
    <text x="512" y="60">Percy</text>
</a>
<a href="/Stone_Battleship_(Genesis)" class="svgRegion">
    <g filter="url(#blur)">
<rect x="188" y="345" width="83" height="87" />
<rect x="190" y="335" width="39" height="54" />
<rect x="182" y="298" width="57" height="108" />
<rect x="220" y="327" width="26" height="45" />
    </g>
    <text x="512" y="60">Stone Battleship</text>
</a>
<a href="/Arch_Mine_(Genesis)" class="svgRegion">
    <g filter="url(#blur)">
<rect x="183" y="406" width="58" height="56" />
    </g>
    <text x="512" y="60">Arch Mine</text>
</a>
<a href="/The_Flotilla_(Genesis)" class="svgRegion">
    <g filter="url(#blur)">
<rect x="264" y="490" width="33" height="49" />
<rect x="317" y="508" width="79" height="76" />
<rect x="277" y="473" width="60" height="58" />
<rect x="265" y="543" width="36" height="52" />
<rect x="294" y="547" width="36" height="52" />
<rect x="295" y="511" width="28" height="43" />
    </g>
    <text x="512" y="60">The Flotilla</text>
</a>
<a href="/Shards_of_Element_Rock_(Genesis)" class="svgRegion">
    <g filter="url(#blur)">
<rect x="346" y="507" width="41" height="31" />
<rect x="305" y="304" width="90" height="159" />
<rect x="307" y="362" width="90" height="160" />
<rect x="293" y="409" width="24" height="74" />
    </g>
    <text x="512" y="60">Shards of Element Rock</text>
</a>
<a href="/Greater_Ophelia_(Genesis)" class="svgRegion">
    <g filter="url(#blur)">
<rect x="102" y="467" width="91" height="84" />
<rect x="102" y="527" width="91" height="75" />
    </g>
    <text x="512" y="60">Greater Ophelia</text>
</a>
<a href="/Flotsam_(Genesis)" class="svgRegion">
    <g filter="url(#blur)">
<rect x="140" y="436" width="39" height="53" />
<rect x="136" y="407" width="29" height="38" />
    </g>
    <text x="512" y="60">Flotsam</text>
</a>
<a href="/Eye_of_Horus_(Genesis)" class="svgRegion">
    <g filter="url(#blur)">
<rect x="46" y="214" width="82" height="50" />
<rect x="29" y="123" width="88" height="73" />
<rect x="48" y="168" width="79" height="70" />
    </g>
    <text x="512" y="60">Eye of Horus</text>
</a>
<a href="/Jetsam_(Genesis)" class="svgRegion">
    <g filter="url(#blur)">
<rect x="157" y="444" width="36" height="55" />
<rect x="144" y="396" width="41" height="56" />
    </g>
    <text x="512" y="60">Jetsam</text>
</a>
<a href="/The_Long_Haul_(Genesis)" class="svgRegion">
    <g filter="url(#blur)">
<rect x="201" y="446" width="34" height="70" />
<rect x="202" y="393" width="28" height="60" />
    </g>
    <text x="512" y="60">The Long Haul</text>
</a>
<a href="/Reconciliation_(Genesis)" class="svgRegion">
    <g filter="url(#blur)">
<rect x="218" y="278" width="43" height="37" />
<rect x="218" y="314" width="43" height="73" />
    </g>
    <text x="512" y="60">Reconciliation</text>
</a>
<a href="/Grog_(Genesis)" class="svgRegion">
    <g filter="url(#blur)">
<rect x="208" y="182" width="64" height="81" />
    </g>
    <text x="512" y="60">Grog</text>
</a>
<a href="/Scanlan_(Genesis)" class="svgRegion">
    <g filter="url(#blur)">
<rect x="237" y="195" width="38" height="50" />
    </g>
    <text x="512" y="60">Scanlan</text>
</a>
<a href="/The_Castoffs_(Genesis)" class="svgRegion">
    <g filter="url(#blur)">
<rect x="327" y="63" width="66" height="171" />
<rect x="344" y="38" width="56" height="68" />
    </g>
    <text x="512" y="60">The Castoffs</text>
</a>
<a href="/Base_of_the_Ancients_(Genesis)" class="svgRegion">
    <g filter="url(#blur)">
<rect x="298" y="295" width="21" height="23" />
<rect x="305" y="241" width="56" height="63" />
<rect x="340" y="235" width="56" height="81" />
<rect x="318" y="181" width="73" height="78" />
<rect x="316" y="204" width="36" height="71" />
    </g>
    <text x="512" y="60">Base of the Ancients</text>
</a>
<a href="/Little_Sister_(Genesis)" class="svgRegion">
    <g filter="url(#blur)">
<rect x="35" y="311" width="97" height="130" />
    </g>
    <text x="512" y="60">Little Sister</text>
</a>
<a href="/Island_Skerry_(Genesis)" class="svgRegion">
    <g filter="url(#blur)">
<rect x="432" y="306" width="23" height="25" />
    </g>
    <text x="512" y="60">Island Skerry</text>
</a>
<a href="/Anvil_(Genesis)" class="svgRegion">
    <g filter="url(#blur)">
<rect x="607" y="237" width="56" height="50" />
    </g>
    <text x="512" y="60">Anvil</text>
</a>
<a href="/Terrarium_(Genesis)" class="svgRegion">
    <g filter="url(#blur)">
<rect x="547" y="327" width="28" height="22" />
    </g>
    <text x="512" y="60">Terrarium</text>
</a>
<a href="/Respite_(Genesis)" class="svgRegion">
    <g filter="url(#blur)">
<rect x="457" y="358" width="31" height="30" />
    </g>
    <text x="512" y="60">Respite</text>
</a>
<a href="/Shortcut_(Genesis)" class="svgRegion">
    <g filter="url(#blur)">
<rect x="526" y="211" width="12" height="12" />
<rect x="517" y="211" width="14" height="9" />
    </g>
    <text x="512" y="60">Shortcut</text>
</a>
<a href="/Paradise_Lost_(Genesis)" class="svgRegion">
    <g filter="url(#blur)">
<rect x="491" y="187" width="47" height="13" />
<rect x="496" y="152" width="42" height="38" />
<rect x="491" y="165" width="47" height="25" />
<rect x="495" y="156" width="24" height="14" />
<rect x="518" y="153" width="5" height="3" />
<rect x="516" y="154" width="11" height="9" />
<rect x="507" y="199" width="7" height="9" />
    </g>
    <text x="512" y="60">Paradise Lost</text>
</a>
<a href="/Leaky_Cauldron_(Genesis)" class="svgRegion">
    <g filter="url(#blur)">
<rect x="614" y="150" width="4" height="6" />
<rect x="600" y="145" width="16" height="24" />
<rect x="600" y="152" width="3" height="6" />
    </g>
    <text x="512" y="60">Leaky Cauldron</text>
</a>
<a href="/Sauna_(Genesis)" class="svgRegion">
    <g filter="url(#blur)">
<rect x="628" y="123" width="3" height="3" />
<rect x="626" y="106" width="15" height="15" />
<rect x="626" y="108" width="14" height="17" />
<rect x="626" y="113" width="14" height="8" />
<rect x="639" y="109" width="1" height="12" />
<rect x="626" y="108" width="3" height="5" />
<rect x="627" y="109" width="20" height="24" />
<rect x="645" y="118" width="1" height="15" />
    </g>
    <text x="512" y="60">Sauna</text>
</a>
<a href="/Long_Island_(Genesis)" class="svgRegion">
    <g filter="url(#blur)">
<rect x="512" y="154" width="77" height="33" />
<rect x="539" y="79" width="51" height="79" />
    </g>
    <text x="512" y="60">Long Island</text>
</a>
<a href="/Playground_(Genesis)" class="svgRegion">
    <g filter="url(#blur)">
<rect x="630" y="177" width="7" height="9" />
    </g>
    <text x="512" y="60">Playground</text>
</a>
<a href="/Sailor%27s_Rest_(Genesis)" class="svgRegion">
    <g filter="url(#blur)">
<rect x="436" y="215" width="22" height="17" />
    </g>
    <text x="512" y="60">Sailor&#x27;s Rest</text>
</a>
<a href="/Zen_Garden_(Genesis)" class="svgRegion">
    <g filter="url(#blur)">
<rect x="616" y="210" width="46" height="36" />
<rect x="613" y="218" width="7" height="14" />
<rect x="612" y="230" width="11" height="16" />
<rect x="614" y="202" width="58" height="53" />
<rect x="622" y="208" width="52" height="56" />
<rect x="626" y="251" width="17" height="11" />
<rect x="625" y="251" width="16" height="11" />
    </g>
    <text x="512" y="60">Zen Garden</text>
</a>
<a href="/Candle_Point_(Genesis)" class="svgRegion">
    <g filter="url(#blur)">
<rect x="596" y="82" width="19" height="23" />
    </g>
    <text x="512" y="60">Candle Point</text>
</a>
<a href="/Tyrannosaurs_Rocks_(Genesis)" class="svgRegion">
    <g filter="url(#blur)">
<rect x="596" y="179" width="49" height="42" />
    </g>
    <text x="512" y="60">Tyrannosaurs Rocks</text>
</a>
<a href="/Volatile_Oil_Field_(Genesis)" class="svgRegion">
    <g filter="url(#blur)">
<rect x="883" y="393" width="94" height="111" />
<rect x="854" y="457" width="55" height="47" />
    </g>
    <text x="512" y="60">Volatile Oil Field</text>
</a>
<a href="/Sluceway_(Genesis)" class="svgRegion">
    <g filter="url(#blur)">
<rect x="700" y="473" width="56" height="29" />
    </g>
    <text x="512" y="60">Sluceway</text>
</a>
<a href="/Oil_Bog_(Genesis)" class="svgRegion">
    <g filter="url(#blur)">
<rect x="690" y="76" width="56" height="28" />
    </g>
    <text x="512" y="60">Oil Bog</text>
</a>
<a href="/Sable_Pools_(Genesis)" class="svgRegion">
    <g filter="url(#blur)">
<rect x="937" y="50" width="40" height="80" />
    </g>
    <text x="512" y="60">Sable Pools</text>
</a>
<a href="/Spire_Rock_(Genesis)" class="svgRegion">
    <g filter="url(#blur)">
<rect x="322" y="817" width="36" height="61" />
<rect x="322" y="673" width="36" height="144" />
<rect x="322" y="817" width="36" height="61" />
<rect x="322" y="673" width="36" height="144" />
<rect x="322" y="817" width="36" height="61" />
<rect x="322" y="673" width="36" height="144" />
<rect x="322" y="817" width="36" height="61" />
<rect x="322" y="673" width="36" height="144" />
<rect x="286" y="673" width="36" height="144" />
<rect x="286" y="817" width="36" height="61" />
<rect x="322" y="817" width="36" height="61" />
<rect x="286" y="673" width="36" height="144" />
<rect x="286" y="817" width="36" height="61" />
<rect x="322" y="673" width="36" height="144" />
<rect x="263" y="755" width="23" height="105" />
<rect x="263" y="755" width="23" height="105" />
<rect x="263" y="755" width="23" height="105" />
<rect x="322" y="817" width="36" height="61" />
<rect x="322" y="673" width="36" height="144" />
<rect x="322" y="817" width="36" height="61" />
<rect x="322" y="673" width="36" height="144" />
<rect x="322" y="817" width="36" height="61" />
<rect x="286" y="673" width="36" height="144" />
<rect x="286" y="817" width="36" height="61" />
<rect x="286" y="673" width="36" height="144" />
<rect x="286" y="817" width="36" height="61" />
<rect x="286" y="673" width="36" height="144" />
<rect x="286" y="817" width="36" height="61" />
<rect x="286" y="673" width="36" height="144" />
<rect x="286" y="817" width="36" height="61" />
<rect x="286" y="673" width="36" height="144" />
<rect x="286" y="817" width="36" height="61" />
<rect x="286" y="673" width="36" height="144" />
<rect x="286" y="817" width="36" height="61" />
<rect x="286" y="673" width="36" height="144" />
<rect x="286" y="817" width="36" height="61" />
<rect x="286" y="673" width="36" height="144" />
<rect x="286" y="817" width="36" height="61" />
<rect x="286" y="673" width="36" height="144" />
<rect x="286" y="817" width="36" height="61" />
<rect x="356" y="770" width="23" height="105" />
<rect x="356" y="770" width="23" height="105" />
<rect x="356" y="770" width="23" height="105" />
<rect x="356" y="770" width="23" height="105" />
<rect x="356" y="770" width="23" height="105" />
<rect x="356" y="770" width="23" height="105" />
<rect x="356" y="770" width="23" height="105" />
<rect x="356" y="770" width="23" height="105" />
<rect x="356" y="770" width="23" height="105" />
<rect x="356" y="770" width="23" height="105" />
<rect x="356" y="770" width="23" height="105" />
<rect x="263" y="755" width="23" height="105" />
<rect x="263" y="755" width="23" height="105" />
<rect x="263" y="755" width="23" height="105" />
<rect x="263" y="755" width="23" height="105" />
<rect x="263" y="755" width="23" height="105" />
<rect x="263" y="755" width="23" height="105" />
<rect x="263" y="755" width="23" height="105" />
<rect x="263" y="755" width="23" height="105" />
<rect x="322" y="673" width="36" height="144" />
<rect x="322" y="673" width="36" height="144" />
<rect x="322" y="817" width="36" height="61" />
<rect x="322" y="673" width="36" height="144" />
<rect x="322" y="817" width="36" height="61" />
<rect x="322" y="673" width="36" height="144" />
<rect x="322" y="817" width="36" height="61" />
    </g>
    <text x="512" y="60">Spire Rock</text>
</a>
<a href="/Vex%27ahlia_(Genesis)" class="svgRegion">
    <g filter="url(#blur)">
<rect x="248" y="34" width="46" height="70" />
    </g>
    <text x="512" y="60">Vex&#x27;ahlia</text>
</a>
<a href="/Lower_Vecna_(Genesis)" class="svgRegion">
    <g filter="url(#blur)">
<rect x="172" y="55" width="46" height="71" />
    </g>
    <text x="512" y="60">Lower Vecna</text>
</a>
<a href="/Middle_Vecna_(Genesis)" class="svgRegion">
    <g filter="url(#blur)">
<rect x="181" y="123" width="47" height="70" />
    </g>
    <text x="512" y="60">Middle Vecna</text>
</a>
<a href="/Devo%27ssa_(Genesis)" class="svgRegion">
    <g filter="url(#blur)">
<rect x="129" y="215" width="35" height="26" />
    </g>
    <text x="512" y="60">Devo&#x27;ssa</text>
</a>
<a href="/Vax%27ildan_(Genesis)" class="svgRegion">
    <g filter="url(#blur)">
<rect x="173" y="231" width="25" height="62" />
    </g>
    <text x="512" y="60">Vax&#x27;ildan</text>
</a>
<a href="/Zahra_(Genesis)" class="svgRegion">
    <g filter="url(#blur)">
<rect x="162" y="235" width="29" height="43" />
    </g>
    <text x="512" y="60">Zahra</text>
</a>
<a href="/Kashaw_(Genesis)" class="svgRegion">
    <g filter="url(#blur)">
<rect x="195" y="209" width="29" height="50" />
    </g>
    <text x="512" y="60">Kashaw</text>
</a>
<a href="/Goalposts_(Genesis)" class="svgRegion">
    <g filter="url(#blur)">
<rect x="192" y="261" width="35" height="38" />
    </g>
    <text x="512" y="60">Goalposts</text>
</a>
<a href="/Rocky_Rock_(Genesis)" class="svgRegion">
    <g filter="url(#blur)">
<rect x="167" y="459" width="57" height="41" />
    </g>
    <text x="512" y="60">Rocky Rock</text>
</a>
<a href="/Dead_Scar_(Genesis)" class="svgRegion">
    <g filter="url(#blur)">
<rect x="240" y="453" width="28" height="41" />
    </g>
    <text x="512" y="60">Dead Scar</text>
</a>
<a href="/The_Loner_(Genesis)" class="svgRegion">
    <g filter="url(#blur)">
<rect x="255" y="397" width="28" height="48" />
    </g>
    <text x="512" y="60">The Loner</text>
</a>
<a href="/Levi%27s_Chair_(Genesis)" class="svgRegion">
    <g filter="url(#blur)">
<rect x="624" y="59" width="51" height="79" />
    </g>
    <text x="512" y="60">Levi&#x27;s Chair</text>
</a>
<a href="/Leap_of_Faith_(Genesis)" class="svgRegion">
    <g filter="url(#blur)">
<rect x="173" y="502" width="41" height="47" />
<rect x="197" y="529" width="36" height="78" />
    </g>
    <text x="512" y="60">Leap of Faith</text>
</a>
<a href="/Truth_(Genesis)" class="svgRegion">
    <g filter="url(#blur)">
<rect x="171" y="316" width="39" height="76" />
    </g>
    <text x="512" y="60">Truth</text>
</a>
<a href="/Serpent_Scales_(Genesis)" class="svgRegion">
    <g filter="url(#blur)">
<rect x="100" y="292" width="68" height="135" />
<rect x="101" y="422" width="28" height="38" />
<rect x="160" y="291" width="20" height="28" />
    </g>
    <text x="512" y="60">Serpent Scales</text>
</a>
<a href="/Upper_Vecna_(Genesis)" class="svgRegion">
    <g filter="url(#blur)">
<rect x="204" y="209" width="39" height="36" />
<rect x="204" y="165" width="45" height="44" />
    </g>
    <text x="512" y="60">Upper Vecna</text>
</a>
<a href="/Pike_(Genesis)" class="svgRegion">
    <g filter="url(#blur)">
<rect x="275" y="148" width="44" height="94" />
    </g>
    <text x="512" y="60">Pike</text>
</a>
<a href="/Arkhan_(Genesis)" class="svgRegion">
    <g filter="url(#blur)">
<rect x="256" y="127" width="39" height="57" />
    </g>
    <text x="512" y="60">Arkhan</text>
</a>
<a href="/Boulder_Bridge_(Genesis)" class="svgRegion">
    <g filter="url(#blur)">
<rect x="270" y="280" width="42" height="70" />
<rect x="261" y="333" width="56" height="62" />
    </g>
    <text x="512" y="60">Boulder Bridge</text>
</a>
<a href="/Excalibur_(Genesis)" class="svgRegion">
    <g filter="url(#blur)">
<rect x="223" y="446" width="66" height="119" />
    </g>
    <text x="512" y="60">Excalibur</text>
</a>
<a href="/Family_Isles_(Genesis)" class="svgRegion">
    <g filter="url(#blur)">
<rect x="436" y="81" width="61" height="74" />
    </g>
    <text x="512" y="60">Family Isles</text>
</a>
<a href="/Titan_Tree_Undergrowth_(Genesis)" class="svgRegion">
    <g filter="url(#blur)">
<rect x="757" y="618" width="124" height="124" />
<rect x="812" y="693" width="69" height="107" />
<rect x="736" y="729" width="76" height="75" />
<rect x="762" y="688" width="50" height="41" />
    </g>
    <text x="512" y="60">Titan Tree Undergrowth</text>
</a>
<a href="/High_Point_(Genesis)" class="svgRegion">
    <g filter="url(#blur)">
<rect x="414" y="164" width="69" height="43" />
    </g>
    <text x="512" y="60">High Point</text>
</a>
<a href="/Squat_Haven_(Genesis)" class="svgRegion">
    <g filter="url(#blur)">
<rect x="446" y="235" width="44" height="30" />
    </g>
    <text x="512" y="60">Squat Haven</text>
</a>
<a href="/Did_you_cheat%3F_This_is_out_of_bounds_(Genesis)" class="svgRegion">
    <g filter="url(#blur)">
<rect x="403" y="247" width="23" height="72" />
    </g>
    <text x="512" y="60">Did you cheat? This is out of bounds</text>
</a>
<a href="/Capital_V_(Genesis)" class="svgRegion">
    <g filter="url(#blur)">
<rect x="37" y="239" width="87" height="62" />
<rect x="22" y="258" width="110" height="111" />
    </g>
    <text x="512" y="60">Capital V</text>
</a>
<a href="/Chonky_Point_(Genesis)" class="svgRegion">
    <g filter="url(#blur)">
<rect x="465" y="295" width="24" height="26" />
    </g>
    <text x="512" y="60">Chonky Point</text>
</a>
<a href="/Step_Rock_(Genesis)" class="svgRegion">
    <g filter="url(#blur)">
<rect x="424" y="340" width="46" height="28" />
    </g>
    <text x="512" y="60">Step Rock</text>
</a>
<a href="/Secluded_Atoll_(Genesis)" class="svgRegion">
    <g filter="url(#blur)">
<rect x="436" y="387" width="66" height="68" />
    </g>
    <text x="512" y="60">Secluded Atoll</text>
</a>
<a href="/The_Floating_Forest_(Genesis)" class="svgRegion">
    <g filter="url(#blur)">
<rect x="518" y="393" width="24" height="24" />
    </g>
    <text x="512" y="60">The Floating Forest</text>
</a>
<a href="/Shielded_Atoll_(Genesis)" class="svgRegion">
    <g filter="url(#blur)">
<rect x="535" y="438" width="51" height="36" />
    </g>
    <text x="512" y="60">Shielded Atoll</text>
</a>
<a href="/Tiny_Isle_(Genesis)" class="svgRegion">
    <g filter="url(#blur)">
<rect x="616" y="371" width="27" height="35" />
    </g>
    <text x="512" y="60">Tiny Isle</text>
</a>
<a href="/Southeast_Lookout_(Genesis)" class="svgRegion">
    <g filter="url(#blur)">
<rect x="585" y="379" width="24" height="27" />
    </g>
    <text x="512" y="60">Southeast Lookout</text>
</a>
<a href="/The_Ramp_(Genesis)" class="svgRegion">
    <g filter="url(#blur)">
<rect x="613" y="422" width="29" height="33" />
    </g>
    <text x="512" y="60">The Ramp</text>
</a>
<a href="/The_Babies_(Genesis)" class="svgRegion">
    <g filter="url(#blur)">
<rect x="566" y="277" width="27" height="30" />
    </g>
    <text x="512" y="60">The Babies</text>
</a>
<a href="/Hammer_(Genesis)" class="svgRegion">
    <g filter="url(#blur)">
<rect x="618" y="297" width="34" height="31" />
    </g>
    <text x="512" y="60">Hammer</text>
</a>
<a href="/Itty_Bitty_(Genesis)" class="svgRegion">
    <g filter="url(#blur)">
<rect x="45" y="562" width="34" height="46" />
    </g>
    <text x="512" y="60">Itty Bitty</text>
</a>
<a href="/Optic_Nerve_(Genesis)" class="svgRegion">
    <g filter="url(#blur)">
<rect x="78" y="165" width="29" height="28" />
<rect x="97" y="185" width="10" height="10" />
<rect x="94" y="187" width="13" height="15" />
    </g>
    <text x="512" y="60">Optic Nerve</text>
</a>
<a href="/Venca%27s_Realm_(Genesis)" class="svgRegion">
    <g filter="url(#blur)">
<rect x="212" y="193" width="2" height="5" />
<rect x="211" y="180" width="16" height="24" />
<rect x="222" y="192" width="9" height="20" />
<rect x="224" y="187" width="6" height="6" />
<rect x="226" y="181" width="4" height="7" />
<rect x="224" y="177" width="5" height="7" />
<rect x="222" y="172" width="4" height="6" />
<rect x="207" y="193" width="7" height="6" />
    </g>
    <text x="512" y="60">Venca&#x27;s Realm</text>
</a>
<a href="/Derelict_Mine_(Genesis)" class="svgRegion">
    <g filter="url(#blur)">
<rect x="346" y="265" width="18" height="40" />
<rect x="363" y="239" width="16" height="66" />
<rect x="357" y="229" width="11" height="11" />
<rect x="348" y="223" width="12" height="13" />
    </g>
    <text x="512" y="60">Derelict Mine</text>
</a>
<a href="/Fallen_Titan_(Genesis)" class="svgRegion">
    <g filter="url(#blur)">
<rect x="765" y="829" width="67" height="58" />
    </g>
    <text x="512" y="60">Fallen Titan</text>
</a>
<a href="/Wandering_Titans_(Genesis)" class="svgRegion">
    <g filter="url(#blur)">
<rect x="839" y="843" width="100" height="95" />
    </g>
    <text x="512" y="60">Wandering Titans</text>
</a>
<a href="/Treetop_Village_(Genesis)" class="svgRegion">
    <g filter="url(#blur)">
<rect x="795" y="745" width="26" height="28" />
    </g>
    <text x="512" y="60">Treetop Village</text>
</a>
<a href="/Silent_Grove_(Genesis)" class="svgRegion">
    <g filter="url(#blur)">
<rect x="620" y="768" width="62" height="116" />
    </g>
    <text x="512" y="60">Silent Grove</text>
</a>
<a href="/The_Armory_(Genesis)" class="svgRegion">
    <g filter="url(#blur)">
<rect x="218" y="372" width="11" height="20" />
<rect x="202" y="362" width="16" height="24" />
<rect x="203" y="354" width="10" height="9" />
<rect x="201" y="347" width="10" height="10" />
<rect x="197" y="338" width="9" height="12" />
    </g>
    <text x="512" y="60">The Armory</text>
</a>
<a href="/Family_Cave_(Genesis)" class="svgRegion">
    <g filter="url(#blur)">
<rect x="72" y="519" width="10" height="10" />
<rect x="72" y="527" width="4" height="9" />
<rect x="72" y="532" width="9" height="11" />
    </g>
    <text x="512" y="60">Family Cave</text>
</a>
<a href="/Stone_Scabbard_(Genesis)" class="svgRegion">
    <g filter="url(#blur)">
<rect x="238" y="500" width="23" height="30" />
<rect x="243" y="490" width="12" height="10" />
<rect x="249" y="485" width="8" height="8" />
<rect x="248" y="480" width="14" height="14" />
    </g>
    <text x="512" y="60">Stone Scabbard</text>
</a>
<a href="/Underpass_(Genesis)" class="svgRegion">
    <g filter="url(#blur)">
<rect x="533" y="225" width="95" height="80" />
    </g>
    <text x="512" y="60">Underpass</text>
</a>
<a href="/Twin_Watchers_(Genesis)" class="svgRegion">
    <g filter="url(#blur)">
<rect x="560" y="118" width="50" height="24" />
    </g>
    <text x="512" y="60">Twin Watchers</text>
</a>
<a href="/No_Exit_(Genesis)" class="svgRegion">
    <g filter="url(#blur)">
<rect x="539" y="375" width="59" height="33" />
    </g>
    <text x="512" y="60">No Exit</text>
</a>
<a href="/Lantern_Road_(Genesis)" class="svgRegion">
    <g filter="url(#blur)">
<rect x="459" y="89" width="60" height="33" />
    </g>
    <text x="512" y="60">Lantern Road</text>
</a>
<a href="/Helm%27s_Reef_(Genesis)" class="svgRegion">
    <g filter="url(#blur)">
<rect x="495" y="204" width="59" height="81" />
    </g>
    <text x="512" y="60">Helm&#x27;s Reef</text>
</a>
<a href="/Load_Bearers_(Genesis)" class="svgRegion">
    <g filter="url(#blur)">
<rect x="595" y="290" width="10" height="11" />
<rect x="597" y="282" width="50" height="31" />
    </g>
    <text x="512" y="60">Load Bearers</text>
</a>
<a href="/Hades_Reservoir_(Genesis)" class="svgRegion">
    <g filter="url(#blur)">
<rect x="709" y="104" width="94" height="74" />
<rect x="746" y="51" width="34" height="82" />
<rect x="709" y="47" width="80" height="31" />
    </g>
    <text x="512" y="60">Hades Reservoir</text>
</a>
<a href="/Flame_Lake_(Genesis)" class="svgRegion">
    <g filter="url(#blur)">
<rect x="822" y="357" width="44" height="57" />
<rect x="842" y="385" width="51" height="57" />
<rect x="864" y="391" width="42" height="51" />
    </g>
    <text x="512" y="60">Flame Lake</text>
</a>
<a href="/Lavaclaw_Flow_(Genesis)" class="svgRegion">
    <g filter="url(#blur)">
<rect x="841" y="52" width="34" height="102" />
<rect x="862" y="68" width="63" height="98" />
<rect x="901" y="142" width="68" height="28" />
    </g>
    <text x="512" y="60">Lavaclaw Flow</text>
</a>
<a href="/Scorch%27n%27Slide_(Genesis)" class="svgRegion">
    <g filter="url(#blur)">
<rect x="889" y="224" width="88" height="31" />
    </g>
    <text x="512" y="60">Scorch&#x27;n&#x27;Slide</text>
</a>
<a href="/Spillway_(Genesis)" class="svgRegion">
    <g filter="url(#blur)">
<rect x="721" y="225" width="104" height="98" />
<rect x="691" y="293" width="97" height="55" />
    </g>
    <text x="512" y="60">Spillway</text>
</a>
<a href="/Charred_Creak_(Genesis)" class="svgRegion">
    <g filter="url(#blur)">
<rect x="711" y="425" width="42" height="53" />
<rect x="731" y="393" width="42" height="49" />
<rect x="760" y="373" width="42" height="49" />
<rect x="786" y="362" width="28" height="35" />
<rect x="758" y="346" width="29" height="32" />
<rect x="723" y="390" width="18" height="21" />
    </g>
    <text x="512" y="60">Charred Creak</text>
</a>
<a href="/Southern_Ice_Canyons_(Genesis)" class="svgRegion">
    <g filter="url(#blur)">
<rect x="95" y="843" width="151" height="151" />
<rect x="50" y="912" width="107" height="58" />
<rect x="138" y="924" width="108" height="49" />
    </g>
    <text x="512" y="60">Southern Ice Canyons</text>
</a>
<a href="/Toxic_Mire_(Genesis)" class="svgRegion">
    <g filter="url(#blur)">
<rect x="775" y="892" width="93" height="83" />
    </g>
    <text x="512" y="60">Toxic Mire</text>
</a>
<a href="/Northern_Ice_Canyons_(Genesis)" class="svgRegion">
    <g filter="url(#blur)">
<rect x="29" y="702" width="220" height="210" />
<rect x="54" y="703" width="130" height="110" />
<rect x="0" y="633" width="173" height="167" />
    </g>
    <text x="512" y="60">Northern Ice Canyons</text>
</a>
<a href="/Fetid_Pools_(Genesis)" class="svgRegion">
    <g filter="url(#blur)">
<rect x="894" y="547" width="67" height="85" />
    </g>
    <text x="512" y="60">Fetid Pools</text>
</a>
<a href="/Root_Canyon_(Genesis)" class="svgRegion">
    <g filter="url(#blur)">
<rect x="912" y="685" width="43" height="49" />
    </g>
    <text x="512" y="60">Root Canyon</text>
</a>
<a href="/Exiled_Titan_(Genesis)" class="svgRegion">
    <g filter="url(#blur)">
<rect x="663" y="709" width="27" height="28" />
    </g>
    <text x="512" y="60">Exiled Titan</text>
</a>
<a href="/Nana%27s_Stump_(Genesis)" class="svgRegion">
    <g filter="url(#blur)">
<rect x="855" y="776" width="26" height="28" />
    </g>
    <text x="512" y="60">Nana&#x27;s Stump</text>
</a>
<a href="/Willow_Way_(Genesis)" class="svgRegion">
    <g filter="url(#blur)">
<rect x="711" y="544" width="202" height="56" />
    </g>
    <text x="512" y="60">Willow Way</text>
</a>
<a href="/Burning_Arteries_(Genesis)" class="svgRegion">
    <g filter="url(#blur)">
<rect x="848" y="264" width="67" height="100" />
<rect x="846" y="248" width="43" height="82" />
<rect x="887" y="305" width="42" height="58" />
<rect x="886" y="362" width="26" height="41" />
    </g>
    <text x="512" y="60">Burning Arteries</text>
</a>
<a href="/Snowy_Foothills_(Genesis)" class="svgRegion">
    <g filter="url(#blur)">
<rect x="240" y="616" width="100" height="171" />
<rect x="199" y="656" width="117" height="113" />
    </g>
    <text x="512" y="60">Snowy Foothills</text>
</a>
<a href="/Dampwood_Tunnel_(Genesis)" class="svgRegion">
    <g filter="url(#blur)">
<rect x="809" y="799" width="20" height="12" />
<rect x="813" y="811" width="10" height="9" />
    </g>
    <text x="512" y="60">Dampwood Tunnel</text>
</a>
<a href="/Darkwood_Tunnel_(Genesis)" class="svgRegion">
    <g filter="url(#blur)">
<rect x="809" y="700" width="9" height="13" />
<rect x="810" y="697" width="11" height="3" />
    </g>
    <text x="512" y="60">Darkwood Tunnel</text>
</a>
<a href="/The_Scar_(Genesis)" class="svgRegion">
    <g filter="url(#blur)">
<rect x="507" y="279" width="50" height="58" />
    </g>
    <text x="512" y="60">The Scar</text>
</a>
<a href="/Magma_Spring_(Genesis)" class="svgRegion">
    <g filter="url(#blur)">
<rect x="915" y="293" width="37" height="41" />
    </g>
    <text x="512" y="60">Magma Spring</text>
</a>
<a href="/Frozen_Crags_(Genesis)" class="svgRegion">
    <g filter="url(#blur)">
<rect x="78" y="618" width="118" height="83" />
<rect x="143" y="623" width="132" height="99" />
<rect x="122" y="622" width="105" height="86" />
    </g>
    <text x="512" y="60">Frozen Crags</text>
</a>
<a href="/Spire_Taiga_(Genesis)" class="svgRegion">
    <g filter="url(#blur)">
<rect x="175" y="764" width="161" height="159" />
<rect x="245" y="816" width="120" height="108" />
<rect x="188" y="787" width="106" height="56" />
    </g>
    <text x="512" y="60">Spire Taiga</text>
</a>
<a href="/Obscured_Forest_(Genesis)" class="svgRegion">
    <g filter="url(#blur)">
<rect x="435" y="634" width="25" height="17" />
<rect x="436" y="647" width="53" height="37" />
<rect x="465" y="675" width="29" height="40" />
    </g>
    <text x="512" y="60">Obscured Forest</text>
</a>
<a href="/Canopy_(Genesis)" class="svgRegion">
    <g filter="url(#blur)">
<rect x="583" y="520" width="395" height="458" />
    </g>
    <text x="512" y="60">Canopy</text>
</a>
<a href="/Sunken_Jungle_(Genesis)" class="svgRegion">
    <g filter="url(#blur)">
<rect x="477" y="255" width="28" height="23" />
    </g>
    <text x="512" y="60">Sunken Jungle</text>
</a>
<a href="/Thermal_Generator_(Genesis)" class="svgRegion">
    <g filter="url(#blur)">
<rect x="735" y="50" width="34" height="40" />
    </g>
    <text x="512" y="60">Thermal Generator</text>
</a>
<a href="/Oil_Well_(Genesis)" class="svgRegion">
    <g filter="url(#blur)">
<rect x="931" y="452" width="35" height="40" />
    </g>
    <text x="512" y="60">Oil Well</text>
</a>
<a href="/The_Falls_(Genesis)" class="svgRegion">
    <g filter="url(#blur)">
<rect x="837" y="381" width="31" height="39" />
    </g>
    <text x="512" y="60">The Falls</text>
</a>
<a href="/Volcanic_Cave_(Genesis)" class="svgRegion">
    <g filter="url(#blur)">
<rect x="826" y="205" width="23" height="21" />
<rect x="825" y="225" width="24" height="21" />
    </g>
    <text x="512" y="60">Volcanic Cave</text>
</a>
<a href="/Derelict_Defense_System_(Genesis)" class="svgRegion">
    <g filter="url(#blur)">
<rect x="764" y="351" width="23" height="26" />
    </g>
    <text x="512" y="60">Derelict Defense System</text>
</a>
<a href="/Glacier_Maker_(Genesis)" class="svgRegion">
    <g filter="url(#blur)">
<rect x="514" y="801" width="59" height="42" />
    </g>
    <text x="512" y="60">Glacier Maker</text>
</a>
<a href="/Glacier_Point_(Genesis)" class="svgRegion">
    <g filter="url(#blur)">
<rect x="434" y="801" width="59" height="42" />
    </g>
    <text x="512" y="60">Glacier Point</text>
</a>
<a href="/Northwest_Siphon_(Genesis)" class="svgRegion">
    <g filter="url(#blur)">
<rect x="593" y="606" width="64" height="57" />
    </g>
    <text x="512" y="60">Northwest Siphon</text>
</a>
<a href="/Southern_Windbreak_(Genesis)" class="svgRegion">
    <g filter="url(#blur)">
<rect x="224" y="880" width="46" height="39" />
    </g>
    <text x="512" y="60">Southern Windbreak</text>
</a>
<a href="/Southwest_Siphon_(Genesis)" class="svgRegion">
    <g filter="url(#blur)">
<rect x="613" y="901" width="64" height="57" />
    </g>
    <text x="512" y="60">Southwest Siphon</text>
</a>
<a href="/East_Siphon_(Genesis)" class="svgRegion">
    <g filter="url(#blur)">
<rect x="895" y="760" width="69" height="62" />
    </g>
    <text x="512" y="60">East Siphon</text>
</a>
<a href="/Frozen_Warpgate_(Genesis)" class="svgRegion">
    <g filter="url(#blur)">
<rect x="55" y="768" width="75" height="71" />
    </g>
    <text x="512" y="60">Frozen Warpgate</text>
</a>
<a href="/Northern_Windbreak_(Genesis)" class="svgRegion">
    <g filter="url(#blur)">
<rect x="196" y="689" width="45" height="55" />
    </g>
    <text x="512" y="60">Northern Windbreak</text>
</a>
<a href="/Fishing_Lake_(Genesis)" class="svgRegion">
    <g filter="url(#blur)">
<rect x="139" y="709" width="59" height="66" />
    </g>
    <text x="512" y="60">Fishing Lake</text>
</a>
<a href="/Smokestack_(Genesis)" class="svgRegion">
    <g filter="url(#blur)">
<rect x="791" y="169" width="83" height="77" />
    </g>
    <text x="512" y="60">Smokestack</text>
</a>
<a href="/Under_the_Ice_(Genesis)" class="svgRegion">
    <g filter="url(#blur)">
<rect x="158" y="723" width="24" height="28" />
    </g>
    <text x="512" y="60">Under the Ice</text>
</a>
<a href="/Collapsed_Drill_(Genesis)" class="svgRegion">
    <g filter="url(#blur)">
<rect x="299" y="623" width="53" height="55" />
    </g>
    <text x="512" y="60">Collapsed Drill</text>
</a>
<a href="/Thawed_Waterway_(Genesis)" class="svgRegion">
    <g filter="url(#blur)">
<rect x="172" y="739" width="103" height="31" />
<rect x="257" y="753" width="31" height="97" />
    </g>
    <text x="512" y="60">Thawed Waterway</text>
</a>
<a href="/The_Oasis_(Genesis)" class="svgRegion">
    <g filter="url(#blur)">
<rect x="229" y="762" width="17" height="14" />
<rect x="225" y="775" width="33" height="31" />
    </g>
    <text x="512" y="60">The Oasis</text>
</a>
</svg>