<svg xmlns="http://www.w3.org/2000/svg" width="1024" height="1024" viewBox="0 0 1024 1024" style="position: absolute; width:100%; height:100%;">
<defs>
    <filter id="blur" x="-30%" y="-30%" width="160%" height="160%">'
        <feColorMatrix type="matrix" values="1 0 0 1 0, 0 1 0 0 0, 0 0 1 0 0, 0 0 0 0.7 0"/>
        <feGaussianBlur stdDeviation="10" />
    </filter>
</defs>
<a href="/Spire_Rock_Trail_(Genesis)" class="svgRegion">
    <g filter="url(#blur)">
<rect x="266" y="795" width="24" height="31" />
<rect x="213" y="845" width="19" height="31" />
<rect x="218" y="826" width="28" height="30" />
<rect x="232" y="819" width="30" height="18" />
<rect x="254" y="803" width="15" height="29" />
<rect x="255" y="777" width="15" height="29" />
<rect x="266" y="778" width="28" height="14" />
<rect x="292" y="779" width="29" height="15" />
<rect x="312" y="783" width="30" height="29" />
<rect x="327" y="798" width="26" height="31" />
<rect x="341" y="821" width="25" height="32" />
<rect x="350" y="841" width="14" height="29" />
<rect x="342" y="866" width="21" height="31" />
<rect x="324" y="886" width="31" height="25" />
<rect x="302" y="897" width="29" height="15" />
<rect x="281" y="883" width="30" height="28" />
<rect x="272" y="864" width="24" height="31" />
<rect x="262" y="839" width="23" height="31" />
<rect x="262" y="819" width="17" height="30" />
    </g>
    <text x="512" y="60">Spire Rock Trail</text>
</a>
<a href="/System_Root_(Genesis)" class="svgRegion">
    <g filter="url(#blur)">
<rect x="387" y="486" width="188" height="131" />
    </g>
    <text x="512" y="60">System Root</text>
</a>
<a href="/High_Orbit_(Genesis)" class="svgRegion">
    <g filter="url(#blur)">
<rect x="0" y="0" width="382" height="611" />
    </g>
    <text x="512" y="60">High Orbit</text>
</a>
<a href="/Volcano_(Genesis)" class="svgRegion">
    <g filter="url(#blur)">
<rect x="705" y="0" width="319" height="506" />
    </g>
    <text x="512" y="60">Volcano</text>
</a>
<a href="/Swamp_(Genesis)" class="svgRegion">
    <g filter="url(#blur)">
<rect x="591" y="521" width="433" height="503" />
    </g>
    <text x="512" y="60">Swamp</text>
</a>
<a href="/Ocean_(Genesis)" class="svgRegion">
    <g filter="url(#blur)">
<rect x="383" y="0" width="324" height="485" />
    </g>
    <text x="512" y="60">Ocean</text>
</a>
<a href="/Arctic_(Genesis)" class="svgRegion">
    <g filter="url(#blur)">
<rect x="0" y="618" width="575" height="406" />
    </g>
    <text x="512" y="60">Arctic</text>
</a>
<a href="/West_Arctic_(Genesis)" class="svgRegion">
    <g filter="url(#blur)">
<rect x="0" y="817" width="267" height="207" />
<rect x="0" y="625" width="267" height="193" />
    </g>
    <text x="512" y="60">West Arctic</text>
</a>
<a href="/Shallows_(Genesis)" class="svgRegion">
    <g filter="url(#blur)">
<rect x="383" y="0" width="324" height="485" />
    </g>
    <text x="512" y="60">Shallows</text>
</a>
<a href="/Open_Water_(Genesis)" class="svgRegion">
    <g filter="url(#blur)">
<rect x="383" y="0" width="324" height="485" />
    </g>
    <text x="512" y="60">Open Water</text>
</a>
<a href="/The_Trench_(Genesis)" class="svgRegion">
    <g filter="url(#blur)">
<rect x="383" y="0" width="324" height="485" />
    </g>
    <text x="512" y="60">The Trench</text>
</a>
<a href="/Mid_Arctic_(Genesis)" class="svgRegion">
    <g filter="url(#blur)">
<rect x="383" y="625" width="29" height="399" />
<rect x="330" y="625" width="53" height="399" />
<rect x="267" y="625" width="63" height="399" />
    </g>
    <text x="512" y="60">Mid Arctic</text>
</a>
<a href="/East_Arctic_(Genesis)" class="svgRegion">
    <g filter="url(#blur)">
<rect x="442" y="625" width="129" height="399" />
<rect x="412" y="625" width="31" height="399" />
    </g>
    <text x="512" y="60">East Arctic</text>
</a>
<a href="/It%27s_Cold_Up_Here_(Genesis)" class="svgRegion">
    <g filter="url(#blur)">
<rect x="3" y="629" width="316" height="388" />
<rect x="3" y="629" width="316" height="388" />
<rect x="3" y="629" width="316" height="388" />
<rect x="3" y="629" width="316" height="388" />
<rect x="3" y="629" width="316" height="388" />
<rect x="3" y="629" width="316" height="388" />
<rect x="3" y="629" width="316" height="388" />
<rect x="3" y="629" width="316" height="388" />
<rect x="3" y="629" width="316" height="388" />
<rect x="3" y="629" width="316" height="388" />
<rect x="3" y="629" width="316" height="388" />
    </g>
    <text x="512" y="60">It&#x27;s Cold Up Here</text>
</a>
<a href="/Big_Brother_(Genesis)" class="svgRegion">
    <g filter="url(#blur)">
<rect x="0" y="407" width="79" height="115" />
<rect x="0" y="466" width="69" height="108" />
    </g>
    <text x="512" y="60">Big Brother</text>
</a>
<a href="/Lesser_Ophelia_(Genesis)" class="svgRegion">
    <g filter="url(#blur)">
<rect x="34" y="535" width="59" height="64" />
<rect x="31" y="561" width="62" height="58" />
    </g>
    <text x="512" y="60">Lesser Ophelia</text>
</a>
<a href="/Keyleth_(Genesis)" class="svgRegion">
    <g filter="url(#blur)">
<rect x="104" y="120" width="55" height="81" />
<rect x="110" y="94" width="33" height="79" />
    </g>
    <text x="512" y="60">Keyleth</text>
</a>
<a href="/Crater_Carrot_(Genesis)" class="svgRegion">
    <g filter="url(#blur)">
<rect x="259" y="16" width="60" height="94" />
    </g>
    <text x="512" y="60">Crater Carrot</text>
</a>
<a href="/The_Stepstones_(Genesis)" class="svgRegion">
    <g filter="url(#blur)">
<rect x="0" y="1" width="129" height="79" />
<rect x="0" y="0" width="132" height="133" />
    </g>
    <text x="512" y="60">The Stepstones</text>
</a>
<a href="/Trinket_(Genesis)" class="svgRegion">
    <g filter="url(#blur)">
<rect x="190" y="5" width="51" height="115" />
    </g>
    <text x="512" y="60">Trinket</text>
</a>
<a href="/Percy_(Genesis)" class="svgRegion">
    <g filter="url(#blur)">
<rect x="80" y="206" width="43" height="60" />
    </g>
    <text x="512" y="60">Percy</text>
</a>
<a href="/Stone_Battleship_(Genesis)" class="svgRegion">
    <g filter="url(#blur)">
<rect x="151" y="326" width="93" height="97" />
<rect x="155" y="316" width="43" height="59" />
<rect x="145" y="274" width="64" height="120" />
<rect x="187" y="307" width="30" height="50" />
    </g>
    <text x="512" y="60">Stone Battleship</text>
</a>
<a href="/Arch_Mine_(Genesis)" class="svgRegion">
    <g filter="url(#blur)">
<rect x="146" y="394" width="65" height="62" />
    </g>
    <text x="512" y="60">Arch Mine</text>
</a>
<a href="/The_Flotilla_(Genesis)" class="svgRegion">
    <g filter="url(#blur)">
<rect x="236" y="488" width="37" height="54" />
<rect x="296" y="507" width="88" height="85" />
<rect x="251" y="469" width="67" height="64" />
<rect x="237" y="547" width="40" height="57" />
<rect x="270" y="551" width="40" height="58" />
<rect x="270" y="511" width="32" height="48" />
    </g>
    <text x="512" y="60">The Flotilla</text>
</a>
<a href="/Shards_of_Element_Rock_(Genesis)" class="svgRegion">
    <g filter="url(#blur)">
<rect x="328" y="506" width="45" height="35" />
<rect x="282" y="281" width="100" height="176" />
<rect x="284" y="345" width="100" height="178" />
<rect x="269" y="398" width="26" height="82" />
    </g>
    <text x="512" y="60">Shards of Element Rock</text>
</a>
<a href="/Greater_Ophelia_(Genesis)" class="svgRegion">
    <g filter="url(#blur)">
<rect x="56" y="462" width="101" height="93" />
<rect x="57" y="529" width="100" height="83" />
    </g>
    <text x="512" y="60">Greater Ophelia</text>
</a>
<a href="/Flotsam_(Genesis)" class="svgRegion">
    <g filter="url(#blur)">
<rect x="99" y="428" width="43" height="58" />
<rect x="94" y="395" width="32" height="43" />
    </g>
    <text x="512" y="60">Flotsam</text>
</a>
<a href="/Eye_of_Horus_(Genesis)" class="svgRegion">
    <g filter="url(#blur)">
<rect x="0" y="181" width="85" height="55" />
<rect x="0" y="80" width="73" height="80" />
<rect x="0" y="129" width="84" height="79" />
    </g>
    <text x="512" y="60">Eye of Horus</text>
</a>
<a href="/Jetsam_(Genesis)" class="svgRegion">
    <g filter="url(#blur)">
<rect x="117" y="437" width="41" height="60" />
<rect x="103" y="383" width="45" height="62" />
    </g>
    <text x="512" y="60">Jetsam</text>
</a>
<a href="/The_Long_Haul_(Genesis)" class="svgRegion">
    <g filter="url(#blur)">
<rect x="166" y="439" width="38" height="77" />
<rect x="167" y="379" width="32" height="68" />
    </g>
    <text x="512" y="60">The Long Haul</text>
</a>
<a href="/Reconciliation_(Genesis)" class="svgRegion">
    <g filter="url(#blur)">
<rect x="185" y="252" width="47" height="41" />
<rect x="185" y="291" width="47" height="82" />
    </g>
    <text x="512" y="60">Reconciliation</text>
</a>
<a href="/Grog_(Genesis)" class="svgRegion">
    <g filter="url(#blur)">
<rect x="174" y="145" width="71" height="90" />
    </g>
    <text x="512" y="60">Grog</text>
</a>
<a href="/Scanlan_(Genesis)" class="svgRegion">
    <g filter="url(#blur)">
<rect x="206" y="160" width="43" height="56" />
    </g>
    <text x="512" y="60">Scanlan</text>
</a>
<a href="/The_Castoffs_(Genesis)" class="svgRegion">
    <g filter="url(#blur)">
<rect x="307" y="13" width="73" height="190" />
<rect x="325" y="0" width="63" height="61" />
    </g>
    <text x="512" y="60">The Castoffs</text>
</a>
<a href="/Base_of_the_Ancients_(Genesis)" class="svgRegion">
    <g filter="url(#blur)">
<rect x="274" y="271" width="24" height="25" />
<rect x="282" y="211" width="63" height="70" />
<rect x="320" y="204" width="63" height="90" />
<rect x="296" y="144" width="82" height="86" />
<rect x="294" y="170" width="40" height="79" />
    </g>
    <text x="512" y="60">Base of the Ancients</text>
</a>
<a href="/Little_Sister_(Genesis)" class="svgRegion">
    <g filter="url(#blur)">
<rect x="0" y="289" width="89" height="144" />
    </g>
    <text x="512" y="60">Little Sister</text>
</a>
<a href="/Island_Skerry_(Genesis)" class="svgRegion">
    <g filter="url(#blur)">
<rect x="423" y="283" width="26" height="28" />
    </g>
    <text x="512" y="60">Island Skerry</text>
</a>
<a href="/Anvil_(Genesis)" class="svgRegion">
    <g filter="url(#blur)">
<rect x="618" y="206" width="62" height="56" />
    </g>
    <text x="512" y="60">Anvil</text>
</a>
<a href="/Terrarium_(Genesis)" class="svgRegion">
    <g filter="url(#blur)">
<rect x="551" y="306" width="31" height="25" />
    </g>
    <text x="512" y="60">Terrarium</text>
</a>
<a href="/Respite_(Genesis)" class="svgRegion">
    <g filter="url(#blur)">
<rect x="451" y="341" width="34" height="33" />
    </g>
    <text x="512" y="60">Respite</text>
</a>
<a href="/Shortcut_(Genesis)" class="svgRegion">
    <g filter="url(#blur)">
<rect x="527" y="178" width="13" height="12" />
<rect x="517" y="177" width="16" height="10" />
    </g>
    <text x="512" y="60">Shortcut</text>
</a>
<a href="/Paradise_Lost_(Genesis)" class="svgRegion">
    <g filter="url(#blur)">
<rect x="488" y="151" width="53" height="14" />
<rect x="494" y="112" width="47" height="42" />
<rect x="488" y="126" width="53" height="28" />
<rect x="493" y="116" width="27" height="16" />
<rect x="519" y="113" width="5" height="3" />
<rect x="517" y="114" width="12" height="11" />
<rect x="506" y="164" width="8" height="10" />
    </g>
    <text x="512" y="60">Paradise Lost</text>
</a>
<a href="/Leaky_Cauldron_(Genesis)" class="svgRegion">
    <g filter="url(#blur)">
<rect x="625" y="109" width="4" height="7" />
<rect x="610" y="104" width="17" height="27" />
<rect x="610" y="112" width="3" height="7" />
    </g>
    <text x="512" y="60">Leaky Cauldron</text>
</a>
<a href="/Sauna_(Genesis)" class="svgRegion">
    <g filter="url(#blur)">
<rect x="641" y="79" width="3" height="4" />
<rect x="638" y="61" width="18" height="17" />
<rect x="639" y="63" width="16" height="19" />
<rect x="639" y="68" width="15" height="10" />
<rect x="653" y="64" width="2" height="14" />
<rect x="639" y="63" width="3" height="6" />
<rect x="640" y="64" width="22" height="27" />
<rect x="660" y="74" width="1" height="17" />
    </g>
    <text x="512" y="60">Sauna</text>
</a>
<a href="/Long_Island_(Genesis)" class="svgRegion">
    <g filter="url(#blur)">
<rect x="512" y="114" width="85" height="36" />
<rect x="542" y="30" width="56" height="88" />
    </g>
    <text x="512" y="60">Long Island</text>
</a>
<a href="/Playground_(Genesis)" class="svgRegion">
    <g filter="url(#blur)">
<rect x="643" y="140" width="8" height="10" />
    </g>
    <text x="512" y="60">Playground</text>
</a>
<a href="/Sailor%27s_Rest_(Genesis)" class="svgRegion">
    <g filter="url(#blur)">
<rect x="428" y="182" width="24" height="19" />
    </g>
    <text x="512" y="60">Sailor&#x27;s Rest</text>
</a>
<a href="/Zen_Garden_(Genesis)" class="svgRegion">
    <g filter="url(#blur)">
<rect x="628" y="177" width="51" height="39" />
<rect x="624" y="185" width="8" height="16" />
<rect x="623" y="199" width="13" height="17" />
<rect x="626" y="167" width="64" height="59" />
<rect x="634" y="174" width="58" height="62" />
<rect x="638" y="222" width="19" height="13" />
<rect x="638" y="222" width="17" height="12" />
    </g>
    <text x="512" y="60">Zen Garden</text>
</a>
<a href="/Candle_Point_(Genesis)" class="svgRegion">
    <g filter="url(#blur)">
<rect x="605" y="34" width="22" height="25" />
    </g>
    <text x="512" y="60">Candle Point</text>
</a>
<a href="/Tyrannosaurs_Rocks_(Genesis)" class="svgRegion">
    <g filter="url(#blur)">
<rect x="605" y="142" width="55" height="47" />
    </g>
    <text x="512" y="60">Tyrannosaurs Rocks</text>
</a>
<a href="/Volatile_Oil_Field_(Genesis)" class="svgRegion">
    <g filter="url(#blur)">
<rect x="924" y="380" width="100" height="123" />
<rect x="892" y="450" width="62" height="53" />
    </g>
    <text x="512" y="60">Volatile Oil Field</text>
</a>
<a href="/Sluceway_(Genesis)" class="svgRegion">
    <g filter="url(#blur)">
<rect x="721" y="469" width="62" height="32" />
    </g>
    <text x="512" y="60">Sluceway</text>
</a>
<a href="/Oil_Bog_(Genesis)" class="svgRegion">
    <g filter="url(#blur)">
<rect x="710" y="27" width="62" height="31" />
    </g>
    <text x="512" y="60">Oil Bog</text>
</a>
<a href="/Sable_Pools_(Genesis)" class="svgRegion">
    <g filter="url(#blur)">
<rect x="985" y="0" width="39" height="87" />
    </g>
    <text x="512" y="60">Sable Pools</text>
</a>
<a href="/Spire_Rock_(Genesis)" class="svgRegion">
    <g filter="url(#blur)">
<rect x="301" y="851" width="39" height="68" />
<rect x="301" y="691" width="39" height="160" />
<rect x="301" y="851" width="39" height="68" />
<rect x="301" y="691" width="39" height="160" />
<rect x="301" y="851" width="39" height="68" />
<rect x="301" y="691" width="39" height="160" />
<rect x="301" y="851" width="39" height="68" />
<rect x="301" y="691" width="39" height="160" />
<rect x="261" y="691" width="39" height="160" />
<rect x="261" y="851" width="39" height="68" />
<rect x="301" y="851" width="39" height="68" />
<rect x="261" y="691" width="39" height="160" />
<rect x="261" y="851" width="39" height="68" />
<rect x="301" y="691" width="39" height="160" />
<rect x="235" y="783" width="26" height="116" />
<rect x="235" y="783" width="26" height="116" />
<rect x="235" y="783" width="26" height="116" />
<rect x="301" y="851" width="39" height="68" />
<rect x="301" y="691" width="39" height="160" />
<rect x="301" y="851" width="39" height="68" />
<rect x="301" y="691" width="39" height="160" />
<rect x="301" y="851" width="39" height="68" />
<rect x="261" y="691" width="39" height="160" />
<rect x="261" y="851" width="39" height="68" />
<rect x="261" y="691" width="39" height="160" />
<rect x="261" y="851" width="39" height="68" />
<rect x="261" y="691" width="39" height="160" />
<rect x="261" y="851" width="39" height="68" />
<rect x="261" y="691" width="39" height="160" />
<rect x="261" y="851" width="39" height="68" />
<rect x="261" y="691" width="39" height="160" />
<rect x="261" y="851" width="39" height="68" />
<rect x="261" y="691" width="39" height="160" />
<rect x="261" y="851" width="39" height="68" />
<rect x="261" y="691" width="39" height="160" />
<rect x="261" y="851" width="39" height="68" />
<rect x="261" y="691" width="39" height="160" />
<rect x="261" y="851" width="39" height="68" />
<rect x="261" y="691" width="39" height="160" />
<rect x="261" y="851" width="39" height="68" />
<rect x="339" y="799" width="25" height="117" />
<rect x="339" y="799" width="25" height="117" />
<rect x="339" y="799" width="25" height="117" />
<rect x="339" y="799" width="25" height="117" />
<rect x="339" y="799" width="25" height="117" />
<rect x="339" y="799" width="25" height="117" />
<rect x="339" y="799" width="25" height="117" />
<rect x="339" y="799" width="25" height="117" />
<rect x="339" y="799" width="25" height="117" />
<rect x="339" y="799" width="25" height="117" />
<rect x="339" y="799" width="25" height="117" />
<rect x="235" y="783" width="26" height="116" />
<rect x="235" y="783" width="26" height="116" />
<rect x="235" y="783" width="26" height="116" />
<rect x="235" y="783" width="26" height="116" />
<rect x="235" y="783" width="26" height="116" />
<rect x="235" y="783" width="26" height="116" />
<rect x="235" y="783" width="26" height="116" />
<rect x="235" y="783" width="26" height="116" />
<rect x="301" y="691" width="39" height="160" />
<rect x="301" y="691" width="39" height="160" />
<rect x="301" y="851" width="39" height="68" />
<rect x="301" y="691" width="39" height="160" />
<rect x="301" y="851" width="39" height="68" />
<rect x="301" y="691" width="39" height="160" />
<rect x="301" y="851" width="39" height="68" />
    </g>
    <text x="512" y="60">Spire Rock</text>
</a>
<a href="/Vex%27ahlia_(Genesis)" class="svgRegion">
    <g filter="url(#blur)">
<rect x="219" y="0" width="51" height="59" />
    </g>
    <text x="512" y="60">Vex&#x27;ahlia</text>
</a>
<a href="/Lower_Vecna_(Genesis)" class="svgRegion">
    <g filter="url(#blur)">
<rect x="134" y="4" width="51" height="78" />
    </g>
    <text x="512" y="60">Lower Vecna</text>
</a>
<a href="/Middle_Vecna_(Genesis)" class="svgRegion">
    <g filter="url(#blur)">
<rect x="145" y="79" width="51" height="79" />
    </g>
    <text x="512" y="60">Middle Vecna</text>
</a>
<a href="/Devo%27ssa_(Genesis)" class="svgRegion">
    <g filter="url(#blur)">
<rect x="87" y="182" width="38" height="28" />
    </g>
    <text x="512" y="60">Devo&#x27;ssa</text>
</a>
<a href="/Vax%27ildan_(Genesis)" class="svgRegion">
    <g filter="url(#blur)">
<rect x="136" y="199" width="26" height="70" />
    </g>
    <text x="512" y="60">Vax&#x27;ildan</text>
</a>
<a href="/Zahra_(Genesis)" class="svgRegion">
    <g filter="url(#blur)">
<rect x="123" y="204" width="33" height="47" />
    </g>
    <text x="512" y="60">Zahra</text>
</a>
<a href="/Kashaw_(Genesis)" class="svgRegion">
    <g filter="url(#blur)">
<rect x="159" y="175" width="33" height="55" />
    </g>
    <text x="512" y="60">Kashaw</text>
</a>
<a href="/Goalposts_(Genesis)" class="svgRegion">
    <g filter="url(#blur)">
<rect x="156" y="233" width="40" height="42" />
    </g>
    <text x="512" y="60">Goalposts</text>
</a>
<a href="/Rocky_Rock_(Genesis)" class="svgRegion">
    <g filter="url(#blur)">
<rect x="129" y="453" width="63" height="45" />
    </g>
    <text x="512" y="60">Rocky Rock</text>
</a>
<a href="/Dead_Scar_(Genesis)" class="svgRegion">
    <g filter="url(#blur)">
<rect x="210" y="447" width="31" height="45" />
    </g>
    <text x="512" y="60">Dead Scar</text>
</a>
<a href="/The_Loner_(Genesis)" class="svgRegion">
    <g filter="url(#blur)">
<rect x="226" y="384" width="32" height="53" />
    </g>
    <text x="512" y="60">The Loner</text>
</a>
<a href="/Levi%27s_Chair_(Genesis)" class="svgRegion">
    <g filter="url(#blur)">
<rect x="637" y="8" width="56" height="88" />
    </g>
    <text x="512" y="60">Levi&#x27;s Chair</text>
</a>
<a href="/Leap_of_Faith_(Genesis)" class="svgRegion">
    <g filter="url(#blur)">
<rect x="135" y="501" width="46" height="52" />
<rect x="162" y="531" width="40" height="87" />
    </g>
    <text x="512" y="60">Leap of Faith</text>
</a>
<a href="/Truth_(Genesis)" class="svgRegion">
    <g filter="url(#blur)">
<rect x="133" y="294" width="44" height="84" />
    </g>
    <text x="512" y="60">Truth</text>
</a>
<a href="/Serpent_Scales_(Genesis)" class="svgRegion">
    <g filter="url(#blur)">
<rect x="54" y="267" width="75" height="151" />
<rect x="55" y="412" width="32" height="42" />
<rect x="120" y="267" width="23" height="30" />
    </g>
    <text x="512" y="60">Serpent Scales</text>
</a>
<a href="/Upper_Vecna_(Genesis)" class="svgRegion">
    <g filter="url(#blur)">
<rect x="170" y="175" width="43" height="40" />
<rect x="170" y="126" width="49" height="49" />
    </g>
    <text x="512" y="60">Upper Vecna</text>
</a>
<a href="/Pike_(Genesis)" class="svgRegion">
    <g filter="url(#blur)">
<rect x="249" y="107" width="49" height="104" />
    </g>
    <text x="512" y="60">Pike</text>
</a>
<a href="/Arkhan_(Genesis)" class="svgRegion">
    <g filter="url(#blur)">
<rect x="227" y="84" width="44" height="63" />
    </g>
    <text x="512" y="60">Arkhan</text>
</a>
<a href="/Boulder_Bridge_(Genesis)" class="svgRegion">
    <g filter="url(#blur)">
<rect x="243" y="254" width="46" height="78" />
<rect x="233" y="313" width="62" height="69" />
    </g>
    <text x="512" y="60">Boulder Bridge</text>
</a>
<a href="/Excalibur_(Genesis)" class="svgRegion">
    <g filter="url(#blur)">
<rect x="190" y="439" width="74" height="132" />
    </g>
    <text x="512" y="60">Excalibur</text>
</a>
<a href="/Family_Isles_(Genesis)" class="svgRegion">
    <g filter="url(#blur)">
<rect x="427" y="33" width="69" height="83" />
    </g>
    <text x="512" y="60">Family Isles</text>
</a>
<a href="/Titan_Tree_Undergrowth_(Genesis)" class="svgRegion">
    <g filter="url(#blur)">
<rect x="784" y="630" width="138" height="138" />
<rect x="846" y="713" width="77" height="119" />
<rect x="761" y="753" width="85" height="84" />
<rect x="790" y="707" width="56" height="46" />
    </g>
    <text x="512" y="60">Titan Tree Undergrowth</text>
</a>
<a href="/High_Point_(Genesis)" class="svgRegion">
    <g filter="url(#blur)">
<rect x="403" y="126" width="77" height="47" />
    </g>
    <text x="512" y="60">High Point</text>
</a>
<a href="/Squat_Haven_(Genesis)" class="svgRegion">
    <g filter="url(#blur)">
<rect x="438" y="204" width="50" height="33" />
    </g>
    <text x="512" y="60">Squat Haven</text>
</a>
<a href="/Did_you_cheat%3F_This_is_out_of_bounds_(Genesis)" class="svgRegion">
    <g filter="url(#blur)">
<rect x="391" y="218" width="26" height="79" />
    </g>
    <text x="512" y="60">Did you cheat? This is out of bounds</text>
</a>
<a href="/Capital_V_(Genesis)" class="svgRegion">
    <g filter="url(#blur)">
<rect x="0" y="209" width="80" height="69" />
<rect x="0" y="230" width="90" height="123" />
    </g>
    <text x="512" y="60">Capital V</text>
</a>
<a href="/Chonky_Point_(Genesis)" class="svgRegion">
    <g filter="url(#blur)">
<rect x="460" y="271" width="26" height="28" />
    </g>
    <text x="512" y="60">Chonky Point</text>
</a>
<a href="/Step_Rock_(Genesis)" class="svgRegion">
    <g filter="url(#blur)">
<rect x="414" y="320" width="52" height="32" />
    </g>
    <text x="512" y="60">Step Rock</text>
</a>
<a href="/Secluded_Atoll_(Genesis)" class="svgRegion">
    <g filter="url(#blur)">
<rect x="427" y="373" width="74" height="75" />
    </g>
    <text x="512" y="60">Secluded Atoll</text>
</a>
<a href="/The_Floating_Forest_(Genesis)" class="svgRegion">
    <g filter="url(#blur)">
<rect x="518" y="379" width="27" height="27" />
    </g>
    <text x="512" y="60">The Floating Forest</text>
</a>
<a href="/Shielded_Atoll_(Genesis)" class="svgRegion">
    <g filter="url(#blur)">
<rect x="538" y="430" width="56" height="40" />
    </g>
    <text x="512" y="60">Shielded Atoll</text>
</a>
<a href="/Tiny_Isle_(Genesis)" class="svgRegion">
    <g filter="url(#blur)">
<rect x="628" y="355" width="29" height="40" />
    </g>
    <text x="512" y="60">Tiny Isle</text>
</a>
<a href="/Southeast_Lookout_(Genesis)" class="svgRegion">
    <g filter="url(#blur)">
<rect x="594" y="364" width="26" height="30" />
    </g>
    <text x="512" y="60">Southeast Lookout</text>
</a>
<a href="/The_Ramp_(Genesis)" class="svgRegion">
    <g filter="url(#blur)">
<rect x="624" y="412" width="33" height="37" />
    </g>
    <text x="512" y="60">The Ramp</text>
</a>
<a href="/The_Babies_(Genesis)" class="svgRegion">
    <g filter="url(#blur)">
<rect x="572" y="251" width="30" height="33" />
    </g>
    <text x="512" y="60">The Babies</text>
</a>
<a href="/Hammer_(Genesis)" class="svgRegion">
    <g filter="url(#blur)">
<rect x="630" y="273" width="37" height="34" />
    </g>
    <text x="512" y="60">Hammer</text>
</a>
<a href="/Itty_Bitty_(Genesis)" class="svgRegion">
    <g filter="url(#blur)">
<rect x="0" y="568" width="30" height="51" />
    </g>
    <text x="512" y="60">Itty Bitty</text>
</a>
<a href="/Optic_Nerve_(Genesis)" class="svgRegion">
    <g filter="url(#blur)">
<rect x="29" y="126" width="33" height="31" />
<rect x="51" y="148" width="10" height="12" />
<rect x="47" y="151" width="15" height="17" />
    </g>
    <text x="512" y="60">Optic Nerve</text>
</a>
<a href="/Venca%27s_Realm_(Genesis)" class="svgRegion">
    <g filter="url(#blur)">
<rect x="178" y="157" width="3" height="5" />
<rect x="178" y="142" width="17" height="28" />
<rect x="190" y="157" width="10" height="22" />
<rect x="192" y="151" width="7" height="6" />
<rect x="194" y="145" width="5" height="7" />
<rect x="191" y="139" width="6" height="8" />
<rect x="189" y="134" width="5" height="7" />
<rect x="173" y="158" width="8" height="6" />
    </g>
    <text x="512" y="60">Venca&#x27;s Realm</text>
</a>
<a href="/Derelict_Mine_(Genesis)" class="svgRegion">
    <g filter="url(#blur)">
<rect x="328" y="237" width="19" height="45" />
<rect x="347" y="209" width="17" height="73" />
<rect x="339" y="198" width="13" height="11" />
<rect x="329" y="191" width="14" height="14" />
    </g>
    <text x="512" y="60">Derelict Mine</text>
</a>
<a href="/Fallen_Titan_(Genesis)" class="svgRegion">
    <g filter="url(#blur)">
<rect x="793" y="864" width="75" height="65" />
    </g>
    <text x="512" y="60">Fallen Titan</text>
</a>
<a href="/Wandering_Titans_(Genesis)" class="svgRegion">
    <g filter="url(#blur)">
<rect x="876" y="881" width="111" height="105" />
    </g>
    <text x="512" y="60">Wandering Titans</text>
</a>
<a href="/Treetop_Village_(Genesis)" class="svgRegion">
    <g filter="url(#blur)">
<rect x="826" y="771" width="30" height="31" />
    </g>
    <text x="512" y="60">Treetop Village</text>
</a>
<a href="/Silent_Grove_(Genesis)" class="svgRegion">
    <g filter="url(#blur)">
<rect x="632" y="797" width="69" height="129" />
    </g>
    <text x="512" y="60">Silent Grove</text>
</a>
<a href="/The_Armory_(Genesis)" class="svgRegion">
    <g filter="url(#blur)">
<rect x="185" y="357" width="12" height="22" />
<rect x="167" y="346" width="18" height="26" />
<rect x="169" y="337" width="10" height="9" />
<rect x="167" y="328" width="10" height="12" />
<rect x="162" y="319" width="10" height="13" />
    </g>
    <text x="512" y="60">The Armory</text>
</a>
<a href="/Family_Cave_(Genesis)" class="svgRegion">
    <g filter="url(#blur)">
<rect x="23" y="520" width="11" height="11" />
<rect x="22" y="529" width="6" height="10" />
<rect x="22" y="534" width="11" height="13" />
    </g>
    <text x="512" y="60">Family Cave</text>
</a>
<a href="/Stone_Scabbard_(Genesis)" class="svgRegion">
    <g filter="url(#blur)">
<rect x="208" y="499" width="25" height="33" />
<rect x="212" y="488" width="14" height="11" />
<rect x="219" y="482" width="10" height="9" />
<rect x="218" y="476" width="16" height="15" />
    </g>
    <text x="512" y="60">Stone Scabbard</text>
</a>
<a href="/Underpass_(Genesis)" class="svgRegion">
    <g filter="url(#blur)">
<rect x="535" y="193" width="106" height="89" />
    </g>
    <text x="512" y="60">Underpass</text>
</a>
<a href="/Twin_Watchers_(Genesis)" class="svgRegion">
    <g filter="url(#blur)">
<rect x="566" y="74" width="55" height="26" />
    </g>
    <text x="512" y="60">Twin Watchers</text>
</a>
<a href="/No_Exit_(Genesis)" class="svgRegion">
    <g filter="url(#blur)">
<rect x="542" y="360" width="66" height="36" />
    </g>
    <text x="512" y="60">No Exit</text>
</a>
<a href="/Lantern_Road_(Genesis)" class="svgRegion">
    <g filter="url(#blur)">
<rect x="453" y="42" width="67" height="36" />
    </g>
    <text x="512" y="60">Lantern Road</text>
</a>
<a href="/Helm%27s_Reef_(Genesis)" class="svgRegion">
    <g filter="url(#blur)">
<rect x="493" y="170" width="66" height="89" />
    </g>
    <text x="512" y="60">Helm&#x27;s Reef</text>
</a>
<a href="/Load_Bearers_(Genesis)" class="svgRegion">
    <g filter="url(#blur)">
<rect x="604" y="265" width="12" height="12" />
<rect x="607" y="256" width="55" height="35" />
    </g>
    <text x="512" y="60">Load Bearers</text>
</a>
<a href="/Hades_Reservoir_(Genesis)" class="svgRegion">
    <g filter="url(#blur)">
<rect x="731" y="58" width="104" height="83" />
<rect x="772" y="0" width="38" height="91" />
<rect x="731" y="0" width="89" height="30" />
    </g>
    <text x="512" y="60">Hades Reservoir</text>
</a>
<a href="/Flame_Lake_(Genesis)" class="svgRegion">
    <g filter="url(#blur)">
<rect x="856" y="339" width="50" height="65" />
<rect x="879" y="371" width="56" height="63" />
<rect x="904" y="377" width="46" height="58" />
    </g>
    <text x="512" y="60">Flame Lake</text>
</a>
<a href="/Lavaclaw_Flow_(Genesis)" class="svgRegion">
    <g filter="url(#blur)">
<rect x="877" y="0" width="38" height="114" />
<rect x="901" y="18" width="71" height="109" />
<rect x="945" y="101" width="75" height="31" />
    </g>
    <text x="512" y="60">Lavaclaw Flow</text>
</a>
<a href="/Scorch%27n%27Slide_(Genesis)" class="svgRegion">
    <g filter="url(#blur)">
<rect x="931" y="192" width="93" height="34" />
    </g>
    <text x="512" y="60">Scorch&#x27;n&#x27;Slide</text>
</a>
<a href="/Spillway_(Genesis)" class="svgRegion">
    <g filter="url(#blur)">
<rect x="745" y="193" width="115" height="109" />
<rect x="711" y="268" width="108" height="62" />
    </g>
    <text x="512" y="60">Spillway</text>
</a>
<a href="/Charred_Creak_(Genesis)" class="svgRegion">
    <g filter="url(#blur)">
<rect x="733" y="415" width="47" height="59" />
<rect x="756" y="380" width="47" height="54" />
<rect x="788" y="358" width="47" height="54" />
<rect x="816" y="345" width="32" height="40" />
<rect x="786" y="327" width="31" height="36" />
<rect x="746" y="376" width="21" height="24" />
    </g>
    <text x="512" y="60">Charred Creak</text>
</a>
<a href="/Southern_Ice_Canyons_(Genesis)" class="svgRegion">
    <g filter="url(#blur)">
<rect x="49" y="880" width="167" height="144" />
<rect x="0" y="956" width="117" height="65" />
<rect x="96" y="970" width="120" height="54" />
    </g>
    <text x="512" y="60">Southern Ice Canyons</text>
</a>
<a href="/Toxic_Mire_(Genesis)" class="svgRegion">
    <g filter="url(#blur)">
<rect x="804" y="934" width="104" height="90" />
    </g>
    <text x="512" y="60">Toxic Mire</text>
</a>
<a href="/Northern_Ice_Canyons_(Genesis)" class="svgRegion">
    <g filter="url(#blur)">
<rect x="0" y="724" width="219" height="233" />
<rect x="3" y="724" width="144" height="123" />
<rect x="0" y="646" width="136" height="186" />
    </g>
    <text x="512" y="60">Northern Ice Canyons</text>
</a>
<a href="/Fetid_Pools_(Genesis)" class="svgRegion">
    <g filter="url(#blur)">
<rect x="937" y="551" width="74" height="95" />
    </g>
    <text x="512" y="60">Fetid Pools</text>
</a>
<a href="/Root_Canyon_(Genesis)" class="svgRegion">
    <g filter="url(#blur)">
<rect x="957" y="704" width="47" height="54" />
    </g>
    <text x="512" y="60">Root Canyon</text>
</a>
<a href="/Exiled_Titan_(Genesis)" class="svgRegion">
    <g filter="url(#blur)">
<rect x="680" y="731" width="30" height="32" />
    </g>
    <text x="512" y="60">Exiled Titan</text>
</a>
<a href="/Nana%27s_Stump_(Genesis)" class="svgRegion">
    <g filter="url(#blur)">
<rect x="893" y="805" width="29" height="32" />
    </g>
    <text x="512" y="60">Nana&#x27;s Stump</text>
</a>
<a href="/Willow_Way_(Genesis)" class="svgRegion">
    <g filter="url(#blur)">
<rect x="733" y="548" width="225" height="62" />
    </g>
    <text x="512" y="60">Willow Way</text>
</a>
<a href="/Burning_Arteries_(Genesis)" class="svgRegion">
    <g filter="url(#blur)">
<rect x="886" y="237" width="75" height="110" />
<rect x="884" y="218" width="48" height="92" />
<rect x="928" y="282" width="47" height="65" />
<rect x="928" y="345" width="29" height="46" />
    </g>
    <text x="512" y="60">Burning Arteries</text>
</a>
<a href="/Snowy_Foothills_(Genesis)" class="svgRegion">
    <g filter="url(#blur)">
<rect x="209" y="627" width="112" height="191" />
<rect x="164" y="672" width="130" height="126" />
    </g>
    <text x="512" y="60">Snowy Foothills</text>
</a>
<a href="/Dampwood_Tunnel_(Genesis)" class="svgRegion">
    <g filter="url(#blur)">
<rect x="843" y="831" width="22" height="14" />
<rect x="846" y="844" width="12" height="10" />
    </g>
    <text x="512" y="60">Dampwood Tunnel</text>
</a>
<a href="/Darkwood_Tunnel_(Genesis)" class="svgRegion">
    <g filter="url(#blur)">
<rect x="843" y="721" width="9" height="14" />
<rect x="844" y="717" width="12" height="4" />
    </g>
    <text x="512" y="60">Darkwood Tunnel</text>
</a>
<a href="/The_Scar_(Genesis)" class="svgRegion">
    <g filter="url(#blur)">
<rect x="507" y="253" width="55" height="65" />
    </g>
    <text x="512" y="60">The Scar</text>
</a>
<a href="/Magma_Spring_(Genesis)" class="svgRegion">
    <g filter="url(#blur)">
<rect x="960" y="269" width="42" height="46" />
    </g>
    <text x="512" y="60">Magma Spring</text>
</a>
<a href="/Frozen_Crags_(Genesis)" class="svgRegion">
    <g filter="url(#blur)">
<rect x="29" y="630" width="132" height="92" />
<rect x="102" y="635" width="146" height="110" />
<rect x="78" y="634" width="117" height="96" />
    </g>
    <text x="512" y="60">Frozen Crags</text>
</a>
<a href="/Spire_Taiga_(Genesis)" class="svgRegion">
    <g filter="url(#blur)">
<rect x="138" y="792" width="178" height="177" />
<rect x="216" y="850" width="132" height="120" />
<rect x="152" y="818" width="118" height="62" />
    </g>
    <text x="512" y="60">Spire Taiga</text>
</a>
<a href="/Obscured_Forest_(Genesis)" class="svgRegion">
    <g filter="url(#blur)">
<rect x="427" y="648" width="27" height="18" />
<rect x="428" y="662" width="59" height="41" />
<rect x="460" y="693" width="32" height="45" />
    </g>
    <text x="512" y="60">Obscured Forest</text>
</a>
<a href="/Canopy_(Genesis)" class="svgRegion">
    <g filter="url(#blur)">
<rect x="591" y="521" width="433" height="503" />
    </g>
    <text x="512" y="60">Canopy</text>
</a>
<a href="/Sunken_Jungle_(Genesis)" class="svgRegion">
    <g filter="url(#blur)">
<rect x="473" y="226" width="31" height="26" />
    </g>
    <text x="512" y="60">Sunken Jungle</text>
</a>
<a href="/Thermal_Generator_(Genesis)" class="svgRegion">
    <g filter="url(#blur)">
<rect x="760" y="0" width="38" height="43" />
    </g>
    <text x="512" y="60">Thermal Generator</text>
</a>
<a href="/Oil_Well_(Genesis)" class="svgRegion">
    <g filter="url(#blur)">
<rect x="978" y="445" width="39" height="45" />
    </g>
    <text x="512" y="60">Oil Well</text>
</a>
<a href="/The_Falls_(Genesis)" class="svgRegion">
    <g filter="url(#blur)">
<rect x="873" y="367" width="35" height="43" />
    </g>
    <text x="512" y="60">The Falls</text>
</a>
<a href="/Volcanic_Cave_(Genesis)" class="svgRegion">
    <g filter="url(#blur)">
<rect x="861" y="171" width="26" height="24" />
<rect x="860" y="193" width="26" height="24" />
    </g>
    <text x="512" y="60">Volcanic Cave</text>
</a>
<a href="/Derelict_Defense_System_(Genesis)" class="svgRegion">
    <g filter="url(#blur)">
<rect x="792" y="333" width="25" height="29" />
    </g>
    <text x="512" y="60">Derelict Defense System</text>
</a>
<a href="/Glacier_Maker_(Genesis)" class="svgRegion">
    <g filter="url(#blur)">
<rect x="514" y="834" width="65" height="46" />
    </g>
    <text x="512" y="60">Glacier Maker</text>
</a>
<a href="/Glacier_Point_(Genesis)" class="svgRegion">
    <g filter="url(#blur)">
<rect x="426" y="834" width="65" height="46" />
    </g>
    <text x="512" y="60">Glacier Point</text>
</a>
<a href="/Northwest_Siphon_(Genesis)" class="svgRegion">
    <g filter="url(#blur)">
<rect x="602" y="616" width="71" height="64" />
    </g>
    <text x="512" y="60">Northwest Siphon</text>
</a>
<a href="/Southern_Windbreak_(Genesis)" class="svgRegion">
    <g filter="url(#blur)">
<rect x="191" y="921" width="52" height="43" />
    </g>
    <text x="512" y="60">Southern Windbreak</text>
</a>
<a href="/Southwest_Siphon_(Genesis)" class="svgRegion">
    <g filter="url(#blur)">
<rect x="624" y="944" width="71" height="63" />
    </g>
    <text x="512" y="60">Southwest Siphon</text>
</a>
<a href="/East_Siphon_(Genesis)" class="svgRegion">
    <g filter="url(#blur)">
<rect x="937" y="788" width="77" height="68" />
    </g>
    <text x="512" y="60">East Siphon</text>
</a>
<a href="/Frozen_Warpgate_(Genesis)" class="svgRegion">
    <g filter="url(#blur)">
<rect x="4" y="796" width="83" height="79" />
    </g>
    <text x="512" y="60">Frozen Warpgate</text>
</a>
<a href="/Northern_Windbreak_(Genesis)" class="svgRegion">
    <g filter="url(#blur)">
<rect x="161" y="708" width="50" height="62" />
    </g>
    <text x="512" y="60">Northern Windbreak</text>
</a>
<a href="/Fishing_Lake_(Genesis)" class="svgRegion">
    <g filter="url(#blur)">
<rect x="97" y="731" width="66" height="74" />
    </g>
    <text x="512" y="60">Fishing Lake</text>
</a>
<a href="/Smokestack_(Genesis)" class="svgRegion">
    <g filter="url(#blur)">
<rect x="822" y="131" width="93" height="85" />
    </g>
    <text x="512" y="60">Smokestack</text>
</a>
<a href="/Under_the_Ice_(Genesis)" class="svgRegion">
    <g filter="url(#blur)">
<rect x="119" y="747" width="26" height="30" />
    </g>
    <text x="512" y="60">Under the Ice</text>
</a>
<a href="/Collapsed_Drill_(Genesis)" class="svgRegion">
    <g filter="url(#blur)">
<rect x="275" y="636" width="59" height="61" />
    </g>
    <text x="512" y="60">Collapsed Drill</text>
</a>
<a href="/Thawed_Waterway_(Genesis)" class="svgRegion">
    <g filter="url(#blur)">
<rect x="134" y="764" width="114" height="35" />
<rect x="228" y="780" width="35" height="108" />
    </g>
    <text x="512" y="60">Thawed Waterway</text>
</a>
<a href="/The_Oasis_(Genesis)" class="svgRegion">
    <g filter="url(#blur)">
<rect x="197" y="790" width="20" height="15" />
<rect x="193" y="805" width="36" height="33" />
    </g>
    <text x="512" y="60">The Oasis</text>
</a>
</svg>