<?xml version="1.0" encoding="utf-8"?>
<svg xmlns="http://www.w3.org/2000/svg" width="300" height="300" viewBox="0 0 300 300" class="creatureMap" style="position:absolute;">
    <defs>
        <filter id="blur" x="-30%" y="-30%" width="160%" height="160%">
            <feGaussianBlur stdDeviation="3" />
        </filter>
        <pattern id="pattern-untameable" width="10" height="10" patternTransform="rotate(135)" patternUnits="userSpaceOnUse">'
            <rect width="4" height="10" fill="black"></rect>
        </pattern>
        <filter id="groupStroke">
            <feFlood result="outsideColor" flood-color="black"/>
            <feMorphology in="SourceAlpha" operator="dilate" radius="2"/>
            <feComposite result="strokeoutline1" in="outsideColor" operator="in"/>
            <feComposite result="strokeoutline2" in="strokeoutline1" in2="SourceAlpha" operator="out"/>
            <feGaussianBlur in="strokeoutline2" result="strokeblur" stdDeviation="1"/>
        </filter>
        <style>
            .spawningMap-very-common { fill: #0F0; }
            .spawningMap-common { fill: #B2FF00; }
            .spawningMap-uncommon { fill: #FF0; }
            .spawningMap-very-uncommon { fill: #FC0; }
            .spawningMap-rare { fill: #F60; }
            .spawningMap-very-rare { fill: #F00; }
            .spawning-map-point { stroke:black; stroke-width:1; }
        </style>
    </defs>

<g class="spawning-map-point" opacity="0.8">
<g class="spawningMap-uncommon">
<circle cx="108" cy="127" r="4" />
<circle cx="113" cy="131" r="4" />
<circle cx="106" cy="139" r="4" />
<circle cx="112" cy="143" r="4" />
<circle cx="112" cy="156" r="4" />
<circle cx="112" cy="156" r="4" />
<circle cx="99" cy="167" r="4" />
<circle cx="96" cy="167" r="4" />
<circle cx="102" cy="132" r="4" />
<circle cx="95" cy="135" r="4" />
<circle cx="96" cy="137" r="4" />
<circle cx="96" cy="136" r="4" />
<circle cx="96" cy="134" r="4" />
<circle cx="96" cy="133" r="4" />
<circle cx="115" cy="146" r="4" />
<circle cx="106" cy="153" r="4" />
<circle cx="105" cy="129" r="4" />
<circle cx="103" cy="163" r="4" />
<circle cx="107" cy="155" r="4" />
<circle cx="102" cy="135" r="4" />
<circle cx="106" cy="137" r="4" />
<circle cx="108" cy="136" r="4" />
<circle cx="111" cy="164" r="4" />
<circle cx="111" cy="164" r="4" />
<circle cx="113" cy="165" r="4" />
</g>
<g class="spawningMap-common">
<circle cx="113" cy="65" r="4" />
<circle cx="112" cy="66" r="4" />
<circle cx="113" cy="66" r="4" />
<circle cx="114" cy="66" r="4" />
<circle cx="114" cy="67" r="4" />
<circle cx="113" cy="69" r="4" />
<circle cx="113" cy="69" r="4" />
<circle cx="114" cy="69" r="4" />
<circle cx="116" cy="68" r="4" />
<circle cx="116" cy="67" r="4" />
<circle cx="118" cy="67" r="4" />
<circle cx="119" cy="67" r="4" />
<circle cx="118" cy="64" r="4" />
<circle cx="117" cy="59" r="4" />
<circle cx="121" cy="51" r="4" />
<circle cx="121" cy="51" r="4" />
<circle cx="120" cy="48" r="4" />
<circle cx="127" cy="68" r="4" />
<circle cx="126" cy="70" r="4" />
<circle cx="114" cy="52" r="4" />
<circle cx="114" cy="52" r="4" />
<circle cx="113" cy="51" r="4" />
<circle cx="112" cy="51" r="4" />
<circle cx="118" cy="46" r="4" />
<circle cx="118" cy="46" r="4" />
<circle cx="120" cy="48" r="4" />
<circle cx="73" cy="92" r="4" />
<circle cx="74" cy="92" r="4" />
<circle cx="76" cy="92" r="4" />
<circle cx="79" cy="88" r="4" />
<circle cx="78" cy="87" r="4" />
<circle cx="74" cy="87" r="4" />
<circle cx="71" cy="84" r="4" />
<circle cx="68" cy="83" r="4" />
<circle cx="68" cy="86" r="4" />
<circle cx="66" cy="83" r="4" />
<circle cx="65" cy="84" r="4" />
<circle cx="65" cy="85" r="4" />
<circle cx="68" cy="92" r="4" />
<circle cx="65" cy="92" r="4" />
<circle cx="64" cy="92" r="4" />
</g>
</g>
</svg>