<?xml version="1.0" encoding="utf-8"?>
<svg xmlns="http://www.w3.org/2000/svg" width="300" height="300" viewBox="0 0 300 300" class="creatureMap" style="position:absolute;">
    <defs>
        <filter id="blur" x="-30%" y="-30%" width="160%" height="160%">
            <feGaussianBlur stdDeviation="3" />
        </filter>
        <pattern id="pattern-untameable" width="10" height="10" patternTransform="rotate(135)" patternUnits="userSpaceOnUse">'
            <rect width="4" height="10" fill="black"></rect>
        </pattern>
        <filter id="groupStroke">
            <feFlood result="outsideColor" flood-color="black"/>
            <feMorphology in="SourceAlpha" operator="dilate" radius="2"/>
            <feComposite result="strokeoutline1" in="outsideColor" operator="in"/>
            <feComposite result="strokeoutline2" in="strokeoutline1" in2="SourceAlpha" operator="out"/>
            <feGaussianBlur in="strokeoutline2" result="strokeblur" stdDeviation="1"/>
        </filter>
        <style>
            .spawningMap-very-common { fill: #0F0; }
            .spawningMap-common { fill: #B2FF00; }
            .spawningMap-uncommon { fill: #FF0; }
            .spawningMap-very-uncommon { fill: #FC0; }
            .spawningMap-rare { fill: #F60; }
            .spawningMap-very-rare { fill: #F00; }
            .spawning-map-point { stroke:black; stroke-width:1; }
        </style>
    </defs>

<g filter="url(#blur)" opacity="0.7">
<g class="spawningMap-rare">
<rect x="200" y="201" width="20" height="21" />
<rect x="211" y="250" width="20" height="21" />
<rect x="211" y="233" width="20" height="21" />
<rect x="200" y="217" width="20" height="21" />
<rect x="198" y="119" width="19" height="21" />
</g>
<g class="spawningMap-very-uncommon">
<rect x="51" y="268" width="14" height="12" />
<rect x="100" y="229" width="17" height="15" />
<rect x="113" y="220" width="15" height="15" />
<rect x="56" y="49" width="20" height="13" />
<rect x="50" y="56" width="16" height="15" />
<rect x="124" y="220" width="15" height="15" />
<rect x="100" y="220" width="17" height="15" />
<rect x="207" y="112" width="13" height="13" />
</g>
<g class="spawningMap-uncommon">
<rect x="46" y="32" width="14" height="15" />
<rect x="119" y="55" width="11" height="12" />
<rect x="62" y="64" width="14" height="12" />
<rect x="131" y="58" width="13" height="13" />
<rect x="126" y="54" width="12" height="13" />
</g>
<g class="spawningMap-common">
<rect x="56" y="45" width="12" height="11" />
<rect x="55" y="42" width="11" height="11" />
<rect x="52" y="39" width="12" height="11" />
<rect x="71" y="51" width="12" height="9" />
<rect x="227" y="81" width="12" height="12" />
<rect x="108" y="177" width="11" height="13" />
<rect x="87" y="202" width="14" height="11" />
<rect x="245" y="105" width="9" height="10" />
<rect x="71" y="67" width="11" height="11" />
</g>
<g class="spawningMap-very-common">
<rect x="69" y="56" width="9" height="9" />
<rect x="74" y="48" width="11" height="10" />
<rect x="61" y="60" width="9" height="11" />
<rect x="125" y="197" width="9" height="8" />
<rect x="83" y="185" width="11" height="11" />
<rect x="86" y="180" width="10" height="11" />
<rect x="68" y="34" width="10" height="10" />
<rect x="104" y="192" width="11" height="11" />
<rect x="147" y="196" width="10" height="12" />
<rect x="44" y="63" width="8" height="9" />
<rect x="65" y="70" width="12" height="8" />
</g>
</g>
</svg>