<?xml version="1.0" encoding="utf-8"?>
<svg xmlns="http://www.w3.org/2000/svg" width="300" height="300"
        viewBox="0 0 300 300" class="creatureMap" style="position:absolute;">
    <defs>
        <filter id="blur" x="-30%" y="-30%" width="160%" height="160%">
            <feGaussianBlur stdDeviation="3" />
        </filter>
        <pattern id="pattern-untameable" width="10" height="10" patternTransform="rotate(135)" patternUnits="userSpaceOnUse">
            <rect width="4" height="10" fill="black"></rect>
        </pattern>
        <filter id="groupStroke">
            <feFlood result="outsideColor" flood-color="black"/>
            <feMorphology in="SourceAlpha" operator="dilate" radius="2"/>
            <feComposite result="strokeoutline1" in="outsideColor" operator="in"/>
            <feComposite result="strokeoutline2" in="strokeoutline1" in2="SourceAlpha" operator="out"/>
            <feGaussianBlur in="strokeoutline2" result="strokeblur" stdDeviation="1"/>
        </filter>
        <style>
            .spawningMap-very-common { fill: #0F0; }
            .spawningMap-common { fill: #B2FF00; }
            .spawningMap-uncommon { fill: #FF0; }
            .spawningMap-very-uncommon { fill: #FC0; }
            .spawningMap-rare { fill: #F60; }
            .spawningMap-very-rare { fill: #F00; }
            .spawning-map-point { stroke:black; stroke-width:1; }
        </style>
    </defs>

<g class="spawning-map-point" opacity="0.8">
<g class="spawningMap-very-common">
<circle cx="107" cy="103" r="4" />
<circle cx="107" cy="103" r="4" />
<circle cx="108" cy="103" r="4" />
<circle cx="108" cy="103" r="4" />
<circle cx="107" cy="103" r="4" />
<circle cx="108" cy="102" r="4" />
<circle cx="107" cy="100" r="4" />
<circle cx="107" cy="101" r="4" />
<circle cx="107" cy="101" r="4" />
<circle cx="107" cy="100" r="4" />
<circle cx="106" cy="102" r="4" />
<circle cx="106" cy="102" r="4" />
<circle cx="106" cy="102" r="4" />
<circle cx="107" cy="102" r="4" />
<circle cx="109" cy="98" r="4" />
<circle cx="110" cy="98" r="4" />
<circle cx="110" cy="97" r="4" />
<circle cx="110" cy="97" r="4" />
<circle cx="110" cy="97" r="4" />
<circle cx="106" cy="100" r="4" />
<circle cx="106" cy="100" r="4" />
<circle cx="107" cy="99" r="4" />
<circle cx="106" cy="99" r="4" />
<circle cx="109" cy="94" r="4" />
<circle cx="109" cy="95" r="4" />
<circle cx="109" cy="96" r="4" />
<circle cx="107" cy="103" r="4" />
<circle cx="107" cy="103" r="4" />
<circle cx="107" cy="103" r="4" />
<circle cx="109" cy="102" r="4" />
<circle cx="109" cy="103" r="4" />
<circle cx="109" cy="103" r="4" />
<circle cx="109" cy="103" r="4" />
<circle cx="109" cy="103" r="4" />
<circle cx="110" cy="104" r="4" />
<circle cx="108" cy="101" r="4" />
<circle cx="108" cy="101" r="4" />
<circle cx="108" cy="101" r="4" />
<circle cx="109" cy="102" r="4" />
<circle cx="109" cy="102" r="4" />
<circle cx="108" cy="94" r="4" />
<circle cx="107" cy="93" r="4" />
<circle cx="106" cy="93" r="4" />
<circle cx="104" cy="93" r="4" />
<circle cx="104" cy="92" r="4" />
<circle cx="105" cy="92" r="4" />
<circle cx="105" cy="92" r="4" />
<circle cx="106" cy="95" r="4" />
<circle cx="106" cy="94" r="4" />
<circle cx="106" cy="95" r="4" />
<circle cx="106" cy="96" r="4" />
<circle cx="107" cy="97" r="4" />
<circle cx="108" cy="97" r="4" />
<circle cx="108" cy="97" r="4" />
</g>
</g>
</svg>