<?xml version="1.0" encoding="utf-8"?>
<svg xmlns="http://www.w3.org/2000/svg" width="300" height="300"
        viewBox="0 0 300 300" class="creatureMap" style="position:absolute;">
    <defs>
        <filter id="blur" x="-30%" y="-30%" width="160%" height="160%">
            <feGaussianBlur stdDeviation="3" />
        </filter>
        <pattern id="pattern-untameable" width="10" height="10" patternTransform="rotate(135)" patternUnits="userSpaceOnUse">
            <rect width="4" height="10" fill="black"></rect>
        </pattern>
        <filter id="groupStroke">
            <feFlood result="outsideColor" flood-color="black"/>
            <feMorphology in="SourceAlpha" operator="dilate" radius="2"/>
            <feComposite result="strokeoutline1" in="outsideColor" operator="in"/>
            <feComposite result="strokeoutline2" in="strokeoutline1" in2="SourceAlpha" operator="out"/>
            <feGaussianBlur in="strokeoutline2" result="strokeblur" stdDeviation="1"/>
        </filter>
        <style>
            .spawningMap-very-common { fill: #0F0; }
            .spawningMap-common { fill: #B2FF00; }
            .spawningMap-uncommon { fill: #FF0; }
            .spawningMap-very-uncommon { fill: #FC0; }
            .spawningMap-rare { fill: #F60; }
            .spawningMap-very-rare { fill: #F00; }
            .spawning-map-point { stroke:black; stroke-width:1; }
        </style>
    </defs>

<g filter="url(#blur)" opacity="0.7">
<g class="spawningMap-rare">
<rect x="48" y="65" width="17" height="11" />
<rect x="106" y="60" width="17" height="11" />
<rect x="60" y="97" width="13" height="13" />
<rect x="131" y="27" width="21" height="15" />
<rect x="153" y="80" width="12" height="15" />
<rect x="164" y="90" width="18" height="10" />
<rect x="77" y="173" width="17" height="11" />
<rect x="95" y="178" width="18" height="15" />
<rect x="127" y="188" width="13" height="13" />
<rect x="119" y="212" width="13" height="13" />
<rect x="127" y="212" width="13" height="13" />
<rect x="108" y="212" width="16" height="13" />
<rect x="100" y="268" width="15" height="14" />
<rect x="119" y="239" width="15" height="15" />
<rect x="119" y="248" width="15" height="15" />
<rect x="119" y="258" width="15" height="15" />
<rect x="119" y="268" width="15" height="14" />
<rect x="48" y="49" width="13" height="14" />
<rect x="75" y="73" width="13" height="13" />
<rect x="107" y="65" width="13" height="14" />
<rect x="83" y="60" width="16" height="11" />
<rect x="75" y="97" width="13" height="13" />
<rect x="95" y="60" width="16" height="11" />
<rect x="68" y="97" width="13" height="13" />
<rect x="68" y="89" width="13" height="13" />
<rect x="48" y="57" width="13" height="14" />
<rect x="120" y="27" width="16" height="15" />
<rect x="108" y="27" width="17" height="10" />
<rect x="40" y="49" width="13" height="14" />
<rect x="152" y="45" width="13" height="19" />
<rect x="143" y="38" width="21" height="12" />
<rect x="142" y="45" width="15" height="19" />
<rect x="139" y="59" width="19" height="15" />
<rect x="139" y="69" width="19" height="10" />
<rect x="146" y="74" width="12" height="21" />
<rect x="135" y="90" width="19" height="11" />
<rect x="150" y="90" width="18" height="10" />
<rect x="66" y="39" width="11" height="16" />
<rect x="56" y="50" width="9" height="20" />
<rect x="71" y="38" width="13" height="14" />
<rect x="75" y="65" width="13" height="14" />
<rect x="91" y="65" width="13" height="14" />
<rect x="99" y="65" width="13" height="14" />
<rect x="60" y="89" width="13" height="13" />
<rect x="60" y="81" width="13" height="13" />
<rect x="109" y="120" width="13" height="13" />
<rect x="101" y="120" width="13" height="13" />
<rect x="93" y="120" width="13" height="13" />
<rect x="85" y="128" width="13" height="13" />
<rect x="77" y="165" width="17" height="13" />
<rect x="71" y="46" width="13" height="14" />
<rect x="111" y="188" width="13" height="13" />
<rect x="119" y="188" width="13" height="13" />
<rect x="111" y="196" width="13" height="13" />
<rect x="119" y="196" width="13" height="13" />
<rect x="127" y="196" width="13" height="13" />
<rect x="108" y="204" width="16" height="13" />
<rect x="119" y="204" width="13" height="13" />
<rect x="127" y="204" width="13" height="13" />
<rect x="83" y="65" width="13" height="14" />
<rect x="112" y="229" width="15" height="15" />
<rect x="122" y="229" width="12" height="15" />
<rect x="100" y="239" width="15" height="15" />
<rect x="100" y="248" width="15" height="15" />
<rect x="100" y="258" width="15" height="15" />
<rect x="109" y="239" width="15" height="15" />
<rect x="109" y="248" width="15" height="15" />
<rect x="109" y="258" width="15" height="15" />
<rect x="109" y="268" width="15" height="14" />
</g>
<g class="spawningMap-very-uncommon">
<rect x="46" y="238" width="13" height="16" />
<rect x="30" y="254" width="13" height="13" />
<rect x="62" y="238" width="13" height="16" />
<rect x="54" y="238" width="13" height="16" />
<rect x="69" y="238" width="13" height="13" />
<rect x="69" y="246" width="13" height="13" />
</g>
<g class="spawningMap-uncommon">
<rect x="130" y="261" width="13" height="13" />
<rect x="130" y="269" width="13" height="13" />
<rect x="30" y="226" width="13" height="17" />
<rect x="164" y="187" width="13" height="13" />
<rect x="157" y="187" width="13" height="13" />
<rect x="185" y="237" width="13" height="13" />
<rect x="138" y="229" width="13" height="13" />
<rect x="161" y="245" width="13" height="13" />
<rect x="146" y="245" width="13" height="13" />
<rect x="138" y="245" width="13" height="13" />
<rect x="138" y="253" width="13" height="13" />
<rect x="146" y="229" width="13" height="13" />
<rect x="146" y="221" width="13" height="14" />
<rect x="153" y="221" width="13" height="14" />
<rect x="138" y="261" width="13" height="13" />
<rect x="138" y="269" width="13" height="13" />
<rect x="161" y="221" width="13" height="14" />
<rect x="157" y="155" width="13" height="13" />
<rect x="164" y="171" width="13" height="13" />
<rect x="157" y="171" width="13" height="13" />
<rect x="38" y="226" width="13" height="17" />
<rect x="46" y="249" width="13" height="18" />
<rect x="54" y="249" width="13" height="18" />
<rect x="62" y="249" width="13" height="18" />
<rect x="185" y="221" width="13" height="13" />
<rect x="185" y="229" width="13" height="13" />
<rect x="177" y="229" width="13" height="13" />
<rect x="177" y="237" width="13" height="13" />
<rect x="164" y="155" width="13" height="13" />
<rect x="161" y="229" width="13" height="13" />
<rect x="153" y="229" width="13" height="13" />
<rect x="161" y="237" width="13" height="13" />
<rect x="153" y="237" width="13" height="13" />
<rect x="146" y="237" width="13" height="13" />
<rect x="138" y="237" width="13" height="13" />
<rect x="153" y="245" width="13" height="13" />
<rect x="153" y="253" width="13" height="13" />
<rect x="161" y="253" width="13" height="13" />
<rect x="161" y="261" width="13" height="13" />
<rect x="161" y="269" width="13" height="13" />
</g>
<g class="spawningMap-common">
<rect x="138" y="276" width="13" height="10" />
<rect x="69" y="254" width="13" height="13" />
<rect x="216" y="253" width="13" height="13" />
<rect x="200" y="158" width="13" height="13" />
<rect x="200" y="190" width="13" height="13" />
<rect x="200" y="198" width="13" height="13" />
<rect x="200" y="205" width="13" height="14" />
<rect x="192" y="221" width="13" height="14" />
<rect x="224" y="253" width="13" height="13" />
<rect x="38" y="246" width="13" height="13" />
<rect x="30" y="238" width="13" height="13" />
<rect x="38" y="238" width="13" height="13" />
<rect x="208" y="182" width="13" height="13" />
<rect x="208" y="190" width="13" height="13" />
<rect x="208" y="198" width="13" height="13" />
<rect x="208" y="205" width="13" height="14" />
<rect x="208" y="213" width="13" height="14" />
<rect x="200" y="213" width="13" height="14" />
<rect x="192" y="213" width="13" height="14" />
<rect x="208" y="221" width="13" height="14" />
<rect x="200" y="221" width="13" height="14" />
<rect x="208" y="229" width="13" height="13" />
<rect x="200" y="229" width="13" height="13" />
<rect x="30" y="246" width="13" height="13" />
<rect x="216" y="237" width="13" height="13" />
<rect x="208" y="237" width="13" height="13" />
<rect x="224" y="245" width="13" height="13" />
<rect x="216" y="245" width="13" height="13" />
<rect x="38" y="254" width="13" height="13" />
<rect x="200" y="182" width="13" height="13" />
<rect x="200" y="174" width="13" height="13" />
<rect x="200" y="166" width="13" height="13" />
</g>
</g>
</svg>