<svg xmlns="http://www.w3.org/2000/svg" width="1024" height="1024" viewBox="0 0 1024 1024" style="position: absolute; width:100%; height:100%;">
<defs>
    <filter id="blur" x="-30%" y="-30%" width="160%" height="160%">'
        <feColorMatrix type="matrix" values="1 0 0 1 0, 0 1 0 0 0, 0 0 1 0 0, 0 0 0 0.7 0"/>
        <feGaussianBlur stdDeviation="10" />
    </filter>
</defs>
<a href="/Wasteland_(Extinction)" class="svgRegion">
    <g filter="url(#blur)">
<rect x="815" y="494" width="209" height="240" />
<rect x="339" y="670" width="310" height="139" />
<rect x="831" y="439" width="193" height="198" />
<rect x="866" y="271" width="158" height="221" />
<rect x="598" y="303" width="330" height="189" />
<rect x="612" y="212" width="122" height="155" />
<rect x="482" y="324" width="131" height="85" />
<rect x="801" y="466" width="51" height="41" />
<rect x="689" y="320" width="144" height="119" />
<rect x="972" y="497" width="44" height="109" />
<rect x="445" y="193" width="219" height="179" />
<rect x="221" y="0" width="114" height="378" />
<rect x="333" y="195" width="112" height="177" />
<rect x="171" y="293" width="240" height="188" />
<rect x="0" y="0" width="221" height="610" />
<rect x="538" y="140" width="121" height="108" />
<rect x="523" y="573" width="338" height="179" />
<rect x="401" y="745" width="43" height="53" />
<rect x="580" y="0" width="151" height="168" />
<rect x="816" y="378" width="92" height="59" />
<rect x="335" y="94" width="76" height="104" />
    </g>
    <text x="512" y="60">Wasteland</text>
</a>
<a href="/Sulfur_Fields_(Extinction)" class="svgRegion">
    <g filter="url(#blur)">
<rect x="0" y="582" width="365" height="347" />
<rect x="0" y="568" width="265" height="197" />
<rect x="0" y="826" width="59" height="196" />
<rect x="193" y="563" width="205" height="158" />
    </g>
    <text x="512" y="60">Sulfur Fields</text>
</a>
<a href="/The_Sweeping_Spires_(Extinction)" class="svgRegion">
    <g filter="url(#blur)">
<rect x="287" y="810" width="362" height="211" />
<rect x="14" y="750" width="441" height="274" />
<rect x="584" y="901" width="167" height="123" />
    </g>
    <text x="512" y="60">The Sweeping Spires</text>
</a>
<a href="/Crater_Forest_(Extinction)" class="svgRegion">
    <g filter="url(#blur)">
<rect x="0" y="77" width="239" height="206" />
<rect x="0" y="0" width="408" height="423" />
<rect x="0" y="280" width="67" height="87" />
<rect x="173" y="103" width="43" height="40" />
<rect x="138" y="128" width="44" height="87" />
    </g>
    <text x="512" y="60">Crater Forest</text>
</a>
<a href="/Forbidden_Zone_(Extinction)" class="svgRegion">
    <g filter="url(#blur)">
<rect x="411" y="95" width="127" height="100" />
<rect x="337" y="0" width="296" height="95" />
<rect x="538" y="95" width="81" height="44" />
<rect x="425" y="148" width="34" height="38" />
<rect x="411" y="108" width="38" height="19" />
<rect x="363" y="0" width="163" height="12" />
<rect x="461" y="100" width="75" height="40" />
<rect x="432" y="17" width="111" height="71" />
<rect x="558" y="29" width="71" height="76" />
    </g>
    <text x="512" y="60">Forbidden Zone</text>
</a>
<a href="/Sludge_Basin_(Extinction)" class="svgRegion">
    <g filter="url(#blur)">
<rect x="266" y="848" width="77" height="52" />
<rect x="315" y="796" width="77" height="114" />
<rect x="391" y="832" width="76" height="79" />
    </g>
    <text x="512" y="60">Sludge Basin</text>
</a>
<a href="/Lower_Spires_(Extinction)" class="svgRegion">
    <g filter="url(#blur)">
<rect x="546" y="819" width="76" height="70" />
<rect x="157" y="899" width="99" height="101" />
<rect x="49" y="932" width="88" height="75" />
    </g>
    <text x="512" y="60">Lower Spires</text>
</a>
<a href="/Mt._Bracken_(Extinction)" class="svgRegion">
    <g filter="url(#blur)">
<rect x="926" y="348" width="90" height="89" />
    </g>
    <text x="512" y="60">Mt. Bracken</text>
</a>
<a href="/Eroded_Pass_(Extinction)" class="svgRegion">
    <g filter="url(#blur)">
<rect x="638" y="228" width="91" height="128" />
    </g>
    <text x="512" y="60">Eroded Pass</text>
</a>
<a href="/Ivory_Gulch_(Extinction)" class="svgRegion">
    <g filter="url(#blur)">
<rect x="502" y="199" width="70" height="117" />
    </g>
    <text x="512" y="60">Ivory Gulch</text>
</a>
<a href="/Treatment_Runnoff_(Extinction)" class="svgRegion">
    <g filter="url(#blur)">
<rect x="857" y="512" width="67" height="127" />
    </g>
    <text x="512" y="60">Treatment Runnoff</text>
</a>
<a href="/The_lowlands_(Extinction)" class="svgRegion">
    <g filter="url(#blur)">
<rect x="8" y="412" width="131" height="126" />
    </g>
    <text x="512" y="60">The lowlands</text>
</a>
<a href="/Crater_Pass_(Extinction)" class="svgRegion">
    <g filter="url(#blur)">
<rect x="26" y="136" width="55" height="166" />
    </g>
    <text x="512" y="60">Crater Pass</text>
</a>
<a href="/Lowlands_Runnoff_(Extinction)" class="svgRegion">
    <g filter="url(#blur)">
<rect x="133" y="252" width="77" height="115" />
    </g>
    <text x="512" y="60">Lowlands Runnoff</text>
</a>
<a href="/Old_Ruins_(Extinction)" class="svgRegion">
    <g filter="url(#blur)">
<rect x="232" y="243" width="122" height="105" />
<rect x="289" y="273" width="35" height="33" />
<rect x="247" y="301" width="50" height="42" />
    </g>
    <text x="512" y="60">Old Ruins</text>
</a>
<a href="/Flooded_Waterway_(Extinction)" class="svgRegion">
    <g filter="url(#blur)">
<rect x="543" y="664" width="105" height="105" />
    </g>
    <text x="512" y="60">Flooded Waterway</text>
</a>
<a href="/Carver_Rock_(Extinction)" class="svgRegion">
    <g filter="url(#blur)">
<rect x="775" y="592" width="38" height="62" />
    </g>
    <text x="512" y="60">Carver Rock</text>
</a>
<a href="/Searing_Springs_(Extinction)" class="svgRegion">
    <g filter="url(#blur)">
<rect x="177" y="611" width="89" height="80" />
<rect x="266" y="649" width="79" height="89" />
<rect x="235" y="744" width="37" height="60" />
<rect x="224" y="676" width="69" height="69" />
    </g>
    <text x="512" y="60">Searing Springs</text>
</a>
<a href="/The_Crater_(Extinction)" class="svgRegion">
    <g filter="url(#blur)">
<rect x="72" y="702" width="98" height="82" />
    </g>
    <text x="512" y="60">The Crater</text>
</a>
<a href="/The_UnderForest_(Extinction)" class="svgRegion">
    <g filter="url(#blur)">
<rect x="135" y="0" width="264" height="164" />
<rect x="0" y="0" width="136" height="216" />
<rect x="0" y="217" width="103" height="50" />
<rect x="128" y="190" width="153" height="107" />
    </g>
    <text x="512" y="60">The UnderForest</text>
</a>
<a href="/Western_Ramp_(Extinction)" class="svgRegion">
    <g filter="url(#blur)">
<rect x="0" y="65" width="66" height="46" />
    </g>
    <text x="512" y="60">Western Ramp</text>
</a>
<a href="/The_Core_(Extinction)" class="svgRegion">
    <g filter="url(#blur)">
<rect x="186" y="141" width="85" height="106" />
    </g>
    <text x="512" y="60">The Core</text>
</a>
<a href="/The_Hideout_(Extinction)" class="svgRegion">
    <g filter="url(#blur)">
<rect x="0" y="16" width="59" height="81" />
    </g>
    <text x="512" y="60">The Hideout</text>
</a>
<a href="/Overpass_(Extinction)" class="svgRegion">
    <g filter="url(#blur)">
<rect x="125" y="0" width="43" height="134" />
    </g>
    <text x="512" y="60">Overpass</text>
</a>
<a href="/Frozen_Approach_(Extinction)" class="svgRegion">
    <g filter="url(#blur)">
<rect x="419" y="75" width="37" height="100" />
    </g>
    <text x="512" y="60">Frozen Approach</text>
</a>
<a href="/Station_(Extinction)" class="svgRegion">
    <g filter="url(#blur)">
<rect x="651" y="667" width="40" height="43" />
    </g>
    <text x="512" y="60">Station</text>
</a>
<a href="/Crystal_River_(Extinction)" class="svgRegion">
    <g filter="url(#blur)">
<rect x="213" y="673" width="18" height="45" />
<rect x="176" y="657" width="48" height="29" />
<rect x="142" y="638" width="48" height="39" />
<rect x="206" y="714" width="29" height="49" />
<rect x="180" y="753" width="45" height="45" />
<rect x="148" y="783" width="49" height="28" />
<rect x="121" y="305" width="30" height="40" />
<rect x="143" y="273" width="30" height="40" />
<rect x="119" y="291" width="30" height="40" />
    </g>
    <text x="512" y="60">Crystal River</text>
</a>
<a href="/Spire_River_(Extinction)" class="svgRegion">
    <g filter="url(#blur)">
<rect x="565" y="897" width="80" height="62" />
    </g>
    <text x="512" y="60">Spire River</text>
</a>
<a href="/Spire_Lookout_(Extinction)" class="svgRegion">
    <g filter="url(#blur)">
<rect x="401" y="909" width="80" height="62" />
<rect x="191" y="977" width="47" height="28" />
<rect x="288" y="926" width="47" height="28" />
<rect x="31" y="1002" width="66" height="22" />
<rect x="540" y="995" width="66" height="29" />
    </g>
    <text x="512" y="60">Spire Lookout</text>
</a>
<a href="/Dome_Treatment_(Extinction)" class="svgRegion">
    <g filter="url(#blur)">
<rect x="882" y="463" width="58" height="57" />
    </g>
    <text x="512" y="60">Dome Treatment</text>
</a>
<a href="/The_Ribcage_(Extinction)" class="svgRegion">
    <g filter="url(#blur)">
<rect x="513" y="212" width="74" height="74" />
    </g>
    <text x="512" y="60">The Ribcage</text>
</a>
<a href="/Crimson_Falls_(Extinction)" class="svgRegion">
    <g filter="url(#blur)">
<rect x="534" y="164" width="42" height="43" />
    </g>
    <text x="512" y="60">Crimson Falls</text>
</a>
<a href="/Barracks_(Extinction)" class="svgRegion">
    <g filter="url(#blur)">
<rect x="64" y="352" width="39" height="31" />
    </g>
    <text x="512" y="60">Barracks</text>
</a>
<a href="/Control_Center_(Extinction)" class="svgRegion">
    <g filter="url(#blur)">
<rect x="21" y="451" width="99" height="51" />
    </g>
    <text x="512" y="60">Control Center</text>
</a>
<a href="/Frozen_Grotto_(Extinction)" class="svgRegion">
    <g filter="url(#blur)">
<rect x="164" y="100" width="51" height="41" />
<rect x="183" y="20" width="51" height="71" />
    </g>
    <text x="512" y="60">Frozen Grotto</text>
</a>
<a href="/Glaicer_Pass_(Extinction)" class="svgRegion">
    <g filter="url(#blur)">
<rect x="301" y="90" width="67" height="36" />
    </g>
    <text x="512" y="60">Glaicer Pass</text>
</a>
<a href="/Jagged_Lookout_(Extinction)" class="svgRegion">
    <g filter="url(#blur)">
<rect x="334" y="162" width="67" height="36" />
    </g>
    <text x="512" y="60">Jagged Lookout</text>
</a>
<a href="/Flodded_Pond_(Extinction)" class="svgRegion">
    <g filter="url(#blur)">
<rect x="561" y="717" width="34" height="34" />
    </g>
    <text x="512" y="60">Flodded Pond</text>
</a>
<a href="/Crater_Runoff_(Extinction)" class="svgRegion">
    <g filter="url(#blur)">
<rect x="131" y="787" width="52" height="56" />
<rect x="64" y="795" width="49" height="91" />
    </g>
    <text x="512" y="60">Crater Runoff</text>
</a>
<a href="/Delta_Tower_(Extinction)" class="svgRegion">
    <g filter="url(#blur)">
<rect x="96" y="648" width="46" height="75" />
<rect x="56" y="694" width="45" height="18" />
<rect x="50" y="697" width="18" height="45" />
    </g>
    <text x="512" y="60">Delta Tower</text>
</a>
<a href="/The_Hopeless_Ravine_(Extinction)" class="svgRegion">
    <g filter="url(#blur)">
<rect x="553" y="288" width="36" height="46" />
    </g>
    <text x="512" y="60">The Hopeless Ravine</text>
</a>
<a href="/Bracken_Institution_(Extinction)" class="svgRegion">
    <g filter="url(#blur)">
<rect x="987" y="361" width="29" height="57" />
    </g>
    <text x="512" y="60">Bracken Institution</text>
</a>
<a href="/Giants_Steppes_(Extinction)" class="svgRegion">
    <g filter="url(#blur)">
<rect x="419" y="181" width="47" height="153" />
    </g>
    <text x="512" y="60">Giants Steppes</text>
</a>
<a href="/Thundering_Basin_(Extinction)" class="svgRegion">
    <g filter="url(#blur)">
<rect x="779" y="888" width="106" height="37" />
<rect x="788" y="817" width="71" height="42" />
<rect x="805" y="859" width="97" height="27" />
    </g>
    <text x="512" y="60">Thundering Basin</text>
</a>
<a href="/Arid_Steps_(Extinction)" class="svgRegion">
    <g filter="url(#blur)">
<rect x="737" y="813" width="51" height="42" />
<rect x="713" y="877" width="75" height="90" />
<rect x="756" y="878" width="54" height="72" />
    </g>
    <text x="512" y="60">Arid Steps</text>
</a>
<a href="/The_Narrows_(Extinction)" class="svgRegion">
    <g filter="url(#blur)">
<rect x="846" y="923" width="36" height="88" />
<rect x="885" y="905" width="72" height="48" />
    </g>
    <text x="512" y="60">The Narrows</text>
</a>
<a href="/Frozen_Tundra_(Extinction)" class="svgRegion">
    <g filter="url(#blur)">
<rect x="855" y="116" width="89" height="87" />
    </g>
    <text x="512" y="60">Frozen Tundra</text>
</a>
<a href="/Snow_Dome_(Extinction)" class="svgRegion">
    <g filter="url(#blur)">
<rect x="883" y="201" width="68" height="51" />
<rect x="891" y="66" width="36" height="38" />
<rect x="658" y="0" width="366" height="360" />
    </g>
    <text x="512" y="60">Snow Dome</text>
</a>
<a href="/Grey_Fist_Mountain_(Extinction)" class="svgRegion">
    <g filter="url(#blur)">
<rect x="939" y="108" width="64" height="144" />
<rect x="906" y="252" width="64" height="33" />
<rect x="882" y="59" width="108" height="57" />
<rect x="853" y="27" width="95" height="32" />
    </g>
    <text x="512" y="60">Grey Fist Mountain</text>
</a>
<a href="/Wisp_Vile_Ridge_(Extinction)" class="svgRegion">
    <g filter="url(#blur)">
<rect x="806" y="29" width="46" height="63" />
<rect x="825" y="70" width="63" height="52" />
    </g>
    <text x="512" y="60">Wisp Vile Ridge</text>
</a>
<a href="/The_Gallanwell_Pass_(Extinction)" class="svgRegion">
    <g filter="url(#blur)">
<rect x="798" y="241" width="89" height="93" />
    </g>
    <text x="512" y="60">The Gallanwell Pass</text>
</a>
<a href="/Hulterel_Plains_(Extinction)" class="svgRegion">
    <g filter="url(#blur)">
<rect x="712" y="101" width="90" height="93" />
    </g>
    <text x="512" y="60">Hulterel Plains</text>
</a>
<a href="/Frozen_Lake_(Extinction)" class="svgRegion">
    <g filter="url(#blur)">
<rect x="802" y="106" width="54" height="93" />
    </g>
    <text x="512" y="60">Frozen Lake</text>
</a>
<a href="/Loose_Rock_Ridge_(Extinction)" class="svgRegion">
    <g filter="url(#blur)">
<rect x="737" y="190" width="66" height="92" />
    </g>
    <text x="512" y="60">Loose Rock Ridge</text>
</a>
<a href="/Fallen_Tower_(Extinction)" class="svgRegion">
    <g filter="url(#blur)">
<rect x="170" y="132" width="25" height="107" />
<rect x="87" y="127" width="107" height="25" />
<rect x="116" y="139" width="50" height="48" />
    </g>
    <text x="512" y="60">Fallen Tower</text>
</a>
<a href="/Crystal_Path_(Extinction)" class="svgRegion">
    <g filter="url(#blur)">
<rect x="97" y="176" width="43" height="70" />
    </g>
    <text x="512" y="60">Crystal Path</text>
</a>
<a href="/Crystal_Falls_(Extinction)" class="svgRegion">
    <g filter="url(#blur)">
<rect x="66" y="186" width="32" height="60" />
    </g>
    <text x="512" y="60">Crystal Falls</text>
</a>
<a href="/Secluded_Lake_(Extinction)" class="svgRegion">
    <g filter="url(#blur)">
<rect x="259" y="0" width="44" height="37" />
    </g>
    <text x="512" y="60">Secluded Lake</text>
</a>
<a href="/The_UnderForest_Ruins_(Extinction)" class="svgRegion">
    <g filter="url(#blur)">
<rect x="141" y="207" width="38" height="59" />
    </g>
    <text x="512" y="60">The UnderForest Ruins</text>
</a>
<a href="/Blood_Hollows_(Extinction)" class="svgRegion">
    <g filter="url(#blur)">
<rect x="554" y="0" width="90" height="36" />
    </g>
    <text x="512" y="60">Blood Hollows</text>
</a>
<a href="/The_Grip_of_Torment_(Extinction)" class="svgRegion">
    <g filter="url(#blur)">
    </g>
    <text x="512" y="60">The Grip of Torment</text>
</a>
<a href="/Vile_Straight_(Extinction)" class="svgRegion">
    <g filter="url(#blur)">
    </g>
    <text x="512" y="60">Vile Straight</text>
</a>
<a href="/Corrupted_Terminal_(Extinction)" class="svgRegion">
    <g filter="url(#blur)">
    </g>
    <text x="512" y="60">Corrupted Terminal</text>
</a>
<a href="/Corrupted_Den_(Extinction)" class="svgRegion">
    <g filter="url(#blur)">
<rect x="443" y="1" width="82" height="56" />
    </g>
    <text x="512" y="60">Corrupted Den</text>
</a>
<a href="/Badlands_(Extinction)" class="svgRegion">
    <g filter="url(#blur)">
<rect x="763" y="680" width="151" height="36" />
<rect x="694" y="810" width="26" height="78" />
<rect x="716" y="717" width="131" height="87" />
<rect x="863" y="717" width="93" height="87" />
    </g>
    <text x="512" y="60">Badlands</text>
</a>
<a href="/Geiser_Springs_(Extinction)" class="svgRegion">
    <g filter="url(#blur)">
<rect x="874" y="831" width="63" height="28" />
    </g>
    <text x="512" y="60">Geiser Springs</text>
</a>
<a href="/The_Outlook_(Extinction)" class="svgRegion">
    <g filter="url(#blur)">
<rect x="902" y="855" width="51" height="49" />
    </g>
    <text x="512" y="60">The Outlook</text>
</a>
<a href="/Picholm_Mountain_(Extinction)" class="svgRegion">
    <g filter="url(#blur)">
<rect x="731" y="46" width="74" height="56" />
    </g>
    <text x="512" y="60">Picholm Mountain</text>
</a>
<a href="/Underbelly_(Extinction)" class="svgRegion">
    <g filter="url(#blur)">
<rect x="899" y="464" width="44" height="45" />
    </g>
    <text x="512" y="60">Underbelly</text>
</a>
<a href="/Water_Main_(Extinction)" class="svgRegion">
    <g filter="url(#blur)">
<rect x="884" y="441" width="14" height="50" />
    </g>
    <text x="512" y="60">Water Main</text>
</a>
<a href="/Control_Room_(Extinction)" class="svgRegion">
    <g filter="url(#blur)">
<rect x="907" y="481" width="22" height="21" />
    </g>
    <text x="512" y="60">Control Room</text>
</a>
<a href="/Sanctuary_(Extinction)" class="svgRegion">
    <g filter="url(#blur)">
<rect x="388" y="448" width="39" height="37" />
<rect x="393" y="406" width="27" height="27" />
<rect x="449" y="395" width="34" height="64" />
<rect x="500" y="415" width="61" height="62" />
<rect x="698" y="492" width="97" height="40" />
<rect x="578" y="497" width="31" height="27" />
<rect x="521" y="492" width="31" height="33" />
<rect x="560" y="529" width="27" height="43" />
<rect x="586" y="584" width="27" height="28" />
<rect x="546" y="590" width="27" height="28" />
<rect x="535" y="558" width="27" height="28" />
<rect x="511" y="564" width="20" height="28" />
<rect x="519" y="595" width="24" height="28" />
<rect x="452" y="612" width="41" height="36" />
<rect x="449" y="568" width="41" height="35" />
<rect x="390" y="563" width="23" height="44" />
<rect x="387" y="619" width="35" height="18" />
<rect x="347" y="548" width="30" height="30" />
<rect x="327" y="570" width="30" height="30" />
<rect x="367" y="595" width="25" height="20" />
<rect x="609" y="438" width="76" height="44" />
<rect x="707" y="458" width="39" height="29" />
<rect x="576" y="458" width="31" height="27" />
<rect x="372" y="423" width="29" height="27" />
<rect x="604" y="482" width="36" height="48" />
<rect x="334" y="562" width="66" height="54" />
<rect x="406" y="382" width="61" height="268" />
<rect x="316" y="446" width="31" height="33" />
<rect x="352" y="430" width="26" height="26" />
<rect x="349" y="470" width="26" height="26" />
<rect x="507" y="530" width="35" height="43" />
<rect x="380" y="501" width="110" height="38" />
<rect x="242" y="382" width="164" height="269" />
<rect x="467" y="382" width="325" height="268" />
    </g>
    <text x="512" y="60">Sanctuary</text>
</a>
<a href="/The_Cassinese_River_(Extinction)" class="svgRegion">
    <g filter="url(#blur)">
<rect x="847" y="717" width="16" height="47" />
<rect x="845" y="750" width="38" height="49" />
<rect x="869" y="783" width="37" height="49" />
<rect x="842" y="677" width="38" height="49" />
    </g>
    <text x="512" y="60">The Cassinese River</text>
</a>
<a href="/Exposed_Dome_(Extinction)" class="svgRegion">
    <g filter="url(#blur)">
<rect x="714" y="768" width="20" height="23" />
<rect x="719" y="929" width="64" height="48" />
    </g>
    <text x="512" y="60">Exposed Dome</text>
</a>
<a href="/Desert_Dome_(Extinction)" class="svgRegion">
    <g filter="url(#blur)">
<rect x="965" y="867" width="43" height="31" />
<rect x="638" y="647" width="386" height="377" />
<rect x="784" y="953" width="54" height="42" />
    </g>
    <text x="512" y="60">Desert Dome</text>
</a>
<a href="/Geiser_Falls_(Extinction)" class="svgRegion">
    <g filter="url(#blur)">
<rect x="861" y="842" width="17" height="20" />
<rect x="892" y="821" width="16" height="20" />
<rect x="873" y="873" width="16" height="20" />
    </g>
    <text x="512" y="60">Geiser Falls</text>
</a>
<a href="/Striker%27s_Point_(Extinction)" class="svgRegion">
    <g filter="url(#blur)">
<rect x="742" y="857" width="77" height="19" />
    </g>
    <text x="512" y="60">Striker&#x27;s Point</text>
</a>
<a href="/Relic_Of_The_Past_(Extinction)" class="svgRegion">
    <g filter="url(#blur)">
<rect x="907" y="136" width="27" height="25" />
    </g>
    <text x="512" y="60">Relic Of The Past</text>
</a>
<a href="/Frozen_Falls_(Extinction)" class="svgRegion">
    <g filter="url(#blur)">
<rect x="839" y="139" width="27" height="24" />
    </g>
    <text x="512" y="60">Frozen Falls</text>
</a>
<a href="/Beckette%27s_Falls_(Extinction)" class="svgRegion">
    <g filter="url(#blur)">
<rect x="828" y="221" width="27" height="24" />
    </g>
    <text x="512" y="60">Beckette&#x27;s Falls</text>
</a>
<a href="/Beckette%27s_Bridge_(Extinction)" class="svgRegion">
    <g filter="url(#blur)">
<rect x="789" y="218" width="11" height="24" />
    </g>
    <text x="512" y="60">Beckette&#x27;s Bridge</text>
</a>
<a href="/Ice_Tail_River_(Extinction)" class="svgRegion">
    <g filter="url(#blur)">
<rect x="738" y="64" width="10" height="56" />
<rect x="738" y="113" width="26" height="15" />
<rect x="723" y="51" width="26" height="16" />
<rect x="708" y="54" width="26" height="30" />
<rect x="782" y="82" width="26" height="15" />
<rect x="749" y="75" width="37" height="55" />
    </g>
    <text x="512" y="60">Ice Tail River</text>
</a>
<a href="/The_Frozen_Lens_(Extinction)" class="svgRegion">
    <g filter="url(#blur)">
<rect x="945" y="112" width="35" height="22" />
    </g>
    <text x="512" y="60">The Frozen Lens</text>
</a>
<a href="/Fort_Nova_(Extinction)" class="svgRegion">
    <g filter="url(#blur)">
<rect x="865" y="246" width="28" height="66" />
<rect x="875" y="289" width="67" height="27" />
    </g>
    <text x="512" y="60">Fort Nova</text>
</a>
<a href="/Beckette%27s_Other_Bridge_(Extinction)" class="svgRegion">
    <g filter="url(#blur)">
<rect x="737" y="217" width="22" height="27" />
    </g>
    <text x="512" y="60">Beckette&#x27;s Other Bridge</text>
</a>
<a href="/Striker%27s_Landing_(Extinction)" class="svgRegion">
    <g filter="url(#blur)">
<rect x="720" y="855" width="22" height="23" />
    </g>
    <text x="512" y="60">Striker&#x27;s Landing</text>
</a>
<a href="/Santiago%27s_Grave_(Extinction)" class="svgRegion">
    <g filter="url(#blur)">
<rect x="309" y="559" width="7" height="7" />
    </g>
    <text x="512" y="60">Santiago&#x27;s Grave</text>
</a>
<a href="/Camp_Omega_(Extinction)" class="svgRegion">
    <g filter="url(#blur)">
<rect x="483" y="581" width="45" height="42" />
    </g>
    <text x="512" y="60">Camp Omega</text>
</a>
<a href="/Sanctuary_Park_(Extinction)" class="svgRegion">
    <g filter="url(#blur)">
<rect x="413" y="483" width="45" height="64" />
<rect x="414" y="493" width="46" height="59" />
    </g>
    <text x="512" y="60">Sanctuary Park</text>
</a>
<a href="/Obelisk_Park_(Extinction)" class="svgRegion">
    <g filter="url(#blur)">
<rect x="243" y="476" width="76" height="87" />
    </g>
    <text x="512" y="60">Obelisk Park</text>
</a>
<a href="/Sanctuary_Parkway_(Extinction)" class="svgRegion">
    <g filter="url(#blur)">
<rect x="319" y="510" width="91" height="22" />
<rect x="413" y="388" width="45" height="94" />
<rect x="417" y="570" width="40" height="88" />
    </g>
    <text x="512" y="60">Sanctuary Parkway</text>
</a>
<a href="/Memorial_(Extinction)" class="svgRegion">
    <g filter="url(#blur)">
<rect x="651" y="512" width="40" height="28" />
    </g>
    <text x="512" y="60">Memorial</text>
</a>
<a href="/Memorial_Waterfront_(Extinction)" class="svgRegion">
    <g filter="url(#blur)">
<rect x="609" y="500" width="15" height="20" />
    </g>
    <text x="512" y="60">Memorial Waterfront</text>
</a>
<a href="/Diana_Memorial_Fountain_(Extinction)" class="svgRegion">
    <g filter="url(#blur)">
<rect x="378" y="435" width="14" height="15" />
    </g>
    <text x="512" y="60">Diana Memorial Fountain</text>
</a>
<a href="/The_Trench_(Extinction)" class="svgRegion">
    <g filter="url(#blur)">
<rect x="309" y="528" width="39" height="49" />
<rect x="320" y="529" width="48" height="30" />
<rect x="351" y="529" width="45" height="19" />
<rect x="379" y="532" width="45" height="19" />
<rect x="390" y="541" width="45" height="45" />
<rect x="430" y="554" width="49" height="30" />
<rect x="470" y="542" width="49" height="30" />
<rect x="512" y="529" width="48" height="30" />
<rect x="549" y="528" width="45" height="19" />
<rect x="613" y="550" width="48" height="30" />
<rect x="639" y="515" width="159" height="92" />
<rect x="653" y="517" width="152" height="63" />
<rect x="406" y="556" width="45" height="44" />
<rect x="584" y="526" width="41" height="51" />
<rect x="783" y="489" width="84" height="83" />
    </g>
    <text x="512" y="60">The Trench</text>
</a>
<a href="/Sanctuary_Obelisk_(Extinction)" class="svgRegion">
    <g filter="url(#blur)">
<rect x="263" y="511" width="14" height="15" />
    </g>
    <text x="512" y="60">Sanctuary Obelisk</text>
</a>
<a href="/Memorial_Park_(Extinction)" class="svgRegion">
    <g filter="url(#blur)">
<rect x="640" y="483" width="80" height="61" />
    </g>
    <text x="512" y="60">Memorial Park</text>
</a>
</svg>