<?xml version="1.0" encoding="utf-8"?>
<svg xmlns="http://www.w3.org/2000/svg" width="300" height="300" viewBox="0 0 300 300" class="creatureMap" style="position:absolute;">
    <defs>
        <filter id="blur" x="-30%" y="-30%" width="160%" height="160%">
            <feGaussianBlur stdDeviation="3" />
        </filter>
        <pattern id="pattern-untameable" width="10" height="10" patternTransform="rotate(135)" patternUnits="userSpaceOnUse">'
            <rect width="4" height="10" fill="black"></rect>
        </pattern>
        <filter id="groupStroke">
            <feFlood result="outsideColor" flood-color="black"/>
            <feMorphology in="SourceAlpha" operator="dilate" radius="2"/>
            <feComposite result="strokeoutline1" in="outsideColor" operator="in"/>
            <feComposite result="strokeoutline2" in="strokeoutline1" in2="SourceAlpha" operator="out"/>
            <feGaussianBlur in="strokeoutline2" result="strokeblur" stdDeviation="1"/>
        </filter>
        <style>
            .spawningMap-very-common { fill: #0F0; }
            .spawningMap-common { fill: #B2FF00; }
            .spawningMap-uncommon { fill: #FF0; }
            .spawningMap-very-uncommon { fill: #FC0; }
            .spawningMap-rare { fill: #F60; }
            .spawningMap-very-rare { fill: #F00; }
            .spawning-map-point { stroke:black; stroke-width:1; }
        </style>
    </defs>

<g filter="url(#blur)" opacity="0.7">
<g class="spawningMap-very-rare">
<rect x="51" y="268" width="14" height="12" />
<rect x="100" y="229" width="17" height="15" />
<rect x="200" y="201" width="20" height="21" />
<rect x="113" y="220" width="15" height="15" />
<rect x="211" y="250" width="20" height="21" />
<rect x="211" y="233" width="20" height="21" />
<rect x="200" y="217" width="20" height="21" />
<rect x="56" y="49" width="20" height="13" />
<rect x="50" y="56" width="16" height="15" />
<rect x="124" y="220" width="15" height="15" />
<rect x="100" y="220" width="17" height="15" />
</g>
<g class="spawningMap-very-uncommon">
<rect x="0" y="26" width="6" height="21" />
<rect x="0" y="42" width="6" height="21" />
<rect x="0" y="59" width="6" height="20" />
<rect x="0" y="75" width="6" height="21" />
<rect x="0" y="91" width="6" height="21" />
<rect x="0" y="107" width="6" height="21" />
<rect x="0" y="124" width="6" height="21" />
<rect x="0" y="189" width="6" height="21" />
<rect x="0" y="140" width="6" height="21" />
<rect x="0" y="157" width="6" height="20" />
<rect x="0" y="173" width="6" height="21" />
<rect x="0" y="10" width="6" height="20" />
<rect x="0" y="0" width="6" height="14" />
</g>
</g>
</svg>