<?xml version="1.0" encoding="utf-8"?>
<svg xmlns="http://www.w3.org/2000/svg" width="300" height="300" viewBox="0 0 300 300" class="creatureMap" style="position:absolute;">
    <defs>
        <filter id="blur" x="-30%" y="-30%" width="160%" height="160%">
            <feGaussianBlur stdDeviation="3" />
        </filter>
        <pattern id="pattern-untameable" width="10" height="10" patternTransform="rotate(135)" patternUnits="userSpaceOnUse">'
            <rect width="4" height="10" fill="black"></rect>
        </pattern>
        <filter id="groupStroke">
            <feFlood result="outsideColor" flood-color="black"/>
            <feMorphology in="SourceAlpha" operator="dilate" radius="2"/>
            <feComposite result="strokeoutline1" in="outsideColor" operator="in"/>
            <feComposite result="strokeoutline2" in="strokeoutline1" in2="SourceAlpha" operator="out"/>
            <feGaussianBlur in="strokeoutline2" result="strokeblur" stdDeviation="1"/>
        </filter>
        <style>
            .spawningMap-very-common { fill: #0F0; }
            .spawningMap-common { fill: #B2FF00; }
            .spawningMap-uncommon { fill: #FF0; }
            .spawningMap-very-uncommon { fill: #FC0; }
            .spawningMap-rare { fill: #F60; }
            .spawningMap-very-rare { fill: #F00; }
            .spawning-map-point { stroke:black; stroke-width:1; }
        </style>
    </defs>

<g filter="url(#blur)" opacity="0.7">
<g class="spawningMap-very-rare">
<rect x="98" y="41" width="15" height="13" />
<rect x="149" y="180" width="13" height="21" />
<rect x="153" y="59" width="16" height="15" />
<rect x="127" y="80" width="13" height="16" />
<rect x="37" y="73" width="16" height="13" />
<rect x="103" y="147" width="14" height="23" />
<rect x="89" y="167" width="21" height="14" />
<rect x="62" y="215" width="16" height="19" />
<rect x="73" y="215" width="16" height="19" />
<rect x="89" y="188" width="26" height="11" />
<rect x="77" y="178" width="14" height="15" />
<rect x="135" y="218" width="16" height="16" />
<rect x="146" y="207" width="16" height="16" />
<rect x="160" y="30" width="16" height="23" />
<rect x="153" y="69" width="16" height="16" />
<rect x="135" y="74" width="17" height="21" />
<rect x="131" y="37" width="16" height="23" />
<rect x="103" y="129" width="14" height="22" />
<rect x="94" y="129" width="13" height="22" />
<rect x="94" y="147" width="13" height="23" />
<rect x="160" y="49" width="16" height="15" />
<rect x="62" y="204" width="16" height="16" />
<rect x="73" y="204" width="16" height="16" />
<rect x="77" y="193" width="16" height="16" />
<rect x="89" y="193" width="16" height="16" />
<rect x="100" y="193" width="16" height="16" />
<rect x="135" y="196" width="16" height="16" />
<rect x="135" y="207" width="16" height="16" />
<rect x="146" y="196" width="16" height="16" />
<rect x="120" y="37" width="16" height="23" />
<rect x="149" y="163" width="13" height="22" />
</g>
<g class="spawningMap-rare">
<rect x="91" y="97" width="13" height="13" />
<rect x="48" y="76" width="17" height="11" />
<rect x="99" y="89" width="13" height="13" />
<rect x="83" y="97" width="13" height="13" />
<rect x="72" y="54" width="16" height="11" />
<rect x="108" y="38" width="17" height="11" />
<rect x="108" y="54" width="17" height="11" />
<rect x="107" y="89" width="13" height="13" />
<rect x="108" y="49" width="17" height="11" />
<rect x="98" y="49" width="15" height="11" />
<rect x="108" y="43" width="17" height="11" />
<rect x="108" y="32" width="17" height="11" />
<rect x="99" y="81" width="13" height="13" />
<rect x="97" y="54" width="16" height="11" />
<rect x="48" y="70" width="17" height="11" />
<rect x="72" y="60" width="16" height="11" />
<rect x="83" y="73" width="13" height="14" />
<rect x="91" y="73" width="13" height="14" />
<rect x="99" y="73" width="13" height="14" />
<rect x="107" y="73" width="13" height="14" />
<rect x="107" y="81" width="13" height="13" />
<rect x="91" y="81" width="13" height="13" />
<rect x="83" y="81" width="13" height="13" />
<rect x="83" y="89" width="13" height="13" />
<rect x="91" y="89" width="13" height="13" />
</g>
</g>
</svg>