<?xml version="1.0" encoding="utf-8"?>
<svg xmlns="http://www.w3.org/2000/svg" width="300" height="300"
        viewBox="0 0 300 300" class="creatureMap" style="position:absolute;">
    <defs>
        <filter id="blur" x="-30%" y="-30%" width="160%" height="160%">
            <feGaussianBlur stdDeviation="3" />
        </filter>
        <pattern id="pattern-untameable" width="10" height="10" patternTransform="rotate(135)" patternUnits="userSpaceOnUse">
            <rect width="4" height="10" fill="black"></rect>
        </pattern>
        <filter id="groupStroke">
            <feFlood result="outsideColor" flood-color="black"/>
            <feMorphology in="SourceAlpha" operator="dilate" radius="2"/>
            <feComposite result="strokeoutline1" in="outsideColor" operator="in"/>
            <feComposite result="strokeoutline2" in="strokeoutline1" in2="SourceAlpha" operator="out"/>
            <feGaussianBlur in="strokeoutline2" result="strokeblur" stdDeviation="1"/>
        </filter>
        <style>
            .spawningMap-very-common { fill: #0F0; }
            .spawningMap-common { fill: #B2FF00; }
            .spawningMap-uncommon { fill: #FF0; }
            .spawningMap-very-uncommon { fill: #FC0; }
            .spawningMap-rare { fill: #F60; }
            .spawningMap-very-rare { fill: #F00; }
            .spawning-map-point { stroke:black; stroke-width:1; }
        </style>
    </defs>

<g filter="url(#blur)" opacity="0.7">
<g class="spawningMap-very-rare">
<rect x="200" y="201" width="20" height="21" />
<rect x="211" y="250" width="20" height="21" />
<rect x="211" y="233" width="20" height="21" />
<rect x="200" y="217" width="20" height="21" />
</g>
<g class="spawningMap-rare">
<rect x="30" y="226" width="13" height="17" />
<rect x="69" y="254" width="13" height="13" />
<rect x="216" y="253" width="13" height="13" />
<rect x="164" y="179" width="13" height="13" />
<rect x="177" y="158" width="13" height="13" />
<rect x="177" y="150" width="13" height="13" />
<rect x="200" y="158" width="13" height="13" />
<rect x="153" y="261" width="13" height="13" />
<rect x="51" y="268" width="14" height="12" />
<rect x="200" y="190" width="13" height="13" />
<rect x="200" y="198" width="13" height="13" />
<rect x="200" y="205" width="13" height="14" />
<rect x="192" y="221" width="13" height="14" />
<rect x="100" y="229" width="17" height="15" />
<rect x="146" y="269" width="13" height="13" />
<rect x="153" y="269" width="13" height="13" />
<rect x="224" y="253" width="13" height="13" />
<rect x="113" y="220" width="15" height="15" />
<rect x="56" y="49" width="20" height="13" />
<rect x="50" y="56" width="16" height="15" />
<rect x="124" y="220" width="15" height="15" />
<rect x="100" y="220" width="17" height="15" />
<rect x="164" y="163" width="13" height="13" />
<rect x="38" y="246" width="13" height="13" />
<rect x="30" y="238" width="13" height="13" />
<rect x="38" y="238" width="13" height="13" />
<rect x="208" y="182" width="13" height="13" />
<rect x="208" y="190" width="13" height="13" />
<rect x="208" y="198" width="13" height="13" />
<rect x="38" y="226" width="13" height="17" />
<rect x="208" y="205" width="13" height="14" />
<rect x="208" y="213" width="13" height="14" />
<rect x="200" y="213" width="13" height="14" />
<rect x="192" y="213" width="13" height="14" />
<rect x="208" y="221" width="13" height="14" />
<rect x="200" y="221" width="13" height="14" />
<rect x="208" y="229" width="13" height="13" />
<rect x="200" y="229" width="13" height="13" />
<rect x="30" y="246" width="13" height="13" />
<rect x="216" y="237" width="13" height="13" />
<rect x="208" y="237" width="13" height="13" />
<rect x="224" y="245" width="13" height="13" />
<rect x="216" y="245" width="13" height="13" />
<rect x="38" y="254" width="13" height="13" />
<rect x="46" y="249" width="13" height="18" />
<rect x="164" y="147" width="13" height="13" />
<rect x="169" y="245" width="13" height="13" />
<rect x="54" y="249" width="13" height="18" />
<rect x="169" y="237" width="13" height="13" />
<rect x="169" y="229" width="13" height="13" />
<rect x="169" y="221" width="13" height="13" />
<rect x="177" y="221" width="13" height="13" />
<rect x="177" y="213" width="13" height="14" />
<rect x="185" y="213" width="13" height="14" />
<rect x="185" y="205" width="13" height="14" />
<rect x="185" y="198" width="13" height="13" />
<rect x="177" y="205" width="13" height="14" />
<rect x="62" y="249" width="13" height="18" />
<rect x="177" y="198" width="13" height="13" />
<rect x="177" y="190" width="13" height="13" />
<rect x="177" y="182" width="13" height="13" />
<rect x="177" y="174" width="13" height="13" />
<rect x="177" y="166" width="13" height="13" />
<rect x="200" y="182" width="13" height="13" />
<rect x="200" y="174" width="13" height="13" />
<rect x="200" y="166" width="13" height="13" />
<rect x="169" y="253" width="13" height="13" />
<rect x="146" y="253" width="13" height="13" />
<rect x="146" y="261" width="13" height="13" />
</g>
<g class="spawningMap-very-uncommon">
<rect x="146" y="276" width="13" height="10" />
<rect x="153" y="276" width="13" height="10" />
</g>
</g>
</svg>