<?xml version="1.0" encoding="utf-8"?>
<svg xmlns="http://www.w3.org/2000/svg" width="300" height="300"
        viewBox="0 0 300 300" class="creatureMap" style="position:absolute;">
    <defs>
        <filter id="blur" x="-30%" y="-30%" width="160%" height="160%">
            <feGaussianBlur stdDeviation="3" />
        </filter>
        <pattern id="pattern-untameable" width="10" height="10" patternTransform="rotate(135)" patternUnits="userSpaceOnUse">
            <rect width="4" height="10" fill="black"></rect>
        </pattern>
        <filter id="groupStroke">
            <feFlood result="outsideColor" flood-color="black"/>
            <feMorphology in="SourceAlpha" operator="dilate" radius="2"/>
            <feComposite result="strokeoutline1" in="outsideColor" operator="in"/>
            <feComposite result="strokeoutline2" in="strokeoutline1" in2="SourceAlpha" operator="out"/>
            <feGaussianBlur in="strokeoutline2" result="strokeblur" stdDeviation="1"/>
        </filter>
        <style>
            .spawningMap-very-common { fill: #0F0; }
            .spawningMap-common { fill: #B2FF00; }
            .spawningMap-uncommon { fill: #FF0; }
            .spawningMap-very-uncommon { fill: #FC0; }
            .spawningMap-rare { fill: #F60; }
            .spawningMap-very-rare { fill: #F00; }
            .spawning-map-point { stroke:black; stroke-width:1; }
        </style>
    </defs>

<g filter="url(#blur)" opacity="0.7">
<g class="spawningMap-uncommon">
<rect x="176" y="222" width="23" height="19" />
<rect x="176" y="208" width="23" height="20" />
<rect x="176" y="222" width="23" height="19" />
<rect x="176" y="208" width="23" height="20" />
</g>
<g class="spawningMap-common">
<rect x="150" y="262" width="14" height="15" />
<rect x="158" y="265" width="13" height="14" />
<rect x="131" y="107" width="13" height="14" />
<rect x="76" y="64" width="13" height="13" />
<rect x="70" y="62" width="12" height="14" />
<rect x="70" y="62" width="12" height="14" />
<rect x="131" y="107" width="13" height="14" />
<rect x="76" y="64" width="13" height="13" />
<rect x="158" y="265" width="13" height="14" />
<rect x="150" y="262" width="14" height="15" />
</g>
<g class="spawningMap-very-common">
<rect x="59" y="76" width="10" height="7" />
<rect x="65" y="72" width="9" height="10" />
<rect x="57" y="74" width="7" height="9" />
<rect x="66" y="66" width="12" height="10" />
<rect x="113" y="185" width="9" height="10" />
<rect x="110" y="185" width="9" height="10" />
<rect x="111" y="190" width="9" height="8" />
<rect x="57" y="74" width="7" height="9" />
<rect x="59" y="76" width="10" height="7" />
<rect x="65" y="72" width="9" height="10" />
<rect x="66" y="66" width="12" height="10" />
<rect x="111" y="190" width="9" height="8" />
<rect x="113" y="185" width="9" height="10" />
<rect x="110" y="185" width="9" height="10" />
</g>
</g>
<g fill="url(#pattern-untameable)" opacity="0.3">
<rect x="176" y="222" width="23" height="19"/>
<rect x="176" y="208" width="23" height="20"/>
<rect x="176" y="222" width="23" height="19"/>
<rect x="176" y="208" width="23" height="20"/>
<rect x="150" y="262" width="14" height="15"/>
<rect x="158" y="265" width="13" height="14"/>
<rect x="131" y="107" width="13" height="14"/>
<rect x="76" y="64" width="13" height="13"/>
<rect x="70" y="62" width="12" height="14"/>
<rect x="70" y="62" width="12" height="14"/>
<rect x="131" y="107" width="13" height="14"/>
<rect x="76" y="64" width="13" height="13"/>
<rect x="158" y="265" width="13" height="14"/>
<rect x="150" y="262" width="14" height="15"/>
<rect x="59" y="76" width="10" height="7"/>
<rect x="65" y="72" width="9" height="10"/>
<rect x="57" y="74" width="7" height="9"/>
<rect x="66" y="66" width="12" height="10"/>
<rect x="113" y="185" width="9" height="10"/>
<rect x="110" y="185" width="9" height="10"/>
<rect x="111" y="190" width="9" height="8"/>
<rect x="57" y="74" width="7" height="9"/>
<rect x="59" y="76" width="10" height="7"/>
<rect x="65" y="72" width="9" height="10"/>
<rect x="66" y="66" width="12" height="10"/>
<rect x="111" y="190" width="9" height="8"/>
<rect x="113" y="185" width="9" height="10"/>
<rect x="110" y="185" width="9" height="10"/>
</g>
<g filter="url(#groupStroke)" opacity="0.8">
<rect x="176" y="222" width="23" height="19"/>
<rect x="176" y="208" width="23" height="20"/>
<rect x="176" y="222" width="23" height="19"/>
<rect x="176" y="208" width="23" height="20"/>
<rect x="150" y="262" width="14" height="15"/>
<rect x="158" y="265" width="13" height="14"/>
<rect x="131" y="107" width="13" height="14"/>
<rect x="76" y="64" width="13" height="13"/>
<rect x="70" y="62" width="12" height="14"/>
<rect x="70" y="62" width="12" height="14"/>
<rect x="131" y="107" width="13" height="14"/>
<rect x="76" y="64" width="13" height="13"/>
<rect x="158" y="265" width="13" height="14"/>
<rect x="150" y="262" width="14" height="15"/>
<rect x="59" y="76" width="10" height="7"/>
<rect x="65" y="72" width="9" height="10"/>
<rect x="57" y="74" width="7" height="9"/>
<rect x="66" y="66" width="12" height="10"/>
<rect x="113" y="185" width="9" height="10"/>
<rect x="110" y="185" width="9" height="10"/>
<rect x="111" y="190" width="9" height="8"/>
<rect x="57" y="74" width="7" height="9"/>
<rect x="59" y="76" width="10" height="7"/>
<rect x="65" y="72" width="9" height="10"/>
<rect x="66" y="66" width="12" height="10"/>
<rect x="111" y="190" width="9" height="8"/>
<rect x="113" y="185" width="9" height="10"/>
<rect x="110" y="185" width="9" height="10"/>
</g>
</svg>