<?xml version="1.0" encoding="utf-8"?>
<svg xmlns="http://www.w3.org/2000/svg" width="300" height="300"
        viewBox="0 0 300 300" class="creatureMap" style="position:absolute;">
    <defs>
        <filter id="blur" x="-30%" y="-30%" width="160%" height="160%">
            <feGaussianBlur stdDeviation="3" />
        </filter>
        <pattern id="pattern-untameable" width="10" height="10" patternTransform="rotate(135)" patternUnits="userSpaceOnUse">
            <rect width="4" height="10" fill="black"></rect>
        </pattern>
        <filter id="groupStroke">
            <feFlood result="outsideColor" flood-color="black"/>
            <feMorphology in="SourceAlpha" operator="dilate" radius="2"/>
            <feComposite result="strokeoutline1" in="outsideColor" operator="in"/>
            <feComposite result="strokeoutline2" in="strokeoutline1" in2="SourceAlpha" operator="out"/>
            <feGaussianBlur in="strokeoutline2" result="strokeblur" stdDeviation="1"/>
        </filter>
        <style>
            .spawningMap-very-common { fill: #0F0; }
            .spawningMap-common { fill: #B2FF00; }
            .spawningMap-uncommon { fill: #FF0; }
            .spawningMap-very-uncommon { fill: #FC0; }
            .spawningMap-rare { fill: #F60; }
            .spawningMap-very-rare { fill: #F00; }
            .spawning-map-point { stroke:black; stroke-width:1; }
        </style>
    </defs>

<g filter="url(#blur)" opacity="0.7">
<g class="spawningMap-very-uncommon">
<rect x="104" y="159" width="20" height="19" />
</g>
<g class="spawningMap-uncommon">
<rect x="120" y="56" width="12" height="13" />
<rect x="245" y="67" width="12" height="13" />
<rect x="253" y="67" width="13" height="13" />
<rect x="253" y="59" width="13" height="12" />
<rect x="240" y="110" width="13" height="13" />
<rect x="240" y="102" width="13" height="12" />
<rect x="213" y="140" width="13" height="12" />
<rect x="196" y="140" width="12" height="13" />
<rect x="213" y="131" width="13" height="13" />
<rect x="205" y="140" width="12" height="12" />
<rect x="205" y="131" width="12" height="13" />
<rect x="103" y="82" width="13" height="12" />
<rect x="103" y="73" width="13" height="13" />
<rect x="125" y="99" width="13" height="13" />
<rect x="125" y="90" width="13" height="13" />
<rect x="134" y="99" width="12" height="13" />
<rect x="134" y="90" width="12" height="13" />
<rect x="143" y="99" width="12" height="13" />
<rect x="143" y="90" width="12" height="13" />
<rect x="151" y="99" width="12" height="13" />
<rect x="151" y="90" width="12" height="13" />
<rect x="138" y="71" width="12" height="13" />
<rect x="138" y="63" width="12" height="12" />
<rect x="112" y="65" width="12" height="12" />
<rect x="120" y="65" width="13" height="12" />
<rect x="111" y="251" width="13" height="12" />
<rect x="120" y="251" width="12" height="12" />
<rect x="111" y="259" width="13" height="13" />
<rect x="120" y="259" width="12" height="13" />
<rect x="103" y="259" width="12" height="13" />
<rect x="94" y="251" width="13" height="12" />
<rect x="94" y="259" width="13" height="13" />
<rect x="94" y="268" width="13" height="12" />
<rect x="196" y="149" width="12" height="12" />
<rect x="213" y="123" width="13" height="12" />
<rect x="213" y="114" width="13" height="13" />
<rect x="205" y="114" width="12" height="13" />
<rect x="112" y="73" width="12" height="13" />
<rect x="249" y="76" width="12" height="12" />
<rect x="120" y="73" width="13" height="13" />
<rect x="129" y="71" width="12" height="13" />
<rect x="129" y="63" width="12" height="12" />
<rect x="146" y="69" width="13" height="12" />
<rect x="146" y="60" width="13" height="12" />
<rect x="111" y="56" width="13" height="13" />
<rect x="245" y="59" width="12" height="12" />
<rect x="103" y="251" width="12" height="12" />
<rect x="111" y="268" width="13" height="12" />
<rect x="120" y="268" width="12" height="12" />
<rect x="103" y="268" width="12" height="12" />
<rect x="85" y="242" width="13" height="12" />
<rect x="85" y="251" width="13" height="12" />
<rect x="85" y="259" width="13" height="13" />
<rect x="236" y="59" width="12" height="12" />
</g>
<g class="spawningMap-common">
<rect x="129" y="185" width="12" height="12" />
<rect x="154" y="199" width="13" height="13" />
<rect x="129" y="202" width="12" height="13" />
<rect x="146" y="208" width="12" height="12" />
<rect x="146" y="199" width="12" height="13" />
<rect x="146" y="191" width="12" height="12" />
<rect x="112" y="182" width="12" height="13" />
<rect x="156" y="114" width="13" height="13" />
<rect x="82" y="161" width="12" height="13" />
<rect x="137" y="191" width="13" height="12" />
<rect x="91" y="161" width="12" height="13" />
<rect x="156" y="106" width="13" height="12" />
<rect x="165" y="103" width="12" height="13" />
<rect x="173" y="103" width="13" height="13" />
<rect x="129" y="193" width="12" height="13" />
<rect x="137" y="208" width="13" height="12" />
<rect x="177" y="79" width="12" height="12" />
<rect x="93" y="170" width="12" height="12" />
<rect x="148" y="110" width="12" height="13" />
<rect x="150" y="151" width="13" height="12" />
<rect x="159" y="148" width="12" height="13" />
<rect x="167" y="148" width="13" height="13" />
<rect x="150" y="159" width="13" height="13" />
<rect x="84" y="170" width="13" height="12" />
<rect x="159" y="171" width="12" height="12" />
<rect x="167" y="174" width="13" height="13" />
<rect x="177" y="87" width="12" height="13" />
<rect x="173" y="183" width="12" height="12" />
<rect x="181" y="183" width="13" height="12" />
<rect x="187" y="174" width="12" height="13" />
<rect x="195" y="174" width="13" height="13" />
<rect x="167" y="140" width="13" height="12" />
<rect x="167" y="131" width="13" height="12" />
<rect x="167" y="122" width="13" height="13" />
<rect x="176" y="125" width="12" height="13" />
<rect x="185" y="125" width="12" height="13" />
<rect x="189" y="117" width="13" height="12" />
<rect x="103" y="182" width="12" height="12" />
<rect x="120" y="185" width="13" height="12" />
<rect x="142" y="125" width="13" height="12" />
<rect x="142" y="133" width="13" height="13" />
<rect x="137" y="142" width="12" height="12" />
<rect x="128" y="142" width="13" height="12" />
<rect x="114" y="132" width="12" height="13" />
<rect x="105" y="132" width="13" height="13" />
<rect x="105" y="124" width="13" height="12" />
<rect x="61" y="127" width="12" height="13" />
<rect x="69" y="127" width="13" height="13" />
<rect x="68" y="136" width="13" height="12" />
<rect x="73" y="144" width="13" height="13" />
<rect x="79" y="153" width="12" height="12" />
<rect x="137" y="199" width="13" height="13" />
<rect x="154" y="208" width="13" height="12" />
<rect x="154" y="216" width="13" height="13" />
<rect x="154" y="233" width="13" height="13" />
<rect x="154" y="242" width="13" height="12" />
<rect x="163" y="233" width="12" height="13" />
<rect x="163" y="242" width="12" height="12" />
<rect x="204" y="174" width="12" height="13" />
<rect x="150" y="168" width="13" height="12" />
<rect x="142" y="153" width="12" height="12" />
<rect x="189" y="100" width="13" height="12" />
<rect x="142" y="162" width="12" height="12" />
<rect x="189" y="108" width="13" height="13" />
<rect x="154" y="191" width="13" height="12" />
<rect x="146" y="216" width="12" height="13" />
<rect x="163" y="216" width="12" height="13" />
<rect x="154" y="225" width="13" height="12" />
</g>
</g>
</svg>