<?xml version="1.0" encoding="utf-8"?>
<svg xmlns="http://www.w3.org/2000/svg" width="300" height="300"
        viewBox="0 0 300 300" class="creatureMap" style="position:absolute;">
    <defs>
        <filter id="blur" x="-30%" y="-30%" width="160%" height="160%">
            <feGaussianBlur stdDeviation="3" />
        </filter>
        <pattern id="pattern-untameable" width="10" height="10" patternTransform="rotate(135)" patternUnits="userSpaceOnUse">
            <rect width="4" height="10" fill="black"></rect>
        </pattern>
        <filter id="groupStroke">
            <feFlood result="outsideColor" flood-color="black"/>
            <feMorphology in="SourceAlpha" operator="dilate" radius="2"/>
            <feComposite result="strokeoutline1" in="outsideColor" operator="in"/>
            <feComposite result="strokeoutline2" in="strokeoutline1" in2="SourceAlpha" operator="out"/>
            <feGaussianBlur in="strokeoutline2" result="strokeblur" stdDeviation="1"/>
        </filter>
        <style>
            .spawningMap-very-common { fill: #0F0; }
            .spawningMap-common { fill: #B2FF00; }
            .spawningMap-uncommon { fill: #FF0; }
            .spawningMap-very-uncommon { fill: #FC0; }
            .spawningMap-rare { fill: #F60; }
            .spawningMap-very-rare { fill: #F00; }
            .spawning-map-point { stroke:black; stroke-width:1; }
        </style>
    </defs>

<g filter="url(#blur)" opacity="0.7">
<g class="spawningMap-very-rare">
<rect x="285" y="34" width="15" height="14" />
<rect x="115" y="49" width="15" height="14" />
<rect x="228" y="195" width="15" height="14" />
<rect x="247" y="195" width="15" height="14" />
<rect x="238" y="195" width="14" height="14" />
<rect x="256" y="195" width="15" height="14" />
<rect x="256" y="227" width="15" height="13" />
<rect x="275" y="218" width="15" height="14" />
<rect x="275" y="48" width="15" height="13" />
<rect x="275" y="34" width="15" height="14" />
<rect x="285" y="57" width="15" height="14" />
<rect x="285" y="48" width="15" height="13" />
<rect x="246" y="58" width="14" height="14" />
<rect x="266" y="209" width="14" height="13" />
<rect x="209" y="179" width="14" height="14" />
<rect x="227" y="179" width="15" height="14" />
<rect x="218" y="179" width="14" height="14" />
<rect x="173" y="218" width="14" height="14" />
<rect x="247" y="209" width="15" height="13" />
<rect x="256" y="209" width="15" height="13" />
<rect x="210" y="209" width="14" height="13" />
<rect x="266" y="195" width="14" height="14" />
<rect x="228" y="218" width="15" height="14" />
<rect x="247" y="218" width="15" height="14" />
<rect x="238" y="218" width="14" height="14" />
<rect x="256" y="218" width="15" height="14" />
<rect x="247" y="227" width="15" height="13" />
<rect x="247" y="235" width="15" height="14" />
<rect x="275" y="218" width="15" height="14" />
<rect x="275" y="209" width="15" height="13" />
<rect x="275" y="195" width="15" height="14" />
<rect x="285" y="218" width="15" height="14" />
<rect x="285" y="209" width="15" height="13" />
<rect x="285" y="195" width="15" height="14" />
<rect x="275" y="218" width="15" height="14" />
<rect x="275" y="177" width="15" height="13" />
<rect x="275" y="163" width="15" height="14" />
<rect x="285" y="186" width="15" height="14" />
<rect x="285" y="177" width="15" height="13" />
<rect x="285" y="163" width="15" height="14" />
<rect x="275" y="218" width="15" height="14" />
<rect x="275" y="145" width="15" height="13" />
<rect x="275" y="131" width="15" height="14" />
<rect x="285" y="154" width="15" height="14" />
<rect x="285" y="145" width="15" height="13" />
<rect x="285" y="131" width="15" height="14" />
<rect x="275" y="218" width="15" height="14" />
<rect x="275" y="113" width="15" height="13" />
<rect x="275" y="99" width="15" height="14" />
<rect x="285" y="122" width="15" height="14" />
<rect x="285" y="113" width="15" height="13" />
<rect x="285" y="99" width="15" height="14" />
<rect x="275" y="218" width="15" height="14" />
<rect x="275" y="80" width="15" height="14" />
<rect x="275" y="66" width="15" height="14" />
<rect x="285" y="89" width="15" height="14" />
<rect x="285" y="80" width="15" height="14" />
<rect x="285" y="66" width="15" height="14" />
<rect x="266" y="218" width="14" height="14" />
</g>
<g class="spawningMap-rare">
<rect x="219" y="195" width="15" height="14" />
<rect x="219" y="209" width="15" height="13" />
</g>
</g>
</svg>