<?xml version="1.0" encoding="utf-8"?>
<svg xmlns="http://www.w3.org/2000/svg" width="300" height="300"
        viewBox="0 0 300 300" class="creatureMap" style="position:absolute;">
    <defs>
        <filter id="blur" x="-30%" y="-30%" width="160%" height="160%">
            <feGaussianBlur stdDeviation="3" />
        </filter>
        <pattern id="pattern-untameable" width="10" height="10" patternTransform="rotate(135)" patternUnits="userSpaceOnUse">
            <rect width="4" height="10" fill="black"></rect>
        </pattern>
        <filter id="groupStroke">
            <feFlood result="outsideColor" flood-color="black"/>
            <feMorphology in="SourceAlpha" operator="dilate" radius="2"/>
            <feComposite result="strokeoutline1" in="outsideColor" operator="in"/>
            <feComposite result="strokeoutline2" in="strokeoutline1" in2="SourceAlpha" operator="out"/>
            <feGaussianBlur in="strokeoutline2" result="strokeblur" stdDeviation="1"/>
        </filter>
        <style>
            .spawningMap-very-common { fill: #0F0; }
            .spawningMap-common { fill: #B2FF00; }
            .spawningMap-uncommon { fill: #FF0; }
            .spawningMap-very-uncommon { fill: #FC0; }
            .spawningMap-rare { fill: #F60; }
            .spawningMap-very-rare { fill: #F00; }
            .spawning-map-point { stroke:black; stroke-width:1; }
        </style>
    </defs>

<g filter="url(#blur)" opacity="0.7">
<g class="spawningMap-rare">
<rect x="199" y="136" width="15" height="14" />
<rect x="165" y="115" width="12" height="11" />
<rect x="165" y="107" width="11" height="10" />
<rect x="163" y="101" width="12" height="10" />
<rect x="159" y="97" width="11" height="11" />
<rect x="151" y="96" width="12" height="10" />
<rect x="143" y="97" width="12" height="10" />
<rect x="141" y="100" width="11" height="11" />
<rect x="138" y="107" width="12" height="11" />
<rect x="139" y="115" width="12" height="10" />
<rect x="140" y="122" width="12" height="10" />
<rect x="140" y="130" width="12" height="10" />
<rect x="147" y="136" width="12" height="10" />
<rect x="155" y="137" width="12" height="10" />
<rect x="163" y="134" width="11" height="11" />
<rect x="167" y="129" width="11" height="10" />
<rect x="166" y="121" width="12" height="11" />
<rect x="153" y="105" width="11" height="10" />
<rect x="153" y="101" width="14" height="14" />
<rect x="115" y="145" width="15" height="13" />
<rect x="115" y="75" width="15" height="14" />
<rect x="134" y="127" width="14" height="14" />
<rect x="134" y="119" width="14" height="13" />
<rect x="134" y="110" width="14" height="14" />
<rect x="134" y="101" width="14" height="14" />
<rect x="134" y="93" width="14" height="13" />
<rect x="134" y="84" width="14" height="14" />
<rect x="134" y="162" width="14" height="14" />
<rect x="134" y="171" width="14" height="13" />
<rect x="134" y="75" width="14" height="14" />
<rect x="134" y="67" width="14" height="13" />
<rect x="125" y="93" width="14" height="13" />
<rect x="125" y="84" width="14" height="14" />
<rect x="125" y="171" width="14" height="13" />
<rect x="125" y="75" width="14" height="14" />
<rect x="125" y="67" width="14" height="13" />
<rect x="106" y="26" width="15" height="14" />
<rect x="90" y="273" width="14" height="14" />
<rect x="199" y="136" width="15" height="14" />
<rect x="93" y="265" width="14" height="14" />
<rect x="209" y="127" width="14" height="14" />
<rect x="209" y="119" width="14" height="13" />
<rect x="209" y="110" width="14" height="14" />
<rect x="209" y="101" width="14" height="14" />
<rect x="209" y="93" width="14" height="13" />
<rect x="209" y="84" width="14" height="14" />
<rect x="199" y="101" width="15" height="14" />
<rect x="199" y="93" width="15" height="13" />
<rect x="199" y="84" width="15" height="14" />
<rect x="199" y="145" width="15" height="13" />
<rect x="199" y="162" width="15" height="14" />
<rect x="199" y="171" width="15" height="13" />
<rect x="199" y="75" width="15" height="14" />
<rect x="227" y="127" width="15" height="14" />
<rect x="227" y="101" width="15" height="14" />
<rect x="227" y="93" width="15" height="13" />
<rect x="227" y="162" width="15" height="14" />
<rect x="227" y="75" width="15" height="14" />
<rect x="218" y="136" width="14" height="14" />
<rect x="218" y="84" width="14" height="14" />
<rect x="218" y="145" width="14" height="13" />
<rect x="218" y="153" width="14" height="14" />
<rect x="218" y="75" width="14" height="14" />
<rect x="246" y="136" width="14" height="14" />
<rect x="246" y="93" width="14" height="13" />
<rect x="246" y="153" width="14" height="14" />
<rect x="246" y="75" width="14" height="14" />
<rect x="237" y="127" width="14" height="14" />
<rect x="237" y="101" width="14" height="14" />
<rect x="237" y="162" width="14" height="14" />
<rect x="237" y="75" width="14" height="14" />
<rect x="153" y="136" width="14" height="14" />
<rect x="143" y="127" width="15" height="14" />
<rect x="143" y="162" width="15" height="14" />
<rect x="171" y="127" width="15" height="14" />
<rect x="162" y="179" width="14" height="14" />
<rect x="162" y="75" width="14" height="14" />
<rect x="190" y="93" width="14" height="13" />
<rect x="190" y="84" width="14" height="14" />
<rect x="190" y="171" width="14" height="13" />
<rect x="190" y="75" width="14" height="14" />
<rect x="181" y="136" width="14" height="14" />
<rect x="181" y="127" width="14" height="14" />
<rect x="181" y="93" width="14" height="13" />
<rect x="181" y="171" width="14" height="13" />
<rect x="181" y="75" width="14" height="14" />
<rect x="181" y="67" width="14" height="13" />
<rect x="153" y="127" width="14" height="14" />
<rect x="125" y="162" width="14" height="14" />
<rect x="127" y="181" width="15" height="13" />
<rect x="104" y="179" width="14" height="13" />
<rect x="200" y="174" width="14" height="14" />
<rect x="199" y="153" width="15" height="14" />
<rect x="231" y="253" width="15" height="14" />
<rect x="231" y="244" width="15" height="14" />
<rect x="143" y="101" width="15" height="14" />
<rect x="143" y="119" width="15" height="13" />
<rect x="143" y="110" width="15" height="14" />
<rect x="143" y="93" width="15" height="13" />
<rect x="143" y="171" width="15" height="13" />
<rect x="153" y="179" width="14" height="14" />
<rect x="153" y="75" width="14" height="14" />
<rect x="153" y="93" width="14" height="13" />
<rect x="153" y="145" width="14" height="13" />
<rect x="190" y="127" width="14" height="14" />
<rect x="143" y="179" width="15" height="14" />
<rect x="143" y="75" width="15" height="14" />
<rect x="171" y="110" width="15" height="14" />
<rect x="171" y="101" width="15" height="14" />
<rect x="171" y="179" width="15" height="14" />
<rect x="171" y="75" width="15" height="14" />
<rect x="171" y="67" width="15" height="13" />
<rect x="162" y="136" width="14" height="14" />
<rect x="162" y="127" width="14" height="14" />
<rect x="162" y="101" width="14" height="14" />
<rect x="162" y="145" width="14" height="13" />
<rect x="190" y="101" width="14" height="14" />
</g>
<g class="spawningMap-very-uncommon">
<rect x="170" y="101" width="12" height="11" />
<rect x="185" y="227" width="14" height="14" />
<rect x="74" y="227" width="15" height="14" />
<rect x="46" y="253" width="15" height="14" />
<rect x="46" y="244" width="15" height="14" />
<rect x="176" y="270" width="14" height="14" />
<rect x="166" y="270" width="15" height="14" />
<rect x="102" y="270" width="14" height="14" />
<rect x="157" y="279" width="15" height="13" />
<rect x="148" y="279" width="15" height="13" />
<rect x="139" y="279" width="14" height="13" />
<rect x="130" y="279" width="14" height="14" />
<rect x="120" y="279" width="15" height="14" />
<rect x="111" y="279" width="15" height="14" />
<rect x="56" y="218" width="14" height="14" />
<rect x="46" y="218" width="15" height="14" />
<rect x="227" y="145" width="15" height="13" />
<rect x="153" y="119" width="14" height="13" />
<rect x="153" y="153" width="14" height="14" />
<rect x="241" y="263" width="14" height="14" />
<rect x="181" y="145" width="14" height="13" />
<rect x="190" y="145" width="14" height="13" />
<rect x="231" y="270" width="15" height="14" />
<rect x="222" y="253" width="14" height="14" />
<rect x="222" y="244" width="14" height="14" />
<rect x="222" y="270" width="14" height="14" />
<rect x="231" y="261" width="15" height="14" />
<rect x="222" y="261" width="14" height="14" />
<rect x="213" y="253" width="14" height="14" />
<rect x="213" y="244" width="14" height="14" />
<rect x="213" y="236" width="14" height="13" />
<rect x="213" y="261" width="14" height="14" />
<rect x="213" y="227" width="14" height="14" />
<rect x="203" y="253" width="15" height="14" />
<rect x="203" y="244" width="15" height="14" />
<rect x="203" y="236" width="15" height="13" />
<rect x="203" y="261" width="15" height="14" />
<rect x="203" y="227" width="15" height="14" />
<rect x="194" y="253" width="15" height="14" />
<rect x="194" y="244" width="15" height="14" />
<rect x="194" y="236" width="15" height="13" />
<rect x="194" y="261" width="15" height="14" />
<rect x="194" y="227" width="15" height="14" />
<rect x="185" y="253" width="14" height="14" />
<rect x="185" y="244" width="14" height="14" />
<rect x="185" y="236" width="14" height="13" />
<rect x="185" y="261" width="14" height="14" />
<rect x="176" y="253" width="14" height="14" />
<rect x="176" y="244" width="14" height="14" />
<rect x="176" y="236" width="14" height="13" />
<rect x="166" y="253" width="15" height="14" />
<rect x="166" y="244" width="15" height="14" />
<rect x="166" y="236" width="15" height="13" />
<rect x="157" y="253" width="15" height="14" />
<rect x="157" y="244" width="15" height="14" />
<rect x="157" y="236" width="15" height="13" />
<rect x="148" y="253" width="15" height="14" />
<rect x="148" y="244" width="15" height="14" />
<rect x="148" y="236" width="15" height="13" />
<rect x="148" y="227" width="15" height="14" />
<rect x="139" y="253" width="14" height="14" />
<rect x="139" y="244" width="14" height="14" />
<rect x="139" y="236" width="14" height="13" />
<rect x="139" y="227" width="14" height="14" />
<rect x="130" y="253" width="14" height="14" />
<rect x="130" y="244" width="14" height="14" />
<rect x="130" y="236" width="14" height="13" />
<rect x="130" y="227" width="14" height="14" />
<rect x="120" y="253" width="15" height="14" />
<rect x="120" y="244" width="15" height="14" />
<rect x="120" y="236" width="15" height="13" />
<rect x="120" y="227" width="15" height="14" />
<rect x="111" y="253" width="15" height="14" />
<rect x="111" y="244" width="15" height="14" />
<rect x="111" y="236" width="15" height="13" />
<rect x="111" y="227" width="15" height="14" />
<rect x="102" y="253" width="14" height="14" />
<rect x="102" y="244" width="14" height="14" />
<rect x="102" y="236" width="14" height="13" />
<rect x="102" y="227" width="14" height="14" />
<rect x="93" y="253" width="14" height="14" />
<rect x="93" y="236" width="14" height="13" />
<rect x="93" y="263" width="14" height="14" />
<rect x="93" y="227" width="14" height="14" />
<rect x="83" y="253" width="15" height="14" />
<rect x="83" y="244" width="15" height="14" />
<rect x="83" y="236" width="15" height="13" />
<rect x="83" y="227" width="15" height="14" />
<rect x="74" y="253" width="15" height="14" />
<rect x="74" y="244" width="15" height="14" />
<rect x="74" y="236" width="15" height="13" />
<rect x="65" y="253" width="14" height="14" />
<rect x="65" y="244" width="14" height="14" />
<rect x="65" y="236" width="14" height="13" />
<rect x="65" y="262" width="14" height="13" />
<rect x="56" y="253" width="14" height="14" />
<rect x="56" y="244" width="14" height="14" />
<rect x="56" y="262" width="14" height="13" />
<rect x="176" y="261" width="14" height="14" />
<rect x="166" y="261" width="15" height="14" />
<rect x="157" y="261" width="15" height="14" />
<rect x="148" y="261" width="15" height="14" />
<rect x="139" y="261" width="14" height="14" />
<rect x="130" y="261" width="14" height="14" />
<rect x="120" y="261" width="15" height="14" />
<rect x="111" y="261" width="15" height="14" />
<rect x="102" y="261" width="14" height="14" />
<rect x="157" y="270" width="15" height="14" />
<rect x="148" y="270" width="15" height="14" />
<rect x="139" y="270" width="14" height="14" />
<rect x="130" y="270" width="14" height="14" />
<rect x="120" y="270" width="15" height="14" />
<rect x="111" y="270" width="15" height="14" />
<rect x="56" y="236" width="14" height="13" />
<rect x="46" y="236" width="15" height="13" />
<rect x="56" y="227" width="14" height="14" />
<rect x="46" y="227" width="15" height="14" />
<rect x="213" y="270" width="14" height="14" />
<rect x="93" y="244" width="14" height="14" />
<rect x="171" y="145" width="15" height="13" />
<rect x="171" y="153" width="15" height="14" />
<rect x="162" y="119" width="14" height="13" />
<rect x="162" y="153" width="14" height="14" />
</g>
</g>
</svg>