<?xml version="1.0" encoding="utf-8"?>
<svg xmlns="http://www.w3.org/2000/svg" width="300" height="300"
        viewBox="0 0 300 300" class="creatureMap" style="position:absolute;">
    <defs>
        <filter id="blur" x="-30%" y="-30%" width="160%" height="160%">
            <feGaussianBlur stdDeviation="3" />
        </filter>
        <pattern id="pattern-untameable" width="10" height="10" patternTransform="rotate(135)" patternUnits="userSpaceOnUse">
            <rect width="4" height="10" fill="black"></rect>
        </pattern>
        <filter id="groupStroke">
            <feFlood result="outsideColor" flood-color="black"/>
            <feMorphology in="SourceAlpha" operator="dilate" radius="2"/>
            <feComposite result="strokeoutline1" in="outsideColor" operator="in"/>
            <feComposite result="strokeoutline2" in="strokeoutline1" in2="SourceAlpha" operator="out"/>
            <feGaussianBlur in="strokeoutline2" result="strokeblur" stdDeviation="1"/>
        </filter>
        <style>
            .spawningMap-very-common { fill: #0F0; }
            .spawningMap-common { fill: #B2FF00; }
            .spawningMap-uncommon { fill: #FF0; }
            .spawningMap-very-uncommon { fill: #FC0; }
            .spawningMap-rare { fill: #F60; }
            .spawningMap-very-rare { fill: #F00; }
            .spawning-map-point { stroke:black; stroke-width:1; }
        </style>
    </defs>

<g filter="url(#blur)" opacity="0.7">
<g class="spawningMap-rare">
<rect x="167" y="0" width="18" height="16" />
<rect x="180" y="0" width="18" height="16" />
<rect x="193" y="0" width="18" height="16" />
<rect x="206" y="0" width="18" height="16" />
<rect x="193" y="12" width="17" height="17" />
<rect x="283" y="254" width="17" height="17" />
<rect x="270" y="254" width="18" height="17" />
<rect x="257" y="254" width="18" height="17" />
<rect x="219" y="266" width="17" height="18" />
<rect x="219" y="279" width="17" height="18" />
<rect x="206" y="279" width="17" height="18" />
<rect x="0" y="50" width="16" height="17" />
<rect x="0" y="63" width="16" height="17" />
<rect x="50" y="0" width="18" height="16" />
<rect x="37" y="0" width="18" height="16" />
<rect x="0" y="279" width="16" height="17" />
<rect x="270" y="253" width="18" height="18" />
<rect x="245" y="253" width="17" height="18" />
<rect x="245" y="266" width="17" height="18" />
<rect x="232" y="279" width="17" height="18" />
<rect x="245" y="279" width="17" height="18" />
<rect x="257" y="279" width="18" height="18" />
<rect x="270" y="279" width="18" height="18" />
<rect x="270" y="266" width="18" height="18" />
<rect x="258" y="266" width="17" height="18" />
<rect x="12" y="12" width="17" height="17" />
<rect x="24" y="12" width="18" height="17" />
<rect x="37" y="12" width="18" height="17" />
<rect x="50" y="12" width="18" height="17" />
<rect x="63" y="12" width="18" height="17" />
<rect x="76" y="12" width="18" height="17" />
<rect x="89" y="12" width="18" height="17" />
<rect x="102" y="12" width="18" height="17" />
<rect x="244" y="12" width="18" height="17" />
<rect x="115" y="0" width="18" height="16" />
<rect x="128" y="0" width="18" height="16" />
<rect x="141" y="0" width="18" height="16" />
<rect x="154" y="0" width="18" height="16" />
<rect x="218" y="0" width="18" height="16" />
<rect x="231" y="0" width="18" height="16" />
<rect x="244" y="0" width="18" height="16" />
<rect x="257" y="0" width="18" height="16" />
<rect x="63" y="0" width="18" height="16" />
<rect x="76" y="0" width="18" height="16" />
<rect x="89" y="0" width="18" height="16" />
<rect x="102" y="0" width="18" height="16" />
<rect x="270" y="0" width="18" height="16" />
<rect x="283" y="0" width="17" height="16" />
<rect x="283" y="12" width="17" height="17" />
<rect x="154" y="279" width="18" height="18" />
<rect x="167" y="279" width="17" height="18" />
<rect x="180" y="279" width="17" height="18" />
<rect x="193" y="279" width="17" height="18" />
<rect x="232" y="266" width="17" height="18" />
<rect x="232" y="253" width="17" height="18" />
<rect x="102" y="279" width="18" height="18" />
<rect x="115" y="279" width="18" height="18" />
<rect x="128" y="279" width="18" height="18" />
<rect x="141" y="279" width="18" height="18" />
<rect x="76" y="279" width="18" height="17" />
<rect x="89" y="279" width="18" height="18" />
<rect x="0" y="227" width="16" height="18" />
<rect x="0" y="240" width="16" height="18" />
<rect x="0" y="253" width="16" height="18" />
<rect x="0" y="266" width="16" height="18" />
<rect x="0" y="176" width="16" height="18" />
<rect x="0" y="189" width="16" height="18" />
<rect x="0" y="202" width="16" height="18" />
<rect x="0" y="215" width="16" height="18" />
<rect x="0" y="126" width="16" height="18" />
<rect x="0" y="139" width="16" height="18" />
<rect x="0" y="152" width="16" height="18" />
<rect x="0" y="165" width="16" height="18" />
<rect x="0" y="75" width="16" height="17" />
<rect x="0" y="88" width="16" height="17" />
<rect x="0" y="101" width="16" height="17" />
<rect x="0" y="114" width="16" height="17" />
<rect x="25" y="0" width="17" height="16" />
<rect x="12" y="0" width="17" height="16" />
<rect x="24" y="279" width="18" height="17" />
<rect x="11" y="279" width="18" height="17" />
<rect x="0" y="24" width="16" height="17" />
<rect x="0" y="37" width="16" height="17" />
<rect x="0" y="0" width="16" height="16" />
<rect x="0" y="12" width="16" height="17" />
</g>
</g>
<g fill="url(#pattern-untameable)" opacity="0.3">
<rect x="167" y="0" width="18" height="16"/>
<rect x="180" y="0" width="18" height="16"/>
<rect x="193" y="0" width="18" height="16"/>
<rect x="206" y="0" width="18" height="16"/>
<rect x="193" y="12" width="17" height="17"/>
<rect x="283" y="254" width="17" height="17"/>
<rect x="270" y="254" width="18" height="17"/>
<rect x="257" y="254" width="18" height="17"/>
<rect x="219" y="266" width="17" height="18"/>
<rect x="219" y="279" width="17" height="18"/>
<rect x="206" y="279" width="17" height="18"/>
<rect x="0" y="50" width="16" height="17"/>
<rect x="0" y="63" width="16" height="17"/>
<rect x="50" y="0" width="18" height="16"/>
<rect x="37" y="0" width="18" height="16"/>
<rect x="0" y="279" width="16" height="17"/>
<rect x="270" y="253" width="18" height="18"/>
<rect x="245" y="253" width="17" height="18"/>
<rect x="245" y="266" width="17" height="18"/>
<rect x="232" y="279" width="17" height="18"/>
<rect x="245" y="279" width="17" height="18"/>
<rect x="257" y="279" width="18" height="18"/>
<rect x="270" y="279" width="18" height="18"/>
<rect x="270" y="266" width="18" height="18"/>
<rect x="258" y="266" width="17" height="18"/>
<rect x="12" y="12" width="17" height="17"/>
<rect x="24" y="12" width="18" height="17"/>
<rect x="37" y="12" width="18" height="17"/>
<rect x="50" y="12" width="18" height="17"/>
<rect x="63" y="12" width="18" height="17"/>
<rect x="76" y="12" width="18" height="17"/>
<rect x="89" y="12" width="18" height="17"/>
<rect x="102" y="12" width="18" height="17"/>
<rect x="244" y="12" width="18" height="17"/>
<rect x="115" y="0" width="18" height="16"/>
<rect x="128" y="0" width="18" height="16"/>
<rect x="141" y="0" width="18" height="16"/>
<rect x="154" y="0" width="18" height="16"/>
<rect x="218" y="0" width="18" height="16"/>
<rect x="231" y="0" width="18" height="16"/>
<rect x="244" y="0" width="18" height="16"/>
<rect x="257" y="0" width="18" height="16"/>
<rect x="63" y="0" width="18" height="16"/>
<rect x="76" y="0" width="18" height="16"/>
<rect x="89" y="0" width="18" height="16"/>
<rect x="102" y="0" width="18" height="16"/>
<rect x="270" y="0" width="18" height="16"/>
<rect x="283" y="0" width="17" height="16"/>
<rect x="283" y="12" width="17" height="17"/>
<rect x="154" y="279" width="18" height="18"/>
<rect x="167" y="279" width="17" height="18"/>
<rect x="180" y="279" width="17" height="18"/>
<rect x="193" y="279" width="17" height="18"/>
<rect x="232" y="266" width="17" height="18"/>
<rect x="232" y="253" width="17" height="18"/>
<rect x="102" y="279" width="18" height="18"/>
<rect x="115" y="279" width="18" height="18"/>
<rect x="128" y="279" width="18" height="18"/>
<rect x="141" y="279" width="18" height="18"/>
<rect x="76" y="279" width="18" height="17"/>
<rect x="89" y="279" width="18" height="18"/>
<rect x="0" y="227" width="16" height="18"/>
<rect x="0" y="240" width="16" height="18"/>
<rect x="0" y="253" width="16" height="18"/>
<rect x="0" y="266" width="16" height="18"/>
<rect x="0" y="176" width="16" height="18"/>
<rect x="0" y="189" width="16" height="18"/>
<rect x="0" y="202" width="16" height="18"/>
<rect x="0" y="215" width="16" height="18"/>
<rect x="0" y="126" width="16" height="18"/>
<rect x="0" y="139" width="16" height="18"/>
<rect x="0" y="152" width="16" height="18"/>
<rect x="0" y="165" width="16" height="18"/>
<rect x="0" y="75" width="16" height="17"/>
<rect x="0" y="88" width="16" height="17"/>
<rect x="0" y="101" width="16" height="17"/>
<rect x="0" y="114" width="16" height="17"/>
<rect x="25" y="0" width="17" height="16"/>
<rect x="12" y="0" width="17" height="16"/>
<rect x="24" y="279" width="18" height="17"/>
<rect x="11" y="279" width="18" height="17"/>
<rect x="0" y="24" width="16" height="17"/>
<rect x="0" y="37" width="16" height="17"/>
<rect x="0" y="0" width="16" height="16"/>
<rect x="0" y="12" width="16" height="17"/>
</g>
</svg>