<?xml version="1.0" encoding="utf-8"?>
<svg xmlns="http://www.w3.org/2000/svg" width="300" height="300" viewBox="0 0 300 300" class="creatureMap" style="position:absolute;">
    <defs>
        <filter id="blur" x="-30%" y="-30%" width="160%" height="160%">
            <feGaussianBlur stdDeviation="3" />
        </filter>
        <pattern id="pattern-untameable" width="10" height="10" patternTransform="rotate(135)" patternUnits="userSpaceOnUse">'
            <rect width="4" height="10" fill="black"></rect>
        </pattern>
        <filter id="groupStroke">
            <feFlood result="outsideColor" flood-color="black"/>
            <feMorphology in="SourceAlpha" operator="dilate" radius="2"/>
            <feComposite result="strokeoutline1" in="outsideColor" operator="in"/>
            <feComposite result="strokeoutline2" in="strokeoutline1" in2="SourceAlpha" operator="out"/>
            <feGaussianBlur in="strokeoutline2" result="strokeblur" stdDeviation="1"/>
        </filter>
        <style>
            .spawningMap-very-common { fill: #0F0; }
            .spawningMap-common { fill: #B2FF00; }
            .spawningMap-uncommon { fill: #FF0; }
            .spawningMap-very-uncommon { fill: #FC0; }
            .spawningMap-rare { fill: #F60; }
            .spawningMap-very-rare { fill: #F00; }
            .spawning-map-point { stroke:black; stroke-width:1; }
        </style>
    </defs>

<g filter="url(#blur)" opacity="0.7">
<g class="spawningMap-very-uncommon">
<rect x="223" y="151" width="9" height="11" />
<rect x="223" y="151" width="9" height="11" />
<rect x="164" y="128" width="16" height="16" />
</g>
<g class="spawningMap-uncommon">
<rect x="212" y="151" width="9" height="9" />
<rect x="187" y="144" width="13" height="12" />
<rect x="243" y="151" width="12" height="13" />
<rect x="92" y="174" width="12" height="13" />
<rect x="149" y="117" width="13" height="13" />
<rect x="105" y="147" width="12" height="13" />
<rect x="99" y="155" width="13" height="13" />
<rect x="111" y="155" width="13" height="13" />
<rect x="111" y="163" width="13" height="13" />
<rect x="99" y="163" width="13" height="13" />
<rect x="92" y="166" width="12" height="13" />
<rect x="195" y="143" width="13" height="13" />
<rect x="188" y="175" width="12" height="13" />
<rect x="180" y="177" width="13" height="13" />
<rect x="227" y="130" width="13" height="13" />
<rect x="235" y="130" width="12" height="13" />
<rect x="242" y="135" width="12" height="13" />
<rect x="241" y="143" width="12" height="13" />
<rect x="156" y="120" width="13" height="13" />
<rect x="168" y="120" width="12" height="13" />
<rect x="106" y="139" width="12" height="13" />
<rect x="175" y="120" width="13" height="13" />
<rect x="182" y="120" width="13" height="13" />
<rect x="182" y="128" width="13" height="13" />
<rect x="182" y="136" width="13" height="13" />
<rect x="175" y="136" width="13" height="13" />
<rect x="190" y="128" width="12" height="13" />
<rect x="190" y="120" width="12" height="13" />
<rect x="190" y="112" width="12" height="13" />
<rect x="197" y="112" width="13" height="13" />
<rect x="197" y="104" width="13" height="13" />
<rect x="191" y="94" width="13" height="13" />
<rect x="195" y="159" width="13" height="13" />
<rect x="195" y="167" width="13" height="13" />
<rect x="202" y="167" width="13" height="13" />
<rect x="202" y="159" width="13" height="13" />
<rect x="210" y="167" width="12" height="13" />
<rect x="217" y="167" width="13" height="13" />
<rect x="217" y="159" width="13" height="13" />
<rect x="202" y="151" width="13" height="13" />
<rect x="195" y="151" width="13" height="13" />
<rect x="212" y="155" width="8" height="9" />
<rect x="210" y="151" width="8" height="8" />
<rect x="212" y="151" width="9" height="9" />
</g>
<g class="spawningMap-common">
<rect x="212" y="155" width="8" height="9" />
<rect x="210" y="155" width="8" height="8" />
<rect x="210" y="151" width="8" height="8" />
<rect x="216" y="151" width="7" height="11" />
<rect x="216" y="151" width="7" height="11" />
<rect x="214" y="159" width="8" height="8" />
<rect x="210" y="155" width="8" height="8" />
</g>
<g class="spawningMap-very-common">
<rect x="217" y="165" width="7" height="7" />
<rect x="218" y="165" width="7" height="7" />
<rect x="218" y="167" width="7" height="6" />
<rect x="207" y="165" width="7" height="7" />
<rect x="216" y="164" width="7" height="7" />
<rect x="214" y="162" width="7" height="7" />
<rect x="214" y="161" width="7" height="7" />
<rect x="214" y="159" width="8" height="8" />
<rect x="219" y="165" width="8" height="7" />
<rect x="220" y="163" width="7" height="8" />
<rect x="221" y="162" width="7" height="7" />
<rect x="221" y="161" width="7" height="7" />
<rect x="221" y="160" width="7" height="7" />
<rect x="220" y="158" width="8" height="7" />
<rect x="222" y="158" width="7" height="7" />
<rect x="223" y="158" width="6" height="6" />
<rect x="223" y="157" width="6" height="7" />
<rect x="223" y="156" width="7" height="7" />
<rect x="225" y="151" width="7" height="6" />
<rect x="225" y="150" width="7" height="6" />
<rect x="225" y="149" width="6" height="7" />
<rect x="223" y="148" width="7" height="7" />
<rect x="222" y="147" width="7" height="7" />
<rect x="221" y="146" width="7" height="7" />
<rect x="220" y="144" width="7" height="8" />
<rect x="218" y="146" width="8" height="7" />
<rect x="217" y="146" width="7" height="7" />
<rect x="217" y="145" width="6" height="7" />
<rect x="216" y="144" width="7" height="7" />
<rect x="215" y="144" width="7" height="7" />
<rect x="214" y="144" width="7" height="8" />
<rect x="214" y="144" width="7" height="8" />
<rect x="218" y="167" width="7" height="6" />
<rect x="207" y="165" width="7" height="7" />
<rect x="217" y="165" width="7" height="7" />
<rect x="216" y="164" width="7" height="7" />
<rect x="214" y="162" width="7" height="7" />
<rect x="214" y="161" width="7" height="7" />
<rect x="218" y="165" width="7" height="7" />
<rect x="219" y="165" width="8" height="7" />
<rect x="220" y="163" width="7" height="8" />
<rect x="221" y="162" width="7" height="7" />
<rect x="221" y="161" width="7" height="7" />
<rect x="221" y="160" width="7" height="7" />
<rect x="220" y="158" width="8" height="7" />
<rect x="222" y="158" width="7" height="7" />
<rect x="223" y="158" width="6" height="6" />
<rect x="223" y="157" width="6" height="7" />
<rect x="223" y="156" width="7" height="7" />
<rect x="225" y="151" width="7" height="6" />
<rect x="225" y="150" width="7" height="6" />
<rect x="225" y="149" width="6" height="7" />
<rect x="223" y="148" width="7" height="7" />
<rect x="222" y="147" width="7" height="7" />
<rect x="221" y="146" width="7" height="7" />
<rect x="220" y="144" width="7" height="8" />
<rect x="218" y="146" width="8" height="7" />
<rect x="217" y="146" width="7" height="7" />
<rect x="217" y="145" width="6" height="7" />
<rect x="216" y="144" width="7" height="7" />
<rect x="215" y="144" width="7" height="7" />
</g>
</g>
</svg>