<svg xmlns="http://www.w3.org/2000/svg" width="1024" height="1024" viewBox="0 0 1024 1024" style="position: absolute; width:100%; height:100%;">
<defs>
    <filter id="blur" x="-30%" y="-30%" width="160%" height="160%">'
        <feColorMatrix type="matrix" values="1 0 0 1 0, 0 1 0 0 0, 0 0 1 0 0, 0 0 0 0.7 0"/>
        <feGaussianBlur stdDeviation="10" />
    </filter>
</defs>
<a href="/Snowy_Grasslands_(The_Center)" class="svgRegion">
    <g filter="url(#blur)">
<rect x="321" y="149" width="55" height="91" />
<rect x="369" y="215" width="10" height="25" />
<rect x="97" y="141" width="242" height="99" />
<rect x="37" y="240" width="358" height="47" />
<rect x="22" y="209" width="114" height="77" />
<rect x="21" y="281" width="5" height="5" />
<rect x="27" y="544" width="362" height="20" />
<rect x="43" y="564" width="328" height="112" />
<rect x="364" y="564" width="17" height="20" />
<rect x="0" y="286" width="256" height="258" />
<rect x="233" y="512" width="102" height="32" />
<rect x="218" y="491" width="71" height="38" />
<rect x="70" y="286" width="98" height="127" />
<rect x="164" y="286" width="119" height="85" />
<rect x="240" y="286" width="92" height="31" />
    </g>
    <text x="512" y="60">Snowy Grasslands</text>
</a>
<a href="/Underwater_(The_Center)" class="svgRegion">
    <g filter="url(#blur)">
<rect x="662" y="902" width="38" height="37" />
<rect x="601" y="937" width="38" height="37" />
<rect x="428" y="951" width="81" height="63" />
<rect x="244" y="824" width="68" height="63" />
<rect x="317" y="960" width="33" height="40" />
<rect x="319" y="893" width="30" height="32" />
<rect x="154" y="0" width="795" height="697" />
    </g>
    <text x="512" y="60">Underwater</text>
</a>
<a href="/Lava_Biome_(The_Center)" class="svgRegion">
    <g filter="url(#blur)">
<rect x="468" y="54" width="296" height="180" />
<rect x="489" y="54" width="34" height="46" />
<rect x="564" y="139" width="183" height="87" />
    </g>
    <text x="512" y="60">Lava Biome</text>
</a>
<a href="/Jungle_Mid_Beach_(The_Center)" class="svgRegion">
    <g filter="url(#blur)">
<rect x="661" y="364" width="90" height="128" />
<rect x="611" y="402" width="73" height="64" />
<rect x="674" y="457" width="17" height="19" />
<rect x="615" y="348" width="80" height="83" />
<rect x="489" y="374" width="130" height="71" />
<rect x="543" y="365" width="46" height="19" />
<rect x="542" y="374" width="15" height="10" />
<rect x="606" y="387" width="15" height="14" />
<rect x="513" y="445" width="58" height="16" />
<rect x="541" y="455" width="15" height="8" />
<rect x="569" y="445" width="45" height="21" />
    </g>
    <text x="512" y="60">Jungle Mid Beach</text>
</a>
<a href="/Jungle_South_Beach_(The_Center)" class="svgRegion">
    <g filter="url(#blur)">
<rect x="513" y="487" width="218" height="137" />
<rect x="513" y="623" width="120" height="32" />
<rect x="578" y="467" width="112" height="37" />
<rect x="586" y="470" width="56" height="19" />
<rect x="398" y="446" width="138" height="139" />
<rect x="396" y="475" width="40" height="40" />
<rect x="423" y="547" width="77" height="53" />
<rect x="483" y="598" width="13" height="6" />
<rect x="565" y="466" width="28" height="24" />
<rect x="586" y="473" width="9" height="3" />
<rect x="495" y="500" width="79" height="114" />
<rect x="549" y="503" width="30" height="9" />
<rect x="501" y="607" width="17" height="17" />
    </g>
    <text x="512" y="60">Jungle South Beach</text>
</a>
<a href="/Jungle_North_Beach_(The_Center)" class="svgRegion">
    <g filter="url(#blur)">
<rect x="483" y="260" width="34" height="75" />
<rect x="517" y="258" width="168" height="91" />
<rect x="654" y="315" width="28" height="39" />
<rect x="517" y="267" width="98" height="37" />
<rect x="517" y="274" width="22" height="25" />
<rect x="517" y="304" width="127" height="56" />
<rect x="635" y="346" width="14" height="4" />
    </g>
    <text x="512" y="60">Jungle North Beach</text>
</a>
<a href="/Boss_Arena_(The_Center)" class="svgRegion">
    <g filter="url(#blur)">
<rect x="254" y="837" width="113" height="109" />
    </g>
    <text x="512" y="60">Boss Arena</text>
</a>
<a href="/Lava_Biome_High_(The_Center)" class="svgRegion">
    <g filter="url(#blur)">
<rect x="468" y="54" width="296" height="180" />
<rect x="489" y="54" width="34" height="46" />
<rect x="564" y="139" width="183" height="87" />
    </g>
    <text x="512" y="60">Lava Biome High</text>
</a>
<a href="/Jungle_South_(The_Center)" class="svgRegion">
    <g filter="url(#blur)">
<rect x="588" y="503" width="122" height="99" />
<rect x="588" y="602" width="44" height="27" />
<rect x="630" y="481" width="59" height="28" />
<rect x="590" y="478" width="54" height="35" />
<rect x="641" y="490" width="17" height="10" />
<rect x="441" y="457" width="86" height="131" />
<rect x="421" y="470" width="23" height="72" />
<rect x="485" y="499" width="104" height="76" />
<rect x="549" y="515" width="41" height="27" />
<rect x="578" y="508" width="12" height="8" />
<rect x="506" y="544" width="83" height="89" />
<rect x="492" y="569" width="18" height="12" />
    </g>
    <text x="512" y="60">Jungle South</text>
</a>
<a href="/Jungle_Mid_(The_Center)" class="svgRegion">
    <g filter="url(#blur)">
<rect x="501" y="387" width="114" height="46" />
<rect x="501" y="397" width="41" height="27" />
<rect x="622" y="388" width="107" height="45" />
<rect x="627" y="361" width="68" height="33" />
<rect x="584" y="407" width="40" height="26" />
<rect x="611" y="400" width="15" height="15" />
<rect x="643" y="433" width="76" height="31" />
<rect x="567" y="433" width="107" height="20" />
<rect x="582" y="451" width="27" height="1" />
<rect x="519" y="433" width="50" height="18" />
<rect x="513" y="433" width="28" height="11" />
    </g>
    <text x="512" y="60">Jungle Mid</text>
</a>
<a href="/Jungle_North_(The_Center)" class="svgRegion">
    <g filter="url(#blur)">
<rect x="493" y="279" width="13" height="47" />
<rect x="506" y="277" width="164" height="49" />
<rect x="647" y="314" width="19" height="12" />
<rect x="525" y="286" width="80" height="30" />
<rect x="506" y="305" width="23" height="19" />
<rect x="530" y="326" width="113" height="18" />
<rect x="529" y="326" width="7" height="4" />
<rect x="635" y="326" width="37" height="19" />
<rect x="625" y="330" width="13" height="5" />
    </g>
    <text x="512" y="60">Jungle North</text>
</a>
<a href="/Edge_of_World_(The_Center)" class="svgRegion">
    <g filter="url(#blur)">
<rect x="0" y="0" width="290" height="793" />
<rect x="0" y="417" width="307" height="607" />
<rect x="169" y="371" width="35" height="107" />
    </g>
    <text x="512" y="60">Edge of World</text>
</a>
<a href="/DeepOcean_(The_Center)" class="svgRegion">
    <g filter="url(#blur)">
<rect x="154" y="0" width="795" height="697" />
    </g>
    <text x="512" y="60">DeepOcean</text>
</a>
<a href="/Underworld_Ocean_(The_Center)" class="svgRegion">
    <g filter="url(#blur)">
<rect x="487" y="337" width="104" height="144" />
    </g>
    <text x="512" y="60">Underworld Ocean</text>
</a>
<a href="/Redwood_Biome_(The_Center)" class="svgRegion">
    <g filter="url(#blur)">
<rect x="128" y="752" width="864" height="236" />
    </g>
    <text x="512" y="60">Redwood Biome</text>
</a>
<a href="/Jumping_Puzzle_(The_Center)" class="svgRegion">
    <g filter="url(#blur)">
<rect x="492" y="591" width="43" height="37" />
    </g>
    <text x="512" y="60">Jumping Puzzle</text>
</a>
<a href="/Tropical_Island_South_(The_Center)" class="svgRegion">
    <g filter="url(#blur)">
<rect x="758" y="447" width="137" height="143" />
    </g>
    <text x="512" y="60">Tropical Island South</text>
</a>
<a href="/Tropical_Island_North_(The_Center)" class="svgRegion">
    <g filter="url(#blur)">
<rect x="774" y="264" width="111" height="113" />
    </g>
    <text x="512" y="60">Tropical Island North</text>
</a>
<a href="/Skull_Island_(The_Center)" class="svgRegion">
    <g filter="url(#blur)">
<rect x="666" y="640" width="34" height="32" />
    </g>
    <text x="512" y="60">Skull Island</text>
</a>
<a href="/LavaCave_(The_Center)" class="svgRegion">
    <g filter="url(#blur)">
<rect x="490" y="84" width="177" height="126" />
    </g>
    <text x="512" y="60">LavaCave</text>
</a>
<a href="/Snowy_Mountain_(The_Center)" class="svgRegion">
    <g filter="url(#blur)">
<rect x="99" y="488" width="174" height="150" />
<rect x="259" y="573" width="14" height="31" />
<rect x="111" y="541" width="85" height="98" />
<rect x="182" y="198" width="141" height="97" />
<rect x="179" y="224" width="42" height="41" />
<rect x="204" y="280" width="75" height="28" />
<rect x="263" y="278" width="27" height="10" />
    </g>
    <text x="512" y="60">Snowy Mountain</text>
</a>
<a href="/Swamp_(The_Center)" class="svgRegion">
    <g filter="url(#blur)">
<rect x="160" y="287" width="278" height="255" />
<rect x="185" y="286" width="111" height="75" />
<rect x="352" y="544" width="59" height="64" />
<rect x="338" y="501" width="60" height="45" />
<rect x="397" y="530" width="8" height="16" />
<rect x="367" y="544" width="36" height="15" />
<rect x="370" y="554" width="17" height="19" />
<rect x="353" y="275" width="70" height="63" />
<rect x="332" y="288" width="50" height="38" />
<rect x="361" y="297" width="119" height="171" />
    </g>
    <text x="512" y="60">Swamp</text>
</a>
<a href="/The_Center_(The_Center)" class="svgRegion">
    <g filter="url(#blur)">
<rect x="234" y="343" width="150" height="142" />
    </g>
    <text x="512" y="60">The Center</text>
</a>
<a href="/Lava_Oasis_Cave_(The_Center)" class="svgRegion">
    <g filter="url(#blur)">
<rect x="492" y="151" width="56" height="56" />
<rect x="509" y="199" width="19" height="8" />
<rect x="492" y="171" width="16" height="23" />
<rect x="496" y="151" width="52" height="48" />
    </g>
    <text x="512" y="60">Lava Oasis Cave</text>
</a>
<a href="/Ocean_Under_Center_(The_Center)" class="svgRegion">
    <g filter="url(#blur)">
<rect x="163" y="323" width="266" height="204" />
    </g>
    <text x="512" y="60">Ocean Under Center</text>
</a>
<a href="/Western_Cliffs_(The_Center)" class="svgRegion">
    <g filter="url(#blur)">
<rect x="0" y="0" width="290" height="793" />
<rect x="0" y="418" width="312" height="606" />
<rect x="168" y="371" width="36" height="107" />
    </g>
    <text x="512" y="60">Western Cliffs</text>
</a>
</svg>