<svg xmlns="http://www.w3.org/2000/svg" width="1024" height="1024" viewBox="0 0 1024 1024" style="position: absolute; width:100%; height:100%;">
<defs>
    <filter id="blur" x="-30%" y="-30%" width="160%" height="160%">'
        <feColorMatrix type="matrix" values="1 0 0 1 0, 0 1 0 0 0, 0 0 1 0 0, 0 0 0 0.7 0"/>
        <feGaussianBlur stdDeviation="10" />
    </filter>
</defs>
<a href="/Underwater_(Scorched_Earth)" class="svgRegion">
    <g filter="url(#blur)">
    </g>
    <text x="512" y="60">Underwater</text>
</a>
<a href="/Central_Mountains_(Scorched_Earth)" class="svgRegion">
    <g filter="url(#blur)">
<rect x="434" y="551" width="20" height="19" />
<rect x="434" y="570" width="20" height="20" />
<rect x="454" y="590" width="19" height="19" />
<rect x="473" y="570" width="20" height="20" />
<rect x="473" y="590" width="20" height="19" />
<rect x="454" y="570" width="19" height="20" />
<rect x="454" y="609" width="19" height="20" />
<rect x="473" y="609" width="20" height="20" />
    </g>
    <text x="512" y="60">Central Mountains</text>
</a>
<a href="/Eastern_Badlands_-_40%25_Wind_(Scorched_Earth)" class="svgRegion">
    <g filter="url(#blur)">
<rect x="765" y="472" width="20" height="60" />
<rect x="765" y="434" width="39" height="20" />
<rect x="765" y="414" width="20" height="21" />
<rect x="940" y="491" width="19" height="79" />
<rect x="920" y="493" width="20" height="96" />
<rect x="901" y="493" width="19" height="136" />
<rect x="882" y="473" width="19" height="156" />
<rect x="823" y="474" width="59" height="175" />
<rect x="803" y="531" width="21" height="119" />
<rect x="784" y="629" width="20" height="19" />
<rect x="784" y="609" width="20" height="20" />
<rect x="609" y="512" width="98" height="39" />
<rect x="628" y="453" width="79" height="59" />
<rect x="648" y="433" width="79" height="21" />
    </g>
    <text x="512" y="60">Eastern Badlands - 40% Wind</text>
</a>
<a href="/Northern_Canyons_(Scorched_Earth)" class="svgRegion">
    <g filter="url(#blur)">
<rect x="474" y="337" width="18" height="18" />
<rect x="452" y="356" width="100" height="39" />
<rect x="553" y="259" width="19" height="39" />
<rect x="491" y="416" width="40" height="39" />
<rect x="433" y="376" width="40" height="39" />
<rect x="472" y="395" width="40" height="39" />
<rect x="513" y="123" width="20" height="20" />
<rect x="494" y="143" width="57" height="97" />
<rect x="512" y="240" width="40" height="77" />
<rect x="493" y="278" width="40" height="77" />
<rect x="512" y="376" width="61" height="39" />
    </g>
    <text x="512" y="60">Northern Canyons</text>
</a>
<a href="/Central_Canyons_(Scorched_Earth)" class="svgRegion">
    <g filter="url(#blur)">
<rect x="434" y="414" width="38" height="59" />
<rect x="492" y="453" width="79" height="117" />
<rect x="453" y="435" width="39" height="58" />
<rect x="531" y="414" width="39" height="39" />
<rect x="512" y="570" width="136" height="20" />
<rect x="571" y="531" width="38" height="40" />
<rect x="571" y="492" width="19" height="39" />
<rect x="531" y="589" width="39" height="19" />
<rect x="609" y="590" width="18" height="19" />
    </g>
    <text x="512" y="60">Central Canyons</text>
</a>
<a href="/Southern_High_Desert_(Scorched_Earth)" class="svgRegion">
    <g filter="url(#blur)">
<rect x="531" y="686" width="59" height="197" />
<rect x="590" y="822" width="116" height="21" />
<rect x="590" y="687" width="19" height="38" />
<rect x="590" y="842" width="154" height="21" />
<rect x="590" y="862" width="154" height="21" />
<rect x="613" y="882" width="131" height="21" />
<rect x="608" y="901" width="99" height="21" />
<rect x="590" y="803" width="19" height="20" />
<rect x="415" y="609" width="19" height="20" />
<rect x="434" y="609" width="20" height="20" />
<rect x="492" y="609" width="20" height="20" />
<rect x="609" y="687" width="20" height="19" />
    </g>
    <text x="512" y="60">Southern High Desert</text>
</a>
<a href="/Northern_East_Dunes_(Scorched_Earth)" class="svgRegion">
    <g filter="url(#blur)">
<rect x="609" y="27" width="402" height="118" />
<rect x="840" y="13" width="158" height="402" />
<rect x="628" y="144" width="374" height="20" />
<rect x="667" y="279" width="39" height="18" />
<rect x="667" y="297" width="21" height="18" />
<rect x="648" y="161" width="354" height="118" />
<rect x="764" y="279" width="242" height="19" />
<rect x="823" y="299" width="175" height="20" />
    </g>
    <text x="512" y="60">Northern East Dunes</text>
</a>
<a href="/Southern_Dunes_(Scorched_Earth)" class="svgRegion">
    <g filter="url(#blur)">
<rect x="415" y="919" width="194" height="77" />
<rect x="413" y="901" width="25" height="19" />
<rect x="449" y="902" width="158" height="17" />
<rect x="491" y="883" width="123" height="21" />
    </g>
    <text x="512" y="60">Southern Dunes</text>
</a>
<a href="/Northern_East_Badlands_-_40%25_Wind_(Scorched_Earth)" class="svgRegion">
    <g filter="url(#blur)">
<rect x="686" y="395" width="155" height="20" />
<rect x="667" y="335" width="173" height="61" />
<rect x="687" y="317" width="155" height="18" />
<rect x="687" y="298" width="155" height="20" />
<rect x="705" y="278" width="59" height="20" />
    </g>
    <text x="512" y="60">Northern East Badlands - 40% Wind</text>
</a>
<a href="/Southern_East_Canyons_(Scorched_Earth)" class="svgRegion">
    <g filter="url(#blur)">
<rect x="610" y="629" width="38" height="58" />
<rect x="727" y="688" width="38" height="57" />
<rect x="628" y="591" width="58" height="39" />
<rect x="628" y="687" width="58" height="58" />
<rect x="668" y="746" width="98" height="57" />
<rect x="706" y="668" width="38" height="58" />
<rect x="668" y="628" width="58" height="20" />
<rect x="707" y="648" width="19" height="20" />
<rect x="687" y="610" width="19" height="20" />
<rect x="532" y="609" width="59" height="20" />
<rect x="570" y="628" width="41" height="20" />
<rect x="589" y="648" width="21" height="19" />
    </g>
    <text x="512" y="60">Southern East Canyons</text>
</a>
<a href="/Western_Mountains_(Scorched_Earth)" class="svgRegion">
    <g filter="url(#blur)">
<rect x="200" y="548" width="22" height="19" />
<rect x="298" y="511" width="59" height="79" />
<rect x="259" y="493" width="58" height="59" />
<rect x="105" y="356" width="231" height="60" />
<rect x="123" y="414" width="78" height="154" />
<rect x="143" y="568" width="79" height="43" />
<rect x="200" y="415" width="137" height="20" />
<rect x="240" y="434" width="20" height="79" />
<rect x="259" y="433" width="19" height="61" />
<rect x="277" y="434" width="41" height="20" />
<rect x="200" y="433" width="22" height="20" />
<rect x="200" y="491" width="22" height="20" />
    </g>
    <text x="512" y="60">Western Mountains</text>
</a>
<a href="/Eastern_Low_Desert_(Scorched_Earth)" class="svgRegion">
    <g filter="url(#blur)">
<rect x="666" y="395" width="21" height="18" />
<rect x="686" y="590" width="21" height="21" />
<rect x="648" y="551" width="60" height="40" />
<rect x="783" y="415" width="61" height="19" />
<rect x="589" y="491" width="20" height="39" />
<rect x="803" y="434" width="21" height="20" />
<rect x="571" y="414" width="57" height="77" />
<rect x="628" y="317" width="58" height="20" />
<rect x="628" y="413" width="138" height="20" />
<rect x="708" y="454" width="57" height="155" />
<rect x="608" y="550" width="40" height="20" />
<rect x="726" y="433" width="40" height="20" />
<rect x="628" y="432" width="21" height="21" />
<rect x="609" y="336" width="58" height="77" />
<rect x="765" y="533" width="39" height="76" />
    </g>
    <text x="512" y="60">Eastern Low Desert</text>
</a>
<a href="/Southern_East_Low_Desert_(Scorched_Earth)" class="svgRegion">
    <g filter="url(#blur)">
<rect x="725" y="608" width="59" height="41" />
<rect x="764" y="649" width="156" height="97" />
<rect x="881" y="628" width="39" height="21" />
<rect x="766" y="746" width="39" height="19" />
<rect x="765" y="766" width="20" height="39" />
<rect x="745" y="649" width="19" height="39" />
<rect x="725" y="649" width="20" height="20" />
<rect x="705" y="608" width="20" height="20" />
    </g>
    <text x="512" y="60">Southern East Low Desert</text>
</a>
<a href="/Northern_East_High_Desert_(Scorched_Earth)" class="svgRegion">
    <g filter="url(#blur)">
<rect x="610" y="317" width="19" height="20" />
<rect x="609" y="279" width="59" height="38" />
    </g>
    <text x="512" y="60">Northern East High Desert</text>
</a>
<a href="/Northern_Mountains_(Scorched_Earth)" class="svgRegion">
    <g filter="url(#blur)">
<rect x="415" y="240" width="19" height="19" />
<rect x="434" y="240" width="20" height="19" />
<rect x="415" y="279" width="19" height="19" />
<rect x="434" y="279" width="20" height="19" />
<rect x="415" y="259" width="19" height="20" />
<rect x="434" y="259" width="20" height="20" />
<rect x="454" y="279" width="19" height="19" />
<rect x="454" y="259" width="19" height="20" />
<rect x="415" y="298" width="19" height="20" />
<rect x="434" y="298" width="20" height="20" />
<rect x="454" y="298" width="19" height="20" />
<rect x="551" y="318" width="19" height="19" />
<rect x="570" y="318" width="20" height="19" />
<rect x="590" y="318" width="19" height="19" />
<rect x="570" y="298" width="20" height="20" />
<rect x="590" y="298" width="19" height="20" />
<rect x="570" y="337" width="20" height="19" />
<rect x="570" y="162" width="20" height="20" />
<rect x="590" y="162" width="19" height="20" />
<rect x="590" y="143" width="19" height="19" />
<rect x="551" y="201" width="19" height="19" />
<rect x="551" y="182" width="19" height="19" />
<rect x="570" y="201" width="20" height="19" />
<rect x="590" y="201" width="19" height="19" />
<rect x="570" y="182" width="20" height="19" />
<rect x="590" y="182" width="19" height="19" />
<rect x="609" y="162" width="20" height="20" />
<rect x="629" y="162" width="19" height="20" />
<rect x="609" y="143" width="20" height="19" />
<rect x="609" y="201" width="20" height="19" />
<rect x="629" y="201" width="19" height="19" />
<rect x="609" y="182" width="20" height="19" />
<rect x="629" y="182" width="19" height="19" />
<rect x="570" y="240" width="20" height="19" />
<rect x="590" y="240" width="19" height="19" />
<rect x="570" y="220" width="20" height="20" />
<rect x="590" y="220" width="19" height="20" />
<rect x="590" y="279" width="19" height="19" />
<rect x="590" y="259" width="19" height="20" />
<rect x="609" y="240" width="20" height="19" />
<rect x="629" y="240" width="19" height="19" />
<rect x="609" y="220" width="20" height="20" />
<rect x="629" y="220" width="19" height="20" />
<rect x="609" y="259" width="20" height="20" />
<rect x="629" y="259" width="19" height="20" />
    </g>
    <text x="512" y="60">Northern Mountains</text>
</a>
<a href="/Southern_Low_Desert_(Scorched_Earth)" class="svgRegion">
    <g filter="url(#blur)">
<rect x="511" y="629" width="60" height="38" />
<rect x="513" y="608" width="19" height="20" />
<rect x="530" y="667" width="80" height="19" />
<rect x="570" y="648" width="20" height="20" />
    </g>
    <text x="512" y="60">Southern Low Desert</text>
</a>
<a href="/Southern_Mountains_(Scorched_Earth)" class="svgRegion">
    <g filter="url(#blur)">
<rect x="455" y="726" width="38" height="20" />
<rect x="455" y="706" width="38" height="20" />
<rect x="414" y="628" width="78" height="273" />
<rect x="492" y="628" width="20" height="255" />
<rect x="511" y="667" width="20" height="216" />
    </g>
    <text x="512" y="60">Southern Mountains</text>
</a>
<a href="/Central_Dunes_(Scorched_Earth)" class="svgRegion">
    <g filter="url(#blur)">
<rect x="629" y="746" width="20" height="38" />
<rect x="590" y="725" width="39" height="79" />
<rect x="609" y="705" width="20" height="20" />
    </g>
    <text x="512" y="60">Central Dunes</text>
</a>
<a href="/Western_High_Desert_(Scorched_Earth)" class="svgRegion">
    <g filter="url(#blur)">
<rect x="201" y="453" width="39" height="40" />
<rect x="201" y="512" width="58" height="40" />
<rect x="220" y="433" width="20" height="21" />
<rect x="220" y="492" width="20" height="20" />
<rect x="220" y="551" width="20" height="39" />
<rect x="259" y="551" width="39" height="39" />
<rect x="221" y="589" width="135" height="20" />
<rect x="376" y="414" width="39" height="196" />
<rect x="357" y="414" width="19" height="176" />
<rect x="337" y="414" width="19" height="99" />
<rect x="317" y="433" width="20" height="80" />
<rect x="279" y="453" width="38" height="40" />
    </g>
    <text x="512" y="60">Western High Desert</text>
</a>
<a href="/Southern_West_High_Desert_(Scorched_Earth)" class="svgRegion">
    <g filter="url(#blur)">
<rect x="220" y="611" width="40" height="18" />
<rect x="338" y="726" width="76" height="19" />
<rect x="377" y="609" width="38" height="117" />
<rect x="337" y="744" width="20" height="58" />
<rect x="357" y="784" width="19" height="18" />
<rect x="297" y="667" width="21" height="19" />
<rect x="278" y="648" width="21" height="21" />
<rect x="220" y="629" width="59" height="18" />
    </g>
    <text x="512" y="60">Southern West High Desert</text>
</a>
<a href="/Northern_West_Mountains_(Scorched_Earth)" class="svgRegion">
    <g filter="url(#blur)">
<rect x="105" y="356" width="231" height="59" />
<rect x="103" y="220" width="253" height="136" />
<rect x="129" y="196" width="248" height="24" />
<rect x="147" y="124" width="234" height="74" />
<rect x="147" y="105" width="234" height="19" />
<rect x="164" y="85" width="137" height="19" />
<rect x="180" y="66" width="137" height="19" />
<rect x="217" y="47" width="104" height="19" />
    </g>
    <text x="512" y="60">Northern West Mountains</text>
</a>
<a href="/Central_High_Desert_(Scorched_Earth)" class="svgRegion">
    <g filter="url(#blur)">
<rect x="512" y="590" width="19" height="19" />
<rect x="493" y="590" width="19" height="19" />
<rect x="435" y="590" width="19" height="19" />
<rect x="415" y="415" width="19" height="194" />
<rect x="434" y="472" width="20" height="80" />
<rect x="453" y="492" width="39" height="79" />
    </g>
    <text x="512" y="60">Central High Desert</text>
</a>
<a href="/Southern_East_Badlands_-_40%25_Wind_(Scorched_Earth)" class="svgRegion">
    <g filter="url(#blur)">
<rect x="570" y="590" width="20" height="19" />
<rect x="590" y="590" width="19" height="19" />
<rect x="609" y="609" width="20" height="20" />
<rect x="648" y="629" width="20" height="19" />
<rect x="648" y="668" width="20" height="19" />
<rect x="668" y="668" width="19" height="19" />
<rect x="648" y="648" width="20" height="20" />
<rect x="668" y="648" width="19" height="20" />
<rect x="687" y="668" width="19" height="19" />
<rect x="687" y="648" width="19" height="20" />
<rect x="687" y="706" width="19" height="20" />
<rect x="687" y="687" width="19" height="19" />
<rect x="687" y="726" width="19" height="19" />
<rect x="706" y="726" width="20" height="19" />
<rect x="590" y="609" width="19" height="20" />
    </g>
    <text x="512" y="60">Southern East Badlands - 40% Wind</text>
</a>
<a href="/Southern_East_High_Desert_(Scorched_Earth)" class="svgRegion">
    <g filter="url(#blur)">
<rect x="629" y="784" width="20" height="21" />
<rect x="706" y="823" width="77" height="20" />
<rect x="609" y="804" width="174" height="19" />
<rect x="649" y="745" width="19" height="59" />
    </g>
    <text x="512" y="60">Southern East High Desert</text>
</a>
<a href="/Eastern_Oasis_(Scorched_Earth)" class="svgRegion">
    <g filter="url(#blur)">
<rect x="781" y="509" width="26" height="25" />
<rect x="784" y="493" width="20" height="19" />
<rect x="804" y="512" width="19" height="19" />
<rect x="804" y="493" width="19" height="19" />
    </g>
    <text x="512" y="60">Eastern Oasis</text>
</a>
<a href="/Northern_High_Desert_(Scorched_Earth)" class="svgRegion">
    <g filter="url(#blur)">
<rect x="573" y="357" width="36" height="57" />
<rect x="590" y="336" width="19" height="21" />
<rect x="553" y="337" width="19" height="37" />
<rect x="533" y="318" width="19" height="37" />
<rect x="453" y="317" width="19" height="39" />
<rect x="434" y="316" width="19" height="60" />
<rect x="415" y="316" width="19" height="100" />
<rect x="473" y="237" width="19" height="100" />
<rect x="473" y="103" width="19" height="136" />
<rect x="493" y="123" width="19" height="21" />
<rect x="531" y="103" width="58" height="21" />
<rect x="532" y="123" width="78" height="20" />
<rect x="551" y="143" width="39" height="21" />
<rect x="415" y="83" width="59" height="157" />
<rect x="551" y="163" width="19" height="20" />
    </g>
    <text x="512" y="60">Northern High Desert</text>
</a>
<a href="/Northern_West_High_Desert_(Scorched_Earth)" class="svgRegion">
    <g filter="url(#blur)">
<rect x="381" y="104" width="34" height="310" />
<rect x="357" y="219" width="24" height="196" />
<rect x="336" y="356" width="22" height="59" />
    </g>
    <text x="512" y="60">Northern West High Desert</text>
</a>
<a href="/South_East_Dunes_(Scorched_Earth)" class="svgRegion">
    <g filter="url(#blur)">
<rect x="784" y="784" width="20" height="20" />
<rect x="784" y="765" width="20" height="19" />
<rect x="998" y="0" width="26" height="1024" />
<rect x="0" y="0" width="27" height="1024" />
<rect x="21" y="0" width="981" height="26" />
<rect x="19" y="996" width="981" height="28" />
<rect x="609" y="939" width="382" height="57" />
<rect x="686" y="916" width="311" height="25" />
<rect x="708" y="902" width="292" height="21" />
<rect x="744" y="843" width="251" height="60" />
<rect x="783" y="804" width="215" height="39" />
<rect x="804" y="746" width="192" height="61" />
<rect x="920" y="609" width="79" height="140" />
    </g>
    <text x="512" y="60">South East Dunes</text>
</a>
<a href="/Southern_West_Mountains_(Scorched_Earth)" class="svgRegion">
    <g filter="url(#blur)">
<rect x="395" y="881" width="20" height="20" />
<rect x="144" y="610" width="76" height="131" />
<rect x="221" y="669" width="76" height="131" />
<rect x="283" y="801" width="131" height="79" />
<rect x="318" y="610" width="59" height="116" />
<rect x="297" y="726" width="41" height="75" />
<rect x="202" y="761" width="20" height="41" />
<rect x="297" y="686" width="20" height="41" />
<rect x="260" y="800" width="21" height="43" />
<rect x="278" y="609" width="19" height="38" />
<rect x="298" y="609" width="20" height="58" />
<rect x="241" y="800" width="20" height="21" />
<rect x="259" y="609" width="20" height="21" />
<rect x="163" y="742" width="58" height="20" />
<rect x="220" y="647" width="58" height="22" />
    </g>
    <text x="512" y="60">Southern West Mountains</text>
</a>
<a href="/Southern_West_Oasis_(Scorched_Earth)" class="svgRegion">
    <g filter="url(#blur)">
<rect x="356" y="745" width="20" height="20" />
<rect x="376" y="745" width="19" height="20" />
<rect x="395" y="745" width="20" height="20" />
<rect x="356" y="765" width="20" height="19" />
<rect x="376" y="784" width="19" height="20" />
<rect x="395" y="784" width="20" height="20" />
<rect x="376" y="765" width="19" height="19" />
<rect x="395" y="765" width="20" height="19" />
    </g>
    <text x="512" y="60">Southern West Oasis</text>
</a>
<a href="/Northern_Mountains_Summit_(Scorched_Earth)" class="svgRegion">
    <g filter="url(#blur)">
<rect x="551" y="318" width="19" height="19" />
<rect x="570" y="318" width="20" height="19" />
<rect x="590" y="318" width="19" height="19" />
<rect x="570" y="298" width="20" height="20" />
<rect x="590" y="298" width="19" height="20" />
<rect x="570" y="337" width="20" height="19" />
    </g>
    <text x="512" y="60">Northern Mountains Summit</text>
</a>
<a href="/Northern_West_Oasis_(Scorched_Earth)" class="svgRegion">
    <g filter="url(#blur)">
<rect x="298" y="123" width="20" height="20" />
<rect x="318" y="123" width="19" height="20" />
<rect x="298" y="104" width="20" height="19" />
<rect x="318" y="104" width="19" height="19" />
<rect x="337" y="104" width="19" height="19" />
<rect x="298" y="143" width="20" height="19" />
<rect x="318" y="143" width="19" height="19" />
    </g>
    <text x="512" y="60">Northern West Oasis</text>
</a>
<a href="/Southern_West_Dunes_(Scorched_Earth)" class="svgRegion">
    <g filter="url(#blur)">
<rect x="7" y="899" width="407" height="97" />
<rect x="13" y="882" width="382" height="17" />
<rect x="0" y="864" width="321" height="18" />
<rect x="0" y="843" width="280" height="21" />
<rect x="0" y="822" width="259" height="21" />
<rect x="0" y="801" width="241" height="21" />
<rect x="1" y="762" width="201" height="39" />
<rect x="0" y="741" width="162" height="21" />
<rect x="0" y="609" width="144" height="142" />
    </g>
    <text x="512" y="60">Southern West Dunes</text>
</a>
<a href="/Western_Dunes_(Scorched_Earth)" class="svgRegion">
    <g filter="url(#blur)">
<rect x="123" y="568" width="20" height="41" />
<rect x="27" y="415" width="97" height="195" />
    </g>
    <text x="512" y="60">Western Dunes</text>
</a>
<a href="/Northern_West_Dunes_(Scorched_Earth)" class="svgRegion">
    <g filter="url(#blur)">
<rect x="27" y="10" width="79" height="407" />
<rect x="106" y="16" width="23" height="206" />
<rect x="129" y="26" width="17" height="171" />
<rect x="146" y="25" width="18" height="81" />
<rect x="164" y="25" width="18" height="63" />
<rect x="182" y="26" width="37" height="39" />
<rect x="212" y="25" width="203" height="22" />
<rect x="321" y="26" width="38" height="39" />
<rect x="377" y="47" width="38" height="58" />
<rect x="357" y="47" width="20" height="41" />
    </g>
    <text x="512" y="60">Northern West Dunes</text>
</a>
<a href="/Northern_Dunes_(Scorched_Earth)" class="svgRegion">
    <g filter="url(#blur)">
<rect x="590" y="104" width="19" height="19" />
<rect x="492" y="104" width="39" height="20" />
<rect x="473" y="16" width="136" height="88" />
<rect x="416" y="26" width="56" height="58" />
    </g>
    <text x="512" y="60">Northern Dunes</text>
</a>
<a href="/The_Blasted_Maw_(Scorched_Earth)" class="svgRegion">
    <g filter="url(#blur)">
<rect x="470" y="453" width="148" height="114" />
    </g>
    <text x="512" y="60">The Blasted Maw</text>
</a>
<a href="/Waterfall_(Scorched_Earth)" class="svgRegion">
    <g filter="url(#blur)">
<rect x="518" y="296" width="2" height="2" />
<rect x="518" y="296" width="1" height="2" />
<rect x="515" y="250" width="1" height="2" />
<rect x="496" y="338" width="2" height="1" />
<rect x="497" y="338" width="1" height="2" />
<rect x="502" y="174" width="1" height="1" />
<rect x="501" y="174" width="2" height="1" />
    </g>
    <text x="512" y="60">Waterfall</text>
</a>
<a href="/Oasis_Dunes_(Scorched_Earth)" class="svgRegion">
    <g filter="url(#blur)">
<rect x="45" y="72" width="12" height="12" />
<rect x="915" y="43" width="14" height="14" />
<rect x="355" y="929" width="12" height="12" />
<rect x="770" y="902" width="12" height="12" />
<rect x="58" y="560" width="22" height="22" />
<rect x="521" y="939" width="9" height="9" />
    </g>
    <text x="512" y="60">Oasis Dunes</text>
</a>
<a href="/Southern_East_Mountains_Summit_(Scorched_Earth)" class="svgRegion">
    <g filter="url(#blur)">
<rect x="609" y="920" width="77" height="20" />
    </g>
    <text x="512" y="60">Southern East Mountains Summit</text>
</a>
<a href="/Eastern_Dunes_(Scorched_Earth)" class="svgRegion">
    <g filter="url(#blur)">
<rect x="920" y="472" width="40" height="21" />
<rect x="940" y="570" width="19" height="20" />
<rect x="901" y="472" width="20" height="21" />
<rect x="803" y="473" width="20" height="21" />
<rect x="804" y="454" width="158" height="20" />
<rect x="823" y="434" width="140" height="21" />
<rect x="842" y="415" width="120" height="21" />
<rect x="959" y="416" width="40" height="193" />
<rect x="920" y="589" width="40" height="20" />
    </g>
    <text x="512" y="60">Eastern Dunes</text>
</a>
<a href="/The_World_Scar_(Scorched_Earth)" class="svgRegion">
    <g filter="url(#blur)">
<rect x="44" y="200" width="118" height="555" />
<rect x="115" y="657" width="271" height="272" />
<rect x="44" y="200" width="118" height="555" />
<rect x="115" y="657" width="271" height="272" />
    </g>
    <text x="512" y="60">The World Scar</text>
</a>
<a href="/Ruins_of_Nosti_(Scorched_Earth)" class="svgRegion">
    <g filter="url(#blur)">
<rect x="818" y="817" width="93" height="55" />
    </g>
    <text x="512" y="60">Ruins of Nosti</text>
</a>
<a href="/The_Old_Tunnels_(Scorched_Earth)" class="svgRegion">
    <g filter="url(#blur)">
<rect x="423" y="582" width="55" height="41" />
<rect x="464" y="608" width="13" height="15" />
    </g>
    <text x="512" y="60">The Old Tunnels</text>
</a>
<a href="/Grave_of_the_Tyrants_(Scorched_Earth)" class="svgRegion">
    <g filter="url(#blur)">
<rect x="259" y="254" width="8" height="8" />
<rect x="257" y="260" width="8" height="7" />
<rect x="247" y="264" width="34" height="83" />
<rect x="246" y="297" width="25" height="17" />
<rect x="255" y="266" width="7" height="7" />
<rect x="256" y="260" width="8" height="7" />
<rect x="244" y="333" width="7" height="7" />
    </g>
    <text x="512" y="60">Grave of the Tyrants</text>
</a>
<a href="/Ruins_of_Nosti_-_Deep_Well_(Scorched_Earth)" class="svgRegion">
    <g filter="url(#blur)">
<rect x="852" y="813" width="55" height="49" />
    </g>
    <text x="512" y="60">Ruins of Nosti - Deep Well</text>
</a>
<a href="/Ruins_of_Nosti_-_Entrance_(Scorched_Earth)" class="svgRegion">
    <g filter="url(#blur)">
<rect x="817" y="827" width="21" height="38" />
    </g>
    <text x="512" y="60">Ruins of Nosti - Entrance</text>
</a>
<a href="/Ruins_of_Nosti_-_Descent_(Scorched_Earth)" class="svgRegion">
    <g filter="url(#blur)">
<rect x="837" y="813" width="25" height="49" />
    </g>
    <text x="512" y="60">Ruins of Nosti - Descent</text>
</a>
<a href="/Ruins_of_Nosti_-_Old_City_(Scorched_Earth)" class="svgRegion">
    <g filter="url(#blur)">
<rect x="852" y="813" width="55" height="49" />
    </g>
    <text x="512" y="60">Ruins of Nosti - Old City</text>
</a>
</svg>