<svg xmlns="http://www.w3.org/2000/svg" width="1024" height="1024" viewBox="0 0 1024 1024" style="position: absolute; width:100%; height:100%;">
<defs>
    <filter id="blur" x="-30%" y="-30%" width="160%" height="160%">'
        <feColorMatrix type="matrix" values="1 0 0 1 0, 0 1 0 0 0, 0 0 1 0 0, 0 0 0 0.7 0"/>
        <feGaussianBlur stdDeviation="10" />
    </filter>
</defs>
<a href="/Underwater_(Ragnarok)" class="svgRegion">
    <g filter="url(#blur)">
<rect x="0" y="0" width="53" height="100" />
<rect x="53" y="0" width="185" height="100" />
<rect x="237" y="0" width="185" height="100" />
<rect x="421" y="0" width="185" height="100" />
<rect x="605" y="0" width="185" height="103" />
<rect x="789" y="0" width="185" height="103" />
<rect x="971" y="0" width="53" height="103" />
<rect x="0" y="99" width="53" height="209" />
<rect x="53" y="99" width="185" height="209" />
<rect x="237" y="99" width="185" height="210" />
<rect x="421" y="99" width="185" height="210" />
<rect x="605" y="102" width="185" height="209" />
<rect x="789" y="102" width="185" height="209" />
<rect x="971" y="102" width="53" height="209" />
<rect x="0" y="307" width="53" height="209" />
<rect x="53" y="307" width="185" height="209" />
<rect x="237" y="307" width="185" height="210" />
<rect x="605" y="310" width="185" height="209" />
<rect x="789" y="310" width="185" height="209" />
<rect x="971" y="310" width="53" height="209" />
<rect x="0" y="515" width="53" height="210" />
<rect x="53" y="515" width="185" height="210" />
<rect x="237" y="516" width="185" height="209" />
<rect x="605" y="518" width="185" height="209" />
<rect x="789" y="518" width="185" height="209" />
<rect x="971" y="518" width="53" height="209" />
<rect x="0" y="724" width="53" height="209" />
<rect x="53" y="724" width="185" height="209" />
<rect x="237" y="724" width="185" height="209" />
<rect x="421" y="724" width="185" height="209" />
<rect x="605" y="726" width="185" height="209" />
<rect x="789" y="726" width="185" height="209" />
<rect x="971" y="726" width="53" height="209" />
<rect x="0" y="931" width="53" height="93" />
<rect x="53" y="931" width="185" height="93" />
<rect x="237" y="932" width="185" height="92" />
<rect x="421" y="932" width="185" height="92" />
<rect x="605" y="934" width="185" height="90" />
<rect x="789" y="934" width="185" height="90" />
<rect x="971" y="934" width="53" height="90" />
    </g>
    <text x="512" y="60">Underwater</text>
</a>
<a href="/Volcano_Plains_(Ragnarok)" class="svgRegion">
    <g filter="url(#blur)">
<rect x="544" y="134" width="107" height="54" />
<rect x="583" y="176" width="22" height="18" />
<rect x="682" y="174" width="95" height="72" />
<rect x="707" y="133" width="38" height="69" />
<rect x="538" y="176" width="75" height="110" />
<rect x="608" y="236" width="42" height="39" />
<rect x="646" y="229" width="42" height="41" />
    </g>
    <text x="512" y="60">Volcano Plains</text>
</a>
<a href="/Volcano_Beach_(Ragnarok)" class="svgRegion">
    <g filter="url(#blur)">
<rect x="500" y="154" width="83" height="105" />
<rect x="524" y="96" width="127" height="58" />
<rect x="705" y="95" width="23" height="38" />
<rect x="651" y="96" width="56" height="57" />
    </g>
    <text x="512" y="60">Volcano Beach</text>
</a>
<a href="/Volcano_Tippy_Top_(Ragnarok)" class="svgRegion">
    <g filter="url(#blur)">
<rect x="557" y="284" width="54" height="43" />
<rect x="600" y="134" width="113" height="109" />
    </g>
    <text x="512" y="60">Volcano Tippy Top</text>
</a>
<a href="/Volcano_UW_(Ragnarok)" class="svgRegion">
    <g filter="url(#blur)">
<rect x="651" y="74" width="74" height="28" />
<rect x="682" y="0" width="39" height="81" />
<rect x="633" y="0" width="56" height="22" />
<rect x="594" y="0" width="46" height="6" />
<rect x="682" y="0" width="39" height="81" />
<rect x="682" y="0" width="43" height="102" />
<rect x="682" y="0" width="43" height="102" />
<rect x="651" y="81" width="47" height="20" />
    </g>
    <text x="512" y="60">Volcano UW</text>
</a>
<a href="/Dragon_Breath_Grotto_(Ragnarok)" class="svgRegion">
    <g filter="url(#blur)">
<rect x="676" y="156" width="18" height="12" />
<rect x="679" y="156" width="15" height="12" />
<rect x="679" y="151" width="14" height="3" />
<rect x="679" y="154" width="12" height="2" />
    </g>
    <text x="512" y="60">Dragon Breath Grotto</text>
</a>
<a href="/Titans_Rise_(Ragnarok)" class="svgRegion">
    <g filter="url(#blur)">
<rect x="381" y="121" width="158" height="164" />
<rect x="465" y="121" width="18" height="19" />
    </g>
    <text x="512" y="60">Titans Rise</text>
</a>
<a href="/Ruins_of_Etain_(Ragnarok)" class="svgRegion">
    <g filter="url(#blur)">
<rect x="242" y="229" width="37" height="26" />
<rect x="234" y="240" width="23" height="9" />
    </g>
    <text x="512" y="60">Ruins of Etain</text>
</a>
<a href="/Egil_Throughway_(Ragnarok)" class="svgRegion">
    <g filter="url(#blur)">
<rect x="177" y="135" width="112" height="105" />
<rect x="171" y="170" width="51" height="35" />
    </g>
    <text x="512" y="60">Egil Throughway</text>
</a>
<a href="/The_Ancients_Tears_(Ragnarok)" class="svgRegion">
    <g filter="url(#blur)">
<rect x="367" y="345" width="110" height="70" />
<rect x="400" y="336" width="69" height="31" />
    </g>
    <text x="512" y="60">The Ancients Tears</text>
</a>
<a href="/Vegurs_Chasm_(Ragnarok)" class="svgRegion">
    <g filter="url(#blur)">
<rect x="262" y="357" width="119" height="77" />
<rect x="298" y="360" width="76" height="25" />
    </g>
    <text x="512" y="60">Vegurs Chasm</text>
</a>
<a href="/The_Dark_Waters_(Ragnarok)" class="svgRegion">
    <g filter="url(#blur)">
<rect x="115" y="445" width="100" height="121" />
    </g>
    <text x="512" y="60">The Dark Waters</text>
</a>
<a href="/Swamp_of_the_Damned_(Ragnarok)" class="svgRegion">
    <g filter="url(#blur)">
<rect x="113" y="398" width="87" height="76" />
<rect x="161" y="418" width="43" height="53" />
    </g>
    <text x="512" y="60">Swamp of the Damned</text>
</a>
<a href="/The_Slopes_(Ragnarok)" class="svgRegion">
    <g filter="url(#blur)">
<rect x="212" y="423" width="81" height="118" />
<rect x="264" y="529" width="6" height="12" />
    </g>
    <text x="512" y="60">The Slopes</text>
</a>
<a href="/Wedlock_Peak_(Ragnarok)" class="svgRegion">
    <g filter="url(#blur)">
<rect x="189" y="212" width="68" height="46" />
    </g>
    <text x="512" y="60">Wedlock Peak</text>
</a>
<a href="/Reta_Forest_(Ragnarok)" class="svgRegion">
    <g filter="url(#blur)">
<rect x="245" y="533" width="92" height="56" />
<rect x="274" y="510" width="63" height="30" />
    </g>
    <text x="512" y="60">Reta Forest</text>
</a>
<a href="/Lowlands_(Ragnarok)" class="svgRegion">
    <g filter="url(#blur)">
<rect x="202" y="437" width="62" height="105" />
    </g>
    <text x="512" y="60">Lowlands</text>
</a>
<a href="/The_Ivory_Crag_(Ragnarok)" class="svgRegion">
    <g filter="url(#blur)">
<rect x="177" y="359" width="52" height="40" />
<rect x="199" y="398" width="41" height="40" />
<rect x="213" y="357" width="58" height="66" />
    </g>
    <text x="512" y="60">The Ivory Crag</text>
</a>
<a href="/Swamp_(Ragnarok)" class="svgRegion">
    <g filter="url(#blur)">
<rect x="70" y="371" width="37" height="27" />
<rect x="121" y="420" width="38" height="28" />
    </g>
    <text x="512" y="60">Swamp</text>
</a>
<a href="/The_Old_River_(Ragnarok)" class="svgRegion">
    <g filter="url(#blur)">
<rect x="248" y="192" width="61" height="48" />
    </g>
    <text x="512" y="60">The Old River</text>
</a>
<a href="/Hidana_(Ragnarok)" class="svgRegion">
    <g filter="url(#blur)">
<rect x="323" y="464" width="109" height="179" />
<rect x="348" y="445" width="57" height="126" />
<rect x="379" y="620" width="5" height="5" />
<rect x="284" y="567" width="97" height="58" />
<rect x="337" y="510" width="22" height="63" />
    </g>
    <text x="512" y="60">Hidana</text>
</a>
<a href="/Waterwall_of_the_Ancients_(Ragnarok)" class="svgRegion">
    <g filter="url(#blur)">
<rect x="437" y="333" width="134" height="117" />
<rect x="381" y="393" width="80" height="54" />
<rect x="367" y="330" width="101" height="48" />
    </g>
    <text x="512" y="60">Waterwall of the Ancients</text>
</a>
<a href="/Thea_Cliffs_(Ragnarok)" class="svgRegion">
    <g filter="url(#blur)">
<rect x="203" y="249" width="55" height="52" />
<rect x="230" y="248" width="21" height="31" />
<rect x="203" y="252" width="18" height="6" />
<rect x="206" y="283" width="12" height="13" />
<rect x="177" y="294" width="77" height="83" />
<rect x="213" y="338" width="48" height="31" />
<rect x="244" y="350" width="21" height="11" />
<rect x="230" y="298" width="14" height="23" />
    </g>
    <text x="512" y="60">Thea Cliffs</text>
</a>
<a href="/Sands_of_Change_(Ragnarok)" class="svgRegion">
    <g filter="url(#blur)">
<rect x="912" y="388" width="54" height="77" />
    </g>
    <text x="512" y="60">Sands of Change</text>
</a>
<a href="/Twoshuk_Forest_(Ragnarok)" class="svgRegion">
    <g filter="url(#blur)">
<rect x="234" y="248" width="69" height="104" />
<rect x="242" y="299" width="62" height="80" />
<rect x="252" y="289" width="16" height="14" />
    </g>
    <text x="512" y="60">Twoshuk Forest</text>
</a>
<a href="/Light_Redwoods_(Ragnarok)" class="svgRegion">
    <g filter="url(#blur)">
<rect x="809" y="259" width="90" height="95" />
    </g>
    <text x="512" y="60">Light Redwoods</text>
</a>
<a href="/Castle_of_the_Swamp_(Ragnarok)" class="svgRegion">
    <g filter="url(#blur)">
<rect x="391" y="157" width="29" height="19" />
    </g>
    <text x="512" y="60">Castle of the Swamp</text>
</a>
<a href="/Ingrids_Pass_(Ragnarok)" class="svgRegion">
    <g filter="url(#blur)">
<rect x="595" y="430" width="124" height="72" />
<rect x="618" y="422" width="57" height="59" />
    </g>
    <text x="512" y="60">Ingrids Pass</text>
</a>
<a href="/Vali_Ridge_(Ragnarok)" class="svgRegion">
    <g filter="url(#blur)">
<rect x="274" y="208" width="53" height="37" />
<rect x="277" y="237" width="7" height="11" />
<rect x="295" y="228" width="30" height="12" />
<rect x="302" y="235" width="22" height="33" />
    </g>
    <text x="512" y="60">Vali Ridge</text>
</a>
<a href="/Vali%27s_Earthfall_(Ragnarok)" class="svgRegion">
    <g filter="url(#blur)">
<rect x="321" y="212" width="60" height="40" />
<rect x="319" y="252" width="24" height="16" />
    </g>
    <text x="512" y="60">Vali&#x27;s Earthfall</text>
</a>
<a href="/JackKnife_Glacier_(Ragnarok)" class="svgRegion">
    <g filter="url(#blur)">
<rect x="297" y="268" width="51" height="59" />
    </g>
    <text x="512" y="60">JackKnife Glacier</text>
</a>
<a href="/Hibbert%27s_Summit_(Ragnarok)" class="svgRegion">
    <g filter="url(#blur)">
<rect x="328" y="268" width="44" height="39" />
<rect x="302" y="318" width="43" height="23" />
<rect x="328" y="291" width="35" height="42" />
    </g>
    <text x="512" y="60">Hibbert&#x27;s Summit</text>
</a>
<a href="/Cold_Eye_Ridge_(Ragnarok)" class="svgRegion">
    <g filter="url(#blur)">
<rect x="345" y="270" width="53" height="34" />
<rect x="386" y="276" width="13" height="2" />
<rect x="322" y="290" width="74" height="74" />
<rect x="362" y="281" width="13" height="14" />
<rect x="303" y="340" width="36" height="27" />
<rect x="303" y="339" width="24" height="5" />
<rect x="302" y="318" width="8" height="22" />
<rect x="303" y="365" width="12" height="14" />
    </g>
    <text x="512" y="60">Cold Eye Ridge</text>
</a>
<a href="/Mejo_Plains_(Ragnarok)" class="svgRegion">
    <g filter="url(#blur)">
<rect x="417" y="157" width="57" height="38" />
<rect x="406" y="170" width="16" height="11" />
    </g>
    <text x="512" y="60">Mejo Plains</text>
</a>
<a href="/The_Dead_Bluffs_(Ragnarok)" class="svgRegion">
    <g filter="url(#blur)">
<rect x="381" y="174" width="49" height="79" />
<rect x="381" y="237" width="6" height="7" />
    </g>
    <text x="512" y="60">The Dead Bluffs</text>
</a>
<a href="/Edric_Rapids_(Ragnarok)" class="svgRegion">
    <g filter="url(#blur)">
<rect x="427" y="194" width="69" height="41" />
<rect x="426" y="183" width="33" height="12" />
<rect x="455" y="220" width="44" height="30" />
<rect x="453" y="229" width="9" height="6" />
    </g>
    <text x="512" y="60">Edric Rapids</text>
</a>
<a href="/Oscari_Pass_(Ragnarok)" class="svgRegion">
    <g filter="url(#blur)">
<rect x="380" y="243" width="19" height="33" />
<rect x="328" y="251" width="53" height="24" />
    </g>
    <text x="512" y="60">Oscari Pass</text>
</a>
<a href="/Wyvern_Forests_(Ragnarok)" class="svgRegion">
    <g filter="url(#blur)">
<rect x="749" y="207" width="61" height="44" />
    </g>
    <text x="512" y="60">Wyvern Forests</text>
</a>
<a href="/Oluf_Jungle_(Ragnarok)" class="svgRegion">
    <g filter="url(#blur)">
<rect x="118" y="100" width="149" height="89" />
    </g>
    <text x="512" y="60">Oluf Jungle</text>
</a>
<a href="/Strip_of_the_Bold_(Ragnarok)" class="svgRegion">
    <g filter="url(#blur)">
<rect x="780" y="63" width="115" height="38" />
<rect x="778" y="89" width="16" height="12" />
    </g>
    <text x="512" y="60">Strip of the Bold</text>
</a>
<a href="/Causeway_of_the_Ancients_(Ragnarok)" class="svgRegion">
    <g filter="url(#blur)">
<rect x="905" y="200" width="69" height="41" />
<rect x="934" y="132" width="54" height="72" />
<rect x="936" y="181" width="17" height="27" />
    </g>
    <text x="512" y="60">Causeway of the Ancients</text>
</a>
<a href="/Lower_Highlands_(Ragnarok)" class="svgRegion">
    <g filter="url(#blur)">
<rect x="893" y="106" width="41" height="108" />
<rect x="884" y="174" width="18" height="39" />
    </g>
    <text x="512" y="60">Lower Highlands</text>
</a>
<a href="/Elysian_Flow_(Ragnarok)" class="svgRegion">
    <g filter="url(#blur)">
<rect x="855" y="98" width="35" height="48" />
<rect x="817" y="110" width="44" height="84" />
<rect x="810" y="168" width="27" height="60" />
<rect x="834" y="113" width="46" height="70" />
    </g>
    <text x="512" y="60">Elysian Flow</text>
</a>
<a href="/Upper_Highlands_(Ragnarok)" class="svgRegion">
    <g filter="url(#blur)">
<rect x="842" y="101" width="48" height="122" />
<rect x="874" y="156" width="9" height="67" />
<rect x="838" y="221" width="10" height="11" />
<rect x="823" y="149" width="44" height="81" />
<rect x="823" y="211" width="4" height="17" />
    </g>
    <text x="512" y="60">Upper Highlands</text>
</a>
<a href="/Viking_Bay_(Ragnarok)" class="svgRegion">
    <g filter="url(#blur)">
<rect x="205" y="94" width="145" height="83" />
<rect x="215" y="84" width="63" height="24" />
<rect x="268" y="135" width="75" height="79" />
    </g>
    <text x="512" y="60">Viking Bay</text>
</a>
<a href="/Elysian_Fields_(Ragnarok)" class="svgRegion">
    <g filter="url(#blur)">
<rect x="781" y="91" width="82" height="91" />
<rect x="815" y="140" width="26" height="40" />
    </g>
    <text x="512" y="60">Elysian Fields</text>
</a>
<a href="/Freyja_Plains_(Ragnarok)" class="svgRegion">
    <g filter="url(#blur)">
<rect x="339" y="119" width="55" height="105" />
<rect x="336" y="170" width="9" height="45" />
    </g>
    <text x="512" y="60">Freyja Plains</text>
</a>
<a href="/Knuffel_Lake_(Ragnarok)" class="svgRegion">
    <g filter="url(#blur)">
<rect x="819" y="233" width="24" height="24" />
    </g>
    <text x="512" y="60">Knuffel Lake</text>
</a>
<a href="/Pelagornis_Bay_(Ragnarok)" class="svgRegion">
    <g filter="url(#blur)">
<rect x="343" y="75" width="194" height="48" />
<rect x="343" y="119" width="48" height="8" />
<rect x="363" y="47" width="148" height="49" />
    </g>
    <text x="512" y="60">Pelagornis Bay</text>
</a>
<a href="/Western_Highlands_(Ragnarok)" class="svgRegion">
    <g filter="url(#blur)">
<rect x="706" y="96" width="86" height="92" />
<rect x="778" y="91" width="16" height="10" />
<rect x="759" y="139" width="45" height="53" />
<rect x="776" y="127" width="20" height="42" />
    </g>
    <text x="512" y="60">Western Highlands</text>
</a>
<a href="/The_Deep_Woods_(Ragnarok)" class="svgRegion">
    <g filter="url(#blur)">
<rect x="788" y="383" width="30" height="38" />
<rect x="712" y="349" width="106" height="42" />
<rect x="801" y="383" width="49" height="49" />
    </g>
    <text x="512" y="60">The Deep Woods</text>
</a>
<a href="/Glass_Lake_(Ragnarok)" class="svgRegion">
    <g filter="url(#blur)">
<rect x="719" y="387" width="38" height="66" />
<rect x="655" y="382" width="98" height="63" />
    </g>
    <text x="512" y="60">Glass Lake</text>
</a>
<a href="/Raven%27s_Peak_(Ragnarok)" class="svgRegion">
    <g filter="url(#blur)">
<rect x="243" y="166" width="9" height="11" />
    </g>
    <text x="512" y="60">Raven&#x27;s Peak</text>
</a>
<a href="/Upper_Pelagornis_Bay_(Ragnarok)" class="svgRegion">
    <g filter="url(#blur)">
<rect x="391" y="102" width="117" height="42" />
    </g>
    <text x="512" y="60">Upper Pelagornis Bay</text>
</a>
<a href="/Lair_of_The_Mask_(Ragnarok)" class="svgRegion">
    <g filter="url(#blur)">
<rect x="174" y="0" width="42" height="31" />
    </g>
    <text x="512" y="60">Lair of The Mask</text>
</a>
<a href="/Monkeyheim_(Ragnarok)" class="svgRegion">
    <g filter="url(#blur)">
<rect x="490" y="292" width="15" height="15" />
    </g>
    <text x="512" y="60">Monkeyheim﻿</text>
</a>
<a href="/Lake_Voges_(Ragnarok)" class="svgRegion">
    <g filter="url(#blur)">
<rect x="364" y="528" width="22" height="22" />
    </g>
    <text x="512" y="60">Lake Voges</text>
</a>
<a href="/Taosst_Creek_(Ragnarok)" class="svgRegion">
    <g filter="url(#blur)">
<rect x="338" y="472" width="43" height="61" />
    </g>
    <text x="512" y="60">Taosst Creek</text>
</a>
<a href="/WhiteDove_Falls_(Ragnarok)" class="svgRegion">
    <g filter="url(#blur)">
<rect x="468" y="218" width="42" height="43" />
    </g>
    <text x="512" y="60">WhiteDove Falls</text>
</a>
<a href="/Jarl_River_(Ragnarok)" class="svgRegion">
    <g filter="url(#blur)">
<rect x="135" y="189" width="53" height="66" />
    </g>
    <text x="512" y="60">Jarl River</text>
</a>
<a href="/Olga_Beach_(Ragnarok)" class="svgRegion">
    <g filter="url(#blur)">
<rect x="84" y="154" width="88" height="100" />
    </g>
    <text x="512" y="60">Olga Beach</text>
</a>
<a href="/Lower_Craigs_(Ragnarok)" class="svgRegion">
    <g filter="url(#blur)">
<rect x="914" y="91" width="41" height="52" />
    </g>
    <text x="512" y="60">Lower Craigs</text>
</a>
<a href="/Bay_of_Hope_(Ragnarok)" class="svgRegion">
    <g filter="url(#blur)">
<rect x="875" y="196" width="33" height="31" />
    </g>
    <text x="512" y="60">Bay of Hope</text>
</a>
<a href="/Honor_Ridge_(Ragnarok)" class="svgRegion">
    <g filter="url(#blur)">
<rect x="908" y="143" width="38" height="71" />
    </g>
    <text x="512" y="60">Honor Ridge</text>
</a>
<a href="/Cliffs_of_Past_(Ragnarok)" class="svgRegion">
    <g filter="url(#blur)">
<rect x="875" y="110" width="33" height="113" />
    </g>
    <text x="512" y="60">Cliffs of Past</text>
</a>
<a href="/Highland_Sands_(Ragnarok)" class="svgRegion">
    <g filter="url(#blur)">
<rect x="725" y="73" width="58" height="49" />
    </g>
    <text x="512" y="60">Highland Sands</text>
</a>
<a href="/Snow_(Ragnarok)" class="svgRegion">
    <g filter="url(#blur)">
<rect x="534" y="213" width="300" height="273" />
<rect x="398" y="445" width="150" height="122" />
<rect x="499" y="316" width="117" height="141" />
<rect x="467" y="392" width="68" height="61" />
<rect x="398" y="515" width="115" height="130" />
<rect x="485" y="402" width="189" height="126" />
<rect x="489" y="524" width="23" height="24" />
<rect x="668" y="377" width="48" height="39" />
<rect x="398" y="445" width="156" height="199" />
<rect x="499" y="302" width="154" height="156" />
<rect x="467" y="392" width="68" height="61" />
<rect x="616" y="208" width="93" height="108" />
<rect x="512" y="218" width="242" height="306" />
<rect x="674" y="223" width="271" height="179" />
<rect x="668" y="377" width="48" height="39" />
<rect x="435" y="548" width="78" height="97" />
    </g>
    <text x="512" y="60">Snow</text>
</a>
<a href="/Asgeir_Waters_(Ragnarok)" class="svgRegion">
    <g filter="url(#blur)">
<rect x="154" y="258" width="59" height="76" />
<rect x="491" y="238" width="52" height="46" />
    </g>
    <text x="512" y="60">Asgeir Waters</text>
</a>
<a href="/Slosher_Slope_(Ragnarok)" class="svgRegion">
    <g filter="url(#blur)">
<rect x="135" y="240" width="68" height="50" />
    </g>
    <text x="512" y="60">Slosher Slope</text>
</a>
<a href="/Slope_of_the_Gods_(Ragnarok)" class="svgRegion">
    <g filter="url(#blur)">
<rect x="432" y="256" width="110" height="75" />
    </g>
    <text x="512" y="60">Slope of the Gods</text>
</a>
<a href="/Upper_Hidana_(Ragnarok)" class="svgRegion">
    <g filter="url(#blur)">
<rect x="316" y="394" width="89" height="78" />
    </g>
    <text x="512" y="60">Upper Hidana</text>
</a>
<a href="/The_Burning_Mists_(Ragnarok)" class="svgRegion">
    <g filter="url(#blur)">
<rect x="464" y="277" width="107" height="94" />
    </g>
    <text x="512" y="60">The Burning Mists</text>
</a>
<a href="/Northern_Swamp_(Ragnarok)" class="svgRegion">
    <g filter="url(#blur)">
<rect x="63" y="344" width="116" height="93" />
    </g>
    <text x="512" y="60">Northern Swamp</text>
</a>
<a href="/Little_Snow_Top_(Ragnarok)" class="svgRegion">
    <g filter="url(#blur)">
<rect x="281" y="459" width="47" height="64" />
<rect x="288" y="472" width="33" height="39" />
    </g>
    <text x="512" y="60">Little Snow Top</text>
</a>
<a href="/The_Sacred_Bluff_(Ragnarok)" class="svgRegion">
    <g filter="url(#blur)">
<rect x="240" y="410" width="76" height="66" />
    </g>
    <text x="512" y="60">The Sacred Bluff</text>
</a>
<a href="/Dag_Rock_Valley_(Ragnarok)" class="svgRegion">
    <g filter="url(#blur)">
<rect x="395" y="235" width="39" height="95" />
<rect x="395" y="235" width="39" height="87" />
<rect x="432" y="278" width="27" height="52" />
<rect x="454" y="321" width="9" height="9" />
    </g>
    <text x="512" y="60">Dag Rock Valley</text>
</a>
<a href="/Southern_Flats_(Ragnarok)" class="svgRegion">
    <g filter="url(#blur)">
<rect x="763" y="179" width="57" height="45" />
    </g>
    <text x="512" y="60">Southern Flats</text>
</a>
<a href="/Highlands_Bay_(Ragnarok)" class="svgRegion">
    <g filter="url(#blur)">
<rect x="888" y="73" width="38" height="40" />
    </g>
    <text x="512" y="60">Highlands Bay</text>
</a>
<a href="/Coastal_Redwoods_(Ragnarok)" class="svgRegion">
    <g filter="url(#blur)">
<rect x="875" y="223" width="40" height="46" />
<rect x="877" y="255" width="63" height="58" />
    </g>
    <text x="512" y="60">Coastal Redwoods</text>
</a>
<a href="/Joannas_Inlet_(Ragnarok)" class="svgRegion">
    <g filter="url(#blur)">
<rect x="899" y="306" width="41" height="56" />
<rect x="899" y="306" width="62" height="97" />
    </g>
    <text x="512" y="60">Joannas Inlet</text>
</a>
<a href="/Costal_Rise_(Ragnarok)" class="svgRegion">
    <g filter="url(#blur)">
<rect x="855" y="255" width="65" height="85" />
    </g>
    <text x="512" y="60">Costal Rise</text>
</a>
<a href="/Crumbling_Slopes_(Ragnarok)" class="svgRegion">
    <g filter="url(#blur)">
<rect x="844" y="221" width="33" height="40" />
    </g>
    <text x="512" y="60">Crumbling Slopes</text>
</a>
<a href="/The_Greater_Cliffs_(Ragnarok)" class="svgRegion">
    <g filter="url(#blur)">
<rect x="852" y="340" width="47" height="41" />
<rect x="858" y="362" width="54" height="43" />
<rect x="864" y="388" width="48" height="71" />
    </g>
    <text x="512" y="60">The Greater Cliffs</text>
</a>
<a href="/The_Source_(Ragnarok)" class="svgRegion">
    <g filter="url(#blur)">
<rect x="818" y="355" width="46" height="57" />
    </g>
    <text x="512" y="60">The Source</text>
</a>
<a href="/Lower_Redwoods_(Ragnarok)" class="svgRegion">
    <g filter="url(#blur)">
<rect x="797" y="345" width="55" height="38" />
    </g>
    <text x="512" y="60">Lower Redwoods</text>
</a>
<a href="/Zelus_Reef_(Ragnarok)" class="svgRegion">
    <g filter="url(#blur)">
<rect x="805" y="0" width="62" height="31" />
    </g>
    <text x="512" y="60">Zelus Reef</text>
</a>
<a href="/The_Pit_of_Dreen_(Ragnarok)" class="svgRegion">
    <g filter="url(#blur)">
<rect x="0" y="384" width="25" height="163" />
    </g>
    <text x="512" y="60">The Pit of Dreen</text>
</a>
<a href="/Ake_Ridge_(Ragnarok)" class="svgRegion">
    <g filter="url(#blur)">
<rect x="130" y="176" width="39" height="17" />
    </g>
    <text x="512" y="60">Ake Ridge</text>
</a>
<a href="/Twoshuk_Bluff_(Ragnarok)" class="svgRegion">
    <g filter="url(#blur)">
<rect x="242" y="309" width="44" height="59" />
<rect x="242" y="293" width="21" height="23" />
    </g>
    <text x="512" y="60">Twoshuk Bluff</text>
</a>
<a href="/Balder%27s_Pass_(Ragnarok)" class="svgRegion">
    <g filter="url(#blur)">
<rect x="246" y="135" width="26" height="11" />
<rect x="255" y="170" width="30" height="19" />
<rect x="261" y="144" width="22" height="29" />
<rect x="271" y="144" width="8" height="19" />
    </g>
    <text x="512" y="60">Balder&#x27;s Pass</text>
</a>
<a href="/Whisker%27s_Flats_(Ragnarok)" class="svgRegion">
    <g filter="url(#blur)">
<rect x="202" y="277" width="22" height="41" />
<rect x="221" y="275" width="5" height="16" />
    </g>
    <text x="512" y="60">Whisker&#x27;s Flats</text>
</a>
<a href="/The_Forbidden_Grotto_(Ragnarok)" class="svgRegion">
    <g filter="url(#blur)">
<rect x="232" y="223" width="26" height="8" />
<rect x="232" y="230" width="7" height="3" />
    </g>
    <text x="512" y="60">The Forbidden Grotto</text>
</a>
<a href="/Upper_Dagmar_Lake_(Ragnarok)" class="svgRegion">
    <g filter="url(#blur)">
<rect x="169" y="211" width="46" height="36" />
<rect x="170" y="200" width="48" height="29" />
<rect x="176" y="234" width="26" height="14" />
<rect x="199" y="245" width="7" height="6" />
<rect x="168" y="200" width="21" height="11" />
<rect x="189" y="199" width="25" height="30" />
<rect x="169" y="206" width="27" height="22" />
    </g>
    <text x="512" y="60">Upper Dagmar Lake</text>
</a>
<a href="/Erlend_Rocks_(Ragnarok)" class="svgRegion">
    <g filter="url(#blur)">
<rect x="156" y="186" width="21" height="20" />
<rect x="189" y="175" width="16" height="12" />
<rect x="160" y="178" width="37" height="11" />
    </g>
    <text x="512" y="60">Erlend Rocks</text>
</a>
<a href="/Barnji_Plateau_(Ragnarok)" class="svgRegion">
    <g filter="url(#blur)">
<rect x="204" y="158" width="49" height="19" />
<rect x="201" y="176" width="15" height="6" />
<rect x="215" y="139" width="33" height="33" />
<rect x="201" y="172" width="15" height="10" />
    </g>
    <text x="512" y="60">Barnji Plateau</text>
</a>
<a href="/Redwoods_(Ragnarok)" class="svgRegion">
    <g filter="url(#blur)">
<rect x="702" y="377" width="58" height="59" />
<rect x="889" y="335" width="11" height="23" />
<rect x="839" y="366" width="20" height="26" />
<rect x="682" y="429" width="41" height="33" />
<rect x="757" y="406" width="47" height="47" />
<rect x="753" y="387" width="36" height="66" />
<rect x="815" y="395" width="16" height="16" />
<rect x="866" y="304" width="18" height="19" />
<rect x="755" y="389" width="29" height="27" />
<rect x="688" y="398" width="18" height="39" />
<rect x="861" y="395" width="24" height="24" />
<rect x="730" y="382" width="22" height="23" />
<rect x="789" y="387" width="18" height="27" />
<rect x="809" y="224" width="38" height="56" />
<rect x="757" y="405" width="108" height="51" />
<rect x="857" y="321" width="4" height="6" />
<rect x="856" y="320" width="3" height="2" />
<rect x="859" y="326" width="3" height="3" />
<rect x="845" y="328" width="7" height="8" />
<rect x="844" y="331" width="8" height="8" />
<rect x="845" y="331" width="7" height="5" />
<rect x="844" y="335" width="4" height="3" />
<rect x="846" y="322" width="13" height="10" />
<rect x="852" y="322" width="5" height="6" />
<rect x="857" y="326" width="2" height="2" />
<rect x="857" y="326" width="2" height="2" />
<rect x="842" y="326" width="4" height="3" />
<rect x="844" y="329" width="2" height="2" />
<rect x="842" y="329" width="3" height="6" />
<rect x="843" y="329" width="2" height="3" />
<rect x="842" y="334" width="6" height="9" />
<rect x="832" y="342" width="6" height="5" />
<rect x="834" y="343" width="4" height="4" />
<rect x="841" y="331" width="1" height="3" />
<rect x="837" y="333" width="6" height="9" />
<rect x="835" y="339" width="5" height="5" />
<rect x="840" y="336" width="3" height="6" />
<rect x="841" y="333" width="1" height="1" />
    </g>
    <text x="512" y="60">Redwoods</text>
</a>
<a href="/Ivan%27s_boats_for_less_(Ragnarok)" class="svgRegion">
    <g filter="url(#blur)">
<rect x="780" y="86" width="5" height="8" />
    </g>
    <text x="512" y="60">Ivan&#x27;s boats for less</text>
</a>
<a href="/Mithrim%27s_Fall_(Ragnarok)" class="svgRegion">
    <g filter="url(#blur)">
<rect x="461" y="156" width="86" height="67" />
<rect x="469" y="110" width="77" height="46" />
    </g>
    <text x="512" y="60">Mithrim&#x27;s Fall</text>
</a>
<a href="/Heru_ur_Rise_(Ragnarok)" class="svgRegion">
    <g filter="url(#blur)">
<rect x="430" y="230" width="47" height="65" />
    </g>
    <text x="512" y="60">Heru ur Rise</text>
</a>
<a href="/Casun_Islets_(Ragnarok)" class="svgRegion">
    <g filter="url(#blur)">
<rect x="390" y="51" width="91" height="31" />
    </g>
    <text x="512" y="60">Casun Islets</text>
</a>
<a href="/Jinx_Point_(Ragnarok)" class="svgRegion">
    <g filter="url(#blur)">
<rect x="297" y="122" width="34" height="31" />
    </g>
    <text x="512" y="60">Jinx Point</text>
</a>
<a href="/Meshky%27s_Homestead_(Ragnarok)" class="svgRegion">
    <g filter="url(#blur)">
<rect x="892" y="146" width="18" height="14" />
    </g>
    <text x="512" y="60">Meshky&#x27;s Homestead</text>
</a>
<a href="/Highlands_Lookout_(Ragnarok)" class="svgRegion">
    <g filter="url(#blur)">
<rect x="934" y="179" width="7" height="10" />
    </g>
    <text x="512" y="60">Highlands Lookout</text>
</a>
<a href="/Highlands_(Ragnarok)" class="svgRegion">
    <g filter="url(#blur)">
<rect x="837" y="158" width="8" height="4" />
<rect x="846" y="150" width="6" height="6" />
<rect x="846" y="150" width="5" height="6" />
<rect x="789" y="111" width="26" height="18" />
<rect x="863" y="114" width="14" height="8" />
<rect x="741" y="132" width="33" height="21" />
<rect x="866" y="103" width="7" height="7" />
<rect x="849" y="123" width="16" height="21" />
<rect x="849" y="131" width="13" height="13" />
<rect x="848" y="131" width="4" height="6" />
<rect x="851" y="123" width="14" height="16" />
    </g>
    <text x="512" y="60">Highlands</text>
</a>
<a href="/Katan_Falls_(Ragnarok)" class="svgRegion">
    <g filter="url(#blur)">
<rect x="812" y="222" width="11" height="11" />
    </g>
    <text x="512" y="60">Katan Falls</text>
</a>
<a href="/Nataziel_Spires_(Ragnarok)" class="svgRegion">
    <g filter="url(#blur)">
<rect x="813" y="152" width="39" height="37" />
    </g>
    <text x="512" y="60">Nataziel Spires</text>
</a>
<a href="/Perch_of_the_Adventurer_(Ragnarok)" class="svgRegion">
    <g filter="url(#blur)">
<rect x="916" y="339" width="19" height="16" />
    </g>
    <text x="512" y="60">Perch of the Adventurer</text>
</a>
<a href="/Timpanogos_(Ragnarok)" class="svgRegion">
    <g filter="url(#blur)">
<rect x="533" y="699" width="71" height="66" />
    </g>
    <text x="512" y="60">Timpanogos</text>
</a>
<a href="/Hidden_Springs_(Ragnarok)" class="svgRegion">
    <g filter="url(#blur)">
<rect x="571" y="635" width="93" height="173" />
    </g>
    <text x="512" y="60">Hidden Springs</text>
</a>
<a href="/Forbidden_Valley_(Ragnarok)" class="svgRegion">
    <g filter="url(#blur)">
<rect x="578" y="615" width="81" height="174" />
<rect x="566" y="789" width="49" height="173" />
    </g>
    <text x="512" y="60">Forbidden Valley</text>
</a>
<a href="/Pepper%27s_Reef_(Ragnarok)" class="svgRegion">
    <g filter="url(#blur)">
<rect x="928" y="688" width="96" height="336" />
    </g>
    <text x="512" y="60">Pepper&#x27;s Reef</text>
</a>
<a href="/SW_(Ragnarok)" class="svgRegion">
    <g filter="url(#blur)">
<rect x="208" y="662" width="94" height="104" />
<rect x="86" y="775" width="60" height="34" />
<rect x="275" y="610" width="62" height="66" />
<rect x="85" y="632" width="60" height="73" />
<rect x="351" y="809" width="93" height="135" />
<rect x="351" y="740" width="144" height="69" />
<rect x="199" y="583" width="66" height="117" />
<rect x="366" y="940" width="26" height="20" />
<rect x="299" y="627" width="101" height="61" />
<rect x="400" y="611" width="68" height="102" />
<rect x="403" y="666" width="49" height="66" />
<rect x="260" y="688" width="120" height="66" />
<rect x="256" y="754" width="90" height="36" />
<rect x="179" y="724" width="77" height="66" />
<rect x="272" y="899" width="47" height="43" />
<rect x="134" y="580" width="47" height="44" />
<rect x="82" y="713" width="34" height="28" />
    </g>
    <text x="512" y="60">SW</text>
</a>
<a href="/Rashaka_Savanna_(Ragnarok)" class="svgRegion">
    <g filter="url(#blur)">
<rect x="104" y="809" width="168" height="152" />
    </g>
    <text x="512" y="60">Rashaka Savanna</text>
</a>
<a href="/SW_Tropics_(Ragnarok)" class="svgRegion">
    <g filter="url(#blur)">
<rect x="95" y="653" width="364" height="334" />
    </g>
    <text x="512" y="60">SW Tropics</text>
</a>
<a href="/Spear_of_the_Gods_(Ragnarok)" class="svgRegion">
    <g filter="url(#blur)">
<rect x="957" y="170" width="20" height="12" />
    </g>
    <text x="512" y="60">Spear of the Gods</text>
</a>
<a href="/Hidden_Cavern_(Ragnarok)" class="svgRegion">
    <g filter="url(#blur)">
<rect x="927" y="174" width="23" height="22" />
    </g>
    <text x="512" y="60">Hidden Cavern</text>
</a>
<a href="/Fifer_Plateaus_(Ragnarok)" class="svgRegion">
    <g filter="url(#blur)">
<rect x="476" y="789" width="90" height="173" />
    </g>
    <text x="512" y="60">Fifer Plateaus</text>
</a>
<a href="/Thunder_Peak_(Ragnarok)" class="svgRegion">
    <g filter="url(#blur)">
<rect x="614" y="789" width="136" height="173" />
    </g>
    <text x="512" y="60">Thunder Peak</text>
</a>
<a href="/Deathsands_(Ragnarok)" class="svgRegion">
    <g filter="url(#blur)">
<rect x="720" y="564" width="238" height="398" />
    </g>
    <text x="512" y="60">Deathsands</text>
</a>
<a href="/Scotland_(Ragnarok)" class="svgRegion">
    <g filter="url(#blur)">
<rect x="813" y="218" width="8" height="4" />
    </g>
    <text x="512" y="60">Scotland</text>
</a>
<a href="/Dragonmalte_Trench_(Ragnarok)" class="svgRegion">
    <g filter="url(#blur)">
<rect x="697" y="207" width="55" height="31" />
<rect x="743" y="196" width="26" height="26" />
<rect x="733" y="177" width="23" height="25" />
<rect x="746" y="186" width="24" height="26" />
<rect x="707" y="132" width="25" height="31" />
<rect x="718" y="127" width="7" height="12" />
<rect x="707" y="132" width="25" height="25" />
<rect x="712" y="127" width="9" height="18" />
<rect x="712" y="127" width="13" height="12" />
<rect x="712" y="137" width="13" height="8" />
<rect x="717" y="127" width="3" height="4" />
<rect x="713" y="151" width="38" height="38" />
    </g>
    <text x="512" y="60">Dragonmalte Trench</text>
</a>
<a href="/Maple_Roost_(Ragnarok)" class="svgRegion">
    <g filter="url(#blur)">
<rect x="388" y="129" width="64" height="24" />
    </g>
    <text x="512" y="60">Maple Roost</text>
</a>
<a href="/The_Tyrannogon_(Ragnarok)" class="svgRegion">
    <g filter="url(#blur)">
<rect x="280" y="156" width="10" height="15" />
    </g>
    <text x="512" y="60">The Tyrannogon</text>
</a>
<a href="/MurderSnow_(Ragnarok)" class="svgRegion">
    <g filter="url(#blur)">
<rect x="421" y="460" width="69" height="153" />
<rect x="469" y="436" width="147" height="80" />
<rect x="477" y="512" width="12" height="29" />
<rect x="481" y="538" width="2" height="19" />
<rect x="487" y="291" width="191" height="166" />
<rect x="577" y="291" width="101" height="137" />
<rect x="619" y="267" width="70" height="76" />
<rect x="487" y="405" width="61" height="52" />
<rect x="480" y="435" width="32" height="24" />
<rect x="656" y="263" width="134" height="80" />
<rect x="620" y="337" width="103" height="90" />
<rect x="689" y="336" width="50" height="31" />
<rect x="661" y="365" width="32" height="27" />
<rect x="421" y="460" width="69" height="153" />
<rect x="469" y="436" width="147" height="80" />
<rect x="477" y="512" width="12" height="29" />
<rect x="481" y="538" width="2" height="19" />
<rect x="559" y="172" width="233" height="274" />
<rect x="559" y="343" width="102" height="103" />
<rect x="605" y="392" width="56" height="46" />
<rect x="607" y="427" width="13" height="11" />
<rect x="487" y="343" width="132" height="114" />
<rect x="487" y="405" width="61" height="52" />
<rect x="480" y="435" width="32" height="24" />
    </g>
    <text x="512" y="60">MurderSnow</text>
</a>
<a href="/Murder_Murder_Snow_(Ragnarok)" class="svgRegion">
    <g filter="url(#blur)">
<rect x="421" y="460" width="69" height="153" />
<rect x="469" y="436" width="147" height="80" />
<rect x="477" y="512" width="12" height="29" />
<rect x="481" y="538" width="2" height="19" />
<rect x="487" y="291" width="191" height="166" />
<rect x="577" y="291" width="101" height="137" />
<rect x="619" y="267" width="70" height="76" />
<rect x="487" y="405" width="61" height="52" />
<rect x="660" y="263" width="125" height="70" />
<rect x="620" y="333" width="108" height="94" />
<rect x="723" y="333" width="49" height="4" />
<rect x="689" y="336" width="50" height="31" />
<rect x="661" y="365" width="32" height="27" />
<rect x="421" y="460" width="69" height="153" />
<rect x="469" y="436" width="147" height="80" />
<rect x="477" y="512" width="12" height="29" />
<rect x="481" y="538" width="2" height="19" />
<rect x="559" y="172" width="233" height="274" />
<rect x="559" y="326" width="116" height="120" />
<rect x="605" y="392" width="56" height="46" />
<rect x="607" y="427" width="13" height="11" />
<rect x="487" y="343" width="132" height="114" />
<rect x="487" y="405" width="61" height="52" />
<rect x="480" y="435" width="32" height="24" />
    </g>
    <text x="512" y="60">Murder Murder Snow</text>
</a>
<a href="/Snow_Peak_(Ragnarok)" class="svgRegion">
    <g filter="url(#blur)">
<rect x="552" y="401" width="17" height="17" />
<rect x="742" y="309" width="27" height="20" />
<rect x="625" y="404" width="28" height="26" />
<rect x="635" y="282" width="27" height="40" />
    </g>
    <text x="512" y="60">Snow Peak</text>
</a>
<a href="/B%C3%A1i_L%C3%A1ng_Cavern_(Ragnarok)" class="svgRegion">
    <g filter="url(#blur)">
<rect x="610" y="333" width="63" height="66" />
    </g>
    <text x="512" y="60">Bái Láng Cavern</text>
</a>
<a href="/Donovan_Bridge_(Ragnarok)" class="svgRegion">
    <g filter="url(#blur)">
<rect x="198" y="168" width="28" height="17" />
    </g>
    <text x="512" y="60">Donovan Bridge</text>
</a>
<a href="/Dawson%27s_Bridge_(Ragnarok)" class="svgRegion">
    <g filter="url(#blur)">
<rect x="180" y="210" width="8" height="28" />
    </g>
    <text x="512" y="60">Dawson&#x27;s Bridge</text>
</a>
<a href="/Ebling_plateaus_(Ragnarok)" class="svgRegion">
    <g filter="url(#blur)">
<rect x="439" y="349" width="38" height="44" />
    </g>
    <text x="512" y="60">Ebling plateaus</text>
</a>
<a href="/Ice_Lake_(Ragnarok)" class="svgRegion">
    <g filter="url(#blur)">
<rect x="494" y="429" width="38" height="35" />
<rect x="518" y="429" width="3" height="7" />
<rect x="500" y="429" width="22" height="9" />
<rect x="610" y="333" width="63" height="66" />
    </g>
    <text x="512" y="60">Ice Lake</text>
</a>
<a href="/Snow_Forest_(Ragnarok)" class="svgRegion">
    <g filter="url(#blur)">
<rect x="596" y="444" width="13" height="26" />
<rect x="529" y="466" width="27" height="21" />
<rect x="783" y="249" width="36" height="40" />
<rect x="800" y="249" width="19" height="40" />
<rect x="783" y="249" width="36" height="28" />
<rect x="703" y="331" width="90" height="52" />
<rect x="513" y="462" width="26" height="11" />
<rect x="524" y="484" width="13" height="24" />
<rect x="785" y="286" width="44" height="23" />
<rect x="560" y="409" width="37" height="28" />
<rect x="721" y="293" width="21" height="27" />
<rect x="666" y="357" width="26" height="41" />
<rect x="691" y="357" width="8" height="10" />
<rect x="679" y="358" width="11" height="13" />
<rect x="680" y="357" width="19" height="11" />
<rect x="677" y="357" width="18" height="11" />
<rect x="679" y="357" width="20" height="5" />
<rect x="640" y="324" width="34" height="26" />
<rect x="577" y="345" width="23" height="36" />
<rect x="521" y="426" width="18" height="25" />
<rect x="438" y="465" width="14" height="13" />
<rect x="570" y="461" width="19" height="8" />
<rect x="556" y="459" width="11" height="11" />
<rect x="585" y="443" width="9" height="15" />
    </g>
    <text x="512" y="60">Snow Forest</text>
</a>
<a href="/SnowCherub_Lake_(Ragnarok)" class="svgRegion">
    <g filter="url(#blur)">
<rect x="791" y="288" width="11" height="19" />
<rect x="429" y="289" width="363" height="109" />
    </g>
    <text x="512" y="60">SnowCherub Lake</text>
</a>
<a href="/Test_hot_(Ragnarok)" class="svgRegion">
    <g filter="url(#blur)">
<rect x="557" y="167" width="20" height="14" />
<rect x="565" y="178" width="8" height="6" />
<rect x="573" y="175" width="6" height="5" />
<rect x="571" y="171" width="7" height="7" />
<rect x="554" y="193" width="7" height="8" />
<rect x="532" y="210" width="8" height="8" />
<rect x="548" y="246" width="7" height="3" />
<rect x="527" y="231" width="10" height="10" />
<rect x="540" y="225" width="4" height="4" />
<rect x="547" y="228" width="4" height="7" />
    </g>
    <text x="512" y="60">Test hot</text>
</a>
<a href="/Kamaka_Ice_Lake_(Ragnarok)" class="svgRegion">
    <g filter="url(#blur)">
<rect x="272" y="228" width="90" height="58" />
    </g>
    <text x="512" y="60">Kamaka Ice Lake</text>
</a>
<a href="/The_Passages_(Ragnarok)" class="svgRegion">
    <g filter="url(#blur)">
<rect x="313" y="275" width="67" height="57" />
    </g>
    <text x="512" y="60">The Passages</text>
</a>
<a href="/Ice_Queen_Nest_(Ragnarok)" class="svgRegion">
    <g filter="url(#blur)">
<rect x="425" y="305" width="21" height="19" />
<rect x="422" y="279" width="40" height="50" />
    </g>
    <text x="512" y="60">Ice Queen Nest</text>
</a>
<a href="/Glacier_Hall_(Ragnarok)" class="svgRegion">
    <g filter="url(#blur)">
<rect x="310" y="276" width="50" height="46" />
<rect x="310" y="291" width="22" height="17" />
<rect x="267" y="230" width="80" height="75" />
    </g>
    <text x="512" y="60">Glacier Hall</text>
</a>
<a href="/The_Tunnels_(Ragnarok)" class="svgRegion">
    <g filter="url(#blur)">
<rect x="323" y="296" width="61" height="67" />
<rect x="342" y="353" width="38" height="10" />
    </g>
    <text x="512" y="60">The Tunnels</text>
</a>
<a href="/Frozen_Falls_Pass_(Ragnarok)" class="svgRegion">
    <g filter="url(#blur)">
<rect x="369" y="302" width="33" height="38" />
    </g>
    <text x="512" y="60">Frozen Falls Pass</text>
</a>
<a href="/Ice_Queen_Labyrinth_(Ragnarok)" class="svgRegion">
    <g filter="url(#blur)">
<rect x="386" y="289" width="52" height="51" />
    </g>
    <text x="512" y="60">Ice Queen Labyrinth</text>
</a>
</svg>