<?xml version="1.0" encoding="utf-8"?>
<svg xmlns="http://www.w3.org/2000/svg" width="300" height="300" viewBox="0 0 300 300" class="creatureMap" style="position:absolute;">
    <defs>
        <filter id="blur" x="-30%" y="-30%" width="160%" height="160%">
            <feGaussianBlur stdDeviation="3" />
        </filter>
        <pattern id="pattern-untameable" width="10" height="10" patternTransform="rotate(135)" patternUnits="userSpaceOnUse">'
            <rect width="4" height="10" fill="black"></rect>
        </pattern>
        <filter id="groupStroke">
            <feFlood result="outsideColor" flood-color="black"/>
            <feMorphology in="SourceAlpha" operator="dilate" radius="2"/>
            <feComposite result="strokeoutline1" in="outsideColor" operator="in"/>
            <feComposite result="strokeoutline2" in="strokeoutline1" in2="SourceAlpha" operator="out"/>
            <feGaussianBlur in="strokeoutline2" result="strokeblur" stdDeviation="1"/>
        </filter>
        <style>
            .spawningMap-very-common { fill: #0F0; }
            .spawningMap-common { fill: #B2FF00; }
            .spawningMap-uncommon { fill: #FF0; }
            .spawningMap-very-uncommon { fill: #FC0; }
            .spawningMap-rare { fill: #F60; }
            .spawningMap-very-rare { fill: #F00; }
            .spawning-map-point { stroke:black; stroke-width:1; }
        </style>
    </defs>

<g filter="url(#blur)" opacity="0.7">
<g class="spawningMap-very-uncommon">
<rect x="46" y="238" width="13" height="16" />
<rect x="62" y="238" width="13" height="16" />
<rect x="54" y="238" width="13" height="16" />
</g>
<g class="spawningMap-uncommon">
<rect x="130" y="261" width="13" height="13" />
<rect x="130" y="269" width="13" height="13" />
<rect x="30" y="254" width="13" height="13" />
<rect x="164" y="187" width="13" height="13" />
<rect x="157" y="187" width="13" height="13" />
<rect x="185" y="237" width="13" height="13" />
<rect x="56" y="34" width="15" height="13" />
<rect x="52" y="83" width="13" height="13" />
<rect x="138" y="229" width="13" height="13" />
<rect x="161" y="245" width="13" height="13" />
<rect x="146" y="245" width="13" height="13" />
<rect x="138" y="245" width="13" height="13" />
<rect x="68" y="73" width="13" height="13" />
<rect x="64" y="113" width="13" height="12" />
<rect x="70" y="120" width="13" height="13" />
<rect x="138" y="253" width="13" height="13" />
<rect x="146" y="229" width="13" height="13" />
<rect x="146" y="221" width="13" height="14" />
<rect x="153" y="221" width="13" height="14" />
<rect x="138" y="261" width="13" height="13" />
<rect x="138" y="269" width="13" height="13" />
<rect x="69" y="238" width="13" height="13" />
<rect x="60" y="65" width="13" height="14" />
<rect x="161" y="221" width="13" height="14" />
<rect x="115" y="60" width="13" height="13" />
<rect x="120" y="74" width="13" height="13" />
<rect x="56" y="42" width="15" height="13" />
<rect x="60" y="50" width="16" height="13" />
<rect x="60" y="57" width="16" height="14" />
<rect x="48" y="42" width="13" height="13" />
<rect x="97" y="113" width="13" height="12" />
<rect x="89" y="113" width="13" height="12" />
<rect x="64" y="105" width="13" height="13" />
<rect x="82" y="113" width="13" height="12" />
<rect x="74" y="113" width="13" height="12" />
<rect x="85" y="120" width="13" height="13" />
<rect x="78" y="120" width="13" height="13" />
<rect x="68" y="65" width="13" height="14" />
<rect x="60" y="73" width="13" height="13" />
<rect x="157" y="155" width="13" height="13" />
<rect x="164" y="171" width="13" height="13" />
<rect x="157" y="171" width="13" height="13" />
<rect x="185" y="221" width="13" height="13" />
<rect x="185" y="229" width="13" height="13" />
<rect x="177" y="229" width="13" height="13" />
<rect x="177" y="237" width="13" height="13" />
<rect x="69" y="246" width="13" height="13" />
<rect x="164" y="155" width="13" height="13" />
<rect x="161" y="229" width="13" height="13" />
<rect x="153" y="229" width="13" height="13" />
<rect x="161" y="237" width="13" height="13" />
<rect x="153" y="237" width="13" height="13" />
<rect x="146" y="237" width="13" height="13" />
<rect x="138" y="237" width="13" height="13" />
<rect x="153" y="245" width="13" height="13" />
<rect x="153" y="253" width="13" height="13" />
<rect x="161" y="253" width="13" height="13" />
<rect x="161" y="261" width="13" height="13" />
<rect x="161" y="269" width="13" height="13" />
</g>
<g class="spawningMap-common">
<rect x="138" y="276" width="13" height="10" />
<rect x="115" y="68" width="13" height="11" />
<rect x="120" y="82" width="13" height="11" />
</g>
</g>
</svg>