<?xml version="1.0" encoding="utf-8"?>
<svg xmlns="http://www.w3.org/2000/svg" width="300" height="300"
        viewBox="0 0 300 300" class="creatureMap" style="position:absolute;">
    <defs>
        <filter id="blur" x="-30%" y="-30%" width="160%" height="160%">
            <feGaussianBlur stdDeviation="3" />
        </filter>
        <pattern id="pattern-untameable" width="10" height="10" patternTransform="rotate(135)" patternUnits="userSpaceOnUse">
            <rect width="4" height="10" fill="black"></rect>
        </pattern>
        <filter id="groupStroke">
            <feFlood result="outsideColor" flood-color="black"/>
            <feMorphology in="SourceAlpha" operator="dilate" radius="2"/>
            <feComposite result="strokeoutline1" in="outsideColor" operator="in"/>
            <feComposite result="strokeoutline2" in="strokeoutline1" in2="SourceAlpha" operator="out"/>
            <feGaussianBlur in="strokeoutline2" result="strokeblur" stdDeviation="1"/>
        </filter>
        <style>
            .spawningMap-very-common { fill: #0F0; }
            .spawningMap-common { fill: #B2FF00; }
            .spawningMap-uncommon { fill: #FF0; }
            .spawningMap-very-uncommon { fill: #FC0; }
            .spawningMap-rare { fill: #F60; }
            .spawningMap-very-rare { fill: #F00; }
            .spawning-map-point { stroke:black; stroke-width:1; }
        </style>
    </defs>

<g filter="url(#blur)" opacity="0.7">
<g class="spawningMap-rare">
<rect x="203" y="61" width="13" height="11" />
<rect x="208" y="59" width="13" height="11" />
<rect x="214" y="57" width="12" height="13" />
<rect x="213" y="49" width="13" height="13" />
<rect x="209" y="45" width="13" height="12" />
<rect x="206" y="40" width="11" height="13" />
</g>
<g class="spawningMap-very-uncommon">
<rect x="193" y="59" width="16" height="15" />
<rect x="204" y="59" width="16" height="15" />
<rect x="182" y="49" width="16" height="15" />
<rect x="193" y="49" width="16" height="15" />
<rect x="204" y="49" width="16" height="15" />
<rect x="182" y="59" width="16" height="15" />
</g>
<g class="spawningMap-uncommon">
<rect x="204" y="38" width="16" height="16" />
<rect x="171" y="49" width="16" height="15" />
<rect x="171" y="38" width="16" height="16" />
<rect x="215" y="49" width="15" height="15" />
<rect x="182" y="38" width="16" height="16" />
<rect x="193" y="38" width="16" height="16" />
<rect x="215" y="59" width="15" height="15" />
<rect x="171" y="59" width="16" height="15" />
<rect x="171" y="69" width="16" height="16" />
<rect x="171" y="80" width="16" height="15" />
<rect x="160" y="80" width="16" height="15" />
<rect x="164" y="69" width="12" height="16" />
<rect x="164" y="59" width="12" height="15" />
<rect x="182" y="28" width="16" height="16" />
<rect x="171" y="28" width="16" height="16" />
<rect x="193" y="28" width="16" height="16" />
</g>
</g>
<g fill="url(#pattern-untameable)" opacity="0.3">
<rect x="203" y="61" width="13" height="11"/>
<rect x="208" y="59" width="13" height="11"/>
<rect x="214" y="57" width="12" height="13"/>
<rect x="213" y="49" width="13" height="13"/>
<rect x="209" y="45" width="13" height="12"/>
<rect x="206" y="40" width="11" height="13"/>
<rect x="193" y="59" width="16" height="15"/>
<rect x="204" y="59" width="16" height="15"/>
<rect x="182" y="49" width="16" height="15"/>
<rect x="193" y="49" width="16" height="15"/>
<rect x="204" y="49" width="16" height="15"/>
<rect x="182" y="59" width="16" height="15"/>
<rect x="204" y="38" width="16" height="16"/>
<rect x="171" y="49" width="16" height="15"/>
<rect x="171" y="38" width="16" height="16"/>
<rect x="215" y="49" width="15" height="15"/>
<rect x="182" y="38" width="16" height="16"/>
<rect x="193" y="38" width="16" height="16"/>
<rect x="215" y="59" width="15" height="15"/>
<rect x="171" y="59" width="16" height="15"/>
<rect x="171" y="69" width="16" height="16"/>
<rect x="171" y="80" width="16" height="15"/>
<rect x="160" y="80" width="16" height="15"/>
<rect x="164" y="69" width="12" height="16"/>
<rect x="164" y="59" width="12" height="15"/>
<rect x="182" y="28" width="16" height="16"/>
<rect x="171" y="28" width="16" height="16"/>
<rect x="193" y="28" width="16" height="16"/>
</g>
</svg>