<?xml version="1.0" encoding="utf-8"?>
<svg xmlns="http://www.w3.org/2000/svg" width="300" height="300" viewBox="0 0 300 300" class="creatureMap" style="position:absolute;">
    <defs>
        <filter id="blur" x="-30%" y="-30%" width="160%" height="160%">
            <feGaussianBlur stdDeviation="3" />
        </filter>
        <pattern id="pattern-untameable" width="10" height="10" patternTransform="rotate(135)" patternUnits="userSpaceOnUse">'
            <rect width="4" height="10" fill="black"></rect>
        </pattern>
        <filter id="groupStroke">
            <feFlood result="outsideColor" flood-color="black"/>
            <feMorphology in="SourceAlpha" operator="dilate" radius="2"/>
            <feComposite result="strokeoutline1" in="outsideColor" operator="in"/>
            <feComposite result="strokeoutline2" in="strokeoutline1" in2="SourceAlpha" operator="out"/>
            <feGaussianBlur in="strokeoutline2" result="strokeblur" stdDeviation="1"/>
        </filter>
        <style>
            .spawningMap-very-common { fill: #0F0; }
            .spawningMap-common { fill: #B2FF00; }
            .spawningMap-uncommon { fill: #FF0; }
            .spawningMap-very-uncommon { fill: #FC0; }
            .spawningMap-rare { fill: #F60; }
            .spawningMap-very-rare { fill: #F00; }
            .spawning-map-point { stroke:black; stroke-width:1; }
        </style>
    </defs>

<g filter="url(#blur)" opacity="0.7">
<g class="spawningMap-rare">
<rect x="216" y="17" width="54" height="20" />
<rect x="249" y="50" width="23" height="36" />
<rect x="34" y="18" width="23" height="23" />
<rect x="263" y="147" width="27" height="20" />
<rect x="33" y="69" width="21" height="21" />
<rect x="50" y="89" width="20" height="21" />
<rect x="0" y="26" width="6" height="21" />
<rect x="0" y="42" width="6" height="21" />
<rect x="0" y="59" width="6" height="20" />
<rect x="0" y="75" width="6" height="21" />
<rect x="0" y="91" width="6" height="21" />
<rect x="0" y="107" width="6" height="21" />
<rect x="0" y="124" width="6" height="21" />
<rect x="58" y="139" width="20" height="21" />
<rect x="34" y="168" width="20" height="21" />
<rect x="34" y="184" width="20" height="21" />
<rect x="34" y="200" width="20" height="21" />
<rect x="34" y="217" width="20" height="21" />
<rect x="34" y="233" width="20" height="21" />
<rect x="34" y="250" width="20" height="21" />
<rect x="98" y="233" width="21" height="21" />
<rect x="98" y="250" width="21" height="21" />
<rect x="34" y="266" width="20" height="21" />
<rect x="34" y="282" width="20" height="18" />
<rect x="130" y="233" width="21" height="21" />
<rect x="130" y="217" width="21" height="21" />
<rect x="179" y="250" width="20" height="21" />
<rect x="291" y="282" width="9" height="18" />
<rect x="291" y="299" width="9" height="1" />
<rect x="275" y="163" width="21" height="25" />
<rect x="291" y="163" width="9" height="25" />
<rect x="18" y="118" width="20" height="21" />
<rect x="18" y="135" width="20" height="21" />
<rect x="18" y="151" width="20" height="21" />
<rect x="51" y="155" width="26" height="17" />
<rect x="114" y="217" width="21" height="21" />
<rect x="82" y="26" width="21" height="21" />
<rect x="114" y="266" width="21" height="21" />
<rect x="128" y="17" width="32" height="22" />
<rect x="157" y="17" width="32" height="27" />
<rect x="186" y="17" width="32" height="27" />
<rect x="268" y="17" width="23" height="36" />
<rect x="28" y="37" width="20" height="20" />
<rect x="268" y="50" width="23" height="36" />
<rect x="263" y="83" width="27" height="35" />
<rect x="263" y="115" width="27" height="36" />
<rect x="114" y="250" width="21" height="21" />
<rect x="82" y="42" width="21" height="21" />
<rect x="28" y="53" width="20" height="21" />
<rect x="114" y="282" width="21" height="18" />
<rect x="17" y="69" width="21" height="21" />
<rect x="54" y="18" width="32" height="23" />
<rect x="17" y="86" width="21" height="21" />
<rect x="33" y="86" width="21" height="21" />
<rect x="99" y="17" width="32" height="22" />
<rect x="130" y="282" width="21" height="18" />
<rect x="147" y="282" width="20" height="18" />
<rect x="50" y="168" width="27" height="21" />
<rect x="163" y="282" width="20" height="18" />
<rect x="179" y="282" width="20" height="18" />
<rect x="50" y="184" width="27" height="21" />
<rect x="195" y="282" width="20" height="18" />
<rect x="50" y="200" width="20" height="21" />
<rect x="130" y="269" width="14" height="18" />
<rect x="131" y="249" width="14" height="15" />
<rect x="170" y="266" width="12" height="21" />
<rect x="50" y="217" width="20" height="21" />
<rect x="172" y="254" width="12" height="17" />
<rect x="179" y="266" width="20" height="21" />
<rect x="195" y="275" width="20" height="12" />
<rect x="211" y="266" width="20" height="21" />
<rect x="227" y="266" width="20" height="21" />
<rect x="243" y="266" width="21" height="21" />
<rect x="259" y="266" width="21" height="21" />
<rect x="50" y="233" width="20" height="21" />
<rect x="50" y="250" width="20" height="21" />
<rect x="50" y="266" width="20" height="21" />
<rect x="50" y="282" width="20" height="18" />
<rect x="66" y="223" width="21" height="31" />
<rect x="66" y="250" width="21" height="21" />
<rect x="66" y="266" width="21" height="21" />
<rect x="66" y="282" width="21" height="18" />
<rect x="82" y="223" width="21" height="31" />
<rect x="82" y="250" width="21" height="21" />
<rect x="82" y="266" width="21" height="21" />
<rect x="82" y="282" width="21" height="18" />
<rect x="98" y="266" width="21" height="21" />
<rect x="98" y="282" width="21" height="18" />
<rect x="18" y="168" width="20" height="21" />
<rect x="18" y="184" width="20" height="21" />
<rect x="18" y="200" width="20" height="21" />
<rect x="18" y="217" width="20" height="21" />
<rect x="18" y="233" width="20" height="21" />
<rect x="18" y="250" width="20" height="21" />
<rect x="18" y="266" width="20" height="21" />
<rect x="18" y="282" width="20" height="18" />
<rect x="275" y="266" width="21" height="21" />
<rect x="0" y="189" width="6" height="21" />
<rect x="0" y="140" width="6" height="21" />
<rect x="0" y="157" width="6" height="20" />
<rect x="0" y="173" width="6" height="21" />
<rect x="291" y="266" width="9" height="21" />
<rect x="268" y="250" width="28" height="21" />
<rect x="291" y="250" width="9" height="21" />
<rect x="270" y="233" width="26" height="21" />
<rect x="0" y="10" width="6" height="20" />
<rect x="291" y="233" width="9" height="21" />
<rect x="0" y="0" width="6" height="14" />
<rect x="211" y="282" width="20" height="18" />
<rect x="227" y="282" width="20" height="18" />
<rect x="243" y="282" width="21" height="18" />
<rect x="259" y="282" width="21" height="18" />
<rect x="275" y="282" width="21" height="18" />
<rect x="259" y="299" width="21" height="1" />
<rect x="275" y="299" width="21" height="1" />
<rect x="275" y="217" width="21" height="21" />
<rect x="291" y="217" width="9" height="21" />
<rect x="275" y="201" width="21" height="20" />
<rect x="291" y="201" width="9" height="20" />
<rect x="275" y="184" width="21" height="21" />
<rect x="291" y="184" width="9" height="21" />
<rect x="114" y="233" width="21" height="21" />
</g>
<g class="spawningMap-very-uncommon">
<rect x="34" y="155" width="21" height="17" />
</g>
</g>
</svg>