<?xml version="1.0" encoding="utf-8"?>
<svg xmlns="http://www.w3.org/2000/svg" width="300" height="300" viewBox="0 0 300 300" class="creatureMap" style="position:absolute;">
    <defs>
        <filter id="blur" x="-30%" y="-30%" width="160%" height="160%">
            <feGaussianBlur stdDeviation="3" />
        </filter>
        <pattern id="pattern-untameable" width="10" height="10" patternTransform="rotate(135)" patternUnits="userSpaceOnUse">'
            <rect width="4" height="10" fill="black"></rect>
        </pattern>
        <filter id="groupStroke">
            <feFlood result="outsideColor" flood-color="black"/>
            <feMorphology in="SourceAlpha" operator="dilate" radius="2"/>
            <feComposite result="strokeoutline1" in="outsideColor" operator="in"/>
            <feComposite result="strokeoutline2" in="strokeoutline1" in2="SourceAlpha" operator="out"/>
            <feGaussianBlur in="strokeoutline2" result="strokeblur" stdDeviation="1"/>
        </filter>
        <style>
            .spawningMap-very-common { fill: #0F0; }
            .spawningMap-common { fill: #B2FF00; }
            .spawningMap-uncommon { fill: #FF0; }
            .spawningMap-very-uncommon { fill: #FC0; }
            .spawningMap-rare { fill: #F60; }
            .spawningMap-very-rare { fill: #F00; }
            .spawning-map-point { stroke:black; stroke-width:1; }
        </style>
    </defs>

<g filter="url(#blur)" opacity="0.7">
<g class="spawningMap-very-rare">
<rect x="216" y="17" width="54" height="20" />
<rect x="249" y="50" width="23" height="36" />
<rect x="157" y="17" width="32" height="27" />
<rect x="186" y="17" width="32" height="27" />
<rect x="268" y="17" width="23" height="36" />
<rect x="268" y="50" width="23" height="36" />
<rect x="263" y="83" width="27" height="35" />
<rect x="263" y="115" width="27" height="36" />
</g>
<g class="spawningMap-rare">
<rect x="185" y="150" width="13" height="13" />
<rect x="46" y="238" width="13" height="16" />
<rect x="30" y="254" width="13" height="13" />
<rect x="231" y="245" width="13" height="13" />
<rect x="239" y="245" width="13" height="13" />
<rect x="231" y="253" width="13" height="13" />
<rect x="239" y="253" width="13" height="13" />
<rect x="247" y="245" width="13" height="13" />
<rect x="255" y="245" width="13" height="13" />
<rect x="247" y="253" width="13" height="13" />
<rect x="255" y="253" width="13" height="13" />
<rect x="231" y="261" width="13" height="13" />
<rect x="239" y="261" width="13" height="13" />
<rect x="247" y="261" width="13" height="13" />
<rect x="255" y="261" width="13" height="13" />
<rect x="270" y="158" width="13" height="13" />
<rect x="270" y="229" width="13" height="13" />
<rect x="262" y="245" width="13" height="13" />
<rect x="216" y="229" width="13" height="13" />
<rect x="224" y="237" width="13" height="13" />
<rect x="231" y="237" width="13" height="13" />
<rect x="120" y="55" width="27" height="10" />
<rect x="206" y="107" width="13" height="13" />
<rect x="214" y="99" width="13" height="13" />
<rect x="222" y="99" width="13" height="13" />
<rect x="261" y="123" width="18" height="13" />
<rect x="261" y="115" width="18" height="13" />
<rect x="261" y="107" width="18" height="13" />
<rect x="261" y="99" width="18" height="13" />
<rect x="261" y="91" width="18" height="13" />
<rect x="261" y="83" width="18" height="13" />
<rect x="245" y="75" width="13" height="13" />
<rect x="230" y="75" width="13" height="13" />
<rect x="237" y="75" width="13" height="13" />
<rect x="261" y="75" width="13" height="13" />
<rect x="191" y="107" width="13" height="13" />
<rect x="191" y="138" width="13" height="14" />
<rect x="191" y="130" width="13" height="14" />
<rect x="34" y="18" width="23" height="23" />
<rect x="263" y="147" width="27" height="20" />
<rect x="33" y="69" width="21" height="21" />
<rect x="50" y="89" width="20" height="21" />
<rect x="0" y="26" width="6" height="21" />
<rect x="0" y="42" width="6" height="21" />
<rect x="0" y="59" width="6" height="20" />
<rect x="0" y="75" width="6" height="21" />
<rect x="0" y="91" width="6" height="21" />
<rect x="0" y="107" width="6" height="21" />
<rect x="0" y="124" width="6" height="21" />
<rect x="108" y="160" width="13" height="13" />
<rect x="78" y="157" width="13" height="13" />
<rect x="128" y="91" width="12" height="11" />
<rect x="149" y="155" width="13" height="13" />
<rect x="141" y="171" width="13" height="14" />
<rect x="58" y="139" width="20" height="21" />
<rect x="34" y="168" width="20" height="21" />
<rect x="34" y="184" width="20" height="21" />
<rect x="34" y="200" width="20" height="21" />
<rect x="34" y="217" width="20" height="21" />
<rect x="34" y="233" width="20" height="21" />
<rect x="34" y="250" width="20" height="21" />
<rect x="98" y="233" width="21" height="21" />
<rect x="98" y="250" width="21" height="21" />
<rect x="34" y="266" width="20" height="21" />
<rect x="34" y="282" width="20" height="18" />
<rect x="77" y="188" width="16" height="11" />
<rect x="142" y="188" width="12" height="13" />
<rect x="130" y="233" width="21" height="21" />
<rect x="130" y="217" width="21" height="21" />
<rect x="179" y="250" width="20" height="21" />
<rect x="291" y="282" width="9" height="18" />
<rect x="291" y="299" width="9" height="1" />
<rect x="275" y="163" width="21" height="25" />
<rect x="291" y="163" width="9" height="25" />
<rect x="214" y="130" width="13" height="14" />
<rect x="222" y="130" width="13" height="14" />
<rect x="230" y="130" width="13" height="14" />
<rect x="237" y="130" width="13" height="14" />
<rect x="245" y="130" width="13" height="14" />
<rect x="198" y="130" width="13" height="14" />
<rect x="206" y="130" width="13" height="14" />
<rect x="62" y="238" width="13" height="16" />
<rect x="214" y="123" width="13" height="13" />
<rect x="222" y="123" width="13" height="13" />
<rect x="230" y="123" width="13" height="13" />
<rect x="237" y="123" width="13" height="13" />
<rect x="245" y="123" width="13" height="13" />
<rect x="198" y="123" width="13" height="13" />
<rect x="206" y="123" width="13" height="13" />
<rect x="208" y="150" width="13" height="13" />
<rect x="200" y="150" width="13" height="13" />
<rect x="192" y="150" width="13" height="13" />
<rect x="54" y="238" width="13" height="16" />
<rect x="69" y="238" width="13" height="13" />
<rect x="75" y="89" width="13" height="13" />
<rect x="68" y="81" width="13" height="13" />
<rect x="18" y="118" width="20" height="21" />
<rect x="75" y="81" width="13" height="13" />
<rect x="18" y="135" width="20" height="21" />
<rect x="18" y="151" width="20" height="21" />
<rect x="34" y="155" width="21" height="17" />
<rect x="112" y="74" width="13" height="13" />
<rect x="123" y="60" width="13" height="13" />
<rect x="51" y="155" width="26" height="17" />
<rect x="131" y="60" width="13" height="13" />
<rect x="114" y="217" width="21" height="21" />
<rect x="206" y="115" width="13" height="13" />
<rect x="214" y="115" width="13" height="13" />
<rect x="222" y="115" width="13" height="13" />
<rect x="230" y="115" width="13" height="13" />
<rect x="237" y="115" width="13" height="13" />
<rect x="245" y="115" width="13" height="13" />
<rect x="214" y="107" width="13" height="13" />
<rect x="222" y="107" width="13" height="13" />
<rect x="237" y="107" width="13" height="13" />
<rect x="245" y="107" width="13" height="13" />
<rect x="230" y="99" width="13" height="13" />
<rect x="237" y="99" width="13" height="13" />
<rect x="245" y="99" width="13" height="13" />
<rect x="245" y="91" width="13" height="13" />
<rect x="253" y="123" width="13" height="13" />
<rect x="253" y="115" width="13" height="13" />
<rect x="253" y="107" width="13" height="13" />
<rect x="253" y="99" width="13" height="13" />
<rect x="253" y="91" width="13" height="13" />
<rect x="230" y="91" width="13" height="13" />
<rect x="237" y="91" width="13" height="13" />
<rect x="245" y="83" width="13" height="13" />
<rect x="253" y="83" width="13" height="13" />
<rect x="230" y="83" width="13" height="13" />
<rect x="237" y="83" width="13" height="13" />
<rect x="253" y="75" width="13" height="13" />
<rect x="198" y="115" width="13" height="13" />
<rect x="198" y="107" width="13" height="13" />
<rect x="191" y="115" width="13" height="13" />
<rect x="82" y="26" width="21" height="21" />
<rect x="114" y="266" width="21" height="21" />
<rect x="128" y="17" width="32" height="22" />
<rect x="28" y="37" width="20" height="20" />
<rect x="114" y="250" width="21" height="21" />
<rect x="82" y="42" width="21" height="21" />
<rect x="28" y="53" width="20" height="21" />
<rect x="114" y="282" width="21" height="18" />
<rect x="17" y="69" width="21" height="21" />
<rect x="54" y="18" width="32" height="23" />
<rect x="17" y="86" width="21" height="21" />
<rect x="33" y="86" width="21" height="21" />
<rect x="99" y="17" width="32" height="22" />
<rect x="230" y="107" width="13" height="13" />
<rect x="152" y="97" width="13" height="14" />
<rect x="152" y="105" width="13" height="13" />
<rect x="150" y="113" width="13" height="13" />
<rect x="143" y="113" width="13" height="13" />
<rect x="132" y="120" width="13" height="13" />
<rect x="124" y="120" width="13" height="13" />
<rect x="116" y="120" width="13" height="13" />
<rect x="112" y="128" width="13" height="13" />
<rect x="112" y="136" width="13" height="13" />
<rect x="112" y="144" width="13" height="13" />
<rect x="112" y="152" width="13" height="13" />
<rect x="116" y="168" width="12" height="13" />
<rect x="130" y="282" width="21" height="18" />
<rect x="116" y="160" width="12" height="13" />
<rect x="85" y="157" width="13" height="13" />
<rect x="147" y="282" width="20" height="18" />
<rect x="50" y="168" width="27" height="21" />
<rect x="163" y="282" width="20" height="18" />
<rect x="179" y="282" width="20" height="18" />
<rect x="120" y="89" width="13" height="12" />
<rect x="50" y="184" width="27" height="21" />
<rect x="195" y="282" width="20" height="18" />
<rect x="50" y="200" width="20" height="21" />
<rect x="130" y="269" width="14" height="18" />
<rect x="131" y="249" width="14" height="15" />
<rect x="170" y="266" width="12" height="21" />
<rect x="50" y="217" width="20" height="21" />
<rect x="172" y="254" width="12" height="17" />
<rect x="179" y="266" width="20" height="21" />
<rect x="195" y="275" width="20" height="12" />
<rect x="211" y="266" width="20" height="21" />
<rect x="227" y="266" width="20" height="21" />
<rect x="243" y="266" width="21" height="21" />
<rect x="259" y="266" width="21" height="21" />
<rect x="50" y="233" width="20" height="21" />
<rect x="50" y="250" width="20" height="21" />
<rect x="50" y="266" width="20" height="21" />
<rect x="50" y="282" width="20" height="18" />
<rect x="66" y="223" width="21" height="31" />
<rect x="66" y="250" width="21" height="21" />
<rect x="66" y="266" width="21" height="21" />
<rect x="66" y="282" width="21" height="18" />
<rect x="82" y="223" width="21" height="31" />
<rect x="82" y="250" width="21" height="21" />
<rect x="82" y="266" width="21" height="21" />
<rect x="82" y="282" width="21" height="18" />
<rect x="98" y="266" width="21" height="21" />
<rect x="98" y="282" width="21" height="18" />
<rect x="18" y="168" width="20" height="21" />
<rect x="18" y="184" width="20" height="21" />
<rect x="18" y="200" width="20" height="21" />
<rect x="18" y="217" width="20" height="21" />
<rect x="18" y="233" width="20" height="21" />
<rect x="18" y="250" width="20" height="21" />
<rect x="18" y="266" width="20" height="21" />
<rect x="18" y="282" width="20" height="18" />
<rect x="275" y="266" width="21" height="21" />
<rect x="0" y="189" width="6" height="21" />
<rect x="0" y="140" width="6" height="21" />
<rect x="0" y="157" width="6" height="20" />
<rect x="0" y="173" width="6" height="21" />
<rect x="291" y="266" width="9" height="21" />
<rect x="268" y="250" width="28" height="21" />
<rect x="291" y="250" width="9" height="21" />
<rect x="270" y="233" width="26" height="21" />
<rect x="0" y="10" width="6" height="20" />
<rect x="291" y="233" width="9" height="21" />
<rect x="0" y="0" width="6" height="14" />
<rect x="211" y="282" width="20" height="18" />
<rect x="227" y="282" width="20" height="18" />
<rect x="243" y="282" width="21" height="18" />
<rect x="259" y="282" width="21" height="18" />
<rect x="275" y="282" width="21" height="18" />
<rect x="259" y="299" width="21" height="1" />
<rect x="275" y="299" width="21" height="1" />
<rect x="108" y="168" width="13" height="13" />
<rect x="275" y="217" width="21" height="21" />
<rect x="291" y="217" width="9" height="21" />
<rect x="275" y="201" width="21" height="20" />
<rect x="291" y="201" width="9" height="20" />
<rect x="275" y="184" width="21" height="21" />
<rect x="291" y="184" width="9" height="21" />
<rect x="86" y="178" width="14" height="15" />
<rect x="108" y="176" width="13" height="17" />
<rect x="191" y="123" width="13" height="13" />
<rect x="141" y="147" width="13" height="13" />
<rect x="149" y="147" width="13" height="13" />
<rect x="116" y="176" width="13" height="17" />
<rect x="141" y="155" width="13" height="13" />
<rect x="123" y="180" width="13" height="13" />
<rect x="131" y="180" width="13" height="13" />
<rect x="139" y="180" width="15" height="13" />
<rect x="134" y="188" width="13" height="13" />
<rect x="141" y="163" width="13" height="13" />
<rect x="239" y="150" width="13" height="13" />
<rect x="247" y="150" width="13" height="13" />
<rect x="239" y="158" width="13" height="13" />
<rect x="247" y="158" width="13" height="13" />
<rect x="255" y="150" width="13" height="13" />
<rect x="262" y="150" width="13" height="13" />
<rect x="255" y="158" width="13" height="13" />
<rect x="262" y="158" width="13" height="13" />
<rect x="239" y="166" width="13" height="13" />
<rect x="247" y="166" width="13" height="13" />
<rect x="239" y="174" width="13" height="13" />
<rect x="247" y="174" width="13" height="13" />
<rect x="255" y="166" width="13" height="13" />
<rect x="262" y="166" width="13" height="13" />
<rect x="255" y="174" width="13" height="13" />
<rect x="262" y="174" width="13" height="13" />
<rect x="216" y="150" width="13" height="13" />
<rect x="208" y="158" width="13" height="13" />
<rect x="216" y="158" width="13" height="13" />
<rect x="224" y="150" width="13" height="13" />
<rect x="231" y="150" width="13" height="13" />
<rect x="224" y="158" width="13" height="13" />
<rect x="231" y="158" width="13" height="13" />
<rect x="208" y="166" width="13" height="13" />
<rect x="216" y="166" width="13" height="13" />
<rect x="216" y="174" width="13" height="13" />
<rect x="224" y="166" width="13" height="13" />
<rect x="231" y="166" width="13" height="13" />
<rect x="224" y="174" width="13" height="13" />
<rect x="231" y="174" width="13" height="13" />
<rect x="247" y="182" width="13" height="13" />
<rect x="255" y="182" width="13" height="13" />
<rect x="247" y="190" width="13" height="13" />
<rect x="255" y="190" width="13" height="13" />
<rect x="262" y="182" width="13" height="13" />
<rect x="262" y="190" width="13" height="13" />
<rect x="270" y="190" width="13" height="13" />
<rect x="247" y="198" width="13" height="13" />
<rect x="255" y="198" width="13" height="13" />
<rect x="247" y="205" width="13" height="14" />
<rect x="255" y="205" width="13" height="14" />
<rect x="262" y="198" width="13" height="13" />
<rect x="270" y="198" width="13" height="13" />
<rect x="262" y="205" width="13" height="14" />
<rect x="216" y="182" width="13" height="13" />
<rect x="224" y="182" width="13" height="13" />
<rect x="216" y="190" width="13" height="13" />
<rect x="224" y="190" width="13" height="13" />
<rect x="231" y="182" width="13" height="13" />
<rect x="239" y="182" width="13" height="13" />
<rect x="231" y="190" width="13" height="13" />
<rect x="239" y="190" width="13" height="13" />
<rect x="216" y="198" width="13" height="13" />
<rect x="224" y="198" width="13" height="13" />
<rect x="231" y="198" width="13" height="13" />
<rect x="239" y="198" width="13" height="13" />
<rect x="239" y="205" width="13" height="14" />
<rect x="239" y="213" width="13" height="14" />
<rect x="247" y="213" width="13" height="14" />
<rect x="239" y="221" width="13" height="14" />
<rect x="247" y="221" width="13" height="14" />
<rect x="255" y="213" width="13" height="14" />
<rect x="262" y="213" width="13" height="14" />
<rect x="255" y="221" width="13" height="14" />
<rect x="262" y="221" width="13" height="14" />
<rect x="239" y="229" width="13" height="13" />
<rect x="247" y="229" width="13" height="13" />
<rect x="239" y="237" width="13" height="13" />
<rect x="247" y="237" width="13" height="13" />
<rect x="255" y="229" width="13" height="13" />
<rect x="262" y="229" width="13" height="13" />
<rect x="255" y="237" width="13" height="13" />
<rect x="114" y="233" width="21" height="21" />
<rect x="270" y="182" width="13" height="13" />
<rect x="270" y="174" width="13" height="13" />
<rect x="270" y="166" width="13" height="13" />
<rect x="270" y="205" width="13" height="14" />
<rect x="270" y="213" width="13" height="14" />
<rect x="270" y="221" width="13" height="14" />
<rect x="262" y="237" width="13" height="13" />
<rect x="208" y="174" width="13" height="13" />
<rect x="216" y="205" width="13" height="14" />
<rect x="224" y="205" width="13" height="14" />
<rect x="231" y="205" width="13" height="14" />
<rect x="216" y="213" width="13" height="14" />
<rect x="224" y="213" width="13" height="14" />
<rect x="231" y="213" width="13" height="14" />
<rect x="216" y="221" width="13" height="14" />
<rect x="224" y="221" width="13" height="14" />
<rect x="231" y="221" width="13" height="14" />
<rect x="224" y="229" width="13" height="13" />
<rect x="231" y="229" width="13" height="13" />
<rect x="69" y="246" width="13" height="13" />
</g>
<g class="spawningMap-very-uncommon">
<rect x="130" y="261" width="13" height="13" />
<rect x="130" y="269" width="13" height="13" />
<rect x="164" y="187" width="13" height="13" />
<rect x="157" y="187" width="13" height="13" />
<rect x="185" y="237" width="13" height="13" />
<rect x="138" y="229" width="13" height="13" />
<rect x="161" y="245" width="13" height="13" />
<rect x="146" y="245" width="13" height="13" />
<rect x="138" y="245" width="13" height="13" />
<rect x="115" y="89" width="10" height="12" />
<rect x="138" y="253" width="13" height="13" />
<rect x="146" y="229" width="13" height="13" />
<rect x="146" y="221" width="13" height="14" />
<rect x="153" y="221" width="13" height="14" />
<rect x="138" y="261" width="13" height="13" />
<rect x="138" y="269" width="13" height="13" />
<rect x="161" y="221" width="13" height="14" />
<rect x="123" y="68" width="13" height="11" />
<rect x="131" y="68" width="13" height="11" />
<rect x="127" y="74" width="13" height="11" />
<rect x="112" y="82" width="13" height="11" />
<rect x="157" y="155" width="13" height="13" />
<rect x="164" y="171" width="13" height="13" />
<rect x="157" y="171" width="13" height="13" />
<rect x="185" y="221" width="13" height="13" />
<rect x="185" y="229" width="13" height="13" />
<rect x="177" y="229" width="13" height="13" />
<rect x="177" y="237" width="13" height="13" />
<rect x="164" y="155" width="13" height="13" />
<rect x="161" y="229" width="13" height="13" />
<rect x="153" y="229" width="13" height="13" />
<rect x="161" y="237" width="13" height="13" />
<rect x="153" y="237" width="13" height="13" />
<rect x="146" y="237" width="13" height="13" />
<rect x="138" y="237" width="13" height="13" />
<rect x="153" y="245" width="13" height="13" />
<rect x="153" y="253" width="13" height="13" />
<rect x="161" y="253" width="13" height="13" />
<rect x="161" y="261" width="13" height="13" />
<rect x="161" y="269" width="13" height="13" />
</g>
<g class="spawningMap-uncommon">
<rect x="138" y="276" width="13" height="10" />
</g>
</g>
</svg>