<?xml version="1.0" encoding="utf-8"?>
<svg xmlns="http://www.w3.org/2000/svg" width="300" height="300"
        viewBox="0 0 300 300" class="creatureMap" style="position:absolute;">
    <defs>
        <filter id="blur" x="-30%" y="-30%" width="160%" height="160%">
            <feGaussianBlur stdDeviation="3" />
        </filter>
        <pattern id="pattern-untameable" width="10" height="10" patternTransform="rotate(135)" patternUnits="userSpaceOnUse">
            <rect width="4" height="10" fill="black"></rect>
        </pattern>
        <filter id="groupStroke">
            <feFlood result="outsideColor" flood-color="black"/>
            <feMorphology in="SourceAlpha" operator="dilate" radius="2"/>
            <feComposite result="strokeoutline1" in="outsideColor" operator="in"/>
            <feComposite result="strokeoutline2" in="strokeoutline1" in2="SourceAlpha" operator="out"/>
            <feGaussianBlur in="strokeoutline2" result="strokeblur" stdDeviation="1"/>
        </filter>
        <style>
            .spawningMap-very-common { fill: #0F0; }
            .spawningMap-common { fill: #B2FF00; }
            .spawningMap-uncommon { fill: #FF0; }
            .spawningMap-very-uncommon { fill: #FC0; }
            .spawningMap-rare { fill: #F60; }
            .spawningMap-very-rare { fill: #F00; }
            .spawning-map-point { stroke:black; stroke-width:1; }
        </style>
    </defs>

<g filter="url(#blur)" opacity="0.7">
<g class="spawningMap-very-uncommon">
<rect x="120" y="55" width="27" height="10" />
<rect x="206" y="107" width="13" height="13" />
<rect x="214" y="99" width="13" height="13" />
<rect x="222" y="99" width="13" height="13" />
<rect x="261" y="123" width="18" height="13" />
<rect x="261" y="115" width="18" height="13" />
<rect x="261" y="107" width="18" height="13" />
<rect x="261" y="99" width="18" height="13" />
<rect x="261" y="91" width="18" height="13" />
<rect x="261" y="83" width="18" height="13" />
<rect x="245" y="75" width="13" height="13" />
<rect x="230" y="75" width="13" height="13" />
<rect x="237" y="75" width="13" height="13" />
<rect x="261" y="75" width="13" height="13" />
<rect x="191" y="107" width="13" height="13" />
<rect x="191" y="138" width="13" height="14" />
<rect x="191" y="130" width="13" height="14" />
<rect x="194" y="102" width="13" height="17" />
<rect x="206" y="72" width="16" height="13" />
<rect x="170" y="129" width="11" height="10" />
<rect x="164" y="131" width="12" height="10" />
<rect x="160" y="132" width="9" height="9" />
<rect x="156" y="137" width="10" height="9" />
<rect x="120" y="138" width="12" height="10" />
<rect x="126" y="133" width="8" height="10" />
<rect x="108" y="160" width="13" height="13" />
<rect x="78" y="157" width="13" height="13" />
<rect x="149" y="155" width="13" height="13" />
<rect x="141" y="171" width="13" height="14" />
<rect x="214" y="130" width="13" height="14" />
<rect x="222" y="130" width="13" height="14" />
<rect x="230" y="130" width="13" height="14" />
<rect x="237" y="130" width="13" height="14" />
<rect x="245" y="130" width="13" height="14" />
<rect x="198" y="130" width="13" height="14" />
<rect x="206" y="130" width="13" height="14" />
<rect x="214" y="123" width="13" height="13" />
<rect x="222" y="123" width="13" height="13" />
<rect x="230" y="123" width="13" height="13" />
<rect x="237" y="123" width="13" height="13" />
<rect x="245" y="123" width="13" height="13" />
<rect x="198" y="123" width="13" height="13" />
<rect x="206" y="123" width="13" height="13" />
<rect x="75" y="89" width="13" height="13" />
<rect x="68" y="81" width="13" height="13" />
<rect x="163" y="117" width="18" height="12" />
<rect x="75" y="81" width="13" height="13" />
<rect x="112" y="74" width="13" height="13" />
<rect x="123" y="60" width="13" height="13" />
<rect x="131" y="60" width="13" height="13" />
<rect x="206" y="115" width="13" height="13" />
<rect x="214" y="115" width="13" height="13" />
<rect x="222" y="115" width="13" height="13" />
<rect x="230" y="115" width="13" height="13" />
<rect x="237" y="115" width="13" height="13" />
<rect x="245" y="115" width="13" height="13" />
<rect x="214" y="107" width="13" height="13" />
<rect x="222" y="107" width="13" height="13" />
<rect x="237" y="107" width="13" height="13" />
<rect x="245" y="107" width="13" height="13" />
<rect x="230" y="99" width="13" height="13" />
<rect x="237" y="99" width="13" height="13" />
<rect x="245" y="99" width="13" height="13" />
<rect x="245" y="91" width="13" height="13" />
<rect x="253" y="123" width="13" height="13" />
<rect x="253" y="115" width="13" height="13" />
<rect x="253" y="107" width="13" height="13" />
<rect x="253" y="99" width="13" height="13" />
<rect x="253" y="91" width="13" height="13" />
<rect x="230" y="91" width="13" height="13" />
<rect x="237" y="91" width="13" height="13" />
<rect x="245" y="83" width="13" height="13" />
<rect x="253" y="83" width="13" height="13" />
<rect x="230" y="83" width="13" height="13" />
<rect x="237" y="83" width="13" height="13" />
<rect x="253" y="75" width="13" height="13" />
<rect x="198" y="115" width="13" height="13" />
<rect x="198" y="107" width="13" height="13" />
<rect x="191" y="115" width="13" height="13" />
<rect x="230" y="107" width="13" height="13" />
<rect x="152" y="97" width="13" height="14" />
<rect x="152" y="105" width="13" height="13" />
<rect x="150" y="113" width="13" height="13" />
<rect x="143" y="113" width="13" height="13" />
<rect x="132" y="120" width="13" height="13" />
<rect x="124" y="120" width="13" height="13" />
<rect x="116" y="120" width="13" height="13" />
<rect x="112" y="128" width="13" height="13" />
<rect x="112" y="136" width="13" height="13" />
<rect x="112" y="144" width="13" height="13" />
<rect x="112" y="152" width="13" height="13" />
<rect x="116" y="168" width="12" height="13" />
<rect x="116" y="160" width="12" height="13" />
<rect x="85" y="157" width="13" height="13" />
<rect x="120" y="89" width="13" height="12" />
<rect x="108" y="168" width="13" height="13" />
<rect x="86" y="178" width="14" height="15" />
<rect x="108" y="176" width="13" height="17" />
<rect x="191" y="123" width="13" height="13" />
<rect x="141" y="147" width="13" height="13" />
<rect x="149" y="147" width="13" height="13" />
<rect x="116" y="176" width="13" height="17" />
<rect x="141" y="155" width="13" height="13" />
<rect x="123" y="180" width="13" height="13" />
<rect x="131" y="180" width="13" height="13" />
<rect x="139" y="180" width="15" height="13" />
<rect x="134" y="188" width="13" height="13" />
<rect x="141" y="163" width="13" height="13" />
</g>
<g class="spawningMap-uncommon">
<rect x="164" y="179" width="13" height="13" />
<rect x="177" y="158" width="13" height="13" />
<rect x="177" y="150" width="13" height="13" />
<rect x="153" y="261" width="13" height="13" />
<rect x="150" y="127" width="10" height="13" />
<rect x="166" y="98" width="10" height="13" />
<rect x="128" y="91" width="12" height="11" />
<rect x="115" y="89" width="10" height="12" />
<rect x="77" y="188" width="16" height="11" />
<rect x="142" y="188" width="12" height="13" />
<rect x="146" y="269" width="13" height="13" />
<rect x="153" y="269" width="13" height="13" />
<rect x="177" y="122" width="13" height="13" />
<rect x="209" y="83" width="13" height="14" />
<rect x="123" y="68" width="13" height="11" />
<rect x="131" y="68" width="13" height="11" />
<rect x="127" y="74" width="13" height="11" />
<rect x="185" y="93" width="13" height="13" />
<rect x="112" y="82" width="13" height="11" />
<rect x="164" y="163" width="13" height="13" />
<rect x="164" y="147" width="13" height="13" />
<rect x="169" y="245" width="13" height="13" />
<rect x="169" y="237" width="13" height="13" />
<rect x="169" y="229" width="13" height="13" />
<rect x="169" y="221" width="13" height="13" />
<rect x="177" y="221" width="13" height="13" />
<rect x="177" y="213" width="13" height="14" />
<rect x="185" y="213" width="13" height="14" />
<rect x="185" y="205" width="13" height="14" />
<rect x="185" y="198" width="13" height="13" />
<rect x="177" y="205" width="13" height="14" />
<rect x="177" y="198" width="13" height="13" />
<rect x="177" y="190" width="13" height="13" />
<rect x="177" y="182" width="13" height="13" />
<rect x="177" y="174" width="13" height="13" />
<rect x="177" y="166" width="13" height="13" />
<rect x="169" y="253" width="13" height="13" />
<rect x="146" y="253" width="13" height="13" />
<rect x="146" y="261" width="13" height="13" />
</g>
<g class="spawningMap-common">
<rect x="146" y="276" width="13" height="10" />
<rect x="153" y="276" width="13" height="10" />
<rect x="151" y="138" width="10" height="13" />
</g>
</g>
</svg>