<?xml version="1.0" encoding="utf-8"?>
<svg xmlns="http://www.w3.org/2000/svg" width="300" height="300" viewBox="0 0 300 300" class="creatureMap" style="position:absolute;">
    <defs>
        <filter id="blur" x="-30%" y="-30%" width="160%" height="160%">
            <feGaussianBlur stdDeviation="3" />
        </filter>
        <pattern id="pattern-untameable" width="10" height="10" patternTransform="rotate(135)" patternUnits="userSpaceOnUse">'
            <rect width="4" height="10" fill="black"></rect>
        </pattern>
        <filter id="groupStroke">
            <feFlood result="outsideColor" flood-color="black"/>
            <feMorphology in="SourceAlpha" operator="dilate" radius="2"/>
            <feComposite result="strokeoutline1" in="outsideColor" operator="in"/>
            <feComposite result="strokeoutline2" in="strokeoutline1" in2="SourceAlpha" operator="out"/>
            <feGaussianBlur in="strokeoutline2" result="strokeblur" stdDeviation="1"/>
        </filter>
        <style>
            .spawningMap-very-common { fill: #0F0; }
            .spawningMap-common { fill: #B2FF00; }
            .spawningMap-uncommon { fill: #FF0; }
            .spawningMap-very-uncommon { fill: #FC0; }
            .spawningMap-rare { fill: #F60; }
            .spawningMap-very-rare { fill: #F00; }
            .spawning-map-point { stroke:black; stroke-width:1; }
        </style>
    </defs>

<g filter="url(#blur)" opacity="0.7">
<g class="spawningMap-rare">
<rect x="46" y="238" width="13" height="16" />
<rect x="62" y="238" width="13" height="16" />
<rect x="54" y="238" width="13" height="16" />
</g>
<g class="spawningMap-very-uncommon">
<rect x="130" y="261" width="13" height="13" />
<rect x="130" y="269" width="13" height="13" />
<rect x="30" y="254" width="13" height="13" />
<rect x="164" y="187" width="13" height="13" />
<rect x="157" y="187" width="13" height="13" />
<rect x="185" y="237" width="13" height="13" />
<rect x="138" y="229" width="13" height="13" />
<rect x="161" y="245" width="13" height="13" />
<rect x="146" y="245" width="13" height="13" />
<rect x="138" y="245" width="13" height="13" />
<rect x="138" y="253" width="13" height="13" />
<rect x="146" y="229" width="13" height="13" />
<rect x="146" y="221" width="13" height="14" />
<rect x="153" y="221" width="13" height="14" />
<rect x="138" y="261" width="13" height="13" />
<rect x="138" y="269" width="13" height="13" />
<rect x="69" y="238" width="13" height="13" />
<rect x="161" y="221" width="13" height="14" />
<rect x="71" y="86" width="13" height="15" />
<rect x="73" y="77" width="13" height="15" />
<rect x="157" y="155" width="13" height="13" />
<rect x="164" y="171" width="13" height="13" />
<rect x="157" y="171" width="13" height="13" />
<rect x="185" y="221" width="13" height="13" />
<rect x="185" y="229" width="13" height="13" />
<rect x="177" y="229" width="13" height="13" />
<rect x="177" y="237" width="13" height="13" />
<rect x="69" y="246" width="13" height="13" />
<rect x="164" y="155" width="13" height="13" />
<rect x="161" y="229" width="13" height="13" />
<rect x="153" y="229" width="13" height="13" />
<rect x="161" y="237" width="13" height="13" />
<rect x="153" y="237" width="13" height="13" />
<rect x="146" y="237" width="13" height="13" />
<rect x="138" y="237" width="13" height="13" />
<rect x="153" y="245" width="13" height="13" />
<rect x="153" y="253" width="13" height="13" />
<rect x="161" y="253" width="13" height="13" />
<rect x="161" y="261" width="13" height="13" />
<rect x="161" y="269" width="13" height="13" />
</g>
<g class="spawningMap-uncommon">
<rect x="138" y="276" width="13" height="10" />
<rect x="90" y="76" width="13" height="14" />
<rect x="87" y="82" width="10" height="10" />
<rect x="93" y="87" width="8" height="8" />
</g>
<g class="spawningMap-common">
<rect x="91" y="97" width="13" height="13" />
<rect x="99" y="89" width="13" height="13" />
<rect x="83" y="97" width="13" height="13" />
<rect x="107" y="89" width="13" height="13" />
<rect x="99" y="81" width="13" height="13" />
<rect x="83" y="73" width="13" height="14" />
<rect x="91" y="73" width="13" height="14" />
<rect x="99" y="73" width="13" height="14" />
<rect x="107" y="73" width="13" height="14" />
<rect x="107" y="81" width="13" height="13" />
<rect x="91" y="81" width="13" height="13" />
<rect x="83" y="81" width="13" height="13" />
<rect x="83" y="89" width="13" height="13" />
<rect x="91" y="89" width="13" height="13" />
</g>
<g class="spawningMap-very-common">
<rect x="99" y="87" width="7" height="7" />
<rect x="97" y="93" width="8" height="8" />
<rect x="89" y="84" width="8" height="8" />
<rect x="94" y="83" width="7" height="7" />
</g>
</g>
<g fill="url(#pattern-untameable)" opacity="0.3">
<rect x="93" y="87" width="8" height="8"/>
<rect x="99" y="87" width="7" height="7"/>
<rect x="97" y="93" width="8" height="8"/>
<rect x="89" y="84" width="8" height="8"/>
<rect x="94" y="83" width="7" height="7"/>
</g>
</svg>