<?xml version="1.0" encoding="utf-8"?>
<svg xmlns="http://www.w3.org/2000/svg" width="300" height="300"
        viewBox="0 0 300 300" class="creatureMap" style="position:absolute;">
    <defs>
        <filter id="blur" x="-30%" y="-30%" width="160%" height="160%">
            <feGaussianBlur stdDeviation="3" />
        </filter>
        <pattern id="pattern-untameable" width="10" height="10" patternTransform="rotate(135)" patternUnits="userSpaceOnUse">
            <rect width="4" height="10" fill="black"></rect>
        </pattern>
        <filter id="groupStroke">
            <feFlood result="outsideColor" flood-color="black"/>
            <feMorphology in="SourceAlpha" operator="dilate" radius="2"/>
            <feComposite result="strokeoutline1" in="outsideColor" operator="in"/>
            <feComposite result="strokeoutline2" in="strokeoutline1" in2="SourceAlpha" operator="out"/>
            <feGaussianBlur in="strokeoutline2" result="strokeblur" stdDeviation="1"/>
        </filter>
        <style>
            .spawningMap-very-common { fill: #0F0; }
            .spawningMap-common { fill: #B2FF00; }
            .spawningMap-uncommon { fill: #FF0; }
            .spawningMap-very-uncommon { fill: #FC0; }
            .spawningMap-rare { fill: #F60; }
            .spawningMap-very-rare { fill: #F00; }
            .spawning-map-point { stroke:black; stroke-width:1; }
        </style>
    </defs>

<g filter="url(#blur)" opacity="0.7">
<g class="spawningMap-uncommon">
<rect x="232" y="180" width="12" height="12" />
<rect x="232" y="171" width="12" height="13" />
<rect x="240" y="173" width="13" height="13" />
<rect x="240" y="182" width="13" height="12" />
<rect x="249" y="182" width="12" height="12" />
<rect x="249" y="191" width="12" height="12" />
<rect x="258" y="191" width="12" height="12" />
<rect x="263" y="199" width="13" height="13" />
<rect x="263" y="208" width="13" height="12" />
<rect x="249" y="165" width="12" height="12" />
<rect x="249" y="156" width="12" height="13" />
<rect x="257" y="165" width="13" height="12" />
<rect x="257" y="156" width="13" height="13" />
<rect x="257" y="173" width="13" height="13" />
<rect x="266" y="165" width="13" height="12" />
<rect x="266" y="156" width="13" height="13" />
<rect x="266" y="173" width="13" height="13" />
<rect x="275" y="165" width="12" height="12" />
<rect x="275" y="156" width="12" height="13" />
<rect x="275" y="173" width="12" height="13" />
<rect x="249" y="148" width="12" height="12" />
<rect x="243" y="130" width="12" height="13" />
<rect x="240" y="148" width="13" height="12" />
<rect x="240" y="139" width="13" height="12" />
<rect x="249" y="93" width="12" height="12" />
<rect x="262" y="67" width="12" height="13" />
<rect x="262" y="59" width="12" height="12" />
<rect x="262" y="50" width="12" height="13" />
<rect x="262" y="42" width="12" height="12" />
<rect x="270" y="50" width="13" height="13" />
<rect x="270" y="42" width="13" height="12" />
<rect x="270" y="84" width="13" height="13" />
<rect x="270" y="76" width="13" height="12" />
<rect x="270" y="102" width="13" height="12" />
<rect x="270" y="93" width="13" height="12" />
<rect x="262" y="96" width="12" height="12" />
<rect x="262" y="87" width="12" height="13" />
<rect x="279" y="94" width="12" height="13" />
<rect x="279" y="86" width="12" height="12" />
<rect x="262" y="110" width="12" height="13" />
<rect x="262" y="119" width="12" height="12" />
<rect x="270" y="119" width="13" height="12" />
<rect x="273" y="127" width="12" height="13" />
<rect x="249" y="84" width="12" height="13" />
<rect x="257" y="182" width="13" height="12" />
<rect x="266" y="182" width="13" height="12" />
<rect x="275" y="182" width="12" height="12" />
<rect x="283" y="156" width="13" height="13" />
<rect x="292" y="156" width="8" height="13" />
<rect x="283" y="148" width="13" height="12" />
<rect x="292" y="148" width="8" height="12" />
<rect x="283" y="139" width="13" height="12" />
<rect x="292" y="139" width="8" height="12" />
<rect x="283" y="130" width="13" height="13" />
<rect x="292" y="130" width="8" height="13" />
<rect x="283" y="122" width="13" height="12" />
<rect x="292" y="122" width="8" height="12" />
<rect x="283" y="182" width="13" height="12" />
<rect x="292" y="182" width="8" height="12" />
<rect x="283" y="173" width="13" height="13" />
<rect x="292" y="173" width="8" height="13" />
<rect x="283" y="165" width="13" height="12" />
<rect x="292" y="165" width="8" height="12" />
<rect x="296" y="77" width="4" height="12" />
<rect x="296" y="68" width="4" height="13" />
<rect x="249" y="139" width="12" height="12" />
<rect x="232" y="139" width="12" height="12" />
<rect x="249" y="102" width="12" height="12" />
<rect x="270" y="67" width="13" height="13" />
<rect x="270" y="59" width="13" height="12" />
<rect x="270" y="110" width="13" height="13" />
<rect x="264" y="127" width="13" height="13" />
<rect x="273" y="136" width="12" height="12" />
<rect x="258" y="76" width="12" height="12" />
<rect x="288" y="113" width="12" height="13" />
<rect x="296" y="113" width="4" height="13" />
<rect x="279" y="113" width="12" height="13" />
<rect x="296" y="105" width="4" height="12" />
<rect x="279" y="105" width="12" height="12" />
<rect x="296" y="96" width="4" height="12" />
<rect x="288" y="87" width="12" height="13" />
<rect x="296" y="87" width="4" height="13" />
<rect x="279" y="77" width="12" height="12" />
<rect x="288" y="77" width="12" height="12" />
<rect x="279" y="68" width="12" height="13" />
<rect x="288" y="68" width="12" height="13" />
<rect x="279" y="60" width="12" height="12" />
<rect x="288" y="60" width="12" height="12" />
<rect x="296" y="60" width="4" height="12" />
<rect x="266" y="191" width="13" height="12" />
<rect x="249" y="173" width="12" height="13" />
<rect x="255" y="199" width="12" height="13" />
</g>
</g>
</svg>