<?xml version="1.0" encoding="utf-8"?>
<svg xmlns="http://www.w3.org/2000/svg" width="300" height="300"
        viewBox="0 0 300 300" class="creatureMap" style="position:absolute;">
    <defs>
        <filter id="blur" x="-30%" y="-30%" width="160%" height="160%">
            <feGaussianBlur stdDeviation="3" />
        </filter>
        <pattern id="pattern-untameable" width="10" height="10" patternTransform="rotate(135)" patternUnits="userSpaceOnUse">
            <rect width="4" height="10" fill="black"></rect>
        </pattern>
        <filter id="groupStroke">
            <feFlood result="outsideColor" flood-color="black"/>
            <feMorphology in="SourceAlpha" operator="dilate" radius="2"/>
            <feComposite result="strokeoutline1" in="outsideColor" operator="in"/>
            <feComposite result="strokeoutline2" in="strokeoutline1" in2="SourceAlpha" operator="out"/>
            <feGaussianBlur in="strokeoutline2" result="strokeblur" stdDeviation="1"/>
        </filter>
        <style>
            .spawningMap-very-common { fill: #0F0; }
            .spawningMap-common { fill: #B2FF00; }
            .spawningMap-uncommon { fill: #FF0; }
            .spawningMap-very-uncommon { fill: #FC0; }
            .spawningMap-rare { fill: #F60; }
            .spawningMap-very-rare { fill: #F00; }
            .spawning-map-point { stroke:black; stroke-width:1; }
        </style>
    </defs>

<g filter="url(#blur)" opacity="0.7">
<g class="spawningMap-uncommon">
<rect x="174" y="7" width="12" height="13" />
<rect x="174" y="16" width="12" height="12" />
<rect x="174" y="24" width="12" height="13" />
<rect x="174" y="33" width="12" height="12" />
<rect x="182" y="7" width="13" height="13" />
<rect x="182" y="16" width="13" height="12" />
<rect x="182" y="24" width="13" height="13" />
<rect x="182" y="33" width="13" height="12" />
<rect x="191" y="7" width="12" height="13" />
<rect x="191" y="16" width="12" height="12" />
<rect x="191" y="24" width="12" height="13" />
<rect x="199" y="7" width="13" height="13" />
<rect x="199" y="16" width="13" height="12" />
<rect x="199" y="24" width="13" height="13" />
<rect x="191" y="33" width="12" height="12" />
<rect x="199" y="33" width="13" height="12" />
<rect x="208" y="7" width="12" height="13" />
<rect x="208" y="16" width="12" height="12" />
<rect x="208" y="24" width="12" height="13" />
<rect x="216" y="7" width="13" height="13" />
<rect x="216" y="16" width="13" height="12" />
<rect x="216" y="24" width="13" height="13" />
</g>
</g>
<g class="spawning-map-point" opacity="0.8">
<g class="spawningMap-very-rare">
<circle cx="80" cy="196" r="4" />
<circle cx="101" cy="198" r="4" />
<circle cx="101" cy="210" r="4" />
<circle cx="112" cy="210" r="4" />
<circle cx="117" cy="218" r="4" />
<circle cx="83" cy="224" r="4" />
<circle cx="91" cy="224" r="4" />
<circle cx="103" cy="223" r="4" />
<circle cx="102" cy="226" r="4" />
<circle cx="116" cy="230" r="4" />
<circle cx="124" cy="229" r="4" />
<circle cx="119" cy="235" r="4" />
<circle cx="129" cy="233" r="4" />
<circle cx="122" cy="243" r="4" />
<circle cx="114" cy="247" r="4" />
<circle cx="106" cy="245" r="4" />
<circle cx="102" cy="241" r="4" />
<circle cx="95" cy="244" r="4" />
<circle cx="88" cy="239" r="4" />
<circle cx="85" cy="234" r="4" />
<circle cx="84" cy="243" r="4" />
<circle cx="69" cy="236" r="4" />
<circle cx="75" cy="243" r="4" />
<circle cx="78" cy="251" r="4" />
<circle cx="75" cy="254" r="4" />
<circle cx="68" cy="261" r="4" />
<circle cx="70" cy="252" r="4" />
<circle cx="63" cy="254" r="4" />
<circle cx="65" cy="240" r="4" />
<circle cx="73" cy="241" r="4" />
<circle cx="66" cy="238" r="4" />
<circle cx="60" cy="232" r="4" />
<circle cx="51" cy="231" r="4" />
<circle cx="62" cy="239" r="4" />
<circle cx="56" cy="249" r="4" />
<circle cx="46" cy="242" r="4" />
<circle cx="47" cy="245" r="4" />
<circle cx="40" cy="259" r="4" />
<circle cx="36" cy="273" r="4" />
<circle cx="35" cy="254" r="4" />
<circle cx="47" cy="257" r="4" />
<circle cx="57" cy="267" r="4" />
<circle cx="54" cy="277" r="4" />
<circle cx="42" cy="277" r="4" />
<circle cx="34" cy="268" r="4" />
<circle cx="31" cy="272" r="4" />
<circle cx="135" cy="216" r="4" />
<circle cx="144" cy="223" r="4" />
<circle cx="138" cy="230" r="4" />
<circle cx="151" cy="230" r="4" />
<circle cx="149" cy="251" r="4" />
<circle cx="163" cy="269" r="4" />
<circle cx="173" cy="279" r="4" />
<circle cx="172" cy="288" r="4" />
<circle cx="126" cy="288" r="4" />
<circle cx="119" cy="283" r="4" />
<circle cx="99" cy="280" r="4" />
<circle cx="89" cy="273" r="4" />
<circle cx="79" cy="275" r="4" />
<circle cx="56" cy="274" r="4" />
<circle cx="46" cy="278" r="4" />
<circle cx="75" cy="281" r="4" />
<circle cx="41" cy="289" r="4" />
<circle cx="3" cy="298" r="4" />
<circle cx="1" cy="281" r="4" />
<circle cx="28" cy="245" r="4" />
<circle cx="46" cy="225" r="4" />
<circle cx="28" cy="223" r="4" />
<circle cx="26" cy="254" r="4" />
<circle cx="11" cy="241" r="4" />
<circle cx="26" cy="219" r="4" />
<circle cx="30" cy="198" r="4" />
<circle cx="74" cy="194" r="4" />
<circle cx="67" cy="182" r="4" />
<circle cx="71" cy="170" r="4" />
<circle cx="66" cy="165" r="4" />
<circle cx="54" cy="167" r="4" />
<circle cx="62" cy="153" r="4" />
<circle cx="56" cy="148" r="4" />
<circle cx="20" cy="192" r="4" />
</g>
</g>
</svg>