<?xml version="1.0" encoding="utf-8"?>
<svg xmlns="http://www.w3.org/2000/svg" width="300" height="300"
        viewBox="0 0 300 300" class="creatureMap" style="position:absolute;">
    <defs>
        <filter id="blur" x="-30%" y="-30%" width="160%" height="160%">
            <feGaussianBlur stdDeviation="3" />
        </filter>
        <pattern id="pattern-untameable" width="10" height="10" patternTransform="rotate(135)" patternUnits="userSpaceOnUse">
            <rect width="4" height="10" fill="black"></rect>
        </pattern>
        <filter id="groupStroke">
            <feFlood result="outsideColor" flood-color="black"/>
            <feMorphology in="SourceAlpha" operator="dilate" radius="2"/>
            <feComposite result="strokeoutline1" in="outsideColor" operator="in"/>
            <feComposite result="strokeoutline2" in="strokeoutline1" in2="SourceAlpha" operator="out"/>
            <feGaussianBlur in="strokeoutline2" result="strokeblur" stdDeviation="1"/>
        </filter>
        <style>
            .spawningMap-very-common { fill: #0F0; }
            .spawningMap-common { fill: #B2FF00; }
            .spawningMap-uncommon { fill: #FF0; }
            .spawningMap-very-uncommon { fill: #FC0; }
            .spawningMap-rare { fill: #F60; }
            .spawningMap-very-rare { fill: #F00; }
            .spawning-map-point { stroke:black; stroke-width:1; }
        </style>
    </defs>

<g filter="url(#blur)" opacity="0.7">
<g class="spawningMap-uncommon">
<rect x="293" y="7" width="7" height="13" />
<rect x="88" y="27" width="12" height="12" />
<rect x="97" y="27" width="12" height="12" />
<rect x="105" y="44" width="13" height="12" />
<rect x="79" y="53" width="13" height="12" />
<rect x="88" y="53" width="12" height="12" />
<rect x="79" y="44" width="13" height="12" />
<rect x="88" y="44" width="12" height="12" />
<rect x="97" y="53" width="12" height="12" />
<rect x="97" y="44" width="12" height="12" />
<rect x="139" y="35" width="13" height="13" />
<rect x="148" y="35" width="12" height="13" />
<rect x="131" y="44" width="12" height="12" />
<rect x="45" y="10" width="13" height="12" />
<rect x="54" y="10" width="12" height="12" />
<rect x="62" y="10" width="13" height="12" />
<rect x="45" y="1" width="13" height="12" />
<rect x="54" y="1" width="12" height="12" />
<rect x="62" y="1" width="13" height="12" />
<rect x="54" y="0" width="12" height="5" />
<rect x="62" y="0" width="13" height="5" />
<rect x="45" y="0" width="13" height="5" />
<rect x="9" y="10" width="12" height="12" />
<rect x="9" y="1" width="12" height="12" />
<rect x="79" y="35" width="13" height="13" />
<rect x="88" y="35" width="12" height="13" />
<rect x="97" y="35" width="12" height="13" />
<rect x="105" y="35" width="13" height="13" />
<rect x="251" y="0" width="12" height="2" />
<rect x="259" y="0" width="13" height="2" />
<rect x="268" y="0" width="12" height="2" />
<rect x="276" y="0" width="13" height="2" />
<rect x="285" y="0" width="12" height="3" />
<rect x="293" y="0" width="7" height="3" />
<rect x="285" y="0" width="12" height="11" />
<rect x="293" y="0" width="7" height="11" />
<rect x="105" y="27" width="13" height="12" />
<rect x="114" y="44" width="12" height="12" />
<rect x="114" y="35" width="12" height="13" />
<rect x="131" y="35" width="12" height="13" />
<rect x="131" y="27" width="12" height="12" />
<rect x="139" y="27" width="13" height="12" />
<rect x="131" y="18" width="12" height="13" />
<rect x="139" y="18" width="13" height="13" />
<rect x="148" y="27" width="12" height="12" />
<rect x="148" y="18" width="12" height="13" />
<rect x="139" y="44" width="13" height="12" />
<rect x="148" y="44" width="12" height="12" />
<rect x="136" y="52" width="12" height="13" />
<rect x="20" y="0" width="12" height="1" />
<rect x="28" y="0" width="13" height="1" />
<rect x="37" y="0" width="12" height="1" />
<rect x="18" y="10" width="12" height="12" />
<rect x="18" y="1" width="12" height="12" />
<rect x="293" y="24" width="7" height="13" />
<rect x="285" y="7" width="12" height="13" />
</g>
</g>
</svg>