<?xml version="1.0" encoding="utf-8"?>
<svg xmlns="http://www.w3.org/2000/svg" width="300" height="300"
        viewBox="0 0 300 300" class="creatureMap" style="position:absolute;">
    <defs>
        <filter id="blur" x="-30%" y="-30%" width="160%" height="160%">
            <feGaussianBlur stdDeviation="3" />
        </filter>
        <pattern id="pattern-untameable" width="10" height="10" patternTransform="rotate(135)" patternUnits="userSpaceOnUse">
            <rect width="4" height="10" fill="black"></rect>
        </pattern>
        <filter id="groupStroke">
            <feFlood result="outsideColor" flood-color="black"/>
            <feMorphology in="SourceAlpha" operator="dilate" radius="2"/>
            <feComposite result="strokeoutline1" in="outsideColor" operator="in"/>
            <feComposite result="strokeoutline2" in="strokeoutline1" in2="SourceAlpha" operator="out"/>
            <feGaussianBlur in="strokeoutline2" result="strokeblur" stdDeviation="1"/>
        </filter>
        <style>
            .spawningMap-very-common { fill: #0F0; }
            .spawningMap-common { fill: #B2FF00; }
            .spawningMap-uncommon { fill: #FF0; }
            .spawningMap-very-uncommon { fill: #FC0; }
            .spawningMap-rare { fill: #F60; }
            .spawningMap-very-rare { fill: #F00; }
            .spawning-map-point { stroke:black; stroke-width:1; }
        </style>
    </defs>

<g filter="url(#blur)" opacity="0.7">
<g class="spawningMap-rare">
<rect x="257" y="251" width="13" height="12" />
<rect x="240" y="268" width="13" height="12" />
<rect x="240" y="225" width="13" height="12" />
<rect x="214" y="225" width="13" height="12" />
<rect x="206" y="225" width="12" height="12" />
<rect x="223" y="216" width="12" height="13" />
<rect x="214" y="216" width="13" height="13" />
<rect x="180" y="216" width="12" height="13" />
<rect x="266" y="277" width="12" height="12" />
<rect x="214" y="277" width="13" height="12" />
<rect x="206" y="277" width="12" height="12" />
<rect x="266" y="294" width="12" height="6" />
<rect x="214" y="294" width="13" height="6" />
<rect x="275" y="251" width="12" height="12" />
<rect x="223" y="208" width="12" height="12" />
<rect x="188" y="208" width="13" height="12" />
</g>
</g>
</svg>