<svg xmlns="http://www.w3.org/2000/svg" width="1024" height="1024" viewBox="0 0 1024 1024" style="position: absolute; width:100%; height:100%;">
<defs>
    <filter id="blur" x="-30%" y="-30%" width="160%" height="160%">'
        <feColorMatrix type="matrix" values="1 0 0 1 0, 0 1 0 0 0, 0 0 1 0 0, 0 0 0 0.7 0"/>
        <feGaussianBlur stdDeviation="10" />
    </filter>
</defs>
<a href="/Deep_Ocean_(The_Island)" class="svgRegion">
    <g filter="url(#blur)">
<rect x="0" y="873" width="1024" height="151" />
<rect x="896" y="0" width="128" height="1024" />
<rect x="0" y="0" width="1024" height="140" />
<rect x="0" y="0" width="129" height="1024" />
    </g>
    <text x="512" y="60">Deep Ocean</text>
</a>
<a href="/Underwater_(The_Island)" class="svgRegion">
    <g filter="url(#blur)">
<rect x="702" y="871" width="190" height="153" />
<rect x="891" y="871" width="133" height="153" />
<rect x="891" y="324" width="133" height="184" />
<rect x="0" y="324" width="137" height="184" />
<rect x="891" y="142" width="133" height="184" />
<rect x="0" y="871" width="137" height="153" />
<rect x="513" y="0" width="190" height="143" />
<rect x="702" y="0" width="190" height="143" />
<rect x="891" y="0" width="133" height="143" />
<rect x="325" y="0" width="190" height="143" />
<rect x="136" y="871" width="191" height="153" />
<rect x="325" y="871" width="190" height="153" />
<rect x="0" y="688" width="137" height="184" />
<rect x="891" y="506" width="133" height="184" />
<rect x="0" y="506" width="137" height="184" />
<rect x="891" y="688" width="133" height="184" />
<rect x="513" y="871" width="190" height="153" />
    </g>
    <text x="512" y="60">Underwater</text>
</a>
<a href="/The_Southeast_Shores_(The_Island)" class="svgRegion">
    <g filter="url(#blur)">
<rect x="927" y="715" width="19" height="41" />
<rect x="715" y="607" width="47" height="60" />
<rect x="739" y="654" width="46" height="60" />
<rect x="753" y="679" width="42" height="60" />
<rect x="772" y="628" width="43" height="60" />
<rect x="793" y="577" width="43" height="60" />
<rect x="781" y="623" width="43" height="60" />
<rect x="819" y="601" width="58" height="34" />
<rect x="822" y="574" width="58" height="35" />
<rect x="830" y="557" width="58" height="34" />
<rect x="859" y="510" width="25" height="55" />
<rect x="873" y="592" width="34" height="58" />
<rect x="893" y="581" width="35" height="58" />
<rect x="901" y="625" width="38" height="59" />
<rect x="892" y="625" width="34" height="58" />
<rect x="876" y="621" width="35" height="58" />
<rect x="869" y="699" width="30" height="27" />
<rect x="847" y="724" width="30" height="27" />
<rect x="802" y="773" width="25" height="29" />
<rect x="835" y="747" width="25" height="29" />
<rect x="817" y="742" width="25" height="29" />
<rect x="769" y="739" width="29" height="25" />
<rect x="804" y="752" width="29" height="25" />
<rect x="787" y="742" width="25" height="29" />
<rect x="771" y="763" width="25" height="29" />
<rect x="731" y="764" width="34" height="45" />
<rect x="914" y="738" width="19" height="41" />
<rect x="923" y="736" width="19" height="41" />
<rect x="923" y="685" width="19" height="41" />
<rect x="936" y="713" width="18" height="41" />
<rect x="935" y="771" width="18" height="41" />
<rect x="943" y="772" width="9" height="40" />
<rect x="926" y="775" width="28" height="39" />
<rect x="925" y="733" width="29" height="49" />
    </g>
    <text x="512" y="60">The Southeast Shores</text>
</a>
<a href="/The_Southern_Islets_(The_Island)" class="svgRegion">
    <g filter="url(#blur)">
<rect x="574" y="639" width="49" height="60" />
<rect x="615" y="640" width="49" height="60" />
<rect x="590" y="646" width="50" height="60" />
<rect x="563" y="912" width="42" height="33" />
<rect x="762" y="783" width="24" height="59" />
<rect x="381" y="801" width="31" height="60" />
<rect x="385" y="836" width="22" height="57" />
<rect x="390" y="871" width="43" height="60" />
<rect x="414" y="915" width="57" height="22" />
<rect x="460" y="876" width="47" height="61" />
<rect x="519" y="948" width="59" height="31" />
<rect x="571" y="956" width="57" height="22" />
<rect x="515" y="934" width="56" height="22" />
<rect x="537" y="912" width="37" height="22" />
<rect x="572" y="934" width="57" height="22" />
<rect x="602" y="892" width="47" height="60" />
<rect x="618" y="904" width="47" height="60" />
<rect x="637" y="915" width="47" height="60" />
<rect x="610" y="956" width="57" height="22" />
<rect x="674" y="907" width="61" height="40" />
<rect x="723" y="868" width="51" height="59" />
<rect x="752" y="829" width="29" height="31" />
<rect x="743" y="841" width="27" height="58" />
<rect x="545" y="692" width="26" height="54" />
<rect x="571" y="689" width="25" height="55" />
<rect x="482" y="912" width="60" height="47" />
<rect x="643" y="556" width="60" height="47" />
<rect x="641" y="564" width="58" height="54" />
<rect x="650" y="604" width="25" height="55" />
<rect x="660" y="604" width="26" height="54" />
<rect x="670" y="657" width="26" height="55" />
<rect x="647" y="703" width="50" height="60" />
<rect x="597" y="695" width="25" height="54" />
<rect x="605" y="727" width="59" height="39" />
<rect x="551" y="736" width="59" height="38" />
<rect x="495" y="908" width="57" height="54" />
<rect x="622" y="683" width="26" height="55" />
<rect x="507" y="894" width="58" height="53" />
<rect x="646" y="676" width="25" height="55" />
<rect x="597" y="888" width="32" height="59" />
<rect x="593" y="874" width="40" height="60" />
<rect x="407" y="802" width="10" height="101" />
<rect x="645" y="627" width="26" height="55" />
<rect x="476" y="922" width="60" height="47" />
<rect x="617" y="573" width="59" height="52" />
<rect x="604" y="612" width="59" height="52" />
    </g>
    <text x="512" y="60">The Southern Islets</text>
</a>
<a href="/The_Western_Approach_(The_Island)" class="svgRegion">
    <g filter="url(#blur)">
<rect x="150" y="627" width="55" height="25" />
<rect x="176" y="584" width="54" height="58" />
<rect x="239" y="528" width="54" height="76" />
<rect x="217" y="538" width="28" height="28" />
<rect x="231" y="542" width="26" height="13" />
<rect x="251" y="551" width="26" height="13" />
<rect x="256" y="542" width="25" height="13" />
<rect x="264" y="525" width="13" height="25" />
<rect x="111" y="591" width="58" height="54" />
<rect x="102" y="543" width="26" height="55" />
<rect x="104" y="514" width="39" height="59" />
<rect x="116" y="483" width="52" height="59" />
<rect x="162" y="477" width="55" height="26" />
<rect x="209" y="477" width="54" height="26" />
<rect x="226" y="444" width="54" height="35" />
<rect x="188" y="462" width="55" height="25" />
<rect x="274" y="539" width="26" height="13" />
<rect x="125" y="540" width="38" height="56" />
<rect x="137" y="500" width="51" height="57" />
<rect x="175" y="502" width="51" height="26" />
<rect x="223" y="497" width="51" height="26" />
<rect x="212" y="516" width="51" height="26" />
<rect x="160" y="528" width="52" height="25" />
<rect x="179" y="527" width="52" height="56" />
<rect x="134" y="576" width="56" height="53" />
<rect x="145" y="553" width="56" height="52" />
<rect x="160" y="534" width="55" height="53" />
<rect x="180" y="547" width="53" height="56" />
<rect x="253" y="472" width="53" height="56" />
<rect x="285" y="494" width="56" height="53" />
<rect x="275" y="508" width="55" height="52" />
<rect x="162" y="426" width="26" height="51" />
<rect x="144" y="628" width="59" height="39" />
<rect x="179" y="612" width="57" height="57" />
<rect x="182" y="623" width="56" height="31" />
<rect x="219" y="585" width="35" height="58" />
<rect x="162" y="374" width="26" height="52" />
    </g>
    <text x="512" y="60">The Western Approach</text>
</a>
<a href="/The_Western_Plains_(The_Island)" class="svgRegion">
    <g filter="url(#blur)">
<rect x="224" y="365" width="56" height="57" />
<rect x="258" y="409" width="39" height="59" />
<rect x="272" y="356" width="39" height="59" />
<rect x="188" y="436" width="55" height="26" />
<rect x="187" y="411" width="55" height="25" />
<rect x="188" y="385" width="55" height="26" />
<rect x="239" y="388" width="34" height="58" />
    </g>
    <text x="512" y="60">The Western Plains</text>
</a>
<a href="/Smuggler%27s_Pass_(The_Island)" class="svgRegion">
    <g filter="url(#blur)">
<rect x="717" y="336" width="26" height="54" />
<rect x="694" y="367" width="79" height="89" />
<rect x="711" y="268" width="46" height="60" />
<rect x="646" y="171" width="57" height="56" />
<rect x="641" y="202" width="57" height="57" />
<rect x="640" y="213" width="60" height="50" />
<rect x="681" y="235" width="60" height="49" />
<rect x="718" y="297" width="26" height="55" />
<rect x="733" y="323" width="58" height="35" />
<rect x="739" y="349" width="59" height="35" />
    </g>
    <text x="512" y="60">Smuggler&#x27;s Pass</text>
</a>
<a href="/The_Eastern_Plains_(The_Island)" class="svgRegion">
    <g filter="url(#blur)">
<rect x="770" y="505" width="47" height="47" />
<rect x="843" y="519" width="26" height="55" />
<rect x="779" y="361" width="57" height="57" />
<rect x="828" y="390" width="54" height="26" />
<rect x="781" y="398" width="43" height="60" />
<rect x="762" y="449" width="43" height="60" />
<rect x="721" y="489" width="55" height="25" />
<rect x="724" y="491" width="60" height="39" />
<rect x="867" y="472" width="54" height="58" />
    </g>
    <text x="512" y="60">The Eastern Plains</text>
</a>
<a href="/Northeast_Shores_(The_Island)" class="svgRegion">
    <g filter="url(#blur)">
<rect x="734" y="81" width="26" height="43" />
<rect x="741" y="83" width="43" height="50" />
    </g>
    <text x="512" y="60">Northeast Shores</text>
</a>
<a href="/Cragg%27s_Island_(The_Island)" class="svgRegion">
    <g filter="url(#blur)">
<rect x="214" y="945" width="57" height="54" />
<rect x="234" y="920" width="48" height="60" />
<rect x="260" y="881" width="27" height="58" />
<rect x="198" y="848" width="61" height="40" />
<rect x="154" y="850" width="61" height="44" />
<rect x="127" y="884" width="60" height="44" />
<rect x="151" y="902" width="36" height="61" />
<rect x="116" y="906" width="50" height="59" />
<rect x="132" y="895" width="51" height="59" />
<rect x="160" y="945" width="51" height="59" />
<rect x="234" y="858" width="50" height="59" />
<rect x="186" y="951" width="21" height="25" />
<rect x="218" y="941" width="29" height="28" />
<rect x="179" y="870" width="56" height="38" />
<rect x="178" y="895" width="38" height="57" />
<rect x="192" y="920" width="57" height="51" />
<rect x="192" y="870" width="57" height="50" />
<rect x="205" y="891" width="57" height="50" />
<rect x="234" y="915" width="29" height="28" />
<rect x="199" y="958" width="29" height="27" />
<rect x="100" y="915" width="47" height="61" />
<rect x="126" y="948" width="61" height="40" />
<rect x="173" y="981" width="57" height="22" />
    </g>
    <text x="512" y="60">Cragg&#x27;s Island</text>
</a>
<a href="/The_Western_Coast_(The_Island)" class="svgRegion">
    <g filter="url(#blur)">
<rect x="102" y="634" width="36" height="60" />
<rect x="107" y="876" width="60" height="44" />
<rect x="140" y="430" width="22" height="57" />
<rect x="143" y="340" width="21" height="57" />
<rect x="118" y="430" width="22" height="57" />
<rect x="106" y="471" width="59" height="50" />
<rect x="81" y="463" width="60" height="51" />
<rect x="61" y="359" width="69" height="108" />
<rect x="48" y="719" width="36" height="60" />
<rect x="103" y="504" width="22" height="57" />
<rect x="87" y="504" width="21" height="57" />
<rect x="51" y="534" width="57" height="54" />
<rect x="83" y="671" width="36" height="60" />
<rect x="119" y="373" width="22" height="57" />
<rect x="69" y="725" width="36" height="61" />
<rect x="141" y="373" width="22" height="57" />
<rect x="48" y="818" width="47" height="61" />
<rect x="60" y="775" width="27" height="58" />
<rect x="103" y="561" width="22" height="57" />
<rect x="80" y="865" width="48" height="60" />
<rect x="30" y="561" width="98" height="165" />
<rect x="103" y="600" width="44" height="61" />
    </g>
    <text x="512" y="60">The Western Coast</text>
</a>
<a href="/The_Footpaw_(The_Island)" class="svgRegion">
    <g filter="url(#blur)">
<rect x="263" y="864" width="50" height="59" />
<rect x="252" y="859" width="23" height="17" />
<rect x="249" y="854" width="24" height="17" />
<rect x="227" y="843" width="12" height="23" />
<rect x="226" y="836" width="24" height="17" />
<rect x="240" y="824" width="21" height="22" />
<rect x="237" y="815" width="20" height="22" />
<rect x="240" y="807" width="20" height="22" />
<rect x="248" y="810" width="21" height="22" />
<rect x="254" y="803" width="22" height="9" />
<rect x="256" y="800" width="21" height="23" />
<rect x="268" y="783" width="8" height="22" />
<rect x="275" y="790" width="8" height="21" />
<rect x="275" y="768" width="9" height="22" />
<rect x="248" y="761" width="18" height="24" />
<rect x="258" y="763" width="23" height="13" />
<rect x="256" y="771" width="23" height="13" />
<rect x="254" y="778" width="23" height="14" />
<rect x="252" y="744" width="21" height="21" />
<rect x="255" y="725" width="61" height="59" />
<rect x="292" y="856" width="58" height="54" />
<rect x="340" y="799" width="43" height="54" />
<rect x="310" y="837" width="48" height="53" />
<rect x="336" y="820" width="57" height="54" />
<rect x="418" y="725" width="26" height="37" />
<rect x="235" y="839" width="37" height="26" />
<rect x="250" y="818" width="34" height="36" />
<rect x="282" y="835" width="56" height="53" />
<rect x="264" y="816" width="56" height="52" />
<rect x="382" y="725" width="26" height="52" />
<rect x="382" y="752" width="25" height="52" />
<rect x="357" y="725" width="25" height="51" />
<rect x="353" y="776" width="28" height="25" />
<rect x="331" y="725" width="25" height="52" />
    </g>
    <text x="512" y="60">The Footpaw</text>
</a>
<a href="/Southeastern_Shores_(The_Island)" class="svgRegion">
    <g filter="url(#blur)">
<rect x="925" y="814" width="57" height="21" />
<rect x="764" y="803" width="47" height="60" />
<rect x="800" y="848" width="57" height="22" />
<rect x="839" y="831" width="60" height="47" />
<rect x="879" y="784" width="27" height="58" />
<rect x="903" y="775" width="51" height="59" />
<rect x="951" y="772" width="22" height="56" />
<rect x="954" y="731" width="26" height="59" />
<rect x="946" y="688" width="32" height="60" />
<rect x="930" y="678" width="50" height="60" />
<rect x="924" y="632" width="36" height="60" />
<rect x="867" y="825" width="37" height="76" />
    </g>
    <text x="512" y="60">Southeastern Shores</text>
</a>
<a href="/The_Northeast_Shores_(The_Island)" class="svgRegion">
    <g filter="url(#blur)">
<rect x="695" y="134" width="17" height="10" />
<rect x="929" y="400" width="51" height="59" />
<rect x="939" y="358" width="32" height="60" />
<rect x="933" y="320" width="32" height="60" />
<rect x="939" y="268" width="32" height="60" />
<rect x="929" y="216" width="40" height="61" />
<rect x="889" y="198" width="59" height="50" />
<rect x="847" y="197" width="59" height="26" />
<rect x="798" y="210" width="59" height="27" />
<rect x="776" y="162" width="47" height="60" />
<rect x="789" y="108" width="31" height="60" />
<rect x="757" y="64" width="50" height="59" />
<rect x="712" y="59" width="58" height="27" />
<rect x="736" y="108" width="7" height="16" />
<rect x="710" y="68" width="27" height="58" />
<rect x="717" y="125" width="16" height="7" />
<rect x="689" y="129" width="16" height="10" />
<rect x="695" y="127" width="17" height="10" />
<rect x="658" y="104" width="60" height="36" />
<rect x="630" y="106" width="53" height="58" />
<rect x="804" y="124" width="93" height="92" />
    </g>
    <text x="512" y="60">The Northeast Shores</text>
</a>
<a href="/The_Northern_Shore_(The_Island)" class="svgRegion">
    <g filter="url(#blur)">
<rect x="290" y="76" width="61" height="40" />
    </g>
    <text x="512" y="60">The Northern Shore</text>
</a>
<a href="/The_Gulch_of_Lamentation_(The_Island)" class="svgRegion">
    <g filter="url(#blur)">
<rect x="911" y="578" width="51" height="59" />
<rect x="884" y="528" width="50" height="59" />
<rect x="880" y="491" width="54" height="57" />
<rect x="906" y="488" width="31" height="60" />
<rect x="926" y="482" width="31" height="59" />
<rect x="892" y="513" width="64" height="74" />
<rect x="928" y="513" width="51" height="59" />
<rect x="947" y="480" width="27" height="58" />
<rect x="942" y="432" width="35" height="61" />
    </g>
    <text x="512" y="60">The Gulch of Lamentation</text>
</a>
<a href="/Northern_Shores_(The_Island)" class="svgRegion">
    <g filter="url(#blur)">
<rect x="738" y="137" width="56" height="46" />
<rect x="763" y="125" width="24" height="72" />
<rect x="769" y="124" width="31" height="54" />
<rect x="757" y="156" width="46" height="56" />
<rect x="697" y="137" width="46" height="56" />
<rect x="769" y="237" width="46" height="56" />
<rect x="723" y="239" width="46" height="56" />
<rect x="743" y="282" width="46" height="56" />
<rect x="745" y="281" width="40" height="56" />
<rect x="749" y="375" width="55" height="31" />
<rect x="745" y="397" width="54" height="32" />
<rect x="681" y="358" width="42" height="57" />
<rect x="696" y="382" width="42" height="56" />
<rect x="730" y="268" width="43" height="56" />
<rect x="796" y="232" width="53" height="22" />
<rect x="848" y="228" width="58" height="20" />
<rect x="406" y="252" width="43" height="56" />
<rect x="859" y="214" width="59" height="31" />
<rect x="749" y="226" width="45" height="56" />
<rect x="900" y="230" width="52" height="53" />
<rect x="729" y="200" width="53" height="53" />
<rect x="921" y="274" width="26" height="51" />
<rect x="740" y="221" width="53" height="53" />
<rect x="403" y="217" width="55" height="49" />
<rect x="638" y="129" width="55" height="51" />
<rect x="671" y="132" width="53" height="52" />
<rect x="732" y="211" width="76" height="81" />
<rect x="665" y="154" width="53" height="53" />
<rect x="701" y="191" width="53" height="53" />
<rect x="694" y="208" width="57" height="43" />
<rect x="698" y="177" width="53" height="53" />
<rect x="696" y="130" width="55" height="35" />
    </g>
    <text x="512" y="60">Northern Shores</text>
</a>
<a href="/Southern_Jungle_(The_Island)" class="svgRegion">
    <g filter="url(#blur)">
<rect x="143" y="664" width="56" height="38" />
<rect x="179" y="677" width="41" height="57" />
<rect x="134" y="650" width="68" height="28" />
<rect x="196" y="725" width="42" height="57" />
<rect x="211" y="762" width="42" height="57" />
<rect x="147" y="827" width="58" height="45" />
<rect x="183" y="815" width="58" height="45" />
<rect x="105" y="850" width="57" height="44" />
<rect x="72" y="813" width="47" height="57" />
<rect x="82" y="814" width="45" height="58" />
<rect x="105" y="804" width="45" height="57" />
<rect x="127" y="791" width="45" height="58" />
<rect x="149" y="781" width="45" height="57" />
<rect x="175" y="774" width="44" height="57" />
<rect x="193" y="765" width="44" height="57" />
<rect x="164" y="721" width="45" height="57" />
<rect x="142" y="733" width="45" height="57" />
<rect x="117" y="739" width="45" height="57" />
<rect x="95" y="752" width="45" height="57" />
<rect x="95" y="773" width="30" height="54" />
<rect x="83" y="773" width="30" height="54" />
<rect x="97" y="711" width="38" height="56" />
<rect x="122" y="727" width="51" height="26" />
<rect x="160" y="684" width="41" height="57" />
<rect x="133" y="682" width="41" height="58" />
<rect x="112" y="698" width="41" height="57" />
<rect x="101" y="692" width="38" height="57" />
<rect x="119" y="659" width="38" height="56" />
    </g>
    <text x="512" y="60">Southern Jungle</text>
</a>
<a href="/The_Maw_(The_Island)" class="svgRegion">
    <g filter="url(#blur)">
<rect x="629" y="451" width="30" height="54" />
<rect x="667" y="412" width="58" height="48" />
<rect x="496" y="308" width="48" height="58" />
<rect x="495" y="340" width="48" height="57" />
<rect x="521" y="384" width="48" height="57" />
<rect x="512" y="411" width="42" height="57" />
<rect x="554" y="415" width="56" height="38" />
<rect x="603" y="428" width="56" height="38" />
<rect x="627" y="408" width="57" height="48" />
<rect x="646" y="426" width="57" height="48" />
<rect x="653" y="394" width="58" height="47" />
<rect x="654" y="458" width="43" height="53" />
<rect x="592" y="452" width="41" height="34" />
    </g>
    <text x="512" y="60">The Maw</text>
</a>
<a href="/The_Hidden_Lake_(The_Island)" class="svgRegion">
    <g filter="url(#blur)">
<rect x="749" y="198" width="11" height="16" />
<rect x="734" y="154" width="11" height="15" />
<rect x="732" y="157" width="29" height="24" />
<rect x="728" y="170" width="30" height="24" />
<rect x="734" y="171" width="23" height="30" />
<rect x="729" y="174" width="13" height="23" />
<rect x="746" y="178" width="19" height="23" />
<rect x="731" y="176" width="20" height="21" />
<rect x="739" y="173" width="23" height="15" />
    </g>
    <text x="512" y="60">The Hidden Lake</text>
</a>
<a href="/The_Eastern_Forest_(The_Island)" class="svgRegion">
    <g filter="url(#blur)">
<rect x="921" y="325" width="26" height="51" />
<rect x="883" y="358" width="56" height="53" />
<rect x="900" y="372" width="56" height="52" />
<rect x="888" y="414" width="56" height="50" />
<rect x="902" y="434" width="57" height="51" />
<rect x="846" y="443" width="57" height="51" />
<rect x="855" y="458" width="56" height="50" />
<rect x="813" y="487" width="57" height="50" />
<rect x="798" y="465" width="57" height="51" />
<rect x="831" y="422" width="57" height="50" />
<rect x="816" y="421" width="57" height="50" />
<rect x="803" y="406" width="57" height="50" />
<rect x="843" y="385" width="57" height="50" />
<rect x="867" y="398" width="57" height="50" />
<rect x="818" y="517" width="25" height="51" />
<rect x="699" y="517" width="25" height="51" />
<rect x="762" y="538" width="56" height="38" />
<rect x="715" y="542" width="56" height="38" />
<rect x="677" y="584" width="31" height="29" />
<rect x="798" y="530" width="31" height="28" />
<rect x="809" y="512" width="14" height="28" />
<rect x="787" y="482" width="30" height="21" />
<rect x="791" y="498" width="31" height="21" />
<rect x="804" y="440" width="29" height="31" />
<rect x="817" y="401" width="32" height="27" />
<rect x="758" y="417" width="31" height="20" />
<rect x="714" y="516" width="57" height="38" />
<rect x="705" y="450" width="51" height="25" />
<rect x="730" y="449" width="51" height="25" />
<rect x="690" y="463" width="52" height="25" />
<rect x="795" y="471" width="31" height="21" />
<rect x="742" y="474" width="28" height="14" />
<rect x="707" y="488" width="16" height="29" />
<rect x="697" y="563" width="57" height="38" />
<rect x="756" y="562" width="56" height="38" />
<rect x="739" y="610" width="57" height="38" />
<rect x="695" y="580" width="31" height="21" />
<rect x="716" y="594" width="31" height="21" />
<rect x="722" y="599" width="29" height="17" />
<rect x="739" y="609" width="23" height="31" />
<rect x="754" y="638" width="31" height="23" />
<rect x="750" y="629" width="22" height="31" />
<rect x="744" y="565" width="22" height="32" />
<rect x="745" y="585" width="56" height="38" />
    </g>
    <text x="512" y="60">The Eastern Forest</text>
</a>
<a href="/Southern_Islets_(The_Island)" class="svgRegion">
    <g filter="url(#blur)">
<rect x="781" y="706" width="56" height="37" />
<rect x="791" y="682" width="57" height="38" />
<rect x="805" y="659" width="57" height="38" />
<rect x="841" y="671" width="38" height="56" />
<rect x="900" y="684" width="38" height="56" />
<rect x="868" y="675" width="55" height="34" />
<rect x="847" y="753" width="38" height="56" />
<rect x="801" y="822" width="51" height="25" />
<rect x="789" y="769" width="19" height="28" />
<rect x="787" y="794" width="28" height="19" />
<rect x="793" y="807" width="27" height="16" />
<rect x="842" y="799" width="19" height="28" />
<rect x="854" y="802" width="19" height="28" />
<rect x="731" y="804" width="38" height="31" />
<rect x="732" y="814" width="37" height="31" />
<rect x="700" y="828" width="42" height="39" />
<rect x="722" y="813" width="14" height="27" />
<rect x="817" y="770" width="38" height="56" />
<rect x="620" y="842" width="45" height="57" />
<rect x="638" y="852" width="48" height="58" />
<rect x="648" y="862" width="47" height="57" />
<rect x="665" y="870" width="48" height="58" />
<rect x="669" y="884" width="57" height="41" />
<rect x="643" y="818" width="57" height="48" />
<rect x="667" y="836" width="57" height="47" />
<rect x="550" y="883" width="56" height="38" />
<rect x="493" y="867" width="47" height="57" />
<rect x="498" y="871" width="56" height="53" />
<rect x="529" y="881" width="52" height="26" />
<rect x="529" y="855" width="51" height="26" />
<rect x="561" y="810" width="34" height="55" />
<rect x="577" y="839" width="34" height="55" />
<rect x="537" y="805" width="33" height="55" />
<rect x="588" y="814" width="55" height="34" />
<rect x="605" y="836" width="33" height="55" />
<rect x="606" y="765" width="33" height="55" />
<rect x="621" y="767" width="34" height="55" />
<rect x="673" y="762" width="34" height="55" />
<rect x="689" y="766" width="34" height="55" />
<rect x="696" y="714" width="34" height="56" />
<rect x="712" y="699" width="34" height="55" />
<rect x="699" y="667" width="34" height="55" />
<rect x="692" y="628" width="34" height="55" />
<rect x="409" y="858" width="45" height="58" />
<rect x="418" y="813" width="26" height="51" />
<rect x="395" y="744" width="61" height="72" />
<rect x="444" y="726" width="25" height="51" />
<rect x="443" y="777" width="26" height="51" />
<rect x="444" y="829" width="25" height="52" />
<rect x="434" y="863" width="26" height="51" />
<rect x="442" y="859" width="48" height="57" />
<rect x="469" y="828" width="56" height="50" />
<rect x="454" y="806" width="57" height="50" />
<rect x="452" y="745" width="56" height="50" />
<rect x="455" y="712" width="57" height="51" />
<rect x="491" y="709" width="57" height="51" />
<rect x="518" y="740" width="56" height="51" />
<rect x="481" y="732" width="62" height="55" />
<rect x="454" y="775" width="56" height="50" />
<rect x="496" y="789" width="30" height="54" />
<rect x="492" y="774" width="55" height="33" />
<rect x="555" y="782" width="55" height="34" />
<rect x="560" y="756" width="55" height="34" />
    </g>
    <text x="512" y="60">Southern Islets</text>
</a>
<a href="/The_Deep_Island_(The_Island)" class="svgRegion">
    <g filter="url(#blur)">
<rect x="325" y="517" width="55" height="34" />
<rect x="375" y="508" width="55" height="34" />
<rect x="333" y="697" width="104" height="28" />
    </g>
    <text x="512" y="60">The Deep Island</text>
</a>
<a href="/The_Dead_Island_(The_Island)" class="svgRegion">
    <g filter="url(#blur)">
<rect x="831" y="27" width="170" height="165" />
    </g>
    <text x="512" y="60">The Dead Island</text>
</a>
<a href="/Weathertop_(The_Island)" class="svgRegion">
    <g filter="url(#blur)">
<rect x="272" y="776" width="61" height="57" />
<rect x="301" y="774" width="62" height="56" />
<rect x="320" y="771" width="10" height="19" />
<rect x="325" y="777" width="19" height="10" />
<rect x="276" y="746" width="61" height="57" />
<rect x="317" y="783" width="50" height="64" />
    </g>
    <text x="512" y="60">Weathertop</text>
</a>
<a href="/The_Grand_Hills_(The_Island)" class="svgRegion">
    <g filter="url(#blur)">
<rect x="339" y="488" width="71" height="34" />
<rect x="283" y="401" width="39" height="73" />
<rect x="295" y="314" width="51" height="115" />
<rect x="392" y="444" width="67" height="62" />
<rect x="372" y="281" width="67" height="62" />
<rect x="296" y="445" width="68" height="61" />
<rect x="440" y="388" width="34" height="72" />
<rect x="431" y="453" width="72" height="45" />
<rect x="413" y="252" width="119" height="118" />
<rect x="383" y="336" width="118" height="119" />
<rect x="313" y="386" width="125" height="124" />
<rect x="296" y="370" width="79" height="86" />
<rect x="288" y="465" width="68" height="62" />
<rect x="320" y="299" width="135" height="128" />
<rect x="482" y="411" width="45" height="73" />
<rect x="462" y="398" width="45" height="73" />
<rect x="446" y="391" width="45" height="73" />
<rect x="473" y="347" width="54" height="71" />
<rect x="473" y="291" width="59" height="70" />
<rect x="400" y="274" width="62" height="67" />
    </g>
    <text x="512" y="60">The Grand Hills</text>
</a>
<a href="/Far%27s_Peak_(The_Island)" class="svgRegion">
    <g filter="url(#blur)">
<rect x="887" y="244" width="40" height="40" />
<rect x="821" y="247" width="70" height="23" />
<rect x="780" y="248" width="55" height="71" />
<rect x="779" y="305" width="45" height="73" />
<rect x="813" y="367" width="69" height="23" />
<rect x="868" y="330" width="68" height="61" />
<rect x="897" y="271" width="29" height="71" />
<rect x="798" y="263" width="117" height="106" />
    </g>
    <text x="512" y="60">Far&#x27;s Peak</text>
</a>
<a href="/The_Red_Peak_(The_Island)" class="svgRegion">
    <g filter="url(#blur)">
<rect x="452" y="538" width="69" height="23" />
<rect x="407" y="544" width="58" height="70" />
<rect x="418" y="584" width="23" height="69" />
<rect x="493" y="593" width="68" height="62" />
<rect x="506" y="572" width="68" height="62" />
<rect x="503" y="540" width="67" height="62" />
<rect x="441" y="628" width="69" height="23" />
<rect x="429" y="561" width="120" height="70" />
<rect x="517" y="524" width="67" height="62" />
    </g>
    <text x="512" y="60">The Red Peak</text>
</a>
<a href="/The_Frozen_Tooth_(The_Island)" class="svgRegion">
    <g filter="url(#blur)">
<rect x="550" y="301" width="117" height="106" />
<rect x="579" y="264" width="118" height="106" />
<rect x="508" y="278" width="69" height="58" />
<rect x="524" y="302" width="45" height="73" />
<rect x="526" y="351" width="58" height="70" />
<rect x="558" y="392" width="73" height="39" />
<rect x="615" y="380" width="71" height="54" />
<rect x="662" y="328" width="50" height="73" />
<rect x="695" y="289" width="23" height="69" />
<rect x="646" y="243" width="71" height="54" />
<rect x="600" y="195" width="58" height="70" />
    </g>
    <text x="512" y="60">The Frozen Tooth</text>
</a>
<a href="/The_Writhing_Swamps_(The_Island)" class="svgRegion">
    <g filter="url(#blur)">
<rect x="206" y="652" width="80" height="39" />
<rect x="206" y="691" width="80" height="39" />
<rect x="213" y="729" width="80" height="39" />
<rect x="223" y="768" width="80" height="40" />
<rect x="283" y="707" width="80" height="52" />
<rect x="363" y="707" width="80" height="52" />
<rect x="422" y="679" width="94" height="81" />
<rect x="488" y="654" width="94" height="80" />
<rect x="510" y="702" width="88" height="95" />
<rect x="563" y="728" width="95" height="84" />
<rect x="628" y="710" width="95" height="85" />
<rect x="672" y="643" width="52" height="80" />
<rect x="644" y="577" width="95" height="88" />
<rect x="715" y="538" width="95" height="88" />
<rect x="774" y="537" width="95" height="85" />
<rect x="833" y="544" width="95" height="81" />
<rect x="858" y="499" width="91" height="94" />
<rect x="882" y="470" width="91" height="95" />
<rect x="886" y="500" width="80" height="95" />
<rect x="546" y="611" width="66" height="78" />
<rect x="583" y="558" width="67" height="78" />
<rect x="626" y="503" width="66" height="78" />
<rect x="655" y="515" width="67" height="77" />
    </g>
    <text x="512" y="60">The Writhing Swamps</text>
</a>
<a href="/Drayo%27s_Cove_(The_Island)" class="svgRegion">
    <g filter="url(#blur)">
<rect x="867" y="722" width="41" height="64" />
<rect x="888" y="716" width="34" height="53" />
<rect x="889" y="765" width="29" height="28" />
<rect x="899" y="763" width="28" height="24" />
    </g>
    <text x="512" y="60">Drayo&#x27;s Cove</text>
</a>
<a href="/The_Frozen_Sea_(The_Island)" class="svgRegion">
    <g filter="url(#blur)">
<rect x="0" y="142" width="137" height="184" />
<rect x="0" y="0" width="137" height="143" />
<rect x="136" y="0" width="191" height="143" />
    </g>
    <text x="512" y="60">The Frozen Sea</text>
</a>
<a href="/Whitesky_Peak_(The_Island)" class="svgRegion">
    <g filter="url(#blur)">
<rect x="317" y="147" width="56" height="43" />
<rect x="265" y="280" width="65" height="65" />
<rect x="144" y="249" width="72" height="50" />
<rect x="130" y="195" width="40" height="72" />
<rect x="127" y="156" width="71" height="54" />
<rect x="168" y="129" width="71" height="54" />
<rect x="278" y="155" width="72" height="50" />
<rect x="334" y="182" width="62" height="67" />
<rect x="377" y="236" width="35" height="72" />
<rect x="246" y="190" width="114" height="143" />
<rect x="239" y="259" width="72" height="34" />
<rect x="155" y="170" width="113" height="102" />
<rect x="222" y="136" width="72" height="45" />
<rect x="193" y="155" width="69" height="23" />
<rect x="183" y="258" width="69" height="23" />
<rect x="309" y="193" width="42" height="102" />
<rect x="324" y="210" width="81" height="110" />
<rect x="208" y="266" width="72" height="34" />
<rect x="99" y="221" width="22" height="57" />
<rect x="396" y="222" width="43" height="60" />
<rect x="317" y="113" width="56" height="39" />
<rect x="95" y="117" width="36" height="56" />
<rect x="397" y="76" width="22" height="57" />
<rect x="366" y="73" width="57" height="53" />
<rect x="79" y="282" width="53" height="57" />
<rect x="105" y="329" width="54" height="57" />
<rect x="117" y="318" width="54" height="58" />
<rect x="334" y="84" width="59" height="31" />
<rect x="0" y="21" width="129" height="360" />
<rect x="265" y="314" width="56" height="57" />
<rect x="97" y="268" width="50" height="55" />
<rect x="135" y="304" width="51" height="54" />
<rect x="187" y="290" width="56" height="30" />
<rect x="114" y="254" width="51" height="54" />
<rect x="112" y="218" width="36" height="56" />
<rect x="65" y="212" width="53" height="27" />
<rect x="228" y="290" width="56" height="30" />
<rect x="82" y="199" width="54" height="28" />
<rect x="81" y="160" width="35" height="55" />
<rect x="96" y="150" width="36" height="56" />
<rect x="0" y="9" width="416" height="122" />
<rect x="112" y="123" width="57" height="43" />
<rect x="114" y="145" width="56" height="46" />
<rect x="158" y="117" width="56" height="46" />
<rect x="159" y="101" width="51" height="24" />
<rect x="159" y="114" width="51" height="24" />
<rect x="206" y="315" width="56" height="30" />
<rect x="211" y="103" width="52" height="24" />
<rect x="211" y="113" width="53" height="28" />
<rect x="243" y="328" width="57" height="57" />
<rect x="237" y="117" width="56" height="39" />
<rect x="272" y="124" width="52" height="23" />
<rect x="268" y="109" width="56" height="39" />
<rect x="302" y="96" width="56" height="40" />
<rect x="247" y="299" width="56" height="57" />
<rect x="336" y="107" width="55" height="31" />
<rect x="285" y="133" width="56" height="43" />
<rect x="289" y="120" width="84" height="42" />
<rect x="182" y="338" width="55" height="58" />
<rect x="196" y="337" width="55" height="58" />
<rect x="210" y="352" width="57" height="57" />
<rect x="414" y="143" width="43" height="56" />
<rect x="156" y="334" width="52" height="56" />
<rect x="169" y="316" width="53" height="56" />
<rect x="152" y="287" width="53" height="56" />
<rect x="384" y="105" width="60" height="46" />
<rect x="373" y="128" width="60" height="46" />
<rect x="360" y="139" width="60" height="46" />
<rect x="361" y="169" width="60" height="47" />
<rect x="387" y="195" width="59" height="52" />
<rect x="362" y="177" width="55" height="58" />
<rect x="265" y="173" width="42" height="102" />
    </g>
    <text x="512" y="60">Whitesky Peak</text>
</a>
<a href="/Underwater_Cave_(The_Island)" class="svgRegion">
    <g filter="url(#blur)">
<rect x="1006" y="341" width="16" height="14" />
<rect x="1014" y="543" width="8" height="10" />
<rect x="996" y="953" width="19" height="16" />
<rect x="165" y="38" width="16" height="15" />
<rect x="393" y="37" width="8" height="10" />
<rect x="996" y="6" width="16" height="16" />
<rect x="339" y="995" width="17" height="19" />
<rect x="67" y="994" width="8" height="10" />
<rect x="27" y="915" width="17" height="18" />
<rect x="38" y="495" width="17" height="15" />
<rect x="41" y="102" width="8" height="10" />
<rect x="760" y="1002" width="15" height="15" />
    </g>
    <text x="512" y="60">Underwater Cave</text>
</a>
<a href="/The_Redwood_Forests_(The_Island)" class="svgRegion">
    <g filter="url(#blur)">
<rect x="596" y="535" width="35" height="61" />
<rect x="630" y="532" width="34" height="62" />
<rect x="620" y="513" width="26" height="37" />
<rect x="301" y="618" width="26" height="59" />
<rect x="302" y="596" width="54" height="27" />
<rect x="329" y="578" width="55" height="27" />
<rect x="554" y="477" width="59" height="58" />
<rect x="369" y="542" width="60" height="53" />
<rect x="573" y="466" width="39" height="38" />
<rect x="602" y="494" width="36" height="18" />
<rect x="639" y="494" width="37" height="18" />
<rect x="646" y="511" width="16" height="40" />
<rect x="588" y="518" width="39" height="39" />
<rect x="604" y="509" width="16" height="40" />
<rect x="286" y="571" width="60" height="49" />
<rect x="371" y="555" width="52" height="63" />
<rect x="616" y="576" width="34" height="28" />
<rect x="338" y="584" width="39" height="63" />
<rect x="363" y="576" width="39" height="63" />
<rect x="588" y="572" width="35" height="28" />
<rect x="379" y="572" width="39" height="63" />
<rect x="439" y="502" width="52" height="27" />
<rect x="490" y="502" width="51" height="27" />
<rect x="519" y="481" width="56" height="56" />
<rect x="558" y="517" width="55" height="56" />
<rect x="552" y="563" width="52" height="59" />
<rect x="523" y="610" width="53" height="59" />
<rect x="486" y="658" width="53" height="31" />
<rect x="436" y="660" width="56" height="41" />
<rect x="513" y="613" width="56" height="56" />
<rect x="473" y="647" width="52" height="27" />
<rect x="422" y="649" width="51" height="28" />
<rect x="372" y="655" width="56" height="41" />
<rect x="386" y="674" width="56" height="40" />
<rect x="337" y="677" width="51" height="27" />
<rect x="285" y="677" width="52" height="27" />
<rect x="276" y="652" width="25" height="55" />
<rect x="276" y="597" width="25" height="55" />
<rect x="327" y="618" width="25" height="59" />
<rect x="347" y="618" width="25" height="59" />
<rect x="546" y="470" width="43" height="44" />
<rect x="366" y="629" width="56" height="40" />
<rect x="616" y="552" width="34" height="27" />
    </g>
    <text x="512" y="60">The Redwood Forests</text>
</a>
<a href="/Winter%27s_Mouth_(The_Island)" class="svgRegion">
    <g filter="url(#blur)">
<rect x="456" y="10" width="153" height="291" />
<rect x="415" y="0" width="274" height="140" />
<rect x="401" y="68" width="273" height="193" />
    </g>
    <text x="512" y="60">Winter&#x27;s Mouth</text>
</a>
<a href="/The_Frigid_Plains_(The_Island)" class="svgRegion">
    <g filter="url(#blur)">
<rect x="391" y="81" width="60" height="193" />
    </g>
    <text x="512" y="60">The Frigid Plains</text>
</a>
<a href="/The_Frozen_Fang_(The_Island)" class="svgRegion">
    <g filter="url(#blur)">
<rect x="493" y="122" width="92" height="102" />
    </g>
    <text x="512" y="60">The Frozen Fang</text>
</a>
<a href="/Volcanic_Maw_(The_Island)" class="svgRegion">
    <g filter="url(#blur)">
<rect x="364" y="412" width="32" height="20" />
    </g>
    <text x="512" y="60">Volcanic Maw</text>
</a>
<a href="/Cave_(The_Island)" class="svgRegion">
    <g filter="url(#blur)">
<rect x="131" y="146" width="18" height="18" />
<rect x="523" y="897" width="75" height="40" />
<rect x="543" y="883" width="13" height="22" />
<rect x="600" y="704" width="74" height="107" />
<rect x="454" y="369" width="42" height="45" />
<rect x="904" y="94" width="33" height="29" />
<rect x="605" y="699" width="31" height="30" />
<rect x="583" y="705" width="25" height="24" />
<rect x="546" y="877" width="13" height="21" />
<rect x="597" y="711" width="24" height="24" />
<rect x="920" y="93" width="17" height="15" />
    </g>
    <text x="512" y="60">Cave</text>
</a>
<a href="/Lava_Cave_(The_Island)" class="svgRegion">
    <g filter="url(#blur)">
<rect x="899" y="705" width="65" height="63" />
<rect x="925" y="746" width="15" height="23" />
    </g>
    <text x="512" y="60">Lava Cave</text>
</a>
<a href="/The_Frozen_Maw_(The_Island)" class="svgRegion">
    <g filter="url(#blur)">
<rect x="256" y="230" width="37" height="25" />
    </g>
    <text x="512" y="60">The Frozen Maw</text>
</a>
<a href="/The_Throat_of_Borea_(The_Island)" class="svgRegion">
    <g filter="url(#blur)">
<rect x="234" y="231" width="23" height="23" />
    </g>
    <text x="512" y="60">The Throat of Borea</text>
</a>
<a href="/Ice_Wyrm%27s_Belly_(The_Island)" class="svgRegion">
    <g filter="url(#blur)">
<rect x="218" y="254" width="36" height="10" />
<rect x="232" y="263" width="9" height="5" />
<rect x="196" y="223" width="39" height="31" />
    </g>
    <text x="512" y="60">Ice Wyrm&#x27;s Belly</text>
</a>
<a href="/The_Frigid_Deep_(The_Island)" class="svgRegion">
    <g filter="url(#blur)">
<rect x="195" y="250" width="20" height="32" />
    </g>
    <text x="512" y="60">The Frigid Deep</text>
</a>
<a href="/The_Throat_of_Flame_(The_Island)" class="svgRegion">
    <g filter="url(#blur)">
<rect x="358" y="413" width="32" height="28" />
    </g>
    <text x="512" y="60">The Throat of Flame</text>
</a>
<a href="/The_Belly_of_the_Beast_(The_Island)" class="svgRegion">
    <g filter="url(#blur)">
<rect x="346" y="413" width="44" height="31" />
<rect x="361" y="415" width="33" height="47" />
<rect x="342" y="399" width="50" height="42" />
<rect x="393" y="408" width="47" height="57" />
    </g>
    <text x="512" y="60">The Belly of the Beast</text>
</a>
<a href="/The_Shadow_Road_(The_Island)" class="svgRegion">
    <g filter="url(#blur)">
<rect x="359" y="366" width="81" height="43" />
    </g>
    <text x="512" y="60">The Shadow Road</text>
</a>
<a href="/The_Descent_(The_Island)" class="svgRegion">
    <g filter="url(#blur)">
<rect x="366" y="432" width="19" height="9" />
    </g>
    <text x="512" y="60">The Descent</text>
</a>
<a href="/The_Caverns_of_Lost_Hope_(The_Island)" class="svgRegion">
    <g filter="url(#blur)">
<rect x="834" y="449" width="80" height="62" />
<rect x="856" y="433" width="105" height="100" />
<rect x="829" y="433" width="104" height="100" />
    </g>
    <text x="512" y="60">The Caverns of Lost Hope</text>
</a>
<a href="/The_Caverns_of_Lost_Faith_(The_Island)" class="svgRegion">
    <g filter="url(#blur)">
<rect x="53" y="565" width="43" height="36" />
<rect x="45" y="563" width="43" height="35" />
<rect x="26" y="557" width="55" height="56" />
<rect x="56" y="587" width="143" height="80" />
    </g>
    <text x="512" y="60">The Caverns of Lost Faith</text>
</a>
</svg>