<?xml version="1.0" encoding="utf-8"?>
<svg xmlns="http://www.w3.org/2000/svg" width="300" height="300"
        viewBox="0 0 300 300" class="creatureMap" style="position:absolute;">
    <defs>
        <filter id="blur" x="-30%" y="-30%" width="160%" height="160%">
            <feGaussianBlur stdDeviation="3" />
        </filter>
        <pattern id="pattern-untameable" width="10" height="10" patternTransform="rotate(135)" patternUnits="userSpaceOnUse">
            <rect width="4" height="10" fill="black"></rect>
        </pattern>
        <filter id="groupStroke">
            <feFlood result="outsideColor" flood-color="black"/>
            <feMorphology in="SourceAlpha" operator="dilate" radius="2"/>
            <feComposite result="strokeoutline1" in="outsideColor" operator="in"/>
            <feComposite result="strokeoutline2" in="strokeoutline1" in2="SourceAlpha" operator="out"/>
            <feGaussianBlur in="strokeoutline2" result="strokeblur" stdDeviation="1"/>
        </filter>
        <style>
            .spawningMap-very-common { fill: #0F0; }
            .spawningMap-common { fill: #B2FF00; }
            .spawningMap-uncommon { fill: #FF0; }
            .spawningMap-very-uncommon { fill: #FC0; }
            .spawningMap-rare { fill: #F60; }
            .spawningMap-very-rare { fill: #F00; }
            .spawning-map-point { stroke:black; stroke-width:1; }
        </style>
    </defs>

<g filter="url(#blur)" opacity="0.7">
<g class="spawningMap-very-uncommon">
<rect x="68" y="120" width="15" height="22" />
<rect x="154" y="220" width="26" height="26" />
</g>
<g class="spawningMap-uncommon">
<rect x="193" y="166" width="13" height="12" />
<rect x="193" y="157" width="13" height="13" />
<rect x="202" y="166" width="12" height="12" />
<rect x="202" y="157" width="12" height="13" />
<rect x="210" y="157" width="13" height="13" />
<rect x="213" y="149" width="13" height="12" />
<rect x="219" y="161" width="12" height="13" />
<rect x="222" y="144" width="12" height="13" />
<rect x="222" y="136" width="12" height="12" />
<rect x="222" y="127" width="12" height="13" />
<rect x="230" y="127" width="13" height="13" />
<rect x="226" y="119" width="13" height="12" />
<rect x="235" y="119" width="12" height="12" />
<rect x="223" y="110" width="13" height="13" />
<rect x="232" y="110" width="12" height="13" />
<rect x="223" y="102" width="13" height="12" />
<rect x="168" y="89" width="13" height="12" />
<rect x="232" y="102" width="12" height="12" />
<rect x="168" y="97" width="13" height="13" />
<rect x="103" y="65" width="12" height="12" />
<rect x="223" y="93" width="13" height="12" />
<rect x="160" y="97" width="12" height="13" />
<rect x="160" y="89" width="12" height="12" />
<rect x="159" y="155" width="12" height="13" />
<rect x="159" y="164" width="12" height="12" />
<rect x="167" y="157" width="13" height="12" />
<rect x="232" y="93" width="12" height="12" />
<rect x="176" y="168" width="13" height="12" />
<rect x="176" y="159" width="13" height="12" />
<rect x="223" y="84" width="13" height="13" />
<rect x="232" y="84" width="12" height="13" />
<rect x="232" y="76" width="12" height="12" />
<rect x="240" y="76" width="13" height="12" />
<rect x="227" y="67" width="13" height="13" />
<rect x="236" y="67" width="12" height="13" />
<rect x="206" y="81" width="12" height="12" />
<rect x="215" y="81" width="12" height="12" />
<rect x="203" y="72" width="12" height="13" />
<rect x="211" y="72" width="13" height="13" />
<rect x="224" y="39" width="12" height="13" />
<rect x="232" y="39" width="13" height="13" />
<rect x="241" y="42" width="12" height="13" />
<rect x="250" y="42" width="12" height="13" />
<rect x="202" y="125" width="12" height="13" />
<rect x="134" y="133" width="12" height="13" />
<rect x="125" y="133" width="13" height="13" />
<rect x="134" y="125" width="12" height="12" />
<rect x="125" y="125" width="13" height="12" />
<rect x="134" y="116" width="12" height="13" />
<rect x="134" y="108" width="12" height="12" />
<rect x="125" y="116" width="13" height="13" />
<rect x="125" y="108" width="13" height="12" />
<rect x="117" y="116" width="12" height="13" />
<rect x="117" y="99" width="12" height="13" />
<rect x="117" y="91" width="12" height="12" />
<rect x="108" y="99" width="13" height="13" />
<rect x="108" y="91" width="13" height="12" />
<rect x="100" y="99" width="12" height="13" />
<rect x="100" y="91" width="12" height="12" />
<rect x="120" y="82" width="13" height="12" />
<rect x="112" y="82" width="12" height="12" />
<rect x="94" y="65" width="13" height="12" />
<rect x="147" y="130" width="13" height="17" />
<rect x="182" y="79" width="15" height="14" />
<rect x="184" y="87" width="13" height="14" />
<rect x="180" y="113" width="16" height="14" />
<rect x="103" y="56" width="12" height="13" />
<rect x="167" y="166" width="13" height="12" />
<rect x="176" y="150" width="13" height="13" />
<rect x="176" y="142" width="13" height="12" />
<rect x="176" y="133" width="13" height="13" />
<rect x="185" y="142" width="12" height="12" />
<rect x="185" y="133" width="12" height="13" />
<rect x="185" y="168" width="12" height="12" />
<rect x="185" y="159" width="12" height="12" />
<rect x="185" y="150" width="12" height="13" />
<rect x="210" y="166" width="13" height="12" />
<rect x="205" y="149" width="12" height="12" />
<rect x="240" y="93" width="13" height="12" />
<rect x="240" y="84" width="13" height="13" />
<rect x="215" y="93" width="12" height="12" />
<rect x="193" y="125" width="13" height="13" />
<rect x="177" y="174" width="12" height="13" />
<rect x="117" y="108" width="12" height="12" />
<rect x="117" y="125" width="12" height="12" />
<rect x="94" y="82" width="13" height="12" />
<rect x="94" y="73" width="13" height="13" />
<rect x="94" y="56" width="13" height="13" />
<rect x="160" y="80" width="12" height="13" />
<rect x="160" y="72" width="12" height="12" />
<rect x="168" y="80" width="13" height="13" />
<rect x="168" y="72" width="13" height="12" />
<rect x="180" y="122" width="15" height="12" />
</g>
<g class="spawningMap-common">
<rect x="155" y="114" width="13" height="13" />
<rect x="146" y="116" width="14" height="11" />
<rect x="146" y="122" width="14" height="14" />
<rect x="139" y="116" width="12" height="14" />
<rect x="139" y="139" width="12" height="14" />
<rect x="141" y="165" width="13" height="13" />
<rect x="129" y="148" width="14" height="13" />
<rect x="132" y="187" width="14" height="13" />
<rect x="163" y="197" width="14" height="14" />
<rect x="192" y="87" width="13" height="14" />
<rect x="189" y="96" width="13" height="14" />
<rect x="182" y="96" width="12" height="14" />
<rect x="180" y="105" width="14" height="13" />
<rect x="172" y="105" width="13" height="13" />
<rect x="172" y="113" width="13" height="14" />
<rect x="163" y="107" width="14" height="11" />
<rect x="163" y="113" width="14" height="14" />
<rect x="163" y="122" width="14" height="13" />
<rect x="192" y="79" width="13" height="14" />
<rect x="172" y="122" width="13" height="13" />
<rect x="163" y="130" width="14" height="14" />
<rect x="163" y="139" width="14" height="14" />
</g>
</g>
</svg>