<?xml version="1.0" encoding="utf-8"?>
<svg xmlns="http://www.w3.org/2000/svg" width="300" height="300"
        viewBox="0 0 300 300" class="creatureMap" style="position:absolute;">
    <defs>
        <filter id="blur" x="-30%" y="-30%" width="160%" height="160%">
            <feGaussianBlur stdDeviation="3" />
        </filter>
        <pattern id="pattern-untameable" width="10" height="10" patternTransform="rotate(135)" patternUnits="userSpaceOnUse">
            <rect width="4" height="10" fill="black"></rect>
        </pattern>
        <filter id="groupStroke">
            <feFlood result="outsideColor" flood-color="black"/>
            <feMorphology in="SourceAlpha" operator="dilate" radius="2"/>
            <feComposite result="strokeoutline1" in="outsideColor" operator="in"/>
            <feComposite result="strokeoutline2" in="strokeoutline1" in2="SourceAlpha" operator="out"/>
            <feGaussianBlur in="strokeoutline2" result="strokeblur" stdDeviation="1"/>
        </filter>
        <style>
            .spawningMap-very-common { fill: #0F0; }
            .spawningMap-common { fill: #B2FF00; }
            .spawningMap-uncommon { fill: #FF0; }
            .spawningMap-very-uncommon { fill: #FC0; }
            .spawningMap-rare { fill: #F60; }
            .spawningMap-very-rare { fill: #F00; }
            .spawning-map-point { stroke:black; stroke-width:1; }
        </style>
    </defs>

<g filter="url(#blur)" opacity="0.7">
<g class="spawningMap-very-rare">
<rect x="155" y="114" width="13" height="13" />
<rect x="146" y="116" width="14" height="11" />
<rect x="146" y="122" width="14" height="14" />
<rect x="147" y="130" width="13" height="17" />
<rect x="139" y="116" width="12" height="14" />
<rect x="139" y="139" width="12" height="14" />
<rect x="141" y="165" width="13" height="13" />
<rect x="129" y="148" width="14" height="13" />
<rect x="132" y="187" width="14" height="13" />
<rect x="163" y="197" width="14" height="14" />
<rect x="182" y="79" width="15" height="14" />
<rect x="192" y="87" width="13" height="14" />
<rect x="184" y="87" width="13" height="14" />
<rect x="189" y="96" width="13" height="14" />
<rect x="182" y="96" width="12" height="14" />
<rect x="180" y="105" width="14" height="13" />
<rect x="180" y="113" width="16" height="14" />
<rect x="172" y="105" width="13" height="13" />
<rect x="172" y="113" width="13" height="14" />
<rect x="163" y="107" width="14" height="11" />
<rect x="163" y="113" width="14" height="14" />
<rect x="163" y="122" width="14" height="13" />
<rect x="192" y="79" width="13" height="14" />
<rect x="180" y="122" width="15" height="12" />
<rect x="172" y="122" width="13" height="13" />
<rect x="163" y="130" width="14" height="14" />
<rect x="163" y="139" width="14" height="14" />
<rect x="68" y="120" width="15" height="22" />
<rect x="154" y="220" width="26" height="26" />
</g>
<g class="spawningMap-rare">
<rect x="100" y="173" width="20" height="14" />
</g>
<g class="spawningMap-very-uncommon">
<rect x="141" y="182" width="13" height="14" />
<rect x="149" y="183" width="14" height="15" />
<rect x="158" y="178" width="13" height="15" />
<rect x="175" y="189" width="13" height="13" />
<rect x="166" y="185" width="14" height="17" />
<rect x="192" y="182" width="14" height="17" />
<rect x="119" y="165" width="18" height="13" />
<rect x="123" y="173" width="14" height="16" />
<rect x="110" y="151" width="18" height="14" />
<rect x="106" y="136" width="14" height="18" />
<rect x="76" y="137" width="18" height="14" />
<rect x="183" y="188" width="14" height="14" />
<rect x="201" y="182" width="13" height="14" />
<rect x="86" y="145" width="16" height="19" />
</g>
<g class="spawningMap-uncommon">
<rect x="155" y="131" width="13" height="13" />
<rect x="137" y="147" width="14" height="14" />
<rect x="155" y="139" width="13" height="14" />
<rect x="141" y="173" width="13" height="14" />
<rect x="149" y="173" width="14" height="15" />
<rect x="158" y="187" width="13" height="15" />
<rect x="132" y="156" width="15" height="14" />
<rect x="132" y="165" width="14" height="13" />
<rect x="132" y="173" width="14" height="19" />
<rect x="115" y="173" width="14" height="15" />
<rect x="98" y="137" width="13" height="16" />
<rect x="89" y="137" width="14" height="14" />
<rect x="95" y="128" width="13" height="14" />
<rect x="86" y="128" width="14" height="14" />
<rect x="78" y="128" width="13" height="14" />
<rect x="155" y="122" width="13" height="14" />
<rect x="146" y="142" width="14" height="15" />
<rect x="123" y="156" width="14" height="14" />
<rect x="115" y="140" width="13" height="16" />
<rect x="95" y="120" width="13" height="14" />
<rect x="86" y="120" width="14" height="14" />
<rect x="78" y="120" width="13" height="14" />
</g>
</g>
<g fill="url(#pattern-untameable)" opacity="0.3">
<rect x="155" y="114" width="13" height="13"/>
<rect x="146" y="116" width="14" height="11"/>
<rect x="146" y="122" width="14" height="14"/>
<rect x="147" y="130" width="13" height="17"/>
<rect x="139" y="116" width="12" height="14"/>
<rect x="139" y="139" width="12" height="14"/>
<rect x="141" y="165" width="13" height="13"/>
<rect x="129" y="148" width="14" height="13"/>
<rect x="132" y="187" width="14" height="13"/>
<rect x="163" y="197" width="14" height="14"/>
<rect x="182" y="79" width="15" height="14"/>
<rect x="192" y="87" width="13" height="14"/>
<rect x="184" y="87" width="13" height="14"/>
<rect x="189" y="96" width="13" height="14"/>
<rect x="182" y="96" width="12" height="14"/>
<rect x="180" y="105" width="14" height="13"/>
<rect x="180" y="113" width="16" height="14"/>
<rect x="172" y="105" width="13" height="13"/>
<rect x="172" y="113" width="13" height="14"/>
<rect x="163" y="107" width="14" height="11"/>
<rect x="163" y="113" width="14" height="14"/>
<rect x="163" y="122" width="14" height="13"/>
<rect x="192" y="79" width="13" height="14"/>
<rect x="180" y="122" width="15" height="12"/>
<rect x="172" y="122" width="13" height="13"/>
<rect x="163" y="130" width="14" height="14"/>
<rect x="163" y="139" width="14" height="14"/>
<rect x="68" y="120" width="15" height="22"/>
<rect x="154" y="220" width="26" height="26"/>
<rect x="100" y="173" width="20" height="14"/>
<rect x="141" y="182" width="13" height="14"/>
<rect x="149" y="183" width="14" height="15"/>
<rect x="158" y="178" width="13" height="15"/>
<rect x="175" y="189" width="13" height="13"/>
<rect x="166" y="185" width="14" height="17"/>
<rect x="192" y="182" width="14" height="17"/>
<rect x="119" y="165" width="18" height="13"/>
<rect x="123" y="173" width="14" height="16"/>
<rect x="110" y="151" width="18" height="14"/>
<rect x="106" y="136" width="14" height="18"/>
<rect x="76" y="137" width="18" height="14"/>
<rect x="183" y="188" width="14" height="14"/>
<rect x="201" y="182" width="13" height="14"/>
<rect x="86" y="145" width="16" height="19"/>
<rect x="155" y="131" width="13" height="13"/>
<rect x="137" y="147" width="14" height="14"/>
<rect x="155" y="139" width="13" height="14"/>
<rect x="141" y="173" width="13" height="14"/>
<rect x="149" y="173" width="14" height="15"/>
<rect x="158" y="187" width="13" height="15"/>
<rect x="132" y="156" width="15" height="14"/>
<rect x="132" y="165" width="14" height="13"/>
<rect x="132" y="173" width="14" height="19"/>
<rect x="115" y="173" width="14" height="15"/>
<rect x="98" y="137" width="13" height="16"/>
<rect x="89" y="137" width="14" height="14"/>
<rect x="95" y="128" width="13" height="14"/>
<rect x="86" y="128" width="14" height="14"/>
<rect x="78" y="128" width="13" height="14"/>
<rect x="155" y="122" width="13" height="14"/>
<rect x="146" y="142" width="14" height="15"/>
<rect x="123" y="156" width="14" height="14"/>
<rect x="115" y="140" width="13" height="16"/>
<rect x="95" y="120" width="13" height="14"/>
<rect x="86" y="120" width="14" height="14"/>
<rect x="78" y="120" width="13" height="14"/>
</g>
</svg>