<?xml version="1.0" encoding="utf-8"?>
<svg xmlns="http://www.w3.org/2000/svg" width="300" height="300"
        viewBox="0 0 300 300" class="creatureMap" style="position:absolute;">
    <defs>
        <filter id="blur" x="-30%" y="-30%" width="160%" height="160%">
            <feGaussianBlur stdDeviation="3" />
        </filter>
        <pattern id="pattern-untameable" width="10" height="10" patternTransform="rotate(135)" patternUnits="userSpaceOnUse">
            <rect width="4" height="10" fill="black"></rect>
        </pattern>
        <filter id="groupStroke">
            <feFlood result="outsideColor" flood-color="black"/>
            <feMorphology in="SourceAlpha" operator="dilate" radius="2"/>
            <feComposite result="strokeoutline1" in="outsideColor" operator="in"/>
            <feComposite result="strokeoutline2" in="strokeoutline1" in2="SourceAlpha" operator="out"/>
            <feGaussianBlur in="strokeoutline2" result="strokeblur" stdDeviation="1"/>
        </filter>
        <style>
            .spawningMap-very-common { fill: #0F0; }
            .spawningMap-common { fill: #B2FF00; }
            .spawningMap-uncommon { fill: #FF0; }
            .spawningMap-very-uncommon { fill: #FC0; }
            .spawningMap-rare { fill: #F60; }
            .spawningMap-very-rare { fill: #F00; }
            .spawning-map-point { stroke:black; stroke-width:1; }
        </style>
    </defs>

<g filter="url(#blur)" opacity="0.7">
<g class="spawningMap-common">
<rect x="129" y="208" width="12" height="12" />
<rect x="129" y="216" width="12" height="13" />
<rect x="103" y="233" width="12" height="13" />
<rect x="94" y="225" width="13" height="12" />
<rect x="94" y="233" width="13" height="13" />
<rect x="77" y="233" width="13" height="13" />
<rect x="137" y="225" width="13" height="12" />
<rect x="128" y="242" width="13" height="12" />
<rect x="146" y="242" width="12" height="12" />
<rect x="137" y="242" width="12" height="12" />
<rect x="120" y="242" width="12" height="12" />
<rect x="120" y="56" width="12" height="13" />
<rect x="111" y="191" width="13" height="12" />
<rect x="137" y="216" width="13" height="13" />
<rect x="245" y="67" width="12" height="13" />
<rect x="253" y="67" width="13" height="13" />
<rect x="253" y="59" width="13" height="12" />
<rect x="240" y="110" width="13" height="13" />
<rect x="240" y="102" width="13" height="12" />
<rect x="213" y="140" width="13" height="12" />
<rect x="196" y="140" width="12" height="13" />
<rect x="213" y="131" width="13" height="13" />
<rect x="205" y="140" width="12" height="12" />
<rect x="205" y="131" width="12" height="13" />
<rect x="103" y="82" width="13" height="12" />
<rect x="103" y="73" width="13" height="13" />
<rect x="86" y="233" width="12" height="13" />
<rect x="125" y="99" width="13" height="13" />
<rect x="125" y="90" width="13" height="13" />
<rect x="134" y="99" width="12" height="13" />
<rect x="134" y="90" width="12" height="13" />
<rect x="143" y="99" width="12" height="13" />
<rect x="143" y="90" width="12" height="13" />
<rect x="151" y="99" width="12" height="13" />
<rect x="151" y="90" width="12" height="13" />
<rect x="138" y="71" width="12" height="13" />
<rect x="138" y="63" width="12" height="12" />
<rect x="112" y="65" width="12" height="12" />
<rect x="120" y="65" width="13" height="12" />
<rect x="120" y="251" width="12" height="12" />
<rect x="111" y="251" width="13" height="12" />
<rect x="120" y="251" width="12" height="12" />
<rect x="69" y="200" width="12" height="13" />
<rect x="69" y="192" width="12" height="12" />
<rect x="86" y="183" width="12" height="13" />
<rect x="69" y="183" width="12" height="13" />
<rect x="69" y="216" width="12" height="13" />
<rect x="103" y="216" width="12" height="13" />
<rect x="94" y="216" width="13" height="13" />
<rect x="94" y="208" width="13" height="12" />
<rect x="86" y="208" width="12" height="12" />
<rect x="111" y="216" width="13" height="13" />
<rect x="129" y="225" width="12" height="12" />
<rect x="111" y="208" width="13" height="12" />
<rect x="120" y="208" width="13" height="12" />
<rect x="111" y="199" width="13" height="13" />
<rect x="120" y="199" width="13" height="13" />
<rect x="129" y="233" width="12" height="13" />
<rect x="111" y="259" width="13" height="13" />
<rect x="120" y="259" width="12" height="13" />
<rect x="103" y="259" width="12" height="13" />
<rect x="103" y="225" width="12" height="12" />
<rect x="69" y="225" width="12" height="12" />
<rect x="69" y="233" width="12" height="13" />
<rect x="94" y="251" width="13" height="12" />
<rect x="137" y="251" width="12" height="12" />
<rect x="94" y="259" width="13" height="13" />
<rect x="94" y="268" width="13" height="12" />
<rect x="43" y="268" width="12" height="12" />
<rect x="34" y="268" width="13" height="12" />
<rect x="26" y="233" width="12" height="13" />
<rect x="34" y="251" width="13" height="12" />
<rect x="111" y="242" width="13" height="12" />
<rect x="69" y="166" width="12" height="12" />
<rect x="60" y="166" width="13" height="12" />
<rect x="52" y="166" width="12" height="12" />
<rect x="51" y="225" width="13" height="12" />
<rect x="43" y="225" width="12" height="12" />
<rect x="34" y="225" width="13" height="12" />
<rect x="26" y="225" width="12" height="12" />
<rect x="51" y="216" width="13" height="13" />
<rect x="43" y="216" width="12" height="13" />
<rect x="34" y="216" width="13" height="13" />
<rect x="26" y="216" width="12" height="13" />
<rect x="128" y="251" width="13" height="12" />
<rect x="137" y="259" width="12" height="13" />
<rect x="128" y="259" width="13" height="13" />
<rect x="137" y="268" width="12" height="12" />
<rect x="128" y="268" width="13" height="12" />
<rect x="60" y="216" width="13" height="13" />
<rect x="43" y="208" width="12" height="12" />
<rect x="60" y="242" width="12" height="12" />
<rect x="60" y="251" width="12" height="12" />
<rect x="60" y="225" width="12" height="12" />
<rect x="60" y="233" width="12" height="13" />
<rect x="51" y="242" width="13" height="12" />
<rect x="51" y="251" width="13" height="12" />
<rect x="43" y="251" width="12" height="12" />
<rect x="43" y="233" width="12" height="13" />
<rect x="34" y="233" width="13" height="13" />
<rect x="43" y="242" width="12" height="12" />
<rect x="69" y="242" width="12" height="12" />
<rect x="69" y="251" width="12" height="12" />
<rect x="77" y="242" width="12" height="12" />
<rect x="77" y="251" width="12" height="12" />
<rect x="85" y="268" width="13" height="12" />
<rect x="34" y="208" width="13" height="12" />
<rect x="26" y="208" width="12" height="12" />
<rect x="77" y="259" width="12" height="13" />
<rect x="77" y="268" width="12" height="12" />
<rect x="43" y="199" width="12" height="13" />
<rect x="68" y="259" width="13" height="13" />
<rect x="68" y="268" width="13" height="12" />
<rect x="34" y="199" width="13" height="13" />
<rect x="26" y="199" width="12" height="13" />
<rect x="94" y="276" width="13" height="13" />
<rect x="85" y="276" width="13" height="13" />
<rect x="26" y="242" width="12" height="12" />
<rect x="26" y="251" width="12" height="12" />
<rect x="77" y="276" width="12" height="13" />
<rect x="68" y="276" width="13" height="13" />
<rect x="60" y="276" width="12" height="13" />
<rect x="51" y="276" width="13" height="13" />
<rect x="77" y="183" width="13" height="13" />
<rect x="26" y="259" width="12" height="13" />
<rect x="77" y="175" width="13" height="12" />
<rect x="77" y="216" width="13" height="13" />
<rect x="103" y="191" width="12" height="12" />
<rect x="86" y="216" width="12" height="13" />
<rect x="86" y="225" width="12" height="12" />
<rect x="77" y="225" width="13" height="12" />
<rect x="60" y="157" width="13" height="13" />
<rect x="26" y="268" width="12" height="12" />
<rect x="26" y="276" width="12" height="13" />
<rect x="17" y="242" width="12" height="12" />
<rect x="69" y="157" width="12" height="13" />
<rect x="17" y="251" width="12" height="12" />
<rect x="17" y="259" width="12" height="13" />
<rect x="17" y="268" width="12" height="12" />
<rect x="52" y="140" width="12" height="13" />
<rect x="52" y="149" width="12" height="12" />
<rect x="17" y="276" width="12" height="13" />
<rect x="8" y="242" width="13" height="12" />
<rect x="8" y="251" width="13" height="12" />
<rect x="8" y="259" width="13" height="13" />
<rect x="8" y="268" width="13" height="12" />
<rect x="0" y="242" width="12" height="12" />
<rect x="0" y="251" width="12" height="12" />
<rect x="0" y="259" width="12" height="13" />
<rect x="0" y="268" width="12" height="12" />
<rect x="0" y="242" width="4" height="12" />
<rect x="0" y="251" width="4" height="12" />
<rect x="0" y="259" width="4" height="13" />
<rect x="0" y="268" width="4" height="12" />
<rect x="0" y="276" width="4" height="13" />
<rect x="0" y="199" width="4" height="13" />
<rect x="0" y="208" width="4" height="12" />
<rect x="0" y="216" width="4" height="13" />
<rect x="0" y="225" width="4" height="12" />
<rect x="0" y="233" width="4" height="13" />
<rect x="0" y="199" width="12" height="13" />
<rect x="0" y="208" width="12" height="12" />
<rect x="0" y="216" width="12" height="13" />
<rect x="0" y="225" width="12" height="12" />
<rect x="0" y="233" width="12" height="13" />
<rect x="8" y="199" width="13" height="13" />
<rect x="8" y="208" width="13" height="12" />
<rect x="8" y="216" width="13" height="13" />
<rect x="8" y="225" width="13" height="12" />
<rect x="8" y="233" width="13" height="13" />
<rect x="51" y="208" width="13" height="12" />
<rect x="51" y="199" width="13" height="13" />
<rect x="51" y="191" width="13" height="12" />
<rect x="43" y="191" width="12" height="12" />
<rect x="146" y="251" width="12" height="12" />
<rect x="146" y="259" width="12" height="13" />
<rect x="146" y="268" width="12" height="12" />
<rect x="146" y="276" width="12" height="13" />
<rect x="137" y="285" width="13" height="12" />
<rect x="137" y="294" width="12" height="6" />
<rect x="128" y="285" width="13" height="12" />
<rect x="128" y="294" width="13" height="6" />
<rect x="120" y="285" width="12" height="12" />
<rect x="120" y="294" width="12" height="6" />
<rect x="94" y="285" width="13" height="12" />
<rect x="94" y="294" width="12" height="6" />
<rect x="86" y="285" width="12" height="12" />
<rect x="85" y="294" width="13" height="6" />
<rect x="77" y="285" width="12" height="12" />
<rect x="77" y="294" width="12" height="6" />
<rect x="8" y="191" width="13" height="12" />
<rect x="0" y="185" width="2" height="13" />
<rect x="68" y="285" width="13" height="12" />
<rect x="68" y="294" width="13" height="6" />
<rect x="60" y="285" width="12" height="12" />
<rect x="60" y="294" width="12" height="6" />
<rect x="8" y="276" width="13" height="13" />
<rect x="0" y="276" width="12" height="13" />
<rect x="8" y="285" width="13" height="12" />
<rect x="0" y="285" width="12" height="12" />
<rect x="0" y="293" width="12" height="7" />
<rect x="0" y="293" width="3" height="7" />
<rect x="17" y="191" width="12" height="12" />
<rect x="0" y="177" width="2" height="12" />
<rect x="25" y="182" width="13" height="13" />
<rect x="17" y="182" width="12" height="13" />
<rect x="51" y="285" width="13" height="12" />
<rect x="43" y="285" width="12" height="12" />
<rect x="146" y="285" width="12" height="12" />
<rect x="146" y="294" width="12" height="6" />
<rect x="154" y="285" width="13" height="12" />
<rect x="154" y="294" width="13" height="6" />
<rect x="163" y="285" width="12" height="12" />
<rect x="163" y="294" width="12" height="6" />
<rect x="163" y="251" width="12" height="12" />
<rect x="163" y="259" width="12" height="13" />
<rect x="163" y="268" width="12" height="12" />
<rect x="163" y="276" width="12" height="13" />
<rect x="154" y="251" width="13" height="12" />
<rect x="154" y="259" width="13" height="13" />
<rect x="154" y="268" width="13" height="12" />
<rect x="154" y="276" width="13" height="13" />
<rect x="0" y="168" width="2" height="13" />
<rect x="188" y="285" width="13" height="13" />
<rect x="196" y="149" width="12" height="12" />
<rect x="213" y="123" width="13" height="12" />
<rect x="213" y="114" width="13" height="13" />
<rect x="205" y="114" width="12" height="13" />
<rect x="112" y="73" width="12" height="13" />
<rect x="249" y="76" width="12" height="12" />
<rect x="120" y="73" width="13" height="13" />
<rect x="129" y="71" width="12" height="13" />
<rect x="129" y="63" width="12" height="12" />
<rect x="146" y="69" width="13" height="12" />
<rect x="146" y="60" width="13" height="12" />
<rect x="111" y="56" width="13" height="13" />
<rect x="245" y="59" width="12" height="12" />
<rect x="103" y="251" width="12" height="12" />
<rect x="111" y="268" width="13" height="12" />
<rect x="120" y="268" width="12" height="12" />
<rect x="103" y="268" width="12" height="12" />
<rect x="85" y="242" width="13" height="12" />
<rect x="85" y="251" width="13" height="12" />
<rect x="85" y="259" width="13" height="13" />
<rect x="236" y="59" width="12" height="12" />
<rect x="60" y="259" width="12" height="13" />
<rect x="60" y="268" width="12" height="12" />
<rect x="43" y="276" width="12" height="13" />
<rect x="34" y="276" width="13" height="13" />
<rect x="60" y="140" width="13" height="13" />
<rect x="60" y="149" width="13" height="12" />
<rect x="52" y="157" width="12" height="13" />
<rect x="69" y="175" width="12" height="12" />
<rect x="60" y="175" width="13" height="12" />
<rect x="52" y="175" width="12" height="12" />
<rect x="103" y="208" width="12" height="12" />
<rect x="34" y="191" width="13" height="12" />
<rect x="26" y="191" width="12" height="12" />
<rect x="103" y="199" width="12" height="13" />
<rect x="17" y="199" width="12" height="13" />
<rect x="94" y="199" width="13" height="13" />
<rect x="17" y="208" width="12" height="12" />
<rect x="17" y="216" width="12" height="13" />
<rect x="17" y="225" width="12" height="12" />
<rect x="17" y="233" width="12" height="13" />
<rect x="60" y="200" width="12" height="12" />
<rect x="60" y="191" width="12" height="13" />
<rect x="60" y="183" width="12" height="12" />
<rect x="51" y="183" width="13" height="12" />
<rect x="120" y="216" width="13" height="13" />
<rect x="26" y="285" width="12" height="12" />
<rect x="26" y="294" width="12" height="6" />
<rect x="17" y="285" width="13" height="12" />
<rect x="17" y="294" width="12" height="6" />
<rect x="94" y="191" width="13" height="12" />
<rect x="171" y="268" width="13" height="13" />
<rect x="171" y="277" width="13" height="12" />
<rect x="171" y="285" width="13" height="13" />
<rect x="180" y="285" width="12" height="13" />
<rect x="197" y="285" width="13" height="13" />
<rect x="0" y="171" width="11" height="12" />
<rect x="0" y="162" width="11" height="13" />
<rect x="146" y="225" width="12" height="12" />
<rect x="146" y="233" width="12" height="13" />
<rect x="77" y="166" width="13" height="12" />
<rect x="51" y="259" width="13" height="13" />
<rect x="51" y="268" width="13" height="12" />
<rect x="60" y="208" width="13" height="12" />
<rect x="34" y="242" width="13" height="12" />
<rect x="103" y="242" width="12" height="12" />
<rect x="94" y="242" width="12" height="12" />
<rect x="137" y="234" width="12" height="12" />
<rect x="137" y="276" width="12" height="13" />
<rect x="128" y="276" width="13" height="13" />
<rect x="120" y="276" width="12" height="13" />
<rect x="111" y="276" width="13" height="13" />
</g>
</g>
<g class="spawning-map-point" opacity="0.8">
<g class="spawningMap-very-rare">
<circle cx="80" cy="196" r="4" />
<circle cx="101" cy="198" r="4" />
<circle cx="101" cy="210" r="4" />
<circle cx="112" cy="210" r="4" />
<circle cx="117" cy="218" r="4" />
<circle cx="83" cy="224" r="4" />
<circle cx="91" cy="224" r="4" />
<circle cx="103" cy="223" r="4" />
<circle cx="102" cy="226" r="4" />
<circle cx="116" cy="230" r="4" />
<circle cx="124" cy="229" r="4" />
<circle cx="119" cy="235" r="4" />
<circle cx="129" cy="233" r="4" />
<circle cx="122" cy="243" r="4" />
<circle cx="114" cy="247" r="4" />
<circle cx="106" cy="245" r="4" />
<circle cx="102" cy="241" r="4" />
<circle cx="95" cy="244" r="4" />
<circle cx="88" cy="239" r="4" />
<circle cx="85" cy="234" r="4" />
<circle cx="84" cy="243" r="4" />
<circle cx="69" cy="236" r="4" />
<circle cx="75" cy="243" r="4" />
<circle cx="78" cy="251" r="4" />
<circle cx="75" cy="254" r="4" />
<circle cx="68" cy="261" r="4" />
<circle cx="70" cy="252" r="4" />
<circle cx="63" cy="254" r="4" />
<circle cx="65" cy="240" r="4" />
<circle cx="73" cy="241" r="4" />
<circle cx="66" cy="238" r="4" />
<circle cx="60" cy="232" r="4" />
<circle cx="51" cy="231" r="4" />
<circle cx="62" cy="239" r="4" />
<circle cx="56" cy="249" r="4" />
<circle cx="46" cy="242" r="4" />
<circle cx="47" cy="245" r="4" />
<circle cx="40" cy="259" r="4" />
<circle cx="36" cy="273" r="4" />
<circle cx="35" cy="254" r="4" />
<circle cx="47" cy="257" r="4" />
<circle cx="57" cy="267" r="4" />
<circle cx="54" cy="277" r="4" />
<circle cx="42" cy="277" r="4" />
<circle cx="34" cy="268" r="4" />
<circle cx="31" cy="272" r="4" />
<circle cx="135" cy="216" r="4" />
<circle cx="144" cy="223" r="4" />
<circle cx="138" cy="230" r="4" />
<circle cx="151" cy="230" r="4" />
<circle cx="149" cy="251" r="4" />
<circle cx="163" cy="269" r="4" />
<circle cx="173" cy="279" r="4" />
<circle cx="172" cy="288" r="4" />
<circle cx="126" cy="288" r="4" />
<circle cx="119" cy="283" r="4" />
<circle cx="99" cy="280" r="4" />
<circle cx="89" cy="273" r="4" />
<circle cx="79" cy="275" r="4" />
<circle cx="56" cy="274" r="4" />
<circle cx="46" cy="278" r="4" />
<circle cx="75" cy="281" r="4" />
<circle cx="41" cy="289" r="4" />
<circle cx="3" cy="298" r="4" />
<circle cx="1" cy="281" r="4" />
<circle cx="28" cy="245" r="4" />
<circle cx="46" cy="225" r="4" />
<circle cx="28" cy="223" r="4" />
<circle cx="26" cy="254" r="4" />
<circle cx="11" cy="241" r="4" />
<circle cx="26" cy="219" r="4" />
<circle cx="30" cy="198" r="4" />
<circle cx="74" cy="194" r="4" />
<circle cx="67" cy="182" r="4" />
<circle cx="71" cy="170" r="4" />
<circle cx="66" cy="165" r="4" />
<circle cx="54" cy="167" r="4" />
<circle cx="62" cy="153" r="4" />
<circle cx="56" cy="148" r="4" />
<circle cx="20" cy="192" r="4" />
</g>
</g>
</svg>