<?xml version="1.0" encoding="utf-8"?>
<svg xmlns="http://www.w3.org/2000/svg" width="300" height="300"
        viewBox="0 0 300 300" class="creatureMap" style="position:absolute;">
    <defs>
        <filter id="blur" x="-30%" y="-30%" width="160%" height="160%">
            <feGaussianBlur stdDeviation="3" />
        </filter>
        <pattern id="pattern-untameable" width="10" height="10" patternTransform="rotate(135)" patternUnits="userSpaceOnUse">
            <rect width="4" height="10" fill="black"></rect>
        </pattern>
        <filter id="groupStroke">
            <feFlood result="outsideColor" flood-color="black"/>
            <feMorphology in="SourceAlpha" operator="dilate" radius="2"/>
            <feComposite result="strokeoutline1" in="outsideColor" operator="in"/>
            <feComposite result="strokeoutline2" in="strokeoutline1" in2="SourceAlpha" operator="out"/>
            <feGaussianBlur in="strokeoutline2" result="strokeblur" stdDeviation="1"/>
        </filter>
        <style>
            .spawningMap-very-common { fill: #0F0; }
            .spawningMap-common { fill: #B2FF00; }
            .spawningMap-uncommon { fill: #FF0; }
            .spawningMap-very-uncommon { fill: #FC0; }
            .spawningMap-rare { fill: #F60; }
            .spawningMap-very-rare { fill: #F00; }
            .spawning-map-point { stroke:black; stroke-width:1; }
        </style>
    </defs>

<g filter="url(#blur)" opacity="0.7">
<g class="spawningMap-rare">
<rect x="194" y="149" width="16" height="12" />
<rect x="177" y="137" width="19" height="21" />
<rect x="152" y="96" width="51" height="23" />
<rect x="210" y="160" width="21" height="21" />
<rect x="136" y="75" width="21" height="21" />
<rect x="199" y="136" width="15" height="14" />
<rect x="165" y="115" width="12" height="11" />
<rect x="165" y="107" width="11" height="10" />
<rect x="163" y="101" width="12" height="10" />
<rect x="159" y="97" width="11" height="11" />
<rect x="151" y="96" width="12" height="10" />
<rect x="143" y="97" width="12" height="10" />
<rect x="141" y="100" width="11" height="11" />
<rect x="138" y="107" width="12" height="11" />
<rect x="139" y="115" width="12" height="10" />
<rect x="140" y="122" width="12" height="10" />
<rect x="140" y="130" width="12" height="10" />
<rect x="147" y="136" width="12" height="10" />
<rect x="155" y="137" width="12" height="10" />
<rect x="163" y="134" width="11" height="11" />
<rect x="167" y="129" width="11" height="10" />
<rect x="166" y="121" width="12" height="11" />
<rect x="153" y="105" width="11" height="10" />
<rect x="153" y="101" width="14" height="14" />
<rect x="115" y="145" width="15" height="13" />
<rect x="115" y="75" width="15" height="14" />
<rect x="134" y="127" width="14" height="14" />
<rect x="134" y="119" width="14" height="13" />
<rect x="134" y="110" width="14" height="14" />
<rect x="134" y="101" width="14" height="14" />
<rect x="134" y="93" width="14" height="13" />
<rect x="134" y="84" width="14" height="14" />
<rect x="134" y="162" width="14" height="14" />
<rect x="134" y="171" width="14" height="13" />
<rect x="134" y="75" width="14" height="14" />
<rect x="134" y="67" width="14" height="13" />
<rect x="125" y="93" width="14" height="13" />
<rect x="125" y="84" width="14" height="14" />
<rect x="125" y="171" width="14" height="13" />
<rect x="125" y="75" width="14" height="14" />
<rect x="125" y="67" width="14" height="13" />
<rect x="106" y="26" width="15" height="14" />
<rect x="135" y="61" width="20" height="21" />
<rect x="199" y="136" width="15" height="14" />
<rect x="209" y="127" width="14" height="14" />
<rect x="209" y="119" width="14" height="13" />
<rect x="209" y="110" width="14" height="14" />
<rect x="209" y="101" width="14" height="14" />
<rect x="209" y="93" width="14" height="13" />
<rect x="209" y="84" width="14" height="14" />
<rect x="209" y="170" width="14" height="14" />
<rect x="199" y="101" width="15" height="14" />
<rect x="199" y="93" width="15" height="13" />
<rect x="199" y="84" width="15" height="14" />
<rect x="199" y="145" width="15" height="13" />
<rect x="199" y="162" width="15" height="14" />
<rect x="199" y="171" width="15" height="13" />
<rect x="199" y="75" width="15" height="14" />
<rect x="227" y="127" width="15" height="14" />
<rect x="227" y="101" width="15" height="14" />
<rect x="227" y="93" width="15" height="13" />
<rect x="227" y="162" width="15" height="14" />
<rect x="227" y="171" width="15" height="13" />
<rect x="227" y="75" width="15" height="14" />
<rect x="218" y="136" width="14" height="14" />
<rect x="209" y="99" width="14" height="14" />
<rect x="218" y="84" width="14" height="14" />
<rect x="218" y="145" width="14" height="13" />
<rect x="218" y="153" width="14" height="14" />
<rect x="218" y="171" width="14" height="13" />
<rect x="218" y="75" width="14" height="14" />
<rect x="121" y="61" width="21" height="21" />
<rect x="246" y="136" width="14" height="14" />
<rect x="246" y="93" width="14" height="13" />
<rect x="246" y="153" width="14" height="14" />
<rect x="246" y="75" width="14" height="14" />
<rect x="237" y="127" width="14" height="14" />
<rect x="237" y="101" width="14" height="14" />
<rect x="237" y="162" width="14" height="14" />
<rect x="237" y="75" width="14" height="14" />
<rect x="153" y="136" width="14" height="14" />
<rect x="143" y="127" width="15" height="14" />
<rect x="143" y="162" width="15" height="14" />
<rect x="171" y="127" width="15" height="14" />
<rect x="106" y="61" width="21" height="21" />
<rect x="162" y="179" width="14" height="14" />
<rect x="162" y="75" width="14" height="14" />
<rect x="190" y="93" width="14" height="13" />
<rect x="190" y="84" width="14" height="14" />
<rect x="190" y="171" width="14" height="13" />
<rect x="190" y="75" width="14" height="14" />
<rect x="193" y="129" width="21" height="20" />
<rect x="181" y="136" width="14" height="14" />
<rect x="181" y="127" width="14" height="14" />
<rect x="181" y="93" width="14" height="13" />
<rect x="181" y="171" width="14" height="13" />
<rect x="181" y="75" width="14" height="14" />
<rect x="181" y="67" width="14" height="13" />
<rect x="153" y="127" width="14" height="14" />
<rect x="106" y="75" width="21" height="21" />
<rect x="178" y="129" width="21" height="20" />
<rect x="200" y="102" width="14" height="13" />
<rect x="196" y="90" width="14" height="14" />
<rect x="196" y="81" width="15" height="14" />
<rect x="125" y="162" width="14" height="14" />
<rect x="127" y="181" width="15" height="13" />
<rect x="104" y="179" width="14" height="13" />
<rect x="200" y="174" width="14" height="14" />
<rect x="199" y="153" width="15" height="14" />
<rect x="163" y="129" width="21" height="20" />
<rect x="148" y="129" width="21" height="20" />
<rect x="135" y="100" width="21" height="20" />
<rect x="150" y="100" width="21" height="20" />
<rect x="165" y="100" width="21" height="20" />
<rect x="180" y="58" width="21" height="21" />
<rect x="165" y="58" width="21" height="21" />
<rect x="150" y="59" width="21" height="21" />
<rect x="195" y="83" width="21" height="21" />
<rect x="210" y="83" width="21" height="21" />
<rect x="210" y="99" width="21" height="20" />
<rect x="121" y="75" width="21" height="21" />
<rect x="210" y="114" width="21" height="20" />
<rect x="210" y="129" width="21" height="21" />
<rect x="210" y="145" width="21" height="20" />
<rect x="143" y="101" width="15" height="14" />
<rect x="143" y="119" width="15" height="13" />
<rect x="143" y="110" width="15" height="14" />
<rect x="143" y="93" width="15" height="13" />
<rect x="143" y="171" width="15" height="13" />
<rect x="153" y="179" width="14" height="14" />
<rect x="153" y="75" width="14" height="14" />
<rect x="153" y="93" width="14" height="13" />
<rect x="153" y="145" width="14" height="13" />
<rect x="190" y="127" width="14" height="14" />
<rect x="143" y="179" width="15" height="14" />
<rect x="143" y="75" width="15" height="14" />
<rect x="171" y="110" width="15" height="14" />
<rect x="171" y="101" width="15" height="14" />
<rect x="171" y="179" width="15" height="14" />
<rect x="171" y="75" width="15" height="14" />
<rect x="171" y="67" width="15" height="13" />
<rect x="162" y="136" width="14" height="14" />
<rect x="162" y="127" width="14" height="14" />
<rect x="162" y="101" width="14" height="14" />
<rect x="162" y="145" width="14" height="13" />
<rect x="190" y="101" width="14" height="14" />
</g>
<g class="spawningMap-very-uncommon">
<rect x="218" y="127" width="14" height="14" />
<rect x="218" y="93" width="14" height="13" />
<rect x="135" y="115" width="21" height="21" />
<rect x="180" y="94" width="21" height="21" />
</g>
<g class="spawningMap-uncommon">
<rect x="195" y="97" width="14" height="14" />
</g>
</g>
</svg>