<?xml version="1.0" encoding="utf-8"?>
<svg xmlns="http://www.w3.org/2000/svg" width="300" height="300"
        viewBox="0 0 300 300" class="creatureMap" style="position:absolute;">
    <defs>
        <filter id="blur" x="-30%" y="-30%" width="160%" height="160%">
            <feGaussianBlur stdDeviation="3" />
        </filter>
        <pattern id="pattern-untameable" width="10" height="10" patternTransform="rotate(135)" patternUnits="userSpaceOnUse">
            <rect width="4" height="10" fill="black"></rect>
        </pattern>
        <filter id="groupStroke">
            <feFlood result="outsideColor" flood-color="black"/>
            <feMorphology in="SourceAlpha" operator="dilate" radius="2"/>
            <feComposite result="strokeoutline1" in="outsideColor" operator="in"/>
            <feComposite result="strokeoutline2" in="strokeoutline1" in2="SourceAlpha" operator="out"/>
            <feGaussianBlur in="strokeoutline2" result="strokeblur" stdDeviation="1"/>
        </filter>
        <style>
            .spawningMap-very-common { fill: #0F0; }
            .spawningMap-common { fill: #B2FF00; }
            .spawningMap-uncommon { fill: #FF0; }
            .spawningMap-very-uncommon { fill: #FC0; }
            .spawningMap-rare { fill: #F60; }
            .spawningMap-very-rare { fill: #F00; }
            .spawning-map-point { stroke:black; stroke-width:1; }
        </style>
    </defs>

<g filter="url(#blur)" opacity="0.7">
<g class="spawningMap-very-rare">
<rect x="18" y="85" width="11" height="11" />
<rect x="16" y="95" width="11" height="11" />
<rect x="37" y="213" width="10" height="11" />
<rect x="19" y="110" width="12" height="11" />
<rect x="25" y="120" width="11" height="11" />
<rect x="24" y="130" width="11" height="11" />
<rect x="24" y="135" width="11" height="11" />
<rect x="26" y="144" width="11" height="11" />
<rect x="29" y="158" width="11" height="11" />
<rect x="30" y="169" width="12" height="11" />
<rect x="31" y="185" width="10" height="11" />
<rect x="29" y="193" width="10" height="11" />
<rect x="30" y="198" width="11" height="11" />
<rect x="30" y="203" width="10" height="11" />
<rect x="32" y="208" width="10" height="11" />
<rect x="45" y="222" width="10" height="11" />
<rect x="39" y="218" width="10" height="11" />
</g>
<g class="spawningMap-very-uncommon">
<rect x="73" y="80" width="9" height="10" />
<rect x="69" y="94" width="8" height="8" />
<rect x="73" y="80" width="9" height="10" />
<rect x="69" y="94" width="8" height="8" />
<rect x="251" y="238" width="8" height="9" />
<rect x="258" y="240" width="8" height="9" />
<rect x="257" y="244" width="9" height="9" />
<rect x="255" y="247" width="9" height="9" />
<rect x="253" y="246" width="9" height="9" />
<rect x="251" y="243" width="9" height="9" />
</g>
<g class="spawningMap-uncommon">
<rect x="74" y="76" width="9" height="9" />
<rect x="72" y="85" width="9" height="9" />
<rect x="71" y="90" width="9" height="9" />
<rect x="133" y="172" width="8" height="8" />
<rect x="126" y="170" width="11" height="10" />
<rect x="122" y="174" width="10" height="11" />
<rect x="74" y="76" width="9" height="9" />
<rect x="72" y="85" width="9" height="9" />
<rect x="71" y="90" width="9" height="9" />
<rect x="239" y="241" width="8" height="8" />
<rect x="240" y="241" width="8" height="9" />
<rect x="242" y="245" width="8" height="9" />
<rect x="244" y="246" width="9" height="8" />
<rect x="246" y="244" width="7" height="8" />
<rect x="243" y="243" width="8" height="8" />
<rect x="246" y="244" width="7" height="8" />
<rect x="247" y="241" width="8" height="8" />
</g>
<g class="spawningMap-common">
<rect x="248" y="239" width="8" height="7" />
</g>
</g>
<g filter="url(#groupStroke)" opacity="0.8">
<rect x="73" y="80" width="9" height="10"/>
<rect x="69" y="94" width="8" height="8"/>
<rect x="73" y="80" width="9" height="10"/>
<rect x="69" y="94" width="8" height="8"/>
<rect x="251" y="238" width="8" height="9"/>
<rect x="258" y="240" width="8" height="9"/>
<rect x="257" y="244" width="9" height="9"/>
<rect x="255" y="247" width="9" height="9"/>
<rect x="253" y="246" width="9" height="9"/>
<rect x="251" y="243" width="9" height="9"/>
<rect x="74" y="76" width="9" height="9"/>
<rect x="72" y="85" width="9" height="9"/>
<rect x="71" y="90" width="9" height="9"/>
<rect x="133" y="172" width="8" height="8"/>
<rect x="126" y="170" width="11" height="10"/>
<rect x="122" y="174" width="10" height="11"/>
<rect x="74" y="76" width="9" height="9"/>
<rect x="72" y="85" width="9" height="9"/>
<rect x="71" y="90" width="9" height="9"/>
<rect x="239" y="241" width="8" height="8"/>
<rect x="240" y="241" width="8" height="9"/>
<rect x="242" y="245" width="8" height="9"/>
<rect x="244" y="246" width="9" height="8"/>
<rect x="246" y="244" width="7" height="8"/>
<rect x="243" y="243" width="8" height="8"/>
<rect x="246" y="244" width="7" height="8"/>
<rect x="247" y="241" width="8" height="8"/>
<rect x="248" y="239" width="8" height="7"/>
</g>
</svg>