<?xml version="1.0" encoding="utf-8"?>
<svg xmlns="http://www.w3.org/2000/svg" width="300" height="300" viewBox="0 0 300 300" class="creatureMap" style="position:absolute;">
    <defs>
        <filter id="blur" x="-30%" y="-30%" width="160%" height="160%">
            <feGaussianBlur stdDeviation="3" />
        </filter>
        <pattern id="pattern-untameable" width="10" height="10" patternTransform="rotate(135)" patternUnits="userSpaceOnUse">'
            <rect width="4" height="10" fill="black"></rect>
        </pattern>
        <filter id="groupStroke">
            <feFlood result="outsideColor" flood-color="black"/>
            <feMorphology in="SourceAlpha" operator="dilate" radius="2"/>
            <feComposite result="strokeoutline1" in="outsideColor" operator="in"/>
            <feComposite result="strokeoutline2" in="strokeoutline1" in2="SourceAlpha" operator="out"/>
            <feGaussianBlur in="strokeoutline2" result="strokeblur" stdDeviation="1"/>
        </filter>
        <style>
            .spawningMap-very-common { fill: #0F0; }
            .spawningMap-common { fill: #B2FF00; }
            .spawningMap-uncommon { fill: #FF0; }
            .spawningMap-very-uncommon { fill: #FC0; }
            .spawningMap-rare { fill: #F60; }
            .spawningMap-very-rare { fill: #F00; }
            .spawning-map-point { stroke:black; stroke-width:1; }
        </style>
    </defs>

<g filter="url(#blur)" opacity="0.7">
<g class="spawningMap-rare">
<rect x="145" y="163" width="13" height="18" />
<rect x="199" y="93" width="16" height="20" />
<rect x="233" y="108" width="16" height="16" />
<rect x="233" y="96" width="16" height="17" />
<rect x="233" y="85" width="16" height="17" />
<rect x="244" y="96" width="16" height="17" />
<rect x="96" y="176" width="16" height="16" />
<rect x="85" y="176" width="16" height="16" />
<rect x="74" y="176" width="16" height="16" />
<rect x="153" y="176" width="16" height="16" />
<rect x="164" y="176" width="17" height="16" />
<rect x="221" y="119" width="17" height="17" />
<rect x="221" y="130" width="17" height="17" />
<rect x="233" y="119" width="16" height="17" />
<rect x="233" y="130" width="16" height="17" />
<rect x="244" y="119" width="17" height="17" />
<rect x="244" y="130" width="17" height="17" />
<rect x="233" y="141" width="16" height="17" />
<rect x="244" y="141" width="16" height="17" />
<rect x="239" y="152" width="21" height="19" />
<rect x="198" y="175" width="16" height="16" />
<rect x="186" y="175" width="17" height="16" />
<rect x="175" y="175" width="17" height="16" />
<rect x="95" y="141" width="18" height="18" />
<rect x="244" y="108" width="16" height="16" />
</g>
<g class="spawningMap-very-uncommon">
<rect x="51" y="108" width="16" height="17" />
<rect x="164" y="108" width="17" height="16" />
<rect x="164" y="96" width="17" height="17" />
<rect x="153" y="96" width="16" height="17" />
<rect x="176" y="96" width="17" height="17" />
<rect x="176" y="107" width="17" height="17" />
<rect x="187" y="107" width="17" height="17" />
<rect x="187" y="95" width="17" height="18" />
<rect x="199" y="107" width="16" height="17" />
<rect x="210" y="108" width="16" height="16" />
<rect x="221" y="108" width="17" height="16" />
<rect x="221" y="96" width="17" height="17" />
<rect x="210" y="96" width="16" height="17" />
<rect x="221" y="85" width="17" height="17" />
<rect x="176" y="119" width="16" height="16" />
<rect x="187" y="119" width="17" height="16" />
<rect x="176" y="130" width="16" height="17" />
<rect x="187" y="130" width="17" height="17" />
<rect x="176" y="142" width="16" height="16" />
<rect x="198" y="130" width="17" height="17" />
<rect x="187" y="142" width="17" height="16" />
<rect x="198" y="142" width="17" height="16" />
<rect x="176" y="164" width="16" height="17" />
<rect x="187" y="153" width="17" height="16" />
<rect x="187" y="164" width="17" height="17" />
<rect x="198" y="153" width="17" height="17" />
<rect x="198" y="164" width="17" height="17" />
<rect x="210" y="164" width="16" height="17" />
<rect x="221" y="164" width="16" height="17" />
<rect x="210" y="153" width="16" height="16" />
<rect x="210" y="142" width="16" height="16" />
<rect x="221" y="145" width="14" height="13" />
<rect x="210" y="130" width="16" height="17" />
<rect x="210" y="119" width="16" height="17" />
<rect x="176" y="62" width="17" height="16" />
<rect x="176" y="84" width="17" height="17" />
<rect x="118" y="107" width="17" height="17" />
<rect x="119" y="73" width="16" height="17" />
<rect x="119" y="62" width="16" height="16" />
<rect x="130" y="107" width="16" height="17" />
<rect x="141" y="96" width="17" height="17" />
<rect x="141" y="85" width="17" height="16" />
<rect x="153" y="62" width="16" height="17" />
<rect x="153" y="74" width="16" height="16" />
<rect x="153" y="85" width="16" height="16" />
<rect x="164" y="85" width="17" height="16" />
<rect x="164" y="74" width="17" height="16" />
<rect x="164" y="62" width="17" height="17" />
<rect x="141" y="107" width="17" height="17" />
<rect x="141" y="62" width="16" height="16" />
<rect x="61" y="119" width="17" height="17" />
<rect x="141" y="73" width="17" height="16" />
<rect x="65" y="50" width="12" height="17" />
<rect x="144" y="16" width="17" height="17" />
<rect x="155" y="16" width="17" height="17" />
<rect x="38" y="108" width="17" height="16" />
<rect x="27" y="108" width="17" height="16" />
<rect x="16" y="108" width="16" height="16" />
<rect x="107" y="130" width="17" height="17" />
<rect x="107" y="142" width="17" height="16" />
<rect x="107" y="153" width="17" height="17" />
<rect x="107" y="164" width="17" height="17" />
<rect x="96" y="164" width="17" height="17" />
<rect x="96" y="153" width="17" height="16" />
<rect x="85" y="153" width="16" height="16" />
<rect x="85" y="164" width="16" height="17" />
<rect x="119" y="164" width="16" height="17" />
<rect x="119" y="153" width="16" height="17" />
<rect x="130" y="136" width="17" height="16" />
<rect x="141" y="119" width="17" height="17" />
<rect x="153" y="130" width="16" height="17" />
<rect x="164" y="130" width="17" height="17" />
<rect x="153" y="142" width="16" height="16" />
<rect x="164" y="142" width="17" height="16" />
<rect x="153" y="153" width="16" height="16" />
<rect x="152" y="39" width="16" height="17" />
<rect x="164" y="153" width="17" height="16" />
<rect x="61" y="62" width="16" height="16" />
<rect x="72" y="62" width="17" height="16" />
<rect x="27" y="119" width="17" height="17" />
<rect x="16" y="119" width="16" height="17" />
<rect x="102" y="9" width="17" height="16" />
<rect x="153" y="108" width="16" height="16" />
<rect x="114" y="9" width="16" height="16" />
<rect x="80" y="17" width="16" height="16" />
<rect x="72" y="28" width="17" height="16" />
<rect x="72" y="39" width="17" height="17" />
<rect x="50" y="131" width="16" height="16" />
<rect x="72" y="50" width="17" height="17" />
<rect x="84" y="50" width="16" height="17" />
<rect x="95" y="50" width="16" height="17" />
<rect x="106" y="50" width="17" height="17" />
<rect x="118" y="50" width="16" height="17" />
<rect x="129" y="50" width="17" height="17" />
<rect x="140" y="50" width="17" height="17" />
<rect x="50" y="153" width="17" height="17" />
<rect x="50" y="119" width="16" height="17" />
<rect x="144" y="28" width="17" height="16" />
<rect x="155" y="28" width="17" height="16" />
<rect x="38" y="131" width="17" height="16" />
<rect x="62" y="97" width="17" height="16" />
<rect x="51" y="97" width="16" height="16" />
<rect x="95" y="73" width="17" height="16" />
<rect x="107" y="73" width="16" height="16" />
<rect x="130" y="62" width="16" height="16" />
<rect x="73" y="108" width="16" height="16" />
<rect x="73" y="119" width="16" height="17" />
<rect x="84" y="119" width="16" height="17" />
<rect x="73" y="131" width="16" height="16" />
<rect x="73" y="142" width="16" height="16" />
<rect x="61" y="142" width="17" height="16" />
<rect x="50" y="142" width="16" height="16" />
<rect x="95" y="96" width="17" height="17" />
<rect x="107" y="84" width="16" height="17" />
<rect x="118" y="84" width="17" height="17" />
<rect x="118" y="96" width="17" height="16" />
<rect x="130" y="96" width="16" height="16" />
<rect x="130" y="84" width="16" height="17" />
<rect x="130" y="73" width="16" height="16" />
<rect x="27" y="131" width="17" height="16" />
<rect x="198" y="119" width="17" height="17" />
<rect x="221" y="153" width="16" height="16" />
<rect x="95" y="130" width="17" height="17" />
<rect x="91" y="9" width="16" height="16" />
<rect x="140" y="39" width="17" height="17" />
<rect x="74" y="164" width="16" height="17" />
<rect x="176" y="73" width="17" height="17" />
<rect x="185" y="73" width="17" height="17" />
<rect x="74" y="153" width="16" height="17" />
<rect x="119" y="142" width="16" height="17" />
<rect x="141" y="142" width="17" height="16" />
<rect x="141" y="131" width="17" height="16" />
<rect x="153" y="119" width="16" height="17" />
<rect x="185" y="62" width="17" height="16" />
<rect x="164" y="119" width="17" height="17" />
<rect x="185" y="51" width="17" height="16" />
<rect x="174" y="51" width="16" height="16" />
<rect x="153" y="164" width="16" height="17" />
<rect x="164" y="164" width="17" height="17" />
<rect x="163" y="51" width="16" height="16" />
<rect x="152" y="51" width="16" height="16" />
<rect x="62" y="108" width="17" height="16" />
<rect x="16" y="131" width="16" height="16" />
<rect x="84" y="108" width="17" height="16" />
<rect x="95" y="108" width="17" height="16" />
<rect x="107" y="108" width="16" height="16" />
<rect x="73" y="96" width="16" height="17" />
<rect x="84" y="96" width="17" height="17" />
<rect x="38" y="142" width="17" height="16" />
<rect x="107" y="96" width="16" height="17" />
<rect x="73" y="84" width="16" height="17" />
<rect x="84" y="84" width="17" height="17" />
<rect x="95" y="84" width="17" height="17" />
<rect x="73" y="73" width="16" height="16" />
<rect x="84" y="73" width="17" height="16" />
<rect x="38" y="119" width="17" height="17" />
<rect x="62" y="85" width="17" height="17" />
</g>
<g class="spawningMap-uncommon">
<rect x="210" y="92" width="16" height="10" />
<rect x="11" y="131" width="10" height="16" />
<rect x="11" y="119" width="10" height="17" />
</g>
</g>
</svg>