<?xml version="1.0" encoding="utf-8"?>
<svg xmlns="http://www.w3.org/2000/svg" width="300" height="300"
        viewBox="0 0 300 300" class="creatureMap" style="position:absolute;">
    <defs>
        <filter id="blur" x="-30%" y="-30%" width="160%" height="160%">
            <feGaussianBlur stdDeviation="3" />
        </filter>
        <pattern id="pattern-untameable" width="10" height="10" patternTransform="rotate(135)" patternUnits="userSpaceOnUse">
            <rect width="4" height="10" fill="black"></rect>
        </pattern>
        <filter id="groupStroke">
            <feFlood result="outsideColor" flood-color="black"/>
            <feMorphology in="SourceAlpha" operator="dilate" radius="2"/>
            <feComposite result="strokeoutline1" in="outsideColor" operator="in"/>
            <feComposite result="strokeoutline2" in="strokeoutline1" in2="SourceAlpha" operator="out"/>
            <feGaussianBlur in="strokeoutline2" result="strokeblur" stdDeviation="1"/>
        </filter>
        <style>
            .spawningMap-very-common { fill: #0F0; }
            .spawningMap-common { fill: #B2FF00; }
            .spawningMap-uncommon { fill: #FF0; }
            .spawningMap-very-uncommon { fill: #FC0; }
            .spawningMap-rare { fill: #F60; }
            .spawningMap-very-rare { fill: #F00; }
            .spawning-map-point { stroke:black; stroke-width:1; }
        </style>
    </defs>

<g filter="url(#blur)" opacity="0.7">
<g class="spawningMap-very-rare">
<rect x="1" y="26" width="21" height="15" />
<rect x="286" y="33" width="14" height="20" />
<rect x="286" y="146" width="14" height="21" />
<rect x="0" y="26" width="6" height="21" />
<rect x="0" y="42" width="6" height="21" />
<rect x="0" y="59" width="6" height="20" />
<rect x="0" y="75" width="6" height="21" />
<rect x="0" y="91" width="6" height="21" />
<rect x="0" y="107" width="6" height="21" />
<rect x="0" y="124" width="6" height="21" />
<rect x="17" y="37" width="16" height="36" />
<rect x="66" y="299" width="21" height="1" />
<rect x="82" y="299" width="21" height="1" />
<rect x="99" y="299" width="20" height="1" />
<rect x="0" y="299" width="6" height="1" />
<rect x="244" y="299" width="20" height="1" />
<rect x="179" y="0" width="20" height="21" />
<rect x="211" y="299" width="21" height="1" />
<rect x="147" y="0" width="20" height="21" />
<rect x="17" y="10" width="21" height="20" />
<rect x="179" y="0" width="20" height="5" />
<rect x="35" y="9" width="50" height="14" />
<rect x="17" y="26" width="21" height="15" />
<rect x="82" y="0" width="21" height="14" />
<rect x="66" y="0" width="20" height="14" />
<rect x="50" y="0" width="20" height="14" />
<rect x="34" y="0" width="20" height="14" />
<rect x="17" y="0" width="21" height="14" />
<rect x="1" y="0" width="21" height="14" />
<rect x="98" y="0" width="21" height="5" />
<rect x="114" y="0" width="21" height="5" />
<rect x="131" y="0" width="20" height="5" />
<rect x="195" y="0" width="20" height="21" />
<rect x="195" y="0" width="20" height="5" />
<rect x="211" y="0" width="20" height="21" />
<rect x="211" y="0" width="20" height="5" />
<rect x="227" y="0" width="21" height="21" />
<rect x="227" y="0" width="21" height="5" />
<rect x="243" y="0" width="21" height="21" />
<rect x="243" y="0" width="21" height="5" />
<rect x="259" y="0" width="21" height="21" />
<rect x="259" y="0" width="21" height="5" />
<rect x="275" y="0" width="21" height="21" />
<rect x="275" y="0" width="21" height="5" />
<rect x="286" y="82" width="14" height="20" />
<rect x="286" y="98" width="14" height="21" />
<rect x="291" y="0" width="9" height="21" />
<rect x="291" y="0" width="9" height="5" />
<rect x="286" y="17" width="14" height="20" />
<rect x="1" y="10" width="21" height="20" />
<rect x="286" y="49" width="14" height="21" />
<rect x="286" y="114" width="14" height="21" />
<rect x="286" y="130" width="14" height="21" />
<rect x="1" y="37" width="21" height="20" />
<rect x="1" y="53" width="21" height="21" />
<rect x="1" y="69" width="21" height="21" />
<rect x="1" y="86" width="21" height="21" />
<rect x="1" y="102" width="21" height="21" />
<rect x="1" y="118" width="21" height="21" />
<rect x="1" y="135" width="21" height="21" />
<rect x="1" y="151" width="21" height="21" />
<rect x="286" y="66" width="14" height="20" />
<rect x="115" y="299" width="20" height="1" />
<rect x="131" y="299" width="20" height="1" />
<rect x="82" y="10" width="21" height="21" />
<rect x="1" y="168" width="21" height="20" />
<rect x="98" y="0" width="21" height="21" />
<rect x="147" y="299" width="20" height="1" />
<rect x="1" y="184" width="21" height="21" />
<rect x="163" y="299" width="21" height="1" />
<rect x="114" y="0" width="21" height="21" />
<rect x="179" y="299" width="21" height="1" />
<rect x="131" y="0" width="20" height="21" />
<rect x="195" y="299" width="21" height="1" />
<rect x="227" y="299" width="21" height="1" />
<rect x="1" y="233" width="21" height="21" />
<rect x="1" y="250" width="21" height="21" />
<rect x="147" y="0" width="20" height="5" />
<rect x="1" y="266" width="21" height="21" />
<rect x="1" y="282" width="21" height="18" />
<rect x="1" y="299" width="21" height="1" />
<rect x="17" y="299" width="21" height="1" />
<rect x="34" y="299" width="20" height="1" />
<rect x="50" y="299" width="20" height="1" />
<rect x="0" y="189" width="6" height="21" />
<rect x="0" y="140" width="6" height="21" />
<rect x="0" y="157" width="6" height="20" />
<rect x="0" y="173" width="6" height="21" />
<rect x="163" y="0" width="20" height="21" />
<rect x="0" y="10" width="6" height="20" />
<rect x="0" y="0" width="6" height="14" />
<rect x="1" y="200" width="21" height="21" />
<rect x="1" y="217" width="21" height="21" />
<rect x="0" y="200" width="6" height="21" />
<rect x="163" y="0" width="20" height="5" />
<rect x="0" y="217" width="6" height="21" />
<rect x="0" y="233" width="6" height="21" />
<rect x="0" y="250" width="6" height="21" />
<rect x="0" y="266" width="6" height="21" />
<rect x="0" y="283" width="6" height="17" />
</g>
</g>
<g fill="url(#pattern-untameable)" opacity="0.3">
<rect x="1" y="26" width="21" height="15"/>
<rect x="286" y="33" width="14" height="20"/>
<rect x="286" y="146" width="14" height="21"/>
<rect x="0" y="26" width="6" height="21"/>
<rect x="0" y="42" width="6" height="21"/>
<rect x="0" y="59" width="6" height="20"/>
<rect x="0" y="75" width="6" height="21"/>
<rect x="0" y="91" width="6" height="21"/>
<rect x="0" y="107" width="6" height="21"/>
<rect x="0" y="124" width="6" height="21"/>
<rect x="17" y="37" width="16" height="36"/>
<rect x="66" y="299" width="21" height="1"/>
<rect x="82" y="299" width="21" height="1"/>
<rect x="99" y="299" width="20" height="1"/>
<rect x="0" y="299" width="6" height="1"/>
<rect x="244" y="299" width="20" height="1"/>
<rect x="179" y="0" width="20" height="21"/>
<rect x="211" y="299" width="21" height="1"/>
<rect x="147" y="0" width="20" height="21"/>
<rect x="17" y="10" width="21" height="20"/>
<rect x="179" y="0" width="20" height="5"/>
<rect x="35" y="9" width="50" height="14"/>
<rect x="17" y="26" width="21" height="15"/>
<rect x="82" y="0" width="21" height="14"/>
<rect x="66" y="0" width="20" height="14"/>
<rect x="50" y="0" width="20" height="14"/>
<rect x="34" y="0" width="20" height="14"/>
<rect x="17" y="0" width="21" height="14"/>
<rect x="1" y="0" width="21" height="14"/>
<rect x="98" y="0" width="21" height="5"/>
<rect x="114" y="0" width="21" height="5"/>
<rect x="131" y="0" width="20" height="5"/>
<rect x="195" y="0" width="20" height="21"/>
<rect x="195" y="0" width="20" height="5"/>
<rect x="211" y="0" width="20" height="21"/>
<rect x="211" y="0" width="20" height="5"/>
<rect x="227" y="0" width="21" height="21"/>
<rect x="227" y="0" width="21" height="5"/>
<rect x="243" y="0" width="21" height="21"/>
<rect x="243" y="0" width="21" height="5"/>
<rect x="259" y="0" width="21" height="21"/>
<rect x="259" y="0" width="21" height="5"/>
<rect x="275" y="0" width="21" height="21"/>
<rect x="275" y="0" width="21" height="5"/>
<rect x="286" y="82" width="14" height="20"/>
<rect x="286" y="98" width="14" height="21"/>
<rect x="291" y="0" width="9" height="21"/>
<rect x="291" y="0" width="9" height="5"/>
<rect x="286" y="17" width="14" height="20"/>
<rect x="1" y="10" width="21" height="20"/>
<rect x="286" y="49" width="14" height="21"/>
<rect x="286" y="114" width="14" height="21"/>
<rect x="286" y="130" width="14" height="21"/>
<rect x="1" y="37" width="21" height="20"/>
<rect x="1" y="53" width="21" height="21"/>
<rect x="1" y="69" width="21" height="21"/>
<rect x="1" y="86" width="21" height="21"/>
<rect x="1" y="102" width="21" height="21"/>
<rect x="1" y="118" width="21" height="21"/>
<rect x="1" y="135" width="21" height="21"/>
<rect x="1" y="151" width="21" height="21"/>
<rect x="286" y="66" width="14" height="20"/>
<rect x="115" y="299" width="20" height="1"/>
<rect x="131" y="299" width="20" height="1"/>
<rect x="82" y="10" width="21" height="21"/>
<rect x="1" y="168" width="21" height="20"/>
<rect x="98" y="0" width="21" height="21"/>
<rect x="147" y="299" width="20" height="1"/>
<rect x="1" y="184" width="21" height="21"/>
<rect x="163" y="299" width="21" height="1"/>
<rect x="114" y="0" width="21" height="21"/>
<rect x="179" y="299" width="21" height="1"/>
<rect x="131" y="0" width="20" height="21"/>
<rect x="195" y="299" width="21" height="1"/>
<rect x="227" y="299" width="21" height="1"/>
<rect x="1" y="233" width="21" height="21"/>
<rect x="1" y="250" width="21" height="21"/>
<rect x="147" y="0" width="20" height="5"/>
<rect x="1" y="266" width="21" height="21"/>
<rect x="1" y="282" width="21" height="18"/>
<rect x="1" y="299" width="21" height="1"/>
<rect x="17" y="299" width="21" height="1"/>
<rect x="34" y="299" width="20" height="1"/>
<rect x="50" y="299" width="20" height="1"/>
<rect x="0" y="189" width="6" height="21"/>
<rect x="0" y="140" width="6" height="21"/>
<rect x="0" y="157" width="6" height="20"/>
<rect x="0" y="173" width="6" height="21"/>
<rect x="163" y="0" width="20" height="21"/>
<rect x="0" y="10" width="6" height="20"/>
<rect x="0" y="0" width="6" height="14"/>
<rect x="1" y="200" width="21" height="21"/>
<rect x="1" y="217" width="21" height="21"/>
<rect x="0" y="200" width="6" height="21"/>
<rect x="163" y="0" width="20" height="5"/>
<rect x="0" y="217" width="6" height="21"/>
<rect x="0" y="233" width="6" height="21"/>
<rect x="0" y="250" width="6" height="21"/>
<rect x="0" y="266" width="6" height="21"/>
<rect x="0" y="283" width="6" height="17"/>
</g>
</svg>