<?xml version="1.0" encoding="utf-8"?>
<svg xmlns="http://www.w3.org/2000/svg" width="300" height="300" viewBox="0 0 300 300" class="creatureMap" style="position:absolute;">
    <defs>
        <filter id="blur" x="-30%" y="-30%" width="160%" height="160%">
            <feGaussianBlur stdDeviation="3" />
        </filter>
        <pattern id="pattern-untameable" width="10" height="10" patternTransform="rotate(135)" patternUnits="userSpaceOnUse">'
            <rect width="4" height="10" fill="black"></rect>
        </pattern>
        <filter id="groupStroke">
            <feFlood result="outsideColor" flood-color="black"/>
            <feMorphology in="SourceAlpha" operator="dilate" radius="2"/>
            <feComposite result="strokeoutline1" in="outsideColor" operator="in"/>
            <feComposite result="strokeoutline2" in="strokeoutline1" in2="SourceAlpha" operator="out"/>
            <feGaussianBlur in="strokeoutline2" result="strokeblur" stdDeviation="1"/>
        </filter>
        <style>
            .spawningMap-very-common { fill: #0F0; }
            .spawningMap-common { fill: #B2FF00; }
            .spawningMap-uncommon { fill: #FF0; }
            .spawningMap-very-uncommon { fill: #FC0; }
            .spawningMap-rare { fill: #F60; }
            .spawningMap-very-rare { fill: #F00; }
            .spawning-map-point { stroke:black; stroke-width:1; }
        </style>
    </defs>

<g filter="url(#blur)" opacity="0.7">
<g class="spawningMap-very-uncommon">
<rect x="148" y="20" width="24" height="22" />
<rect x="226" y="17" width="36" height="14" />
<rect x="259" y="56" width="23" height="18" />
</g>
<g class="spawningMap-uncommon">
<rect x="30" y="33" width="15" height="14" />
<rect x="25" y="58" width="13" height="15" />
<rect x="64" y="23" width="13" height="16" />
<rect x="99" y="26" width="14" height="15" />
<rect x="52" y="91" width="13" height="16" />
<rect x="258" y="18" width="16" height="18" />
<rect x="67" y="180" width="15" height="13" />
<rect x="25" y="48" width="13" height="15" />
<rect x="44" y="81" width="13" height="15" />
<rect x="83" y="54" width="18" height="11" />
<rect x="92" y="41" width="11" height="18" />
<rect x="109" y="19" width="23" height="14" />
<rect x="128" y="19" width="24" height="14" />
<rect x="204" y="26" width="16" height="17" />
<rect x="56" y="24" width="13" height="15" />
<rect x="67" y="172" width="15" height="14" />
<rect x="59" y="188" width="15" height="13" />
<rect x="59" y="196" width="15" height="13" />
<rect x="54" y="212" width="13" height="18" />
</g>
<g class="spawningMap-common">
<rect x="32" y="65" width="13" height="14" />
<rect x="66" y="34" width="18" height="10" />
<rect x="46" y="212" width="13" height="13" />
<rect x="100" y="204" width="13" height="13" />
<rect x="100" y="212" width="13" height="13" />
<rect x="84" y="220" width="13" height="13" />
<rect x="79" y="38" width="13" height="14" />
<rect x="79" y="46" width="13" height="14" />
<rect x="48" y="34" width="13" height="13" />
<rect x="32" y="42" width="13" height="13" />
<rect x="32" y="50" width="13" height="13" />
<rect x="40" y="34" width="13" height="13" />
<rect x="93" y="32" width="11" height="14" />
<rect x="79" y="31" width="13" height="13" />
<rect x="32" y="57" width="13" height="14" />
<rect x="71" y="26" width="13" height="13" />
<rect x="48" y="26" width="13" height="13" />
<rect x="62" y="136" width="13" height="13" />
<rect x="62" y="144" width="13" height="13" />
<rect x="69" y="149" width="13" height="13" />
<rect x="69" y="156" width="13" height="14" />
<rect x="69" y="164" width="13" height="14" />
<rect x="69" y="188" width="13" height="13" />
<rect x="69" y="196" width="13" height="13" />
<rect x="46" y="204" width="13" height="13" />
<rect x="54" y="204" width="13" height="13" />
<rect x="84" y="204" width="13" height="13" />
<rect x="84" y="212" width="13" height="13" />
<rect x="92" y="204" width="13" height="13" />
<rect x="92" y="212" width="13" height="13" />
<rect x="92" y="220" width="13" height="13" />
</g>
</g>
</svg>