<?xml version="1.0" encoding="utf-8"?>
<svg xmlns="http://www.w3.org/2000/svg" width="300" height="300" viewBox="0 0 300 300" class="creatureMap" style="position:absolute;">
    <defs>
        <filter id="blur" x="-30%" y="-30%" width="160%" height="160%">
            <feGaussianBlur stdDeviation="3" />
        </filter>
        <pattern id="pattern-untameable" width="10" height="10" patternTransform="rotate(135)" patternUnits="userSpaceOnUse">'
            <rect width="4" height="10" fill="black"></rect>
        </pattern>
        <filter id="groupStroke">
            <feFlood result="outsideColor" flood-color="black"/>
            <feMorphology in="SourceAlpha" operator="dilate" radius="2"/>
            <feComposite result="strokeoutline1" in="outsideColor" operator="in"/>
            <feComposite result="strokeoutline2" in="strokeoutline1" in2="SourceAlpha" operator="out"/>
            <feGaussianBlur in="strokeoutline2" result="strokeblur" stdDeviation="1"/>
        </filter>
        <style>
            .spawningMap-very-common { fill: #0F0; }
            .spawningMap-common { fill: #B2FF00; }
            .spawningMap-uncommon { fill: #FF0; }
            .spawningMap-very-uncommon { fill: #FC0; }
            .spawningMap-rare { fill: #F60; }
            .spawningMap-very-rare { fill: #F00; }
            .spawning-map-point { stroke:black; stroke-width:1; }
        </style>
    </defs>

<g class="spawning-map-point" opacity="0.8">
<g class="spawningMap-rare">
<circle cx="150" cy="172" r="4" />
<circle cx="151" cy="174" r="4" />
<circle cx="148" cy="176" r="4" />
<circle cx="136" cy="191" r="4" />
<circle cx="139" cy="193" r="4" />
<circle cx="132" cy="192" r="4" />
<circle cx="135" cy="188" r="4" />
<circle cx="139" cy="185" r="4" />
<circle cx="142" cy="183" r="4" />
<circle cx="138" cy="184" r="4" />
<circle cx="139" cy="190" r="4" />
<circle cx="143" cy="188" r="4" />
<circle cx="144" cy="187" r="4" />
<circle cx="144" cy="183" r="4" />
<circle cx="149" cy="179" r="4" />
<circle cx="147" cy="182" r="4" />
<circle cx="144" cy="185" r="4" />
<circle cx="145" cy="187" r="4" />
<circle cx="144" cy="191" r="4" />
<circle cx="141" cy="190" r="4" />
<circle cx="141" cy="193" r="4" />
<circle cx="146" cy="182" r="4" />
<circle cx="148" cy="180" r="4" />
<circle cx="149" cy="176" r="4" />
<circle cx="153" cy="172" r="4" />
<circle cx="151" cy="173" r="4" />
<circle cx="152" cy="171" r="4" />
<circle cx="151" cy="172" r="4" />
<circle cx="143" cy="180" r="4" />
<circle cx="141" cy="185" r="4" />
</g>
</g>
</svg>