<?xml version="1.0" encoding="utf-8"?>
<svg xmlns="http://www.w3.org/2000/svg" width="300" height="300" viewBox="0 0 300 300" class="creatureMap" style="position:absolute;">
    <defs>
        <filter id="blur" x="-30%" y="-30%" width="160%" height="160%">
            <feGaussianBlur stdDeviation="3" />
        </filter>
        <pattern id="pattern-untameable" width="10" height="10" patternTransform="rotate(135)" patternUnits="userSpaceOnUse">'
            <rect width="4" height="10" fill="black"></rect>
        </pattern>
        <filter id="groupStroke">
            <feFlood result="outsideColor" flood-color="black"/>
            <feMorphology in="SourceAlpha" operator="dilate" radius="2"/>
            <feComposite result="strokeoutline1" in="outsideColor" operator="in"/>
            <feComposite result="strokeoutline2" in="strokeoutline1" in2="SourceAlpha" operator="out"/>
            <feGaussianBlur in="strokeoutline2" result="strokeblur" stdDeviation="1"/>
        </filter>
        <style>
            .spawningMap-very-common { fill: #0F0; }
            .spawningMap-common { fill: #B2FF00; }
            .spawningMap-uncommon { fill: #FF0; }
            .spawningMap-very-uncommon { fill: #FC0; }
            .spawningMap-rare { fill: #F60; }
            .spawningMap-very-rare { fill: #F00; }
            .spawning-map-point { stroke:black; stroke-width:1; }
        </style>
    </defs>

<g filter="url(#blur)" opacity="0.7">
<g class="spawningMap-very-rare">
<rect x="142" y="62" width="16" height="17" />
<rect x="142" y="73" width="16" height="17" />
<rect x="153" y="73" width="17" height="17" />
<rect x="142" y="85" width="16" height="16" />
<rect x="130" y="96" width="17" height="17" />
<rect x="142" y="96" width="16" height="17" />
<rect x="130" y="108" width="17" height="16" />
<rect x="153" y="108" width="17" height="16" />
</g>
<g class="spawningMap-rare">
<rect x="210" y="73" width="17" height="17" />
<rect x="199" y="85" width="16" height="16" />
<rect x="210" y="85" width="17" height="16" />
<rect x="221" y="85" width="17" height="16" />
<rect x="199" y="96" width="16" height="17" />
<rect x="210" y="96" width="17" height="17" />
<rect x="221" y="96" width="17" height="17" />
<rect x="199" y="108" width="16" height="16" />
<rect x="210" y="108" width="17" height="16" />
<rect x="221" y="108" width="17" height="16" />
<rect x="233" y="85" width="16" height="16" />
<rect x="233" y="96" width="16" height="17" />
<rect x="233" y="108" width="16" height="16" />
<rect x="187" y="119" width="17" height="16" />
<rect x="221" y="119" width="17" height="16" />
<rect x="176" y="130" width="16" height="17" />
<rect x="187" y="130" width="17" height="17" />
<rect x="199" y="130" width="16" height="17" />
<rect x="176" y="142" width="16" height="16" />
<rect x="187" y="142" width="17" height="16" />
<rect x="199" y="142" width="16" height="16" />
<rect x="233" y="119" width="16" height="16" />
<rect x="244" y="142" width="17" height="16" />
<rect x="256" y="142" width="16" height="16" />
<rect x="267" y="142" width="17" height="16" />
<rect x="233" y="153" width="16" height="17" />
<rect x="244" y="153" width="17" height="17" />
<rect x="256" y="153" width="16" height="17" />
<rect x="267" y="153" width="17" height="17" />
<rect x="256" y="165" width="16" height="16" />
<rect x="199" y="199" width="16" height="16" />
<rect x="244" y="176" width="17" height="16" />
<rect x="256" y="176" width="16" height="16" />
</g>
<g class="spawningMap-very-uncommon">
<rect x="187" y="16" width="17" height="17" />
<rect x="176" y="16" width="16" height="17" />
<rect x="221" y="5" width="17" height="17" />
<rect x="210" y="5" width="17" height="17" />
<rect x="199" y="5" width="16" height="17" />
<rect x="187" y="5" width="17" height="17" />
<rect x="176" y="5" width="16" height="17" />
<rect x="233" y="5" width="16" height="17" />
<rect x="244" y="5" width="17" height="17" />
<rect x="256" y="5" width="16" height="17" />
<rect x="267" y="5" width="17" height="17" />
<rect x="278" y="5" width="17" height="17" />
<rect x="233" y="16" width="16" height="17" />
<rect x="244" y="16" width="17" height="17" />
<rect x="256" y="16" width="16" height="17" />
<rect x="267" y="16" width="17" height="17" />
<rect x="278" y="16" width="17" height="17" />
<rect x="233" y="28" width="16" height="16" />
<rect x="244" y="28" width="17" height="16" />
<rect x="256" y="28" width="16" height="16" />
<rect x="267" y="28" width="17" height="16" />
<rect x="278" y="28" width="17" height="16" />
<rect x="233" y="39" width="16" height="17" />
<rect x="244" y="39" width="17" height="17" />
<rect x="256" y="39" width="16" height="17" />
<rect x="267" y="39" width="17" height="17" />
<rect x="278" y="39" width="17" height="17" />
<rect x="233" y="51" width="16" height="16" />
<rect x="244" y="51" width="17" height="16" />
<rect x="256" y="51" width="16" height="16" />
<rect x="267" y="51" width="17" height="16" />
<rect x="278" y="51" width="17" height="16" />
<rect x="16" y="108" width="17" height="16" />
<rect x="5" y="108" width="17" height="16" />
<rect x="16" y="96" width="17" height="17" />
<rect x="5" y="96" width="17" height="17" />
<rect x="16" y="85" width="17" height="16" />
<rect x="5" y="85" width="17" height="16" />
<rect x="16" y="73" width="17" height="17" />
<rect x="5" y="73" width="17" height="17" />
<rect x="16" y="62" width="17" height="17" />
<rect x="5" y="62" width="17" height="17" />
<rect x="187" y="62" width="17" height="17" />
<rect x="199" y="62" width="16" height="17" />
<rect x="210" y="62" width="17" height="17" />
<rect x="221" y="62" width="17" height="17" />
<rect x="187" y="73" width="17" height="17" />
<rect x="199" y="73" width="16" height="17" />
<rect x="221" y="73" width="17" height="17" />
<rect x="233" y="62" width="16" height="17" />
<rect x="244" y="62" width="17" height="17" />
<rect x="256" y="62" width="16" height="17" />
<rect x="267" y="62" width="17" height="17" />
<rect x="278" y="62" width="17" height="17" />
<rect x="233" y="73" width="16" height="17" />
<rect x="244" y="73" width="17" height="17" />
<rect x="256" y="73" width="16" height="17" />
<rect x="267" y="73" width="17" height="17" />
<rect x="278" y="73" width="17" height="17" />
<rect x="244" y="85" width="17" height="16" />
<rect x="256" y="85" width="16" height="16" />
<rect x="267" y="85" width="17" height="16" />
<rect x="278" y="85" width="17" height="16" />
<rect x="244" y="96" width="17" height="17" />
<rect x="256" y="96" width="16" height="17" />
<rect x="267" y="96" width="17" height="17" />
<rect x="278" y="96" width="17" height="17" />
<rect x="244" y="108" width="17" height="16" />
<rect x="256" y="108" width="16" height="16" />
<rect x="267" y="108" width="17" height="16" />
<rect x="278" y="108" width="17" height="16" />
<rect x="5" y="119" width="17" height="16" />
<rect x="16" y="119" width="17" height="16" />
<rect x="28" y="119" width="16" height="16" />
<rect x="5" y="130" width="17" height="17" />
<rect x="16" y="130" width="17" height="17" />
<rect x="28" y="130" width="16" height="17" />
<rect x="5" y="142" width="17" height="16" />
<rect x="16" y="142" width="17" height="16" />
<rect x="28" y="142" width="16" height="16" />
<rect x="5" y="153" width="17" height="17" />
<rect x="16" y="153" width="17" height="17" />
<rect x="5" y="165" width="17" height="16" />
<rect x="16" y="165" width="17" height="16" />
<rect x="28" y="165" width="16" height="16" />
<rect x="119" y="119" width="16" height="16" />
<rect x="130" y="119" width="17" height="16" />
<rect x="153" y="119" width="17" height="16" />
<rect x="130" y="130" width="17" height="17" />
<rect x="142" y="130" width="16" height="17" />
<rect x="153" y="130" width="17" height="17" />
<rect x="142" y="142" width="16" height="16" />
<rect x="153" y="142" width="17" height="16" />
<rect x="142" y="153" width="16" height="17" />
<rect x="165" y="153" width="16" height="17" />
<rect x="153" y="165" width="17" height="16" />
<rect x="187" y="153" width="17" height="17" />
<rect x="244" y="119" width="17" height="16" />
<rect x="256" y="119" width="16" height="16" />
<rect x="267" y="119" width="17" height="16" />
<rect x="278" y="119" width="17" height="16" />
<rect x="233" y="130" width="16" height="17" />
<rect x="244" y="130" width="17" height="17" />
<rect x="256" y="130" width="16" height="17" />
<rect x="267" y="130" width="17" height="17" />
<rect x="278" y="130" width="17" height="17" />
<rect x="278" y="142" width="17" height="16" />
<rect x="278" y="153" width="17" height="17" />
<rect x="233" y="165" width="16" height="16" />
<rect x="244" y="165" width="17" height="16" />
<rect x="267" y="165" width="17" height="16" />
<rect x="278" y="165" width="17" height="16" />
<rect x="5" y="176" width="17" height="16" />
<rect x="16" y="176" width="17" height="16" />
<rect x="28" y="176" width="16" height="16" />
<rect x="5" y="187" width="17" height="17" />
<rect x="16" y="187" width="17" height="17" />
<rect x="28" y="187" width="16" height="17" />
<rect x="5" y="199" width="17" height="16" />
<rect x="16" y="199" width="17" height="16" />
<rect x="28" y="199" width="16" height="16" />
<rect x="5" y="210" width="17" height="17" />
<rect x="16" y="210" width="17" height="17" />
<rect x="28" y="210" width="16" height="17" />
<rect x="5" y="221" width="17" height="17" />
<rect x="16" y="221" width="17" height="17" />
<rect x="28" y="221" width="16" height="17" />
<rect x="39" y="221" width="17" height="17" />
<rect x="51" y="221" width="16" height="17" />
<rect x="176" y="176" width="16" height="16" />
<rect x="187" y="176" width="17" height="16" />
<rect x="187" y="187" width="17" height="17" />
<rect x="187" y="199" width="17" height="16" />
<rect x="210" y="199" width="17" height="16" />
<rect x="176" y="210" width="16" height="17" />
<rect x="199" y="210" width="16" height="17" />
<rect x="210" y="210" width="17" height="17" />
<rect x="233" y="176" width="16" height="16" />
<rect x="267" y="176" width="17" height="16" />
<rect x="278" y="176" width="17" height="16" />
<rect x="267" y="187" width="17" height="17" />
<rect x="278" y="187" width="17" height="17" />
<rect x="267" y="199" width="17" height="16" />
<rect x="278" y="199" width="17" height="16" />
<rect x="233" y="210" width="16" height="17" />
<rect x="256" y="210" width="16" height="17" />
<rect x="267" y="210" width="17" height="17" />
<rect x="278" y="210" width="17" height="17" />
<rect x="233" y="221" width="16" height="17" />
<rect x="244" y="221" width="17" height="17" />
<rect x="256" y="221" width="16" height="17" />
<rect x="267" y="221" width="17" height="17" />
<rect x="278" y="221" width="17" height="17" />
<rect x="51" y="233" width="16" height="16" />
<rect x="16" y="256" width="17" height="16" />
<rect x="28" y="256" width="16" height="16" />
<rect x="39" y="256" width="17" height="16" />
<rect x="51" y="256" width="16" height="16" />
<rect x="5" y="267" width="17" height="17" />
<rect x="16" y="267" width="17" height="17" />
<rect x="28" y="267" width="16" height="17" />
<rect x="39" y="267" width="17" height="17" />
<rect x="51" y="267" width="16" height="17" />
<rect x="5" y="278" width="17" height="17" />
<rect x="16" y="278" width="17" height="17" />
<rect x="28" y="278" width="16" height="17" />
<rect x="39" y="278" width="17" height="17" />
<rect x="51" y="278" width="16" height="17" />
<rect x="62" y="233" width="17" height="16" />
<rect x="62" y="244" width="17" height="17" />
<rect x="73" y="244" width="17" height="17" />
<rect x="85" y="244" width="16" height="17" />
<rect x="62" y="256" width="17" height="16" />
<rect x="73" y="256" width="17" height="16" />
<rect x="85" y="256" width="16" height="16" />
<rect x="96" y="256" width="17" height="16" />
<rect x="108" y="256" width="16" height="16" />
<rect x="62" y="267" width="17" height="17" />
<rect x="73" y="267" width="17" height="17" />
<rect x="85" y="267" width="16" height="17" />
<rect x="96" y="267" width="17" height="17" />
<rect x="108" y="267" width="16" height="17" />
<rect x="62" y="278" width="17" height="17" />
<rect x="73" y="278" width="17" height="17" />
<rect x="85" y="278" width="16" height="17" />
<rect x="96" y="278" width="17" height="17" />
<rect x="108" y="278" width="16" height="17" />
<rect x="130" y="256" width="17" height="16" />
<rect x="142" y="256" width="16" height="16" />
<rect x="153" y="256" width="17" height="16" />
<rect x="165" y="256" width="16" height="16" />
<rect x="119" y="267" width="16" height="17" />
<rect x="130" y="267" width="17" height="17" />
<rect x="153" y="267" width="17" height="17" />
<rect x="165" y="267" width="16" height="17" />
<rect x="119" y="278" width="16" height="17" />
<rect x="130" y="278" width="17" height="17" />
<rect x="142" y="278" width="16" height="17" />
<rect x="153" y="278" width="17" height="17" />
<rect x="165" y="278" width="16" height="17" />
<rect x="221" y="244" width="17" height="17" />
<rect x="210" y="256" width="17" height="16" />
<rect x="221" y="256" width="17" height="16" />
<rect x="176" y="267" width="16" height="17" />
<rect x="187" y="267" width="17" height="17" />
<rect x="199" y="267" width="16" height="17" />
<rect x="210" y="267" width="17" height="17" />
<rect x="221" y="267" width="17" height="17" />
<rect x="176" y="278" width="16" height="17" />
<rect x="187" y="278" width="17" height="17" />
<rect x="199" y="278" width="16" height="17" />
<rect x="210" y="278" width="17" height="17" />
<rect x="221" y="278" width="17" height="17" />
<rect x="233" y="233" width="16" height="16" />
<rect x="244" y="233" width="17" height="16" />
<rect x="256" y="233" width="16" height="16" />
<rect x="267" y="233" width="17" height="16" />
<rect x="278" y="233" width="17" height="16" />
<rect x="233" y="244" width="16" height="17" />
<rect x="244" y="244" width="17" height="17" />
<rect x="256" y="244" width="16" height="17" />
<rect x="267" y="244" width="17" height="17" />
<rect x="278" y="244" width="17" height="17" />
<rect x="233" y="256" width="16" height="16" />
<rect x="244" y="256" width="17" height="16" />
<rect x="256" y="256" width="16" height="16" />
<rect x="267" y="256" width="17" height="16" />
<rect x="278" y="256" width="17" height="16" />
<rect x="233" y="267" width="16" height="17" />
<rect x="244" y="267" width="17" height="17" />
<rect x="256" y="267" width="16" height="17" />
<rect x="267" y="267" width="17" height="17" />
<rect x="278" y="267" width="17" height="17" />
<rect x="233" y="278" width="16" height="17" />
<rect x="244" y="278" width="17" height="17" />
<rect x="256" y="278" width="16" height="17" />
<rect x="267" y="278" width="17" height="17" />
<rect x="278" y="278" width="17" height="17" />
<rect x="16" y="5" width="17" height="17" />
<rect x="28" y="16" width="16" height="17" />
<rect x="39" y="16" width="17" height="17" />
<rect x="5" y="28" width="17" height="16" />
<rect x="16" y="28" width="17" height="16" />
<rect x="28" y="28" width="16" height="16" />
<rect x="5" y="39" width="17" height="17" />
<rect x="16" y="39" width="17" height="17" />
<rect x="28" y="39" width="16" height="17" />
<rect x="108" y="16" width="16" height="17" />
<rect x="108" y="5" width="16" height="17" />
<rect x="96" y="5" width="17" height="17" />
<rect x="142" y="28" width="16" height="16" />
<rect x="85" y="5" width="16" height="17" />
<rect x="73" y="5" width="17" height="17" />
<rect x="62" y="5" width="17" height="17" />
<rect x="165" y="16" width="16" height="17" />
<rect x="5" y="233" width="17" height="16" />
<rect x="153" y="16" width="17" height="17" />
<rect x="16" y="233" width="17" height="16" />
<rect x="28" y="233" width="16" height="16" />
<rect x="39" y="233" width="17" height="16" />
<rect x="5" y="244" width="17" height="17" />
<rect x="16" y="244" width="17" height="17" />
<rect x="28" y="244" width="16" height="17" />
<rect x="39" y="244" width="17" height="17" />
<rect x="51" y="244" width="16" height="17" />
<rect x="5" y="256" width="17" height="16" />
<rect x="142" y="16" width="16" height="17" />
<rect x="130" y="16" width="17" height="17" />
<rect x="119" y="16" width="16" height="17" />
<rect x="165" y="5" width="16" height="17" />
<rect x="153" y="5" width="17" height="17" />
<rect x="142" y="5" width="16" height="17" />
<rect x="130" y="5" width="17" height="17" />
<rect x="119" y="5" width="16" height="17" />
<rect x="221" y="51" width="17" height="16" />
<rect x="210" y="51" width="17" height="16" />
<rect x="199" y="51" width="16" height="16" />
<rect x="187" y="51" width="17" height="16" />
<rect x="221" y="39" width="17" height="17" />
<rect x="210" y="39" width="17" height="17" />
<rect x="199" y="39" width="16" height="17" />
<rect x="187" y="39" width="17" height="17" />
<rect x="221" y="28" width="17" height="16" />
<rect x="210" y="28" width="17" height="16" />
<rect x="199" y="28" width="16" height="16" />
<rect x="187" y="28" width="17" height="16" />
<rect x="176" y="28" width="16" height="16" />
<rect x="221" y="16" width="17" height="17" />
<rect x="210" y="16" width="17" height="17" />
<rect x="199" y="16" width="16" height="17" />
<rect x="210" y="244" width="17" height="17" />
<rect x="5" y="5" width="17" height="17" />
<rect x="5" y="51" width="17" height="16" />
<rect x="16" y="51" width="17" height="16" />
<rect x="28" y="51" width="16" height="16" />
<rect x="28" y="5" width="16" height="17" />
<rect x="39" y="5" width="17" height="17" />
<rect x="51" y="5" width="16" height="17" />
<rect x="16" y="16" width="17" height="17" />
<rect x="142" y="39" width="16" height="17" />
<rect x="142" y="51" width="16" height="16" />
</g>
<g class="spawningMap-uncommon">
<rect x="96" y="62" width="17" height="17" />
<rect x="108" y="62" width="16" height="17" />
<rect x="108" y="73" width="16" height="17" />
<rect x="96" y="85" width="17" height="16" />
<rect x="108" y="85" width="16" height="16" />
<rect x="96" y="96" width="17" height="17" />
<rect x="108" y="96" width="16" height="17" />
<rect x="96" y="108" width="17" height="16" />
<rect x="108" y="108" width="16" height="16" />
<rect x="119" y="62" width="16" height="17" />
<rect x="130" y="62" width="17" height="17" />
<rect x="153" y="62" width="17" height="17" />
<rect x="130" y="73" width="17" height="17" />
<rect x="130" y="85" width="17" height="16" />
<rect x="153" y="85" width="17" height="16" />
<rect x="119" y="96" width="16" height="17" />
<rect x="153" y="96" width="17" height="17" />
<rect x="119" y="108" width="16" height="16" />
<rect x="142" y="108" width="16" height="16" />
<rect x="165" y="108" width="16" height="16" />
<rect x="176" y="73" width="16" height="17" />
<rect x="176" y="85" width="16" height="16" />
<rect x="187" y="85" width="17" height="16" />
<rect x="176" y="96" width="16" height="17" />
<rect x="187" y="96" width="17" height="17" />
<rect x="176" y="108" width="16" height="16" />
<rect x="187" y="108" width="17" height="16" />
<rect x="51" y="130" width="16" height="17" />
<rect x="39" y="142" width="17" height="16" />
<rect x="51" y="142" width="16" height="16" />
<rect x="28" y="153" width="16" height="17" />
<rect x="39" y="153" width="17" height="17" />
<rect x="51" y="153" width="16" height="17" />
<rect x="62" y="119" width="17" height="16" />
<rect x="96" y="119" width="17" height="16" />
<rect x="108" y="119" width="16" height="16" />
<rect x="62" y="130" width="17" height="17" />
<rect x="73" y="130" width="17" height="17" />
<rect x="85" y="130" width="16" height="17" />
<rect x="96" y="130" width="17" height="17" />
<rect x="108" y="130" width="16" height="17" />
<rect x="62" y="142" width="17" height="16" />
<rect x="73" y="142" width="17" height="16" />
<rect x="85" y="142" width="16" height="16" />
<rect x="96" y="142" width="17" height="16" />
<rect x="108" y="142" width="16" height="16" />
<rect x="62" y="153" width="17" height="17" />
<rect x="73" y="153" width="17" height="17" />
<rect x="85" y="153" width="16" height="17" />
<rect x="96" y="153" width="17" height="17" />
<rect x="108" y="153" width="16" height="17" />
<rect x="62" y="165" width="17" height="16" />
<rect x="73" y="165" width="17" height="16" />
<rect x="85" y="165" width="16" height="16" />
<rect x="96" y="165" width="17" height="16" />
<rect x="108" y="165" width="16" height="16" />
<rect x="142" y="119" width="16" height="16" />
<rect x="165" y="119" width="16" height="16" />
<rect x="119" y="130" width="16" height="17" />
<rect x="165" y="130" width="16" height="17" />
<rect x="119" y="142" width="16" height="16" />
<rect x="130" y="142" width="17" height="16" />
<rect x="165" y="142" width="16" height="16" />
<rect x="119" y="153" width="16" height="17" />
<rect x="130" y="153" width="17" height="17" />
<rect x="153" y="153" width="17" height="17" />
<rect x="142" y="165" width="16" height="16" />
<rect x="165" y="165" width="16" height="16" />
<rect x="176" y="119" width="16" height="16" />
<rect x="199" y="119" width="16" height="16" />
<rect x="210" y="119" width="17" height="16" />
<rect x="210" y="130" width="17" height="17" />
<rect x="221" y="130" width="17" height="17" />
<rect x="210" y="142" width="17" height="16" />
<rect x="176" y="153" width="16" height="17" />
<rect x="199" y="153" width="16" height="17" />
<rect x="210" y="153" width="17" height="17" />
<rect x="221" y="153" width="17" height="17" />
<rect x="176" y="165" width="16" height="16" />
<rect x="187" y="165" width="17" height="16" />
<rect x="199" y="165" width="16" height="16" />
<rect x="210" y="165" width="17" height="16" />
<rect x="221" y="165" width="17" height="16" />
<rect x="62" y="176" width="17" height="16" />
<rect x="108" y="176" width="16" height="16" />
<rect x="108" y="187" width="16" height="17" />
<rect x="108" y="199" width="16" height="16" />
<rect x="62" y="210" width="17" height="17" />
<rect x="73" y="210" width="17" height="17" />
<rect x="119" y="176" width="16" height="16" />
<rect x="130" y="176" width="17" height="16" />
<rect x="142" y="176" width="16" height="16" />
<rect x="153" y="176" width="17" height="16" />
<rect x="165" y="176" width="16" height="16" />
<rect x="119" y="187" width="16" height="17" />
<rect x="130" y="187" width="17" height="17" />
<rect x="142" y="187" width="16" height="17" />
<rect x="153" y="187" width="17" height="17" />
<rect x="165" y="187" width="16" height="17" />
<rect x="119" y="199" width="16" height="16" />
<rect x="130" y="199" width="17" height="16" />
<rect x="142" y="199" width="16" height="16" />
<rect x="153" y="199" width="17" height="16" />
<rect x="165" y="199" width="16" height="16" />
<rect x="153" y="210" width="17" height="17" />
<rect x="165" y="210" width="16" height="17" />
<rect x="153" y="221" width="17" height="17" />
<rect x="165" y="221" width="16" height="17" />
<rect x="199" y="176" width="16" height="16" />
<rect x="210" y="176" width="17" height="16" />
<rect x="221" y="176" width="17" height="16" />
<rect x="176" y="187" width="16" height="17" />
<rect x="199" y="187" width="16" height="17" />
<rect x="210" y="187" width="17" height="17" />
<rect x="221" y="187" width="17" height="17" />
<rect x="176" y="199" width="16" height="16" />
<rect x="221" y="199" width="17" height="16" />
<rect x="187" y="210" width="17" height="17" />
<rect x="221" y="210" width="17" height="17" />
<rect x="176" y="221" width="16" height="17" />
<rect x="187" y="221" width="17" height="17" />
<rect x="221" y="221" width="17" height="17" />
<rect x="233" y="187" width="16" height="17" />
<rect x="244" y="187" width="17" height="17" />
<rect x="256" y="187" width="16" height="17" />
<rect x="233" y="199" width="16" height="16" />
<rect x="244" y="199" width="17" height="16" />
<rect x="256" y="199" width="16" height="16" />
<rect x="244" y="210" width="17" height="17" />
<rect x="165" y="233" width="16" height="16" />
<rect x="153" y="244" width="17" height="17" />
<rect x="165" y="244" width="16" height="17" />
<rect x="176" y="233" width="16" height="16" />
<rect x="199" y="233" width="16" height="16" />
<rect x="221" y="233" width="17" height="16" />
<rect x="130" y="39" width="17" height="17" />
<rect x="119" y="39" width="16" height="17" />
<rect x="108" y="51" width="16" height="16" />
<rect x="165" y="28" width="16" height="16" />
<rect x="108" y="39" width="16" height="17" />
<rect x="85" y="39" width="16" height="17" />
<rect x="108" y="28" width="16" height="16" />
<rect x="96" y="28" width="17" height="16" />
<rect x="153" y="28" width="17" height="16" />
<rect x="85" y="28" width="16" height="16" />
<rect x="96" y="16" width="17" height="17" />
<rect x="85" y="16" width="16" height="17" />
<rect x="153" y="39" width="17" height="17" />
<rect x="119" y="51" width="16" height="16" />
<rect x="130" y="51" width="17" height="16" />
<rect x="153" y="51" width="17" height="16" />
<rect x="130" y="28" width="17" height="16" />
<rect x="119" y="28" width="16" height="16" />
</g>
</g>
</svg>