<?xml version="1.0" encoding="utf-8"?>
<svg xmlns="http://www.w3.org/2000/svg" width="300" height="300" viewBox="0 0 300 300" class="creatureMap" style="position:absolute;">
    <defs>
        <filter id="blur" x="-30%" y="-30%" width="160%" height="160%">
            <feGaussianBlur stdDeviation="3" />
        </filter>
        <pattern id="pattern-untameable" width="10" height="10" patternTransform="rotate(135)" patternUnits="userSpaceOnUse">'
            <rect width="4" height="10" fill="black"></rect>
        </pattern>
        <filter id="groupStroke">
            <feFlood result="outsideColor" flood-color="black"/>
            <feMorphology in="SourceAlpha" operator="dilate" radius="2"/>
            <feComposite result="strokeoutline1" in="outsideColor" operator="in"/>
            <feComposite result="strokeoutline2" in="strokeoutline1" in2="SourceAlpha" operator="out"/>
            <feGaussianBlur in="strokeoutline2" result="strokeblur" stdDeviation="1"/>
        </filter>
        <style>
            .spawningMap-very-common { fill: #0F0; }
            .spawningMap-common { fill: #B2FF00; }
            .spawningMap-uncommon { fill: #FF0; }
            .spawningMap-very-uncommon { fill: #FC0; }
            .spawningMap-rare { fill: #F60; }
            .spawningMap-very-rare { fill: #F00; }
            .spawning-map-point { stroke:black; stroke-width:1; }
        </style>
    </defs>

<g filter="url(#blur)" opacity="0.7">
<g class="spawningMap-very-common">
<rect x="210" y="73" width="17" height="17" />
<rect x="199" y="85" width="16" height="16" />
<rect x="210" y="85" width="17" height="16" />
<rect x="221" y="85" width="17" height="16" />
<rect x="199" y="96" width="16" height="17" />
<rect x="210" y="96" width="17" height="17" />
<rect x="221" y="96" width="17" height="17" />
<rect x="199" y="108" width="16" height="16" />
<rect x="210" y="108" width="17" height="16" />
<rect x="221" y="108" width="17" height="16" />
<rect x="233" y="85" width="16" height="16" />
<rect x="233" y="96" width="16" height="17" />
<rect x="233" y="108" width="16" height="16" />
<rect x="187" y="119" width="17" height="16" />
<rect x="221" y="119" width="17" height="16" />
<rect x="176" y="130" width="16" height="17" />
<rect x="187" y="130" width="17" height="17" />
<rect x="199" y="130" width="16" height="17" />
<rect x="176" y="142" width="16" height="16" />
<rect x="187" y="142" width="17" height="16" />
<rect x="199" y="142" width="16" height="16" />
<rect x="233" y="119" width="16" height="16" />
<rect x="244" y="142" width="17" height="16" />
<rect x="256" y="142" width="16" height="16" />
<rect x="267" y="142" width="17" height="16" />
<rect x="233" y="153" width="16" height="17" />
<rect x="244" y="153" width="17" height="17" />
<rect x="256" y="153" width="16" height="17" />
<rect x="267" y="153" width="17" height="17" />
<rect x="256" y="165" width="16" height="16" />
<rect x="199" y="199" width="16" height="16" />
<rect x="244" y="176" width="17" height="16" />
<rect x="256" y="176" width="16" height="16" />
</g>
</g>
</svg>