<?xml version="1.0" encoding="utf-8"?>
<svg xmlns="http://www.w3.org/2000/svg" width="300" height="300"
        viewBox="0 0 300 300" class="creatureMap" style="position:absolute;">
    <defs>
        <filter id="blur" x="-30%" y="-30%" width="160%" height="160%">
            <feGaussianBlur stdDeviation="3" />
        </filter>
        <pattern id="pattern-untameable" width="10" height="10" patternTransform="rotate(135)" patternUnits="userSpaceOnUse">
            <rect width="4" height="10" fill="black"></rect>
        </pattern>
        <filter id="groupStroke">
            <feFlood result="outsideColor" flood-color="black"/>
            <feMorphology in="SourceAlpha" operator="dilate" radius="2"/>
            <feComposite result="strokeoutline1" in="outsideColor" operator="in"/>
            <feComposite result="strokeoutline2" in="strokeoutline1" in2="SourceAlpha" operator="out"/>
            <feGaussianBlur in="strokeoutline2" result="strokeblur" stdDeviation="1"/>
        </filter>
        <style>
            .spawningMap-very-common { fill: #0F0; }
            .spawningMap-common { fill: #B2FF00; }
            .spawningMap-uncommon { fill: #FF0; }
            .spawningMap-very-uncommon { fill: #FC0; }
            .spawningMap-rare { fill: #F60; }
            .spawningMap-very-rare { fill: #F00; }
            .spawning-map-point { stroke:black; stroke-width:1; }
        </style>
    </defs>

<g filter="url(#blur)" opacity="0.7">
<g class="spawningMap-very-rare">
<rect x="244" y="226" width="51" height="67" />
<rect x="200" y="8" width="93" height="68" />
</g>
<g class="spawningMap-rare">
<rect x="164" y="270" width="77" height="24" />
<rect x="62" y="273" width="210" height="27" />
<rect x="5" y="107" width="25" height="93" />
<rect x="5" y="9" width="25" height="93" />
<rect x="43" y="270" width="117" height="24" />
<rect x="106" y="4" width="93" height="25" />
<rect x="0" y="0" width="27" height="300" />
<rect x="254" y="69" width="41" height="68" />
<rect x="277" y="183" width="19" height="67" />
</g>
<g class="spawningMap-very-uncommon">
<rect x="176" y="0" width="62" height="27" />
<rect x="273" y="5" width="27" height="119" />
<rect x="119" y="0" width="62" height="25" />
<rect x="273" y="176" width="27" height="119" />
</g>
<g class="spawningMap-uncommon">
<rect x="282" y="119" width="18" height="62" />
<rect x="233" y="0" width="51" height="27" />
</g>
<g class="spawningMap-common">
<rect x="28" y="0" width="28" height="25" />
</g>
</g>
<g fill="url(#pattern-untameable)" opacity="0.3">
<rect x="244" y="226" width="51" height="67"/>
<rect x="200" y="8" width="93" height="68"/>
<rect x="164" y="270" width="77" height="24"/>
<rect x="62" y="273" width="210" height="27"/>
<rect x="5" y="107" width="25" height="93"/>
<rect x="5" y="9" width="25" height="93"/>
<rect x="43" y="270" width="117" height="24"/>
<rect x="106" y="4" width="93" height="25"/>
<rect x="0" y="0" width="27" height="300"/>
<rect x="254" y="69" width="41" height="68"/>
<rect x="277" y="183" width="19" height="67"/>
<rect x="176" y="0" width="62" height="27"/>
<rect x="273" y="5" width="27" height="119"/>
<rect x="119" y="0" width="62" height="25"/>
<rect x="273" y="176" width="27" height="119"/>
<rect x="282" y="119" width="18" height="62"/>
<rect x="233" y="0" width="51" height="27"/>
<rect x="28" y="0" width="28" height="25"/>
</g>
</svg>