<?xml version="1.0" encoding="utf-8"?>
<svg xmlns="http://www.w3.org/2000/svg" width="300" height="300" viewBox="0 0 300 300" class="creatureMap" style="position:absolute;">
    <defs>
        <filter id="blur" x="-30%" y="-30%" width="160%" height="160%">
            <feGaussianBlur stdDeviation="3" />
        </filter>
        <pattern id="pattern-untameable" width="10" height="10" patternTransform="rotate(135)" patternUnits="userSpaceOnUse">'
            <rect width="4" height="10" fill="black"></rect>
        </pattern>
        <filter id="groupStroke">
            <feFlood result="outsideColor" flood-color="black"/>
            <feMorphology in="SourceAlpha" operator="dilate" radius="2"/>
            <feComposite result="strokeoutline1" in="outsideColor" operator="in"/>
            <feComposite result="strokeoutline2" in="strokeoutline1" in2="SourceAlpha" operator="out"/>
            <feGaussianBlur in="strokeoutline2" result="strokeblur" stdDeviation="1"/>
        </filter>
        <style>
            .spawningMap-very-common { fill: #0F0; }
            .spawningMap-common { fill: #B2FF00; }
            .spawningMap-uncommon { fill: #FF0; }
            .spawningMap-very-uncommon { fill: #FC0; }
            .spawningMap-rare { fill: #F60; }
            .spawningMap-very-rare { fill: #F00; }
            .spawning-map-point { stroke:black; stroke-width:1; }
        </style>
    </defs>

<g filter="url(#blur)" opacity="0.7">
<g class="spawningMap-very-rare">
<rect x="154" y="220" width="26" height="26" />
</g>
<g class="spawningMap-rare">
<rect x="155" y="114" width="13" height="13" />
<rect x="146" y="116" width="14" height="11" />
<rect x="146" y="122" width="14" height="14" />
<rect x="147" y="130" width="13" height="17" />
<rect x="139" y="116" width="12" height="14" />
<rect x="139" y="139" width="12" height="14" />
<rect x="141" y="165" width="13" height="13" />
<rect x="129" y="148" width="14" height="13" />
<rect x="132" y="187" width="14" height="13" />
<rect x="163" y="197" width="14" height="14" />
<rect x="182" y="79" width="15" height="14" />
<rect x="192" y="87" width="13" height="14" />
<rect x="184" y="87" width="13" height="14" />
<rect x="189" y="96" width="13" height="14" />
<rect x="182" y="96" width="12" height="14" />
<rect x="180" y="105" width="14" height="13" />
<rect x="180" y="113" width="16" height="14" />
<rect x="172" y="105" width="13" height="13" />
<rect x="172" y="113" width="13" height="14" />
<rect x="163" y="107" width="14" height="11" />
<rect x="163" y="113" width="14" height="14" />
<rect x="163" y="122" width="14" height="13" />
<rect x="192" y="79" width="13" height="14" />
<rect x="32" y="245" width="19" height="17" />
<rect x="19" y="260" width="21" height="23" />
<rect x="98" y="277" width="25" height="23" />
<rect x="198" y="243" width="24" height="24" />
<rect x="211" y="251" width="25" height="24" />
<rect x="255" y="239" width="21" height="20" />
<rect x="74" y="33" width="13" height="14" />
<rect x="180" y="122" width="15" height="12" />
<rect x="172" y="122" width="13" height="13" />
<rect x="163" y="130" width="14" height="14" />
<rect x="163" y="139" width="14" height="14" />
<rect x="68" y="120" width="15" height="22" />
<rect x="278" y="29" width="19" height="19" />
<rect x="268" y="18" width="24" height="25" />
<rect x="46" y="232" width="16" height="21" />
<rect x="114" y="210" width="15" height="20" />
<rect x="233" y="237" width="17" height="20" />
</g>
<g class="spawningMap-very-uncommon">
<rect x="77" y="202" width="16" height="11" />
<rect x="88" y="196" width="14" height="11" />
<rect x="79" y="196" width="14" height="11" />
<rect x="46" y="128" width="13" height="11" />
<rect x="34" y="69" width="15" height="19" />
<rect x="27" y="72" width="12" height="16" />
<rect x="243" y="39" width="17" height="11" />
<rect x="88" y="188" width="14" height="13" />
<rect x="79" y="188" width="14" height="13" />
<rect x="29" y="152" width="16" height="14" />
<rect x="20" y="151" width="12" height="14" />
<rect x="63" y="244" width="15" height="13" />
<rect x="204" y="212" width="13" height="10" />
<rect x="268" y="227" width="12" height="12" />
<rect x="156" y="25" width="12" height="11" />
<rect x="137" y="8" width="17" height="13" />
<rect x="70" y="23" width="13" height="13" />
<rect x="50" y="52" width="12" height="12" />
<rect x="88" y="202" width="13" height="15" />
<rect x="73" y="208" width="20" height="14" />
<rect x="46" y="114" width="13" height="19" />
</g>
<g class="spawningMap-uncommon">
<rect x="54" y="128" width="14" height="11" />
<rect x="236" y="36" width="12" height="12" />
<rect x="187" y="235" width="10" height="9" />
<rect x="118" y="1" width="11" height="11" />
<rect x="37" y="0" width="11" height="8" />
<rect x="23" y="0" width="10" height="8" />
<rect x="54" y="121" width="12" height="12" />
</g>
<g class="spawningMap-common">
<rect x="253" y="16" width="9" height="9" />
</g>
</g>
</svg>