<?xml version="1.0" encoding="utf-8"?>
<svg xmlns="http://www.w3.org/2000/svg" width="300" height="300" viewBox="0 0 300 300" class="creatureMap" style="position:absolute;">
    <defs>
        <filter id="blur" x="-30%" y="-30%" width="160%" height="160%">
            <feGaussianBlur stdDeviation="3" />
        </filter>
        <pattern id="pattern-untameable" width="10" height="10" patternTransform="rotate(135)" patternUnits="userSpaceOnUse">'
            <rect width="4" height="10" fill="black"></rect>
        </pattern>
        <filter id="groupStroke">
            <feFlood result="outsideColor" flood-color="black"/>
            <feMorphology in="SourceAlpha" operator="dilate" radius="2"/>
            <feComposite result="strokeoutline1" in="outsideColor" operator="in"/>
            <feComposite result="strokeoutline2" in="strokeoutline1" in2="SourceAlpha" operator="out"/>
            <feGaussianBlur in="strokeoutline2" result="strokeblur" stdDeviation="1"/>
        </filter>
        <style>
            .spawningMap-very-common { fill: #0F0; }
            .spawningMap-common { fill: #B2FF00; }
            .spawningMap-uncommon { fill: #FF0; }
            .spawningMap-very-uncommon { fill: #FC0; }
            .spawningMap-rare { fill: #F60; }
            .spawningMap-very-rare { fill: #F00; }
            .spawning-map-point { stroke:black; stroke-width:1; }
        </style>
    </defs>

<g filter="url(#blur)" opacity="0.7">
<g class="spawningMap-rare">
<rect x="58" y="269" width="16" height="14" />
</g>
<g class="spawningMap-very-uncommon">
<rect x="54" y="262" width="13" height="13" />
<rect x="62" y="262" width="13" height="13" />
<rect x="200" y="237" width="13" height="13" />
<rect x="200" y="245" width="13" height="13" />
<rect x="200" y="253" width="13" height="13" />
<rect x="177" y="261" width="13" height="13" />
<rect x="208" y="269" width="13" height="13" />
<rect x="200" y="269" width="13" height="13" />
<rect x="192" y="269" width="13" height="13" />
<rect x="185" y="269" width="13" height="13" />
<rect x="208" y="245" width="13" height="13" />
<rect x="38" y="269" width="13" height="14" />
<rect x="38" y="262" width="13" height="13" />
<rect x="46" y="269" width="13" height="14" />
<rect x="46" y="262" width="13" height="13" />
<rect x="69" y="269" width="13" height="14" />
<rect x="69" y="262" width="13" height="13" />
<rect x="208" y="253" width="13" height="13" />
<rect x="208" y="261" width="13" height="13" />
<rect x="200" y="261" width="13" height="13" />
<rect x="192" y="261" width="13" height="13" />
<rect x="185" y="261" width="13" height="13" />
</g>
<g class="spawningMap-uncommon">
<rect x="48" y="169" width="13" height="16" />
<rect x="23" y="206" width="13" height="15" />
<rect x="40" y="169" width="13" height="16" />
<rect x="40" y="57" width="13" height="14" />
<rect x="40" y="65" width="13" height="14" />
<rect x="32" y="169" width="13" height="16" />
<rect x="31" y="183" width="13" height="15" />
<rect x="23" y="183" width="13" height="15" />
<rect x="31" y="193" width="13" height="15" />
<rect x="23" y="193" width="13" height="15" />
<rect x="40" y="42" width="13" height="13" />
</g>
<g class="spawningMap-common">
<rect x="99" y="36" width="14" height="10" />
</g>
</g>
</svg>