<?xml version="1.0" encoding="utf-8"?>
<svg xmlns="http://www.w3.org/2000/svg" width="300" height="300" viewBox="0 0 300 300" class="creatureMap" style="position:absolute;">
    <defs>
        <filter id="blur" x="-30%" y="-30%" width="160%" height="160%">
            <feGaussianBlur stdDeviation="3" />
        </filter>
        <pattern id="pattern-untameable" width="10" height="10" patternTransform="rotate(135)" patternUnits="userSpaceOnUse">'
            <rect width="4" height="10" fill="black"></rect>
        </pattern>
        <filter id="groupStroke">
            <feFlood result="outsideColor" flood-color="black"/>
            <feMorphology in="SourceAlpha" operator="dilate" radius="2"/>
            <feComposite result="strokeoutline1" in="outsideColor" operator="in"/>
            <feComposite result="strokeoutline2" in="strokeoutline1" in2="SourceAlpha" operator="out"/>
            <feGaussianBlur in="strokeoutline2" result="strokeblur" stdDeviation="1"/>
        </filter>
        <style>
            .spawningMap-very-common { fill: #0F0; }
            .spawningMap-common { fill: #B2FF00; }
            .spawningMap-uncommon { fill: #FF0; }
            .spawningMap-very-uncommon { fill: #FC0; }
            .spawningMap-rare { fill: #F60; }
            .spawningMap-very-rare { fill: #F00; }
            .spawning-map-point { stroke:black; stroke-width:1; }
        </style>
    </defs>

<g filter="url(#blur)" opacity="0.7">
<g class="spawningMap-very-rare">
<rect x="92" y="123" width="19" height="21" />
<rect x="104" y="123" width="16" height="18" />
<rect x="96" y="147" width="15" height="17" />
<rect x="112" y="80" width="12" height="13" />
<rect x="116" y="86" width="14" height="15" />
<rect x="126" y="66" width="11" height="13" />
<rect x="137" y="61" width="7" height="8" />
<rect x="137" y="46" width="14" height="15" />
<rect x="123" y="73" width="13" height="14" />
</g>
<g class="spawningMap-rare">
<rect x="62" y="101" width="19" height="20" />
<rect x="104" y="123" width="16" height="18" />
<rect x="96" y="147" width="15" height="17" />
</g>
<g class="spawningMap-uncommon">
<rect x="182" y="49" width="16" height="15" />
</g>
</g>
</svg>