<?xml version="1.0" encoding="utf-8"?>
<svg xmlns="http://www.w3.org/2000/svg" width="300" height="300" viewBox="0 0 300 300" class="creatureMap" style="position:absolute;">
    <defs>
        <filter id="blur" x="-30%" y="-30%" width="160%" height="160%">
            <feGaussianBlur stdDeviation="3" />
        </filter>
        <pattern id="pattern-untameable" width="10" height="10" patternTransform="rotate(135)" patternUnits="userSpaceOnUse">'
            <rect width="4" height="10" fill="black"></rect>
        </pattern>
        <filter id="groupStroke">
            <feFlood result="outsideColor" flood-color="black"/>
            <feMorphology in="SourceAlpha" operator="dilate" radius="2"/>
            <feComposite result="strokeoutline1" in="outsideColor" operator="in"/>
            <feComposite result="strokeoutline2" in="strokeoutline1" in2="SourceAlpha" operator="out"/>
            <feGaussianBlur in="strokeoutline2" result="strokeblur" stdDeviation="1"/>
        </filter>
        <style>
            .spawningMap-very-common { fill: #0F0; }
            .spawningMap-common { fill: #B2FF00; }
            .spawningMap-uncommon { fill: #FF0; }
            .spawningMap-very-uncommon { fill: #FC0; }
            .spawningMap-rare { fill: #F60; }
            .spawningMap-very-rare { fill: #F00; }
            .spawning-map-point { stroke:black; stroke-width:1; }
        </style>
    </defs>

<g filter="url(#blur)" opacity="0.7">
<g class="spawningMap-rare">
<rect x="116" y="38" width="14" height="14" />
<rect x="116" y="47" width="14" height="13" />
<rect x="124" y="38" width="15" height="14" />
<rect x="124" y="47" width="15" height="13" />
</g>
<g class="spawningMap-very-uncommon">
<rect x="193" y="59" width="16" height="15" />
<rect x="204" y="59" width="16" height="15" />
<rect x="203" y="61" width="13" height="11" />
<rect x="208" y="59" width="13" height="11" />
<rect x="214" y="57" width="12" height="13" />
<rect x="213" y="49" width="13" height="13" />
<rect x="209" y="45" width="13" height="12" />
<rect x="206" y="40" width="11" height="13" />
<rect x="193" y="49" width="16" height="15" />
<rect x="204" y="49" width="16" height="15" />
<rect x="182" y="59" width="16" height="15" />
</g>
<g class="spawningMap-uncommon">
<rect x="164" y="179" width="13" height="13" />
<rect x="177" y="158" width="13" height="13" />
<rect x="177" y="150" width="13" height="13" />
<rect x="153" y="261" width="13" height="13" />
<rect x="204" y="38" width="16" height="16" />
<rect x="171" y="49" width="16" height="15" />
<rect x="171" y="38" width="16" height="16" />
<rect x="146" y="269" width="13" height="13" />
<rect x="153" y="269" width="13" height="13" />
<rect x="215" y="49" width="15" height="15" />
<rect x="182" y="38" width="16" height="16" />
<rect x="193" y="38" width="16" height="16" />
<rect x="215" y="59" width="15" height="15" />
<rect x="171" y="59" width="16" height="15" />
<rect x="171" y="69" width="16" height="16" />
<rect x="171" y="80" width="16" height="15" />
<rect x="160" y="80" width="16" height="15" />
<rect x="182" y="28" width="16" height="16" />
<rect x="171" y="28" width="16" height="16" />
<rect x="193" y="28" width="16" height="16" />
<rect x="164" y="163" width="13" height="13" />
<rect x="164" y="147" width="13" height="13" />
<rect x="169" y="245" width="13" height="13" />
<rect x="169" y="237" width="13" height="13" />
<rect x="169" y="229" width="13" height="13" />
<rect x="169" y="221" width="13" height="13" />
<rect x="177" y="221" width="13" height="13" />
<rect x="177" y="213" width="13" height="14" />
<rect x="185" y="213" width="13" height="14" />
<rect x="185" y="205" width="13" height="14" />
<rect x="185" y="198" width="13" height="13" />
<rect x="177" y="205" width="13" height="14" />
<rect x="177" y="198" width="13" height="13" />
<rect x="177" y="190" width="13" height="13" />
<rect x="177" y="182" width="13" height="13" />
<rect x="177" y="174" width="13" height="13" />
<rect x="177" y="166" width="13" height="13" />
<rect x="169" y="253" width="13" height="13" />
<rect x="146" y="253" width="13" height="13" />
<rect x="146" y="261" width="13" height="13" />
<rect x="104" y="270" width="15" height="12" />
<rect x="203" y="26" width="12" height="15" />
<rect x="120" y="260" width="12" height="15" />
</g>
<g class="spawningMap-common">
<rect x="146" y="276" width="13" height="10" />
<rect x="153" y="276" width="13" height="10" />
<rect x="164" y="69" width="12" height="16" />
<rect x="164" y="59" width="12" height="15" />
</g>
</g>
</svg>