<?xml version="1.0" encoding="utf-8"?>
<svg xmlns="http://www.w3.org/2000/svg" width="300" height="300" viewBox="0 0 300 300" class="creatureMap" style="position:absolute;">
    <defs>
        <filter id="blur" x="-30%" y="-30%" width="160%" height="160%">
            <feGaussianBlur stdDeviation="3" />
        </filter>
        <pattern id="pattern-untameable" width="10" height="10" patternTransform="rotate(135)" patternUnits="userSpaceOnUse">'
            <rect width="4" height="10" fill="black"></rect>
        </pattern>
        <filter id="groupStroke">
            <feFlood result="outsideColor" flood-color="black"/>
            <feMorphology in="SourceAlpha" operator="dilate" radius="2"/>
            <feComposite result="strokeoutline1" in="outsideColor" operator="in"/>
            <feComposite result="strokeoutline2" in="strokeoutline1" in2="SourceAlpha" operator="out"/>
            <feGaussianBlur in="strokeoutline2" result="strokeblur" stdDeviation="1"/>
        </filter>
        <style>
            .spawningMap-very-common { fill: #0F0; }
            .spawningMap-common { fill: #B2FF00; }
            .spawningMap-uncommon { fill: #FF0; }
            .spawningMap-very-uncommon { fill: #FC0; }
            .spawningMap-rare { fill: #F60; }
            .spawningMap-very-rare { fill: #F00; }
            .spawning-map-point { stroke:black; stroke-width:1; }
        </style>
    </defs>

<g filter="url(#blur)" opacity="0.7">
<g class="spawningMap-very-uncommon">
<rect x="199" y="14" width="17" height="17" />
<rect x="210" y="14" width="16" height="17" />
<rect x="221" y="14" width="16" height="17" />
<rect x="232" y="14" width="16" height="17" />
<rect x="243" y="14" width="16" height="17" />
<rect x="254" y="14" width="16" height="17" />
<rect x="265" y="14" width="16" height="17" />
<rect x="276" y="14" width="16" height="17" />
<rect x="210" y="25" width="16" height="17" />
<rect x="221" y="25" width="16" height="17" />
<rect x="232" y="25" width="16" height="17" />
<rect x="243" y="25" width="16" height="17" />
<rect x="254" y="25" width="16" height="17" />
<rect x="265" y="25" width="16" height="17" />
<rect x="276" y="25" width="16" height="17" />
<rect x="210" y="37" width="16" height="16" />
<rect x="221" y="37" width="16" height="16" />
<rect x="232" y="37" width="16" height="16" />
<rect x="243" y="37" width="16" height="16" />
<rect x="254" y="37" width="16" height="16" />
<rect x="265" y="37" width="16" height="16" />
<rect x="276" y="37" width="16" height="16" />
<rect x="210" y="47" width="16" height="17" />
<rect x="221" y="47" width="16" height="17" />
<rect x="232" y="47" width="16" height="17" />
<rect x="243" y="47" width="16" height="17" />
<rect x="254" y="47" width="16" height="17" />
<rect x="265" y="47" width="16" height="17" />
<rect x="276" y="47" width="16" height="17" />
<rect x="210" y="58" width="16" height="17" />
<rect x="232" y="58" width="16" height="17" />
<rect x="243" y="58" width="16" height="17" />
<rect x="254" y="58" width="16" height="17" />
<rect x="265" y="58" width="16" height="17" />
<rect x="276" y="58" width="16" height="17" />
<rect x="265" y="69" width="16" height="17" />
<rect x="265" y="80" width="16" height="17" />
<rect x="254" y="80" width="16" height="17" />
<rect x="254" y="69" width="16" height="17" />
<rect x="243" y="69" width="16" height="17" />
<rect x="44" y="14" width="16" height="17" />
<rect x="44" y="25" width="16" height="17" />
<rect x="44" y="36" width="16" height="17" />
<rect x="33" y="36" width="16" height="17" />
<rect x="22" y="36" width="16" height="17" />
<rect x="22" y="25" width="16" height="17" />
<rect x="33" y="25" width="16" height="17" />
<rect x="33" y="14" width="16" height="16" />
<rect x="22" y="14" width="16" height="16" />
<rect x="33" y="8" width="16" height="11" />
<rect x="48" y="172" width="16" height="16" />
<rect x="37" y="172" width="16" height="16" />
<rect x="37" y="183" width="16" height="16" />
<rect x="26" y="183" width="16" height="16" />
<rect x="48" y="183" width="16" height="16" />
<rect x="48" y="194" width="16" height="16" />
<rect x="37" y="194" width="16" height="16" />
<rect x="26" y="194" width="16" height="16" />
<rect x="34" y="205" width="16" height="16" />
<rect x="23" y="205" width="16" height="16" />
<rect x="12" y="205" width="16" height="16" />
<rect x="34" y="216" width="16" height="16" />
<rect x="23" y="216" width="16" height="16" />
<rect x="12" y="216" width="16" height="16" />
<rect x="34" y="227" width="16" height="16" />
<rect x="23" y="227" width="16" height="16" />
<rect x="12" y="227" width="16" height="16" />
<rect x="34" y="238" width="16" height="16" />
<rect x="23" y="238" width="16" height="16" />
<rect x="12" y="238" width="16" height="16" />
<rect x="34" y="249" width="16" height="16" />
<rect x="23" y="249" width="16" height="16" />
<rect x="12" y="249" width="16" height="16" />
<rect x="34" y="260" width="16" height="16" />
<rect x="23" y="260" width="16" height="16" />
<rect x="12" y="260" width="16" height="16" />
<rect x="1" y="260" width="16" height="16" />
<rect x="1" y="249" width="16" height="16" />
<rect x="45" y="249" width="16" height="16" />
<rect x="45" y="260" width="16" height="17" />
<rect x="34" y="271" width="16" height="16" />
<rect x="23" y="271" width="16" height="16" />
<rect x="45" y="271" width="16" height="16" />
<rect x="45" y="238" width="16" height="16" />
</g>
</g>
<g fill="url(#pattern-untameable)" opacity="0.3">
<rect x="199" y="14" width="17" height="17"/>
<rect x="210" y="14" width="16" height="17"/>
<rect x="221" y="14" width="16" height="17"/>
<rect x="232" y="14" width="16" height="17"/>
<rect x="243" y="14" width="16" height="17"/>
<rect x="254" y="14" width="16" height="17"/>
<rect x="265" y="14" width="16" height="17"/>
<rect x="276" y="14" width="16" height="17"/>
<rect x="210" y="25" width="16" height="17"/>
<rect x="221" y="25" width="16" height="17"/>
<rect x="232" y="25" width="16" height="17"/>
<rect x="243" y="25" width="16" height="17"/>
<rect x="254" y="25" width="16" height="17"/>
<rect x="265" y="25" width="16" height="17"/>
<rect x="276" y="25" width="16" height="17"/>
<rect x="210" y="37" width="16" height="16"/>
<rect x="221" y="37" width="16" height="16"/>
<rect x="232" y="37" width="16" height="16"/>
<rect x="243" y="37" width="16" height="16"/>
<rect x="254" y="37" width="16" height="16"/>
<rect x="265" y="37" width="16" height="16"/>
<rect x="276" y="37" width="16" height="16"/>
<rect x="210" y="47" width="16" height="17"/>
<rect x="221" y="47" width="16" height="17"/>
<rect x="232" y="47" width="16" height="17"/>
<rect x="243" y="47" width="16" height="17"/>
<rect x="254" y="47" width="16" height="17"/>
<rect x="265" y="47" width="16" height="17"/>
<rect x="276" y="47" width="16" height="17"/>
<rect x="210" y="58" width="16" height="17"/>
<rect x="232" y="58" width="16" height="17"/>
<rect x="243" y="58" width="16" height="17"/>
<rect x="254" y="58" width="16" height="17"/>
<rect x="265" y="58" width="16" height="17"/>
<rect x="276" y="58" width="16" height="17"/>
<rect x="265" y="69" width="16" height="17"/>
<rect x="265" y="80" width="16" height="17"/>
<rect x="254" y="80" width="16" height="17"/>
<rect x="254" y="69" width="16" height="17"/>
<rect x="243" y="69" width="16" height="17"/>
<rect x="44" y="14" width="16" height="17"/>
<rect x="44" y="25" width="16" height="17"/>
<rect x="44" y="36" width="16" height="17"/>
<rect x="33" y="36" width="16" height="17"/>
<rect x="22" y="36" width="16" height="17"/>
<rect x="22" y="25" width="16" height="17"/>
<rect x="33" y="25" width="16" height="17"/>
<rect x="33" y="14" width="16" height="16"/>
<rect x="22" y="14" width="16" height="16"/>
<rect x="33" y="8" width="16" height="11"/>
</g>
</svg>