<?xml version="1.0" encoding="utf-8"?>
<svg xmlns="http://www.w3.org/2000/svg" width="300" height="300" viewBox="0 0 300 300" class="creatureMap" style="position:absolute;">
    <defs>
        <filter id="blur" x="-30%" y="-30%" width="160%" height="160%">
            <feGaussianBlur stdDeviation="3" />
        </filter>
        <pattern id="pattern-untameable" width="10" height="10" patternTransform="rotate(135)" patternUnits="userSpaceOnUse">'
            <rect width="4" height="10" fill="black"></rect>
        </pattern>
        <filter id="groupStroke">
            <feFlood result="outsideColor" flood-color="black"/>
            <feMorphology in="SourceAlpha" operator="dilate" radius="2"/>
            <feComposite result="strokeoutline1" in="outsideColor" operator="in"/>
            <feComposite result="strokeoutline2" in="strokeoutline1" in2="SourceAlpha" operator="out"/>
            <feGaussianBlur in="strokeoutline2" result="strokeblur" stdDeviation="1"/>
        </filter>
        <style>
            .spawningMap-very-common { fill: #0F0; }
            .spawningMap-common { fill: #B2FF00; }
            .spawningMap-uncommon { fill: #FF0; }
            .spawningMap-very-uncommon { fill: #FC0; }
            .spawningMap-rare { fill: #F60; }
            .spawningMap-very-rare { fill: #F00; }
            .spawning-map-point { stroke:black; stroke-width:1; }
        </style>
    </defs>

<g filter="url(#blur)" opacity="0.7">
<g class="spawningMap-rare">
<rect x="169" y="106" width="22" height="22" />
<rect x="169" y="126" width="22" height="22" />
</g>
<g class="spawningMap-very-uncommon">
<rect x="214" y="7" width="16" height="16" />
<rect x="223" y="17" width="16" height="17" />
<rect x="208" y="17" width="17" height="17" />
<rect x="233" y="15" width="17" height="17" />
<rect x="247" y="12" width="17" height="17" />
</g>
<g class="spawningMap-uncommon">
<rect x="249" y="165" width="12" height="12" />
<rect x="249" y="156" width="12" height="13" />
<rect x="257" y="165" width="13" height="12" />
<rect x="257" y="156" width="13" height="13" />
<rect x="257" y="173" width="13" height="13" />
<rect x="266" y="165" width="13" height="12" />
<rect x="266" y="156" width="13" height="13" />
<rect x="266" y="173" width="13" height="13" />
<rect x="275" y="165" width="12" height="12" />
<rect x="275" y="156" width="12" height="13" />
<rect x="275" y="173" width="12" height="13" />
<rect x="249" y="148" width="12" height="12" />
<rect x="243" y="130" width="12" height="13" />
<rect x="240" y="148" width="13" height="12" />
<rect x="240" y="139" width="13" height="12" />
<rect x="249" y="93" width="12" height="12" />
<rect x="262" y="67" width="12" height="13" />
<rect x="262" y="59" width="12" height="12" />
<rect x="262" y="50" width="12" height="13" />
<rect x="262" y="42" width="12" height="12" />
<rect x="270" y="50" width="13" height="13" />
<rect x="270" y="42" width="13" height="12" />
<rect x="270" y="84" width="13" height="13" />
<rect x="270" y="76" width="13" height="12" />
<rect x="270" y="102" width="13" height="12" />
<rect x="270" y="93" width="13" height="12" />
<rect x="262" y="96" width="12" height="12" />
<rect x="262" y="87" width="12" height="13" />
<rect x="279" y="94" width="12" height="13" />
<rect x="279" y="86" width="12" height="12" />
<rect x="262" y="110" width="12" height="13" />
<rect x="262" y="119" width="12" height="12" />
<rect x="270" y="119" width="13" height="12" />
<rect x="273" y="127" width="12" height="13" />
<rect x="219" y="0" width="10" height="9" />
<rect x="220" y="3" width="9" height="10" />
<rect x="223" y="0" width="9" height="8" />
<rect x="224" y="2" width="9" height="10" />
<rect x="227" y="0" width="9" height="7" />
<rect x="228" y="2" width="9" height="9" />
<rect x="231" y="0" width="9" height="7" />
<rect x="231" y="1" width="10" height="9" />
<rect x="235" y="0" width="9" height="7" />
<rect x="235" y="1" width="10" height="9" />
<rect x="238" y="0" width="10" height="6" />
<rect x="239" y="0" width="10" height="10" />
<rect x="249" y="84" width="12" height="13" />
<rect x="257" y="182" width="13" height="12" />
<rect x="266" y="182" width="13" height="12" />
<rect x="275" y="182" width="12" height="12" />
<rect x="283" y="156" width="13" height="13" />
<rect x="292" y="156" width="8" height="13" />
<rect x="283" y="148" width="13" height="12" />
<rect x="292" y="148" width="8" height="12" />
<rect x="283" y="139" width="13" height="12" />
<rect x="292" y="139" width="8" height="12" />
<rect x="283" y="130" width="13" height="13" />
<rect x="292" y="130" width="8" height="13" />
<rect x="283" y="122" width="13" height="12" />
<rect x="292" y="122" width="8" height="12" />
<rect x="283" y="182" width="13" height="12" />
<rect x="292" y="182" width="8" height="12" />
<rect x="283" y="173" width="13" height="13" />
<rect x="292" y="173" width="8" height="13" />
<rect x="283" y="165" width="13" height="12" />
<rect x="292" y="165" width="8" height="12" />
<rect x="296" y="77" width="4" height="12" />
<rect x="296" y="68" width="4" height="13" />
<rect x="243" y="0" width="9" height="7" />
<rect x="242" y="1" width="9" height="9" />
<rect x="247" y="0" width="9" height="8" />
<rect x="245" y="2" width="10" height="10" />
<rect x="249" y="139" width="12" height="12" />
<rect x="232" y="139" width="12" height="12" />
<rect x="249" y="102" width="12" height="12" />
<rect x="270" y="67" width="13" height="13" />
<rect x="270" y="59" width="13" height="12" />
<rect x="270" y="110" width="13" height="13" />
<rect x="264" y="127" width="13" height="13" />
<rect x="273" y="136" width="12" height="12" />
<rect x="258" y="76" width="12" height="12" />
<rect x="288" y="113" width="12" height="13" />
<rect x="296" y="113" width="4" height="13" />
<rect x="279" y="113" width="12" height="13" />
<rect x="296" y="105" width="4" height="12" />
<rect x="279" y="105" width="12" height="12" />
<rect x="296" y="96" width="4" height="12" />
<rect x="288" y="87" width="12" height="13" />
<rect x="296" y="87" width="4" height="13" />
<rect x="279" y="77" width="12" height="12" />
<rect x="288" y="77" width="12" height="12" />
<rect x="279" y="68" width="12" height="13" />
<rect x="288" y="68" width="12" height="13" />
<rect x="279" y="60" width="12" height="12" />
<rect x="288" y="60" width="12" height="12" />
<rect x="296" y="60" width="4" height="12" />
</g>
<g class="spawningMap-common">
<rect x="285" y="136" width="15" height="16" />
<rect x="138" y="76" width="12" height="12" />
<rect x="138" y="85" width="12" height="12" />
<rect x="146" y="76" width="13" height="12" />
<rect x="146" y="85" width="13" height="12" />
<rect x="129" y="81" width="12" height="13" />
<rect x="155" y="76" width="12" height="12" />
<rect x="155" y="85" width="12" height="12" />
</g>
<g class="spawningMap-very-common">
<rect x="283" y="134" width="11" height="8" />
<rect x="278" y="137" width="10" height="11" />
<rect x="288" y="129" width="9" height="10" />
<rect x="105" y="227" width="9" height="10" />
<rect x="107" y="231" width="9" height="9" />
<rect x="95" y="219" width="12" height="11" />
<rect x="111" y="231" width="9" height="8" />
<rect x="96" y="225" width="12" height="16" />
<rect x="102" y="219" width="12" height="11" />
<rect x="110" y="234" width="9" height="7" />
<rect x="108" y="221" width="9" height="8" />
<rect x="218" y="9" width="8" height="8" />
<rect x="258" y="4" width="8" height="8" />
<rect x="257" y="2" width="8" height="8" />
<rect x="255" y="3" width="8" height="7" />
<rect x="253" y="3" width="7" height="7" />
<rect x="250" y="2" width="8" height="8" />
<rect x="218" y="3" width="8" height="8" />
<rect x="212" y="5" width="8" height="8" />
<rect x="216" y="8" width="7" height="8" />
<rect x="119" y="231" width="8" height="8" />
<rect x="114" y="227" width="8" height="8" />
<rect x="117" y="229" width="8" height="8" />
<rect x="258" y="7" width="8" height="7" />
<rect x="122" y="233" width="8" height="8" />
</g>
</g>
<g fill="url(#pattern-untameable)" opacity="0.3">
<rect x="285" y="136" width="15" height="16"/>
<rect x="283" y="134" width="11" height="8"/>
<rect x="278" y="137" width="10" height="11"/>
<rect x="288" y="129" width="9" height="10"/>
<rect x="105" y="227" width="9" height="10"/>
<rect x="107" y="231" width="9" height="9"/>
<rect x="95" y="219" width="12" height="11"/>
<rect x="111" y="231" width="9" height="8"/>
<rect x="96" y="225" width="12" height="16"/>
<rect x="102" y="219" width="12" height="11"/>
<rect x="110" y="234" width="9" height="7"/>
<rect x="108" y="221" width="9" height="8"/>
</g>
<g filter="url(#groupStroke)" opacity="0.8">
<rect x="285" y="136" width="15" height="16"/>
<rect x="283" y="134" width="11" height="8"/>
<rect x="278" y="137" width="10" height="11"/>
<rect x="288" y="129" width="9" height="10"/>
<rect x="105" y="227" width="9" height="10"/>
<rect x="107" y="231" width="9" height="9"/>
<rect x="95" y="219" width="12" height="11"/>
<rect x="111" y="231" width="9" height="8"/>
<rect x="96" y="225" width="12" height="16"/>
<rect x="102" y="219" width="12" height="11"/>
<rect x="110" y="234" width="9" height="7"/>
<rect x="108" y="221" width="9" height="8"/>
<rect x="119" y="231" width="8" height="8"/>
<rect x="114" y="227" width="8" height="8"/>
<rect x="117" y="229" width="8" height="8"/>
<rect x="122" y="233" width="8" height="8"/>
</g>
</svg>