<?xml version="1.0" encoding="utf-8"?>
<svg xmlns="http://www.w3.org/2000/svg" width="300" height="300" viewBox="0 0 300 300" class="creatureMap" style="position:absolute;">
    <defs>
        <filter id="blur" x="-30%" y="-30%" width="160%" height="160%">
            <feGaussianBlur stdDeviation="3" />
        </filter>
        <pattern id="pattern-untameable" width="10" height="10" patternTransform="rotate(135)" patternUnits="userSpaceOnUse">'
            <rect width="4" height="10" fill="black"></rect>
        </pattern>
        <filter id="groupStroke">
            <feFlood result="outsideColor" flood-color="black"/>
            <feMorphology in="SourceAlpha" operator="dilate" radius="2"/>
            <feComposite result="strokeoutline1" in="outsideColor" operator="in"/>
            <feComposite result="strokeoutline2" in="strokeoutline1" in2="SourceAlpha" operator="out"/>
            <feGaussianBlur in="strokeoutline2" result="strokeblur" stdDeviation="1"/>
        </filter>
        <style>
            .spawningMap-very-common { fill: #0F0; }
            .spawningMap-common { fill: #B2FF00; }
            .spawningMap-uncommon { fill: #FF0; }
            .spawningMap-very-uncommon { fill: #FC0; }
            .spawningMap-rare { fill: #F60; }
            .spawningMap-very-rare { fill: #F00; }
            .spawning-map-point { stroke:black; stroke-width:1; }
        </style>
    </defs>

<g filter="url(#blur)" opacity="0.7">
<g class="spawningMap-uncommon">
<rect x="285" y="136" width="15" height="16" />
</g>
<g class="spawningMap-common">
<rect x="278" y="137" width="10" height="11" />
</g>
<g class="spawningMap-very-common">
<rect x="283" y="134" width="11" height="8" />
<rect x="288" y="129" width="9" height="10" />
<rect x="119" y="231" width="8" height="8" />
<rect x="114" y="227" width="8" height="8" />
<rect x="117" y="229" width="8" height="8" />
<rect x="122" y="233" width="8" height="8" />
</g>
</g>
<g fill="url(#pattern-untameable)" opacity="0.3">
<rect x="285" y="136" width="15" height="16"/>
<rect x="278" y="137" width="10" height="11"/>
<rect x="283" y="134" width="11" height="8"/>
<rect x="288" y="129" width="9" height="10"/>
<rect x="119" y="231" width="8" height="8"/>
<rect x="114" y="227" width="8" height="8"/>
<rect x="117" y="229" width="8" height="8"/>
<rect x="122" y="233" width="8" height="8"/>
</g>
<g filter="url(#groupStroke)" opacity="0.8">
<rect x="285" y="136" width="15" height="16"/>
<rect x="278" y="137" width="10" height="11"/>
<rect x="283" y="134" width="11" height="8"/>
<rect x="288" y="129" width="9" height="10"/>
<rect x="119" y="231" width="8" height="8"/>
<rect x="114" y="227" width="8" height="8"/>
<rect x="117" y="229" width="8" height="8"/>
<rect x="122" y="233" width="8" height="8"/>
</g>
</svg>