<?xml version="1.0" encoding="utf-8"?>
<svg xmlns="http://www.w3.org/2000/svg" width="300" height="300" viewBox="0 0 300 300" class="creatureMap" style="position:absolute;">
    <defs>
        <filter id="blur" x="-30%" y="-30%" width="160%" height="160%">
            <feGaussianBlur stdDeviation="3" />
        </filter>
        <pattern id="pattern-untameable" width="10" height="10" patternTransform="rotate(135)" patternUnits="userSpaceOnUse">'
            <rect width="4" height="10" fill="black"></rect>
        </pattern>
        <filter id="groupStroke">
            <feFlood result="outsideColor" flood-color="black"/>
            <feMorphology in="SourceAlpha" operator="dilate" radius="2"/>
            <feComposite result="strokeoutline1" in="outsideColor" operator="in"/>
            <feComposite result="strokeoutline2" in="strokeoutline1" in2="SourceAlpha" operator="out"/>
            <feGaussianBlur in="strokeoutline2" result="strokeblur" stdDeviation="1"/>
        </filter>
        <style>
            .spawningMap-very-common { fill: #0F0; }
            .spawningMap-common { fill: #B2FF00; }
            .spawningMap-uncommon { fill: #FF0; }
            .spawningMap-very-uncommon { fill: #FC0; }
            .spawningMap-rare { fill: #F60; }
            .spawningMap-very-rare { fill: #F00; }
            .spawning-map-point { stroke:black; stroke-width:1; }
        </style>
    </defs>

<g filter="url(#blur)" opacity="0.7">
<g class="spawningMap-very-rare">
<rect x="193" y="166" width="13" height="12" />
<rect x="193" y="157" width="13" height="13" />
<rect x="202" y="166" width="12" height="12" />
<rect x="202" y="157" width="12" height="13" />
<rect x="210" y="157" width="13" height="13" />
<rect x="213" y="149" width="13" height="12" />
<rect x="219" y="161" width="12" height="13" />
<rect x="222" y="144" width="12" height="13" />
<rect x="222" y="136" width="12" height="12" />
<rect x="222" y="127" width="12" height="13" />
<rect x="230" y="127" width="13" height="13" />
<rect x="226" y="119" width="13" height="12" />
<rect x="235" y="119" width="12" height="12" />
<rect x="223" y="110" width="13" height="13" />
<rect x="232" y="110" width="12" height="13" />
<rect x="223" y="102" width="13" height="12" />
<rect x="168" y="89" width="13" height="12" />
<rect x="232" y="102" width="12" height="12" />
<rect x="168" y="97" width="13" height="13" />
<rect x="103" y="65" width="12" height="12" />
<rect x="223" y="93" width="13" height="12" />
<rect x="160" y="97" width="12" height="13" />
<rect x="160" y="89" width="12" height="12" />
<rect x="159" y="155" width="12" height="13" />
<rect x="159" y="164" width="12" height="12" />
<rect x="167" y="157" width="13" height="12" />
<rect x="232" y="93" width="12" height="12" />
<rect x="176" y="168" width="13" height="12" />
<rect x="176" y="159" width="13" height="12" />
<rect x="223" y="84" width="13" height="13" />
<rect x="232" y="84" width="12" height="13" />
<rect x="232" y="76" width="12" height="12" />
<rect x="240" y="76" width="13" height="12" />
<rect x="227" y="67" width="13" height="13" />
<rect x="236" y="67" width="12" height="13" />
<rect x="206" y="81" width="12" height="12" />
<rect x="215" y="81" width="12" height="12" />
<rect x="203" y="72" width="12" height="13" />
<rect x="211" y="72" width="13" height="13" />
<rect x="224" y="39" width="12" height="13" />
<rect x="232" y="39" width="13" height="13" />
<rect x="241" y="42" width="12" height="13" />
<rect x="250" y="42" width="12" height="13" />
<rect x="202" y="125" width="12" height="13" />
<rect x="134" y="133" width="12" height="13" />
<rect x="125" y="133" width="13" height="13" />
<rect x="134" y="125" width="12" height="12" />
<rect x="125" y="125" width="13" height="12" />
<rect x="134" y="116" width="12" height="13" />
<rect x="134" y="108" width="12" height="12" />
<rect x="125" y="116" width="13" height="13" />
<rect x="125" y="108" width="13" height="12" />
<rect x="117" y="116" width="12" height="13" />
<rect x="117" y="99" width="12" height="13" />
<rect x="117" y="91" width="12" height="12" />
<rect x="108" y="99" width="13" height="13" />
<rect x="108" y="91" width="13" height="12" />
<rect x="100" y="99" width="12" height="13" />
<rect x="100" y="91" width="12" height="12" />
<rect x="120" y="82" width="13" height="12" />
<rect x="112" y="82" width="12" height="12" />
<rect x="94" y="65" width="13" height="12" />
<rect x="103" y="56" width="12" height="13" />
<rect x="167" y="166" width="13" height="12" />
<rect x="176" y="150" width="13" height="13" />
<rect x="176" y="142" width="13" height="12" />
<rect x="176" y="133" width="13" height="13" />
<rect x="185" y="142" width="12" height="12" />
<rect x="185" y="133" width="12" height="13" />
<rect x="48" y="229" width="14" height="13" />
<rect x="185" y="168" width="12" height="12" />
<rect x="185" y="159" width="12" height="12" />
<rect x="185" y="150" width="12" height="13" />
<rect x="210" y="166" width="13" height="12" />
<rect x="205" y="149" width="12" height="12" />
<rect x="240" y="93" width="13" height="12" />
<rect x="240" y="84" width="13" height="13" />
<rect x="215" y="93" width="12" height="12" />
<rect x="193" y="125" width="13" height="13" />
<rect x="177" y="174" width="12" height="13" />
<rect x="117" y="108" width="12" height="12" />
<rect x="117" y="125" width="12" height="12" />
<rect x="94" y="82" width="13" height="12" />
<rect x="94" y="73" width="13" height="13" />
<rect x="94" y="56" width="13" height="13" />
<rect x="160" y="80" width="12" height="13" />
<rect x="160" y="72" width="12" height="12" />
<rect x="168" y="80" width="13" height="13" />
<rect x="168" y="72" width="13" height="12" />
<rect x="104" y="159" width="20" height="19" />
<rect x="209" y="250" width="30" height="26" />
<rect x="0" y="277" width="4" height="23" />
</g>
<g class="spawningMap-rare">
<rect x="129" y="185" width="12" height="12" />
<rect x="154" y="199" width="13" height="13" />
<rect x="129" y="202" width="12" height="13" />
<rect x="146" y="208" width="12" height="12" />
<rect x="146" y="199" width="12" height="13" />
<rect x="146" y="191" width="12" height="12" />
<rect x="112" y="182" width="12" height="13" />
<rect x="156" y="114" width="13" height="13" />
<rect x="82" y="161" width="12" height="13" />
<rect x="137" y="191" width="13" height="12" />
<rect x="91" y="161" width="12" height="13" />
<rect x="156" y="106" width="13" height="12" />
<rect x="165" y="103" width="12" height="13" />
<rect x="173" y="103" width="13" height="13" />
<rect x="129" y="193" width="12" height="13" />
<rect x="137" y="208" width="13" height="12" />
<rect x="177" y="79" width="12" height="12" />
<rect x="93" y="170" width="12" height="12" />
<rect x="148" y="110" width="12" height="13" />
<rect x="240" y="191" width="13" height="13" />
<rect x="246" y="200" width="12" height="12" />
<rect x="232" y="188" width="12" height="12" />
<rect x="232" y="196" width="12" height="13" />
<rect x="223" y="196" width="13" height="13" />
<rect x="215" y="193" width="12" height="12" />
<rect x="206" y="193" width="13" height="12" />
<rect x="189" y="197" width="13" height="12" />
<rect x="263" y="151" width="12" height="13" />
<rect x="254" y="148" width="12" height="12" />
<rect x="254" y="139" width="12" height="13" />
<rect x="182" y="114" width="13" height="12" />
<rect x="182" y="105" width="13" height="13" />
<rect x="104" y="109" width="13" height="13" />
<rect x="96" y="109" width="12" height="13" />
<rect x="92" y="101" width="13" height="12" />
<rect x="75" y="192" width="13" height="12" />
<rect x="75" y="200" width="13" height="13" />
<rect x="253" y="50" width="13" height="13" />
<rect x="150" y="151" width="13" height="12" />
<rect x="245" y="50" width="12" height="13" />
<rect x="236" y="50" width="12" height="13" />
<rect x="227" y="59" width="13" height="12" />
<rect x="227" y="50" width="13" height="13" />
<rect x="219" y="59" width="12" height="12" />
<rect x="219" y="50" width="12" height="13" />
<rect x="210" y="59" width="13" height="12" />
<rect x="210" y="50" width="13" height="13" />
<rect x="202" y="59" width="12" height="12" />
<rect x="202" y="50" width="12" height="13" />
<rect x="193" y="59" width="13" height="12" />
<rect x="193" y="50" width="13" height="13" />
<rect x="185" y="59" width="12" height="12" />
<rect x="185" y="50" width="12" height="13" />
<rect x="167" y="59" width="13" height="12" />
<rect x="167" y="50" width="13" height="13" />
<rect x="159" y="50" width="12" height="13" />
<rect x="185" y="67" width="13" height="13" />
<rect x="177" y="67" width="12" height="13" />
<rect x="194" y="67" width="13" height="13" />
<rect x="206" y="42" width="13" height="12" />
<rect x="198" y="42" width="12" height="12" />
<rect x="215" y="42" width="13" height="12" />
<rect x="172" y="42" width="12" height="12" />
<rect x="163" y="42" width="13" height="12" />
<rect x="197" y="114" width="12" height="13" />
<rect x="197" y="106" width="12" height="12" />
<rect x="205" y="106" width="13" height="12" />
<rect x="197" y="97" width="12" height="13" />
<rect x="205" y="97" width="13" height="13" />
<rect x="79" y="70" width="13" height="12" />
<rect x="88" y="70" width="12" height="12" />
<rect x="79" y="78" width="13" height="13" />
<rect x="88" y="78" width="12" height="13" />
<rect x="79" y="87" width="13" height="12" />
<rect x="88" y="87" width="12" height="12" />
<rect x="249" y="165" width="12" height="12" />
<rect x="249" y="156" width="12" height="13" />
<rect x="257" y="165" width="13" height="12" />
<rect x="257" y="156" width="13" height="13" />
<rect x="257" y="173" width="13" height="13" />
<rect x="266" y="165" width="13" height="12" />
<rect x="266" y="156" width="13" height="13" />
<rect x="266" y="173" width="13" height="13" />
<rect x="275" y="165" width="12" height="12" />
<rect x="275" y="156" width="12" height="13" />
<rect x="275" y="173" width="12" height="13" />
<rect x="249" y="148" width="12" height="12" />
<rect x="243" y="130" width="12" height="13" />
<rect x="240" y="148" width="13" height="12" />
<rect x="240" y="139" width="13" height="12" />
<rect x="249" y="93" width="12" height="12" />
<rect x="262" y="67" width="12" height="13" />
<rect x="262" y="59" width="12" height="12" />
<rect x="262" y="50" width="12" height="13" />
<rect x="262" y="42" width="12" height="12" />
<rect x="270" y="50" width="13" height="13" />
<rect x="270" y="42" width="13" height="12" />
<rect x="270" y="84" width="13" height="13" />
<rect x="270" y="76" width="13" height="12" />
<rect x="270" y="102" width="13" height="12" />
<rect x="270" y="93" width="13" height="12" />
<rect x="262" y="96" width="12" height="12" />
<rect x="262" y="87" width="12" height="13" />
<rect x="279" y="94" width="12" height="13" />
<rect x="279" y="86" width="12" height="12" />
<rect x="262" y="110" width="12" height="13" />
<rect x="262" y="119" width="12" height="12" />
<rect x="270" y="119" width="13" height="12" />
<rect x="273" y="127" width="12" height="13" />
<rect x="159" y="148" width="12" height="13" />
<rect x="167" y="148" width="13" height="13" />
<rect x="150" y="159" width="13" height="13" />
<rect x="84" y="170" width="13" height="12" />
<rect x="159" y="171" width="12" height="12" />
<rect x="167" y="174" width="13" height="13" />
<rect x="177" y="87" width="12" height="13" />
<rect x="173" y="183" width="12" height="12" />
<rect x="181" y="183" width="13" height="12" />
<rect x="187" y="174" width="12" height="13" />
<rect x="104" y="118" width="13" height="12" />
<rect x="181" y="196" width="12" height="12" />
<rect x="172" y="196" width="12" height="12" />
<rect x="253" y="208" width="13" height="12" />
<rect x="195" y="174" width="13" height="13" />
<rect x="167" y="140" width="13" height="12" />
<rect x="167" y="131" width="13" height="12" />
<rect x="167" y="122" width="13" height="13" />
<rect x="176" y="125" width="12" height="13" />
<rect x="185" y="125" width="12" height="13" />
<rect x="189" y="117" width="13" height="12" />
<rect x="103" y="182" width="12" height="12" />
<rect x="120" y="185" width="13" height="12" />
<rect x="142" y="125" width="13" height="12" />
<rect x="142" y="133" width="13" height="13" />
<rect x="137" y="142" width="12" height="12" />
<rect x="128" y="142" width="13" height="12" />
<rect x="114" y="132" width="12" height="13" />
<rect x="105" y="132" width="13" height="13" />
<rect x="105" y="124" width="13" height="12" />
<rect x="61" y="127" width="12" height="13" />
<rect x="69" y="127" width="13" height="13" />
<rect x="68" y="136" width="13" height="12" />
<rect x="73" y="144" width="13" height="13" />
<rect x="79" y="153" width="12" height="12" />
<rect x="137" y="199" width="13" height="13" />
<rect x="154" y="208" width="13" height="12" />
<rect x="154" y="216" width="13" height="13" />
<rect x="154" y="233" width="13" height="13" />
<rect x="154" y="242" width="13" height="12" />
<rect x="163" y="233" width="12" height="13" />
<rect x="163" y="242" width="12" height="12" />
<rect x="203" y="248" width="13" height="14" />
<rect x="249" y="84" width="12" height="13" />
<rect x="257" y="182" width="13" height="12" />
<rect x="266" y="182" width="13" height="12" />
<rect x="275" y="182" width="12" height="12" />
<rect x="283" y="156" width="13" height="13" />
<rect x="292" y="156" width="8" height="13" />
<rect x="283" y="148" width="13" height="12" />
<rect x="292" y="148" width="8" height="12" />
<rect x="283" y="139" width="13" height="12" />
<rect x="292" y="139" width="8" height="12" />
<rect x="283" y="130" width="13" height="13" />
<rect x="292" y="130" width="8" height="13" />
<rect x="283" y="122" width="13" height="12" />
<rect x="292" y="122" width="8" height="12" />
<rect x="283" y="182" width="13" height="12" />
<rect x="292" y="182" width="8" height="12" />
<rect x="283" y="173" width="13" height="13" />
<rect x="292" y="173" width="8" height="13" />
<rect x="283" y="165" width="13" height="12" />
<rect x="292" y="165" width="8" height="12" />
<rect x="296" y="77" width="4" height="12" />
<rect x="296" y="68" width="4" height="13" />
<rect x="252" y="131" width="12" height="12" />
<rect x="247" y="122" width="12" height="13" />
<rect x="69" y="208" width="12" height="12" />
<rect x="167" y="204" width="12" height="13" />
<rect x="198" y="194" width="12" height="12" />
<rect x="204" y="174" width="12" height="13" />
<rect x="150" y="168" width="13" height="12" />
<rect x="142" y="153" width="12" height="12" />
<rect x="189" y="100" width="13" height="12" />
<rect x="142" y="162" width="12" height="12" />
<rect x="189" y="108" width="13" height="13" />
<rect x="154" y="191" width="13" height="12" />
<rect x="146" y="216" width="12" height="13" />
<rect x="163" y="216" width="12" height="13" />
<rect x="154" y="225" width="13" height="12" />
<rect x="249" y="139" width="12" height="12" />
<rect x="232" y="139" width="12" height="12" />
<rect x="249" y="102" width="12" height="12" />
<rect x="270" y="67" width="13" height="13" />
<rect x="270" y="59" width="13" height="12" />
<rect x="270" y="110" width="13" height="13" />
<rect x="264" y="127" width="13" height="13" />
<rect x="273" y="136" width="12" height="12" />
<rect x="258" y="76" width="12" height="12" />
<rect x="288" y="113" width="12" height="13" />
<rect x="296" y="113" width="4" height="13" />
<rect x="279" y="113" width="12" height="13" />
<rect x="296" y="105" width="4" height="12" />
<rect x="279" y="105" width="12" height="12" />
<rect x="296" y="96" width="4" height="12" />
<rect x="288" y="87" width="12" height="13" />
<rect x="296" y="87" width="4" height="13" />
<rect x="279" y="77" width="12" height="12" />
<rect x="288" y="77" width="12" height="12" />
<rect x="279" y="68" width="12" height="13" />
<rect x="288" y="68" width="12" height="13" />
<rect x="279" y="60" width="12" height="12" />
<rect x="288" y="60" width="12" height="12" />
<rect x="296" y="60" width="4" height="12" />
<rect x="176" y="59" width="12" height="12" />
<rect x="176" y="50" width="12" height="13" />
<rect x="159" y="59" width="12" height="12" />
<rect x="181" y="42" width="12" height="12" />
<rect x="189" y="42" width="13" height="12" />
<rect x="214" y="106" width="12" height="12" />
<rect x="79" y="95" width="13" height="13" />
<rect x="88" y="95" width="12" height="13" />
</g>
</g>
<g fill="url(#pattern-untameable)" opacity="0.3">
<rect x="193" y="166" width="13" height="12"/>
<rect x="193" y="157" width="13" height="13"/>
<rect x="202" y="166" width="12" height="12"/>
<rect x="202" y="157" width="12" height="13"/>
<rect x="210" y="157" width="13" height="13"/>
<rect x="213" y="149" width="13" height="12"/>
<rect x="219" y="161" width="12" height="13"/>
<rect x="222" y="144" width="12" height="13"/>
<rect x="222" y="136" width="12" height="12"/>
<rect x="222" y="127" width="12" height="13"/>
<rect x="230" y="127" width="13" height="13"/>
<rect x="226" y="119" width="13" height="12"/>
<rect x="235" y="119" width="12" height="12"/>
<rect x="223" y="110" width="13" height="13"/>
<rect x="232" y="110" width="12" height="13"/>
<rect x="223" y="102" width="13" height="12"/>
<rect x="168" y="89" width="13" height="12"/>
<rect x="232" y="102" width="12" height="12"/>
<rect x="168" y="97" width="13" height="13"/>
<rect x="103" y="65" width="12" height="12"/>
<rect x="223" y="93" width="13" height="12"/>
<rect x="160" y="97" width="12" height="13"/>
<rect x="160" y="89" width="12" height="12"/>
<rect x="159" y="155" width="12" height="13"/>
<rect x="159" y="164" width="12" height="12"/>
<rect x="167" y="157" width="13" height="12"/>
<rect x="232" y="93" width="12" height="12"/>
<rect x="176" y="168" width="13" height="12"/>
<rect x="176" y="159" width="13" height="12"/>
<rect x="223" y="84" width="13" height="13"/>
<rect x="232" y="84" width="12" height="13"/>
<rect x="232" y="76" width="12" height="12"/>
<rect x="240" y="76" width="13" height="12"/>
<rect x="227" y="67" width="13" height="13"/>
<rect x="236" y="67" width="12" height="13"/>
<rect x="206" y="81" width="12" height="12"/>
<rect x="215" y="81" width="12" height="12"/>
<rect x="203" y="72" width="12" height="13"/>
<rect x="211" y="72" width="13" height="13"/>
<rect x="224" y="39" width="12" height="13"/>
<rect x="232" y="39" width="13" height="13"/>
<rect x="241" y="42" width="12" height="13"/>
<rect x="250" y="42" width="12" height="13"/>
<rect x="202" y="125" width="12" height="13"/>
<rect x="134" y="133" width="12" height="13"/>
<rect x="125" y="133" width="13" height="13"/>
<rect x="134" y="125" width="12" height="12"/>
<rect x="125" y="125" width="13" height="12"/>
<rect x="134" y="116" width="12" height="13"/>
<rect x="134" y="108" width="12" height="12"/>
<rect x="125" y="116" width="13" height="13"/>
<rect x="125" y="108" width="13" height="12"/>
<rect x="117" y="116" width="12" height="13"/>
<rect x="117" y="99" width="12" height="13"/>
<rect x="117" y="91" width="12" height="12"/>
<rect x="108" y="99" width="13" height="13"/>
<rect x="108" y="91" width="13" height="12"/>
<rect x="100" y="99" width="12" height="13"/>
<rect x="100" y="91" width="12" height="12"/>
<rect x="120" y="82" width="13" height="12"/>
<rect x="112" y="82" width="12" height="12"/>
<rect x="94" y="65" width="13" height="12"/>
<rect x="103" y="56" width="12" height="13"/>
<rect x="167" y="166" width="13" height="12"/>
<rect x="176" y="150" width="13" height="13"/>
<rect x="176" y="142" width="13" height="12"/>
<rect x="176" y="133" width="13" height="13"/>
<rect x="185" y="142" width="12" height="12"/>
<rect x="185" y="133" width="12" height="13"/>
<rect x="48" y="229" width="14" height="13"/>
<rect x="185" y="168" width="12" height="12"/>
<rect x="185" y="159" width="12" height="12"/>
<rect x="185" y="150" width="12" height="13"/>
<rect x="210" y="166" width="13" height="12"/>
<rect x="205" y="149" width="12" height="12"/>
<rect x="240" y="93" width="13" height="12"/>
<rect x="240" y="84" width="13" height="13"/>
<rect x="215" y="93" width="12" height="12"/>
<rect x="193" y="125" width="13" height="13"/>
<rect x="177" y="174" width="12" height="13"/>
<rect x="117" y="108" width="12" height="12"/>
<rect x="117" y="125" width="12" height="12"/>
<rect x="94" y="82" width="13" height="12"/>
<rect x="94" y="73" width="13" height="13"/>
<rect x="94" y="56" width="13" height="13"/>
<rect x="160" y="80" width="12" height="13"/>
<rect x="160" y="72" width="12" height="12"/>
<rect x="168" y="80" width="13" height="13"/>
<rect x="168" y="72" width="13" height="12"/>
<rect x="104" y="159" width="20" height="19"/>
<rect x="209" y="250" width="30" height="26"/>
<rect x="0" y="277" width="4" height="23"/>
<rect x="129" y="185" width="12" height="12"/>
<rect x="154" y="199" width="13" height="13"/>
<rect x="129" y="202" width="12" height="13"/>
<rect x="146" y="208" width="12" height="12"/>
<rect x="146" y="199" width="12" height="13"/>
<rect x="146" y="191" width="12" height="12"/>
<rect x="112" y="182" width="12" height="13"/>
<rect x="156" y="114" width="13" height="13"/>
<rect x="82" y="161" width="12" height="13"/>
<rect x="137" y="191" width="13" height="12"/>
<rect x="91" y="161" width="12" height="13"/>
<rect x="156" y="106" width="13" height="12"/>
<rect x="165" y="103" width="12" height="13"/>
<rect x="173" y="103" width="13" height="13"/>
<rect x="129" y="193" width="12" height="13"/>
<rect x="137" y="208" width="13" height="12"/>
<rect x="177" y="79" width="12" height="12"/>
<rect x="93" y="170" width="12" height="12"/>
<rect x="148" y="110" width="12" height="13"/>
<rect x="240" y="191" width="13" height="13"/>
<rect x="246" y="200" width="12" height="12"/>
<rect x="232" y="188" width="12" height="12"/>
<rect x="232" y="196" width="12" height="13"/>
<rect x="223" y="196" width="13" height="13"/>
<rect x="215" y="193" width="12" height="12"/>
<rect x="206" y="193" width="13" height="12"/>
<rect x="189" y="197" width="13" height="12"/>
<rect x="263" y="151" width="12" height="13"/>
<rect x="254" y="148" width="12" height="12"/>
<rect x="254" y="139" width="12" height="13"/>
<rect x="182" y="114" width="13" height="12"/>
<rect x="182" y="105" width="13" height="13"/>
<rect x="104" y="109" width="13" height="13"/>
<rect x="96" y="109" width="12" height="13"/>
<rect x="92" y="101" width="13" height="12"/>
<rect x="75" y="192" width="13" height="12"/>
<rect x="75" y="200" width="13" height="13"/>
<rect x="253" y="50" width="13" height="13"/>
<rect x="150" y="151" width="13" height="12"/>
<rect x="245" y="50" width="12" height="13"/>
<rect x="236" y="50" width="12" height="13"/>
<rect x="227" y="59" width="13" height="12"/>
<rect x="227" y="50" width="13" height="13"/>
<rect x="219" y="59" width="12" height="12"/>
<rect x="219" y="50" width="12" height="13"/>
<rect x="210" y="59" width="13" height="12"/>
<rect x="210" y="50" width="13" height="13"/>
<rect x="202" y="59" width="12" height="12"/>
<rect x="202" y="50" width="12" height="13"/>
<rect x="193" y="59" width="13" height="12"/>
<rect x="193" y="50" width="13" height="13"/>
<rect x="185" y="59" width="12" height="12"/>
<rect x="185" y="50" width="12" height="13"/>
<rect x="167" y="59" width="13" height="12"/>
<rect x="167" y="50" width="13" height="13"/>
<rect x="159" y="50" width="12" height="13"/>
<rect x="185" y="67" width="13" height="13"/>
<rect x="177" y="67" width="12" height="13"/>
<rect x="194" y="67" width="13" height="13"/>
<rect x="206" y="42" width="13" height="12"/>
<rect x="198" y="42" width="12" height="12"/>
<rect x="215" y="42" width="13" height="12"/>
<rect x="172" y="42" width="12" height="12"/>
<rect x="163" y="42" width="13" height="12"/>
<rect x="197" y="114" width="12" height="13"/>
<rect x="197" y="106" width="12" height="12"/>
<rect x="205" y="106" width="13" height="12"/>
<rect x="197" y="97" width="12" height="13"/>
<rect x="205" y="97" width="13" height="13"/>
<rect x="79" y="70" width="13" height="12"/>
<rect x="88" y="70" width="12" height="12"/>
<rect x="79" y="78" width="13" height="13"/>
<rect x="88" y="78" width="12" height="13"/>
<rect x="79" y="87" width="13" height="12"/>
<rect x="88" y="87" width="12" height="12"/>
<rect x="249" y="165" width="12" height="12"/>
<rect x="249" y="156" width="12" height="13"/>
<rect x="257" y="165" width="13" height="12"/>
<rect x="257" y="156" width="13" height="13"/>
<rect x="257" y="173" width="13" height="13"/>
<rect x="266" y="165" width="13" height="12"/>
<rect x="266" y="156" width="13" height="13"/>
<rect x="266" y="173" width="13" height="13"/>
<rect x="275" y="165" width="12" height="12"/>
<rect x="275" y="156" width="12" height="13"/>
<rect x="275" y="173" width="12" height="13"/>
<rect x="249" y="148" width="12" height="12"/>
<rect x="243" y="130" width="12" height="13"/>
<rect x="240" y="148" width="13" height="12"/>
<rect x="240" y="139" width="13" height="12"/>
<rect x="249" y="93" width="12" height="12"/>
<rect x="262" y="67" width="12" height="13"/>
<rect x="262" y="59" width="12" height="12"/>
<rect x="262" y="50" width="12" height="13"/>
<rect x="262" y="42" width="12" height="12"/>
<rect x="270" y="50" width="13" height="13"/>
<rect x="270" y="42" width="13" height="12"/>
<rect x="270" y="84" width="13" height="13"/>
<rect x="270" y="76" width="13" height="12"/>
<rect x="270" y="102" width="13" height="12"/>
<rect x="270" y="93" width="13" height="12"/>
<rect x="262" y="96" width="12" height="12"/>
<rect x="262" y="87" width="12" height="13"/>
<rect x="279" y="94" width="12" height="13"/>
<rect x="279" y="86" width="12" height="12"/>
<rect x="262" y="110" width="12" height="13"/>
<rect x="262" y="119" width="12" height="12"/>
<rect x="270" y="119" width="13" height="12"/>
<rect x="273" y="127" width="12" height="13"/>
<rect x="159" y="148" width="12" height="13"/>
<rect x="167" y="148" width="13" height="13"/>
<rect x="150" y="159" width="13" height="13"/>
<rect x="84" y="170" width="13" height="12"/>
<rect x="159" y="171" width="12" height="12"/>
<rect x="167" y="174" width="13" height="13"/>
<rect x="177" y="87" width="12" height="13"/>
<rect x="173" y="183" width="12" height="12"/>
<rect x="181" y="183" width="13" height="12"/>
<rect x="187" y="174" width="12" height="13"/>
<rect x="104" y="118" width="13" height="12"/>
<rect x="181" y="196" width="12" height="12"/>
<rect x="172" y="196" width="12" height="12"/>
<rect x="253" y="208" width="13" height="12"/>
<rect x="195" y="174" width="13" height="13"/>
<rect x="167" y="140" width="13" height="12"/>
<rect x="167" y="131" width="13" height="12"/>
<rect x="167" y="122" width="13" height="13"/>
<rect x="176" y="125" width="12" height="13"/>
<rect x="185" y="125" width="12" height="13"/>
<rect x="189" y="117" width="13" height="12"/>
<rect x="103" y="182" width="12" height="12"/>
<rect x="120" y="185" width="13" height="12"/>
<rect x="142" y="125" width="13" height="12"/>
<rect x="142" y="133" width="13" height="13"/>
<rect x="137" y="142" width="12" height="12"/>
<rect x="128" y="142" width="13" height="12"/>
<rect x="114" y="132" width="12" height="13"/>
<rect x="105" y="132" width="13" height="13"/>
<rect x="105" y="124" width="13" height="12"/>
<rect x="61" y="127" width="12" height="13"/>
<rect x="69" y="127" width="13" height="13"/>
<rect x="68" y="136" width="13" height="12"/>
<rect x="73" y="144" width="13" height="13"/>
<rect x="79" y="153" width="12" height="12"/>
<rect x="137" y="199" width="13" height="13"/>
<rect x="154" y="208" width="13" height="12"/>
<rect x="154" y="216" width="13" height="13"/>
<rect x="154" y="233" width="13" height="13"/>
<rect x="154" y="242" width="13" height="12"/>
<rect x="163" y="233" width="12" height="13"/>
<rect x="163" y="242" width="12" height="12"/>
<rect x="203" y="248" width="13" height="14"/>
<rect x="249" y="84" width="12" height="13"/>
<rect x="257" y="182" width="13" height="12"/>
<rect x="266" y="182" width="13" height="12"/>
<rect x="275" y="182" width="12" height="12"/>
<rect x="283" y="156" width="13" height="13"/>
<rect x="292" y="156" width="8" height="13"/>
<rect x="283" y="148" width="13" height="12"/>
<rect x="292" y="148" width="8" height="12"/>
<rect x="283" y="139" width="13" height="12"/>
<rect x="292" y="139" width="8" height="12"/>
<rect x="283" y="130" width="13" height="13"/>
<rect x="292" y="130" width="8" height="13"/>
<rect x="283" y="122" width="13" height="12"/>
<rect x="292" y="122" width="8" height="12"/>
<rect x="283" y="182" width="13" height="12"/>
<rect x="292" y="182" width="8" height="12"/>
<rect x="283" y="173" width="13" height="13"/>
<rect x="292" y="173" width="8" height="13"/>
<rect x="283" y="165" width="13" height="12"/>
<rect x="292" y="165" width="8" height="12"/>
<rect x="296" y="77" width="4" height="12"/>
<rect x="296" y="68" width="4" height="13"/>
<rect x="252" y="131" width="12" height="12"/>
<rect x="247" y="122" width="12" height="13"/>
<rect x="69" y="208" width="12" height="12"/>
<rect x="167" y="204" width="12" height="13"/>
<rect x="198" y="194" width="12" height="12"/>
<rect x="204" y="174" width="12" height="13"/>
<rect x="150" y="168" width="13" height="12"/>
<rect x="142" y="153" width="12" height="12"/>
<rect x="189" y="100" width="13" height="12"/>
<rect x="142" y="162" width="12" height="12"/>
<rect x="189" y="108" width="13" height="13"/>
<rect x="154" y="191" width="13" height="12"/>
<rect x="146" y="216" width="12" height="13"/>
<rect x="163" y="216" width="12" height="13"/>
<rect x="154" y="225" width="13" height="12"/>
<rect x="249" y="139" width="12" height="12"/>
<rect x="232" y="139" width="12" height="12"/>
<rect x="249" y="102" width="12" height="12"/>
<rect x="270" y="67" width="13" height="13"/>
<rect x="270" y="59" width="13" height="12"/>
<rect x="270" y="110" width="13" height="13"/>
<rect x="264" y="127" width="13" height="13"/>
<rect x="273" y="136" width="12" height="12"/>
<rect x="258" y="76" width="12" height="12"/>
<rect x="288" y="113" width="12" height="13"/>
<rect x="296" y="113" width="4" height="13"/>
<rect x="279" y="113" width="12" height="13"/>
<rect x="296" y="105" width="4" height="12"/>
<rect x="279" y="105" width="12" height="12"/>
<rect x="296" y="96" width="4" height="12"/>
<rect x="288" y="87" width="12" height="13"/>
<rect x="296" y="87" width="4" height="13"/>
<rect x="279" y="77" width="12" height="12"/>
<rect x="288" y="77" width="12" height="12"/>
<rect x="279" y="68" width="12" height="13"/>
<rect x="288" y="68" width="12" height="13"/>
<rect x="279" y="60" width="12" height="12"/>
<rect x="288" y="60" width="12" height="12"/>
<rect x="296" y="60" width="4" height="12"/>
<rect x="176" y="59" width="12" height="12"/>
<rect x="176" y="50" width="12" height="13"/>
<rect x="159" y="59" width="12" height="12"/>
<rect x="181" y="42" width="12" height="12"/>
<rect x="189" y="42" width="13" height="12"/>
<rect x="214" y="106" width="12" height="12"/>
<rect x="79" y="95" width="13" height="13"/>
<rect x="88" y="95" width="12" height="13"/>
</g>
</svg>