<?xml version="1.0" encoding="utf-8"?>
<svg xmlns="http://www.w3.org/2000/svg" width="300" height="300" viewBox="0 0 300 300" class="creatureMap" style="position:absolute;">
    <defs>
        <filter id="blur" x="-30%" y="-30%" width="160%" height="160%">
            <feGaussianBlur stdDeviation="3" />
        </filter>
        <pattern id="pattern-untameable" width="10" height="10" patternTransform="rotate(135)" patternUnits="userSpaceOnUse">'
            <rect width="4" height="10" fill="black"></rect>
        </pattern>
        <filter id="groupStroke">
            <feFlood result="outsideColor" flood-color="black"/>
            <feMorphology in="SourceAlpha" operator="dilate" radius="2"/>
            <feComposite result="strokeoutline1" in="outsideColor" operator="in"/>
            <feComposite result="strokeoutline2" in="strokeoutline1" in2="SourceAlpha" operator="out"/>
            <feGaussianBlur in="strokeoutline2" result="strokeblur" stdDeviation="1"/>
        </filter>
        <style>
            .spawningMap-very-common { fill: #0F0; }
            .spawningMap-common { fill: #B2FF00; }
            .spawningMap-uncommon { fill: #FF0; }
            .spawningMap-very-uncommon { fill: #FC0; }
            .spawningMap-rare { fill: #F60; }
            .spawningMap-very-rare { fill: #F00; }
            .spawning-map-point { stroke:black; stroke-width:1; }
        </style>
    </defs>

<g filter="url(#blur)" opacity="0.7">
<g class="spawningMap-very-uncommon">
<rect x="193" y="166" width="13" height="12" />
<rect x="193" y="157" width="13" height="13" />
<rect x="202" y="166" width="12" height="12" />
<rect x="202" y="157" width="12" height="13" />
<rect x="210" y="157" width="13" height="13" />
<rect x="213" y="149" width="13" height="12" />
<rect x="219" y="161" width="12" height="13" />
<rect x="222" y="144" width="12" height="13" />
<rect x="222" y="136" width="12" height="12" />
<rect x="222" y="127" width="12" height="13" />
<rect x="230" y="127" width="13" height="13" />
<rect x="226" y="119" width="13" height="12" />
<rect x="235" y="119" width="12" height="12" />
<rect x="223" y="110" width="13" height="13" />
<rect x="232" y="110" width="12" height="13" />
<rect x="223" y="102" width="13" height="12" />
<rect x="168" y="89" width="13" height="12" />
<rect x="232" y="102" width="12" height="12" />
<rect x="168" y="97" width="13" height="13" />
<rect x="120" y="56" width="12" height="13" />
<rect x="103" y="65" width="12" height="12" />
<rect x="223" y="93" width="13" height="12" />
<rect x="160" y="97" width="12" height="13" />
<rect x="160" y="89" width="12" height="12" />
<rect x="159" y="155" width="12" height="13" />
<rect x="159" y="164" width="12" height="12" />
<rect x="167" y="157" width="13" height="12" />
<rect x="232" y="93" width="12" height="12" />
<rect x="176" y="168" width="13" height="12" />
<rect x="176" y="159" width="13" height="12" />
<rect x="223" y="84" width="13" height="13" />
<rect x="232" y="84" width="12" height="13" />
<rect x="232" y="76" width="12" height="12" />
<rect x="240" y="76" width="13" height="12" />
<rect x="227" y="67" width="13" height="13" />
<rect x="236" y="67" width="12" height="13" />
<rect x="206" y="81" width="12" height="12" />
<rect x="215" y="81" width="12" height="12" />
<rect x="203" y="72" width="12" height="13" />
<rect x="211" y="72" width="13" height="13" />
<rect x="224" y="39" width="12" height="13" />
<rect x="232" y="39" width="13" height="13" />
<rect x="241" y="42" width="12" height="13" />
<rect x="250" y="42" width="12" height="13" />
<rect x="202" y="125" width="12" height="13" />
<rect x="134" y="133" width="12" height="13" />
<rect x="125" y="133" width="13" height="13" />
<rect x="134" y="125" width="12" height="12" />
<rect x="125" y="125" width="13" height="12" />
<rect x="134" y="116" width="12" height="13" />
<rect x="134" y="108" width="12" height="12" />
<rect x="125" y="116" width="13" height="13" />
<rect x="125" y="108" width="13" height="12" />
<rect x="117" y="116" width="12" height="13" />
<rect x="117" y="99" width="12" height="13" />
<rect x="117" y="91" width="12" height="12" />
<rect x="108" y="99" width="13" height="13" />
<rect x="108" y="91" width="13" height="12" />
<rect x="100" y="99" width="12" height="13" />
<rect x="100" y="91" width="12" height="12" />
<rect x="120" y="82" width="13" height="12" />
<rect x="112" y="82" width="12" height="12" />
<rect x="94" y="65" width="13" height="12" />
<rect x="245" y="67" width="12" height="13" />
<rect x="253" y="67" width="13" height="13" />
<rect x="253" y="59" width="13" height="12" />
<rect x="240" y="110" width="13" height="13" />
<rect x="240" y="102" width="13" height="12" />
<rect x="213" y="140" width="13" height="12" />
<rect x="196" y="140" width="12" height="13" />
<rect x="213" y="131" width="13" height="13" />
<rect x="205" y="140" width="12" height="12" />
<rect x="205" y="131" width="12" height="13" />
<rect x="103" y="82" width="13" height="12" />
<rect x="103" y="73" width="13" height="13" />
<rect x="125" y="99" width="13" height="13" />
<rect x="125" y="90" width="13" height="13" />
<rect x="134" y="99" width="12" height="13" />
<rect x="134" y="90" width="12" height="13" />
<rect x="143" y="99" width="12" height="13" />
<rect x="143" y="90" width="12" height="13" />
<rect x="151" y="99" width="12" height="13" />
<rect x="151" y="90" width="12" height="13" />
<rect x="138" y="71" width="12" height="13" />
<rect x="138" y="63" width="12" height="12" />
<rect x="112" y="65" width="12" height="12" />
<rect x="120" y="65" width="13" height="12" />
<rect x="249" y="165" width="12" height="12" />
<rect x="249" y="156" width="12" height="13" />
<rect x="257" y="165" width="13" height="12" />
<rect x="257" y="156" width="13" height="13" />
<rect x="257" y="173" width="13" height="13" />
<rect x="266" y="165" width="13" height="12" />
<rect x="266" y="156" width="13" height="13" />
<rect x="266" y="173" width="13" height="13" />
<rect x="275" y="165" width="12" height="12" />
<rect x="275" y="156" width="12" height="13" />
<rect x="275" y="173" width="12" height="13" />
<rect x="249" y="148" width="12" height="12" />
<rect x="243" y="130" width="12" height="13" />
<rect x="240" y="148" width="13" height="12" />
<rect x="240" y="139" width="13" height="12" />
<rect x="249" y="93" width="12" height="12" />
<rect x="262" y="67" width="12" height="13" />
<rect x="262" y="59" width="12" height="12" />
<rect x="262" y="50" width="12" height="13" />
<rect x="262" y="42" width="12" height="12" />
<rect x="270" y="50" width="13" height="13" />
<rect x="270" y="42" width="13" height="12" />
<rect x="270" y="84" width="13" height="13" />
<rect x="270" y="76" width="13" height="12" />
<rect x="270" y="102" width="13" height="12" />
<rect x="270" y="93" width="13" height="12" />
<rect x="262" y="96" width="12" height="12" />
<rect x="262" y="87" width="12" height="13" />
<rect x="279" y="94" width="12" height="13" />
<rect x="279" y="86" width="12" height="12" />
<rect x="262" y="110" width="12" height="13" />
<rect x="262" y="119" width="12" height="12" />
<rect x="270" y="119" width="13" height="12" />
<rect x="273" y="127" width="12" height="13" />
<rect x="111" y="251" width="13" height="12" />
<rect x="120" y="251" width="12" height="12" />
<rect x="111" y="259" width="13" height="13" />
<rect x="120" y="259" width="12" height="13" />
<rect x="103" y="259" width="12" height="13" />
<rect x="94" y="251" width="13" height="12" />
<rect x="94" y="259" width="13" height="13" />
<rect x="94" y="268" width="13" height="12" />
<rect x="103" y="56" width="12" height="13" />
<rect x="167" y="166" width="13" height="12" />
<rect x="249" y="84" width="12" height="13" />
<rect x="257" y="182" width="13" height="12" />
<rect x="266" y="182" width="13" height="12" />
<rect x="275" y="182" width="12" height="12" />
<rect x="283" y="156" width="13" height="13" />
<rect x="292" y="156" width="8" height="13" />
<rect x="283" y="148" width="13" height="12" />
<rect x="292" y="148" width="8" height="12" />
<rect x="283" y="139" width="13" height="12" />
<rect x="292" y="139" width="8" height="12" />
<rect x="283" y="130" width="13" height="13" />
<rect x="292" y="130" width="8" height="13" />
<rect x="283" y="122" width="13" height="12" />
<rect x="292" y="122" width="8" height="12" />
<rect x="176" y="150" width="13" height="13" />
<rect x="283" y="182" width="13" height="12" />
<rect x="292" y="182" width="8" height="12" />
<rect x="283" y="173" width="13" height="13" />
<rect x="292" y="173" width="8" height="13" />
<rect x="283" y="165" width="13" height="12" />
<rect x="292" y="165" width="8" height="12" />
<rect x="176" y="142" width="13" height="12" />
<rect x="296" y="77" width="4" height="12" />
<rect x="296" y="68" width="4" height="13" />
<rect x="176" y="133" width="13" height="13" />
<rect x="185" y="142" width="12" height="12" />
<rect x="185" y="133" width="12" height="13" />
<rect x="185" y="168" width="12" height="12" />
<rect x="185" y="159" width="12" height="12" />
<rect x="185" y="150" width="12" height="13" />
<rect x="210" y="166" width="13" height="12" />
<rect x="205" y="149" width="12" height="12" />
<rect x="240" y="93" width="13" height="12" />
<rect x="240" y="84" width="13" height="13" />
<rect x="215" y="93" width="12" height="12" />
<rect x="193" y="125" width="13" height="13" />
<rect x="177" y="174" width="12" height="13" />
<rect x="117" y="108" width="12" height="12" />
<rect x="117" y="125" width="12" height="12" />
<rect x="94" y="82" width="13" height="12" />
<rect x="94" y="73" width="13" height="13" />
<rect x="94" y="56" width="13" height="13" />
<rect x="160" y="80" width="12" height="13" />
<rect x="160" y="72" width="12" height="12" />
<rect x="168" y="80" width="13" height="13" />
<rect x="168" y="72" width="13" height="12" />
<rect x="249" y="139" width="12" height="12" />
<rect x="232" y="139" width="12" height="12" />
<rect x="249" y="102" width="12" height="12" />
<rect x="270" y="67" width="13" height="13" />
<rect x="270" y="59" width="13" height="12" />
<rect x="270" y="110" width="13" height="13" />
<rect x="264" y="127" width="13" height="13" />
<rect x="273" y="136" width="12" height="12" />
<rect x="258" y="76" width="12" height="12" />
<rect x="288" y="113" width="12" height="13" />
<rect x="296" y="113" width="4" height="13" />
<rect x="279" y="113" width="12" height="13" />
<rect x="296" y="105" width="4" height="12" />
<rect x="279" y="105" width="12" height="12" />
<rect x="296" y="96" width="4" height="12" />
<rect x="288" y="87" width="12" height="13" />
<rect x="296" y="87" width="4" height="13" />
<rect x="279" y="77" width="12" height="12" />
<rect x="288" y="77" width="12" height="12" />
<rect x="279" y="68" width="12" height="13" />
<rect x="288" y="68" width="12" height="13" />
<rect x="279" y="60" width="12" height="12" />
<rect x="288" y="60" width="12" height="12" />
<rect x="296" y="60" width="4" height="12" />
<rect x="196" y="149" width="12" height="12" />
<rect x="213" y="123" width="13" height="12" />
<rect x="213" y="114" width="13" height="13" />
<rect x="205" y="114" width="12" height="13" />
<rect x="112" y="73" width="12" height="13" />
<rect x="249" y="76" width="12" height="12" />
<rect x="120" y="73" width="13" height="13" />
<rect x="129" y="71" width="12" height="13" />
<rect x="129" y="63" width="12" height="12" />
<rect x="146" y="69" width="13" height="12" />
<rect x="146" y="60" width="13" height="12" />
<rect x="111" y="56" width="13" height="13" />
<rect x="245" y="59" width="12" height="12" />
<rect x="103" y="251" width="12" height="12" />
<rect x="111" y="268" width="13" height="12" />
<rect x="120" y="268" width="12" height="12" />
<rect x="103" y="268" width="12" height="12" />
<rect x="85" y="242" width="13" height="12" />
<rect x="85" y="251" width="13" height="12" />
<rect x="85" y="259" width="13" height="13" />
<rect x="236" y="59" width="12" height="12" />
</g>
</g>
</svg>