<?xml version="1.0" encoding="utf-8"?>
<svg xmlns="http://www.w3.org/2000/svg" width="300" height="300" viewBox="0 0 300 300" class="creatureMap" style="position:absolute;">
    <defs>
        <filter id="blur" x="-30%" y="-30%" width="160%" height="160%">
            <feGaussianBlur stdDeviation="3" />
        </filter>
        <pattern id="pattern-untameable" width="10" height="10" patternTransform="rotate(135)" patternUnits="userSpaceOnUse">'
            <rect width="4" height="10" fill="black"></rect>
        </pattern>
        <filter id="groupStroke">
            <feFlood result="outsideColor" flood-color="black"/>
            <feMorphology in="SourceAlpha" operator="dilate" radius="2"/>
            <feComposite result="strokeoutline1" in="outsideColor" operator="in"/>
            <feComposite result="strokeoutline2" in="strokeoutline1" in2="SourceAlpha" operator="out"/>
            <feGaussianBlur in="strokeoutline2" result="strokeblur" stdDeviation="1"/>
        </filter>
        <style>
            .spawningMap-very-common { fill: #0F0; }
            .spawningMap-common { fill: #B2FF00; }
            .spawningMap-uncommon { fill: #FF0; }
            .spawningMap-very-uncommon { fill: #FC0; }
            .spawningMap-rare { fill: #F60; }
            .spawningMap-very-rare { fill: #F00; }
            .spawning-map-point { stroke:black; stroke-width:1; }
        </style>
    </defs>

<g filter="url(#blur)" opacity="0.7">
<g class="spawningMap-very-rare">
<rect x="253" y="50" width="13" height="13" />
<rect x="245" y="50" width="12" height="13" />
<rect x="236" y="50" width="12" height="13" />
<rect x="227" y="59" width="13" height="12" />
<rect x="227" y="50" width="13" height="13" />
<rect x="219" y="59" width="12" height="12" />
<rect x="219" y="50" width="12" height="13" />
<rect x="210" y="59" width="13" height="12" />
<rect x="210" y="50" width="13" height="13" />
<rect x="202" y="59" width="12" height="12" />
<rect x="202" y="50" width="12" height="13" />
<rect x="193" y="59" width="13" height="12" />
<rect x="193" y="50" width="13" height="13" />
<rect x="185" y="59" width="12" height="12" />
<rect x="185" y="50" width="12" height="13" />
<rect x="167" y="59" width="13" height="12" />
<rect x="167" y="50" width="13" height="13" />
<rect x="159" y="50" width="12" height="13" />
<rect x="185" y="67" width="13" height="13" />
<rect x="177" y="67" width="12" height="13" />
<rect x="194" y="67" width="13" height="13" />
<rect x="206" y="42" width="13" height="12" />
<rect x="198" y="42" width="12" height="12" />
<rect x="215" y="42" width="13" height="12" />
<rect x="172" y="42" width="12" height="12" />
<rect x="163" y="42" width="13" height="12" />
<rect x="197" y="114" width="12" height="13" />
<rect x="197" y="106" width="12" height="12" />
<rect x="205" y="106" width="13" height="12" />
<rect x="197" y="97" width="12" height="13" />
<rect x="205" y="97" width="13" height="13" />
<rect x="79" y="70" width="13" height="12" />
<rect x="88" y="70" width="12" height="12" />
<rect x="79" y="78" width="13" height="13" />
<rect x="88" y="78" width="12" height="13" />
<rect x="79" y="87" width="13" height="12" />
<rect x="88" y="87" width="12" height="12" />
<rect x="176" y="59" width="12" height="12" />
<rect x="176" y="50" width="12" height="13" />
<rect x="159" y="59" width="12" height="12" />
<rect x="181" y="42" width="12" height="12" />
<rect x="189" y="42" width="13" height="12" />
<rect x="214" y="106" width="12" height="12" />
<rect x="79" y="95" width="13" height="13" />
<rect x="88" y="95" width="12" height="13" />
</g>
<g class="spawningMap-rare">
<rect x="282" y="285" width="11" height="10" />
<rect x="278" y="240" width="10" height="11" />
<rect x="220" y="234" width="11" height="10" />
<rect x="249" y="228" width="11" height="10" />
<rect x="276" y="288" width="11" height="11" />
<rect x="289" y="293" width="11" height="7" />
<rect x="287" y="253" width="11" height="11" />
<rect x="224" y="245" width="11" height="11" />
<rect x="191" y="231" width="11" height="11" />
<rect x="194" y="239" width="10" height="11" />
<rect x="138" y="76" width="12" height="12" />
<rect x="138" y="85" width="12" height="12" />
<rect x="146" y="76" width="13" height="12" />
<rect x="146" y="85" width="13" height="12" />
<rect x="249" y="165" width="12" height="12" />
<rect x="249" y="156" width="12" height="13" />
<rect x="257" y="165" width="13" height="12" />
<rect x="257" y="156" width="13" height="13" />
<rect x="257" y="173" width="13" height="13" />
<rect x="266" y="165" width="13" height="12" />
<rect x="266" y="156" width="13" height="13" />
<rect x="266" y="173" width="13" height="13" />
<rect x="275" y="165" width="12" height="12" />
<rect x="275" y="156" width="12" height="13" />
<rect x="275" y="173" width="12" height="13" />
<rect x="249" y="148" width="12" height="12" />
<rect x="243" y="130" width="12" height="13" />
<rect x="240" y="148" width="13" height="12" />
<rect x="240" y="139" width="13" height="12" />
<rect x="249" y="93" width="12" height="12" />
<rect x="262" y="67" width="12" height="13" />
<rect x="262" y="59" width="12" height="12" />
<rect x="262" y="50" width="12" height="13" />
<rect x="262" y="42" width="12" height="12" />
<rect x="270" y="50" width="13" height="13" />
<rect x="270" y="42" width="13" height="12" />
<rect x="270" y="84" width="13" height="13" />
<rect x="270" y="76" width="13" height="12" />
<rect x="270" y="102" width="13" height="12" />
<rect x="270" y="93" width="13" height="12" />
<rect x="262" y="96" width="12" height="12" />
<rect x="262" y="87" width="12" height="13" />
<rect x="279" y="94" width="12" height="13" />
<rect x="279" y="86" width="12" height="12" />
<rect x="262" y="110" width="12" height="13" />
<rect x="262" y="119" width="12" height="12" />
<rect x="270" y="119" width="13" height="12" />
<rect x="273" y="127" width="12" height="13" />
<rect x="129" y="81" width="12" height="13" />
<rect x="249" y="84" width="12" height="13" />
<rect x="257" y="182" width="13" height="12" />
<rect x="266" y="182" width="13" height="12" />
<rect x="275" y="182" width="12" height="12" />
<rect x="283" y="156" width="13" height="13" />
<rect x="292" y="156" width="8" height="13" />
<rect x="283" y="148" width="13" height="12" />
<rect x="292" y="148" width="8" height="12" />
<rect x="283" y="139" width="13" height="12" />
<rect x="292" y="139" width="8" height="12" />
<rect x="283" y="130" width="13" height="13" />
<rect x="292" y="130" width="8" height="13" />
<rect x="283" y="122" width="13" height="12" />
<rect x="292" y="122" width="8" height="12" />
<rect x="283" y="182" width="13" height="12" />
<rect x="292" y="182" width="8" height="12" />
<rect x="283" y="173" width="13" height="13" />
<rect x="292" y="173" width="8" height="13" />
<rect x="283" y="165" width="13" height="12" />
<rect x="292" y="165" width="8" height="12" />
<rect x="296" y="77" width="4" height="12" />
<rect x="296" y="68" width="4" height="13" />
<rect x="249" y="139" width="12" height="12" />
<rect x="232" y="139" width="12" height="12" />
<rect x="249" y="102" width="12" height="12" />
<rect x="270" y="67" width="13" height="13" />
<rect x="270" y="59" width="13" height="12" />
<rect x="270" y="110" width="13" height="13" />
<rect x="264" y="127" width="13" height="13" />
<rect x="273" y="136" width="12" height="12" />
<rect x="258" y="76" width="12" height="12" />
<rect x="288" y="113" width="12" height="13" />
<rect x="296" y="113" width="4" height="13" />
<rect x="279" y="113" width="12" height="13" />
<rect x="296" y="105" width="4" height="12" />
<rect x="279" y="105" width="12" height="12" />
<rect x="296" y="96" width="4" height="12" />
<rect x="288" y="87" width="12" height="13" />
<rect x="296" y="87" width="4" height="13" />
<rect x="279" y="77" width="12" height="12" />
<rect x="288" y="77" width="12" height="12" />
<rect x="279" y="68" width="12" height="13" />
<rect x="288" y="68" width="12" height="13" />
<rect x="279" y="60" width="12" height="12" />
<rect x="288" y="60" width="12" height="12" />
<rect x="296" y="60" width="4" height="12" />
<rect x="155" y="76" width="12" height="12" />
<rect x="155" y="85" width="12" height="12" />
</g>
<g class="spawningMap-very-uncommon">
<rect x="192" y="215" width="10" height="11" />
<rect x="299" y="147" width="1" height="11" />
<rect x="183" y="224" width="11" height="11" />
<rect x="292" y="207" width="8" height="11" />
<rect x="245" y="135" width="11" height="10" />
<rect x="195" y="225" width="11" height="10" />
<rect x="246" y="290" width="11" height="10" />
<rect x="242" y="176" width="11" height="11" />
<rect x="206" y="234" width="11" height="11" />
<rect x="270" y="266" width="10" height="11" />
<rect x="292" y="155" width="8" height="10" />
<rect x="219" y="222" width="11" height="11" />
<rect x="240" y="282" width="10" height="11" />
</g>
</g>
</svg>