<?xml version="1.0" encoding="utf-8"?>
<svg xmlns="http://www.w3.org/2000/svg" width="300" height="300"
        viewBox="0 0 300 300" class="creatureMap" style="position:absolute;">
    <defs>
        <filter id="blur" x="-30%" y="-30%" width="160%" height="160%">
            <feGaussianBlur stdDeviation="3" />
        </filter>
        <pattern id="pattern-untameable" width="10" height="10" patternTransform="rotate(135)" patternUnits="userSpaceOnUse">
            <rect width="4" height="10" fill="black"></rect>
        </pattern>
        <filter id="groupStroke">
            <feFlood result="outsideColor" flood-color="black"/>
            <feMorphology in="SourceAlpha" operator="dilate" radius="2"/>
            <feComposite result="strokeoutline1" in="outsideColor" operator="in"/>
            <feComposite result="strokeoutline2" in="strokeoutline1" in2="SourceAlpha" operator="out"/>
            <feGaussianBlur in="strokeoutline2" result="strokeblur" stdDeviation="1"/>
        </filter>
        <style>
            .spawningMap-very-common { fill: #0F0; }
            .spawningMap-common { fill: #B2FF00; }
            .spawningMap-uncommon { fill: #FF0; }
            .spawningMap-very-uncommon { fill: #FC0; }
            .spawningMap-rare { fill: #F60; }
            .spawningMap-very-rare { fill: #F00; }
            .spawning-map-point { stroke:black; stroke-width:1; }
        </style>
    </defs>

<g filter="url(#blur)" opacity="0.7">
<g class="spawningMap-very-rare">
<rect x="265" y="71" width="16" height="18" />
<rect x="250" y="80" width="22" height="25" />
</g>
<g class="spawningMap-rare">
<rect x="257" y="126" width="14" height="13" />
<rect x="249" y="117" width="13" height="14" />
<rect x="257" y="134" width="14" height="14" />
<rect x="266" y="147" width="13" height="14" />
<rect x="257" y="117" width="14" height="14" />
<rect x="257" y="143" width="14" height="14" />
<rect x="266" y="139" width="13" height="13" />
<rect x="184" y="70" width="14" height="14" />
<rect x="198" y="85" width="14" height="14" />
<rect x="236" y="75" width="14" height="13" />
<rect x="264" y="101" width="14" height="14" />
<rect x="249" y="126" width="13" height="13" />
<rect x="257" y="109" width="14" height="13" />
</g>
</g>
</svg>