<?xml version="1.0" encoding="utf-8"?>
<svg xmlns="http://www.w3.org/2000/svg" width="300" height="300" viewBox="0 0 300 300" class="creatureMap" style="position:absolute;">
    <defs>
        <filter id="blur" x="-30%" y="-30%" width="160%" height="160%">
            <feGaussianBlur stdDeviation="3" />
        </filter>
        <pattern id="pattern-untameable" width="10" height="10" patternTransform="rotate(135)" patternUnits="userSpaceOnUse">'
            <rect width="4" height="10" fill="black"></rect>
        </pattern>
        <filter id="groupStroke">
            <feFlood result="outsideColor" flood-color="black"/>
            <feMorphology in="SourceAlpha" operator="dilate" radius="2"/>
            <feComposite result="strokeoutline1" in="outsideColor" operator="in"/>
            <feComposite result="strokeoutline2" in="strokeoutline1" in2="SourceAlpha" operator="out"/>
            <feGaussianBlur in="strokeoutline2" result="strokeblur" stdDeviation="1"/>
        </filter>
        <style>
            .spawningMap-very-common { fill: #0F0; }
            .spawningMap-common { fill: #B2FF00; }
            .spawningMap-uncommon { fill: #FF0; }
            .spawningMap-very-uncommon { fill: #FC0; }
            .spawningMap-rare { fill: #F60; }
            .spawningMap-very-rare { fill: #F00; }
            .spawning-map-point { stroke:black; stroke-width:1; }
        </style>
    </defs>

<g filter="url(#blur)" opacity="0.7">
<g class="spawningMap-very-uncommon">
<rect x="51" y="108" width="16" height="17" />
<rect x="118" y="107" width="17" height="17" />
<rect x="119" y="73" width="16" height="17" />
<rect x="119" y="62" width="16" height="16" />
<rect x="130" y="107" width="16" height="17" />
<rect x="141" y="96" width="17" height="17" />
<rect x="141" y="107" width="17" height="17" />
<rect x="141" y="62" width="16" height="16" />
<rect x="61" y="119" width="17" height="17" />
<rect x="141" y="73" width="17" height="16" />
<rect x="144" y="16" width="17" height="17" />
<rect x="155" y="16" width="17" height="17" />
<rect x="38" y="108" width="17" height="16" />
<rect x="27" y="108" width="17" height="16" />
<rect x="152" y="39" width="16" height="17" />
<rect x="61" y="62" width="16" height="16" />
<rect x="72" y="62" width="17" height="16" />
<rect x="102" y="9" width="17" height="16" />
<rect x="114" y="9" width="16" height="16" />
<rect x="80" y="17" width="16" height="16" />
<rect x="72" y="28" width="17" height="16" />
<rect x="72" y="39" width="17" height="17" />
<rect x="50" y="131" width="16" height="16" />
<rect x="72" y="50" width="17" height="17" />
<rect x="84" y="50" width="16" height="17" />
<rect x="95" y="50" width="16" height="17" />
<rect x="106" y="50" width="17" height="17" />
<rect x="118" y="50" width="16" height="17" />
<rect x="129" y="50" width="17" height="17" />
<rect x="140" y="50" width="17" height="17" />
<rect x="50" y="153" width="17" height="17" />
<rect x="50" y="119" width="16" height="17" />
<rect x="144" y="28" width="17" height="16" />
<rect x="155" y="28" width="17" height="16" />
<rect x="62" y="97" width="17" height="16" />
<rect x="51" y="97" width="16" height="16" />
<rect x="95" y="73" width="17" height="16" />
<rect x="107" y="73" width="16" height="16" />
<rect x="130" y="62" width="16" height="16" />
<rect x="73" y="108" width="16" height="16" />
<rect x="73" y="119" width="16" height="17" />
<rect x="84" y="119" width="16" height="17" />
<rect x="73" y="131" width="16" height="16" />
<rect x="73" y="142" width="16" height="16" />
<rect x="61" y="142" width="17" height="16" />
<rect x="50" y="142" width="16" height="16" />
<rect x="95" y="96" width="17" height="17" />
<rect x="107" y="84" width="16" height="17" />
<rect x="118" y="84" width="17" height="17" />
<rect x="118" y="96" width="17" height="16" />
<rect x="130" y="96" width="16" height="16" />
<rect x="130" y="84" width="16" height="17" />
<rect x="130" y="73" width="16" height="16" />
<rect x="91" y="9" width="16" height="16" />
<rect x="140" y="39" width="17" height="17" />
<rect x="62" y="108" width="17" height="16" />
<rect x="84" y="108" width="17" height="16" />
<rect x="95" y="108" width="17" height="16" />
<rect x="107" y="108" width="16" height="16" />
<rect x="73" y="96" width="16" height="17" />
<rect x="84" y="96" width="17" height="17" />
<rect x="38" y="142" width="17" height="16" />
<rect x="107" y="96" width="16" height="17" />
<rect x="73" y="84" width="16" height="17" />
<rect x="84" y="84" width="17" height="17" />
<rect x="95" y="84" width="17" height="17" />
<rect x="73" y="73" width="16" height="16" />
<rect x="84" y="73" width="17" height="16" />
<rect x="62" y="85" width="17" height="17" />
</g>
<g class="spawningMap-uncommon">
<rect x="65" y="50" width="12" height="17" />
</g>
<g class="spawningMap-very-common">
<rect x="58" y="150" width="7" height="8" />
<rect x="54" y="147" width="7" height="7" />
<rect x="61" y="146" width="8" height="7" />
<rect x="53" y="149" width="7" height="7" />
<rect x="53" y="151" width="10" height="7" />
<rect x="58" y="146" width="7" height="6" />
<rect x="57" y="149" width="9" height="7" />
<rect x="60" y="148" width="7" height="7" />
<rect x="57" y="146" width="7" height="7" />
<rect x="56" y="147" width="7" height="7" />
<rect x="63" y="149" width="7" height="8" />
<rect x="61" y="150" width="7" height="7" />
<rect x="60" y="149" width="6" height="7" />
<rect x="142" y="270" width="7" height="7" />
<rect x="140" y="273" width="7" height="9" />
<rect x="141" y="271" width="7" height="7" />
<rect x="141" y="273" width="6" height="6" />
<rect x="140" y="269" width="7" height="6" />
<rect x="139" y="269" width="7" height="8" />
<rect x="139" y="271" width="7" height="7" />
<rect x="138" y="272" width="7" height="7" />
<rect x="137" y="272" width="7" height="7" />
<rect x="136" y="273" width="7" height="7" />
<rect x="134" y="274" width="8" height="9" />
<rect x="131" y="274" width="8" height="9" />
<rect x="131" y="278" width="10" height="9" />
<rect x="131" y="281" width="7" height="9" />
<rect x="132" y="283" width="8" height="7" />
<rect x="131" y="284" width="8" height="8" />
<rect x="131" y="286" width="8" height="7" />
<rect x="129" y="287" width="8" height="8" />
<rect x="133" y="287" width="8" height="8" />
<rect x="136" y="283" width="8" height="8" />
<rect x="141" y="282" width="8" height="7" />
<rect x="140" y="282" width="7" height="7" />
<rect x="142" y="285" width="7" height="7" />
<rect x="143" y="286" width="8" height="8" />
<rect x="143" y="285" width="8" height="7" />
<rect x="143" y="283" width="8" height="8" />
<rect x="145" y="287" width="8" height="7" />
<rect x="145" y="285" width="8" height="8" />
<rect x="145" y="283" width="7" height="8" />
<rect x="140" y="289" width="7" height="8" />
<rect x="138" y="291" width="8" height="7" />
<rect x="140" y="291" width="8" height="7" />
<rect x="139" y="293" width="8" height="7" />
<rect x="139" y="294" width="8" height="6" />
<rect x="144" y="293" width="8" height="7" />
<rect x="144" y="295" width="8" height="5" />
<rect x="142" y="296" width="8" height="4" />
<rect x="141" y="297" width="8" height="3" />
<rect x="141" y="299" width="8" height="1" />
<rect x="149" y="299" width="8" height="1" />
<rect x="151" y="298" width="8" height="2" />
<rect x="151" y="297" width="8" height="3" />
<rect x="151" y="295" width="8" height="5" />
<rect x="153" y="294" width="8" height="6" />
<rect x="153" y="293" width="7" height="7" />
<rect x="151" y="292" width="7" height="7" />
<rect x="149" y="295" width="8" height="5" />
<rect x="149" y="293" width="8" height="7" />
<rect x="147" y="293" width="8" height="7" />
<rect x="148" y="291" width="8" height="8" />
<rect x="147" y="290" width="8" height="7" />
<rect x="147" y="288" width="8" height="7" />
<rect x="148" y="286" width="7" height="8" />
<rect x="131" y="290" width="8" height="7" />
<rect x="132" y="292" width="7" height="7" />
<rect x="132" y="293" width="7" height="7" />
<rect x="146" y="297" width="8" height="3" />
<rect x="151" y="293" width="8" height="7" />
</g>
</g>
<g filter="url(#groupStroke)" opacity="0.8">
<rect x="58" y="150" width="7" height="8"/>
<rect x="54" y="147" width="7" height="7"/>
<rect x="61" y="146" width="8" height="7"/>
<rect x="53" y="149" width="7" height="7"/>
<rect x="53" y="151" width="10" height="7"/>
<rect x="58" y="146" width="7" height="6"/>
<rect x="57" y="149" width="9" height="7"/>
<rect x="60" y="148" width="7" height="7"/>
<rect x="57" y="146" width="7" height="7"/>
<rect x="56" y="147" width="7" height="7"/>
<rect x="63" y="149" width="7" height="8"/>
<rect x="61" y="150" width="7" height="7"/>
<rect x="60" y="149" width="6" height="7"/>
<rect x="142" y="270" width="7" height="7"/>
<rect x="140" y="273" width="7" height="9"/>
<rect x="141" y="271" width="7" height="7"/>
<rect x="141" y="273" width="6" height="6"/>
<rect x="140" y="269" width="7" height="6"/>
<rect x="139" y="269" width="7" height="8"/>
<rect x="139" y="271" width="7" height="7"/>
<rect x="138" y="272" width="7" height="7"/>
<rect x="137" y="272" width="7" height="7"/>
<rect x="136" y="273" width="7" height="7"/>
<rect x="134" y="274" width="8" height="9"/>
<rect x="131" y="274" width="8" height="9"/>
<rect x="131" y="278" width="10" height="9"/>
<rect x="131" y="281" width="7" height="9"/>
<rect x="132" y="283" width="8" height="7"/>
<rect x="131" y="284" width="8" height="8"/>
<rect x="131" y="286" width="8" height="7"/>
<rect x="129" y="287" width="8" height="8"/>
<rect x="133" y="287" width="8" height="8"/>
<rect x="136" y="283" width="8" height="8"/>
<rect x="141" y="282" width="8" height="7"/>
<rect x="140" y="282" width="7" height="7"/>
<rect x="142" y="285" width="7" height="7"/>
<rect x="143" y="286" width="8" height="8"/>
<rect x="143" y="285" width="8" height="7"/>
<rect x="143" y="283" width="8" height="8"/>
<rect x="145" y="287" width="8" height="7"/>
<rect x="145" y="285" width="8" height="8"/>
<rect x="145" y="283" width="7" height="8"/>
<rect x="140" y="289" width="7" height="8"/>
<rect x="138" y="291" width="8" height="7"/>
<rect x="140" y="291" width="8" height="7"/>
<rect x="139" y="293" width="8" height="7"/>
<rect x="139" y="294" width="8" height="6"/>
<rect x="144" y="293" width="8" height="7"/>
<rect x="144" y="295" width="8" height="5"/>
<rect x="142" y="296" width="8" height="4"/>
<rect x="141" y="297" width="8" height="3"/>
<rect x="141" y="299" width="8" height="1"/>
<rect x="149" y="299" width="8" height="1"/>
<rect x="151" y="298" width="8" height="2"/>
<rect x="151" y="297" width="8" height="3"/>
<rect x="151" y="295" width="8" height="5"/>
<rect x="153" y="294" width="8" height="6"/>
<rect x="153" y="293" width="7" height="7"/>
<rect x="151" y="292" width="7" height="7"/>
<rect x="149" y="295" width="8" height="5"/>
<rect x="149" y="293" width="8" height="7"/>
<rect x="147" y="293" width="8" height="7"/>
<rect x="148" y="291" width="8" height="8"/>
<rect x="147" y="290" width="8" height="7"/>
<rect x="147" y="288" width="8" height="7"/>
<rect x="148" y="286" width="7" height="8"/>
<rect x="131" y="290" width="8" height="7"/>
<rect x="132" y="292" width="7" height="7"/>
<rect x="132" y="293" width="7" height="7"/>
<rect x="146" y="297" width="8" height="3"/>
<rect x="151" y="293" width="8" height="7"/>
</g>
</svg>