<?xml version="1.0" encoding="utf-8"?>
<svg xmlns="http://www.w3.org/2000/svg" width="300" height="300" viewBox="0 0 300 300" class="creatureMap" style="position:absolute;">
    <defs>
        <filter id="blur" x="-30%" y="-30%" width="160%" height="160%">
            <feGaussianBlur stdDeviation="3" />
        </filter>
        <pattern id="pattern-untameable" width="10" height="10" patternTransform="rotate(135)" patternUnits="userSpaceOnUse">'
            <rect width="4" height="10" fill="black"></rect>
        </pattern>
        <filter id="groupStroke">
            <feFlood result="outsideColor" flood-color="black"/>
            <feMorphology in="SourceAlpha" operator="dilate" radius="2"/>
            <feComposite result="strokeoutline1" in="outsideColor" operator="in"/>
            <feComposite result="strokeoutline2" in="strokeoutline1" in2="SourceAlpha" operator="out"/>
            <feGaussianBlur in="strokeoutline2" result="strokeblur" stdDeviation="1"/>
        </filter>
        <style>
            .spawningMap-very-common { fill: #0F0; }
            .spawningMap-common { fill: #B2FF00; }
            .spawningMap-uncommon { fill: #FF0; }
            .spawningMap-very-uncommon { fill: #FC0; }
            .spawningMap-rare { fill: #F60; }
            .spawningMap-very-rare { fill: #F00; }
            .spawning-map-point { stroke:black; stroke-width:1; }
        </style>
    </defs>

<g filter="url(#blur)" opacity="0.7">
<g class="spawningMap-rare">
<rect x="44" y="235" width="16" height="15" />
<rect x="44" y="245" width="16" height="16" />
<rect x="34" y="256" width="16" height="15" />
<rect x="44" y="256" width="16" height="15" />
<rect x="44" y="266" width="16" height="16" />
<rect x="55" y="266" width="16" height="16" />
<rect x="55" y="277" width="16" height="15" />
<rect x="55" y="256" width="16" height="15" />
<rect x="55" y="245" width="16" height="16" />
<rect x="66" y="245" width="15" height="16" />
<rect x="66" y="256" width="15" height="15" />
<rect x="76" y="266" width="16" height="16" />
<rect x="192" y="256" width="15" height="15" />
<rect x="192" y="245" width="15" height="16" />
<rect x="192" y="235" width="15" height="15" />
<rect x="202" y="235" width="16" height="15" />
<rect x="202" y="245" width="16" height="16" />
<rect x="202" y="256" width="16" height="15" />
<rect x="76" y="256" width="16" height="15" />
<rect x="202" y="266" width="16" height="16" />
<rect x="202" y="277" width="16" height="15" />
<rect x="213" y="277" width="15" height="15" />
<rect x="76" y="245" width="16" height="16" />
<rect x="223" y="245" width="16" height="16" />
<rect x="76" y="235" width="16" height="15" />
<rect x="223" y="287" width="16" height="12" />
<rect x="223" y="277" width="16" height="15" />
<rect x="234" y="277" width="15" height="15" />
<rect x="87" y="235" width="15" height="15" />
<rect x="244" y="277" width="16" height="15" />
<rect x="255" y="277" width="15" height="15" />
<rect x="265" y="277" width="16" height="15" />
<rect x="87" y="245" width="15" height="16" />
<rect x="255" y="266" width="15" height="16" />
<rect x="265" y="266" width="16" height="16" />
<rect x="276" y="266" width="15" height="16" />
<rect x="276" y="256" width="15" height="15" />
<rect x="234" y="287" width="15" height="12" />
<rect x="87" y="256" width="15" height="15" />
<rect x="244" y="287" width="16" height="12" />
<rect x="265" y="256" width="16" height="15" />
<rect x="87" y="266" width="15" height="16" />
<rect x="97" y="256" width="16" height="15" />
<rect x="276" y="235" width="15" height="15" />
<rect x="286" y="235" width="12" height="15" />
<rect x="276" y="245" width="15" height="16" />
<rect x="97" y="245" width="16" height="16" />
<rect x="97" y="235" width="16" height="15" />
<rect x="108" y="245" width="15" height="16" />
<rect x="108" y="256" width="15" height="15" />
<rect x="108" y="266" width="15" height="16" />
<rect x="118" y="266" width="16" height="16" />
<rect x="118" y="256" width="16" height="15" />
<rect x="129" y="256" width="15" height="15" />
<rect x="118" y="245" width="16" height="16" />
<rect x="129" y="245" width="15" height="16" />
<rect x="118" y="235" width="16" height="15" />
<rect x="129" y="235" width="15" height="15" />
<rect x="2" y="45" width="16" height="16" />
<rect x="97" y="224" width="16" height="16" />
<rect x="97" y="45" width="16" height="16" />
<rect x="108" y="45" width="15" height="16" />
<rect x="87" y="224" width="15" height="16" />
<rect x="2" y="266" width="16" height="16" />
<rect x="118" y="224" width="16" height="16" />
<rect x="108" y="224" width="15" height="16" />
<rect x="108" y="235" width="15" height="15" />
<rect x="2" y="277" width="16" height="15" />
<rect x="2" y="287" width="16" height="13" />
<rect x="13" y="277" width="16" height="15" />
<rect x="286" y="161" width="14" height="16" />
<rect x="13" y="266" width="16" height="16" />
<rect x="13" y="256" width="16" height="15" />
<rect x="23" y="108" width="16" height="16" />
<rect x="13" y="108" width="16" height="16" />
<rect x="23" y="256" width="16" height="15" />
<rect x="23" y="266" width="16" height="16" />
<rect x="23" y="277" width="16" height="15" />
<rect x="244" y="172" width="16" height="15" />
<rect x="265" y="172" width="16" height="15" />
<rect x="286" y="151" width="14" height="15" />
<rect x="276" y="140" width="15" height="16" />
<rect x="34" y="266" width="16" height="16" />
<rect x="234" y="193" width="15" height="15" />
<rect x="286" y="245" width="12" height="16" />
<rect x="276" y="224" width="15" height="16" />
<rect x="265" y="224" width="16" height="16" />
<rect x="255" y="214" width="15" height="15" />
<rect x="265" y="214" width="16" height="15" />
<rect x="276" y="214" width="15" height="15" />
<rect x="265" y="203" width="16" height="16" />
<rect x="255" y="203" width="15" height="16" />
<rect x="213" y="193" width="15" height="15" />
<rect x="223" y="193" width="16" height="15" />
<rect x="223" y="203" width="16" height="16" />
<rect x="213" y="203" width="15" height="16" />
<rect x="202" y="203" width="16" height="16" />
<rect x="202" y="214" width="16" height="15" />
<rect x="213" y="214" width="15" height="15" />
<rect x="223" y="214" width="16" height="15" />
<rect x="213" y="224" width="15" height="16" />
<rect x="202" y="224" width="16" height="16" />
<rect x="192" y="224" width="15" height="16" />
<rect x="66" y="193" width="15" height="15" />
</g>
<g class="spawningMap-very-uncommon">
<rect x="213" y="287" width="15" height="10" />
<rect x="286" y="256" width="10" height="15" />
<rect x="255" y="287" width="15" height="10" />
<rect x="286" y="224" width="10" height="16" />
</g>
</g>
</svg>