<?xml version="1.0" encoding="utf-8"?>
<svg xmlns="http://www.w3.org/2000/svg" width="300" height="300"
        viewBox="0 0 300 300" class="creatureMap" style="position:absolute;">
    <defs>
        <filter id="blur" x="-30%" y="-30%" width="160%" height="160%">
            <feGaussianBlur stdDeviation="3" />
        </filter>
        <pattern id="pattern-untameable" width="10" height="10" patternTransform="rotate(135)" patternUnits="userSpaceOnUse">
            <rect width="4" height="10" fill="black"></rect>
        </pattern>
        <filter id="groupStroke">
            <feFlood result="outsideColor" flood-color="black"/>
            <feMorphology in="SourceAlpha" operator="dilate" radius="2"/>
            <feComposite result="strokeoutline1" in="outsideColor" operator="in"/>
            <feComposite result="strokeoutline2" in="strokeoutline1" in2="SourceAlpha" operator="out"/>
            <feGaussianBlur in="strokeoutline2" result="strokeblur" stdDeviation="1"/>
        </filter>
        <style>
            .spawningMap-very-common { fill: #0F0; }
            .spawningMap-common { fill: #B2FF00; }
            .spawningMap-uncommon { fill: #FF0; }
            .spawningMap-very-uncommon { fill: #FC0; }
            .spawningMap-rare { fill: #F60; }
            .spawningMap-very-rare { fill: #F00; }
            .spawning-map-point { stroke:black; stroke-width:1; }
        </style>
    </defs>

<g filter="url(#blur)" opacity="0.7">
<g class="spawningMap-rare">
<rect x="148" y="181" width="16" height="16" />
<rect x="148" y="170" width="16" height="16" />
<rect x="148" y="160" width="16" height="15" />
<rect x="137" y="160" width="16" height="15" />
<rect x="137" y="170" width="16" height="16" />
<rect x="137" y="181" width="16" height="16" />
<rect x="126" y="181" width="16" height="16" />
<rect x="115" y="181" width="16" height="16" />
<rect x="104" y="181" width="16" height="16" />
<rect x="104" y="191" width="16" height="16" />
<rect x="115" y="191" width="16" height="16" />
<rect x="126" y="191" width="16" height="16" />
<rect x="97" y="117" width="16" height="16" />
<rect x="108" y="117" width="16" height="16" />
<rect x="119" y="117" width="16" height="16" />
<rect x="119" y="128" width="16" height="15" />
<rect x="108" y="128" width="16" height="15" />
<rect x="130" y="128" width="16" height="15" />
<rect x="141" y="128" width="16" height="15" />
<rect x="141" y="138" width="16" height="16" />
<rect x="130" y="138" width="16" height="16" />
<rect x="119" y="138" width="16" height="16" />
<rect x="119" y="149" width="16" height="16" />
<rect x="119" y="159" width="16" height="16" />
<rect x="108" y="159" width="16" height="16" />
<rect x="108" y="149" width="16" height="16" />
<rect x="108" y="138" width="16" height="16" />
<rect x="130" y="149" width="16" height="16" />
<rect x="141" y="149" width="16" height="16" />
<rect x="152" y="149" width="16" height="16" />
<rect x="163" y="149" width="16" height="16" />
<rect x="163" y="159" width="16" height="16" />
<rect x="163" y="170" width="16" height="16" />
<rect x="174" y="170" width="16" height="16" />
<rect x="174" y="181" width="16" height="16" />
<rect x="170" y="191" width="16" height="16" />
<rect x="170" y="202" width="16" height="16" />
<rect x="181" y="202" width="16" height="16" />
<rect x="181" y="191" width="16" height="16" />
<rect x="192" y="186" width="16" height="16" />
<rect x="189" y="176" width="16" height="16" />
<rect x="189" y="165" width="16" height="16" />
<rect x="185" y="167" width="9" height="16" />
<rect x="170" y="213" width="16" height="9" />
<rect x="159" y="213" width="16" height="15" />
<rect x="159" y="202" width="16" height="16" />
<rect x="148" y="213" width="16" height="15" />
<rect x="137" y="213" width="16" height="15" />
<rect x="126" y="213" width="16" height="15" />
<rect x="126" y="202" width="16" height="16" />
<rect x="137" y="202" width="16" height="16" />
<rect x="148" y="202" width="16" height="16" />
<rect x="148" y="191" width="16" height="16" />
</g>
<g class="spawningMap-uncommon">
<rect x="53" y="151" width="10" height="7" />
</g>
<g class="spawningMap-common">
<rect x="54" y="147" width="7" height="7" />
<rect x="61" y="146" width="8" height="7" />
</g>
<g class="spawningMap-very-common">
<rect x="58" y="150" width="7" height="8" />
<rect x="53" y="149" width="7" height="7" />
<rect x="58" y="146" width="7" height="6" />
<rect x="57" y="149" width="9" height="7" />
<rect x="60" y="148" width="7" height="7" />
<rect x="57" y="146" width="7" height="7" />
<rect x="56" y="147" width="7" height="7" />
<rect x="63" y="149" width="7" height="8" />
<rect x="61" y="150" width="7" height="7" />
<rect x="60" y="149" width="6" height="7" />
</g>
</g>
<g filter="url(#groupStroke)" opacity="0.8">
<rect x="53" y="151" width="10" height="7"/>
<rect x="54" y="147" width="7" height="7"/>
<rect x="61" y="146" width="8" height="7"/>
<rect x="58" y="150" width="7" height="8"/>
<rect x="53" y="149" width="7" height="7"/>
<rect x="58" y="146" width="7" height="6"/>
<rect x="57" y="149" width="9" height="7"/>
<rect x="60" y="148" width="7" height="7"/>
<rect x="57" y="146" width="7" height="7"/>
<rect x="56" y="147" width="7" height="7"/>
<rect x="63" y="149" width="7" height="8"/>
<rect x="61" y="150" width="7" height="7"/>
<rect x="60" y="149" width="6" height="7"/>
</g>
</svg>