<?xml version="1.0" encoding="utf-8"?>
<svg xmlns="http://www.w3.org/2000/svg" width="300" height="300"
        viewBox="0 0 300 300" class="creatureMap" style="position:absolute;">
    <defs>
        <filter id="blur" x="-30%" y="-30%" width="160%" height="160%">
            <feGaussianBlur stdDeviation="3" />
        </filter>
        <pattern id="pattern-untameable" width="10" height="10" patternTransform="rotate(135)" patternUnits="userSpaceOnUse">
            <rect width="4" height="10" fill="black"></rect>
        </pattern>
        <filter id="groupStroke">
            <feFlood result="outsideColor" flood-color="black"/>
            <feMorphology in="SourceAlpha" operator="dilate" radius="2"/>
            <feComposite result="strokeoutline1" in="outsideColor" operator="in"/>
            <feComposite result="strokeoutline2" in="strokeoutline1" in2="SourceAlpha" operator="out"/>
            <feGaussianBlur in="strokeoutline2" result="strokeblur" stdDeviation="1"/>
        </filter>
        <style>
            .spawningMap-very-common { fill: #0F0; }
            .spawningMap-common { fill: #B2FF00; }
            .spawningMap-uncommon { fill: #FF0; }
            .spawningMap-very-uncommon { fill: #FC0; }
            .spawningMap-rare { fill: #F60; }
            .spawningMap-very-rare { fill: #F00; }
            .spawning-map-point { stroke:black; stroke-width:1; }
        </style>
    </defs>

<g filter="url(#blur)" opacity="0.7">
<g class="spawningMap-rare">
<rect x="118" y="187" width="17" height="16" />
<rect x="118" y="198" width="17" height="17" />
<rect x="118" y="210" width="17" height="16" />
<rect x="73" y="187" width="17" height="16" />
<rect x="73" y="198" width="17" height="17" />
<rect x="73" y="210" width="17" height="16" />
<rect x="62" y="206" width="16" height="17" />
<rect x="118" y="232" width="17" height="17" />
<rect x="84" y="255" width="17" height="16" />
<rect x="96" y="255" width="16" height="16" />
<rect x="107" y="255" width="17" height="16" />
<rect x="153" y="221" width="16" height="16" />
<rect x="187" y="221" width="16" height="16" />
<rect x="232" y="198" width="16" height="17" />
<rect x="198" y="277" width="16" height="17" />
<rect x="175" y="266" width="17" height="16" />
<rect x="198" y="232" width="17" height="17" />
<rect x="221" y="255" width="16" height="16" />
<rect x="209" y="277" width="17" height="17" />
<rect x="209" y="243" width="17" height="17" />
<rect x="209" y="277" width="17" height="17" />
<rect x="209" y="243" width="17" height="17" />
<rect x="153" y="187" width="16" height="16" />
<rect x="243" y="255" width="17" height="16" />
<rect x="141" y="187" width="17" height="16" />
<rect x="141" y="198" width="17" height="17" />
<rect x="141" y="209" width="17" height="17" />
<rect x="141" y="221" width="17" height="16" />
<rect x="130" y="209" width="16" height="17" />
<rect x="130" y="198" width="16" height="17" />
<rect x="130" y="187" width="16" height="16" />
<rect x="130" y="175" width="16" height="17" />
<rect x="118" y="175" width="17" height="17" />
<rect x="107" y="175" width="17" height="17" />
<rect x="107" y="187" width="17" height="16" />
<rect x="107" y="198" width="17" height="17" />
<rect x="107" y="210" width="17" height="16" />
<rect x="107" y="221" width="17" height="16" />
<rect x="96" y="187" width="16" height="16" />
<rect x="96" y="198" width="16" height="17" />
<rect x="96" y="210" width="16" height="16" />
<rect x="96" y="221" width="16" height="16" />
<rect x="84" y="187" width="17" height="16" />
<rect x="84" y="198" width="17" height="17" />
<rect x="84" y="210" width="17" height="16" />
<rect x="84" y="221" width="17" height="16" />
<rect x="73" y="221" width="17" height="16" />
<rect x="62" y="217" width="16" height="17" />
<rect x="73" y="232" width="17" height="17" />
<rect x="73" y="244" width="17" height="16" />
<rect x="84" y="237" width="17" height="12" />
<rect x="96" y="232" width="16" height="17" />
<rect x="107" y="232" width="17" height="17" />
<rect x="84" y="244" width="17" height="16" />
<rect x="96" y="244" width="16" height="16" />
<rect x="107" y="244" width="17" height="16" />
<rect x="118" y="244" width="17" height="16" />
<rect x="118" y="255" width="17" height="16" />
<rect x="130" y="249" width="15" height="17" />
<rect x="153" y="198" width="16" height="17" />
<rect x="153" y="209" width="16" height="17" />
<rect x="164" y="187" width="16" height="16" />
<rect x="164" y="198" width="16" height="17" />
<rect x="164" y="209" width="16" height="17" />
<rect x="164" y="221" width="16" height="16" />
<rect x="175" y="187" width="17" height="16" />
<rect x="175" y="198" width="17" height="17" />
<rect x="175" y="209" width="17" height="17" />
<rect x="175" y="221" width="17" height="16" />
<rect x="187" y="187" width="16" height="16" />
<rect x="187" y="209" width="16" height="17" />
<rect x="198" y="187" width="16" height="16" />
<rect x="198" y="198" width="16" height="17" />
<rect x="198" y="209" width="16" height="17" />
<rect x="209" y="209" width="17" height="17" />
<rect x="232" y="209" width="16" height="17" />
<rect x="243" y="209" width="17" height="17" />
<rect x="232" y="221" width="16" height="16" />
<rect x="243" y="221" width="17" height="16" />
<rect x="232" y="232" width="16" height="16" />
<rect x="243" y="232" width="17" height="16" />
<rect x="232" y="243" width="16" height="17" />
<rect x="243" y="243" width="17" height="17" />
<rect x="243" y="266" width="17" height="16" />
<rect x="232" y="255" width="16" height="16" />
<rect x="232" y="266" width="16" height="16" />
<rect x="232" y="277" width="16" height="17" />
<rect x="232" y="289" width="16" height="11" />
<rect x="221" y="266" width="16" height="16" />
<rect x="221" y="277" width="16" height="17" />
<rect x="221" y="289" width="16" height="11" />
<rect x="209" y="255" width="17" height="16" />
<rect x="198" y="255" width="16" height="16" />
<rect x="198" y="266" width="16" height="16" />
<rect x="187" y="266" width="16" height="16" />
<rect x="175" y="255" width="17" height="16" />
<rect x="169" y="232" width="17" height="17" />
<rect x="221" y="243" width="16" height="17" />
<rect x="198" y="243" width="17" height="17" />
<rect x="221" y="221" width="16" height="16" />
<rect x="221" y="255" width="16" height="16" />
</g>
<g class="spawningMap-very-uncommon">
<rect x="147" y="98" width="17" height="16" />
<rect x="159" y="98" width="16" height="16" />
<rect x="181" y="97" width="17" height="16" />
<rect x="193" y="97" width="16" height="16" />
<rect x="204" y="97" width="17" height="16" />
<rect x="216" y="97" width="16" height="16" />
<rect x="227" y="97" width="17" height="16" />
<rect x="181" y="108" width="17" height="17" />
<rect x="193" y="108" width="16" height="17" />
<rect x="204" y="108" width="17" height="17" />
<rect x="216" y="108" width="16" height="17" />
<rect x="227" y="108" width="17" height="17" />
<rect x="181" y="119" width="17" height="17" />
<rect x="193" y="119" width="16" height="17" />
<rect x="204" y="119" width="17" height="17" />
<rect x="216" y="119" width="16" height="17" />
<rect x="227" y="119" width="17" height="17" />
<rect x="181" y="130" width="17" height="17" />
<rect x="193" y="130" width="16" height="17" />
<rect x="204" y="130" width="17" height="17" />
<rect x="216" y="130" width="16" height="17" />
<rect x="227" y="130" width="17" height="17" />
<rect x="181" y="142" width="17" height="16" />
<rect x="193" y="142" width="16" height="16" />
<rect x="204" y="142" width="17" height="16" />
<rect x="216" y="142" width="16" height="16" />
<rect x="227" y="142" width="17" height="16" />
<rect x="159" y="142" width="16" height="16" />
<rect x="159" y="130" width="16" height="17" />
<rect x="216" y="176" width="16" height="16" />
<rect x="227" y="165" width="16" height="16" />
<rect x="242" y="96" width="17" height="17" />
<rect x="159" y="176" width="16" height="16" />
<rect x="106" y="164" width="16" height="17" />
<rect x="106" y="153" width="16" height="17" />
<rect x="106" y="133" width="16" height="14" />
<rect x="77" y="176" width="11" height="16" />
<rect x="55" y="216" width="12" height="16" />
<rect x="209" y="198" width="11" height="17" />
<rect x="215" y="187" width="15" height="12" />
<rect x="221" y="216" width="16" height="10" />
<rect x="209" y="266" width="17" height="12" />
<rect x="255" y="243" width="11" height="17" />
<rect x="209" y="273" width="17" height="9" />
<rect x="147" y="119" width="17" height="16" />
<rect x="147" y="130" width="17" height="17" />
<rect x="147" y="109" width="17" height="16" />
<rect x="159" y="108" width="16" height="16" />
<rect x="170" y="130" width="17" height="17" />
<rect x="170" y="119" width="17" height="16" />
<rect x="170" y="108" width="17" height="16" />
<rect x="56" y="43" width="10" height="9" />
<rect x="255" y="243" width="11" height="17" />
<rect x="170" y="142" width="17" height="16" />
<rect x="170" y="165" width="17" height="16" />
<rect x="181" y="153" width="17" height="17" />
<rect x="181" y="165" width="17" height="16" />
<rect x="181" y="176" width="17" height="16" />
<rect x="193" y="153" width="16" height="17" />
<rect x="193" y="165" width="16" height="16" />
<rect x="193" y="176" width="16" height="16" />
<rect x="204" y="153" width="17" height="17" />
<rect x="204" y="165" width="17" height="16" />
<rect x="204" y="176" width="17" height="16" />
<rect x="216" y="153" width="16" height="17" />
<rect x="216" y="165" width="16" height="16" />
<rect x="227" y="153" width="16" height="17" />
<rect x="242" y="153" width="17" height="17" />
<rect x="242" y="142" width="17" height="16" />
<rect x="242" y="130" width="17" height="17" />
<rect x="242" y="119" width="17" height="17" />
<rect x="242" y="108" width="17" height="16" />
<rect x="170" y="153" width="17" height="17" />
<rect x="159" y="153" width="16" height="17" />
<rect x="159" y="164" width="16" height="17" />
<rect x="147" y="164" width="17" height="17" />
<rect x="117" y="153" width="17" height="17" />
<rect x="117" y="142" width="17" height="16" />
<rect x="106" y="142" width="16" height="16" />
<rect x="95" y="142" width="16" height="16" />
<rect x="95" y="153" width="16" height="17" />
<rect x="95" y="165" width="16" height="16" />
<rect x="95" y="176" width="16" height="16" />
<rect x="83" y="176" width="17" height="16" />
<rect x="83" y="165" width="17" height="16" />
<rect x="83" y="153" width="17" height="17" />
<rect x="78" y="153" width="10" height="17" />
<rect x="72" y="165" width="16" height="16" />
<rect x="140" y="136" width="16" height="16" />
<rect x="117" y="164" width="17" height="17" />
<rect x="159" y="119" width="16" height="16" />
<rect x="129" y="139" width="16" height="16" />
<rect x="226" y="198" width="11" height="17" />
<rect x="224" y="187" width="13" height="16" />
<rect x="187" y="259" width="16" height="12" />
<rect x="171" y="243" width="15" height="17" />
<rect x="226" y="232" width="11" height="17" />
<rect x="209" y="187" width="11" height="16" />
<rect x="221" y="209" width="14" height="12" />
</g>
<g class="spawningMap-uncommon">
<rect x="134" y="274" width="8" height="9" />
<rect x="131" y="274" width="8" height="9" />
<rect x="131" y="278" width="10" height="9" />
<rect x="61" y="38" width="10" height="8" />
<rect x="159" y="187" width="10" height="11" />
<rect x="232" y="192" width="11" height="11" />
<rect x="243" y="277" width="10" height="11" />
<rect x="221" y="160" width="8" height="9" />
<rect x="170" y="176" width="17" height="10" />
<rect x="55" y="38" width="8" height="10" />
<rect x="61" y="41" width="8" height="10" />
<rect x="63" y="41" width="8" height="9" />
<rect x="97" y="117" width="16" height="16" />
<rect x="108" y="117" width="16" height="16" />
<rect x="119" y="117" width="16" height="16" />
<rect x="119" y="128" width="16" height="15" />
<rect x="130" y="138" width="16" height="16" />
<rect x="119" y="138" width="16" height="16" />
<rect x="119" y="149" width="16" height="16" />
<rect x="119" y="159" width="16" height="16" />
<rect x="108" y="159" width="16" height="16" />
<rect x="108" y="149" width="16" height="16" />
<rect x="108" y="128" width="16" height="15" />
<rect x="108" y="138" width="16" height="16" />
<rect x="130" y="149" width="16" height="16" />
<rect x="141" y="149" width="16" height="16" />
<rect x="152" y="149" width="16" height="16" />
<rect x="163" y="149" width="16" height="16" />
<rect x="163" y="159" width="16" height="16" />
<rect x="163" y="170" width="16" height="16" />
<rect x="174" y="170" width="16" height="16" />
<rect x="174" y="181" width="16" height="16" />
<rect x="170" y="191" width="16" height="16" />
<rect x="130" y="128" width="16" height="15" />
<rect x="170" y="202" width="16" height="16" />
<rect x="181" y="202" width="16" height="16" />
<rect x="181" y="191" width="16" height="16" />
<rect x="192" y="186" width="16" height="16" />
<rect x="189" y="176" width="16" height="16" />
<rect x="189" y="165" width="16" height="16" />
<rect x="159" y="213" width="16" height="15" />
<rect x="159" y="202" width="16" height="16" />
<rect x="141" y="128" width="16" height="15" />
<rect x="148" y="213" width="16" height="15" />
<rect x="137" y="213" width="16" height="15" />
<rect x="126" y="213" width="16" height="15" />
<rect x="126" y="202" width="16" height="16" />
<rect x="137" y="202" width="16" height="16" />
<rect x="148" y="202" width="16" height="16" />
<rect x="148" y="191" width="16" height="16" />
<rect x="148" y="181" width="16" height="16" />
<rect x="148" y="170" width="16" height="16" />
<rect x="148" y="160" width="16" height="15" />
<rect x="141" y="138" width="16" height="16" />
<rect x="137" y="160" width="16" height="15" />
<rect x="137" y="170" width="16" height="16" />
<rect x="137" y="181" width="16" height="16" />
<rect x="126" y="181" width="16" height="16" />
<rect x="115" y="181" width="16" height="16" />
<rect x="104" y="181" width="16" height="16" />
<rect x="104" y="191" width="16" height="16" />
<rect x="115" y="191" width="16" height="16" />
<rect x="126" y="191" width="16" height="16" />
<rect x="55" y="33" width="8" height="10" />
</g>
<g class="spawningMap-common">
<rect x="209" y="157" width="8" height="8" />
<rect x="211" y="158" width="8" height="8" />
<rect x="131" y="281" width="7" height="9" />
<rect x="203" y="289" width="11" height="8" />
<rect x="207" y="165" width="8" height="8" />
<rect x="218" y="289" width="8" height="11" />
</g>
<g class="spawningMap-very-common">
<rect x="208" y="162" width="7" height="7" />
<rect x="209" y="162" width="6" height="6" />
<rect x="209" y="161" width="7" height="6" />
<rect x="207" y="156" width="8" height="7" />
<rect x="207" y="154" width="6" height="7" />
<rect x="208" y="151" width="8" height="7" />
<rect x="213" y="149" width="8" height="7" />
<rect x="214" y="147" width="7" height="8" />
<rect x="214" y="154" width="8" height="7" />
<rect x="215" y="150" width="7" height="8" />
<rect x="209" y="158" width="8" height="7" />
<rect x="211" y="153" width="7" height="7" />
<rect x="213" y="153" width="7" height="7" />
<rect x="208" y="154" width="7" height="7" />
<rect x="220" y="162" width="7" height="7" />
<rect x="219" y="162" width="7" height="7" />
<rect x="219" y="162" width="7" height="6" />
<rect x="219" y="161" width="7" height="6" />
<rect x="219" y="160" width="6" height="7" />
<rect x="219" y="159" width="6" height="7" />
<rect x="219" y="158" width="7" height="7" />
<rect x="223" y="158" width="7" height="7" />
<rect x="224" y="158" width="6" height="7" />
<rect x="224" y="158" width="7" height="7" />
<rect x="225" y="158" width="7" height="7" />
<rect x="225" y="159" width="7" height="6" />
<rect x="225" y="159" width="6" height="7" />
<rect x="224" y="160" width="7" height="6" />
<rect x="224" y="160" width="6" height="7" />
<rect x="224" y="161" width="7" height="7" />
<rect x="223" y="162" width="7" height="7" />
<rect x="222" y="163" width="7" height="6" />
<rect x="226" y="147" width="7" height="7" />
<rect x="212" y="144" width="7" height="6" />
<rect x="212" y="145" width="7" height="6" />
<rect x="212" y="145" width="6" height="7" />
<rect x="212" y="146" width="6" height="7" />
<rect x="211" y="147" width="7" height="7" />
<rect x="211" y="150" width="6" height="7" />
<rect x="142" y="270" width="7" height="7" />
<rect x="140" y="273" width="7" height="9" />
<rect x="141" y="271" width="7" height="7" />
<rect x="141" y="273" width="6" height="6" />
<rect x="140" y="269" width="7" height="6" />
<rect x="139" y="269" width="7" height="8" />
<rect x="139" y="271" width="7" height="7" />
<rect x="138" y="272" width="7" height="7" />
<rect x="137" y="272" width="7" height="7" />
<rect x="136" y="273" width="7" height="7" />
<rect x="132" y="283" width="8" height="7" />
<rect x="131" y="284" width="8" height="8" />
<rect x="131" y="286" width="8" height="7" />
<rect x="129" y="287" width="8" height="8" />
<rect x="133" y="287" width="8" height="8" />
<rect x="136" y="283" width="8" height="8" />
<rect x="141" y="282" width="8" height="7" />
<rect x="140" y="282" width="7" height="7" />
<rect x="142" y="285" width="7" height="7" />
<rect x="143" y="286" width="8" height="8" />
<rect x="143" y="285" width="8" height="7" />
<rect x="143" y="283" width="8" height="8" />
<rect x="145" y="287" width="8" height="7" />
<rect x="145" y="285" width="8" height="8" />
<rect x="145" y="283" width="7" height="8" />
<rect x="140" y="289" width="7" height="8" />
<rect x="138" y="291" width="8" height="7" />
<rect x="140" y="291" width="8" height="7" />
<rect x="139" y="293" width="8" height="7" />
<rect x="139" y="294" width="8" height="6" />
<rect x="144" y="293" width="8" height="7" />
<rect x="144" y="295" width="8" height="5" />
<rect x="142" y="296" width="8" height="4" />
<rect x="141" y="297" width="8" height="3" />
<rect x="141" y="299" width="8" height="1" />
<rect x="149" y="299" width="8" height="1" />
<rect x="151" y="298" width="8" height="2" />
<rect x="151" y="297" width="8" height="3" />
<rect x="151" y="295" width="8" height="5" />
<rect x="153" y="294" width="8" height="6" />
<rect x="153" y="293" width="7" height="7" />
<rect x="151" y="292" width="7" height="7" />
<rect x="149" y="295" width="8" height="5" />
<rect x="149" y="293" width="8" height="7" />
<rect x="147" y="293" width="8" height="7" />
<rect x="148" y="291" width="8" height="8" />
<rect x="147" y="290" width="8" height="7" />
<rect x="147" y="288" width="8" height="7" />
<rect x="148" y="286" width="7" height="8" />
<rect x="131" y="290" width="8" height="7" />
<rect x="132" y="292" width="7" height="7" />
<rect x="132" y="293" width="7" height="7" />
<rect x="146" y="297" width="8" height="3" />
<rect x="151" y="293" width="8" height="7" />
<rect x="70" y="247" width="8" height="8" />
<rect x="225" y="148" width="7" height="8" />
<rect x="228" y="148" width="6" height="8" />
<rect x="208" y="163" width="7" height="7" />
<rect x="185" y="167" width="9" height="16" />
<rect x="170" y="213" width="16" height="9" />
</g>
</g>
</svg>