<?xml version="1.0" encoding="utf-8"?>
<svg xmlns="http://www.w3.org/2000/svg" width="300" height="300"
        viewBox="0 0 300 300" class="creatureMap" style="position:absolute;">
    <defs>
        <filter id="blur" x="-30%" y="-30%" width="160%" height="160%">
            <feGaussianBlur stdDeviation="3" />
        </filter>
        <pattern id="pattern-untameable" width="10" height="10" patternTransform="rotate(135)" patternUnits="userSpaceOnUse">
            <rect width="4" height="10" fill="black"></rect>
        </pattern>
        <filter id="groupStroke">
            <feFlood result="outsideColor" flood-color="black"/>
            <feMorphology in="SourceAlpha" operator="dilate" radius="2"/>
            <feComposite result="strokeoutline1" in="outsideColor" operator="in"/>
            <feComposite result="strokeoutline2" in="strokeoutline1" in2="SourceAlpha" operator="out"/>
            <feGaussianBlur in="strokeoutline2" result="strokeblur" stdDeviation="1"/>
        </filter>
        <style>
            .spawningMap-very-common { fill: #0F0; }
            .spawningMap-common { fill: #B2FF00; }
            .spawningMap-uncommon { fill: #FF0; }
            .spawningMap-very-uncommon { fill: #FC0; }
            .spawningMap-rare { fill: #F60; }
            .spawningMap-very-rare { fill: #F00; }
            .spawning-map-point { stroke:black; stroke-width:1; }
        </style>
    </defs>

<g filter="url(#blur)" opacity="0.7">
<g class="spawningMap-rare">
<rect x="123" y="124" width="16" height="17" />
<rect x="84" y="220" width="17" height="16" />
<rect x="107" y="220" width="16" height="16" />
<rect x="96" y="209" width="16" height="16" />
<rect x="96" y="197" width="16" height="17" />
<rect x="96" y="186" width="16" height="16" />
<rect x="96" y="220" width="16" height="16" />
<rect x="84" y="209" width="17" height="16" />
<rect x="84" y="197" width="17" height="17" />
<rect x="84" y="186" width="17" height="16" />
<rect x="164" y="220" width="16" height="16" />
<rect x="152" y="220" width="17" height="16" />
<rect x="141" y="220" width="16" height="16" />
<rect x="130" y="220" width="16" height="16" />
<rect x="73" y="220" width="16" height="16" />
<rect x="61" y="220" width="17" height="16" />
<rect x="107" y="231" width="16" height="17" />
<rect x="130" y="209" width="16" height="16" />
<rect x="130" y="197" width="16" height="17" />
<rect x="118" y="209" width="17" height="16" />
<rect x="96" y="231" width="16" height="17" />
<rect x="84" y="233" width="17" height="17" />
<rect x="73" y="231" width="16" height="17" />
<rect x="61" y="231" width="17" height="17" />
<rect x="107" y="243" width="16" height="16" />
<rect x="96" y="243" width="16" height="16" />
<rect x="84" y="243" width="17" height="16" />
<rect x="118" y="197" width="17" height="17" />
<rect x="73" y="243" width="16" height="16" />
<rect x="118" y="186" width="17" height="16" />
<rect x="118" y="175" width="17" height="16" />
<rect x="73" y="209" width="16" height="16" />
<rect x="73" y="197" width="16" height="17" />
<rect x="73" y="186" width="16" height="16" />
<rect x="61" y="209" width="17" height="16" />
<rect x="198" y="197" width="16" height="17" />
<rect x="186" y="197" width="17" height="17" />
<rect x="175" y="197" width="17" height="17" />
<rect x="198" y="186" width="16" height="16" />
<rect x="186" y="186" width="17" height="16" />
<rect x="175" y="186" width="17" height="16" />
<rect x="164" y="209" width="16" height="16" />
<rect x="164" y="197" width="16" height="17" />
<rect x="107" y="254" width="16" height="17" />
<rect x="96" y="254" width="16" height="17" />
<rect x="84" y="254" width="17" height="16" />
<rect x="107" y="265" width="16" height="17" />
<rect x="96" y="265" width="16" height="17" />
<rect x="118" y="231" width="17" height="17" />
<rect x="118" y="243" width="17" height="16" />
<rect x="118" y="254" width="17" height="17" />
<rect x="130" y="243" width="16" height="16" />
<rect x="186" y="251" width="16" height="16" />
<rect x="186" y="262" width="16" height="17" />
<rect x="186" y="273" width="16" height="17" />
<rect x="174" y="262" width="17" height="17" />
<rect x="170" y="234" width="17" height="17" />
<rect x="170" y="246" width="17" height="16" />
<rect x="198" y="220" width="16" height="16" />
<rect x="186" y="220" width="17" height="16" />
<rect x="198" y="209" width="16" height="16" />
<rect x="186" y="209" width="17" height="16" />
<rect x="175" y="209" width="17" height="16" />
<rect x="209" y="213" width="17" height="12" />
<rect x="225" y="205" width="11" height="17" />
<rect x="231" y="205" width="17" height="17" />
<rect x="242" y="205" width="17" height="17" />
<rect x="242" y="216" width="17" height="17" />
<rect x="242" y="228" width="17" height="16" />
<rect x="242" y="239" width="17" height="17" />
<rect x="254" y="246" width="12" height="17" />
<rect x="242" y="250" width="17" height="17" />
<rect x="242" y="262" width="17" height="16" />
<rect x="254" y="262" width="16" height="16" />
<rect x="242" y="273" width="17" height="17" />
<rect x="231" y="273" width="17" height="17" />
<rect x="231" y="285" width="17" height="15" />
<rect x="220" y="285" width="16" height="15" />
<rect x="208" y="285" width="17" height="15" />
<rect x="197" y="285" width="17" height="15" />
<rect x="197" y="273" width="17" height="17" />
<rect x="175" y="220" width="17" height="16" />
<rect x="197" y="262" width="17" height="16" />
<rect x="208" y="262" width="17" height="16" />
<rect x="220" y="262" width="16" height="16" />
<rect x="107" y="209" width="16" height="16" />
<rect x="220" y="250" width="16" height="17" />
<rect x="220" y="239" width="16" height="17" />
<rect x="231" y="239" width="16" height="17" />
<rect x="231" y="228" width="16" height="16" />
<rect x="231" y="216" width="16" height="17" />
<rect x="220" y="216" width="16" height="17" />
<rect x="220" y="228" width="16" height="16" />
<rect x="197" y="239" width="16" height="17" />
<rect x="197" y="251" width="16" height="16" />
<rect x="107" y="197" width="16" height="17" />
<rect x="208" y="251" width="17" height="16" />
<rect x="220" y="211" width="11" height="11" />
<rect x="254" y="246" width="12" height="17" />
<rect x="164" y="186" width="16" height="16" />
<rect x="152" y="209" width="17" height="16" />
<rect x="152" y="197" width="17" height="17" />
<rect x="152" y="186" width="17" height="16" />
<rect x="141" y="197" width="16" height="17" />
<rect x="141" y="186" width="16" height="16" />
<rect x="130" y="186" width="16" height="16" />
<rect x="130" y="175" width="16" height="16" />
<rect x="209" y="194" width="11" height="16" />
<rect x="209" y="186" width="17" height="13" />
<rect x="220" y="182" width="16" height="17" />
<rect x="226" y="194" width="10" height="16" />
<rect x="231" y="194" width="17" height="16" />
<rect x="209" y="205" width="11" height="13" />
<rect x="141" y="209" width="16" height="16" />
<rect x="137" y="202" width="17" height="17" />
<rect x="149" y="202" width="16" height="17" />
<rect x="111" y="120" width="17" height="16" />
<rect x="111" y="131" width="17" height="17" />
<rect x="123" y="136" width="16" height="16" />
<rect x="107" y="186" width="16" height="16" />
<rect x="107" y="175" width="16" height="16" />
<rect x="131" y="278" width="10" height="9" />
</g>
<g class="spawningMap-very-uncommon">
<rect x="181" y="273" width="10" height="10" />
<rect x="134" y="274" width="8" height="9" />
<rect x="131" y="274" width="8" height="9" />
<rect x="131" y="281" width="7" height="9" />
</g>
<g class="spawningMap-uncommon">
<rect x="140" y="273" width="7" height="9" />
<rect x="132" y="283" width="8" height="7" />
<rect x="131" y="284" width="8" height="8" />
<rect x="131" y="286" width="8" height="7" />
<rect x="129" y="287" width="8" height="8" />
<rect x="133" y="287" width="8" height="8" />
<rect x="136" y="283" width="8" height="8" />
<rect x="141" y="282" width="8" height="7" />
<rect x="142" y="285" width="7" height="7" />
<rect x="143" y="286" width="8" height="8" />
<rect x="143" y="285" width="8" height="7" />
<rect x="143" y="283" width="8" height="8" />
<rect x="145" y="287" width="8" height="7" />
<rect x="145" y="285" width="8" height="8" />
<rect x="140" y="289" width="7" height="8" />
<rect x="138" y="291" width="8" height="7" />
<rect x="140" y="291" width="8" height="7" />
<rect x="139" y="293" width="8" height="7" />
<rect x="139" y="294" width="8" height="6" />
<rect x="144" y="293" width="8" height="7" />
<rect x="144" y="295" width="8" height="5" />
<rect x="142" y="296" width="8" height="4" />
<rect x="141" y="297" width="8" height="3" />
<rect x="141" y="299" width="8" height="1" />
<rect x="149" y="299" width="8" height="1" />
<rect x="151" y="298" width="8" height="2" />
<rect x="151" y="297" width="8" height="3" />
<rect x="151" y="295" width="8" height="5" />
<rect x="153" y="294" width="8" height="6" />
<rect x="153" y="293" width="7" height="7" />
<rect x="151" y="292" width="7" height="7" />
<rect x="149" y="295" width="8" height="5" />
<rect x="149" y="293" width="8" height="7" />
<rect x="147" y="293" width="8" height="7" />
<rect x="148" y="291" width="8" height="8" />
<rect x="147" y="290" width="8" height="7" />
<rect x="147" y="288" width="8" height="7" />
<rect x="148" y="286" width="7" height="8" />
<rect x="131" y="290" width="8" height="7" />
<rect x="132" y="292" width="7" height="7" />
<rect x="146" y="297" width="8" height="3" />
</g>
<g class="spawningMap-common">
<rect x="70" y="247" width="8" height="8" />
<rect x="142" y="270" width="7" height="7" />
<rect x="141" y="271" width="7" height="7" />
<rect x="139" y="269" width="7" height="8" />
<rect x="140" y="282" width="7" height="7" />
<rect x="145" y="283" width="7" height="8" />
<rect x="132" y="293" width="7" height="7" />
<rect x="151" y="293" width="8" height="7" />
</g>
<g class="spawningMap-very-common">
<rect x="141" y="273" width="6" height="6" />
<rect x="140" y="269" width="7" height="6" />
<rect x="139" y="271" width="7" height="7" />
<rect x="138" y="272" width="7" height="7" />
<rect x="137" y="272" width="7" height="7" />
<rect x="136" y="273" width="7" height="7" />
</g>
</g>
<g filter="url(#groupStroke)" opacity="0.8">
<rect x="131" y="278" width="10" height="9"/>
<rect x="134" y="274" width="8" height="9"/>
<rect x="131" y="274" width="8" height="9"/>
<rect x="131" y="281" width="7" height="9"/>
<rect x="140" y="273" width="7" height="9"/>
<rect x="132" y="283" width="8" height="7"/>
<rect x="131" y="284" width="8" height="8"/>
<rect x="131" y="286" width="8" height="7"/>
<rect x="129" y="287" width="8" height="8"/>
<rect x="133" y="287" width="8" height="8"/>
<rect x="136" y="283" width="8" height="8"/>
<rect x="141" y="282" width="8" height="7"/>
<rect x="142" y="285" width="7" height="7"/>
<rect x="143" y="286" width="8" height="8"/>
<rect x="143" y="285" width="8" height="7"/>
<rect x="143" y="283" width="8" height="8"/>
<rect x="145" y="287" width="8" height="7"/>
<rect x="145" y="285" width="8" height="8"/>
<rect x="140" y="289" width="7" height="8"/>
<rect x="138" y="291" width="8" height="7"/>
<rect x="140" y="291" width="8" height="7"/>
<rect x="139" y="293" width="8" height="7"/>
<rect x="139" y="294" width="8" height="6"/>
<rect x="144" y="293" width="8" height="7"/>
<rect x="144" y="295" width="8" height="5"/>
<rect x="142" y="296" width="8" height="4"/>
<rect x="141" y="297" width="8" height="3"/>
<rect x="141" y="299" width="8" height="1"/>
<rect x="149" y="299" width="8" height="1"/>
<rect x="151" y="298" width="8" height="2"/>
<rect x="151" y="297" width="8" height="3"/>
<rect x="151" y="295" width="8" height="5"/>
<rect x="153" y="294" width="8" height="6"/>
<rect x="153" y="293" width="7" height="7"/>
<rect x="151" y="292" width="7" height="7"/>
<rect x="149" y="295" width="8" height="5"/>
<rect x="149" y="293" width="8" height="7"/>
<rect x="147" y="293" width="8" height="7"/>
<rect x="148" y="291" width="8" height="8"/>
<rect x="147" y="290" width="8" height="7"/>
<rect x="147" y="288" width="8" height="7"/>
<rect x="148" y="286" width="7" height="8"/>
<rect x="131" y="290" width="8" height="7"/>
<rect x="132" y="292" width="7" height="7"/>
<rect x="146" y="297" width="8" height="3"/>
<rect x="142" y="270" width="7" height="7"/>
<rect x="141" y="271" width="7" height="7"/>
<rect x="139" y="269" width="7" height="8"/>
<rect x="140" y="282" width="7" height="7"/>
<rect x="145" y="283" width="7" height="8"/>
<rect x="132" y="293" width="7" height="7"/>
<rect x="151" y="293" width="8" height="7"/>
<rect x="141" y="273" width="6" height="6"/>
<rect x="140" y="269" width="7" height="6"/>
<rect x="139" y="271" width="7" height="7"/>
<rect x="138" y="272" width="7" height="7"/>
<rect x="137" y="272" width="7" height="7"/>
<rect x="136" y="273" width="7" height="7"/>
</g>
</svg>