<?xml version="1.0" encoding="utf-8"?>
<svg xmlns="http://www.w3.org/2000/svg" width="300" height="300" viewBox="0 0 300 300" class="creatureMap" style="position:absolute;">
    <defs>
        <filter id="blur" x="-30%" y="-30%" width="160%" height="160%">
            <feGaussianBlur stdDeviation="3" />
        </filter>
        <pattern id="pattern-untameable" width="10" height="10" patternTransform="rotate(135)" patternUnits="userSpaceOnUse">'
            <rect width="4" height="10" fill="black"></rect>
        </pattern>
        <filter id="groupStroke">
            <feFlood result="outsideColor" flood-color="black"/>
            <feMorphology in="SourceAlpha" operator="dilate" radius="2"/>
            <feComposite result="strokeoutline1" in="outsideColor" operator="in"/>
            <feComposite result="strokeoutline2" in="strokeoutline1" in2="SourceAlpha" operator="out"/>
            <feGaussianBlur in="strokeoutline2" result="strokeblur" stdDeviation="1"/>
        </filter>
        <style>
            .spawningMap-very-common { fill: #0F0; }
            .spawningMap-common { fill: #B2FF00; }
            .spawningMap-uncommon { fill: #FF0; }
            .spawningMap-very-uncommon { fill: #FC0; }
            .spawningMap-rare { fill: #F60; }
            .spawningMap-very-rare { fill: #F00; }
            .spawning-map-point { stroke:black; stroke-width:1; }
        </style>
    </defs>

<g filter="url(#blur)" opacity="0.7">
<g class="spawningMap-rare">
<rect x="55" y="140" width="16" height="16" />
<rect x="66" y="129" width="15" height="16" />
<rect x="76" y="140" width="16" height="16" />
<rect x="66" y="151" width="15" height="15" />
<rect x="66" y="161" width="15" height="16" />
<rect x="76" y="161" width="16" height="16" />
<rect x="0" y="68" width="16" height="32" />
<rect x="0" y="39" width="16" height="32" />
<rect x="0" y="10" width="16" height="32" />
<rect x="13" y="68" width="32" height="32" />
<rect x="13" y="39" width="32" height="32" />
<rect x="13" y="10" width="32" height="32" />
<rect x="42" y="68" width="32" height="32" />
<rect x="42" y="39" width="32" height="32" />
<rect x="42" y="10" width="32" height="32" />
<rect x="71" y="68" width="32" height="32" />
<rect x="71" y="39" width="32" height="32" />
<rect x="71" y="10" width="32" height="32" />
<rect x="42" y="0" width="32" height="13" />
<rect x="71" y="0" width="32" height="13" />
<rect x="13" y="0" width="32" height="13" />
</g>
</g>
</svg>