<?xml version="1.0" encoding="utf-8"?>
<svg xmlns="http://www.w3.org/2000/svg" width="300" height="300"
        viewBox="0 0 300 300" class="creatureMap" style="position:absolute;">
    <defs>
        <filter id="blur" x="-30%" y="-30%" width="160%" height="160%">
            <feGaussianBlur stdDeviation="3" />
        </filter>
        <pattern id="pattern-untameable" width="10" height="10" patternTransform="rotate(135)" patternUnits="userSpaceOnUse">
            <rect width="4" height="10" fill="black"></rect>
        </pattern>
        <filter id="groupStroke">
            <feFlood result="outsideColor" flood-color="black"/>
            <feMorphology in="SourceAlpha" operator="dilate" radius="2"/>
            <feComposite result="strokeoutline1" in="outsideColor" operator="in"/>
            <feComposite result="strokeoutline2" in="strokeoutline1" in2="SourceAlpha" operator="out"/>
            <feGaussianBlur in="strokeoutline2" result="strokeblur" stdDeviation="1"/>
        </filter>
        <style>
            .spawningMap-very-common { fill: #0F0; }
            .spawningMap-common { fill: #B2FF00; }
            .spawningMap-uncommon { fill: #FF0; }
            .spawningMap-very-uncommon { fill: #FC0; }
            .spawningMap-rare { fill: #F60; }
            .spawningMap-very-rare { fill: #F00; }
            .spawning-map-point { stroke:black; stroke-width:1; }
        </style>
    </defs>

<g filter="url(#blur)" opacity="0.7">
<g class="spawningMap-very-rare">
<rect x="13" y="182" width="16" height="16" />
<rect x="2" y="182" width="16" height="16" />
<rect x="2" y="193" width="16" height="15" />
<rect x="2" y="203" width="16" height="16" />
<rect x="2" y="214" width="16" height="15" />
<rect x="2" y="224" width="16" height="16" />
<rect x="2" y="235" width="16" height="15" />
<rect x="2" y="245" width="16" height="16" />
<rect x="2" y="256" width="16" height="15" />
<rect x="34" y="256" width="16" height="15" />
<rect x="55" y="235" width="16" height="15" />
<rect x="66" y="235" width="15" height="15" />
<rect x="44" y="256" width="16" height="15" />
<rect x="44" y="266" width="16" height="16" />
<rect x="55" y="266" width="16" height="16" />
<rect x="55" y="277" width="16" height="15" />
<rect x="55" y="256" width="16" height="15" />
<rect x="139" y="235" width="16" height="15" />
<rect x="139" y="245" width="16" height="16" />
<rect x="150" y="235" width="15" height="15" />
<rect x="150" y="245" width="15" height="16" />
<rect x="150" y="256" width="15" height="15" />
<rect x="160" y="256" width="16" height="15" />
<rect x="55" y="245" width="16" height="16" />
<rect x="160" y="245" width="16" height="16" />
<rect x="160" y="235" width="16" height="15" />
<rect x="160" y="266" width="16" height="16" />
<rect x="160" y="277" width="16" height="15" />
<rect x="171" y="287" width="15" height="13" />
<rect x="66" y="245" width="15" height="16" />
<rect x="171" y="266" width="15" height="16" />
<rect x="171" y="256" width="15" height="15" />
<rect x="171" y="245" width="15" height="16" />
<rect x="171" y="235" width="15" height="15" />
<rect x="66" y="256" width="15" height="15" />
<rect x="181" y="287" width="16" height="13" />
<rect x="76" y="266" width="16" height="16" />
<rect x="76" y="256" width="16" height="15" />
<rect x="76" y="245" width="16" height="16" />
<rect x="76" y="235" width="16" height="15" />
<rect x="87" y="235" width="15" height="15" />
<rect x="87" y="245" width="15" height="16" />
<rect x="87" y="256" width="15" height="15" />
<rect x="87" y="266" width="15" height="16" />
<rect x="97" y="256" width="16" height="15" />
<rect x="97" y="245" width="16" height="16" />
<rect x="97" y="235" width="16" height="15" />
<rect x="108" y="245" width="15" height="16" />
<rect x="108" y="256" width="15" height="15" />
<rect x="108" y="266" width="15" height="16" />
<rect x="118" y="266" width="16" height="16" />
<rect x="118" y="256" width="16" height="15" />
<rect x="129" y="256" width="15" height="15" />
<rect x="118" y="245" width="16" height="16" />
<rect x="129" y="245" width="15" height="16" />
<rect x="118" y="235" width="16" height="15" />
<rect x="129" y="235" width="15" height="15" />
<rect x="13" y="45" width="16" height="16" />
<rect x="23" y="3" width="16" height="16" />
<rect x="34" y="3" width="16" height="16" />
<rect x="44" y="3" width="16" height="16" />
<rect x="55" y="3" width="16" height="16" />
<rect x="13" y="14" width="16" height="15" />
<rect x="2" y="14" width="16" height="15" />
<rect x="23" y="14" width="16" height="15" />
<rect x="34" y="14" width="16" height="15" />
<rect x="44" y="14" width="16" height="15" />
<rect x="55" y="14" width="16" height="15" />
<rect x="55" y="24" width="16" height="16" />
<rect x="44" y="24" width="16" height="16" />
<rect x="34" y="24" width="16" height="16" />
<rect x="23" y="24" width="16" height="16" />
<rect x="13" y="24" width="16" height="16" />
<rect x="2" y="24" width="16" height="16" />
<rect x="2" y="35" width="16" height="15" />
<rect x="13" y="35" width="16" height="15" />
<rect x="2" y="56" width="16" height="16" />
<rect x="13" y="56" width="16" height="16" />
<rect x="23" y="56" width="16" height="16" />
<rect x="55" y="56" width="16" height="16" />
<rect x="55" y="45" width="16" height="16" />
<rect x="55" y="35" width="16" height="15" />
<rect x="66" y="14" width="15" height="15" />
<rect x="66" y="3" width="15" height="16" />
<rect x="66" y="24" width="15" height="16" />
<rect x="76" y="24" width="16" height="16" />
<rect x="97" y="224" width="16" height="16" />
<rect x="76" y="35" width="16" height="15" />
<rect x="66" y="35" width="15" height="15" />
<rect x="66" y="45" width="15" height="16" />
<rect x="76" y="45" width="16" height="16" />
<rect x="87" y="45" width="15" height="16" />
<rect x="108" y="56" width="15" height="16" />
<rect x="97" y="56" width="16" height="16" />
<rect x="87" y="56" width="15" height="16" />
<rect x="76" y="56" width="16" height="16" />
<rect x="66" y="56" width="15" height="16" />
<rect x="118" y="45" width="16" height="16" />
<rect x="118" y="56" width="16" height="16" />
<rect x="129" y="56" width="15" height="16" />
<rect x="129" y="45" width="15" height="16" />
<rect x="87" y="224" width="15" height="16" />
<rect x="139" y="45" width="16" height="16" />
<rect x="139" y="56" width="16" height="16" />
<rect x="150" y="45" width="15" height="16" />
<rect x="150" y="56" width="15" height="16" />
<rect x="160" y="45" width="16" height="16" />
<rect x="160" y="35" width="16" height="15" />
<rect x="160" y="24" width="16" height="16" />
<rect x="171" y="35" width="15" height="15" />
<rect x="171" y="45" width="15" height="16" />
<rect x="2" y="266" width="16" height="16" />
<rect x="118" y="224" width="16" height="16" />
<rect x="108" y="224" width="15" height="16" />
<rect x="286" y="119" width="14" height="16" />
<rect x="108" y="235" width="15" height="15" />
<rect x="234" y="108" width="15" height="16" />
<rect x="244" y="108" width="16" height="16" />
<rect x="265" y="108" width="16" height="16" />
<rect x="276" y="108" width="15" height="16" />
<rect x="2" y="277" width="16" height="15" />
<rect x="255" y="108" width="15" height="16" />
<rect x="223" y="108" width="16" height="16" />
<rect x="213" y="108" width="15" height="16" />
<rect x="202" y="108" width="16" height="16" />
<rect x="192" y="108" width="15" height="16" />
<rect x="181" y="108" width="16" height="16" />
<rect x="171" y="108" width="15" height="16" />
<rect x="171" y="98" width="15" height="16" />
<rect x="181" y="98" width="16" height="16" />
<rect x="192" y="98" width="15" height="16" />
<rect x="202" y="98" width="16" height="16" />
<rect x="181" y="66" width="16" height="16" />
<rect x="181" y="87" width="16" height="16" />
<rect x="171" y="87" width="15" height="16" />
<rect x="171" y="77" width="15" height="16" />
<rect x="181" y="77" width="16" height="16" />
<rect x="192" y="87" width="15" height="16" />
<rect x="171" y="56" width="15" height="16" />
<rect x="2" y="287" width="16" height="13" />
<rect x="171" y="66" width="15" height="16" />
<rect x="160" y="77" width="16" height="16" />
<rect x="160" y="66" width="16" height="16" />
<rect x="150" y="66" width="15" height="16" />
<rect x="139" y="66" width="16" height="16" />
<rect x="13" y="277" width="16" height="15" />
<rect x="129" y="66" width="15" height="16" />
<rect x="118" y="66" width="16" height="16" />
<rect x="118" y="77" width="16" height="16" />
<rect x="129" y="77" width="15" height="16" />
<rect x="139" y="77" width="16" height="16" />
<rect x="150" y="77" width="15" height="16" />
<rect x="118" y="87" width="16" height="16" />
<rect x="129" y="87" width="15" height="16" />
<rect x="139" y="87" width="16" height="16" />
<rect x="150" y="87" width="15" height="16" />
<rect x="13" y="266" width="16" height="16" />
<rect x="160" y="87" width="16" height="16" />
<rect x="160" y="98" width="16" height="16" />
<rect x="160" y="108" width="16" height="16" />
<rect x="150" y="98" width="15" height="16" />
<rect x="139" y="98" width="16" height="16" />
<rect x="129" y="98" width="15" height="16" />
<rect x="118" y="98" width="16" height="16" />
<rect x="108" y="98" width="15" height="16" />
<rect x="108" y="87" width="15" height="16" />
<rect x="108" y="77" width="15" height="16" />
<rect x="108" y="66" width="15" height="16" />
<rect x="97" y="66" width="16" height="16" />
<rect x="87" y="66" width="15" height="16" />
<rect x="76" y="66" width="16" height="16" />
<rect x="66" y="66" width="15" height="16" />
<rect x="55" y="66" width="16" height="16" />
<rect x="55" y="77" width="16" height="16" />
<rect x="55" y="87" width="16" height="16" />
<rect x="55" y="98" width="16" height="16" />
<rect x="55" y="108" width="16" height="16" />
<rect x="66" y="108" width="15" height="16" />
<rect x="76" y="108" width="16" height="16" />
<rect x="87" y="108" width="15" height="16" />
<rect x="97" y="98" width="16" height="16" />
<rect x="97" y="87" width="16" height="16" />
<rect x="97" y="77" width="16" height="16" />
<rect x="87" y="77" width="15" height="16" />
<rect x="76" y="77" width="16" height="16" />
<rect x="66" y="77" width="15" height="16" />
<rect x="13" y="256" width="16" height="15" />
<rect x="66" y="87" width="15" height="16" />
<rect x="66" y="98" width="15" height="16" />
<rect x="76" y="98" width="16" height="16" />
<rect x="87" y="98" width="15" height="16" />
<rect x="87" y="87" width="15" height="16" />
<rect x="76" y="87" width="16" height="16" />
<rect x="44" y="108" width="16" height="16" />
<rect x="34" y="108" width="16" height="16" />
<rect x="2" y="98" width="16" height="16" />
<rect x="13" y="98" width="16" height="16" />
<rect x="23" y="98" width="16" height="16" />
<rect x="34" y="98" width="16" height="16" />
<rect x="44" y="98" width="16" height="16" />
<rect x="44" y="87" width="16" height="16" />
<rect x="34" y="87" width="16" height="16" />
<rect x="23" y="87" width="16" height="16" />
<rect x="13" y="87" width="16" height="16" />
<rect x="2" y="77" width="16" height="16" />
<rect x="13" y="77" width="16" height="16" />
<rect x="23" y="77" width="16" height="16" />
<rect x="34" y="77" width="16" height="16" />
<rect x="44" y="77" width="16" height="16" />
<rect x="23" y="256" width="16" height="15" />
<rect x="44" y="66" width="16" height="16" />
<rect x="34" y="66" width="16" height="16" />
<rect x="23" y="66" width="16" height="16" />
<rect x="13" y="66" width="16" height="16" />
<rect x="2" y="66" width="16" height="16" />
<rect x="2" y="108" width="16" height="16" />
<rect x="2" y="119" width="16" height="16" />
<rect x="13" y="119" width="16" height="16" />
<rect x="23" y="119" width="16" height="16" />
<rect x="34" y="119" width="16" height="16" />
<rect x="44" y="119" width="16" height="16" />
<rect x="55" y="119" width="16" height="16" />
<rect x="55" y="161" width="16" height="16" />
<rect x="55" y="172" width="16" height="15" />
<rect x="44" y="172" width="16" height="15" />
<rect x="34" y="172" width="16" height="15" />
<rect x="23" y="172" width="16" height="15" />
<rect x="13" y="172" width="16" height="15" />
<rect x="2" y="172" width="16" height="15" />
<rect x="2" y="161" width="16" height="16" />
<rect x="2" y="151" width="16" height="15" />
<rect x="2" y="140" width="16" height="16" />
<rect x="2" y="129" width="16" height="16" />
<rect x="13" y="129" width="16" height="16" />
<rect x="23" y="129" width="16" height="16" />
<rect x="34" y="129" width="16" height="16" />
<rect x="44" y="129" width="16" height="16" />
<rect x="44" y="140" width="16" height="16" />
<rect x="44" y="151" width="16" height="15" />
<rect x="44" y="161" width="16" height="16" />
<rect x="34" y="161" width="16" height="16" />
<rect x="23" y="161" width="16" height="16" />
<rect x="13" y="161" width="16" height="16" />
<rect x="13" y="151" width="16" height="15" />
<rect x="13" y="140" width="16" height="16" />
<rect x="23" y="140" width="16" height="16" />
<rect x="34" y="140" width="16" height="16" />
<rect x="34" y="151" width="16" height="15" />
<rect x="23" y="151" width="16" height="15" />
<rect x="66" y="119" width="15" height="16" />
<rect x="23" y="266" width="16" height="16" />
<rect x="23" y="277" width="16" height="15" />
<rect x="66" y="172" width="15" height="15" />
<rect x="192" y="119" width="15" height="16" />
<rect x="202" y="119" width="16" height="16" />
<rect x="213" y="119" width="15" height="16" />
<rect x="223" y="119" width="16" height="16" />
<rect x="223" y="129" width="16" height="16" />
<rect x="202" y="172" width="16" height="15" />
<rect x="213" y="172" width="15" height="15" />
<rect x="223" y="172" width="16" height="15" />
<rect x="234" y="161" width="15" height="16" />
<rect x="234" y="172" width="15" height="15" />
<rect x="244" y="161" width="16" height="16" />
<rect x="255" y="161" width="15" height="16" />
<rect x="255" y="172" width="15" height="15" />
<rect x="265" y="161" width="16" height="16" />
<rect x="276" y="161" width="15" height="16" />
<rect x="276" y="172" width="15" height="15" />
<rect x="244" y="151" width="16" height="15" />
<rect x="255" y="151" width="15" height="15" />
<rect x="265" y="151" width="16" height="15" />
<rect x="276" y="151" width="15" height="15" />
<rect x="286" y="140" width="14" height="16" />
<rect x="265" y="140" width="16" height="16" />
<rect x="255" y="140" width="15" height="16" />
<rect x="244" y="140" width="16" height="16" />
<rect x="234" y="129" width="15" height="16" />
<rect x="234" y="119" width="15" height="16" />
<rect x="244" y="119" width="16" height="16" />
<rect x="244" y="129" width="16" height="16" />
<rect x="255" y="119" width="15" height="16" />
<rect x="255" y="129" width="15" height="16" />
<rect x="265" y="129" width="16" height="16" />
<rect x="276" y="129" width="15" height="16" />
<rect x="286" y="129" width="14" height="16" />
<rect x="168" y="12" width="16" height="16" />
<rect x="34" y="266" width="16" height="16" />
<rect x="276" y="119" width="15" height="16" />
<rect x="265" y="119" width="16" height="16" />
<rect x="286" y="182" width="14" height="16" />
<rect x="202" y="182" width="16" height="16" />
<rect x="192" y="182" width="15" height="16" />
<rect x="181" y="182" width="16" height="16" />
<rect x="171" y="182" width="15" height="16" />
<rect x="171" y="193" width="15" height="15" />
<rect x="181" y="193" width="16" height="15" />
<rect x="181" y="203" width="16" height="16" />
<rect x="171" y="203" width="15" height="16" />
<rect x="171" y="214" width="15" height="15" />
<rect x="171" y="224" width="15" height="16" />
<rect x="160" y="224" width="16" height="16" />
<rect x="150" y="224" width="15" height="16" />
<rect x="139" y="224" width="16" height="16" />
<rect x="129" y="224" width="15" height="16" />
<rect x="118" y="214" width="16" height="15" />
<rect x="129" y="214" width="15" height="15" />
<rect x="139" y="214" width="16" height="15" />
<rect x="150" y="214" width="15" height="15" />
<rect x="160" y="214" width="16" height="15" />
<rect x="160" y="203" width="16" height="16" />
<rect x="150" y="203" width="15" height="16" />
<rect x="139" y="203" width="16" height="16" />
<rect x="129" y="203" width="15" height="16" />
<rect x="118" y="203" width="16" height="16" />
<rect x="118" y="193" width="16" height="15" />
<rect x="129" y="193" width="15" height="15" />
<rect x="139" y="193" width="16" height="15" />
<rect x="150" y="193" width="15" height="15" />
<rect x="160" y="193" width="16" height="15" />
<rect x="87" y="182" width="15" height="16" />
<rect x="76" y="182" width="16" height="16" />
<rect x="97" y="193" width="16" height="15" />
<rect x="108" y="193" width="15" height="15" />
<rect x="108" y="203" width="15" height="16" />
<rect x="97" y="203" width="16" height="16" />
<rect x="97" y="214" width="16" height="15" />
<rect x="108" y="214" width="15" height="15" />
<rect x="34" y="182" width="16" height="16" />
<rect x="23" y="182" width="16" height="16" />
</g>
<g class="spawningMap-rare">
<rect x="13" y="193" width="16" height="15" />
<rect x="13" y="245" width="16" height="16" />
<rect x="13" y="235" width="16" height="15" />
<rect x="23" y="235" width="16" height="15" />
<rect x="23" y="245" width="16" height="16" />
<rect x="34" y="245" width="16" height="16" />
<rect x="34" y="235" width="16" height="15" />
<rect x="44" y="235" width="16" height="15" />
<rect x="44" y="245" width="16" height="16" />
<rect x="2" y="45" width="16" height="16" />
<rect x="97" y="45" width="16" height="16" />
<rect x="108" y="45" width="15" height="16" />
<rect x="286" y="161" width="14" height="16" />
<rect x="23" y="108" width="16" height="16" />
<rect x="13" y="108" width="16" height="16" />
<rect x="244" y="172" width="16" height="15" />
<rect x="265" y="172" width="16" height="15" />
<rect x="286" y="151" width="14" height="15" />
<rect x="276" y="140" width="15" height="16" />
<rect x="66" y="182" width="15" height="16" />
<rect x="66" y="193" width="15" height="15" />
<rect x="76" y="193" width="16" height="15" />
<rect x="87" y="193" width="15" height="15" />
<rect x="87" y="203" width="15" height="16" />
<rect x="76" y="203" width="16" height="16" />
<rect x="66" y="203" width="15" height="16" />
<rect x="66" y="214" width="15" height="15" />
<rect x="76" y="214" width="16" height="15" />
<rect x="87" y="214" width="15" height="15" />
<rect x="76" y="224" width="16" height="16" />
<rect x="66" y="224" width="15" height="16" />
<rect x="55" y="224" width="16" height="16" />
<rect x="55" y="214" width="16" height="15" />
<rect x="55" y="203" width="16" height="16" />
<rect x="55" y="193" width="16" height="15" />
<rect x="55" y="182" width="16" height="16" />
<rect x="44" y="182" width="16" height="16" />
<rect x="44" y="193" width="16" height="15" />
<rect x="44" y="203" width="16" height="16" />
<rect x="44" y="214" width="16" height="15" />
<rect x="44" y="224" width="16" height="16" />
<rect x="34" y="224" width="16" height="16" />
<rect x="34" y="214" width="16" height="15" />
<rect x="34" y="203" width="16" height="16" />
<rect x="34" y="193" width="16" height="15" />
<rect x="23" y="193" width="16" height="15" />
<rect x="23" y="203" width="16" height="16" />
<rect x="23" y="214" width="16" height="15" />
<rect x="23" y="224" width="16" height="16" />
<rect x="13" y="224" width="16" height="16" />
<rect x="13" y="214" width="16" height="15" />
<rect x="13" y="203" width="16" height="16" />
</g>
</g>
<g fill="url(#pattern-untameable)" opacity="0.3">
<rect x="13" y="182" width="16" height="16"/>
<rect x="2" y="182" width="16" height="16"/>
<rect x="2" y="193" width="16" height="15"/>
<rect x="2" y="203" width="16" height="16"/>
<rect x="2" y="214" width="16" height="15"/>
<rect x="2" y="224" width="16" height="16"/>
<rect x="2" y="235" width="16" height="15"/>
<rect x="2" y="245" width="16" height="16"/>
<rect x="2" y="256" width="16" height="15"/>
<rect x="34" y="256" width="16" height="15"/>
<rect x="55" y="235" width="16" height="15"/>
<rect x="66" y="235" width="15" height="15"/>
<rect x="44" y="256" width="16" height="15"/>
<rect x="44" y="266" width="16" height="16"/>
<rect x="55" y="266" width="16" height="16"/>
<rect x="55" y="277" width="16" height="15"/>
<rect x="55" y="256" width="16" height="15"/>
<rect x="139" y="235" width="16" height="15"/>
<rect x="139" y="245" width="16" height="16"/>
<rect x="150" y="235" width="15" height="15"/>
<rect x="150" y="245" width="15" height="16"/>
<rect x="150" y="256" width="15" height="15"/>
<rect x="160" y="256" width="16" height="15"/>
<rect x="55" y="245" width="16" height="16"/>
<rect x="160" y="245" width="16" height="16"/>
<rect x="160" y="235" width="16" height="15"/>
<rect x="160" y="266" width="16" height="16"/>
<rect x="160" y="277" width="16" height="15"/>
<rect x="171" y="287" width="15" height="13"/>
<rect x="66" y="245" width="15" height="16"/>
<rect x="171" y="266" width="15" height="16"/>
<rect x="171" y="256" width="15" height="15"/>
<rect x="171" y="245" width="15" height="16"/>
<rect x="171" y="235" width="15" height="15"/>
<rect x="66" y="256" width="15" height="15"/>
<rect x="181" y="287" width="16" height="13"/>
<rect x="76" y="266" width="16" height="16"/>
<rect x="76" y="256" width="16" height="15"/>
<rect x="76" y="245" width="16" height="16"/>
<rect x="76" y="235" width="16" height="15"/>
<rect x="87" y="235" width="15" height="15"/>
<rect x="87" y="245" width="15" height="16"/>
<rect x="87" y="256" width="15" height="15"/>
<rect x="87" y="266" width="15" height="16"/>
<rect x="97" y="256" width="16" height="15"/>
<rect x="97" y="245" width="16" height="16"/>
<rect x="97" y="235" width="16" height="15"/>
<rect x="108" y="245" width="15" height="16"/>
<rect x="108" y="256" width="15" height="15"/>
<rect x="108" y="266" width="15" height="16"/>
<rect x="118" y="266" width="16" height="16"/>
<rect x="118" y="256" width="16" height="15"/>
<rect x="129" y="256" width="15" height="15"/>
<rect x="118" y="245" width="16" height="16"/>
<rect x="129" y="245" width="15" height="16"/>
<rect x="118" y="235" width="16" height="15"/>
<rect x="129" y="235" width="15" height="15"/>
<rect x="13" y="45" width="16" height="16"/>
<rect x="23" y="3" width="16" height="16"/>
<rect x="34" y="3" width="16" height="16"/>
<rect x="44" y="3" width="16" height="16"/>
<rect x="55" y="3" width="16" height="16"/>
<rect x="13" y="14" width="16" height="15"/>
<rect x="2" y="14" width="16" height="15"/>
<rect x="23" y="14" width="16" height="15"/>
<rect x="34" y="14" width="16" height="15"/>
<rect x="44" y="14" width="16" height="15"/>
<rect x="55" y="14" width="16" height="15"/>
<rect x="55" y="24" width="16" height="16"/>
<rect x="44" y="24" width="16" height="16"/>
<rect x="34" y="24" width="16" height="16"/>
<rect x="23" y="24" width="16" height="16"/>
<rect x="13" y="24" width="16" height="16"/>
<rect x="2" y="24" width="16" height="16"/>
<rect x="2" y="35" width="16" height="15"/>
<rect x="13" y="35" width="16" height="15"/>
<rect x="2" y="56" width="16" height="16"/>
<rect x="13" y="56" width="16" height="16"/>
<rect x="23" y="56" width="16" height="16"/>
<rect x="55" y="56" width="16" height="16"/>
<rect x="55" y="45" width="16" height="16"/>
<rect x="55" y="35" width="16" height="15"/>
<rect x="66" y="14" width="15" height="15"/>
<rect x="66" y="3" width="15" height="16"/>
<rect x="66" y="24" width="15" height="16"/>
<rect x="76" y="24" width="16" height="16"/>
<rect x="97" y="224" width="16" height="16"/>
<rect x="76" y="35" width="16" height="15"/>
<rect x="66" y="35" width="15" height="15"/>
<rect x="66" y="45" width="15" height="16"/>
<rect x="76" y="45" width="16" height="16"/>
<rect x="87" y="45" width="15" height="16"/>
<rect x="108" y="56" width="15" height="16"/>
<rect x="97" y="56" width="16" height="16"/>
<rect x="87" y="56" width="15" height="16"/>
<rect x="76" y="56" width="16" height="16"/>
<rect x="66" y="56" width="15" height="16"/>
<rect x="118" y="45" width="16" height="16"/>
<rect x="118" y="56" width="16" height="16"/>
<rect x="129" y="56" width="15" height="16"/>
<rect x="129" y="45" width="15" height="16"/>
<rect x="87" y="224" width="15" height="16"/>
<rect x="139" y="45" width="16" height="16"/>
<rect x="139" y="56" width="16" height="16"/>
<rect x="150" y="45" width="15" height="16"/>
<rect x="150" y="56" width="15" height="16"/>
<rect x="160" y="45" width="16" height="16"/>
<rect x="160" y="35" width="16" height="15"/>
<rect x="160" y="24" width="16" height="16"/>
<rect x="171" y="35" width="15" height="15"/>
<rect x="171" y="45" width="15" height="16"/>
<rect x="2" y="266" width="16" height="16"/>
<rect x="118" y="224" width="16" height="16"/>
<rect x="108" y="224" width="15" height="16"/>
<rect x="286" y="119" width="14" height="16"/>
<rect x="108" y="235" width="15" height="15"/>
<rect x="234" y="108" width="15" height="16"/>
<rect x="244" y="108" width="16" height="16"/>
<rect x="265" y="108" width="16" height="16"/>
<rect x="276" y="108" width="15" height="16"/>
<rect x="2" y="277" width="16" height="15"/>
<rect x="255" y="108" width="15" height="16"/>
<rect x="223" y="108" width="16" height="16"/>
<rect x="213" y="108" width="15" height="16"/>
<rect x="202" y="108" width="16" height="16"/>
<rect x="192" y="108" width="15" height="16"/>
<rect x="181" y="108" width="16" height="16"/>
<rect x="171" y="108" width="15" height="16"/>
<rect x="171" y="98" width="15" height="16"/>
<rect x="181" y="98" width="16" height="16"/>
<rect x="192" y="98" width="15" height="16"/>
<rect x="202" y="98" width="16" height="16"/>
<rect x="181" y="66" width="16" height="16"/>
<rect x="181" y="87" width="16" height="16"/>
<rect x="171" y="87" width="15" height="16"/>
<rect x="171" y="77" width="15" height="16"/>
<rect x="181" y="77" width="16" height="16"/>
<rect x="192" y="87" width="15" height="16"/>
<rect x="171" y="56" width="15" height="16"/>
<rect x="2" y="287" width="16" height="13"/>
<rect x="171" y="66" width="15" height="16"/>
<rect x="160" y="77" width="16" height="16"/>
<rect x="160" y="66" width="16" height="16"/>
<rect x="150" y="66" width="15" height="16"/>
<rect x="139" y="66" width="16" height="16"/>
<rect x="13" y="277" width="16" height="15"/>
<rect x="129" y="66" width="15" height="16"/>
<rect x="118" y="66" width="16" height="16"/>
<rect x="118" y="77" width="16" height="16"/>
<rect x="129" y="77" width="15" height="16"/>
<rect x="139" y="77" width="16" height="16"/>
<rect x="150" y="77" width="15" height="16"/>
<rect x="118" y="87" width="16" height="16"/>
<rect x="129" y="87" width="15" height="16"/>
<rect x="139" y="87" width="16" height="16"/>
<rect x="150" y="87" width="15" height="16"/>
<rect x="13" y="266" width="16" height="16"/>
<rect x="160" y="87" width="16" height="16"/>
<rect x="160" y="98" width="16" height="16"/>
<rect x="160" y="108" width="16" height="16"/>
<rect x="150" y="98" width="15" height="16"/>
<rect x="139" y="98" width="16" height="16"/>
<rect x="129" y="98" width="15" height="16"/>
<rect x="118" y="98" width="16" height="16"/>
<rect x="108" y="98" width="15" height="16"/>
<rect x="108" y="87" width="15" height="16"/>
<rect x="108" y="77" width="15" height="16"/>
<rect x="108" y="66" width="15" height="16"/>
<rect x="97" y="66" width="16" height="16"/>
<rect x="87" y="66" width="15" height="16"/>
<rect x="76" y="66" width="16" height="16"/>
<rect x="66" y="66" width="15" height="16"/>
<rect x="55" y="66" width="16" height="16"/>
<rect x="55" y="77" width="16" height="16"/>
<rect x="55" y="87" width="16" height="16"/>
<rect x="55" y="98" width="16" height="16"/>
<rect x="55" y="108" width="16" height="16"/>
<rect x="66" y="108" width="15" height="16"/>
<rect x="76" y="108" width="16" height="16"/>
<rect x="87" y="108" width="15" height="16"/>
<rect x="97" y="98" width="16" height="16"/>
<rect x="97" y="87" width="16" height="16"/>
<rect x="97" y="77" width="16" height="16"/>
<rect x="87" y="77" width="15" height="16"/>
<rect x="76" y="77" width="16" height="16"/>
<rect x="66" y="77" width="15" height="16"/>
<rect x="13" y="256" width="16" height="15"/>
<rect x="66" y="87" width="15" height="16"/>
<rect x="66" y="98" width="15" height="16"/>
<rect x="76" y="98" width="16" height="16"/>
<rect x="87" y="98" width="15" height="16"/>
<rect x="87" y="87" width="15" height="16"/>
<rect x="76" y="87" width="16" height="16"/>
<rect x="44" y="108" width="16" height="16"/>
<rect x="34" y="108" width="16" height="16"/>
<rect x="2" y="98" width="16" height="16"/>
<rect x="13" y="98" width="16" height="16"/>
<rect x="23" y="98" width="16" height="16"/>
<rect x="34" y="98" width="16" height="16"/>
<rect x="44" y="98" width="16" height="16"/>
<rect x="44" y="87" width="16" height="16"/>
<rect x="34" y="87" width="16" height="16"/>
<rect x="23" y="87" width="16" height="16"/>
<rect x="13" y="87" width="16" height="16"/>
<rect x="2" y="77" width="16" height="16"/>
<rect x="13" y="77" width="16" height="16"/>
<rect x="23" y="77" width="16" height="16"/>
<rect x="34" y="77" width="16" height="16"/>
<rect x="44" y="77" width="16" height="16"/>
<rect x="23" y="256" width="16" height="15"/>
<rect x="44" y="66" width="16" height="16"/>
<rect x="34" y="66" width="16" height="16"/>
<rect x="23" y="66" width="16" height="16"/>
<rect x="13" y="66" width="16" height="16"/>
<rect x="2" y="66" width="16" height="16"/>
<rect x="2" y="108" width="16" height="16"/>
<rect x="2" y="119" width="16" height="16"/>
<rect x="13" y="119" width="16" height="16"/>
<rect x="23" y="119" width="16" height="16"/>
<rect x="34" y="119" width="16" height="16"/>
<rect x="44" y="119" width="16" height="16"/>
<rect x="55" y="119" width="16" height="16"/>
<rect x="55" y="161" width="16" height="16"/>
<rect x="55" y="172" width="16" height="15"/>
<rect x="44" y="172" width="16" height="15"/>
<rect x="34" y="172" width="16" height="15"/>
<rect x="23" y="172" width="16" height="15"/>
<rect x="13" y="172" width="16" height="15"/>
<rect x="2" y="172" width="16" height="15"/>
<rect x="2" y="161" width="16" height="16"/>
<rect x="2" y="151" width="16" height="15"/>
<rect x="2" y="140" width="16" height="16"/>
<rect x="2" y="129" width="16" height="16"/>
<rect x="13" y="129" width="16" height="16"/>
<rect x="23" y="129" width="16" height="16"/>
<rect x="34" y="129" width="16" height="16"/>
<rect x="44" y="129" width="16" height="16"/>
<rect x="44" y="140" width="16" height="16"/>
<rect x="44" y="151" width="16" height="15"/>
<rect x="44" y="161" width="16" height="16"/>
<rect x="34" y="161" width="16" height="16"/>
<rect x="23" y="161" width="16" height="16"/>
<rect x="13" y="161" width="16" height="16"/>
<rect x="13" y="151" width="16" height="15"/>
<rect x="13" y="140" width="16" height="16"/>
<rect x="23" y="140" width="16" height="16"/>
<rect x="34" y="140" width="16" height="16"/>
<rect x="34" y="151" width="16" height="15"/>
<rect x="23" y="151" width="16" height="15"/>
<rect x="66" y="119" width="15" height="16"/>
<rect x="23" y="266" width="16" height="16"/>
<rect x="23" y="277" width="16" height="15"/>
<rect x="66" y="172" width="15" height="15"/>
<rect x="192" y="119" width="15" height="16"/>
<rect x="202" y="119" width="16" height="16"/>
<rect x="213" y="119" width="15" height="16"/>
<rect x="223" y="119" width="16" height="16"/>
<rect x="223" y="129" width="16" height="16"/>
<rect x="202" y="172" width="16" height="15"/>
<rect x="213" y="172" width="15" height="15"/>
<rect x="223" y="172" width="16" height="15"/>
<rect x="234" y="161" width="15" height="16"/>
<rect x="234" y="172" width="15" height="15"/>
<rect x="244" y="161" width="16" height="16"/>
<rect x="255" y="161" width="15" height="16"/>
<rect x="255" y="172" width="15" height="15"/>
<rect x="265" y="161" width="16" height="16"/>
<rect x="276" y="161" width="15" height="16"/>
<rect x="276" y="172" width="15" height="15"/>
<rect x="244" y="151" width="16" height="15"/>
<rect x="255" y="151" width="15" height="15"/>
<rect x="265" y="151" width="16" height="15"/>
<rect x="276" y="151" width="15" height="15"/>
<rect x="286" y="140" width="14" height="16"/>
<rect x="265" y="140" width="16" height="16"/>
<rect x="255" y="140" width="15" height="16"/>
<rect x="244" y="140" width="16" height="16"/>
<rect x="234" y="129" width="15" height="16"/>
<rect x="234" y="119" width="15" height="16"/>
<rect x="244" y="119" width="16" height="16"/>
<rect x="244" y="129" width="16" height="16"/>
<rect x="255" y="119" width="15" height="16"/>
<rect x="255" y="129" width="15" height="16"/>
<rect x="265" y="129" width="16" height="16"/>
<rect x="276" y="129" width="15" height="16"/>
<rect x="286" y="129" width="14" height="16"/>
<rect x="168" y="12" width="16" height="16"/>
<rect x="34" y="266" width="16" height="16"/>
<rect x="276" y="119" width="15" height="16"/>
<rect x="265" y="119" width="16" height="16"/>
<rect x="286" y="182" width="14" height="16"/>
<rect x="202" y="182" width="16" height="16"/>
<rect x="192" y="182" width="15" height="16"/>
<rect x="181" y="182" width="16" height="16"/>
<rect x="171" y="182" width="15" height="16"/>
<rect x="171" y="193" width="15" height="15"/>
<rect x="181" y="193" width="16" height="15"/>
<rect x="181" y="203" width="16" height="16"/>
<rect x="171" y="203" width="15" height="16"/>
<rect x="171" y="214" width="15" height="15"/>
<rect x="171" y="224" width="15" height="16"/>
<rect x="160" y="224" width="16" height="16"/>
<rect x="150" y="224" width="15" height="16"/>
<rect x="139" y="224" width="16" height="16"/>
<rect x="129" y="224" width="15" height="16"/>
<rect x="118" y="214" width="16" height="15"/>
<rect x="129" y="214" width="15" height="15"/>
<rect x="139" y="214" width="16" height="15"/>
<rect x="150" y="214" width="15" height="15"/>
<rect x="160" y="214" width="16" height="15"/>
<rect x="160" y="203" width="16" height="16"/>
<rect x="150" y="203" width="15" height="16"/>
<rect x="139" y="203" width="16" height="16"/>
<rect x="129" y="203" width="15" height="16"/>
<rect x="118" y="203" width="16" height="16"/>
<rect x="118" y="193" width="16" height="15"/>
<rect x="129" y="193" width="15" height="15"/>
<rect x="139" y="193" width="16" height="15"/>
<rect x="150" y="193" width="15" height="15"/>
<rect x="160" y="193" width="16" height="15"/>
<rect x="87" y="182" width="15" height="16"/>
<rect x="76" y="182" width="16" height="16"/>
<rect x="97" y="193" width="16" height="15"/>
<rect x="108" y="193" width="15" height="15"/>
<rect x="108" y="203" width="15" height="16"/>
<rect x="97" y="203" width="16" height="16"/>
<rect x="97" y="214" width="16" height="15"/>
<rect x="108" y="214" width="15" height="15"/>
<rect x="34" y="182" width="16" height="16"/>
<rect x="23" y="182" width="16" height="16"/>
<rect x="13" y="193" width="16" height="15"/>
<rect x="13" y="245" width="16" height="16"/>
<rect x="13" y="235" width="16" height="15"/>
<rect x="23" y="235" width="16" height="15"/>
<rect x="23" y="245" width="16" height="16"/>
<rect x="34" y="245" width="16" height="16"/>
<rect x="34" y="235" width="16" height="15"/>
<rect x="44" y="235" width="16" height="15"/>
<rect x="44" y="245" width="16" height="16"/>
<rect x="2" y="45" width="16" height="16"/>
<rect x="97" y="45" width="16" height="16"/>
<rect x="108" y="45" width="15" height="16"/>
<rect x="286" y="161" width="14" height="16"/>
<rect x="23" y="108" width="16" height="16"/>
<rect x="13" y="108" width="16" height="16"/>
<rect x="244" y="172" width="16" height="15"/>
<rect x="265" y="172" width="16" height="15"/>
<rect x="286" y="151" width="14" height="15"/>
<rect x="276" y="140" width="15" height="16"/>
<rect x="66" y="182" width="15" height="16"/>
<rect x="66" y="193" width="15" height="15"/>
<rect x="76" y="193" width="16" height="15"/>
<rect x="87" y="193" width="15" height="15"/>
<rect x="87" y="203" width="15" height="16"/>
<rect x="76" y="203" width="16" height="16"/>
<rect x="66" y="203" width="15" height="16"/>
<rect x="66" y="214" width="15" height="15"/>
<rect x="76" y="214" width="16" height="15"/>
<rect x="87" y="214" width="15" height="15"/>
<rect x="76" y="224" width="16" height="16"/>
<rect x="66" y="224" width="15" height="16"/>
<rect x="55" y="224" width="16" height="16"/>
<rect x="55" y="214" width="16" height="15"/>
<rect x="55" y="203" width="16" height="16"/>
<rect x="55" y="193" width="16" height="15"/>
<rect x="55" y="182" width="16" height="16"/>
<rect x="44" y="182" width="16" height="16"/>
<rect x="44" y="193" width="16" height="15"/>
<rect x="44" y="203" width="16" height="16"/>
<rect x="44" y="214" width="16" height="15"/>
<rect x="44" y="224" width="16" height="16"/>
<rect x="34" y="224" width="16" height="16"/>
<rect x="34" y="214" width="16" height="15"/>
<rect x="34" y="203" width="16" height="16"/>
<rect x="34" y="193" width="16" height="15"/>
<rect x="23" y="193" width="16" height="15"/>
<rect x="23" y="203" width="16" height="16"/>
<rect x="23" y="214" width="16" height="15"/>
<rect x="23" y="224" width="16" height="16"/>
<rect x="13" y="224" width="16" height="16"/>
<rect x="13" y="214" width="16" height="15"/>
<rect x="13" y="203" width="16" height="16"/>
</g>
</svg>