<?xml version="1.0" encoding="utf-8"?>
<svg xmlns="http://www.w3.org/2000/svg" width="300" height="300"
        viewBox="0 0 300 300" class="creatureMap" style="position:absolute;">
    <defs>
        <filter id="blur" x="-30%" y="-30%" width="160%" height="160%">
            <feGaussianBlur stdDeviation="3" />
        </filter>
        <pattern id="pattern-untameable" width="10" height="10" patternTransform="rotate(135)" patternUnits="userSpaceOnUse">
            <rect width="4" height="10" fill="black"></rect>
        </pattern>
        <filter id="groupStroke">
            <feFlood result="outsideColor" flood-color="black"/>
            <feMorphology in="SourceAlpha" operator="dilate" radius="2"/>
            <feComposite result="strokeoutline1" in="outsideColor" operator="in"/>
            <feComposite result="strokeoutline2" in="strokeoutline1" in2="SourceAlpha" operator="out"/>
            <feGaussianBlur in="strokeoutline2" result="strokeblur" stdDeviation="1"/>
        </filter>
        <style>
            .spawningMap-very-common { fill: #0F0; }
            .spawningMap-common { fill: #B2FF00; }
            .spawningMap-uncommon { fill: #FF0; }
            .spawningMap-very-uncommon { fill: #FC0; }
            .spawningMap-rare { fill: #F60; }
            .spawningMap-very-rare { fill: #F00; }
            .spawning-map-point { stroke:black; stroke-width:1; }
        </style>
    </defs>

<g filter="url(#blur)" opacity="0.7">
<g class="spawningMap-very-rare">
<rect x="36" y="33" width="25" height="26" />
<rect x="10" y="6" width="80" height="33" />
<rect x="10" y="37" width="80" height="32" />
<rect x="10" y="64" width="80" height="32" />
<rect x="118" y="159" width="19" height="16" />
<rect x="118" y="148" width="16" height="16" />
<rect x="36" y="33" width="25" height="26" />
<rect x="118" y="137" width="16" height="16" />
<rect x="9" y="64" width="82" height="32" />
<rect x="172" y="155" width="16" height="14" />
<rect x="9" y="6" width="82" height="33" />
<rect x="9" y="37" width="82" height="32" />
<rect x="70" y="143" width="20" height="19" />
</g>
<g class="spawningMap-rare">
<rect x="150" y="129" width="12" height="14" />
<rect x="176" y="142" width="12" height="14" />
</g>
</g>
</svg>