<?xml version="1.0" encoding="utf-8"?>
<svg xmlns="http://www.w3.org/2000/svg" width="300" height="300" viewBox="0 0 300 300" class="creatureMap" style="position:absolute;">
    <defs>
        <filter id="blur" x="-30%" y="-30%" width="160%" height="160%">
            <feGaussianBlur stdDeviation="3" />
        </filter>
        <pattern id="pattern-untameable" width="10" height="10" patternTransform="rotate(135)" patternUnits="userSpaceOnUse">'
            <rect width="4" height="10" fill="black"></rect>
        </pattern>
        <filter id="groupStroke">
            <feFlood result="outsideColor" flood-color="black"/>
            <feMorphology in="SourceAlpha" operator="dilate" radius="2"/>
            <feComposite result="strokeoutline1" in="outsideColor" operator="in"/>
            <feComposite result="strokeoutline2" in="strokeoutline1" in2="SourceAlpha" operator="out"/>
            <feGaussianBlur in="strokeoutline2" result="strokeblur" stdDeviation="1"/>
        </filter>
        <style>
            .spawningMap-very-common { fill: #0F0; }
            .spawningMap-common { fill: #B2FF00; }
            .spawningMap-uncommon { fill: #FF0; }
            .spawningMap-very-uncommon { fill: #FC0; }
            .spawningMap-rare { fill: #F60; }
            .spawningMap-very-rare { fill: #F00; }
            .spawning-map-point { stroke:black; stroke-width:1; }
        </style>
    </defs>

<g filter="url(#blur)" opacity="0.7">
<g class="spawningMap-very-rare">
<rect x="140" y="17" width="16" height="17" />
<rect x="121" y="1" width="11" height="19" />
<rect x="127" y="0" width="22" height="7" />
<rect x="131" y="13" width="10" height="11" />
<rect x="129" y="17" width="9" height="8" />
<rect x="129" y="12" width="7" height="7" />
<rect x="133" y="12" width="11" height="7" />
<rect x="138" y="13" width="16" height="10" />
<rect x="134" y="3" width="16" height="12" />
<rect x="118" y="148" width="16" height="16" />
<rect x="118" y="137" width="16" height="16" />
</g>
</g>
<g fill="url(#pattern-untameable)" opacity="0.3">
<rect x="140" y="17" width="16" height="17"/>
<rect x="121" y="1" width="11" height="19"/>
<rect x="127" y="0" width="22" height="7"/>
<rect x="131" y="13" width="10" height="11"/>
<rect x="129" y="17" width="9" height="8"/>
<rect x="129" y="12" width="7" height="7"/>
<rect x="133" y="12" width="11" height="7"/>
<rect x="138" y="13" width="16" height="10"/>
<rect x="134" y="3" width="16" height="12"/>
</g>
<g filter="url(#groupStroke)" opacity="0.8">
<rect x="140" y="17" width="16" height="17"/>
<rect x="121" y="1" width="11" height="19"/>
<rect x="127" y="0" width="22" height="7"/>
<rect x="131" y="13" width="10" height="11"/>
<rect x="129" y="17" width="9" height="8"/>
<rect x="129" y="12" width="7" height="7"/>
<rect x="133" y="12" width="11" height="7"/>
<rect x="138" y="13" width="16" height="10"/>
<rect x="134" y="3" width="16" height="12"/>
</g>
</svg>