<?xml version="1.0" encoding="utf-8"?>
<svg xmlns="http://www.w3.org/2000/svg" width="300" height="300"
        viewBox="0 0 300 300" class="creatureMap" style="position:absolute;">
    <defs>
        <filter id="blur" x="-30%" y="-30%" width="160%" height="160%">
            <feGaussianBlur stdDeviation="3" />
        </filter>
        <pattern id="pattern-untameable" width="10" height="10" patternTransform="rotate(135)" patternUnits="userSpaceOnUse">
            <rect width="4" height="10" fill="black"></rect>
        </pattern>
        <filter id="groupStroke">
            <feFlood result="outsideColor" flood-color="black"/>
            <feMorphology in="SourceAlpha" operator="dilate" radius="2"/>
            <feComposite result="strokeoutline1" in="outsideColor" operator="in"/>
            <feComposite result="strokeoutline2" in="strokeoutline1" in2="SourceAlpha" operator="out"/>
            <feGaussianBlur in="strokeoutline2" result="strokeblur" stdDeviation="1"/>
        </filter>
        <style>
            .spawningMap-very-common { fill: #0F0; }
            .spawningMap-common { fill: #B2FF00; }
            .spawningMap-uncommon { fill: #FF0; }
            .spawningMap-very-uncommon { fill: #FC0; }
            .spawningMap-rare { fill: #F60; }
            .spawningMap-very-rare { fill: #F00; }
            .spawning-map-point { stroke:black; stroke-width:1; }
        </style>
    </defs>

<g filter="url(#blur)" opacity="0.7">
<g class="spawningMap-very-rare">
<rect x="13" y="193" width="16" height="15" />
<rect x="13" y="182" width="16" height="16" />
<rect x="2" y="182" width="16" height="16" />
<rect x="2" y="193" width="16" height="15" />
<rect x="2" y="203" width="16" height="16" />
<rect x="2" y="214" width="16" height="15" />
<rect x="2" y="224" width="16" height="16" />
<rect x="2" y="235" width="16" height="15" />
<rect x="2" y="245" width="16" height="16" />
<rect x="2" y="256" width="16" height="15" />
<rect x="13" y="245" width="16" height="16" />
<rect x="13" y="235" width="16" height="15" />
<rect x="23" y="235" width="16" height="15" />
<rect x="23" y="245" width="16" height="16" />
<rect x="34" y="245" width="16" height="16" />
<rect x="34" y="235" width="16" height="15" />
<rect x="55" y="235" width="16" height="15" />
<rect x="66" y="235" width="15" height="15" />
<rect x="139" y="235" width="16" height="15" />
<rect x="139" y="245" width="16" height="16" />
<rect x="150" y="235" width="15" height="15" />
<rect x="150" y="245" width="15" height="16" />
<rect x="150" y="256" width="15" height="15" />
<rect x="160" y="256" width="16" height="15" />
<rect x="160" y="245" width="16" height="16" />
<rect x="160" y="235" width="16" height="15" />
<rect x="160" y="266" width="16" height="16" />
<rect x="160" y="277" width="16" height="15" />
<rect x="171" y="287" width="15" height="13" />
<rect x="171" y="266" width="15" height="16" />
<rect x="171" y="256" width="15" height="15" />
<rect x="171" y="245" width="15" height="16" />
<rect x="171" y="235" width="15" height="15" />
<rect x="181" y="287" width="16" height="13" />
<rect x="202" y="161" width="16" height="16" />
<rect x="181" y="161" width="16" height="16" />
<rect x="234" y="140" width="15" height="16" />
<rect x="171" y="108" width="15" height="16" />
<rect x="160" y="108" width="16" height="16" />
<rect x="150" y="98" width="15" height="16" />
<rect x="139" y="98" width="16" height="16" />
<rect x="129" y="98" width="15" height="16" />
<rect x="118" y="98" width="16" height="16" />
<rect x="108" y="98" width="15" height="16" />
<rect x="76" y="108" width="16" height="16" />
<rect x="87" y="108" width="15" height="16" />
<rect x="97" y="98" width="16" height="16" />
<rect x="55" y="119" width="16" height="16" />
<rect x="55" y="161" width="16" height="16" />
<rect x="55" y="172" width="16" height="15" />
<rect x="44" y="172" width="16" height="15" />
<rect x="34" y="172" width="16" height="15" />
<rect x="23" y="172" width="16" height="15" />
<rect x="13" y="172" width="16" height="15" />
<rect x="2" y="172" width="16" height="15" />
<rect x="2" y="161" width="16" height="16" />
<rect x="2" y="151" width="16" height="15" />
<rect x="2" y="140" width="16" height="16" />
<rect x="44" y="129" width="16" height="16" />
<rect x="44" y="140" width="16" height="16" />
<rect x="44" y="151" width="16" height="15" />
<rect x="44" y="161" width="16" height="16" />
<rect x="34" y="161" width="16" height="16" />
<rect x="23" y="161" width="16" height="16" />
<rect x="13" y="161" width="16" height="16" />
<rect x="13" y="151" width="16" height="15" />
<rect x="13" y="140" width="16" height="16" />
<rect x="23" y="140" width="16" height="16" />
<rect x="34" y="140" width="16" height="16" />
<rect x="34" y="151" width="16" height="15" />
<rect x="23" y="151" width="16" height="15" />
<rect x="66" y="119" width="15" height="16" />
<rect x="87" y="119" width="15" height="16" />
<rect x="87" y="161" width="15" height="16" />
<rect x="108" y="172" width="15" height="15" />
<rect x="76" y="172" width="16" height="15" />
<rect x="66" y="172" width="15" height="15" />
<rect x="171" y="172" width="15" height="15" />
<rect x="150" y="172" width="15" height="15" />
<rect x="192" y="119" width="15" height="16" />
<rect x="202" y="119" width="16" height="16" />
<rect x="213" y="119" width="15" height="16" />
<rect x="181" y="129" width="16" height="16" />
<rect x="202" y="129" width="16" height="16" />
<rect x="223" y="129" width="16" height="16" />
<rect x="202" y="172" width="16" height="15" />
<rect x="213" y="172" width="15" height="15" />
<rect x="234" y="161" width="15" height="16" />
<rect x="244" y="161" width="16" height="16" />
<rect x="255" y="161" width="15" height="16" />
<rect x="255" y="172" width="15" height="15" />
<rect x="265" y="161" width="16" height="16" />
<rect x="276" y="161" width="15" height="16" />
<rect x="276" y="172" width="15" height="15" />
<rect x="244" y="151" width="16" height="15" />
<rect x="244" y="140" width="16" height="16" />
<rect x="234" y="129" width="15" height="16" />
<rect x="192" y="182" width="15" height="16" />
<rect x="181" y="182" width="16" height="16" />
<rect x="171" y="182" width="15" height="16" />
<rect x="171" y="193" width="15" height="15" />
<rect x="181" y="193" width="16" height="15" />
<rect x="181" y="203" width="16" height="16" />
<rect x="171" y="203" width="15" height="16" />
<rect x="171" y="214" width="15" height="15" />
<rect x="171" y="224" width="15" height="16" />
<rect x="160" y="224" width="16" height="16" />
<rect x="150" y="224" width="15" height="16" />
<rect x="139" y="224" width="16" height="16" />
<rect x="129" y="224" width="15" height="16" />
<rect x="118" y="214" width="16" height="15" />
<rect x="129" y="214" width="15" height="15" />
<rect x="139" y="214" width="16" height="15" />
<rect x="150" y="214" width="15" height="15" />
<rect x="160" y="214" width="16" height="15" />
<rect x="160" y="203" width="16" height="16" />
<rect x="150" y="203" width="15" height="16" />
<rect x="139" y="203" width="16" height="16" />
<rect x="129" y="203" width="15" height="16" />
<rect x="118" y="203" width="16" height="16" />
<rect x="118" y="193" width="16" height="15" />
<rect x="139" y="193" width="16" height="15" />
<rect x="150" y="193" width="15" height="15" />
<rect x="160" y="193" width="16" height="15" />
<rect x="129" y="182" width="15" height="16" />
<rect x="87" y="182" width="15" height="16" />
<rect x="76" y="182" width="16" height="16" />
<rect x="66" y="182" width="15" height="16" />
<rect x="76" y="193" width="16" height="15" />
<rect x="87" y="193" width="15" height="15" />
<rect x="97" y="193" width="16" height="15" />
<rect x="108" y="193" width="15" height="15" />
<rect x="108" y="203" width="15" height="16" />
<rect x="97" y="203" width="16" height="16" />
<rect x="87" y="203" width="15" height="16" />
<rect x="76" y="203" width="16" height="16" />
<rect x="66" y="203" width="15" height="16" />
<rect x="66" y="214" width="15" height="15" />
<rect x="76" y="214" width="16" height="15" />
<rect x="87" y="214" width="15" height="15" />
<rect x="97" y="214" width="16" height="15" />
<rect x="108" y="214" width="15" height="15" />
<rect x="76" y="224" width="16" height="16" />
<rect x="66" y="224" width="15" height="16" />
<rect x="55" y="224" width="16" height="16" />
<rect x="55" y="214" width="16" height="15" />
<rect x="55" y="203" width="16" height="16" />
<rect x="55" y="193" width="16" height="15" />
<rect x="55" y="182" width="16" height="16" />
<rect x="44" y="182" width="16" height="16" />
<rect x="44" y="193" width="16" height="15" />
<rect x="44" y="203" width="16" height="16" />
<rect x="44" y="214" width="16" height="15" />
<rect x="44" y="224" width="16" height="16" />
<rect x="34" y="224" width="16" height="16" />
<rect x="34" y="214" width="16" height="15" />
<rect x="34" y="203" width="16" height="16" />
<rect x="34" y="193" width="16" height="15" />
<rect x="34" y="182" width="16" height="16" />
<rect x="23" y="182" width="16" height="16" />
<rect x="23" y="193" width="16" height="15" />
<rect x="23" y="203" width="16" height="16" />
<rect x="23" y="214" width="16" height="15" />
<rect x="23" y="224" width="16" height="16" />
<rect x="13" y="224" width="16" height="16" />
<rect x="13" y="214" width="16" height="15" />
<rect x="13" y="203" width="16" height="16" />
</g>
<g class="spawningMap-rare">
<rect x="258" y="0" width="27" height="18" />
<rect x="213" y="140" width="15" height="16" />
<rect x="118" y="151" width="16" height="15" />
<rect x="171" y="129" width="15" height="16" />
<rect x="181" y="129" width="16" height="16" />
<rect x="160" y="119" width="16" height="16" />
<rect x="160" y="140" width="16" height="16" />
<rect x="160" y="140" width="16" height="16" />
<rect x="160" y="129" width="16" height="16" />
<rect x="97" y="172" width="16" height="15" />
<rect x="150" y="129" width="15" height="16" />
<rect x="107" y="172" width="16" height="15" />
<rect x="171" y="161" width="15" height="16" />
<rect x="129" y="151" width="15" height="15" />
<rect x="97" y="161" width="16" height="16" />
<rect x="139" y="119" width="16" height="16" />
<rect x="150" y="119" width="15" height="16" />
<rect x="139" y="140" width="16" height="16" />
<rect x="139" y="129" width="16" height="16" />
<rect x="129" y="140" width="15" height="16" />
<rect x="97" y="140" width="16" height="16" />
<rect x="150" y="108" width="15" height="16" />
<rect x="97" y="119" width="16" height="15" />
<rect x="139" y="108" width="16" height="16" />
<rect x="129" y="108" width="15" height="16" />
<rect x="107" y="119" width="16" height="15" />
<rect x="118" y="108" width="16" height="16" />
<rect x="108" y="108" width="15" height="16" />
<rect x="107" y="140" width="16" height="16" />
<rect x="97" y="108" width="16" height="16" />
<rect x="107" y="161" width="16" height="16" />
<rect x="55" y="129" width="16" height="16" />
<rect x="55" y="151" width="16" height="15" />
<rect x="76" y="119" width="16" height="16" />
<rect x="97" y="119" width="16" height="16" />
<rect x="108" y="119" width="15" height="16" />
<rect x="108" y="129" width="15" height="16" />
<rect x="97" y="129" width="16" height="16" />
<rect x="87" y="129" width="15" height="16" />
<rect x="76" y="129" width="16" height="16" />
<rect x="66" y="140" width="15" height="16" />
<rect x="129" y="161" width="15" height="16" />
<rect x="87" y="140" width="15" height="16" />
<rect x="97" y="140" width="16" height="16" />
<rect x="108" y="140" width="15" height="16" />
<rect x="108" y="151" width="15" height="15" />
<rect x="97" y="151" width="16" height="15" />
<rect x="87" y="151" width="15" height="15" />
<rect x="76" y="151" width="16" height="15" />
<rect x="97" y="161" width="16" height="16" />
<rect x="108" y="161" width="15" height="16" />
<rect x="129" y="172" width="15" height="15" />
<rect x="97" y="172" width="16" height="15" />
<rect x="87" y="172" width="15" height="15" />
<rect x="118" y="119" width="16" height="16" />
<rect x="129" y="119" width="15" height="16" />
<rect x="139" y="119" width="16" height="16" />
<rect x="150" y="119" width="15" height="16" />
<rect x="160" y="119" width="16" height="16" />
<rect x="171" y="119" width="15" height="16" />
<rect x="171" y="129" width="15" height="16" />
<rect x="160" y="129" width="16" height="16" />
<rect x="150" y="129" width="15" height="16" />
<rect x="139" y="129" width="16" height="16" />
<rect x="129" y="129" width="15" height="16" />
<rect x="118" y="129" width="16" height="16" />
<rect x="129" y="140" width="15" height="16" />
<rect x="139" y="140" width="16" height="16" />
<rect x="150" y="140" width="15" height="16" />
<rect x="160" y="140" width="16" height="16" />
<rect x="171" y="140" width="15" height="16" />
<rect x="118" y="161" width="16" height="16" />
<rect x="129" y="151" width="15" height="15" />
<rect x="118" y="172" width="16" height="15" />
<rect x="129" y="172" width="15" height="15" />
<rect x="139" y="172" width="16" height="15" />
<rect x="139" y="161" width="16" height="16" />
<rect x="150" y="161" width="15" height="16" />
<rect x="160" y="161" width="16" height="16" />
<rect x="160" y="172" width="16" height="15" />
<rect x="181" y="119" width="16" height="16" />
<rect x="192" y="129" width="15" height="16" />
<rect x="213" y="129" width="15" height="16" />
<rect x="223" y="140" width="16" height="16" />
<rect x="86" y="129" width="16" height="16" />
<rect x="213" y="151" width="15" height="15" />
<rect x="223" y="161" width="16" height="16" />
<rect x="213" y="161" width="15" height="16" />
<rect x="181" y="172" width="16" height="15" />
<rect x="191" y="172" width="16" height="15" />
<rect x="223" y="172" width="16" height="15" />
<rect x="139" y="172" width="16" height="15" />
<rect x="234" y="172" width="15" height="15" />
<rect x="223" y="151" width="16" height="15" />
<rect x="234" y="151" width="15" height="15" />
<rect x="150" y="172" width="15" height="15" />
<rect x="192" y="161" width="15" height="16" />
<rect x="170" y="169" width="15" height="15" />
<rect x="129" y="193" width="15" height="15" />
<rect x="160" y="182" width="16" height="16" />
<rect x="150" y="182" width="15" height="16" />
<rect x="139" y="182" width="16" height="16" />
<rect x="118" y="182" width="16" height="16" />
<rect x="108" y="182" width="15" height="16" />
<rect x="97" y="182" width="16" height="16" />
</g>
<g class="spawningMap-very-uncommon">
<rect x="243" y="45" width="17" height="16" />
<rect x="243" y="35" width="17" height="16" />
<rect x="254" y="39" width="16" height="12" />
<rect x="254" y="45" width="16" height="16" />
<rect x="254" y="55" width="16" height="16" />
<rect x="264" y="39" width="16" height="12" />
<rect x="264" y="45" width="16" height="16" />
<rect x="140" y="17" width="16" height="17" />
<rect x="274" y="39" width="17" height="12" />
<rect x="274" y="45" width="17" height="16" />
<rect x="274" y="45" width="17" height="16" />
<rect x="274" y="45" width="17" height="16" />
<rect x="285" y="39" width="15" height="12" />
<rect x="276" y="19" width="16" height="15" />
<rect x="266" y="19" width="16" height="14" />
<rect x="256" y="13" width="16" height="20" />
<rect x="248" y="2" width="16" height="16" />
<rect x="243" y="291" width="14" height="9" />
<rect x="273" y="275" width="14" height="13" />
<rect x="275" y="289" width="11" height="11" />
<rect x="280" y="294" width="15" height="6" />
</g>
<g class="spawningMap-uncommon">
<rect x="189" y="42" width="12" height="10" />
<rect x="201" y="36" width="10" height="18" />
<rect x="205" y="43" width="12" height="13" />
<rect x="216" y="42" width="14" height="12" />
<rect x="225" y="41" width="12" height="13" />
<rect x="240" y="42" width="9" height="17" />
<rect x="243" y="55" width="17" height="12" />
<rect x="264" y="55" width="16" height="12" />
<rect x="274" y="55" width="17" height="12" />
<rect x="285" y="45" width="12" height="13" />
<rect x="285" y="45" width="12" height="13" />
<rect x="281" y="28" width="11" height="16" />
<rect x="246" y="21" width="16" height="12" />
<rect x="243" y="8" width="11" height="19" />
<rect x="226" y="295" width="17" height="5" />
<rect x="235" y="289" width="10" height="11" />
<rect x="239" y="288" width="14" height="9" />
<rect x="261" y="295" width="18" height="5" />
<rect x="268" y="276" width="11" height="12" />
<rect x="266" y="282" width="13" height="10" />
<rect x="273" y="284" width="12" height="11" />
</g>
<g class="spawningMap-common">
<rect x="194" y="37" width="8" height="10" />
<rect x="199" y="33" width="11" height="9" />
<rect x="231" y="39" width="12" height="10" />
<rect x="251" y="291" width="9" height="9" />
<rect x="263" y="286" width="11" height="10" />
</g>
<g class="spawningMap-very-common">
<rect x="216" y="280" width="8" height="7" />
<rect x="196" y="32" width="9" height="11" />
<rect x="211" y="45" width="11" height="9" />
<rect x="237" y="39" width="10" height="9" />
<rect x="279" y="280" width="8" height="11" />
<rect x="279" y="286" width="8" height="9" />
<rect x="214" y="281" width="8" height="8" />
<rect x="214" y="283" width="8" height="8" />
<rect x="217" y="285" width="8" height="8" />
<rect x="219" y="288" width="8" height="9" />
<rect x="220" y="291" width="8" height="9" />
<rect x="223" y="294" width="11" height="6" />
</g>
</g>
<g fill="url(#pattern-untameable)" opacity="0.3">
<rect x="258" y="0" width="27" height="18"/>
<rect x="243" y="45" width="17" height="16"/>
<rect x="243" y="35" width="17" height="16"/>
<rect x="254" y="39" width="16" height="12"/>
<rect x="254" y="45" width="16" height="16"/>
<rect x="264" y="39" width="16" height="12"/>
<rect x="264" y="45" width="16" height="16"/>
<rect x="140" y="17" width="16" height="17"/>
<rect x="274" y="39" width="17" height="12"/>
<rect x="274" y="45" width="17" height="16"/>
<rect x="274" y="45" width="17" height="16"/>
<rect x="274" y="45" width="17" height="16"/>
<rect x="285" y="39" width="15" height="12"/>
<rect x="276" y="19" width="16" height="15"/>
<rect x="266" y="19" width="16" height="14"/>
<rect x="256" y="13" width="16" height="20"/>
<rect x="248" y="2" width="16" height="16"/>
<rect x="273" y="275" width="14" height="13"/>
<rect x="275" y="289" width="11" height="11"/>
<rect x="280" y="294" width="15" height="6"/>
<rect x="189" y="42" width="12" height="10"/>
<rect x="201" y="36" width="10" height="18"/>
<rect x="205" y="43" width="12" height="13"/>
<rect x="216" y="42" width="14" height="12"/>
<rect x="225" y="41" width="12" height="13"/>
<rect x="240" y="42" width="9" height="17"/>
<rect x="285" y="45" width="12" height="13"/>
<rect x="285" y="45" width="12" height="13"/>
<rect x="281" y="28" width="11" height="16"/>
<rect x="246" y="21" width="16" height="12"/>
<rect x="243" y="8" width="11" height="19"/>
<rect x="226" y="295" width="17" height="5"/>
<rect x="235" y="289" width="10" height="11"/>
<rect x="239" y="288" width="14" height="9"/>
<rect x="261" y="295" width="18" height="5"/>
<rect x="268" y="276" width="11" height="12"/>
<rect x="266" y="282" width="13" height="10"/>
<rect x="273" y="284" width="12" height="11"/>
<rect x="194" y="37" width="8" height="10"/>
<rect x="199" y="33" width="11" height="9"/>
<rect x="231" y="39" width="12" height="10"/>
<rect x="251" y="291" width="9" height="9"/>
<rect x="263" y="286" width="11" height="10"/>
<rect x="216" y="280" width="8" height="7"/>
<rect x="196" y="32" width="9" height="11"/>
<rect x="211" y="45" width="11" height="9"/>
<rect x="237" y="39" width="10" height="9"/>
<rect x="279" y="280" width="8" height="11"/>
<rect x="279" y="286" width="8" height="9"/>
<rect x="214" y="281" width="8" height="8"/>
<rect x="214" y="283" width="8" height="8"/>
<rect x="217" y="285" width="8" height="8"/>
<rect x="219" y="288" width="8" height="9"/>
<rect x="220" y="291" width="8" height="9"/>
<rect x="223" y="294" width="11" height="6"/>
</g>
<g filter="url(#groupStroke)" opacity="0.8">
<rect x="258" y="0" width="27" height="18"/>
<rect x="243" y="45" width="17" height="16"/>
<rect x="243" y="35" width="17" height="16"/>
<rect x="254" y="39" width="16" height="12"/>
<rect x="254" y="45" width="16" height="16"/>
<rect x="254" y="55" width="16" height="16"/>
<rect x="264" y="39" width="16" height="12"/>
<rect x="264" y="45" width="16" height="16"/>
<rect x="140" y="17" width="16" height="17"/>
<rect x="274" y="39" width="17" height="12"/>
<rect x="274" y="45" width="17" height="16"/>
<rect x="274" y="45" width="17" height="16"/>
<rect x="274" y="45" width="17" height="16"/>
<rect x="285" y="39" width="15" height="12"/>
<rect x="276" y="19" width="16" height="15"/>
<rect x="266" y="19" width="16" height="14"/>
<rect x="256" y="13" width="16" height="20"/>
<rect x="248" y="2" width="16" height="16"/>
<rect x="243" y="291" width="14" height="9"/>
<rect x="273" y="275" width="14" height="13"/>
<rect x="275" y="289" width="11" height="11"/>
<rect x="280" y="294" width="15" height="6"/>
<rect x="189" y="42" width="12" height="10"/>
<rect x="201" y="36" width="10" height="18"/>
<rect x="205" y="43" width="12" height="13"/>
<rect x="216" y="42" width="14" height="12"/>
<rect x="225" y="41" width="12" height="13"/>
<rect x="240" y="42" width="9" height="17"/>
<rect x="243" y="55" width="17" height="12"/>
<rect x="264" y="55" width="16" height="12"/>
<rect x="274" y="55" width="17" height="12"/>
<rect x="285" y="45" width="12" height="13"/>
<rect x="285" y="45" width="12" height="13"/>
<rect x="281" y="28" width="11" height="16"/>
<rect x="246" y="21" width="16" height="12"/>
<rect x="243" y="8" width="11" height="19"/>
<rect x="226" y="295" width="17" height="5"/>
<rect x="235" y="289" width="10" height="11"/>
<rect x="239" y="288" width="14" height="9"/>
<rect x="261" y="295" width="18" height="5"/>
<rect x="268" y="276" width="11" height="12"/>
<rect x="266" y="282" width="13" height="10"/>
<rect x="273" y="284" width="12" height="11"/>
<rect x="194" y="37" width="8" height="10"/>
<rect x="199" y="33" width="11" height="9"/>
<rect x="231" y="39" width="12" height="10"/>
<rect x="251" y="291" width="9" height="9"/>
<rect x="263" y="286" width="11" height="10"/>
<rect x="216" y="280" width="8" height="7"/>
<rect x="196" y="32" width="9" height="11"/>
<rect x="211" y="45" width="11" height="9"/>
<rect x="237" y="39" width="10" height="9"/>
<rect x="279" y="280" width="8" height="11"/>
<rect x="279" y="286" width="8" height="9"/>
<rect x="214" y="281" width="8" height="8"/>
<rect x="214" y="283" width="8" height="8"/>
<rect x="217" y="285" width="8" height="8"/>
<rect x="219" y="288" width="8" height="9"/>
<rect x="220" y="291" width="8" height="9"/>
<rect x="223" y="294" width="11" height="6"/>
</g>
</svg>