<?xml version="1.0" encoding="utf-8"?>
<svg xmlns="http://www.w3.org/2000/svg" width="300" height="300" viewBox="0 0 300 300" class="creatureMap" style="position:absolute;">
    <defs>
        <filter id="blur" x="-30%" y="-30%" width="160%" height="160%">
            <feGaussianBlur stdDeviation="3" />
        </filter>
        <pattern id="pattern-untameable" width="10" height="10" patternTransform="rotate(135)" patternUnits="userSpaceOnUse">'
            <rect width="4" height="10" fill="black"></rect>
        </pattern>
        <filter id="groupStroke">
            <feFlood result="outsideColor" flood-color="black"/>
            <feMorphology in="SourceAlpha" operator="dilate" radius="2"/>
            <feComposite result="strokeoutline1" in="outsideColor" operator="in"/>
            <feComposite result="strokeoutline2" in="strokeoutline1" in2="SourceAlpha" operator="out"/>
            <feGaussianBlur in="strokeoutline2" result="strokeblur" stdDeviation="1"/>
        </filter>
        <style>
            .spawningMap-very-common { fill: #0F0; }
            .spawningMap-common { fill: #B2FF00; }
            .spawningMap-uncommon { fill: #FF0; }
            .spawningMap-very-uncommon { fill: #FC0; }
            .spawningMap-rare { fill: #F60; }
            .spawningMap-very-rare { fill: #F00; }
            .spawning-map-point { stroke:black; stroke-width:1; }
        </style>
    </defs>

<g filter="url(#blur)" opacity="0.7">
<g class="spawningMap-rare">
<rect x="253" y="50" width="13" height="13" />
<rect x="245" y="50" width="12" height="13" />
<rect x="236" y="50" width="12" height="13" />
<rect x="227" y="59" width="13" height="12" />
<rect x="227" y="50" width="13" height="13" />
<rect x="219" y="59" width="12" height="12" />
<rect x="219" y="50" width="12" height="13" />
<rect x="210" y="59" width="13" height="12" />
<rect x="210" y="50" width="13" height="13" />
<rect x="202" y="59" width="12" height="12" />
<rect x="202" y="50" width="12" height="13" />
<rect x="193" y="59" width="13" height="12" />
<rect x="193" y="50" width="13" height="13" />
<rect x="185" y="59" width="12" height="12" />
<rect x="185" y="50" width="12" height="13" />
<rect x="167" y="59" width="13" height="12" />
<rect x="167" y="50" width="13" height="13" />
<rect x="159" y="50" width="12" height="13" />
<rect x="185" y="67" width="13" height="13" />
<rect x="177" y="67" width="12" height="13" />
<rect x="194" y="67" width="13" height="13" />
<rect x="206" y="42" width="13" height="12" />
<rect x="198" y="42" width="12" height="12" />
<rect x="215" y="42" width="13" height="12" />
<rect x="172" y="42" width="12" height="12" />
<rect x="163" y="42" width="13" height="12" />
<rect x="197" y="114" width="12" height="13" />
<rect x="197" y="106" width="12" height="12" />
<rect x="205" y="106" width="13" height="12" />
<rect x="197" y="97" width="12" height="13" />
<rect x="205" y="97" width="13" height="13" />
<rect x="79" y="70" width="13" height="12" />
<rect x="88" y="70" width="12" height="12" />
<rect x="79" y="78" width="13" height="13" />
<rect x="88" y="78" width="12" height="13" />
<rect x="79" y="87" width="13" height="12" />
<rect x="88" y="87" width="12" height="12" />
<rect x="176" y="59" width="12" height="12" />
<rect x="176" y="50" width="12" height="13" />
<rect x="159" y="59" width="12" height="12" />
<rect x="181" y="42" width="12" height="12" />
<rect x="189" y="42" width="13" height="12" />
<rect x="214" y="106" width="12" height="12" />
<rect x="79" y="95" width="13" height="13" />
<rect x="88" y="95" width="12" height="13" />
</g>
</g>
</svg>