<?xml version="1.0" encoding="utf-8"?>
<svg xmlns="http://www.w3.org/2000/svg" width="300" height="300" viewBox="0 0 300 300" class="creatureMap" style="position:absolute;">
    <defs>
        <filter id="blur" x="-30%" y="-30%" width="160%" height="160%">
            <feGaussianBlur stdDeviation="3" />
        </filter>
        <pattern id="pattern-untameable" width="10" height="10" patternTransform="rotate(135)" patternUnits="userSpaceOnUse">'
            <rect width="4" height="10" fill="black"></rect>
        </pattern>
        <filter id="groupStroke">
            <feFlood result="outsideColor" flood-color="black"/>
            <feMorphology in="SourceAlpha" operator="dilate" radius="2"/>
            <feComposite result="strokeoutline1" in="outsideColor" operator="in"/>
            <feComposite result="strokeoutline2" in="strokeoutline1" in2="SourceAlpha" operator="out"/>
            <feGaussianBlur in="strokeoutline2" result="strokeblur" stdDeviation="1"/>
        </filter>
        <style>
            .spawningMap-very-common { fill: #0F0; }
            .spawningMap-common { fill: #B2FF00; }
            .spawningMap-uncommon { fill: #FF0; }
            .spawningMap-very-uncommon { fill: #FC0; }
            .spawningMap-rare { fill: #F60; }
            .spawningMap-very-rare { fill: #F00; }
            .spawning-map-point { stroke:black; stroke-width:1; }
        </style>
    </defs>

<g filter="url(#blur)" opacity="0.7">
<g class="spawningMap-rare">
<rect x="257" y="251" width="13" height="12" />
<rect x="240" y="268" width="13" height="12" />
<rect x="240" y="225" width="13" height="12" />
<rect x="214" y="225" width="13" height="12" />
<rect x="206" y="225" width="12" height="12" />
<rect x="223" y="216" width="12" height="13" />
<rect x="214" y="216" width="13" height="13" />
<rect x="180" y="216" width="12" height="13" />
<rect x="266" y="277" width="12" height="12" />
<rect x="214" y="277" width="13" height="12" />
<rect x="206" y="277" width="12" height="12" />
<rect x="266" y="294" width="12" height="6" />
<rect x="214" y="294" width="13" height="6" />
<rect x="275" y="251" width="12" height="12" />
<rect x="223" y="208" width="12" height="12" />
<rect x="188" y="208" width="13" height="12" />
</g>
<g class="spawningMap-very-uncommon">
<rect x="257" y="242" width="13" height="13" />
<rect x="214" y="259" width="13" height="13" />
<rect x="232" y="277" width="12" height="12" />
<rect x="283" y="285" width="13" height="13" />
<rect x="249" y="285" width="12" height="13" />
<rect x="240" y="285" width="13" height="13" />
<rect x="232" y="294" width="12" height="6" />
<rect x="223" y="294" width="12" height="6" />
<rect x="292" y="268" width="8" height="12" />
<rect x="292" y="242" width="8" height="13" />
<rect x="292" y="216" width="8" height="13" />
<rect x="275" y="259" width="12" height="13" />
<rect x="209" y="250" width="30" height="26" />
<rect x="0" y="277" width="4" height="23" />
</g>
<g class="spawningMap-uncommon">
<rect x="275" y="233" width="12" height="13" />
<rect x="275" y="216" width="12" height="13" />
<rect x="266" y="268" width="12" height="12" />
<rect x="266" y="251" width="12" height="12" />
<rect x="266" y="259" width="12" height="13" />
<rect x="266" y="242" width="12" height="13" />
<rect x="266" y="225" width="12" height="12" />
<rect x="266" y="233" width="12" height="13" />
<rect x="266" y="216" width="12" height="13" />
<rect x="257" y="268" width="13" height="12" />
<rect x="257" y="259" width="13" height="13" />
<rect x="257" y="225" width="13" height="12" />
<rect x="257" y="233" width="13" height="13" />
<rect x="257" y="216" width="13" height="13" />
<rect x="249" y="268" width="12" height="12" />
<rect x="249" y="251" width="12" height="12" />
<rect x="249" y="259" width="12" height="13" />
<rect x="249" y="242" width="12" height="13" />
<rect x="249" y="225" width="12" height="12" />
<rect x="249" y="233" width="12" height="13" />
<rect x="249" y="216" width="12" height="13" />
<rect x="240" y="251" width="13" height="12" />
<rect x="240" y="259" width="13" height="13" />
<rect x="240" y="242" width="13" height="13" />
<rect x="240" y="233" width="13" height="13" />
<rect x="240" y="216" width="13" height="13" />
<rect x="232" y="268" width="12" height="12" />
<rect x="232" y="251" width="12" height="12" />
<rect x="232" y="259" width="12" height="13" />
<rect x="232" y="242" width="12" height="13" />
<rect x="232" y="225" width="12" height="12" />
<rect x="232" y="233" width="12" height="13" />
<rect x="223" y="268" width="12" height="12" />
<rect x="223" y="251" width="12" height="12" />
<rect x="223" y="259" width="12" height="13" />
<rect x="223" y="242" width="12" height="13" />
<rect x="223" y="225" width="12" height="12" />
<rect x="223" y="233" width="12" height="13" />
<rect x="214" y="268" width="13" height="12" />
<rect x="214" y="251" width="13" height="12" />
<rect x="214" y="242" width="13" height="13" />
<rect x="214" y="233" width="13" height="13" />
<rect x="292" y="199" width="8" height="13" />
<rect x="283" y="199" width="13" height="13" />
<rect x="206" y="268" width="12" height="12" />
<rect x="206" y="251" width="12" height="12" />
<rect x="206" y="259" width="12" height="13" />
<rect x="206" y="242" width="12" height="13" />
<rect x="206" y="233" width="12" height="13" />
<rect x="275" y="199" width="12" height="13" />
<rect x="197" y="277" width="13" height="12" />
<rect x="197" y="268" width="13" height="12" />
<rect x="197" y="251" width="13" height="12" />
<rect x="197" y="259" width="13" height="13" />
<rect x="197" y="242" width="13" height="13" />
<rect x="197" y="225" width="13" height="12" />
<rect x="197" y="233" width="13" height="13" />
<rect x="188" y="277" width="13" height="12" />
<rect x="188" y="268" width="13" height="12" />
<rect x="188" y="251" width="13" height="12" />
<rect x="188" y="259" width="13" height="13" />
<rect x="188" y="242" width="13" height="13" />
<rect x="188" y="225" width="13" height="12" />
<rect x="188" y="233" width="13" height="13" />
<rect x="232" y="216" width="12" height="13" />
<rect x="206" y="216" width="12" height="13" />
<rect x="197" y="216" width="13" height="13" />
<rect x="188" y="216" width="13" height="13" />
<rect x="214" y="208" width="13" height="12" />
<rect x="214" y="199" width="13" height="12" />
<rect x="206" y="199" width="12" height="12" />
<rect x="180" y="251" width="12" height="12" />
<rect x="180" y="259" width="12" height="13" />
<rect x="180" y="242" width="12" height="13" />
<rect x="180" y="225" width="12" height="12" />
<rect x="180" y="233" width="12" height="13" />
<rect x="283" y="277" width="13" height="12" />
<rect x="275" y="277" width="12" height="12" />
<rect x="257" y="277" width="13" height="12" />
<rect x="249" y="277" width="12" height="12" />
<rect x="240" y="277" width="13" height="12" />
<rect x="223" y="277" width="12" height="12" />
<rect x="275" y="285" width="12" height="13" />
<rect x="266" y="285" width="12" height="13" />
<rect x="257" y="285" width="13" height="13" />
<rect x="232" y="285" width="12" height="13" />
<rect x="223" y="285" width="12" height="13" />
<rect x="214" y="285" width="13" height="13" />
<rect x="206" y="285" width="12" height="13" />
<rect x="283" y="294" width="13" height="6" />
<rect x="275" y="294" width="12" height="6" />
<rect x="257" y="294" width="13" height="6" />
<rect x="249" y="294" width="12" height="6" />
<rect x="240" y="294" width="13" height="6" />
<rect x="206" y="294" width="12" height="6" />
<rect x="249" y="165" width="12" height="12" />
<rect x="249" y="156" width="12" height="13" />
<rect x="257" y="165" width="13" height="12" />
<rect x="257" y="156" width="13" height="13" />
<rect x="257" y="173" width="13" height="13" />
<rect x="266" y="165" width="13" height="12" />
<rect x="266" y="156" width="13" height="13" />
<rect x="266" y="173" width="13" height="13" />
<rect x="275" y="165" width="12" height="12" />
<rect x="275" y="156" width="12" height="13" />
<rect x="275" y="173" width="12" height="13" />
<rect x="249" y="148" width="12" height="12" />
<rect x="243" y="130" width="12" height="13" />
<rect x="240" y="148" width="13" height="12" />
<rect x="240" y="139" width="13" height="12" />
<rect x="249" y="93" width="12" height="12" />
<rect x="262" y="67" width="12" height="13" />
<rect x="262" y="59" width="12" height="12" />
<rect x="262" y="50" width="12" height="13" />
<rect x="262" y="42" width="12" height="12" />
<rect x="270" y="50" width="13" height="13" />
<rect x="270" y="42" width="13" height="12" />
<rect x="270" y="84" width="13" height="13" />
<rect x="270" y="76" width="13" height="12" />
<rect x="270" y="102" width="13" height="12" />
<rect x="270" y="93" width="13" height="12" />
<rect x="262" y="96" width="12" height="12" />
<rect x="262" y="87" width="12" height="13" />
<rect x="279" y="94" width="12" height="13" />
<rect x="279" y="86" width="12" height="12" />
<rect x="262" y="110" width="12" height="13" />
<rect x="262" y="119" width="12" height="12" />
<rect x="270" y="119" width="13" height="12" />
<rect x="273" y="127" width="12" height="13" />
<rect x="292" y="294" width="8" height="6" />
<rect x="292" y="277" width="8" height="12" />
<rect x="292" y="208" width="8" height="12" />
<rect x="292" y="251" width="8" height="12" />
<rect x="292" y="259" width="8" height="13" />
<rect x="292" y="225" width="8" height="12" />
<rect x="292" y="233" width="8" height="13" />
<rect x="283" y="268" width="13" height="12" />
<rect x="283" y="251" width="13" height="12" />
<rect x="283" y="259" width="13" height="13" />
<rect x="283" y="242" width="13" height="13" />
<rect x="283" y="225" width="13" height="12" />
<rect x="283" y="233" width="13" height="13" />
<rect x="283" y="216" width="13" height="13" />
<rect x="249" y="84" width="12" height="13" />
<rect x="257" y="182" width="13" height="12" />
<rect x="266" y="182" width="13" height="12" />
<rect x="275" y="182" width="12" height="12" />
<rect x="275" y="268" width="12" height="12" />
<rect x="283" y="156" width="13" height="13" />
<rect x="292" y="156" width="8" height="13" />
<rect x="283" y="148" width="13" height="12" />
<rect x="292" y="148" width="8" height="12" />
<rect x="283" y="139" width="13" height="12" />
<rect x="292" y="139" width="8" height="12" />
<rect x="283" y="130" width="13" height="13" />
<rect x="292" y="130" width="8" height="13" />
<rect x="283" y="122" width="13" height="12" />
<rect x="292" y="122" width="8" height="12" />
<rect x="283" y="182" width="13" height="12" />
<rect x="292" y="182" width="8" height="12" />
<rect x="283" y="173" width="13" height="13" />
<rect x="292" y="173" width="8" height="13" />
<rect x="283" y="165" width="13" height="12" />
<rect x="292" y="165" width="8" height="12" />
<rect x="296" y="77" width="4" height="12" />
<rect x="296" y="68" width="4" height="13" />
<rect x="275" y="242" width="12" height="13" />
<rect x="275" y="225" width="12" height="12" />
<rect x="48" y="229" width="14" height="13" />
<rect x="292" y="285" width="8" height="13" />
<rect x="249" y="139" width="12" height="12" />
<rect x="232" y="139" width="12" height="12" />
<rect x="249" y="102" width="12" height="12" />
<rect x="180" y="277" width="12" height="12" />
<rect x="180" y="268" width="12" height="12" />
<rect x="232" y="208" width="12" height="12" />
<rect x="206" y="208" width="12" height="12" />
<rect x="197" y="208" width="13" height="12" />
<rect x="180" y="208" width="12" height="12" />
<rect x="197" y="199" width="13" height="12" />
<rect x="171" y="251" width="13" height="12" />
<rect x="171" y="259" width="13" height="13" />
<rect x="171" y="242" width="13" height="13" />
<rect x="171" y="225" width="13" height="12" />
<rect x="171" y="233" width="13" height="13" />
<rect x="171" y="216" width="13" height="13" />
<rect x="270" y="67" width="13" height="13" />
<rect x="283" y="208" width="13" height="12" />
<rect x="275" y="208" width="12" height="12" />
<rect x="270" y="59" width="13" height="12" />
<rect x="270" y="110" width="13" height="13" />
<rect x="264" y="127" width="13" height="13" />
<rect x="273" y="136" width="12" height="12" />
<rect x="258" y="76" width="12" height="12" />
<rect x="288" y="113" width="12" height="13" />
<rect x="296" y="113" width="4" height="13" />
<rect x="279" y="113" width="12" height="13" />
<rect x="296" y="105" width="4" height="12" />
<rect x="279" y="105" width="12" height="12" />
<rect x="296" y="96" width="4" height="12" />
<rect x="288" y="87" width="12" height="13" />
<rect x="296" y="87" width="4" height="13" />
<rect x="279" y="77" width="12" height="12" />
<rect x="288" y="77" width="12" height="12" />
<rect x="279" y="68" width="12" height="13" />
<rect x="288" y="68" width="12" height="13" />
<rect x="279" y="60" width="12" height="12" />
<rect x="288" y="60" width="12" height="12" />
<rect x="296" y="60" width="4" height="12" />
</g>
<g class="spawningMap-common">
<rect x="240" y="191" width="13" height="13" />
<rect x="246" y="200" width="12" height="12" />
<rect x="232" y="188" width="12" height="12" />
<rect x="232" y="196" width="12" height="13" />
<rect x="223" y="196" width="13" height="13" />
<rect x="215" y="193" width="12" height="12" />
<rect x="206" y="193" width="13" height="12" />
<rect x="189" y="197" width="13" height="12" />
<rect x="263" y="151" width="12" height="13" />
<rect x="254" y="148" width="12" height="12" />
<rect x="254" y="139" width="12" height="13" />
<rect x="182" y="114" width="13" height="12" />
<rect x="182" y="105" width="13" height="13" />
<rect x="104" y="109" width="13" height="13" />
<rect x="96" y="109" width="12" height="13" />
<rect x="92" y="101" width="13" height="12" />
<rect x="75" y="192" width="13" height="12" />
<rect x="75" y="200" width="13" height="13" />
<rect x="104" y="118" width="13" height="12" />
<rect x="181" y="196" width="12" height="12" />
<rect x="172" y="196" width="12" height="12" />
<rect x="253" y="208" width="13" height="12" />
<rect x="203" y="248" width="13" height="14" />
<rect x="252" y="131" width="12" height="12" />
<rect x="247" y="122" width="12" height="13" />
<rect x="69" y="208" width="12" height="12" />
<rect x="167" y="204" width="12" height="13" />
<rect x="198" y="194" width="12" height="12" />
</g>
</g>
</svg>