<?xml version="1.0" encoding="utf-8"?>
<svg xmlns="http://www.w3.org/2000/svg" width="300" height="300"
        viewBox="0 0 300 300" class="creatureMap" style="position:absolute;">
    <defs>
        <filter id="blur" x="-30%" y="-30%" width="160%" height="160%">
            <feGaussianBlur stdDeviation="3" />
        </filter>
        <pattern id="pattern-untameable" width="10" height="10" patternTransform="rotate(135)" patternUnits="userSpaceOnUse">
            <rect width="4" height="10" fill="black"></rect>
        </pattern>
        <filter id="groupStroke">
            <feFlood result="outsideColor" flood-color="black"/>
            <feMorphology in="SourceAlpha" operator="dilate" radius="2"/>
            <feComposite result="strokeoutline1" in="outsideColor" operator="in"/>
            <feComposite result="strokeoutline2" in="strokeoutline1" in2="SourceAlpha" operator="out"/>
            <feGaussianBlur in="strokeoutline2" result="strokeblur" stdDeviation="1"/>
        </filter>
        <style>
            .spawningMap-very-common { fill: #0F0; }
            .spawningMap-common { fill: #B2FF00; }
            .spawningMap-uncommon { fill: #FF0; }
            .spawningMap-very-uncommon { fill: #FC0; }
            .spawningMap-rare { fill: #F60; }
            .spawningMap-very-rare { fill: #F00; }
            .spawning-map-point { stroke:black; stroke-width:1; }
        </style>
    </defs>

<g filter="url(#blur)" opacity="0.7">
<g class="spawningMap-rare">
<rect x="209" y="250" width="30" height="26" />
<rect x="0" y="277" width="4" height="23" />
</g>
<g class="spawningMap-very-uncommon">
<rect x="48" y="229" width="14" height="13" />
</g>
<g class="spawningMap-uncommon">
<rect x="240" y="191" width="13" height="13" />
<rect x="246" y="200" width="12" height="12" />
<rect x="232" y="188" width="12" height="12" />
<rect x="232" y="196" width="12" height="13" />
<rect x="223" y="196" width="13" height="13" />
<rect x="215" y="193" width="12" height="12" />
<rect x="206" y="193" width="13" height="12" />
<rect x="189" y="197" width="13" height="12" />
<rect x="263" y="151" width="12" height="13" />
<rect x="254" y="148" width="12" height="12" />
<rect x="254" y="139" width="12" height="13" />
<rect x="182" y="114" width="13" height="12" />
<rect x="182" y="105" width="13" height="13" />
<rect x="104" y="109" width="13" height="13" />
<rect x="96" y="109" width="12" height="13" />
<rect x="92" y="101" width="13" height="12" />
<rect x="75" y="192" width="13" height="12" />
<rect x="75" y="200" width="13" height="13" />
<rect x="104" y="118" width="13" height="12" />
<rect x="181" y="196" width="12" height="12" />
<rect x="172" y="196" width="12" height="12" />
<rect x="253" y="208" width="13" height="12" />
<rect x="203" y="248" width="13" height="14" />
<rect x="252" y="131" width="12" height="12" />
<rect x="247" y="122" width="12" height="13" />
<rect x="69" y="208" width="12" height="12" />
<rect x="167" y="204" width="12" height="13" />
<rect x="198" y="194" width="12" height="12" />
</g>
</g>
<g fill="url(#pattern-untameable)" opacity="0.3">
<rect x="209" y="250" width="30" height="26"/>
<rect x="0" y="277" width="4" height="23"/>
<rect x="48" y="229" width="14" height="13"/>
<rect x="240" y="191" width="13" height="13"/>
<rect x="246" y="200" width="12" height="12"/>
<rect x="232" y="188" width="12" height="12"/>
<rect x="232" y="196" width="12" height="13"/>
<rect x="223" y="196" width="13" height="13"/>
<rect x="215" y="193" width="12" height="12"/>
<rect x="206" y="193" width="13" height="12"/>
<rect x="189" y="197" width="13" height="12"/>
<rect x="263" y="151" width="12" height="13"/>
<rect x="254" y="148" width="12" height="12"/>
<rect x="254" y="139" width="12" height="13"/>
<rect x="182" y="114" width="13" height="12"/>
<rect x="182" y="105" width="13" height="13"/>
<rect x="104" y="109" width="13" height="13"/>
<rect x="96" y="109" width="12" height="13"/>
<rect x="92" y="101" width="13" height="12"/>
<rect x="75" y="192" width="13" height="12"/>
<rect x="75" y="200" width="13" height="13"/>
<rect x="104" y="118" width="13" height="12"/>
<rect x="181" y="196" width="12" height="12"/>
<rect x="172" y="196" width="12" height="12"/>
<rect x="253" y="208" width="13" height="12"/>
<rect x="203" y="248" width="13" height="14"/>
<rect x="252" y="131" width="12" height="12"/>
<rect x="247" y="122" width="12" height="13"/>
<rect x="69" y="208" width="12" height="12"/>
<rect x="167" y="204" width="12" height="13"/>
<rect x="198" y="194" width="12" height="12"/>
</g>
</svg>