<?xml version="1.0" encoding="utf-8"?>
<svg xmlns="http://www.w3.org/2000/svg" width="300" height="300" viewBox="0 0 300 300" class="creatureMap" style="position:absolute;">
    <defs>
        <filter id="blur" x="-30%" y="-30%" width="160%" height="160%">
            <feGaussianBlur stdDeviation="3" />
        </filter>
        <pattern id="pattern-untameable" width="10" height="10" patternTransform="rotate(135)" patternUnits="userSpaceOnUse">'
            <rect width="4" height="10" fill="black"></rect>
        </pattern>
        <filter id="groupStroke">
            <feFlood result="outsideColor" flood-color="black"/>
            <feMorphology in="SourceAlpha" operator="dilate" radius="2"/>
            <feComposite result="strokeoutline1" in="outsideColor" operator="in"/>
            <feComposite result="strokeoutline2" in="strokeoutline1" in2="SourceAlpha" operator="out"/>
            <feGaussianBlur in="strokeoutline2" result="strokeblur" stdDeviation="1"/>
        </filter>
        <style>
            .spawningMap-very-common { fill: #0F0; }
            .spawningMap-common { fill: #B2FF00; }
            .spawningMap-uncommon { fill: #FF0; }
            .spawningMap-very-uncommon { fill: #FC0; }
            .spawningMap-rare { fill: #F60; }
            .spawningMap-very-rare { fill: #F00; }
            .spawning-map-point { stroke:black; stroke-width:1; }
        </style>
    </defs>

<g class="spawning-map-point" opacity="0.8">
<g class="spawningMap-rare">
<circle cx="272" cy="223" r="4" />
<circle cx="273" cy="223" r="4" />
<circle cx="273" cy="221" r="4" />
<circle cx="271" cy="223" r="4" />
<circle cx="270" cy="223" r="4" />
<circle cx="269" cy="222" r="4" />
<circle cx="268" cy="220" r="4" />
<circle cx="267" cy="217" r="4" />
<circle cx="269" cy="216" r="4" />
<circle cx="268" cy="215" r="4" />
<circle cx="266" cy="216" r="4" />
<circle cx="267" cy="214" r="4" />
<circle cx="267" cy="213" r="4" />
<circle cx="268" cy="213" r="4" />
<circle cx="268" cy="217" r="4" />
<circle cx="268" cy="218" r="4" />
<circle cx="264" cy="215" r="4" />
<circle cx="265" cy="215" r="4" />
<circle cx="264" cy="214" r="4" />
<circle cx="264" cy="215" r="4" />
</g>
<g class="spawningMap-very-uncommon">
<circle cx="162" cy="266" r="4" />
<circle cx="162" cy="266" r="4" />
<circle cx="163" cy="266" r="4" />
<circle cx="162" cy="266" r="4" />
<circle cx="161" cy="266" r="4" />
<circle cx="160" cy="265" r="4" />
<circle cx="159" cy="265" r="4" />
<circle cx="159" cy="266" r="4" />
<circle cx="158" cy="268" r="4" />
<circle cx="158" cy="269" r="4" />
<circle cx="157" cy="270" r="4" />
<circle cx="158" cy="272" r="4" />
<circle cx="158" cy="272" r="4" />
<circle cx="158" cy="272" r="4" />
<circle cx="157" cy="270" r="4" />
<circle cx="157" cy="268" r="4" />
<circle cx="156" cy="265" r="4" />
<circle cx="158" cy="265" r="4" />
<circle cx="114" cy="195" r="4" />
<circle cx="116" cy="194" r="4" />
<circle cx="116" cy="194" r="4" />
<circle cx="116" cy="194" r="4" />
<circle cx="114" cy="195" r="4" />
<circle cx="113" cy="193" r="4" />
<circle cx="114" cy="193" r="4" />
<circle cx="113" cy="194" r="4" />
<circle cx="117" cy="191" r="4" />
<circle cx="117" cy="188" r="4" />
<circle cx="118" cy="189" r="4" />
<circle cx="118" cy="188" r="4" />
<circle cx="115" cy="191" r="4" />
<circle cx="114" cy="189" r="4" />
<circle cx="114" cy="190" r="4" />
<circle cx="112" cy="193" r="4" />
<circle cx="115" cy="191" r="4" />
</g>
<g class="spawningMap-uncommon">
<circle cx="268" cy="32" r="4" />
<circle cx="272" cy="31" r="4" />
<circle cx="271" cy="32" r="4" />
<circle cx="269" cy="34" r="4" />
<circle cx="269" cy="35" r="4" />
<circle cx="268" cy="33" r="4" />
<circle cx="271" cy="31" r="4" />
<circle cx="272" cy="32" r="4" />
<circle cx="272" cy="31" r="4" />
<circle cx="271" cy="33" r="4" />
<circle cx="270" cy="31" r="4" />
<circle cx="272" cy="31" r="4" />
<circle cx="271" cy="32" r="4" />
<circle cx="269" cy="34" r="4" />
<circle cx="270" cy="30" r="4" />
<circle cx="272" cy="32" r="4" />
<circle cx="270" cy="31" r="4" />
<circle cx="270" cy="32" r="4" />
<circle cx="269" cy="32" r="4" />
<circle cx="269" cy="32" r="4" />
<circle cx="268" cy="33" r="4" />
</g>
</g>
</svg>