<?xml version="1.0" encoding="utf-8"?>
<svg xmlns="http://www.w3.org/2000/svg" width="300" height="300"
        viewBox="0 0 300 300" class="creatureMap" style="position:absolute;">
    <defs>
        <filter id="blur" x="-30%" y="-30%" width="160%" height="160%">
            <feGaussianBlur stdDeviation="3" />
        </filter>
        <pattern id="pattern-untameable" width="10" height="10" patternTransform="rotate(135)" patternUnits="userSpaceOnUse">
            <rect width="4" height="10" fill="black"></rect>
        </pattern>
        <filter id="groupStroke">
            <feFlood result="outsideColor" flood-color="black"/>
            <feMorphology in="SourceAlpha" operator="dilate" radius="2"/>
            <feComposite result="strokeoutline1" in="outsideColor" operator="in"/>
            <feComposite result="strokeoutline2" in="strokeoutline1" in2="SourceAlpha" operator="out"/>
            <feGaussianBlur in="strokeoutline2" result="strokeblur" stdDeviation="1"/>
        </filter>
        <style>
            .spawningMap-very-common { fill: #0F0; }
            .spawningMap-common { fill: #B2FF00; }
            .spawningMap-uncommon { fill: #FF0; }
            .spawningMap-very-uncommon { fill: #FC0; }
            .spawningMap-rare { fill: #F60; }
            .spawningMap-very-rare { fill: #F00; }
            .spawning-map-point { stroke:black; stroke-width:1; }
        </style>
    </defs>

<g filter="url(#blur)" opacity="0.7">
<g class="spawningMap-very-rare">
<rect x="24" y="75" width="18" height="18" />
<rect x="37" y="25" width="18" height="17" />
<rect x="50" y="25" width="18" height="17" />
<rect x="50" y="37" width="18" height="18" />
<rect x="37" y="37" width="18" height="18" />
<rect x="37" y="50" width="18" height="18" />
<rect x="50" y="50" width="18" height="18" />
<rect x="50" y="63" width="18" height="17" />
<rect x="37" y="63" width="18" height="17" />
<rect x="37" y="75" width="18" height="18" />
<rect x="50" y="75" width="18" height="18" />
<rect x="50" y="88" width="18" height="18" />
<rect x="89" y="25" width="18" height="17" />
<rect x="37" y="88" width="18" height="18" />
<rect x="63" y="25" width="18" height="17" />
<rect x="76" y="25" width="18" height="17" />
<rect x="76" y="37" width="18" height="18" />
<rect x="63" y="37" width="18" height="18" />
<rect x="63" y="50" width="18" height="18" />
<rect x="76" y="50" width="18" height="18" />
<rect x="76" y="63" width="18" height="17" />
<rect x="63" y="63" width="18" height="17" />
<rect x="63" y="75" width="18" height="18" />
<rect x="76" y="75" width="18" height="18" />
<rect x="76" y="88" width="18" height="18" />
<rect x="180" y="152" width="18" height="17" />
<rect x="63" y="88" width="18" height="18" />
<rect x="76" y="164" width="18" height="18" />
<rect x="76" y="177" width="18" height="18" />
<rect x="76" y="190" width="18" height="17" />
<rect x="102" y="25" width="18" height="17" />
<rect x="102" y="37" width="18" height="18" />
<rect x="89" y="37" width="18" height="18" />
<rect x="89" y="50" width="18" height="18" />
<rect x="102" y="50" width="18" height="18" />
<rect x="102" y="63" width="18" height="17" />
<rect x="89" y="63" width="18" height="17" />
<rect x="89" y="75" width="18" height="18" />
<rect x="102" y="164" width="18" height="18" />
<rect x="89" y="164" width="18" height="18" />
<rect x="89" y="177" width="18" height="18" />
<rect x="89" y="190" width="18" height="17" />
<rect x="128" y="25" width="18" height="17" />
<rect x="128" y="37" width="18" height="18" />
<rect x="115" y="37" width="18" height="18" />
<rect x="115" y="50" width="18" height="18" />
<rect x="128" y="50" width="18" height="18" />
<rect x="128" y="63" width="18" height="17" />
<rect x="115" y="63" width="18" height="17" />
<rect x="128" y="75" width="18" height="18" />
<rect x="128" y="139" width="18" height="17" />
<rect x="115" y="152" width="18" height="17" />
<rect x="115" y="177" width="18" height="18" />
<rect x="128" y="190" width="18" height="17" />
<rect x="115" y="190" width="18" height="17" />
<rect x="141" y="25" width="18" height="17" />
<rect x="154" y="25" width="18" height="17" />
<rect x="154" y="37" width="18" height="18" />
<rect x="141" y="37" width="18" height="18" />
<rect x="141" y="50" width="18" height="18" />
<rect x="154" y="50" width="18" height="18" />
<rect x="154" y="63" width="18" height="17" />
<rect x="141" y="63" width="18" height="17" />
<rect x="141" y="75" width="18" height="18" />
<rect x="154" y="75" width="18" height="18" />
<rect x="154" y="139" width="18" height="17" />
<rect x="141" y="139" width="18" height="17" />
<rect x="154" y="177" width="18" height="18" />
<rect x="141" y="190" width="18" height="17" />
<rect x="167" y="25" width="18" height="17" />
<rect x="180" y="25" width="18" height="17" />
<rect x="180" y="37" width="18" height="18" />
<rect x="167" y="37" width="18" height="18" />
<rect x="167" y="50" width="18" height="18" />
<rect x="180" y="50" width="18" height="18" />
<rect x="180" y="63" width="18" height="17" />
<rect x="167" y="63" width="18" height="17" />
<rect x="167" y="75" width="18" height="18" />
<rect x="180" y="139" width="18" height="17" />
<rect x="167" y="139" width="18" height="17" />
<rect x="167" y="152" width="18" height="17" />
<rect x="180" y="164" width="18" height="18" />
<rect x="167" y="164" width="18" height="18" />
<rect x="193" y="139" width="17" height="17" />
<rect x="193" y="152" width="17" height="17" />
<rect x="24" y="25" width="18" height="17" />
<rect x="12" y="37" width="17" height="18" />
<rect x="12" y="50" width="17" height="18" />
<rect x="24" y="50" width="18" height="18" />
<rect x="24" y="63" width="18" height="17" />
<rect x="180" y="12" width="17" height="17" />
<rect x="167" y="12" width="18" height="17" />
<rect x="154" y="12" width="18" height="17" />
<rect x="141" y="12" width="18" height="17" />
<rect x="128" y="12" width="18" height="17" />
<rect x="12" y="63" width="17" height="17" />
<rect x="24" y="88" width="18" height="18" />
<rect x="24" y="37" width="18" height="18" />
<rect x="102" y="75" width="18" height="18" />
<rect x="103" y="117" width="14" height="15" />
<rect x="108" y="105" width="18" height="20" />
<rect x="108" y="105" width="18" height="20" />
</g>
<g class="spawningMap-very-uncommon">
<rect x="100" y="117" width="14" height="15" />
<rect x="100" y="117" width="14" height="15" />
<rect x="101" y="117" width="15" height="15" />
<rect x="101" y="117" width="15" height="15" />
<rect x="108" y="105" width="18" height="20" />
<rect x="100" y="117" width="14" height="15" />
<rect x="101" y="117" width="15" height="15" />
</g>
<g class="spawningMap-uncommon">
<rect x="56" y="66" width="15" height="12" />
<rect x="61" y="72" width="10" height="8" />
<rect x="73" y="65" width="12" height="10" />
<rect x="66" y="66" width="9" height="11" />
<rect x="77" y="65" width="12" height="12" />
<rect x="73" y="65" width="12" height="10" />
<rect x="112" y="117" width="14" height="15" />
<rect x="112" y="117" width="14" height="15" />
<rect x="98" y="114" width="11" height="11" />
<rect x="98" y="114" width="11" height="11" />
<rect x="103" y="117" width="14" height="15" />
<rect x="112" y="117" width="14" height="15" />
<rect x="98" y="114" width="11" height="11" />
<rect x="103" y="117" width="14" height="15" />
</g>
<g class="spawningMap-common">
<rect x="59" y="75" width="10" height="9" />
<rect x="55" y="72" width="9" height="11" />
</g>
<g class="spawningMap-very-common">
<rect x="65" y="72" width="9" height="10" />
</g>
</g>
<g fill="url(#pattern-untameable)" opacity="0.3">
<rect x="103" y="117" width="14" height="15"/>
<rect x="108" y="105" width="18" height="20"/>
<rect x="108" y="105" width="18" height="20"/>
<rect x="100" y="117" width="14" height="15"/>
<rect x="100" y="117" width="14" height="15"/>
<rect x="101" y="117" width="15" height="15"/>
<rect x="101" y="117" width="15" height="15"/>
<rect x="108" y="105" width="18" height="20"/>
<rect x="100" y="117" width="14" height="15"/>
<rect x="101" y="117" width="15" height="15"/>
<rect x="56" y="66" width="15" height="12"/>
<rect x="61" y="72" width="10" height="8"/>
<rect x="73" y="65" width="12" height="10"/>
<rect x="66" y="66" width="9" height="11"/>
<rect x="77" y="65" width="12" height="12"/>
<rect x="73" y="65" width="12" height="10"/>
<rect x="112" y="117" width="14" height="15"/>
<rect x="112" y="117" width="14" height="15"/>
<rect x="98" y="114" width="11" height="11"/>
<rect x="98" y="114" width="11" height="11"/>
<rect x="103" y="117" width="14" height="15"/>
<rect x="112" y="117" width="14" height="15"/>
<rect x="98" y="114" width="11" height="11"/>
<rect x="103" y="117" width="14" height="15"/>
<rect x="59" y="75" width="10" height="9"/>
<rect x="55" y="72" width="9" height="11"/>
<rect x="65" y="72" width="9" height="10"/>
</g>
<g filter="url(#groupStroke)" opacity="0.8">
<rect x="103" y="117" width="14" height="15"/>
<rect x="108" y="105" width="18" height="20"/>
<rect x="108" y="105" width="18" height="20"/>
<rect x="100" y="117" width="14" height="15"/>
<rect x="100" y="117" width="14" height="15"/>
<rect x="101" y="117" width="15" height="15"/>
<rect x="101" y="117" width="15" height="15"/>
<rect x="108" y="105" width="18" height="20"/>
<rect x="100" y="117" width="14" height="15"/>
<rect x="101" y="117" width="15" height="15"/>
<rect x="56" y="66" width="15" height="12"/>
<rect x="61" y="72" width="10" height="8"/>
<rect x="73" y="65" width="12" height="10"/>
<rect x="66" y="66" width="9" height="11"/>
<rect x="77" y="65" width="12" height="12"/>
<rect x="73" y="65" width="12" height="10"/>
<rect x="112" y="117" width="14" height="15"/>
<rect x="112" y="117" width="14" height="15"/>
<rect x="98" y="114" width="11" height="11"/>
<rect x="98" y="114" width="11" height="11"/>
<rect x="103" y="117" width="14" height="15"/>
<rect x="112" y="117" width="14" height="15"/>
<rect x="98" y="114" width="11" height="11"/>
<rect x="103" y="117" width="14" height="15"/>
<rect x="59" y="75" width="10" height="9"/>
<rect x="55" y="72" width="9" height="11"/>
<rect x="65" y="72" width="9" height="10"/>
</g>
</svg>