<?xml version="1.0" encoding="utf-8"?>
<svg xmlns="http://www.w3.org/2000/svg" width="300" height="300" viewBox="0 0 300 300" class="creatureMap" style="position:absolute;">
    <defs>
        <filter id="blur" x="-30%" y="-30%" width="160%" height="160%">
            <feGaussianBlur stdDeviation="3" />
        </filter>
        <pattern id="pattern-untameable" width="10" height="10" patternTransform="rotate(135)" patternUnits="userSpaceOnUse">'
            <rect width="4" height="10" fill="black"></rect>
        </pattern>
        <filter id="groupStroke">
            <feFlood result="outsideColor" flood-color="black"/>
            <feMorphology in="SourceAlpha" operator="dilate" radius="2"/>
            <feComposite result="strokeoutline1" in="outsideColor" operator="in"/>
            <feComposite result="strokeoutline2" in="strokeoutline1" in2="SourceAlpha" operator="out"/>
            <feGaussianBlur in="strokeoutline2" result="strokeblur" stdDeviation="1"/>
        </filter>
        <style>
            .spawningMap-very-common { fill: #0F0; }
            .spawningMap-common { fill: #B2FF00; }
            .spawningMap-uncommon { fill: #FF0; }
            .spawningMap-very-uncommon { fill: #FC0; }
            .spawningMap-rare { fill: #F60; }
            .spawningMap-very-rare { fill: #F00; }
            .spawning-map-point { stroke:black; stroke-width:1; }
        </style>
    </defs>

<g filter="url(#blur)" opacity="0.7">
<g class="spawningMap-very-rare">
<rect x="48" y="45" width="43" height="39" />
<rect x="171" y="88" width="23" height="21" />
<rect x="241" y="84" width="23" height="21" />
<rect x="99" y="112" width="23" height="21" />
<rect x="149" y="40" width="23" height="21" />
</g>
<g class="spawningMap-common">
<rect x="108" y="105" width="18" height="20" />
<rect x="108" y="105" width="18" height="20" />
</g>
<g class="spawningMap-very-common">
<rect x="103" y="117" width="14" height="15" />
</g>
</g>
<g fill="url(#pattern-untameable)" opacity="0.3">
<rect x="108" y="105" width="18" height="20"/>
<rect x="108" y="105" width="18" height="20"/>
<rect x="103" y="117" width="14" height="15"/>
</g>
<g filter="url(#groupStroke)" opacity="0.8">
<rect x="108" y="105" width="18" height="20"/>
<rect x="108" y="105" width="18" height="20"/>
<rect x="103" y="117" width="14" height="15"/>
</g>
</svg>