<?xml version="1.0" encoding="utf-8"?>
<svg xmlns="http://www.w3.org/2000/svg" width="300" height="300" viewBox="0 0 300 300" class="creatureMap" style="position:absolute;">
    <defs>
        <filter id="blur" x="-30%" y="-30%" width="160%" height="160%">
            <feGaussianBlur stdDeviation="3" />
        </filter>
        <pattern id="pattern-untameable" width="10" height="10" patternTransform="rotate(135)" patternUnits="userSpaceOnUse">'
            <rect width="4" height="10" fill="black"></rect>
        </pattern>
        <filter id="groupStroke">
            <feFlood result="outsideColor" flood-color="black"/>
            <feMorphology in="SourceAlpha" operator="dilate" radius="2"/>
            <feComposite result="strokeoutline1" in="outsideColor" operator="in"/>
            <feComposite result="strokeoutline2" in="strokeoutline1" in2="SourceAlpha" operator="out"/>
            <feGaussianBlur in="strokeoutline2" result="strokeblur" stdDeviation="1"/>
        </filter>
        <style>
            .spawningMap-very-common { fill: #0F0; }
            .spawningMap-common { fill: #B2FF00; }
            .spawningMap-uncommon { fill: #FF0; }
            .spawningMap-very-uncommon { fill: #FC0; }
            .spawningMap-rare { fill: #F60; }
            .spawningMap-very-rare { fill: #F00; }
            .spawning-map-point { stroke:black; stroke-width:1; }
        </style>
    </defs>

<g filter="url(#blur)" opacity="0.7">
<g class="spawningMap-very-uncommon">
<rect x="262" y="76" width="9" height="9" />
<rect x="249" y="67" width="10" height="9" />
<rect x="251" y="55" width="9" height="9" />
<rect x="247" y="51" width="18" height="18" />
<rect x="235" y="63" width="18" height="18" />
<rect x="243" y="73" width="25" height="15" />
<rect x="249" y="52" width="9" height="9" />
<rect x="239" y="70" width="9" height="9" />
<rect x="246" y="40" width="9" height="9" />
<rect x="256" y="79" width="9" height="9" />
<rect x="235" y="51" width="18" height="18" />
<rect x="247" y="63" width="18" height="18" />
<rect x="237" y="52" width="12" height="12" />
<rect x="243" y="67" width="9" height="9" />
</g>
<g class="spawningMap-uncommon">
<rect x="251" y="57" width="12" height="12" />
<rect x="250" y="75" width="12" height="12" />
<rect x="237" y="75" width="12" height="12" />
<rect x="244" y="75" width="12" height="12" />
</g>
</g>
<g fill="url(#pattern-untameable)" opacity="0.3">
<rect x="249" y="67" width="10" height="9"/>
<rect x="251" y="55" width="9" height="9"/>
<rect x="249" y="52" width="9" height="9"/>
<rect x="239" y="70" width="9" height="9"/>
<rect x="246" y="40" width="9" height="9"/>
<rect x="256" y="79" width="9" height="9"/>
<rect x="243" y="67" width="9" height="9"/>
</g>
<g filter="url(#groupStroke)" opacity="0.8">
<rect x="262" y="76" width="9" height="9"/>
<rect x="249" y="67" width="10" height="9"/>
<rect x="251" y="55" width="9" height="9"/>
<rect x="247" y="51" width="18" height="18"/>
<rect x="235" y="63" width="18" height="18"/>
<rect x="243" y="73" width="25" height="15"/>
<rect x="249" y="52" width="9" height="9"/>
<rect x="239" y="70" width="9" height="9"/>
<rect x="246" y="40" width="9" height="9"/>
<rect x="256" y="79" width="9" height="9"/>
<rect x="235" y="51" width="18" height="18"/>
<rect x="247" y="63" width="18" height="18"/>
<rect x="237" y="52" width="12" height="12"/>
<rect x="243" y="67" width="9" height="9"/>
<rect x="251" y="57" width="12" height="12"/>
<rect x="250" y="75" width="12" height="12"/>
<rect x="237" y="75" width="12" height="12"/>
<rect x="244" y="75" width="12" height="12"/>
</g>
</svg>