<?xml version="1.0" encoding="utf-8"?>
<svg xmlns="http://www.w3.org/2000/svg" width="300" height="300" viewBox="0 0 300 300" class="creatureMap" style="position:absolute;">
    <defs>
        <filter id="blur" x="-30%" y="-30%" width="160%" height="160%">
            <feGaussianBlur stdDeviation="3" />
        </filter>
        <pattern id="pattern-untameable" width="10" height="10" patternTransform="rotate(135)" patternUnits="userSpaceOnUse">'
            <rect width="4" height="10" fill="black"></rect>
        </pattern>
        <filter id="groupStroke">
            <feFlood result="outsideColor" flood-color="black"/>
            <feMorphology in="SourceAlpha" operator="dilate" radius="2"/>
            <feComposite result="strokeoutline1" in="outsideColor" operator="in"/>
            <feComposite result="strokeoutline2" in="strokeoutline1" in2="SourceAlpha" operator="out"/>
            <feGaussianBlur in="strokeoutline2" result="strokeblur" stdDeviation="1"/>
        </filter>
        <style>
            .spawningMap-very-common { fill: #0F0; }
            .spawningMap-common { fill: #B2FF00; }
            .spawningMap-uncommon { fill: #FF0; }
            .spawningMap-very-uncommon { fill: #FC0; }
            .spawningMap-rare { fill: #F60; }
            .spawningMap-very-rare { fill: #F00; }
            .spawning-map-point { stroke:black; stroke-width:1; }
        </style>
    </defs>

<g filter="url(#blur)" opacity="0.7">
<g class="spawningMap-very-rare">
<rect x="92" y="186" width="17" height="18" />
<rect x="92" y="180" width="17" height="12" />
<rect x="92" y="198" width="17" height="18" />
<rect x="92" y="210" width="17" height="17" />
<rect x="92" y="222" width="17" height="17" />
<rect x="92" y="234" width="17" height="17" />
<rect x="92" y="246" width="17" height="17" />
<rect x="92" y="258" width="17" height="17" />
<rect x="91" y="270" width="18" height="14" />
<rect x="80" y="180" width="17" height="12" />
<rect x="80" y="186" width="17" height="18" />
<rect x="80" y="198" width="17" height="18" />
<rect x="80" y="210" width="17" height="17" />
<rect x="80" y="222" width="17" height="17" />
<rect x="80" y="234" width="17" height="17" />
<rect x="80" y="246" width="17" height="17" />
<rect x="80" y="258" width="17" height="17" />
<rect x="80" y="270" width="17" height="14" />
<rect x="68" y="180" width="17" height="12" />
<rect x="68" y="186" width="17" height="18" />
<rect x="68" y="198" width="17" height="18" />
<rect x="68" y="210" width="17" height="17" />
<rect x="68" y="222" width="17" height="17" />
<rect x="68" y="234" width="17" height="17" />
<rect x="68" y="246" width="17" height="17" />
<rect x="68" y="258" width="17" height="17" />
<rect x="68" y="270" width="17" height="14" />
<rect x="56" y="180" width="17" height="12" />
<rect x="56" y="186" width="17" height="18" />
<rect x="56" y="198" width="17" height="18" />
<rect x="56" y="222" width="17" height="17" />
<rect x="56" y="246" width="17" height="17" />
<rect x="56" y="258" width="17" height="17" />
<rect x="56" y="270" width="17" height="14" />
</g>
</g>
</svg>