<?xml version="1.0" encoding="utf-8"?>
<svg xmlns="http://www.w3.org/2000/svg" width="300" height="300" viewBox="0 0 300 300" class="creatureMap" style="position:absolute;">
    <defs>
        <filter id="blur" x="-30%" y="-30%" width="160%" height="160%">
            <feGaussianBlur stdDeviation="3" />
        </filter>
        <pattern id="pattern-untameable" width="10" height="10" patternTransform="rotate(135)" patternUnits="userSpaceOnUse">'
            <rect width="4" height="10" fill="black"></rect>
        </pattern>
        <filter id="groupStroke">
            <feFlood result="outsideColor" flood-color="black"/>
            <feMorphology in="SourceAlpha" operator="dilate" radius="2"/>
            <feComposite result="strokeoutline1" in="outsideColor" operator="in"/>
            <feComposite result="strokeoutline2" in="strokeoutline1" in2="SourceAlpha" operator="out"/>
            <feGaussianBlur in="strokeoutline2" result="strokeblur" stdDeviation="1"/>
        </filter>
        <style>
            .spawningMap-very-common { fill: #0F0; }
            .spawningMap-common { fill: #B2FF00; }
            .spawningMap-uncommon { fill: #FF0; }
            .spawningMap-very-uncommon { fill: #FC0; }
            .spawningMap-rare { fill: #F60; }
            .spawningMap-very-rare { fill: #F00; }
            .spawning-map-point { stroke:black; stroke-width:1; }
        </style>
    </defs>

<g filter="url(#blur)" opacity="0.7">
<g class="spawningMap-very-rare">
<rect x="17" y="15" width="17" height="18" />
<rect x="12" y="15" width="10" height="18" />
<rect x="76" y="15" width="17" height="18" />
<rect x="88" y="15" width="17" height="18" />
<rect x="100" y="15" width="12" height="18" />
<rect x="29" y="15" width="17" height="18" />
<rect x="40" y="28" width="18" height="17" />
<rect x="40" y="15" width="18" height="18" />
<rect x="76" y="111" width="17" height="17" />
<rect x="52" y="15" width="18" height="18" />
<rect x="64" y="15" width="17" height="18" />
</g>
<g class="spawningMap-rare">
<rect x="100" y="158" width="12" height="15" />
<rect x="100" y="99" width="12" height="17" />
<rect x="88" y="99" width="17" height="17" />
<rect x="100" y="87" width="12" height="17" />
<rect x="88" y="87" width="17" height="17" />
<rect x="100" y="75" width="12" height="17" />
<rect x="88" y="75" width="17" height="17" />
<rect x="76" y="99" width="17" height="17" />
<rect x="76" y="87" width="17" height="17" />
<rect x="76" y="75" width="17" height="17" />
<rect x="17" y="158" width="17" height="15" />
<rect x="12" y="158" width="10" height="15" />
<rect x="17" y="99" width="17" height="17" />
<rect x="12" y="99" width="10" height="17" />
<rect x="17" y="87" width="17" height="17" />
<rect x="12" y="87" width="10" height="17" />
<rect x="17" y="75" width="17" height="17" />
<rect x="12" y="75" width="10" height="17" />
<rect x="17" y="63" width="17" height="18" />
<rect x="12" y="63" width="10" height="18" />
<rect x="17" y="51" width="17" height="18" />
<rect x="12" y="51" width="10" height="18" />
<rect x="17" y="40" width="17" height="17" />
<rect x="12" y="40" width="10" height="17" />
<rect x="17" y="28" width="17" height="17" />
<rect x="12" y="28" width="10" height="17" />
<rect x="76" y="63" width="17" height="18" />
<rect x="76" y="51" width="17" height="18" />
<rect x="76" y="40" width="17" height="17" />
<rect x="76" y="28" width="17" height="17" />
<rect x="88" y="63" width="17" height="18" />
<rect x="88" y="51" width="17" height="18" />
<rect x="88" y="40" width="17" height="17" />
<rect x="88" y="28" width="17" height="17" />
<rect x="100" y="63" width="12" height="18" />
<rect x="100" y="51" width="12" height="18" />
<rect x="100" y="40" width="12" height="17" />
<rect x="100" y="28" width="12" height="17" />
<rect x="40" y="158" width="18" height="15" />
<rect x="29" y="158" width="17" height="15" />
<rect x="100" y="147" width="12" height="17" />
<rect x="76" y="147" width="17" height="17" />
<rect x="100" y="135" width="12" height="17" />
<rect x="88" y="135" width="17" height="17" />
<rect x="76" y="135" width="17" height="17" />
<rect x="17" y="123" width="17" height="17" />
<rect x="12" y="123" width="10" height="17" />
<rect x="17" y="111" width="17" height="17" />
<rect x="12" y="111" width="10" height="17" />
<rect x="40" y="99" width="18" height="17" />
<rect x="40" y="87" width="18" height="17" />
<rect x="40" y="75" width="18" height="17" />
<rect x="40" y="123" width="18" height="17" />
<rect x="29" y="123" width="17" height="17" />
<rect x="40" y="111" width="18" height="17" />
<rect x="29" y="111" width="17" height="17" />
<rect x="29" y="99" width="17" height="17" />
<rect x="29" y="87" width="17" height="17" />
<rect x="29" y="75" width="17" height="17" />
<rect x="29" y="63" width="17" height="18" />
<rect x="29" y="51" width="17" height="18" />
<rect x="29" y="40" width="17" height="17" />
<rect x="29" y="28" width="17" height="17" />
<rect x="40" y="63" width="18" height="18" />
<rect x="40" y="51" width="18" height="18" />
<rect x="40" y="40" width="18" height="17" />
<rect x="40" y="147" width="18" height="17" />
<rect x="29" y="147" width="17" height="17" />
<rect x="40" y="135" width="18" height="17" />
<rect x="29" y="135" width="17" height="17" />
<rect x="53" y="100" width="17" height="20" />
<rect x="60" y="49" width="10" height="14" />
<rect x="88" y="158" width="17" height="15" />
<rect x="76" y="158" width="17" height="15" />
<rect x="64" y="158" width="17" height="15" />
<rect x="52" y="158" width="18" height="15" />
<rect x="100" y="123" width="12" height="17" />
<rect x="88" y="123" width="17" height="17" />
<rect x="76" y="123" width="17" height="17" />
<rect x="100" y="111" width="12" height="17" />
<rect x="88" y="111" width="17" height="17" />
<rect x="17" y="147" width="17" height="17" />
<rect x="12" y="147" width="10" height="17" />
<rect x="17" y="135" width="17" height="17" />
<rect x="12" y="135" width="10" height="17" />
<rect x="64" y="99" width="17" height="17" />
<rect x="64" y="87" width="17" height="17" />
<rect x="64" y="75" width="17" height="17" />
<rect x="64" y="123" width="17" height="17" />
<rect x="52" y="123" width="18" height="17" />
<rect x="64" y="111" width="17" height="17" />
<rect x="52" y="111" width="18" height="17" />
<rect x="52" y="99" width="18" height="17" />
<rect x="52" y="87" width="18" height="17" />
<rect x="52" y="75" width="18" height="17" />
<rect x="52" y="63" width="18" height="18" />
<rect x="52" y="51" width="18" height="18" />
<rect x="52" y="40" width="18" height="17" />
<rect x="52" y="28" width="18" height="17" />
<rect x="64" y="51" width="17" height="18" />
<rect x="64" y="40" width="17" height="17" />
<rect x="64" y="28" width="17" height="17" />
<rect x="64" y="147" width="17" height="17" />
<rect x="52" y="147" width="18" height="17" />
<rect x="64" y="135" width="17" height="17" />
<rect x="52" y="135" width="18" height="17" />
<rect x="64" y="63" width="17" height="18" />
<rect x="88" y="147" width="17" height="17" />
</g>
<g class="spawningMap-very-uncommon">
<rect x="18" y="147" width="10" height="14" />
</g>
</g>
<g filter="url(#groupStroke)" opacity="0.8">
<rect x="53" y="100" width="17" height="20"/>
<rect x="60" y="49" width="10" height="14"/>
<rect x="18" y="147" width="10" height="14"/>
</g>
</svg>