<?xml version="1.0" encoding="utf-8"?>
<svg xmlns="http://www.w3.org/2000/svg" width="300" height="300" viewBox="0 0 300 300" class="creatureMap" style="position:absolute;">
    <defs>
        <filter id="blur" x="-30%" y="-30%" width="160%" height="160%">
            <feGaussianBlur stdDeviation="3" />
        </filter>
        <pattern id="pattern-untameable" width="10" height="10" patternTransform="rotate(135)" patternUnits="userSpaceOnUse">'
            <rect width="4" height="10" fill="black"></rect>
        </pattern>
        <filter id="groupStroke">
            <feFlood result="outsideColor" flood-color="black"/>
            <feMorphology in="SourceAlpha" operator="dilate" radius="2"/>
            <feComposite result="strokeoutline1" in="outsideColor" operator="in"/>
            <feComposite result="strokeoutline2" in="strokeoutline1" in2="SourceAlpha" operator="out"/>
            <feGaussianBlur in="strokeoutline2" result="strokeblur" stdDeviation="1"/>
        </filter>
        <style>
            .spawningMap-very-common { fill: #0F0; }
            .spawningMap-common { fill: #B2FF00; }
            .spawningMap-uncommon { fill: #FF0; }
            .spawningMap-very-uncommon { fill: #FC0; }
            .spawningMap-rare { fill: #F60; }
            .spawningMap-very-rare { fill: #F00; }
            .spawning-map-point { stroke:black; stroke-width:1; }
        </style>
    </defs>

<g filter="url(#blur)" opacity="0.7">
<g class="spawningMap-common">
<rect x="142" y="101" width="16" height="16" />
<rect x="124" y="116" width="17" height="17" />
<rect x="140" y="139" width="16" height="16" />
<rect x="143" y="149" width="16" height="17" />
<rect x="153" y="133" width="16" height="17" />
<rect x="211" y="197" width="17" height="17" />
<rect x="209" y="225" width="17" height="16" />
<rect x="187" y="205" width="16" height="16" />
<rect x="180" y="193" width="17" height="17" />
<rect x="142" y="39" width="16" height="17" />
<rect x="147" y="64" width="16" height="17" />
<rect x="146" y="75" width="16" height="16" />
<rect x="143" y="89" width="16" height="17" />
</g>
<g class="spawningMap-very-common">
<rect x="227" y="142" width="16" height="16" />
<rect x="108" y="210" width="17" height="17" />
<rect x="108" y="221" width="17" height="17" />
</g>
</g>
</svg>