<?xml version="1.0" encoding="utf-8"?>
<svg xmlns="http://www.w3.org/2000/svg" width="300" height="300" viewBox="0 0 300 300" class="creatureMap" style="position:absolute;">
    <defs>
        <filter id="blur" x="-30%" y="-30%" width="160%" height="160%">
            <feGaussianBlur stdDeviation="3" />
        </filter>
        <pattern id="pattern-untameable" width="10" height="10" patternTransform="rotate(135)" patternUnits="userSpaceOnUse">'
            <rect width="4" height="10" fill="black"></rect>
        </pattern>
        <filter id="groupStroke">
            <feFlood result="outsideColor" flood-color="black"/>
            <feMorphology in="SourceAlpha" operator="dilate" radius="2"/>
            <feComposite result="strokeoutline1" in="outsideColor" operator="in"/>
            <feComposite result="strokeoutline2" in="strokeoutline1" in2="SourceAlpha" operator="out"/>
            <feGaussianBlur in="strokeoutline2" result="strokeblur" stdDeviation="1"/>
        </filter>
        <style>
            .spawningMap-very-common { fill: #0F0; }
            .spawningMap-common { fill: #B2FF00; }
            .spawningMap-uncommon { fill: #FF0; }
            .spawningMap-very-uncommon { fill: #FC0; }
            .spawningMap-rare { fill: #F60; }
            .spawningMap-very-rare { fill: #F00; }
            .spawning-map-point { stroke:black; stroke-width:1; }
        </style>
    </defs>

<g filter="url(#blur)" opacity="0.7">
<g class="spawningMap-very-rare">
<rect x="142" y="62" width="16" height="17" />
<rect x="142" y="73" width="16" height="17" />
<rect x="153" y="73" width="17" height="17" />
<rect x="142" y="85" width="16" height="16" />
<rect x="130" y="96" width="17" height="17" />
<rect x="142" y="96" width="16" height="17" />
<rect x="130" y="108" width="17" height="16" />
<rect x="153" y="108" width="17" height="16" />
<rect x="18" y="85" width="11" height="11" />
<rect x="16" y="95" width="11" height="11" />
<rect x="37" y="213" width="10" height="11" />
<rect x="19" y="110" width="12" height="11" />
<rect x="25" y="120" width="11" height="11" />
<rect x="24" y="130" width="11" height="11" />
<rect x="24" y="135" width="11" height="11" />
<rect x="26" y="144" width="11" height="11" />
<rect x="29" y="158" width="11" height="11" />
<rect x="30" y="169" width="12" height="11" />
<rect x="31" y="185" width="10" height="11" />
<rect x="29" y="193" width="10" height="11" />
<rect x="30" y="198" width="11" height="11" />
<rect x="30" y="203" width="10" height="11" />
<rect x="32" y="208" width="10" height="11" />
<rect x="45" y="222" width="10" height="11" />
<rect x="39" y="218" width="10" height="11" />
</g>
<g class="spawningMap-very-uncommon">
<rect x="119" y="119" width="16" height="16" />
<rect x="130" y="119" width="17" height="16" />
<rect x="153" y="119" width="17" height="16" />
<rect x="130" y="130" width="17" height="17" />
<rect x="142" y="130" width="16" height="17" />
<rect x="153" y="130" width="17" height="17" />
<rect x="142" y="142" width="16" height="16" />
<rect x="153" y="142" width="17" height="16" />
<rect x="142" y="153" width="16" height="17" />
<rect x="165" y="153" width="16" height="17" />
<rect x="153" y="165" width="17" height="16" />
<rect x="210" y="199" width="17" height="16" />
<rect x="210" y="210" width="17" height="17" />
<rect x="142" y="39" width="16" height="17" />
<rect x="142" y="51" width="16" height="16" />
</g>
</g>
<g class="spawning-map-point" opacity="0.8">
<g class="spawningMap-very-rare">
<circle cx="242" cy="249" r="4" />
<circle cx="255" cy="247" r="4" />
<circle cx="257" cy="251" r="4" />
<circle cx="261" cy="252" r="4" />
<circle cx="262" cy="251" r="4" />
<circle cx="263" cy="247" r="4" />
<circle cx="262" cy="245" r="4" />
<circle cx="263" cy="244" r="4" />
<circle cx="262" cy="244" r="4" />
<circle cx="260" cy="242" r="4" />
<circle cx="257" cy="243" r="4" />
<circle cx="255" cy="244" r="4" />
<circle cx="251" cy="244" r="4" />
<circle cx="251" cy="244" r="4" />
<circle cx="250" cy="246" r="4" />
<circle cx="250" cy="247" r="4" />
<circle cx="249" cy="248" r="4" />
<circle cx="247" cy="251" r="4" />
<circle cx="247" cy="247" r="4" />
<circle cx="249" cy="245" r="4" />
<circle cx="245" cy="248" r="4" />
<circle cx="244" cy="246" r="4" />
<circle cx="245" cy="246" r="4" />
<circle cx="245" cy="245" r="4" />
<circle cx="245" cy="246" r="4" />
<circle cx="242" cy="244" r="4" />
<circle cx="243" cy="246" r="4" />
<circle cx="243" cy="248" r="4" />
<circle cx="77" cy="80" r="4" />
<circle cx="78" cy="80" r="4" />
<circle cx="79" cy="81" r="4" />
<circle cx="79" cy="81" r="4" />
<circle cx="79" cy="80" r="4" />
<circle cx="80" cy="82" r="4" />
<circle cx="76" cy="81" r="4" />
<circle cx="77" cy="83" r="4" />
<circle cx="79" cy="82" r="4" />
<circle cx="78" cy="82" r="4" />
<circle cx="79" cy="83" r="4" />
<circle cx="79" cy="84" r="4" />
<circle cx="79" cy="84" r="4" />
<circle cx="78" cy="85" r="4" />
<circle cx="78" cy="84" r="4" />
<circle cx="77" cy="84" r="4" />
<circle cx="77" cy="85" r="4" />
<circle cx="78" cy="86" r="4" />
<circle cx="77" cy="87" r="4" />
<circle cx="77" cy="87" r="4" />
<circle cx="76" cy="90" r="4" />
<circle cx="76" cy="90" r="4" />
<circle cx="74" cy="90" r="4" />
<circle cx="78" cy="89" r="4" />
<circle cx="78" cy="89" r="4" />
<circle cx="75" cy="94" r="4" />
<circle cx="79" cy="91" r="4" />
<circle cx="79" cy="91" r="4" />
<circle cx="77" cy="93" r="4" />
<circle cx="77" cy="95" r="4" />
<circle cx="75" cy="95" r="4" />
<circle cx="76" cy="96" r="4" />
<circle cx="75" cy="96" r="4" />
<circle cx="75" cy="95" r="4" />
<circle cx="76" cy="94" r="4" />
</g>
<g class="spawningMap-rare">
<circle cx="136" cy="177" r="4" />
<circle cx="132" cy="176" r="4" />
<circle cx="132" cy="176" r="4" />
<circle cx="132" cy="176" r="4" />
<circle cx="132" cy="176" r="4" />
<circle cx="131" cy="175" r="4" />
<circle cx="131" cy="175" r="4" />
<circle cx="131" cy="177" r="4" />
<circle cx="130" cy="176" r="4" />
<circle cx="129" cy="175" r="4" />
<circle cx="129" cy="174" r="4" />
<circle cx="137" cy="177" r="4" />
<circle cx="130" cy="173" r="4" />
<circle cx="131" cy="173" r="4" />
<circle cx="132" cy="175" r="4" />
<circle cx="131" cy="176" r="4" />
<circle cx="132" cy="176" r="4" />
<circle cx="132" cy="176" r="4" />
<circle cx="131" cy="179" r="4" />
<circle cx="131" cy="179" r="4" />
<circle cx="131" cy="179" r="4" />
<circle cx="130" cy="178" r="4" />
<circle cx="138" cy="177" r="4" />
<circle cx="131" cy="178" r="4" />
<circle cx="131" cy="179" r="4" />
<circle cx="130" cy="180" r="4" />
<circle cx="130" cy="182" r="4" />
<circle cx="127" cy="181" r="4" />
<circle cx="129" cy="180" r="4" />
<circle cx="127" cy="179" r="4" />
<circle cx="127" cy="179" r="4" />
<circle cx="127" cy="178" r="4" />
<circle cx="138" cy="176" r="4" />
<circle cx="136" cy="175" r="4" />
<circle cx="136" cy="174" r="4" />
<circle cx="134" cy="174" r="4" />
<circle cx="134" cy="174" r="4" />
<circle cx="133" cy="174" r="4" />
</g>
</g>
</svg>