<?xml version="1.0" encoding="utf-8"?>
<svg xmlns="http://www.w3.org/2000/svg" width="300" height="300" viewBox="0 0 300 300" class="creatureMap" style="position:absolute;">
    <defs>
        <filter id="blur" x="-30%" y="-30%" width="160%" height="160%">
            <feGaussianBlur stdDeviation="3" />
        </filter>
        <pattern id="pattern-untameable" width="10" height="10" patternTransform="rotate(135)" patternUnits="userSpaceOnUse">'
            <rect width="4" height="10" fill="black"></rect>
        </pattern>
        <filter id="groupStroke">
            <feFlood result="outsideColor" flood-color="black"/>
            <feMorphology in="SourceAlpha" operator="dilate" radius="2"/>
            <feComposite result="strokeoutline1" in="outsideColor" operator="in"/>
            <feComposite result="strokeoutline2" in="strokeoutline1" in2="SourceAlpha" operator="out"/>
            <feGaussianBlur in="strokeoutline2" result="strokeblur" stdDeviation="1"/>
        </filter>
        <style>
            .spawningMap-very-common { fill: #0F0; }
            .spawningMap-common { fill: #B2FF00; }
            .spawningMap-uncommon { fill: #FF0; }
            .spawningMap-very-uncommon { fill: #FC0; }
            .spawningMap-rare { fill: #F60; }
            .spawningMap-very-rare { fill: #F00; }
            .spawning-map-point { stroke:black; stroke-width:1; }
        </style>
    </defs>

<g filter="url(#blur)" opacity="0.7">
<g class="spawningMap-very-uncommon">
<rect x="63" y="228" width="18" height="18" />
<rect x="154" y="266" width="18" height="18" />
<rect x="37" y="139" width="18" height="17" />
<rect x="37" y="215" width="18" height="18" />
<rect x="37" y="241" width="18" height="17" />
<rect x="37" y="228" width="18" height="18" />
<rect x="257" y="203" width="18" height="17" />
<rect x="244" y="215" width="18" height="18" />
<rect x="270" y="177" width="18" height="18" />
<rect x="212" y="31" width="18" height="17" />
<rect x="180" y="37" width="18" height="18" />
<rect x="115" y="37" width="18" height="18" />
<rect x="37" y="266" width="18" height="18" />
<rect x="37" y="254" width="18" height="17" />
<rect x="50" y="254" width="18" height="17" />
<rect x="25" y="190" width="17" height="17" />
<rect x="25" y="177" width="17" height="18" />
<rect x="24" y="164" width="18" height="18" />
<rect x="24" y="152" width="18" height="17" />
<rect x="37" y="114" width="18" height="17" />
<rect x="115" y="25" width="18" height="17" />
<rect x="25" y="114" width="17" height="17" />
<rect x="37" y="101" width="18" height="17" />
<rect x="25" y="75" width="17" height="18" />
<rect x="231" y="25" width="18" height="17" />
<rect x="206" y="12" width="17" height="17" />
<rect x="219" y="12" width="17" height="17" />
<rect x="167" y="254" width="18" height="17" />
<rect x="219" y="76" width="17" height="17" />
<rect x="89" y="25" width="18" height="17" />
<rect x="115" y="215" width="18" height="18" />
<rect x="115" y="254" width="18" height="17" />
<rect x="128" y="254" width="18" height="17" />
<rect x="141" y="254" width="18" height="17" />
<rect x="180" y="254" width="18" height="17" />
<rect x="210" y="45" width="18" height="18" />
<rect x="167" y="266" width="18" height="18" />
<rect x="206" y="254" width="17" height="17" />
</g>
<g class="spawningMap-uncommon">
<rect x="245" y="131" width="29" height="22" />
</g>
<g class="spawningMap-common">
<rect x="206" y="164" width="17" height="18" />
<rect x="89" y="75" width="18" height="18" />
<rect x="244" y="164" width="18" height="18" />
<rect x="257" y="164" width="18" height="18" />
<rect x="257" y="152" width="18" height="17" />
<rect x="270" y="152" width="18" height="17" />
<rect x="270" y="139" width="18" height="17" />
<rect x="257" y="139" width="18" height="17" />
<rect x="231" y="164" width="18" height="18" />
<rect x="219" y="164" width="17" height="18" />
<rect x="219" y="152" width="17" height="17" />
<rect x="102" y="203" width="18" height="17" />
<rect x="76" y="203" width="18" height="17" />
<rect x="76" y="215" width="18" height="18" />
<rect x="219" y="139" width="17" height="17" />
<rect x="219" y="126" width="17" height="18" />
<rect x="219" y="114" width="17" height="17" />
<rect x="63" y="241" width="18" height="17" />
<rect x="50" y="241" width="18" height="17" />
<rect x="206" y="114" width="17" height="17" />
<rect x="115" y="50" width="18" height="18" />
<rect x="63" y="203" width="18" height="17" />
<rect x="50" y="203" width="18" height="17" />
<rect x="50" y="190" width="18" height="17" />
<rect x="115" y="63" width="18" height="17" />
<rect x="63" y="164" width="18" height="18" />
<rect x="76" y="152" width="18" height="17" />
<rect x="89" y="152" width="18" height="17" />
<rect x="102" y="152" width="18" height="17" />
<rect x="115" y="139" width="18" height="17" />
<rect x="141" y="126" width="18" height="18" />
<rect x="154" y="126" width="18" height="18" />
<rect x="154" y="139" width="18" height="17" />
<rect x="167" y="126" width="18" height="18" />
<rect x="89" y="182" width="18" height="18" />
<rect x="115" y="76" width="18" height="17" />
<rect x="219" y="63" width="17" height="17" />
<rect x="102" y="76" width="18" height="17" />
<rect x="76" y="75" width="18" height="18" />
<rect x="76" y="114" width="18" height="17" />
<rect x="63" y="126" width="18" height="18" />
<rect x="63" y="139" width="18" height="17" />
<rect x="193" y="126" width="17" height="18" />
<rect x="193" y="152" width="17" height="17" />
<rect x="167" y="177" width="18" height="18" />
<rect x="154" y="190" width="18" height="17" />
<rect x="154" y="203" width="18" height="17" />
<rect x="141" y="203" width="18" height="17" />
<rect x="128" y="203" width="18" height="17" />
<rect x="115" y="203" width="18" height="17" />
<rect x="115" y="228" width="18" height="18" />
<rect x="102" y="228" width="18" height="18" />
<rect x="115" y="241" width="18" height="17" />
<rect x="50" y="126" width="18" height="18" />
<rect x="141" y="241" width="18" height="17" />
<rect x="154" y="228" width="18" height="18" />
<rect x="154" y="215" width="18" height="18" />
<rect x="167" y="215" width="18" height="18" />
<rect x="180" y="215" width="18" height="18" />
<rect x="193" y="215" width="18" height="18" />
<rect x="193" y="228" width="18" height="18" />
<rect x="180" y="241" width="18" height="17" />
<rect x="193" y="241" width="18" height="17" />
<rect x="206" y="228" width="17" height="18" />
<rect x="206" y="215" width="17" height="18" />
<rect x="219" y="215" width="17" height="18" />
<rect x="219" y="228" width="17" height="18" />
<rect x="219" y="203" width="17" height="17" />
<rect x="206" y="203" width="17" height="17" />
<rect x="193" y="203" width="17" height="17" />
<rect x="193" y="190" width="17" height="17" />
<rect x="206" y="190" width="17" height="17" />
<rect x="206" y="177" width="17" height="18" />
<rect x="193" y="177" width="17" height="18" />
</g>
<g class="spawningMap-very-common">
<rect x="150" y="262" width="14" height="15" />
<rect x="158" y="265" width="13" height="14" />
<rect x="176" y="222" width="23" height="19" />
<rect x="176" y="208" width="23" height="20" />
<rect x="131" y="107" width="13" height="14" />
<rect x="176" y="222" width="23" height="19" />
<rect x="176" y="208" width="23" height="20" />
<rect x="131" y="107" width="13" height="14" />
<rect x="158" y="265" width="13" height="14" />
<rect x="150" y="262" width="14" height="15" />
<rect x="259" y="134" width="15" height="16" />
<rect x="259" y="129" width="21" height="13" />
</g>
</g>
<g fill="url(#pattern-untameable)" opacity="0.3">
<rect x="245" y="131" width="29" height="22"/>
<rect x="259" y="134" width="15" height="16"/>
<rect x="259" y="129" width="21" height="13"/>
</g>
<g filter="url(#groupStroke)" opacity="0.8">
<rect x="245" y="131" width="29" height="22"/>
<rect x="150" y="262" width="14" height="15"/>
<rect x="158" y="265" width="13" height="14"/>
<rect x="176" y="222" width="23" height="19"/>
<rect x="176" y="208" width="23" height="20"/>
<rect x="131" y="107" width="13" height="14"/>
<rect x="176" y="222" width="23" height="19"/>
<rect x="176" y="208" width="23" height="20"/>
<rect x="131" y="107" width="13" height="14"/>
<rect x="158" y="265" width="13" height="14"/>
<rect x="150" y="262" width="14" height="15"/>
<rect x="259" y="134" width="15" height="16"/>
<rect x="259" y="129" width="21" height="13"/>
</g>
</svg>