<?xml version="1.0" encoding="utf-8"?>
<svg xmlns="http://www.w3.org/2000/svg" width="300" height="300"
        viewBox="0 0 300 300" class="creatureMap" style="position:absolute;">
    <defs>
        <filter id="blur" x="-30%" y="-30%" width="160%" height="160%">
            <feGaussianBlur stdDeviation="3" />
        </filter>
        <pattern id="pattern-untameable" width="10" height="10" patternTransform="rotate(135)" patternUnits="userSpaceOnUse">
            <rect width="4" height="10" fill="black"></rect>
        </pattern>
        <filter id="groupStroke">
            <feFlood result="outsideColor" flood-color="black"/>
            <feMorphology in="SourceAlpha" operator="dilate" radius="2"/>
            <feComposite result="strokeoutline1" in="outsideColor" operator="in"/>
            <feComposite result="strokeoutline2" in="strokeoutline1" in2="SourceAlpha" operator="out"/>
            <feGaussianBlur in="strokeoutline2" result="strokeblur" stdDeviation="1"/>
        </filter>
        <style>
            .spawningMap-very-common { fill: #0F0; }
            .spawningMap-common { fill: #B2FF00; }
            .spawningMap-uncommon { fill: #FF0; }
            .spawningMap-very-uncommon { fill: #FC0; }
            .spawningMap-rare { fill: #F60; }
            .spawningMap-very-rare { fill: #F00; }
            .spawning-map-point { stroke:black; stroke-width:1; }
        </style>
    </defs>

<g filter="url(#blur)" opacity="0.7">
<g class="spawningMap-very-rare">
<rect x="25" y="256" width="28" height="36" />
<rect x="210" y="173" width="28" height="36" />
<rect x="140" y="99" width="28" height="36" />
<rect x="165" y="57" width="28" height="36" />
<rect x="121" y="57" width="28" height="36" />
<rect x="100" y="57" width="28" height="36" />
<rect x="256" y="9" width="28" height="36" />
<rect x="261" y="207" width="28" height="36" />
<rect x="255" y="252" width="28" height="36" />
<rect x="83" y="217" width="27" height="36" />
<rect x="60" y="194" width="28" height="36" />
<rect x="63" y="146" width="28" height="36" />
<rect x="143" y="57" width="28" height="36" />
<rect x="131" y="215" width="28" height="37" />
</g>
</g>
</svg>