<?xml version="1.0" encoding="utf-8"?>
<svg xmlns="http://www.w3.org/2000/svg" width="300" height="300"
        viewBox="0 0 300 300" class="creatureMap" style="position:absolute;">
    <defs>
        <filter id="blur" x="-30%" y="-30%" width="160%" height="160%">
            <feGaussianBlur stdDeviation="3" />
        </filter>
        <pattern id="pattern-untameable" width="10" height="10" patternTransform="rotate(135)" patternUnits="userSpaceOnUse">
            <rect width="4" height="10" fill="black"></rect>
        </pattern>
        <filter id="groupStroke">
            <feFlood result="outsideColor" flood-color="black"/>
            <feMorphology in="SourceAlpha" operator="dilate" radius="2"/>
            <feComposite result="strokeoutline1" in="outsideColor" operator="in"/>
            <feComposite result="strokeoutline2" in="strokeoutline1" in2="SourceAlpha" operator="out"/>
            <feGaussianBlur in="strokeoutline2" result="strokeblur" stdDeviation="1"/>
        </filter>
        <style>
            .spawningMap-very-common { fill: #0F0; }
            .spawningMap-common { fill: #B2FF00; }
            .spawningMap-uncommon { fill: #FF0; }
            .spawningMap-very-uncommon { fill: #FC0; }
            .spawningMap-rare { fill: #F60; }
            .spawningMap-very-rare { fill: #F00; }
            .spawning-map-point { stroke:black; stroke-width:1; }
        </style>
    </defs>

<g filter="url(#blur)" opacity="0.7">
<g class="spawningMap-very-uncommon">
<rect x="0" y="283" width="70" height="17" />
<rect x="76" y="283" width="116" height="17" />
<rect x="199" y="283" width="101" height="17" />
<rect x="0" y="183" width="16" height="108" />
<rect x="0" y="86" width="16" height="93" />
<rect x="0" y="0" width="16" height="83" />
<rect x="283" y="183" width="17" height="108" />
<rect x="283" y="86" width="17" height="93" />
<rect x="283" y="0" width="17" height="83" />
<rect x="2" y="0" width="70" height="18" />
<rect x="76" y="0" width="116" height="18" />
<rect x="199" y="0" width="101" height="18" />
</g>
<g class="spawningMap-common">
<rect x="13" y="168" width="23" height="30" />
<rect x="31" y="168" width="28" height="30" />
<rect x="128" y="266" width="18" height="18" />
<rect x="24" y="25" width="18" height="17" />
<rect x="141" y="12" width="18" height="17" />
<rect x="232" y="241" width="17" height="17" />
<rect x="244" y="241" width="18" height="17" />
<rect x="257" y="241" width="18" height="17" />
<rect x="257" y="228" width="18" height="18" />
<rect x="270" y="228" width="18" height="18" />
<rect x="270" y="241" width="18" height="17" />
<rect x="283" y="228" width="17" height="18" />
<rect x="283" y="215" width="17" height="18" />
<rect x="270" y="215" width="18" height="18" />
<rect x="154" y="12" width="18" height="17" />
<rect x="270" y="203" width="18" height="17" />
<rect x="283" y="203" width="17" height="17" />
<rect x="283" y="190" width="17" height="17" />
<rect x="270" y="190" width="18" height="17" />
<rect x="283" y="177" width="17" height="18" />
<rect x="167" y="12" width="18" height="17" />
<rect x="283" y="164" width="17" height="18" />
<rect x="270" y="164" width="18" height="18" />
<rect x="283" y="152" width="17" height="17" />
<rect x="283" y="139" width="17" height="17" />
<rect x="270" y="126" width="18" height="18" />
<rect x="180" y="12" width="18" height="17" />
<rect x="283" y="126" width="17" height="18" />
<rect x="283" y="114" width="17" height="17" />
<rect x="270" y="114" width="18" height="17" />
<rect x="270" y="101" width="18" height="17" />
<rect x="283" y="101" width="17" height="17" />
<rect x="283" y="88" width="17" height="18" />
<rect x="270" y="88" width="18" height="18" />
<rect x="270" y="75" width="18" height="18" />
<rect x="283" y="75" width="17" height="18" />
<rect x="283" y="63" width="17" height="17" />
<rect x="102" y="254" width="18" height="17" />
<rect x="102" y="266" width="18" height="18" />
<rect x="89" y="266" width="18" height="18" />
<rect x="89" y="254" width="18" height="17" />
<rect x="89" y="241" width="18" height="17" />
<rect x="63" y="254" width="18" height="17" />
<rect x="76" y="254" width="18" height="17" />
<rect x="76" y="266" width="18" height="18" />
<rect x="63" y="266" width="18" height="18" />
<rect x="63" y="279" width="18" height="18" />
<rect x="50" y="279" width="18" height="18" />
<rect x="37" y="279" width="18" height="18" />
<rect x="24" y="254" width="18" height="17" />
<rect x="193" y="25" width="18" height="17" />
<rect x="24" y="266" width="18" height="18" />
<rect x="12" y="254" width="17" height="17" />
<rect x="12" y="241" width="17" height="17" />
<rect x="12" y="228" width="17" height="18" />
<rect x="12" y="215" width="17" height="18" />
<rect x="12" y="203" width="17" height="17" />
<rect x="12" y="190" width="17" height="17" />
<rect x="12" y="177" width="17" height="18" />
<rect x="206" y="25" width="17" height="17" />
<rect x="12" y="164" width="17" height="18" />
<rect x="12" y="152" width="17" height="17" />
<rect x="12" y="139" width="17" height="17" />
<rect x="24" y="139" width="18" height="17" />
<rect x="24" y="126" width="18" height="18" />
<rect x="12" y="126" width="17" height="18" />
<rect x="12" y="114" width="17" height="17" />
<rect x="25" y="101" width="17" height="17" />
<rect x="12" y="101" width="17" height="17" />
<rect x="25" y="88" width="17" height="18" />
<rect x="12" y="88" width="17" height="18" />
<rect x="12" y="75" width="17" height="18" />
<rect x="25" y="63" width="17" height="17" />
<rect x="37" y="25" width="18" height="17" />
<rect x="12" y="63" width="17" height="17" />
<rect x="12" y="50" width="17" height="17" />
<rect x="12" y="37" width="17" height="18" />
<rect x="231" y="37" width="18" height="18" />
<rect x="11" y="25" width="18" height="17" />
<rect x="244" y="37" width="18" height="18" />
<rect x="244" y="25" width="18" height="17" />
<rect x="283" y="25" width="17" height="17" />
<rect x="257" y="12" width="18" height="17" />
<rect x="270" y="12" width="18" height="17" />
<rect x="270" y="25" width="18" height="17" />
<rect x="50" y="25" width="18" height="17" />
<rect x="283" y="37" width="17" height="18" />
<rect x="270" y="37" width="18" height="18" />
<rect x="270" y="50" width="18" height="17" />
<rect x="283" y="50" width="17" height="17" />
<rect x="257" y="50" width="18" height="17" />
<rect x="12" y="266" width="18" height="17" />
<rect x="244" y="50" width="18" height="17" />
<rect x="231" y="50" width="18" height="17" />
<rect x="257" y="37" width="18" height="18" />
<rect x="63" y="25" width="18" height="17" />
<rect x="76" y="25" width="18" height="17" />
<rect x="102" y="241" width="18" height="17" />
<rect x="115" y="266" width="18" height="18" />
<rect x="102" y="25" width="18" height="17" />
<rect x="115" y="12" width="18" height="17" />
<rect x="128" y="12" width="18" height="17" />
<rect x="180" y="266" width="18" height="18" />
<rect x="193" y="266" width="18" height="18" />
<rect x="206" y="266" width="17" height="18" />
<rect x="219" y="254" width="17" height="17" />
<rect x="219" y="241" width="17" height="17" />
</g>
<g class="spawningMap-very-common">
<rect x="245" y="131" width="29" height="22" />
<rect x="259" y="134" width="15" height="16" />
<rect x="259" y="129" width="21" height="13" />
</g>
</g>
<g fill="url(#pattern-untameable)" opacity="0.3">
<rect x="0" y="283" width="70" height="17"/>
<rect x="76" y="283" width="116" height="17"/>
<rect x="199" y="283" width="101" height="17"/>
<rect x="0" y="183" width="16" height="108"/>
<rect x="0" y="86" width="16" height="93"/>
<rect x="0" y="0" width="16" height="83"/>
<rect x="283" y="183" width="17" height="108"/>
<rect x="283" y="86" width="17" height="93"/>
<rect x="283" y="0" width="17" height="83"/>
<rect x="2" y="0" width="70" height="18"/>
<rect x="76" y="0" width="116" height="18"/>
<rect x="199" y="0" width="101" height="18"/>
<rect x="13" y="168" width="23" height="30"/>
<rect x="31" y="168" width="28" height="30"/>
<rect x="128" y="266" width="18" height="18"/>
<rect x="24" y="25" width="18" height="17"/>
<rect x="141" y="12" width="18" height="17"/>
<rect x="232" y="241" width="17" height="17"/>
<rect x="244" y="241" width="18" height="17"/>
<rect x="257" y="241" width="18" height="17"/>
<rect x="257" y="228" width="18" height="18"/>
<rect x="270" y="228" width="18" height="18"/>
<rect x="270" y="241" width="18" height="17"/>
<rect x="283" y="228" width="17" height="18"/>
<rect x="283" y="215" width="17" height="18"/>
<rect x="270" y="215" width="18" height="18"/>
<rect x="154" y="12" width="18" height="17"/>
<rect x="270" y="203" width="18" height="17"/>
<rect x="283" y="203" width="17" height="17"/>
<rect x="283" y="190" width="17" height="17"/>
<rect x="270" y="190" width="18" height="17"/>
<rect x="283" y="177" width="17" height="18"/>
<rect x="167" y="12" width="18" height="17"/>
<rect x="283" y="164" width="17" height="18"/>
<rect x="270" y="164" width="18" height="18"/>
<rect x="283" y="152" width="17" height="17"/>
<rect x="283" y="139" width="17" height="17"/>
<rect x="270" y="126" width="18" height="18"/>
<rect x="180" y="12" width="18" height="17"/>
<rect x="283" y="126" width="17" height="18"/>
<rect x="283" y="114" width="17" height="17"/>
<rect x="270" y="114" width="18" height="17"/>
<rect x="270" y="101" width="18" height="17"/>
<rect x="283" y="101" width="17" height="17"/>
<rect x="283" y="88" width="17" height="18"/>
<rect x="270" y="88" width="18" height="18"/>
<rect x="270" y="75" width="18" height="18"/>
<rect x="283" y="75" width="17" height="18"/>
<rect x="283" y="63" width="17" height="17"/>
<rect x="102" y="254" width="18" height="17"/>
<rect x="102" y="266" width="18" height="18"/>
<rect x="89" y="266" width="18" height="18"/>
<rect x="89" y="254" width="18" height="17"/>
<rect x="89" y="241" width="18" height="17"/>
<rect x="63" y="254" width="18" height="17"/>
<rect x="76" y="254" width="18" height="17"/>
<rect x="76" y="266" width="18" height="18"/>
<rect x="63" y="266" width="18" height="18"/>
<rect x="63" y="279" width="18" height="18"/>
<rect x="50" y="279" width="18" height="18"/>
<rect x="37" y="279" width="18" height="18"/>
<rect x="24" y="254" width="18" height="17"/>
<rect x="193" y="25" width="18" height="17"/>
<rect x="24" y="266" width="18" height="18"/>
<rect x="12" y="254" width="17" height="17"/>
<rect x="12" y="241" width="17" height="17"/>
<rect x="12" y="228" width="17" height="18"/>
<rect x="12" y="215" width="17" height="18"/>
<rect x="12" y="203" width="17" height="17"/>
<rect x="12" y="190" width="17" height="17"/>
<rect x="12" y="177" width="17" height="18"/>
<rect x="206" y="25" width="17" height="17"/>
<rect x="12" y="164" width="17" height="18"/>
<rect x="12" y="152" width="17" height="17"/>
<rect x="12" y="139" width="17" height="17"/>
<rect x="24" y="139" width="18" height="17"/>
<rect x="24" y="126" width="18" height="18"/>
<rect x="12" y="126" width="17" height="18"/>
<rect x="12" y="114" width="17" height="17"/>
<rect x="25" y="101" width="17" height="17"/>
<rect x="12" y="101" width="17" height="17"/>
<rect x="25" y="88" width="17" height="18"/>
<rect x="12" y="88" width="17" height="18"/>
<rect x="12" y="75" width="17" height="18"/>
<rect x="25" y="63" width="17" height="17"/>
<rect x="37" y="25" width="18" height="17"/>
<rect x="12" y="63" width="17" height="17"/>
<rect x="12" y="50" width="17" height="17"/>
<rect x="12" y="37" width="17" height="18"/>
<rect x="231" y="37" width="18" height="18"/>
<rect x="11" y="25" width="18" height="17"/>
<rect x="244" y="37" width="18" height="18"/>
<rect x="244" y="25" width="18" height="17"/>
<rect x="283" y="25" width="17" height="17"/>
<rect x="257" y="12" width="18" height="17"/>
<rect x="270" y="12" width="18" height="17"/>
<rect x="270" y="25" width="18" height="17"/>
<rect x="50" y="25" width="18" height="17"/>
<rect x="283" y="37" width="17" height="18"/>
<rect x="270" y="37" width="18" height="18"/>
<rect x="270" y="50" width="18" height="17"/>
<rect x="283" y="50" width="17" height="17"/>
<rect x="257" y="50" width="18" height="17"/>
<rect x="12" y="266" width="18" height="17"/>
<rect x="244" y="50" width="18" height="17"/>
<rect x="231" y="50" width="18" height="17"/>
<rect x="257" y="37" width="18" height="18"/>
<rect x="63" y="25" width="18" height="17"/>
<rect x="76" y="25" width="18" height="17"/>
<rect x="102" y="241" width="18" height="17"/>
<rect x="115" y="266" width="18" height="18"/>
<rect x="102" y="25" width="18" height="17"/>
<rect x="115" y="12" width="18" height="17"/>
<rect x="128" y="12" width="18" height="17"/>
<rect x="180" y="266" width="18" height="18"/>
<rect x="193" y="266" width="18" height="18"/>
<rect x="206" y="266" width="17" height="18"/>
<rect x="219" y="254" width="17" height="17"/>
<rect x="219" y="241" width="17" height="17"/>
<rect x="245" y="131" width="29" height="22"/>
<rect x="259" y="134" width="15" height="16"/>
<rect x="259" y="129" width="21" height="13"/>
</g>
<g filter="url(#groupStroke)" opacity="0.8">
<rect x="13" y="168" width="23" height="30"/>
<rect x="31" y="168" width="28" height="30"/>
<rect x="245" y="131" width="29" height="22"/>
<rect x="259" y="134" width="15" height="16"/>
<rect x="259" y="129" width="21" height="13"/>
</g>
</svg>