<?xml version="1.0" encoding="utf-8"?>
<svg xmlns="http://www.w3.org/2000/svg" width="300" height="300" viewBox="0 0 300 300" class="creatureMap" style="position:absolute;">
    <defs>
        <filter id="blur" x="-30%" y="-30%" width="160%" height="160%">
            <feGaussianBlur stdDeviation="3" />
        </filter>
        <pattern id="pattern-untameable" width="10" height="10" patternTransform="rotate(135)" patternUnits="userSpaceOnUse">'
            <rect width="4" height="10" fill="black"></rect>
        </pattern>
        <filter id="groupStroke">
            <feFlood result="outsideColor" flood-color="black"/>
            <feMorphology in="SourceAlpha" operator="dilate" radius="2"/>
            <feComposite result="strokeoutline1" in="outsideColor" operator="in"/>
            <feComposite result="strokeoutline2" in="strokeoutline1" in2="SourceAlpha" operator="out"/>
            <feGaussianBlur in="strokeoutline2" result="strokeblur" stdDeviation="1"/>
        </filter>
        <style>
            .spawningMap-very-common { fill: #0F0; }
            .spawningMap-common { fill: #B2FF00; }
            .spawningMap-uncommon { fill: #FF0; }
            .spawningMap-very-uncommon { fill: #FC0; }
            .spawningMap-rare { fill: #F60; }
            .spawningMap-very-rare { fill: #F00; }
            .spawning-map-point { stroke:black; stroke-width:1; }
        </style>
    </defs>

<g class="spawning-map-point" opacity="0.8">
<g class="spawningMap-rare">
<circle cx="235" cy="176" r="4" />
<circle cx="223" cy="179" r="4" />
<circle cx="232" cy="187" r="4" />
<circle cx="236" cy="178" r="4" />
<circle cx="230" cy="180" r="4" />
<circle cx="227" cy="194" r="4" />
<circle cx="232" cy="217" r="4" />
<circle cx="235" cy="217" r="4" />
<circle cx="225" cy="185" r="4" />
<circle cx="218" cy="185" r="4" />
<circle cx="238" cy="145" r="4" />
<circle cx="240" cy="132" r="4" />
<circle cx="240" cy="136" r="4" />
<circle cx="246" cy="167" r="4" />
<circle cx="239" cy="168" r="4" />
<circle cx="248" cy="164" r="4" />
<circle cx="248" cy="158" r="4" />
<circle cx="248" cy="153" r="4" />
<circle cx="237" cy="158" r="4" />
<circle cx="240" cy="145" r="4" />
<circle cx="118" cy="262" r="4" />
<circle cx="123" cy="259" r="4" />
<circle cx="121" cy="250" r="4" />
<circle cx="123" cy="261" r="4" />
<circle cx="124" cy="263" r="4" />
<circle cx="140" cy="261" r="4" />
<circle cx="141" cy="260" r="4" />
<circle cx="140" cy="249" r="4" />
<circle cx="137" cy="242" r="4" />
<circle cx="132" cy="245" r="4" />
<circle cx="126" cy="247" r="4" />
<circle cx="103" cy="238" r="4" />
<circle cx="104" cy="236" r="4" />
<circle cx="99" cy="238" r="4" />
<circle cx="99" cy="239" r="4" />
<circle cx="95" cy="240" r="4" />
<circle cx="92" cy="241" r="4" />
<circle cx="88" cy="240" r="4" />
<circle cx="89" cy="236" r="4" />
<circle cx="91" cy="232" r="4" />
<circle cx="65" cy="245" r="4" />
<circle cx="68" cy="238" r="4" />
<circle cx="47" cy="227" r="4" />
<circle cx="52" cy="233" r="4" />
<circle cx="50" cy="246" r="4" />
<circle cx="48" cy="246" r="4" />
<circle cx="53" cy="251" r="4" />
<circle cx="52" cy="252" r="4" />
<circle cx="54" cy="252" r="4" />
<circle cx="47" cy="230" r="4" />
<circle cx="75" cy="158" r="4" />
<circle cx="70" cy="159" r="4" />
<circle cx="71" cy="170" r="4" />
<circle cx="70" cy="175" r="4" />
<circle cx="66" cy="190" r="4" />
<circle cx="60" cy="186" r="4" />
<circle cx="61" cy="181" r="4" />
<circle cx="54" cy="180" r="4" />
<circle cx="62" cy="157" r="4" />
<circle cx="65" cy="157" r="4" />
<circle cx="150" cy="120" r="4" />
<circle cx="159" cy="104" r="4" />
<circle cx="148" cy="101" r="4" />
<circle cx="148" cy="96" r="4" />
<circle cx="153" cy="99" r="4" />
<circle cx="157" cy="97" r="4" />
<circle cx="156" cy="93" r="4" />
<circle cx="203" cy="67" r="4" />
<circle cx="205" cy="68" r="4" />
<circle cx="208" cy="69" r="4" />
<circle cx="210" cy="72" r="4" />
<circle cx="214" cy="72" r="4" />
<circle cx="217" cy="97" r="4" />
<circle cx="215" cy="96" r="4" />
<circle cx="215" cy="94" r="4" />
<circle cx="213" cy="92" r="4" />
<circle cx="202" cy="86" r="4" />
<circle cx="236" cy="134" r="4" />
<circle cx="237" cy="137" r="4" />
<circle cx="234" cy="140" r="4" />
<circle cx="235" cy="141" r="4" />
<circle cx="231" cy="142" r="4" />
<circle cx="234" cy="155" r="4" />
<circle cx="230" cy="158" r="4" />
<circle cx="229" cy="161" r="4" />
<circle cx="229" cy="163" r="4" />
</g>
<g class="spawningMap-very-uncommon">
<circle cx="175" cy="171" r="4" />
<circle cx="176" cy="168" r="4" />
<circle cx="173" cy="168" r="4" />
<circle cx="173" cy="166" r="4" />
<circle cx="176" cy="168" r="4" />
<circle cx="164" cy="185" r="4" />
<circle cx="168" cy="182" r="4" />
<circle cx="167" cy="176" r="4" />
<circle cx="125" cy="178" r="4" />
<circle cx="118" cy="183" r="4" />
<circle cx="93" cy="184" r="4" />
<circle cx="88" cy="193" r="4" />
<circle cx="96" cy="198" r="4" />
<circle cx="101" cy="200" r="4" />
<circle cx="102" cy="197" r="4" />
<circle cx="102" cy="190" r="4" />
<circle cx="108" cy="192" r="4" />
<circle cx="107" cy="196" r="4" />
<circle cx="112" cy="199" r="4" />
<circle cx="118" cy="197" r="4" />
<circle cx="119" cy="190" r="4" />
<circle cx="180" cy="164" r="4" />
<circle cx="166" cy="169" r="4" />
<circle cx="180" cy="169" r="4" />
<circle cx="184" cy="167" r="4" />
<circle cx="183" cy="162" r="4" />
<circle cx="185" cy="169" r="4" />
<circle cx="188" cy="170" r="4" />
<circle cx="189" cy="166" r="4" />
<circle cx="186" cy="161" r="4" />
<circle cx="192" cy="164" r="4" />
<circle cx="189" cy="161" r="4" />
<circle cx="186" cy="159" r="4" />
<circle cx="189" cy="158" r="4" />
<circle cx="190" cy="159" r="4" />
<circle cx="193" cy="160" r="4" />
<circle cx="193" cy="156" r="4" />
<circle cx="195" cy="152" r="4" />
<circle cx="196" cy="150" r="4" />
<circle cx="196" cy="148" r="4" />
<circle cx="193" cy="148" r="4" />
<circle cx="191" cy="151" r="4" />
<circle cx="190" cy="154" r="4" />
<circle cx="188" cy="154" r="4" />
<circle cx="185" cy="153" r="4" />
<circle cx="186" cy="149" r="4" />
<circle cx="184" cy="151" r="4" />
<circle cx="181" cy="152" r="4" />
<circle cx="176" cy="159" r="4" />
<circle cx="179" cy="155" r="4" />
<circle cx="180" cy="149" r="4" />
<circle cx="172" cy="176" r="4" />
<circle cx="181" cy="147" r="4" />
<circle cx="179" cy="147" r="4" />
<circle cx="177" cy="147" r="4" />
<circle cx="176" cy="153" r="4" />
<circle cx="174" cy="152" r="4" />
<circle cx="172" cy="155" r="4" />
<circle cx="173" cy="147" r="4" />
<circle cx="170" cy="147" r="4" />
<circle cx="170" cy="150" r="4" />
<circle cx="168" cy="159" r="4" />
<circle cx="166" cy="155" r="4" />
<circle cx="165" cy="145" r="4" />
<circle cx="160" cy="160" r="4" />
<circle cx="158" cy="156" r="4" />
<circle cx="159" cy="150" r="4" />
<circle cx="154" cy="150" r="4" />
<circle cx="155" cy="159" r="4" />
<circle cx="153" cy="154" r="4" />
<circle cx="149" cy="155" r="4" />
<circle cx="147" cy="153" r="4" />
<circle cx="146" cy="161" r="4" />
<circle cx="145" cy="156" r="4" />
<circle cx="142" cy="153" r="4" />
<circle cx="140" cy="156" r="4" />
<circle cx="141" cy="162" r="4" />
<circle cx="135" cy="159" r="4" />
<circle cx="131" cy="161" r="4" />
<circle cx="125" cy="165" r="4" />
<circle cx="125" cy="170" r="4" />
<circle cx="119" cy="175" r="4" />
<circle cx="118" cy="170" r="4" />
<circle cx="112" cy="172" r="4" />
<circle cx="108" cy="173" r="4" />
<circle cx="105" cy="176" r="4" />
<circle cx="104" cy="185" r="4" />
<circle cx="103" cy="181" r="4" />
<circle cx="101" cy="183" r="4" />
<circle cx="92" cy="181" r="4" />
<circle cx="90" cy="174" r="4" />
<circle cx="88" cy="178" r="4" />
<circle cx="87" cy="184" r="4" />
<circle cx="85" cy="185" r="4" />
<circle cx="90" cy="187" r="4" />
<circle cx="89" cy="189" r="4" />
<circle cx="84" cy="189" r="4" />
<circle cx="85" cy="193" r="4" />
<circle cx="83" cy="197" r="4" />
<circle cx="86" cy="197" r="4" />
<circle cx="84" cy="200" r="4" />
<circle cx="83" cy="204" r="4" />
<circle cx="87" cy="201" r="4" />
<circle cx="94" cy="200" r="4" />
<circle cx="92" cy="203" r="4" />
<circle cx="89" cy="202" r="4" />
<circle cx="87" cy="203" r="4" />
<circle cx="86" cy="207" r="4" />
<circle cx="89" cy="205" r="4" />
<circle cx="91" cy="209" r="4" />
<circle cx="92" cy="206" r="4" />
<circle cx="94" cy="209" r="4" />
<circle cx="97" cy="206" r="4" />
<circle cx="99" cy="209" r="4" />
<circle cx="100" cy="206" r="4" />
<circle cx="105" cy="204" r="4" />
<circle cx="108" cy="205" r="4" />
<circle cx="108" cy="207" r="4" />
<circle cx="113" cy="209" r="4" />
<circle cx="116" cy="208" r="4" />
<circle cx="115" cy="203" r="4" />
<circle cx="119" cy="203" r="4" />
<circle cx="125" cy="202" r="4" />
<circle cx="128" cy="203" r="4" />
<circle cx="127" cy="189" r="4" />
<circle cx="130" cy="195" r="4" />
<circle cx="132" cy="200" r="4" />
<circle cx="134" cy="196" r="4" />
<circle cx="136" cy="201" r="4" />
<circle cx="133" cy="192" r="4" />
<circle cx="136" cy="193" r="4" />
<circle cx="139" cy="193" r="4" />
<circle cx="140" cy="200" r="4" />
<circle cx="142" cy="196" r="4" />
<circle cx="150" cy="180" r="4" />
<circle cx="145" cy="187" r="4" />
<circle cx="143" cy="191" r="4" />
<circle cx="145" cy="194" r="4" />
<circle cx="147" cy="194" r="4" />
<circle cx="148" cy="198" r="4" />
<circle cx="152" cy="189" r="4" />
<circle cx="151" cy="196" r="4" />
<circle cx="153" cy="192" r="4" />
<circle cx="156" cy="196" r="4" />
<circle cx="155" cy="186" r="4" />
<circle cx="157" cy="190" r="4" />
<circle cx="158" cy="185" r="4" />
<circle cx="162" cy="182" r="4" />
<circle cx="173" cy="172" r="4" />
</g>
</g>
</svg>