<?xml version="1.0" encoding="utf-8"?>
<svg xmlns="http://www.w3.org/2000/svg" width="300" height="300" viewBox="0 0 300 300" class="creatureMap" style="position:absolute;">
    <defs>
        <filter id="blur" x="-30%" y="-30%" width="160%" height="160%">
            <feGaussianBlur stdDeviation="3" />
        </filter>
        <pattern id="pattern-untameable" width="10" height="10" patternTransform="rotate(135)" patternUnits="userSpaceOnUse">'
            <rect width="4" height="10" fill="black"></rect>
        </pattern>
        <filter id="groupStroke">
            <feFlood result="outsideColor" flood-color="black"/>
            <feMorphology in="SourceAlpha" operator="dilate" radius="2"/>
            <feComposite result="strokeoutline1" in="outsideColor" operator="in"/>
            <feComposite result="strokeoutline2" in="strokeoutline1" in2="SourceAlpha" operator="out"/>
            <feGaussianBlur in="strokeoutline2" result="strokeblur" stdDeviation="1"/>
        </filter>
        <style>
            .spawningMap-very-common { fill: #0F0; }
            .spawningMap-common { fill: #B2FF00; }
            .spawningMap-uncommon { fill: #FF0; }
            .spawningMap-very-uncommon { fill: #FC0; }
            .spawningMap-rare { fill: #F60; }
            .spawningMap-very-rare { fill: #F00; }
            .spawning-map-point { stroke:black; stroke-width:1; }
        </style>
    </defs>

<g filter="url(#blur)" opacity="0.7">
<g class="spawningMap-very-rare">
<rect x="160" y="266" width="7" height="8" />
<rect x="154" y="262" width="7" height="7" />
<rect x="161" y="263" width="7" height="8" />
<rect x="155" y="267" width="7" height="8" />
<rect x="181" y="220" width="7" height="7" />
<rect x="180" y="216" width="7" height="8" />
<rect x="179" y="212" width="7" height="7" />
<rect x="268" y="215" width="7" height="8" />
<rect x="267" y="219" width="7" height="7" />
<rect x="261" y="211" width="7" height="8" />
<rect x="272" y="206" width="7" height="8" />
<rect x="267" y="28" width="7" height="7" />
<rect x="265" y="29" width="7" height="8" />
<rect x="268" y="27" width="7" height="7" />
<rect x="135" y="111" width="7" height="7" />
<rect x="133" y="111" width="7" height="7" />
<rect x="138" y="114" width="7" height="7" />
<rect x="108" y="105" width="18" height="20" />
<rect x="108" y="105" width="18" height="20" />
</g>
<g class="spawningMap-rare">
<rect x="103" y="117" width="14" height="15" />
</g>
<g class="spawningMap-common">
<rect x="100" y="117" width="14" height="15" />
<rect x="100" y="117" width="14" height="15" />
<rect x="101" y="117" width="15" height="15" />
<rect x="101" y="117" width="15" height="15" />
<rect x="108" y="105" width="18" height="20" />
<rect x="100" y="117" width="14" height="15" />
<rect x="101" y="117" width="15" height="15" />
</g>
<g class="spawningMap-very-common">
<rect x="112" y="117" width="14" height="15" />
<rect x="112" y="117" width="14" height="15" />
<rect x="98" y="114" width="11" height="11" />
<rect x="98" y="114" width="11" height="11" />
<rect x="103" y="117" width="14" height="15" />
<rect x="112" y="117" width="14" height="15" />
<rect x="98" y="114" width="11" height="11" />
<rect x="103" y="117" width="14" height="15" />
</g>
</g>
<g fill="url(#pattern-untameable)" opacity="0.3">
<rect x="108" y="105" width="18" height="20"/>
<rect x="108" y="105" width="18" height="20"/>
<rect x="103" y="117" width="14" height="15"/>
<rect x="100" y="117" width="14" height="15"/>
<rect x="100" y="117" width="14" height="15"/>
<rect x="101" y="117" width="15" height="15"/>
<rect x="101" y="117" width="15" height="15"/>
<rect x="108" y="105" width="18" height="20"/>
<rect x="100" y="117" width="14" height="15"/>
<rect x="101" y="117" width="15" height="15"/>
<rect x="112" y="117" width="14" height="15"/>
<rect x="112" y="117" width="14" height="15"/>
<rect x="98" y="114" width="11" height="11"/>
<rect x="98" y="114" width="11" height="11"/>
<rect x="103" y="117" width="14" height="15"/>
<rect x="112" y="117" width="14" height="15"/>
<rect x="98" y="114" width="11" height="11"/>
<rect x="103" y="117" width="14" height="15"/>
</g>
<g filter="url(#groupStroke)" opacity="0.8">
<rect x="160" y="266" width="7" height="8"/>
<rect x="154" y="262" width="7" height="7"/>
<rect x="161" y="263" width="7" height="8"/>
<rect x="155" y="267" width="7" height="8"/>
<rect x="181" y="220" width="7" height="7"/>
<rect x="180" y="216" width="7" height="8"/>
<rect x="179" y="212" width="7" height="7"/>
<rect x="268" y="215" width="7" height="8"/>
<rect x="267" y="219" width="7" height="7"/>
<rect x="261" y="211" width="7" height="8"/>
<rect x="272" y="206" width="7" height="8"/>
<rect x="267" y="28" width="7" height="7"/>
<rect x="265" y="29" width="7" height="8"/>
<rect x="268" y="27" width="7" height="7"/>
<rect x="135" y="111" width="7" height="7"/>
<rect x="133" y="111" width="7" height="7"/>
<rect x="138" y="114" width="7" height="7"/>
<rect x="108" y="105" width="18" height="20"/>
<rect x="108" y="105" width="18" height="20"/>
<rect x="103" y="117" width="14" height="15"/>
<rect x="100" y="117" width="14" height="15"/>
<rect x="100" y="117" width="14" height="15"/>
<rect x="101" y="117" width="15" height="15"/>
<rect x="101" y="117" width="15" height="15"/>
<rect x="108" y="105" width="18" height="20"/>
<rect x="100" y="117" width="14" height="15"/>
<rect x="101" y="117" width="15" height="15"/>
<rect x="112" y="117" width="14" height="15"/>
<rect x="112" y="117" width="14" height="15"/>
<rect x="98" y="114" width="11" height="11"/>
<rect x="98" y="114" width="11" height="11"/>
<rect x="103" y="117" width="14" height="15"/>
<rect x="112" y="117" width="14" height="15"/>
<rect x="98" y="114" width="11" height="11"/>
<rect x="103" y="117" width="14" height="15"/>
</g>
</svg>