<svg xmlns="http://www.w3.org/2000/svg" width="1024" height="1024" viewBox="0 0 1024 1024" style="position: absolute; width:100%; height:100%;">
<defs>
    <filter id="blur" x="-30%" y="-30%" width="160%" height="160%">'
        <feColorMatrix type="matrix" values="1 0 0 1 0, 0 1 0 0 0, 0 0 1 0 0, 0 0 0 0.7 0"/>
        <feGaussianBlur stdDeviation="10" />
    </filter>
</defs>
<a href="/The_Surface_-_Southwest_(Aberration)" class="svgRegion">
    <g filter="url(#blur)">
<rect x="80" y="858" width="47" height="47" />
<rect x="33" y="858" width="47" height="47" />
<rect x="80" y="905" width="47" height="48" />
<rect x="33" y="905" width="47" height="48" />
<rect x="80" y="952" width="47" height="48" />
<rect x="33" y="952" width="47" height="48" />
<rect x="126" y="810" width="47" height="48" />
<rect x="126" y="858" width="47" height="47" />
<rect x="173" y="622" width="47" height="48" />
<rect x="126" y="905" width="47" height="48" />
<rect x="126" y="952" width="47" height="48" />
<rect x="173" y="810" width="47" height="48" />
<rect x="173" y="858" width="47" height="47" />
<rect x="173" y="905" width="55" height="48" />
<rect x="173" y="952" width="47" height="48" />
<rect x="173" y="669" width="47" height="48" />
<rect x="126" y="622" width="47" height="48" />
<rect x="80" y="622" width="47" height="48" />
<rect x="126" y="669" width="47" height="48" />
<rect x="80" y="669" width="47" height="48" />
<rect x="33" y="669" width="47" height="48" />
<rect x="126" y="716" width="47" height="48" />
<rect x="80" y="716" width="47" height="48" />
<rect x="173" y="575" width="47" height="48" />
<rect x="126" y="575" width="48" height="48" />
<rect x="33" y="716" width="47" height="48" />
<rect x="126" y="763" width="47" height="48" />
<rect x="80" y="763" width="47" height="48" />
<rect x="33" y="763" width="47" height="48" />
<rect x="80" y="810" width="47" height="48" />
<rect x="33" y="810" width="47" height="48" />
    </g>
    <text x="512" y="60">The Surface - Southwest</text>
</a>
<a href="/The_Surface_-_Northwest_(Aberration)" class="svgRegion">
    <g filter="url(#blur)">
<rect x="173" y="42" width="47" height="48" />
<rect x="127" y="42" width="47" height="48" />
<rect x="127" y="89" width="47" height="48" />
<rect x="127" y="137" width="47" height="47" />
<rect x="127" y="183" width="47" height="18" />
<rect x="80" y="89" width="47" height="48" />
<rect x="80" y="42" width="47" height="48" />
<rect x="80" y="137" width="47" height="47" />
<rect x="80" y="183" width="47" height="18" />
<rect x="65" y="89" width="16" height="48" />
<rect x="65" y="42" width="16" height="48" />
<rect x="65" y="137" width="16" height="47" />
<rect x="65" y="183" width="16" height="18" />
<rect x="173" y="89" width="47" height="48" />
<rect x="173" y="137" width="14" height="13" />
    </g>
    <text x="512" y="60">The Surface - Northwest</text>
</a>
<a href="/The_Surface_-_Northeast_(Aberration)" class="svgRegion">
    <g filter="url(#blur)">
<rect x="966" y="131" width="47" height="47" />
<rect x="734" y="225" width="48" height="47" />
<rect x="920" y="318" width="47" height="25" />
<rect x="688" y="225" width="47" height="35" />
<rect x="688" y="178" width="47" height="48" />
<rect x="688" y="131" width="47" height="47" />
<rect x="688" y="84" width="47" height="47" />
<rect x="688" y="37" width="47" height="47" />
<rect x="641" y="37" width="48" height="47" />
<rect x="734" y="131" width="48" height="47" />
<rect x="734" y="84" width="48" height="47" />
<rect x="734" y="37" width="48" height="47" />
<rect x="781" y="131" width="47" height="47" />
<rect x="781" y="84" width="47" height="47" />
<rect x="781" y="37" width="47" height="47" />
<rect x="827" y="131" width="47" height="47" />
<rect x="827" y="84" width="47" height="47" />
<rect x="827" y="37" width="47" height="47" />
<rect x="873" y="131" width="48" height="47" />
<rect x="873" y="84" width="48" height="47" />
<rect x="873" y="37" width="48" height="47" />
<rect x="920" y="131" width="47" height="47" />
<rect x="920" y="84" width="47" height="47" />
<rect x="920" y="37" width="47" height="47" />
<rect x="966" y="84" width="47" height="47" />
<rect x="966" y="37" width="47" height="47" />
<rect x="781" y="178" width="47" height="48" />
<rect x="827" y="178" width="47" height="48" />
<rect x="873" y="178" width="48" height="48" />
<rect x="920" y="178" width="47" height="48" />
<rect x="966" y="178" width="47" height="48" />
<rect x="827" y="224" width="47" height="48" />
<rect x="873" y="224" width="48" height="48" />
<rect x="920" y="224" width="47" height="48" />
<rect x="966" y="224" width="47" height="48" />
<rect x="873" y="271" width="48" height="48" />
<rect x="920" y="271" width="47" height="48" />
<rect x="966" y="271" width="47" height="48" />
<rect x="887" y="318" width="34" height="25" />
<rect x="966" y="318" width="47" height="25" />
<rect x="827" y="271" width="47" height="48" />
<rect x="734" y="178" width="48" height="48" />
<rect x="781" y="224" width="47" height="48" />
<rect x="781" y="271" width="47" height="48" />
    </g>
    <text x="512" y="60">The Surface - Northeast</text>
</a>
<a href="/The_Spine_(Aberration)" class="svgRegion">
    <g filter="url(#blur)">
<rect x="702" y="687" width="48" height="48" />
<rect x="818" y="674" width="36" height="48" />
<rect x="511" y="616" width="48" height="35" />
<rect x="511" y="650" width="48" height="47" />
<rect x="770" y="662" width="48" height="60" />
<rect x="464" y="603" width="48" height="48" />
<rect x="464" y="650" width="48" height="47" />
<rect x="511" y="696" width="48" height="48" />
<rect x="559" y="650" width="48" height="47" />
<rect x="559" y="696" width="48" height="48" />
<rect x="606" y="641" width="48" height="48" />
<rect x="606" y="687" width="48" height="48" />
<rect x="654" y="641" width="48" height="48" />
<rect x="654" y="687" width="48" height="48" />
<rect x="702" y="641" width="48" height="48" />
<rect x="749" y="641" width="48" height="31" />
    </g>
    <text x="512" y="60">The Spine</text>
</a>
<a href="/Element_Falls_(Aberration)" class="svgRegion">
    <g filter="url(#blur)">
<rect x="818" y="722" width="47" height="48" />
<rect x="818" y="865" width="47" height="47" />
<rect x="770" y="865" width="48" height="47" />
<rect x="865" y="722" width="31" height="48" />
<rect x="818" y="912" width="47" height="48" />
<rect x="770" y="912" width="48" height="48" />
<rect x="818" y="960" width="54" height="47" />
<rect x="770" y="959" width="48" height="48" />
<rect x="818" y="1007" width="32" height="17" />
<rect x="770" y="1007" width="48" height="17" />
<rect x="723" y="1007" width="48" height="17" />
<rect x="865" y="817" width="44" height="48" />
<rect x="909" y="864" width="47" height="48" />
<rect x="865" y="864" width="44" height="48" />
<rect x="723" y="865" width="48" height="47" />
<rect x="723" y="912" width="48" height="48" />
<rect x="723" y="959" width="48" height="48" />
<rect x="676" y="959" width="47" height="48" />
<rect x="676" y="912" width="47" height="48" />
<rect x="676" y="865" width="47" height="47" />
<rect x="723" y="817" width="48" height="48" />
<rect x="676" y="817" width="47" height="48" />
<rect x="676" y="1007" width="47" height="17" />
<rect x="702" y="776" width="35" height="41" />
<rect x="818" y="770" width="47" height="47" />
<rect x="818" y="817" width="47" height="48" />
<rect x="865" y="770" width="44" height="47" />
<rect x="866" y="912" width="49" height="48" />
<rect x="770" y="722" width="48" height="48" />
<rect x="736" y="769" width="35" height="48" />
<rect x="770" y="769" width="48" height="48" />
<rect x="770" y="817" width="48" height="48" />
<rect x="606" y="734" width="48" height="40" />
<rect x="654" y="734" width="48" height="63" />
<rect x="701" y="734" width="37" height="43" />
<rect x="738" y="730" width="32" height="39" />
    </g>
    <text x="512" y="60">Element Falls</text>
</a>
<a href="/Halls_of_the_Reaper_(Aberration)" class="svgRegion">
    <g filter="url(#blur)">
<rect x="369" y="879" width="48" height="48" />
<rect x="473" y="841" width="48" height="57" />
<rect x="416" y="879" width="58" height="48" />
<rect x="321" y="879" width="48" height="48" />
<rect x="369" y="832" width="48" height="47" />
<rect x="416" y="832" width="58" height="47" />
<rect x="321" y="833" width="48" height="46" />
<rect x="274" y="856" width="48" height="32" />
<rect x="589" y="865" width="41" height="47" />
<rect x="628" y="912" width="48" height="48" />
<rect x="590" y="912" width="39" height="48" />
<rect x="609" y="959" width="67" height="37" />
<rect x="628" y="865" width="48" height="47" />
    </g>
    <text x="512" y="60">Halls of the Reaper</text>
</a>
<a href="/Halls_of_the_Reaper_Queen_(Aberration)" class="svgRegion">
    <g filter="url(#blur)">
<rect x="369" y="784" width="48" height="48" />
<rect x="416" y="784" width="30" height="48" />
<rect x="274" y="763" width="48" height="47" />
<rect x="226" y="773" width="48" height="38" />
<rect x="650" y="816" width="26" height="49" />
<rect x="593" y="821" width="58" height="44" />
<rect x="321" y="786" width="48" height="48" />
<rect x="274" y="809" width="48" height="47" />
<rect x="226" y="811" width="48" height="60" />
    </g>
    <text x="512" y="60">Halls of the Reaper Queen</text>
</a>
<a href="/The_Lost_Roads_(Aberration)" class="svgRegion">
    <g filter="url(#blur)">
<rect x="321" y="643" width="48" height="48" />
<rect x="274" y="620" width="48" height="48" />
<rect x="321" y="738" width="48" height="48" />
<rect x="274" y="668" width="48" height="48" />
<rect x="195" y="702" width="79" height="72" />
<rect x="274" y="715" width="48" height="48" />
<rect x="321" y="691" width="48" height="48" />
<rect x="369" y="595" width="48" height="48" />
<rect x="369" y="642" width="48" height="47" />
<rect x="369" y="688" width="48" height="48" />
<rect x="369" y="736" width="48" height="48" />
    </g>
    <text x="512" y="60">The Lost Roads</text>
</a>
<a href="/Mushroom_Forest_(Aberration)" class="svgRegion">
    <g filter="url(#blur)">
<rect x="410" y="260" width="48" height="47" />
<rect x="455" y="233" width="48" height="48" />
<rect x="410" y="213" width="48" height="48" />
<rect x="364" y="242" width="48" height="47" />
<rect x="364" y="204" width="48" height="39" />
<rect x="318" y="272" width="48" height="48" />
<rect x="271" y="204" width="48" height="52" />
<rect x="226" y="204" width="46" height="52" />
<rect x="226" y="255" width="46" height="43" />
<rect x="362" y="426" width="48" height="39" />
<rect x="316" y="364" width="48" height="48" />
<rect x="408" y="351" width="48" height="47" />
<rect x="225" y="373" width="48" height="48" />
<rect x="202" y="310" width="26" height="48" />
<rect x="226" y="297" width="46" height="33" />
<rect x="271" y="255" width="48" height="48" />
<rect x="362" y="381" width="48" height="48" />
<rect x="455" y="278" width="48" height="48" />
<rect x="271" y="483" width="47" height="52" />
<rect x="317" y="457" width="47" height="29" />
<rect x="409" y="306" width="48" height="47" />
<rect x="179" y="528" width="48" height="37" />
<rect x="271" y="437" width="48" height="48" />
<rect x="317" y="410" width="47" height="48" />
<rect x="225" y="418" width="48" height="48" />
<rect x="271" y="391" width="47" height="48" />
<rect x="226" y="327" width="48" height="48" />
<rect x="180" y="355" width="48" height="37" />
<rect x="271" y="300" width="48" height="48" />
<rect x="318" y="204" width="48" height="70" />
<rect x="225" y="465" width="48" height="48" />
<rect x="179" y="483" width="48" height="48" />
<rect x="271" y="345" width="48" height="48" />
<rect x="317" y="319" width="47" height="47" />
<rect x="225" y="509" width="48" height="42" />
<rect x="454" y="322" width="48" height="48" />
<rect x="364" y="332" width="47" height="48" />
<rect x="364" y="288" width="47" height="48" />
    </g>
    <text x="512" y="60">Mushroom Forest</text>
</a>
<a href="/The_Fallen_Nexus_(Aberration)" class="svgRegion">
    <g filter="url(#blur)">
<rect x="455" y="187" width="48" height="48" />
<rect x="455" y="162" width="48" height="27" />
<rect x="410" y="167" width="48" height="48" />
<rect x="500" y="163" width="47" height="45" />
<rect x="500" y="0" width="48" height="24" />
<rect x="547" y="89" width="48" height="47" />
<rect x="547" y="42" width="48" height="47" />
<rect x="547" y="3" width="48" height="40" />
<rect x="547" y="135" width="48" height="47" />
<rect x="500" y="116" width="48" height="47" />
<rect x="500" y="69" width="48" height="48" />
<rect x="500" y="23" width="48" height="47" />
<rect x="310" y="116" width="48" height="47" />
<rect x="452" y="0" width="48" height="23" />
<rect x="452" y="116" width="48" height="51" />
<rect x="452" y="69" width="48" height="48" />
<rect x="452" y="23" width="48" height="47" />
<rect x="405" y="116" width="48" height="60" />
<rect x="405" y="69" width="48" height="48" />
<rect x="405" y="23" width="48" height="47" />
<rect x="405" y="0" width="48" height="24" />
<rect x="358" y="23" width="48" height="47" />
<rect x="358" y="0" width="48" height="24" />
<rect x="310" y="0" width="48" height="24" />
<rect x="310" y="23" width="48" height="47" />
<rect x="263" y="15" width="48" height="55" />
<rect x="221" y="74" width="43" height="43" />
<rect x="358" y="69" width="48" height="48" />
<rect x="310" y="69" width="48" height="48" />
<rect x="263" y="69" width="48" height="48" />
<rect x="263" y="116" width="48" height="47" />
<rect x="358" y="116" width="48" height="47" />
<rect x="358" y="162" width="53" height="43" />
<rect x="310" y="162" width="48" height="43" />
<rect x="263" y="162" width="48" height="43" />
<rect x="221" y="116" width="43" height="47" />
<rect x="220" y="162" width="44" height="43" />
<rect x="187" y="162" width="34" height="43" />
<rect x="187" y="137" width="34" height="26" />
    </g>
    <text x="512" y="60">The Fallen Nexus</text>
</a>
<a href="/The_Ancient_Device_(Aberration)" class="svgRegion">
    <g filter="url(#blur)">
<rect x="5" y="391" width="34" height="48" />
<rect x="179" y="438" width="48" height="48" />
<rect x="132" y="438" width="48" height="48" />
<rect x="85" y="438" width="48" height="48" />
<rect x="38" y="438" width="47" height="48" />
<rect x="5" y="438" width="34" height="48" />
<rect x="132" y="486" width="48" height="47" />
<rect x="85" y="486" width="48" height="47" />
<rect x="38" y="486" width="47" height="47" />
<rect x="5" y="486" width="34" height="47" />
<rect x="132" y="391" width="48" height="48" />
<rect x="85" y="391" width="48" height="48" />
<rect x="38" y="391" width="47" height="48" />
<rect x="132" y="533" width="48" height="32" />
<rect x="179" y="391" width="48" height="48" />
    </g>
    <text x="512" y="60">The Ancient Device</text>
</a>
<a href="/Hope%27s_End_(Aberration)" class="svgRegion">
    <g filter="url(#blur)">
<rect x="511" y="759" width="48" height="31" />
<rect x="606" y="774" width="48" height="48" />
<rect x="654" y="797" width="48" height="21" />
<rect x="417" y="603" width="48" height="48" />
<rect x="417" y="651" width="48" height="46" />
<rect x="417" y="696" width="48" height="48" />
<rect x="417" y="720" width="48" height="48" />
<rect x="464" y="696" width="48" height="48" />
<rect x="464" y="743" width="48" height="70" />
<rect x="511" y="790" width="48" height="33" />
<rect x="511" y="743" width="48" height="17" />
<rect x="559" y="743" width="48" height="48" />
<rect x="559" y="791" width="48" height="31" />
    </g>
    <text x="512" y="60">Hope&#x27;s End</text>
</a>
<a href="/Luminous_Marshlands_(Aberration)" class="svgRegion">
    <g filter="url(#blur)">
<rect x="793" y="292" width="47" height="65" />
<rect x="793" y="356" width="47" height="47" />
<rect x="793" y="402" width="47" height="47" />
<rect x="793" y="448" width="47" height="49" />
<rect x="745" y="402" width="48" height="47" />
<rect x="698" y="402" width="48" height="47" />
<rect x="745" y="304" width="48" height="53" />
<rect x="604" y="333" width="48" height="24" />
<rect x="651" y="402" width="48" height="47" />
<rect x="745" y="448" width="48" height="49" />
<rect x="698" y="448" width="48" height="49" />
<rect x="651" y="448" width="48" height="49" />
<rect x="745" y="356" width="48" height="47" />
<rect x="698" y="356" width="48" height="47" />
<rect x="698" y="317" width="48" height="40" />
<rect x="651" y="356" width="48" height="47" />
<rect x="651" y="317" width="48" height="40" />
<rect x="604" y="356" width="48" height="47" />
<rect x="604" y="402" width="48" height="47" />
<rect x="604" y="448" width="48" height="49" />
<rect x="557" y="402" width="48" height="47" />
<rect x="590" y="342" width="15" height="61" />
<rect x="745" y="497" width="73" height="47" />
<rect x="698" y="497" width="48" height="47" />
<rect x="651" y="497" width="48" height="47" />
<rect x="604" y="497" width="48" height="47" />
<rect x="557" y="356" width="34" height="47" />
    </g>
    <text x="512" y="60">Luminous Marshlands</text>
</a>
<a href="/The_Overlook_(Aberration)" class="svgRegion">
    <g filter="url(#blur)">
<rect x="454" y="428" width="57" height="49" />
<rect x="557" y="448" width="48" height="76" />
<rect x="250" y="518" width="66" height="71" />
<rect x="510" y="429" width="48" height="48" />
<rect x="510" y="476" width="48" height="48" />
<rect x="463" y="476" width="48" height="48" />
<rect x="558" y="570" width="47" height="48" />
<rect x="558" y="523" width="47" height="48" />
<rect x="510" y="570" width="48" height="48" />
<rect x="510" y="523" width="48" height="48" />
<rect x="463" y="523" width="48" height="48" />
<rect x="463" y="570" width="48" height="38" />
<rect x="416" y="570" width="48" height="38" />
<rect x="416" y="523" width="48" height="48" />
<rect x="372" y="549" width="44" height="48" />
<rect x="416" y="428" width="39" height="50" />
<rect x="372" y="435" width="44" height="68" />
<rect x="416" y="476" width="48" height="48" />
<rect x="315" y="459" width="57" height="44" />
<rect x="372" y="502" width="44" height="48" />
<rect x="315" y="502" width="57" height="48" />
<rect x="315" y="549" width="57" height="48" />
<rect x="315" y="596" width="57" height="48" />
<rect x="264" y="588" width="52" height="34" />
    </g>
    <text x="512" y="60">The Overlook</text>
</a>
<a href="/Crystalline_Swamps_(Aberration)" class="svgRegion">
    <g filter="url(#blur)">
<rect x="817" y="497" width="24" height="95" />
<rect x="698" y="544" width="48" height="48" />
<rect x="651" y="544" width="48" height="48" />
<rect x="604" y="544" width="48" height="48" />
<rect x="698" y="591" width="48" height="48" />
<rect x="604" y="591" width="48" height="48" />
<rect x="745" y="544" width="73" height="48" />
<rect x="745" y="591" width="57" height="48" />
<rect x="651" y="591" width="48" height="48" />
<rect x="840" y="319" width="48" height="48" />
<rect x="840" y="367" width="48" height="48" />
<rect x="840" y="414" width="48" height="48" />
<rect x="840" y="510" width="55" height="46" />
<rect x="840" y="462" width="48" height="48" />
<rect x="840" y="554" width="48" height="27" />
    </g>
    <text x="512" y="60">Crystalline Swamps</text>
</a>
<a href="/River_Valley_(Aberration)" class="svgRegion">
    <g filter="url(#blur)">
<rect x="545" y="316" width="47" height="41" />
<rect x="590" y="289" width="48" height="56" />
<rect x="636" y="182" width="35" height="82" />
<rect x="545" y="227" width="48" height="48" />
<rect x="652" y="309" width="18" height="25" />
<rect x="500" y="296" width="48" height="48" />
<rect x="545" y="271" width="47" height="48" />
<rect x="591" y="243" width="47" height="48" />
<rect x="500" y="250" width="48" height="48" />
<rect x="500" y="206" width="48" height="48" />
<rect x="546" y="181" width="48" height="48" />
<rect x="636" y="262" width="35" height="48" />
<rect x="636" y="309" width="16" height="28" />
<rect x="591" y="182" width="48" height="66" />
<rect x="670" y="182" width="19" height="65" />
<rect x="501" y="380" width="57" height="49" />
<rect x="408" y="395" width="48" height="45" />
<rect x="454" y="369" width="48" height="60" />
<rect x="500" y="341" width="58" height="39" />
    </g>
    <text x="512" y="60">River Valley</text>
</a>
<a href="/The_Grave_of_the_Lost_(Aberration)" class="svgRegion">
    <g filter="url(#blur)">
<rect x="210" y="395" width="566" height="465" />
    </g>
    <text x="512" y="60">The Grave of the Lost</text>
</a>
<a href="/Teeming_Caverns_-_Tunnels_(Aberration)" class="svgRegion">
    <g filter="url(#blur)">
<rect x="893" y="690" width="131" height="175" />
<rect x="937" y="717" width="87" height="148" />
<rect x="911" y="717" width="27" height="137" />
    </g>
    <text x="512" y="60">Teeming Caverns - Tunnels</text>
</a>
<a href="/Elemental_Vault_-_Entrance_(Aberration)" class="svgRegion">
    <g filter="url(#blur)">
<rect x="485" y="898" width="31" height="13" />
    </g>
    <text x="512" y="60">Elemental Vault - Entrance</text>
</a>
<a href="/Teeming_Caverns_-_Entrance_(Aberration)" class="svgRegion">
    <g filter="url(#blur)">
<rect x="956" y="854" width="22" height="37" />
<rect x="977" y="864" width="47" height="19" />
    </g>
    <text x="512" y="60">Teeming Caverns - Entrance</text>
</a>
<a href="/Old_Railway_Cave_-_Entrance_(Aberration)" class="svgRegion">
    <g filter="url(#blur)">
<rect x="230" y="491" width="4" height="7" />
<rect x="225" y="495" width="12" height="4" />
    </g>
    <text x="512" y="60">Old Railway Cave - Entrance</text>
</a>
<a href="/Elemental_Vault_-_Ledges_(Aberration)" class="svgRegion">
    <g filter="url(#blur)">
<rect x="439" y="911" width="77" height="38" />
    </g>
    <text x="512" y="60">Elemental Vault - Ledges</text>
</a>
<a href="/Elemental_Vault_-_Caverns_(Aberration)" class="svgRegion">
    <g filter="url(#blur)">
<rect x="439" y="948" width="109" height="76" />
    </g>
    <text x="512" y="60">Elemental Vault - Caverns</text>
</a>
<a href="/Old_Railway_Cave_-_Tunnels_(Aberration)" class="svgRegion">
    <g filter="url(#blur)">
<rect x="182" y="498" width="55" height="42" />
    </g>
    <text x="512" y="60">Old Railway Cave - Tunnels</text>
</a>
<a href="/Hidden_Grotto_-_Entrance_(Aberration)" class="svgRegion">
    <g filter="url(#blur)">
<rect x="699" y="571" width="9" height="8" />
<rect x="708" y="571" width="7" height="8" />
    </g>
    <text x="512" y="60">Hidden Grotto - Entrance</text>
</a>
<a href="/Hidden_Grotto_-_Tunnels_(Aberration)" class="svgRegion">
    <g filter="url(#blur)">
<rect x="714" y="549" width="20" height="30" />
<rect x="714" y="498" width="80" height="51" />
<rect x="737" y="548" width="51" height="36" />
    </g>
    <text x="512" y="60">Hidden Grotto - Tunnels</text>
</a>
</svg>