<?xml version="1.0" encoding="utf-8"?>
<svg xmlns="http://www.w3.org/2000/svg" width="300" height="300" viewBox="0 0 300 300" class="creatureMap" style="position:absolute;">
    <defs>
        <filter id="blur" x="-30%" y="-30%" width="160%" height="160%">
            <feGaussianBlur stdDeviation="3" />
        </filter>
        <pattern id="pattern-untameable" width="10" height="10" patternTransform="rotate(135)" patternUnits="userSpaceOnUse">'
            <rect width="4" height="10" fill="black"></rect>
        </pattern>
        <filter id="groupStroke">
            <feFlood result="outsideColor" flood-color="black"/>
            <feMorphology in="SourceAlpha" operator="dilate" radius="2"/>
            <feComposite result="strokeoutline1" in="outsideColor" operator="in"/>
            <feComposite result="strokeoutline2" in="strokeoutline1" in2="SourceAlpha" operator="out"/>
            <feGaussianBlur in="strokeoutline2" result="strokeblur" stdDeviation="1"/>
        </filter>
        <style>
            .spawningMap-very-common { fill: #0F0; }
            .spawningMap-common { fill: #B2FF00; }
            .spawningMap-uncommon { fill: #FF0; }
            .spawningMap-very-uncommon { fill: #FC0; }
            .spawningMap-rare { fill: #F60; }
            .spawningMap-very-rare { fill: #F00; }
            .spawning-map-point { stroke:black; stroke-width:1; }
        </style>
    </defs>

<g filter="url(#blur)" opacity="0.7">
<g class="spawningMap-common">
<rect x="231" y="292" width="14" height="8" />
</g>
<g class="spawningMap-very-common">
<rect x="225" y="254" width="21" height="20" />
<rect x="241" y="254" width="23" height="20" />
<rect x="227" y="236" width="30" height="20" />
<rect x="254" y="236" width="25" height="20" />
<rect x="279" y="299" width="14" height="1" />
<rect x="272" y="299" width="13" height="1" />
<rect x="271" y="289" width="13" height="11" />
<rect x="268" y="284" width="14" height="11" />
<rect x="262" y="289" width="14" height="11" />
<rect x="245" y="290" width="12" height="10" />
<rect x="239" y="289" width="12" height="9" />
<rect x="118" y="148" width="16" height="16" />
<rect x="118" y="137" width="16" height="16" />
<rect x="176" y="142" width="12" height="14" />
</g>
</g>
<g fill="url(#pattern-untameable)" opacity="0.3">
<rect x="231" y="292" width="14" height="8"/>
<rect x="279" y="299" width="14" height="1"/>
<rect x="272" y="299" width="13" height="1"/>
</g>
</svg>