<?xml version="1.0" encoding="utf-8"?>
<svg xmlns="http://www.w3.org/2000/svg" width="300" height="300"
        viewBox="0 0 300 300" class="creatureMap" style="position:absolute;">
    <defs>
        <filter id="blur" x="-30%" y="-30%" width="160%" height="160%">
            <feGaussianBlur stdDeviation="3" />
        </filter>
        <pattern id="pattern-untameable" width="10" height="10" patternTransform="rotate(135)" patternUnits="userSpaceOnUse">
            <rect width="4" height="10" fill="black"></rect>
        </pattern>
        <filter id="groupStroke">
            <feFlood result="outsideColor" flood-color="black"/>
            <feMorphology in="SourceAlpha" operator="dilate" radius="2"/>
            <feComposite result="strokeoutline1" in="outsideColor" operator="in"/>
            <feComposite result="strokeoutline2" in="strokeoutline1" in2="SourceAlpha" operator="out"/>
            <feGaussianBlur in="strokeoutline2" result="strokeblur" stdDeviation="1"/>
        </filter>
        <style>
            .spawningMap-very-common { fill: #0F0; }
            .spawningMap-common { fill: #B2FF00; }
            .spawningMap-uncommon { fill: #FF0; }
            .spawningMap-very-uncommon { fill: #FC0; }
            .spawningMap-rare { fill: #F60; }
            .spawningMap-very-rare { fill: #F00; }
            .spawning-map-point { stroke:black; stroke-width:1; }
        </style>
    </defs>

<g filter="url(#blur)" opacity="0.7">
<g class="spawningMap-rare">
<rect x="60" y="90" width="18" height="17" />
<rect x="102" y="140" width="18" height="17" />
<rect x="81" y="81" width="15" height="15" />
<rect x="65" y="85" width="18" height="17" />
<rect x="43" y="102" width="18" height="17" />
<rect x="41" y="111" width="18" height="17" />
<rect x="48" y="125" width="17" height="16" />
<rect x="54" y="135" width="17" height="17" />
<rect x="66" y="143" width="17" height="17" />
<rect x="84" y="148" width="17" height="17" />
<rect x="97" y="149" width="18" height="17" />
<rect x="105" y="159" width="17" height="17" />
<rect x="97" y="165" width="17" height="17" />
<rect x="111" y="132" width="17" height="17" />
<rect x="123" y="117" width="18" height="17" />
<rect x="117" y="100" width="17" height="17" />
<rect x="110" y="90" width="18" height="17" />
<rect x="104" y="80" width="18" height="17" />
</g>
<g class="spawningMap-very-uncommon">
<rect x="97" y="82" width="15" height="15" />
<rect x="122" y="111" width="15" height="15" />
<rect x="120" y="125" width="15" height="15" />
<rect x="72" y="146" width="16" height="16" />
<rect x="44" y="117" width="15" height="15" />
<rect x="227" y="84" width="15" height="14" />
<rect x="246" y="84" width="14" height="14" />
<rect x="237" y="93" width="14" height="13" />
<rect x="237" y="84" width="14" height="14" />
</g>
<g class="spawningMap-uncommon">
<rect x="164" y="93" width="12" height="10" />
<rect x="156" y="92" width="12" height="10" />
<rect x="171" y="93" width="15" height="13" />
<rect x="134" y="136" width="14" height="14" />
<rect x="134" y="153" width="14" height="14" />
<rect x="125" y="136" width="14" height="14" />
<rect x="125" y="145" width="14" height="13" />
<rect x="125" y="153" width="14" height="14" />
<rect x="199" y="127" width="15" height="14" />
<rect x="199" y="119" width="15" height="13" />
<rect x="199" y="110" width="15" height="14" />
<rect x="227" y="136" width="15" height="14" />
<rect x="227" y="153" width="15" height="14" />
<rect x="237" y="136" width="14" height="14" />
<rect x="237" y="145" width="14" height="13" />
<rect x="237" y="153" width="14" height="14" />
<rect x="153" y="84" width="14" height="14" />
<rect x="153" y="171" width="14" height="13" />
<rect x="162" y="171" width="14" height="13" />
<rect x="190" y="136" width="14" height="14" />
<rect x="190" y="119" width="14" height="13" />
<rect x="190" y="110" width="14" height="14" />
<rect x="181" y="119" width="14" height="13" />
<rect x="181" y="110" width="14" height="14" />
<rect x="181" y="162" width="14" height="14" />
<rect x="143" y="136" width="15" height="14" />
<rect x="143" y="84" width="15" height="14" />
<rect x="143" y="145" width="15" height="13" />
<rect x="143" y="153" width="15" height="14" />
<rect x="153" y="110" width="14" height="14" />
<rect x="171" y="136" width="15" height="14" />
<rect x="171" y="119" width="15" height="13" />
<rect x="171" y="171" width="15" height="13" />
<rect x="190" y="162" width="14" height="14" />
<rect x="162" y="110" width="14" height="14" />
<rect x="162" y="93" width="14" height="13" />
</g>
</g>
</svg>