<?xml version="1.0" encoding="utf-8"?>
<svg xmlns="http://www.w3.org/2000/svg" width="300" height="300" viewBox="0 0 300 300" class="creatureMap" style="position:absolute;">
    <defs>
        <filter id="blur" x="-30%" y="-30%" width="160%" height="160%">
            <feGaussianBlur stdDeviation="3" />
        </filter>
        <pattern id="pattern-untameable" width="10" height="10" patternTransform="rotate(135)" patternUnits="userSpaceOnUse">'
            <rect width="4" height="10" fill="black"></rect>
        </pattern>
        <filter id="groupStroke">
            <feFlood result="outsideColor" flood-color="black"/>
            <feMorphology in="SourceAlpha" operator="dilate" radius="2"/>
            <feComposite result="strokeoutline1" in="outsideColor" operator="in"/>
            <feComposite result="strokeoutline2" in="strokeoutline1" in2="SourceAlpha" operator="out"/>
            <feGaussianBlur in="strokeoutline2" result="strokeblur" stdDeviation="1"/>
        </filter>
        <style>
            .spawningMap-very-common { fill: #0F0; }
            .spawningMap-common { fill: #B2FF00; }
            .spawningMap-uncommon { fill: #FF0; }
            .spawningMap-very-uncommon { fill: #FC0; }
            .spawningMap-rare { fill: #F60; }
            .spawningMap-very-rare { fill: #F00; }
            .spawning-map-point { stroke:black; stroke-width:1; }
        </style>
    </defs>

<g filter="url(#blur)" opacity="0.7">
<g class="spawningMap-rare">
<rect x="148" y="181" width="16" height="16" />
<rect x="148" y="170" width="16" height="16" />
<rect x="148" y="160" width="16" height="15" />
<rect x="137" y="160" width="16" height="15" />
<rect x="137" y="170" width="16" height="16" />
<rect x="137" y="181" width="16" height="16" />
<rect x="126" y="181" width="16" height="16" />
<rect x="115" y="181" width="16" height="16" />
<rect x="104" y="181" width="16" height="16" />
<rect x="104" y="191" width="16" height="16" />
<rect x="115" y="191" width="16" height="16" />
<rect x="126" y="191" width="16" height="16" />
<rect x="97" y="117" width="16" height="16" />
<rect x="108" y="117" width="16" height="16" />
<rect x="119" y="117" width="16" height="16" />
<rect x="119" y="128" width="16" height="15" />
<rect x="108" y="128" width="16" height="15" />
<rect x="130" y="128" width="16" height="15" />
<rect x="141" y="128" width="16" height="15" />
<rect x="141" y="138" width="16" height="16" />
<rect x="130" y="138" width="16" height="16" />
<rect x="119" y="138" width="16" height="16" />
<rect x="119" y="149" width="16" height="16" />
<rect x="119" y="159" width="16" height="16" />
<rect x="108" y="159" width="16" height="16" />
<rect x="108" y="149" width="16" height="16" />
<rect x="108" y="138" width="16" height="16" />
<rect x="130" y="149" width="16" height="16" />
<rect x="141" y="149" width="16" height="16" />
<rect x="152" y="149" width="16" height="16" />
<rect x="163" y="149" width="16" height="16" />
<rect x="163" y="159" width="16" height="16" />
<rect x="163" y="170" width="16" height="16" />
<rect x="174" y="170" width="16" height="16" />
<rect x="174" y="181" width="16" height="16" />
<rect x="170" y="191" width="16" height="16" />
<rect x="170" y="202" width="16" height="16" />
<rect x="181" y="202" width="16" height="16" />
<rect x="181" y="191" width="16" height="16" />
<rect x="192" y="186" width="16" height="16" />
<rect x="189" y="176" width="16" height="16" />
<rect x="189" y="165" width="16" height="16" />
<rect x="159" y="213" width="16" height="15" />
<rect x="159" y="202" width="16" height="16" />
<rect x="148" y="213" width="16" height="15" />
<rect x="137" y="213" width="16" height="15" />
<rect x="126" y="213" width="16" height="15" />
<rect x="126" y="202" width="16" height="16" />
<rect x="137" y="202" width="16" height="16" />
<rect x="148" y="202" width="16" height="16" />
<rect x="148" y="191" width="16" height="16" />
</g>
<g class="spawningMap-very-uncommon">
<rect x="185" y="167" width="9" height="16" />
<rect x="170" y="213" width="16" height="9" />
</g>
<g class="spawningMap-uncommon">
<rect x="53" y="151" width="10" height="7" />
</g>
<g class="spawningMap-common">
<rect x="54" y="147" width="7" height="7" />
<rect x="199" y="14" width="17" height="16" />
<rect x="210" y="14" width="16" height="16" />
<rect x="221" y="14" width="16" height="16" />
<rect x="232" y="14" width="16" height="16" />
<rect x="243" y="14" width="16" height="16" />
<rect x="254" y="14" width="16" height="16" />
<rect x="265" y="14" width="16" height="16" />
<rect x="276" y="14" width="16" height="16" />
<rect x="210" y="25" width="16" height="16" />
<rect x="221" y="25" width="16" height="16" />
<rect x="232" y="25" width="16" height="16" />
<rect x="243" y="25" width="16" height="16" />
<rect x="254" y="25" width="16" height="16" />
<rect x="265" y="25" width="16" height="16" />
<rect x="276" y="25" width="16" height="16" />
<rect x="210" y="36" width="16" height="16" />
<rect x="221" y="36" width="16" height="16" />
<rect x="232" y="36" width="16" height="16" />
<rect x="243" y="36" width="16" height="16" />
<rect x="254" y="36" width="16" height="16" />
<rect x="265" y="36" width="16" height="16" />
<rect x="276" y="36" width="16" height="16" />
<rect x="210" y="47" width="16" height="16" />
<rect x="221" y="47" width="16" height="16" />
<rect x="232" y="47" width="16" height="16" />
<rect x="243" y="47" width="16" height="16" />
<rect x="254" y="47" width="16" height="16" />
<rect x="265" y="47" width="16" height="16" />
<rect x="276" y="47" width="16" height="16" />
<rect x="210" y="58" width="16" height="16" />
<rect x="232" y="58" width="16" height="16" />
<rect x="243" y="58" width="16" height="16" />
<rect x="254" y="58" width="16" height="16" />
<rect x="265" y="58" width="16" height="16" />
<rect x="276" y="58" width="16" height="16" />
<rect x="265" y="69" width="16" height="16" />
<rect x="265" y="80" width="16" height="16" />
<rect x="254" y="80" width="16" height="16" />
<rect x="254" y="69" width="16" height="16" />
<rect x="243" y="69" width="16" height="16" />
<rect x="44" y="14" width="16" height="16" />
<rect x="44" y="25" width="16" height="16" />
<rect x="44" y="36" width="16" height="16" />
<rect x="33" y="36" width="16" height="16" />
<rect x="22" y="36" width="16" height="16" />
<rect x="22" y="25" width="16" height="16" />
<rect x="33" y="25" width="16" height="16" />
<rect x="33" y="14" width="16" height="16" />
<rect x="22" y="14" width="16" height="16" />
<rect x="48" y="172" width="16" height="16" />
<rect x="37" y="172" width="16" height="16" />
<rect x="37" y="183" width="16" height="16" />
<rect x="26" y="183" width="16" height="16" />
<rect x="48" y="183" width="16" height="16" />
<rect x="48" y="194" width="16" height="16" />
<rect x="37" y="194" width="16" height="16" />
<rect x="26" y="194" width="16" height="16" />
<rect x="34" y="205" width="16" height="16" />
<rect x="23" y="205" width="16" height="16" />
<rect x="12" y="205" width="16" height="16" />
<rect x="34" y="216" width="16" height="16" />
<rect x="23" y="216" width="16" height="16" />
<rect x="12" y="216" width="16" height="16" />
<rect x="34" y="227" width="16" height="16" />
<rect x="23" y="227" width="16" height="16" />
<rect x="12" y="227" width="16" height="16" />
<rect x="34" y="238" width="16" height="16" />
<rect x="23" y="238" width="16" height="16" />
<rect x="12" y="238" width="16" height="16" />
<rect x="34" y="249" width="16" height="16" />
<rect x="23" y="249" width="16" height="16" />
<rect x="12" y="249" width="16" height="16" />
<rect x="34" y="260" width="16" height="16" />
<rect x="23" y="260" width="16" height="16" />
<rect x="12" y="260" width="16" height="16" />
<rect x="1" y="260" width="16" height="16" />
<rect x="1" y="249" width="16" height="16" />
<rect x="45" y="249" width="16" height="16" />
<rect x="45" y="260" width="16" height="16" />
<rect x="34" y="271" width="16" height="16" />
<rect x="23" y="271" width="16" height="16" />
<rect x="45" y="271" width="16" height="16" />
<rect x="45" y="238" width="16" height="16" />
<rect x="61" y="146" width="8" height="7" />
<rect x="123" y="124" width="16" height="17" />
<rect x="84" y="220" width="17" height="16" />
<rect x="107" y="220" width="16" height="16" />
<rect x="96" y="209" width="16" height="16" />
<rect x="96" y="197" width="16" height="17" />
<rect x="96" y="186" width="16" height="16" />
<rect x="96" y="220" width="16" height="16" />
<rect x="84" y="209" width="17" height="16" />
<rect x="84" y="197" width="17" height="17" />
<rect x="84" y="186" width="17" height="16" />
<rect x="164" y="220" width="16" height="16" />
<rect x="152" y="220" width="17" height="16" />
<rect x="141" y="220" width="16" height="16" />
<rect x="130" y="220" width="16" height="16" />
<rect x="73" y="220" width="16" height="16" />
<rect x="61" y="220" width="17" height="16" />
<rect x="107" y="231" width="16" height="17" />
<rect x="130" y="209" width="16" height="16" />
<rect x="130" y="197" width="16" height="17" />
<rect x="118" y="209" width="17" height="16" />
<rect x="96" y="231" width="16" height="17" />
<rect x="84" y="233" width="17" height="17" />
<rect x="73" y="231" width="16" height="17" />
<rect x="61" y="231" width="17" height="17" />
<rect x="107" y="243" width="16" height="16" />
<rect x="96" y="243" width="16" height="16" />
<rect x="84" y="243" width="17" height="16" />
<rect x="118" y="197" width="17" height="17" />
<rect x="73" y="243" width="16" height="16" />
<rect x="118" y="186" width="17" height="16" />
<rect x="118" y="175" width="17" height="16" />
<rect x="73" y="209" width="16" height="16" />
<rect x="73" y="197" width="16" height="17" />
<rect x="73" y="186" width="16" height="16" />
<rect x="61" y="209" width="17" height="16" />
<rect x="198" y="197" width="16" height="17" />
<rect x="186" y="197" width="17" height="17" />
<rect x="175" y="197" width="17" height="17" />
<rect x="198" y="186" width="16" height="16" />
<rect x="186" y="186" width="17" height="16" />
<rect x="175" y="186" width="17" height="16" />
<rect x="164" y="209" width="16" height="16" />
<rect x="164" y="197" width="16" height="17" />
<rect x="107" y="254" width="16" height="17" />
<rect x="96" y="254" width="16" height="17" />
<rect x="84" y="254" width="17" height="16" />
<rect x="107" y="265" width="16" height="17" />
<rect x="96" y="265" width="16" height="17" />
<rect x="118" y="231" width="17" height="17" />
<rect x="118" y="243" width="17" height="16" />
<rect x="118" y="254" width="17" height="17" />
<rect x="130" y="243" width="16" height="16" />
<rect x="186" y="251" width="16" height="16" />
<rect x="186" y="262" width="16" height="17" />
<rect x="186" y="273" width="16" height="17" />
<rect x="174" y="262" width="17" height="17" />
<rect x="170" y="234" width="17" height="17" />
<rect x="170" y="246" width="17" height="16" />
<rect x="198" y="220" width="16" height="16" />
<rect x="186" y="220" width="17" height="16" />
<rect x="198" y="209" width="16" height="16" />
<rect x="186" y="209" width="17" height="16" />
<rect x="175" y="209" width="17" height="16" />
<rect x="231" y="205" width="17" height="17" />
<rect x="242" y="205" width="17" height="17" />
<rect x="242" y="216" width="17" height="17" />
<rect x="242" y="228" width="17" height="16" />
<rect x="242" y="239" width="17" height="17" />
<rect x="242" y="250" width="17" height="17" />
<rect x="242" y="262" width="17" height="16" />
<rect x="254" y="262" width="16" height="16" />
<rect x="242" y="273" width="17" height="17" />
<rect x="231" y="273" width="17" height="17" />
<rect x="231" y="285" width="17" height="15" />
<rect x="220" y="285" width="16" height="15" />
<rect x="208" y="285" width="17" height="15" />
<rect x="197" y="285" width="17" height="15" />
<rect x="197" y="273" width="17" height="17" />
<rect x="175" y="220" width="17" height="16" />
<rect x="197" y="262" width="17" height="16" />
<rect x="208" y="262" width="17" height="16" />
<rect x="220" y="262" width="16" height="16" />
<rect x="107" y="209" width="16" height="16" />
<rect x="220" y="250" width="16" height="17" />
<rect x="220" y="239" width="16" height="17" />
<rect x="231" y="239" width="16" height="17" />
<rect x="231" y="228" width="16" height="16" />
<rect x="231" y="216" width="16" height="17" />
<rect x="220" y="216" width="16" height="17" />
<rect x="220" y="228" width="16" height="16" />
<rect x="197" y="239" width="16" height="17" />
<rect x="197" y="251" width="16" height="16" />
<rect x="107" y="197" width="16" height="17" />
<rect x="208" y="251" width="17" height="16" />
<rect x="164" y="186" width="16" height="16" />
<rect x="152" y="209" width="17" height="16" />
<rect x="152" y="197" width="17" height="17" />
<rect x="152" y="186" width="17" height="16" />
<rect x="141" y="197" width="16" height="17" />
<rect x="141" y="186" width="16" height="16" />
<rect x="130" y="186" width="16" height="16" />
<rect x="130" y="175" width="16" height="16" />
<rect x="220" y="182" width="16" height="17" />
<rect x="231" y="194" width="17" height="16" />
<rect x="141" y="209" width="16" height="16" />
<rect x="137" y="202" width="17" height="17" />
<rect x="149" y="202" width="16" height="17" />
<rect x="111" y="120" width="17" height="16" />
<rect x="111" y="131" width="17" height="17" />
<rect x="123" y="136" width="16" height="16" />
<rect x="221" y="160" width="8" height="9" />
<rect x="107" y="186" width="16" height="16" />
<rect x="107" y="175" width="16" height="16" />
</g>
<g class="spawningMap-very-common">
<rect x="58" y="150" width="7" height="8" />
<rect x="33" y="8" width="16" height="11" />
<rect x="53" y="149" width="7" height="7" />
<rect x="58" y="146" width="7" height="6" />
<rect x="57" y="149" width="9" height="7" />
<rect x="60" y="148" width="7" height="7" />
<rect x="207" y="165" width="8" height="8" />
<rect x="57" y="146" width="7" height="7" />
<rect x="56" y="147" width="7" height="7" />
<rect x="63" y="149" width="7" height="8" />
<rect x="70" y="247" width="8" height="8" />
<rect x="61" y="150" width="7" height="7" />
<rect x="181" y="273" width="10" height="10" />
<rect x="209" y="213" width="17" height="12" />
<rect x="225" y="205" width="11" height="17" />
<rect x="254" y="246" width="12" height="17" />
<rect x="60" y="149" width="6" height="7" />
<rect x="220" y="211" width="11" height="11" />
<rect x="254" y="246" width="12" height="17" />
<rect x="209" y="194" width="11" height="16" />
<rect x="209" y="186" width="17" height="13" />
<rect x="226" y="194" width="10" height="16" />
<rect x="209" y="205" width="11" height="13" />
<rect x="225" y="148" width="7" height="8" />
<rect x="228" y="148" width="6" height="8" />
<rect x="208" y="163" width="7" height="7" />
<rect x="208" y="162" width="7" height="7" />
<rect x="209" y="162" width="6" height="6" />
<rect x="209" y="161" width="7" height="6" />
<rect x="207" y="156" width="8" height="7" />
<rect x="207" y="154" width="6" height="7" />
<rect x="208" y="151" width="8" height="7" />
<rect x="213" y="149" width="8" height="7" />
<rect x="214" y="147" width="7" height="8" />
<rect x="214" y="154" width="8" height="7" />
<rect x="215" y="150" width="7" height="8" />
<rect x="209" y="158" width="8" height="7" />
<rect x="209" y="157" width="8" height="8" />
<rect x="211" y="158" width="8" height="8" />
<rect x="211" y="153" width="7" height="7" />
<rect x="213" y="153" width="7" height="7" />
<rect x="208" y="154" width="7" height="7" />
<rect x="220" y="162" width="7" height="7" />
<rect x="219" y="162" width="7" height="7" />
<rect x="219" y="162" width="7" height="6" />
<rect x="219" y="161" width="7" height="6" />
<rect x="219" y="160" width="6" height="7" />
<rect x="219" y="159" width="6" height="7" />
<rect x="219" y="158" width="7" height="7" />
<rect x="223" y="158" width="7" height="7" />
<rect x="224" y="158" width="6" height="7" />
<rect x="224" y="158" width="7" height="7" />
<rect x="225" y="158" width="7" height="7" />
<rect x="225" y="159" width="7" height="6" />
<rect x="225" y="159" width="6" height="7" />
<rect x="224" y="160" width="7" height="6" />
<rect x="224" y="160" width="6" height="7" />
<rect x="224" y="161" width="7" height="7" />
<rect x="223" y="162" width="7" height="7" />
<rect x="222" y="163" width="7" height="6" />
<rect x="226" y="147" width="7" height="7" />
<rect x="212" y="144" width="7" height="6" />
<rect x="212" y="145" width="7" height="6" />
<rect x="212" y="145" width="6" height="7" />
<rect x="212" y="146" width="6" height="7" />
<rect x="211" y="147" width="7" height="7" />
<rect x="211" y="147" width="6" height="7" />
<rect x="210" y="147" width="7" height="7" />
<rect x="210" y="148" width="7" height="6" />
<rect x="210" y="149" width="7" height="6" />
<rect x="211" y="149" width="6" height="7" />
<rect x="211" y="150" width="6" height="7" />
<rect x="142" y="270" width="7" height="7" />
<rect x="140" y="273" width="7" height="9" />
<rect x="141" y="271" width="7" height="7" />
<rect x="141" y="273" width="6" height="6" />
<rect x="140" y="269" width="7" height="6" />
<rect x="139" y="269" width="7" height="8" />
<rect x="139" y="271" width="7" height="7" />
<rect x="138" y="272" width="7" height="7" />
<rect x="137" y="272" width="7" height="7" />
<rect x="136" y="273" width="7" height="7" />
<rect x="134" y="274" width="8" height="9" />
<rect x="131" y="274" width="8" height="9" />
<rect x="131" y="278" width="10" height="9" />
<rect x="131" y="281" width="7" height="9" />
<rect x="132" y="283" width="8" height="7" />
<rect x="131" y="284" width="8" height="8" />
<rect x="131" y="286" width="8" height="7" />
<rect x="129" y="287" width="8" height="8" />
<rect x="133" y="287" width="8" height="8" />
<rect x="136" y="283" width="8" height="8" />
<rect x="141" y="282" width="8" height="7" />
<rect x="140" y="282" width="7" height="7" />
<rect x="142" y="285" width="7" height="7" />
<rect x="143" y="286" width="8" height="8" />
<rect x="143" y="285" width="8" height="7" />
<rect x="143" y="283" width="8" height="8" />
<rect x="145" y="287" width="8" height="7" />
<rect x="145" y="285" width="8" height="8" />
<rect x="145" y="283" width="7" height="8" />
<rect x="140" y="289" width="7" height="8" />
<rect x="138" y="291" width="8" height="7" />
<rect x="140" y="291" width="8" height="7" />
<rect x="139" y="293" width="8" height="7" />
<rect x="139" y="294" width="8" height="6" />
<rect x="144" y="293" width="8" height="7" />
<rect x="144" y="295" width="8" height="5" />
<rect x="142" y="296" width="8" height="4" />
<rect x="141" y="297" width="8" height="3" />
<rect x="141" y="299" width="8" height="1" />
<rect x="149" y="299" width="8" height="1" />
<rect x="151" y="298" width="8" height="2" />
<rect x="151" y="297" width="8" height="3" />
<rect x="151" y="295" width="8" height="5" />
<rect x="153" y="294" width="8" height="6" />
<rect x="153" y="293" width="7" height="7" />
<rect x="151" y="292" width="7" height="7" />
<rect x="149" y="295" width="8" height="5" />
<rect x="149" y="293" width="8" height="7" />
<rect x="147" y="293" width="8" height="7" />
<rect x="148" y="291" width="8" height="8" />
<rect x="147" y="290" width="8" height="7" />
<rect x="147" y="288" width="8" height="7" />
<rect x="148" y="286" width="7" height="8" />
<rect x="131" y="290" width="8" height="7" />
<rect x="132" y="292" width="7" height="7" />
<rect x="132" y="293" width="7" height="7" />
<rect x="146" y="297" width="8" height="3" />
<rect x="151" y="293" width="8" height="7" />
</g>
</g>
<g fill="url(#pattern-untameable)" opacity="0.3">
<rect x="199" y="14" width="17" height="16"/>
<rect x="210" y="14" width="16" height="16"/>
<rect x="221" y="14" width="16" height="16"/>
<rect x="232" y="14" width="16" height="16"/>
<rect x="243" y="14" width="16" height="16"/>
<rect x="254" y="14" width="16" height="16"/>
<rect x="265" y="14" width="16" height="16"/>
<rect x="276" y="14" width="16" height="16"/>
<rect x="210" y="25" width="16" height="16"/>
<rect x="221" y="25" width="16" height="16"/>
<rect x="232" y="25" width="16" height="16"/>
<rect x="243" y="25" width="16" height="16"/>
<rect x="254" y="25" width="16" height="16"/>
<rect x="265" y="25" width="16" height="16"/>
<rect x="276" y="25" width="16" height="16"/>
<rect x="210" y="36" width="16" height="16"/>
<rect x="221" y="36" width="16" height="16"/>
<rect x="232" y="36" width="16" height="16"/>
<rect x="243" y="36" width="16" height="16"/>
<rect x="254" y="36" width="16" height="16"/>
<rect x="265" y="36" width="16" height="16"/>
<rect x="276" y="36" width="16" height="16"/>
<rect x="210" y="47" width="16" height="16"/>
<rect x="221" y="47" width="16" height="16"/>
<rect x="232" y="47" width="16" height="16"/>
<rect x="243" y="47" width="16" height="16"/>
<rect x="254" y="47" width="16" height="16"/>
<rect x="265" y="47" width="16" height="16"/>
<rect x="276" y="47" width="16" height="16"/>
<rect x="210" y="58" width="16" height="16"/>
<rect x="232" y="58" width="16" height="16"/>
<rect x="243" y="58" width="16" height="16"/>
<rect x="254" y="58" width="16" height="16"/>
<rect x="265" y="58" width="16" height="16"/>
<rect x="276" y="58" width="16" height="16"/>
<rect x="265" y="69" width="16" height="16"/>
<rect x="265" y="80" width="16" height="16"/>
<rect x="254" y="80" width="16" height="16"/>
<rect x="254" y="69" width="16" height="16"/>
<rect x="243" y="69" width="16" height="16"/>
<rect x="44" y="14" width="16" height="16"/>
<rect x="44" y="25" width="16" height="16"/>
<rect x="44" y="36" width="16" height="16"/>
<rect x="33" y="36" width="16" height="16"/>
<rect x="22" y="36" width="16" height="16"/>
<rect x="22" y="25" width="16" height="16"/>
<rect x="33" y="25" width="16" height="16"/>
<rect x="33" y="14" width="16" height="16"/>
<rect x="22" y="14" width="16" height="16"/>
<rect x="48" y="172" width="16" height="16"/>
<rect x="37" y="172" width="16" height="16"/>
<rect x="37" y="183" width="16" height="16"/>
<rect x="26" y="183" width="16" height="16"/>
<rect x="48" y="183" width="16" height="16"/>
<rect x="48" y="194" width="16" height="16"/>
<rect x="37" y="194" width="16" height="16"/>
<rect x="26" y="194" width="16" height="16"/>
<rect x="34" y="205" width="16" height="16"/>
<rect x="23" y="205" width="16" height="16"/>
<rect x="12" y="205" width="16" height="16"/>
<rect x="34" y="216" width="16" height="16"/>
<rect x="23" y="216" width="16" height="16"/>
<rect x="12" y="216" width="16" height="16"/>
<rect x="34" y="227" width="16" height="16"/>
<rect x="23" y="227" width="16" height="16"/>
<rect x="12" y="227" width="16" height="16"/>
<rect x="34" y="238" width="16" height="16"/>
<rect x="23" y="238" width="16" height="16"/>
<rect x="12" y="238" width="16" height="16"/>
<rect x="34" y="249" width="16" height="16"/>
<rect x="23" y="249" width="16" height="16"/>
<rect x="12" y="249" width="16" height="16"/>
<rect x="34" y="260" width="16" height="16"/>
<rect x="23" y="260" width="16" height="16"/>
<rect x="12" y="260" width="16" height="16"/>
<rect x="1" y="260" width="16" height="16"/>
<rect x="1" y="249" width="16" height="16"/>
<rect x="45" y="249" width="16" height="16"/>
<rect x="45" y="260" width="16" height="16"/>
<rect x="34" y="271" width="16" height="16"/>
<rect x="23" y="271" width="16" height="16"/>
<rect x="45" y="271" width="16" height="16"/>
<rect x="45" y="238" width="16" height="16"/>
<rect x="33" y="8" width="16" height="11"/>
</g>
<g filter="url(#groupStroke)" opacity="0.8">
<rect x="53" y="151" width="10" height="7"/>
<rect x="54" y="147" width="7" height="7"/>
<rect x="61" y="146" width="8" height="7"/>
<rect x="221" y="160" width="8" height="9"/>
<rect x="58" y="150" width="7" height="8"/>
<rect x="53" y="149" width="7" height="7"/>
<rect x="58" y="146" width="7" height="6"/>
<rect x="57" y="149" width="9" height="7"/>
<rect x="60" y="148" width="7" height="7"/>
<rect x="207" y="165" width="8" height="8"/>
<rect x="57" y="146" width="7" height="7"/>
<rect x="56" y="147" width="7" height="7"/>
<rect x="63" y="149" width="7" height="8"/>
<rect x="61" y="150" width="7" height="7"/>
<rect x="60" y="149" width="6" height="7"/>
<rect x="225" y="148" width="7" height="8"/>
<rect x="228" y="148" width="6" height="8"/>
<rect x="208" y="163" width="7" height="7"/>
<rect x="208" y="162" width="7" height="7"/>
<rect x="209" y="162" width="6" height="6"/>
<rect x="209" y="161" width="7" height="6"/>
<rect x="207" y="156" width="8" height="7"/>
<rect x="207" y="154" width="6" height="7"/>
<rect x="208" y="151" width="8" height="7"/>
<rect x="213" y="149" width="8" height="7"/>
<rect x="214" y="147" width="7" height="8"/>
<rect x="214" y="154" width="8" height="7"/>
<rect x="215" y="150" width="7" height="8"/>
<rect x="209" y="158" width="8" height="7"/>
<rect x="209" y="157" width="8" height="8"/>
<rect x="211" y="158" width="8" height="8"/>
<rect x="211" y="153" width="7" height="7"/>
<rect x="213" y="153" width="7" height="7"/>
<rect x="208" y="154" width="7" height="7"/>
<rect x="220" y="162" width="7" height="7"/>
<rect x="219" y="162" width="7" height="7"/>
<rect x="219" y="162" width="7" height="6"/>
<rect x="219" y="161" width="7" height="6"/>
<rect x="219" y="160" width="6" height="7"/>
<rect x="219" y="159" width="6" height="7"/>
<rect x="219" y="158" width="7" height="7"/>
<rect x="223" y="158" width="7" height="7"/>
<rect x="224" y="158" width="6" height="7"/>
<rect x="224" y="158" width="7" height="7"/>
<rect x="225" y="158" width="7" height="7"/>
<rect x="225" y="159" width="7" height="6"/>
<rect x="225" y="159" width="6" height="7"/>
<rect x="224" y="160" width="7" height="6"/>
<rect x="224" y="160" width="6" height="7"/>
<rect x="224" y="161" width="7" height="7"/>
<rect x="223" y="162" width="7" height="7"/>
<rect x="222" y="163" width="7" height="6"/>
<rect x="226" y="147" width="7" height="7"/>
<rect x="212" y="144" width="7" height="6"/>
<rect x="212" y="145" width="7" height="6"/>
<rect x="212" y="145" width="6" height="7"/>
<rect x="212" y="146" width="6" height="7"/>
<rect x="211" y="147" width="7" height="7"/>
<rect x="211" y="147" width="6" height="7"/>
<rect x="210" y="147" width="7" height="7"/>
<rect x="210" y="148" width="7" height="6"/>
<rect x="210" y="149" width="7" height="6"/>
<rect x="211" y="149" width="6" height="7"/>
<rect x="211" y="150" width="6" height="7"/>
<rect x="142" y="270" width="7" height="7"/>
<rect x="140" y="273" width="7" height="9"/>
<rect x="141" y="271" width="7" height="7"/>
<rect x="141" y="273" width="6" height="6"/>
<rect x="140" y="269" width="7" height="6"/>
<rect x="139" y="269" width="7" height="8"/>
<rect x="139" y="271" width="7" height="7"/>
<rect x="138" y="272" width="7" height="7"/>
<rect x="137" y="272" width="7" height="7"/>
<rect x="136" y="273" width="7" height="7"/>
<rect x="134" y="274" width="8" height="9"/>
<rect x="131" y="274" width="8" height="9"/>
<rect x="131" y="278" width="10" height="9"/>
<rect x="131" y="281" width="7" height="9"/>
<rect x="132" y="283" width="8" height="7"/>
<rect x="131" y="284" width="8" height="8"/>
<rect x="131" y="286" width="8" height="7"/>
<rect x="129" y="287" width="8" height="8"/>
<rect x="133" y="287" width="8" height="8"/>
<rect x="136" y="283" width="8" height="8"/>
<rect x="141" y="282" width="8" height="7"/>
<rect x="140" y="282" width="7" height="7"/>
<rect x="142" y="285" width="7" height="7"/>
<rect x="143" y="286" width="8" height="8"/>
<rect x="143" y="285" width="8" height="7"/>
<rect x="143" y="283" width="8" height="8"/>
<rect x="145" y="287" width="8" height="7"/>
<rect x="145" y="285" width="8" height="8"/>
<rect x="145" y="283" width="7" height="8"/>
<rect x="140" y="289" width="7" height="8"/>
<rect x="138" y="291" width="8" height="7"/>
<rect x="140" y="291" width="8" height="7"/>
<rect x="139" y="293" width="8" height="7"/>
<rect x="139" y="294" width="8" height="6"/>
<rect x="144" y="293" width="8" height="7"/>
<rect x="144" y="295" width="8" height="5"/>
<rect x="142" y="296" width="8" height="4"/>
<rect x="141" y="297" width="8" height="3"/>
<rect x="141" y="299" width="8" height="1"/>
<rect x="149" y="299" width="8" height="1"/>
<rect x="151" y="298" width="8" height="2"/>
<rect x="151" y="297" width="8" height="3"/>
<rect x="151" y="295" width="8" height="5"/>
<rect x="153" y="294" width="8" height="6"/>
<rect x="153" y="293" width="7" height="7"/>
<rect x="151" y="292" width="7" height="7"/>
<rect x="149" y="295" width="8" height="5"/>
<rect x="149" y="293" width="8" height="7"/>
<rect x="147" y="293" width="8" height="7"/>
<rect x="148" y="291" width="8" height="8"/>
<rect x="147" y="290" width="8" height="7"/>
<rect x="147" y="288" width="8" height="7"/>
<rect x="148" y="286" width="7" height="8"/>
<rect x="131" y="290" width="8" height="7"/>
<rect x="132" y="292" width="7" height="7"/>
<rect x="132" y="293" width="7" height="7"/>
<rect x="146" y="297" width="8" height="3"/>
<rect x="151" y="293" width="8" height="7"/>
</g>
</svg>