<?xml version="1.0" encoding="utf-8"?>
<svg xmlns="http://www.w3.org/2000/svg" width="300" height="300" viewBox="0 0 300 300" class="creatureMap" style="position:absolute;">
    <defs>
        <filter id="blur" x="-30%" y="-30%" width="160%" height="160%">
            <feGaussianBlur stdDeviation="3" />
        </filter>
        <pattern id="pattern-untameable" width="10" height="10" patternTransform="rotate(135)" patternUnits="userSpaceOnUse">'
            <rect width="4" height="10" fill="black"></rect>
        </pattern>
        <filter id="groupStroke">
            <feFlood result="outsideColor" flood-color="black"/>
            <feMorphology in="SourceAlpha" operator="dilate" radius="2"/>
            <feComposite result="strokeoutline1" in="outsideColor" operator="in"/>
            <feComposite result="strokeoutline2" in="strokeoutline1" in2="SourceAlpha" operator="out"/>
            <feGaussianBlur in="strokeoutline2" result="strokeblur" stdDeviation="1"/>
        </filter>
        <style>
            .spawningMap-very-common { fill: #0F0; }
            .spawningMap-common { fill: #B2FF00; }
            .spawningMap-uncommon { fill: #FF0; }
            .spawningMap-very-uncommon { fill: #FC0; }
            .spawningMap-rare { fill: #F60; }
            .spawningMap-very-rare { fill: #F00; }
            .spawning-map-point { stroke:black; stroke-width:1; }
        </style>
    </defs>

<g class="spawning-map-point" opacity="0.8">
<g class="spawningMap-very-uncommon">
<circle cx="63" cy="129" r="4" />
<circle cx="56" cy="140" r="4" />
<circle cx="60" cy="144" r="4" />
<circle cx="65" cy="146" r="4" />
<circle cx="70" cy="156" r="4" />
<circle cx="71" cy="157" r="4" />
<circle cx="71" cy="155" r="4" />
<circle cx="39" cy="145" r="4" />
<circle cx="44" cy="150" r="4" />
<circle cx="48" cy="148" r="4" />
<circle cx="64" cy="148" r="4" />
<circle cx="77" cy="144" r="4" />
<circle cx="85" cy="136" r="4" />
<circle cx="88" cy="133" r="4" />
<circle cx="94" cy="130" r="4" />
<circle cx="31" cy="148" r="4" />
<circle cx="55" cy="143" r="4" />
<circle cx="66" cy="137" r="4" />
<circle cx="97" cy="137" r="4" />
<circle cx="99" cy="140" r="4" />
<circle cx="95" cy="137" r="4" />
<circle cx="87" cy="147" r="4" />
<circle cx="78" cy="150" r="4" />
<circle cx="72" cy="145" r="4" />
<circle cx="59" cy="154" r="4" />
<circle cx="62" cy="150" r="4" />
<circle cx="86" cy="138" r="4" />
<circle cx="73" cy="129" r="4" />
<circle cx="91" cy="126" r="4" />
<circle cx="102" cy="115" r="4" />
<circle cx="44" cy="117" r="4" />
<circle cx="38" cy="122" r="4" />
<circle cx="27" cy="117" r="4" />
<circle cx="13" cy="131" r="4" />
<circle cx="35" cy="133" r="4" />
<circle cx="51" cy="133" r="4" />
<circle cx="52" cy="124" r="4" />
<circle cx="45" cy="117" r="4" />
<circle cx="27" cy="126" r="4" />
<circle cx="54" cy="138" r="4" />
<circle cx="86" cy="133" r="4" />
<circle cx="89" cy="132" r="4" />
<circle cx="91" cy="128" r="4" />
<circle cx="95" cy="126" r="4" />
<circle cx="96" cy="124" r="4" />
<circle cx="82" cy="126" r="4" />
<circle cx="78" cy="130" r="4" />
<circle cx="77" cy="133" r="4" />
<circle cx="78" cy="138" r="4" />
<circle cx="71" cy="137" r="4" />
<circle cx="71" cy="145" r="4" />
<circle cx="49" cy="153" r="4" />
<circle cx="54" cy="159" r="4" />
<circle cx="28" cy="119" r="4" />
<circle cx="71" cy="127" r="4" />
<circle cx="74" cy="122" r="4" />
<circle cx="72" cy="119" r="4" />
<circle cx="78" cy="118" r="4" />
<circle cx="84" cy="118" r="4" />
<circle cx="85" cy="124" r="4" />
<circle cx="93" cy="31" r="4" />
<circle cx="143" cy="35" r="4" />
<circle cx="156" cy="25" r="4" />
<circle cx="147" cy="15" r="4" />
<circle cx="123" cy="52" r="4" />
<circle cx="77" cy="51" r="4" />
<circle cx="101" cy="38" r="4" />
<circle cx="119" cy="22" r="4" />
<circle cx="105" cy="24" r="4" />
<circle cx="138" cy="45" r="4" />
<circle cx="98" cy="26" r="4" />
<circle cx="98" cy="28" r="4" />
<circle cx="98" cy="29" r="4" />
<circle cx="94" cy="30" r="4" />
<circle cx="93" cy="35" r="4" />
<circle cx="88" cy="38" r="4" />
<circle cx="138" cy="32" r="4" />
<circle cx="139" cy="27" r="4" />
<circle cx="130" cy="16" r="4" />
<circle cx="125" cy="16" r="4" />
<circle cx="106" cy="41" r="4" />
<circle cx="90" cy="32" r="4" />
<circle cx="92" cy="50" r="4" />
<circle cx="83" cy="27" r="4" />
<circle cx="84" cy="34" r="4" />
<circle cx="76" cy="37" r="4" />
<circle cx="74" cy="37" r="4" />
<circle cx="77" cy="39" r="4" />
<circle cx="77" cy="39" r="4" />
<circle cx="104" cy="55" r="4" />
<circle cx="107" cy="60" r="4" />
<circle cx="129" cy="51" r="4" />
<circle cx="133" cy="51" r="4" />
<circle cx="152" cy="49" r="4" />
<circle cx="73" cy="55" r="4" />
<circle cx="125" cy="25" r="4" />
<circle cx="111" cy="19" r="4" />
<circle cx="94" cy="29" r="4" />
<circle cx="88" cy="46" r="4" />
<circle cx="78" cy="47" r="4" />
<circle cx="139" cy="48" r="4" />
<circle cx="115" cy="57" r="4" />
<circle cx="99" cy="61" r="4" />
<circle cx="97" cy="60" r="4" />
<circle cx="91" cy="52" r="4" />
<circle cx="86" cy="54" r="4" />
<circle cx="86" cy="59" r="4" />
<circle cx="85" cy="61" r="4" />
<circle cx="94" cy="59" r="4" />
<circle cx="84" cy="42" r="4" />
<circle cx="84" cy="42" r="4" />
<circle cx="83" cy="47" r="4" />
<circle cx="83" cy="48" r="4" />
<circle cx="85" cy="49" r="4" />
<circle cx="85" cy="51" r="4" />
<circle cx="99" cy="55" r="4" />
<circle cx="145" cy="44" r="4" />
<circle cx="157" cy="42" r="4" />
<circle cx="159" cy="38" r="4" />
<circle cx="159" cy="34" r="4" />
<circle cx="181" cy="62" r="4" />
<circle cx="174" cy="76" r="4" />
<circle cx="191" cy="90" r="4" />
<circle cx="187" cy="67" r="4" />
<circle cx="166" cy="90" r="4" />
<circle cx="165" cy="82" r="4" />
<circle cx="145" cy="76" r="4" />
<circle cx="142" cy="86" r="4" />
<circle cx="126" cy="109" r="4" />
<circle cx="141" cy="115" r="4" />
<circle cx="142" cy="94" r="4" />
<circle cx="146" cy="77" r="4" />
<circle cx="146" cy="65" r="4" />
<circle cx="152" cy="56" r="4" />
<circle cx="163" cy="80" r="4" />
<circle cx="177" cy="79" r="4" />
<circle cx="185" cy="76" r="4" />
<circle cx="188" cy="75" r="4" />
<circle cx="196" cy="72" r="4" />
<circle cx="163" cy="64" r="4" />
<circle cx="154" cy="67" r="4" />
<circle cx="145" cy="76" r="4" />
<circle cx="134" cy="91" r="4" />
<circle cx="133" cy="98" r="4" />
<circle cx="152" cy="86" r="4" />
<circle cx="159" cy="88" r="4" />
<circle cx="155" cy="103" r="4" />
<circle cx="157" cy="90" r="4" />
<circle cx="145" cy="89" r="4" />
<circle cx="141" cy="92" r="4" />
<circle cx="157" cy="79" r="4" />
<circle cx="154" cy="85" r="4" />
<circle cx="137" cy="98" r="4" />
<circle cx="142" cy="106" r="4" />
<circle cx="146" cy="110" r="4" />
<circle cx="175" cy="93" r="4" />
<circle cx="158" cy="70" r="4" />
<circle cx="187" cy="83" r="4" />
<circle cx="159" cy="75" r="4" />
<circle cx="145" cy="80" r="4" />
<circle cx="152" cy="96" r="4" />
<circle cx="136" cy="79" r="4" />
<circle cx="133" cy="82" r="4" />
<circle cx="130" cy="90" r="4" />
<circle cx="146" cy="95" r="4" />
<circle cx="153" cy="89" r="4" />
<circle cx="169" cy="77" r="4" />
<circle cx="171" cy="80" r="4" />
<circle cx="171" cy="79" r="4" />
<circle cx="169" cy="79" r="4" />
<circle cx="171" cy="77" r="4" />
<circle cx="172" cy="78" r="4" />
<circle cx="159" cy="63" r="4" />
<circle cx="155" cy="64" r="4" />
<circle cx="157" cy="60" r="4" />
<circle cx="154" cy="69" r="4" />
<circle cx="142" cy="71" r="4" />
<circle cx="134" cy="75" r="4" />
<circle cx="130" cy="75" r="4" />
<circle cx="129" cy="74" r="4" />
</g>
<g class="spawningMap-uncommon">
<circle cx="133" cy="71" r="4" />
<circle cx="123" cy="72" r="4" />
<circle cx="109" cy="80" r="4" />
<circle cx="99" cy="93" r="4" />
<circle cx="86" cy="96" r="4" />
<circle cx="85" cy="77" r="4" />
<circle cx="116" cy="88" r="4" />
<circle cx="116" cy="84" r="4" />
<circle cx="127" cy="78" r="4" />
<circle cx="85" cy="78" r="4" />
<circle cx="89" cy="106" r="4" />
<circle cx="93" cy="97" r="4" />
<circle cx="103" cy="100" r="4" />
<circle cx="107" cy="102" r="4" />
<circle cx="117" cy="104" r="4" />
<circle cx="114" cy="98" r="4" />
<circle cx="116" cy="90" r="4" />
<circle cx="118" cy="87" r="4" />
<circle cx="122" cy="87" r="4" />
<circle cx="131" cy="110" r="4" />
<circle cx="129" cy="110" r="4" />
<circle cx="124" cy="106" r="4" />
<circle cx="122" cy="108" r="4" />
<circle cx="106" cy="104" r="4" />
<circle cx="92" cy="92" r="4" />
<circle cx="87" cy="95" r="4" />
<circle cx="97" cy="94" r="4" />
<circle cx="104" cy="86" r="4" />
<circle cx="113" cy="87" r="4" />
<circle cx="106" cy="106" r="4" />
<circle cx="107" cy="105" r="4" />
<circle cx="107" cy="104" r="4" />
<circle cx="110" cy="113" r="4" />
<circle cx="114" cy="102" r="4" />
<circle cx="107" cy="81" r="4" />
<circle cx="99" cy="84" r="4" />
<circle cx="106" cy="84" r="4" />
<circle cx="112" cy="84" r="4" />
<circle cx="121" cy="102" r="4" />
<circle cx="134" cy="68" r="4" />
<circle cx="129" cy="84" r="4" />
<circle cx="119" cy="71" r="4" />
<circle cx="115" cy="72" r="4" />
<circle cx="112" cy="75" r="4" />
<circle cx="110" cy="79" r="4" />
<circle cx="107" cy="89" r="4" />
<circle cx="98" cy="84" r="4" />
<circle cx="111" cy="94" r="4" />
<circle cx="116" cy="96" r="4" />
<circle cx="108" cy="107" r="4" />
<circle cx="105" cy="92" r="4" />
<circle cx="92" cy="88" r="4" />
<circle cx="93" cy="87" r="4" />
<circle cx="110" cy="109" r="4" />
<circle cx="112" cy="107" r="4" />
<circle cx="112" cy="105" r="4" />
<circle cx="136" cy="106" r="4" />
<circle cx="131" cy="99" r="4" />
<circle cx="121" cy="90" r="4" />
<circle cx="112" cy="90" r="4" />
</g>
</g>
</svg>