<?xml version="1.0" encoding="utf-8"?>
<svg xmlns="http://www.w3.org/2000/svg" width="300" height="300" viewBox="0 0 300 300" class="creatureMap" style="position:absolute;">
    <defs>
        <filter id="blur" x="-30%" y="-30%" width="160%" height="160%">
            <feGaussianBlur stdDeviation="3" />
        </filter>
        <pattern id="pattern-untameable" width="10" height="10" patternTransform="rotate(135)" patternUnits="userSpaceOnUse">'
            <rect width="4" height="10" fill="black"></rect>
        </pattern>
        <filter id="groupStroke">
            <feFlood result="outsideColor" flood-color="black"/>
            <feMorphology in="SourceAlpha" operator="dilate" radius="2"/>
            <feComposite result="strokeoutline1" in="outsideColor" operator="in"/>
            <feComposite result="strokeoutline2" in="strokeoutline1" in2="SourceAlpha" operator="out"/>
            <feGaussianBlur in="strokeoutline2" result="strokeblur" stdDeviation="1"/>
        </filter>
        <style>
            .spawningMap-very-common { fill: #0F0; }
            .spawningMap-common { fill: #B2FF00; }
            .spawningMap-uncommon { fill: #FF0; }
            .spawningMap-very-uncommon { fill: #FC0; }
            .spawningMap-rare { fill: #F60; }
            .spawningMap-very-rare { fill: #F00; }
            .spawning-map-point { stroke:black; stroke-width:1; }
        </style>
    </defs>

<g filter="url(#blur)" opacity="0.7">
<g class="spawningMap-very-rare">
<rect x="0" y="283" width="70" height="17" />
<rect x="76" y="283" width="116" height="17" />
<rect x="199" y="283" width="101" height="17" />
<rect x="0" y="183" width="16" height="108" />
<rect x="0" y="86" width="16" height="93" />
<rect x="0" y="0" width="16" height="83" />
<rect x="283" y="183" width="17" height="108" />
<rect x="283" y="86" width="17" height="93" />
<rect x="283" y="0" width="17" height="83" />
<rect x="2" y="0" width="70" height="18" />
<rect x="76" y="0" width="116" height="18" />
<rect x="199" y="0" width="101" height="18" />
</g>
<g class="spawningMap-very-uncommon">
<rect x="245" y="131" width="29" height="22" />
</g>
<g class="spawningMap-common">
<rect x="259" y="134" width="15" height="16" />
<rect x="259" y="129" width="21" height="13" />
</g>
<g class="spawningMap-very-common">
<rect x="59" y="76" width="10" height="7" />
<rect x="65" y="72" width="9" height="10" />
<rect x="57" y="74" width="7" height="9" />
<rect x="66" y="66" width="12" height="10" />
<rect x="76" y="64" width="13" height="13" />
<rect x="70" y="62" width="12" height="14" />
<rect x="57" y="74" width="7" height="9" />
<rect x="70" y="62" width="12" height="14" />
<rect x="59" y="76" width="10" height="7" />
<rect x="65" y="72" width="9" height="10" />
<rect x="66" y="66" width="12" height="10" />
<rect x="76" y="64" width="13" height="13" />
</g>
</g>
<g fill="url(#pattern-untameable)" opacity="0.3">
<rect x="245" y="131" width="29" height="22"/>
<rect x="259" y="134" width="15" height="16"/>
<rect x="259" y="129" width="21" height="13"/>
<rect x="59" y="76" width="10" height="7"/>
<rect x="65" y="72" width="9" height="10"/>
<rect x="57" y="74" width="7" height="9"/>
<rect x="66" y="66" width="12" height="10"/>
<rect x="76" y="64" width="13" height="13"/>
<rect x="70" y="62" width="12" height="14"/>
<rect x="57" y="74" width="7" height="9"/>
<rect x="70" y="62" width="12" height="14"/>
<rect x="59" y="76" width="10" height="7"/>
<rect x="65" y="72" width="9" height="10"/>
<rect x="66" y="66" width="12" height="10"/>
<rect x="76" y="64" width="13" height="13"/>
</g>
<g filter="url(#groupStroke)" opacity="0.8">
<rect x="245" y="131" width="29" height="22"/>
<rect x="259" y="134" width="15" height="16"/>
<rect x="259" y="129" width="21" height="13"/>
<rect x="59" y="76" width="10" height="7"/>
<rect x="65" y="72" width="9" height="10"/>
<rect x="57" y="74" width="7" height="9"/>
<rect x="66" y="66" width="12" height="10"/>
<rect x="76" y="64" width="13" height="13"/>
<rect x="70" y="62" width="12" height="14"/>
<rect x="57" y="74" width="7" height="9"/>
<rect x="70" y="62" width="12" height="14"/>
<rect x="59" y="76" width="10" height="7"/>
<rect x="65" y="72" width="9" height="10"/>
<rect x="66" y="66" width="12" height="10"/>
<rect x="76" y="64" width="13" height="13"/>
</g>
</svg>