<?xml version="1.0" encoding="utf-8"?>
<svg xmlns="http://www.w3.org/2000/svg" width="300" height="300"
        viewBox="0 0 300 300" class="creatureMap" style="position:absolute;">
    <defs>
        <filter id="blur" x="-30%" y="-30%" width="160%" height="160%">
            <feGaussianBlur stdDeviation="3" />
        </filter>
        <pattern id="pattern-untameable" width="10" height="10" patternTransform="rotate(135)" patternUnits="userSpaceOnUse">
            <rect width="4" height="10" fill="black"></rect>
        </pattern>
        <filter id="groupStroke">
            <feFlood result="outsideColor" flood-color="black"/>
            <feMorphology in="SourceAlpha" operator="dilate" radius="2"/>
            <feComposite result="strokeoutline1" in="outsideColor" operator="in"/>
            <feComposite result="strokeoutline2" in="strokeoutline1" in2="SourceAlpha" operator="out"/>
            <feGaussianBlur in="strokeoutline2" result="strokeblur" stdDeviation="1"/>
        </filter>
        <style>
            .spawningMap-very-common { fill: #0F0; }
            .spawningMap-common { fill: #B2FF00; }
            .spawningMap-uncommon { fill: #FF0; }
            .spawningMap-very-uncommon { fill: #FC0; }
            .spawningMap-rare { fill: #F60; }
            .spawningMap-very-rare { fill: #F00; }
            .spawning-map-point { stroke:black; stroke-width:1; }
        </style>
    </defs>

<g filter="url(#blur)" opacity="0.7">
<g class="spawningMap-uncommon">
<rect x="28" y="61" width="12" height="13" />
<rect x="36" y="61" width="13" height="13" />
<rect x="11" y="53" width="12" height="12" />
<rect x="19" y="53" width="13" height="12" />
<rect x="28" y="53" width="12" height="12" />
<rect x="19" y="44" width="13" height="12" />
<rect x="28" y="44" width="12" height="12" />
<rect x="122" y="44" width="13" height="12" />
<rect x="122" y="35" width="13" height="13" />
<rect x="122" y="27" width="13" height="12" />
<rect x="122" y="18" width="13" height="13" />
<rect x="114" y="27" width="12" height="12" />
<rect x="114" y="18" width="12" height="13" />
<rect x="105" y="18" width="13" height="13" />
<rect x="105" y="10" width="13" height="12" />
<rect x="97" y="18" width="12" height="13" />
<rect x="105" y="1" width="13" height="13" />
<rect x="97" y="10" width="12" height="12" />
<rect x="97" y="1" width="12" height="13" />
<rect x="88" y="10" width="12" height="12" />
<rect x="80" y="1" width="12" height="13" />
<rect x="54" y="18" width="12" height="13" />
<rect x="105" y="0" width="13" height="5" />
<rect x="97" y="0" width="12" height="5" />
<rect x="114" y="1" width="12" height="13" />
<rect x="88" y="1" width="12" height="13" />
<rect x="122" y="10" width="13" height="12" />
<rect x="122" y="1" width="13" height="13" />
<rect x="131" y="10" width="12" height="12" />
<rect x="131" y="1" width="12" height="13" />
<rect x="139" y="10" width="13" height="12" />
<rect x="139" y="1" width="13" height="13" />
<rect x="148" y="10" width="12" height="12" />
<rect x="148" y="1" width="12" height="13" />
<rect x="156" y="18" width="13" height="13" />
<rect x="156" y="10" width="13" height="12" />
<rect x="165" y="18" width="12" height="13" />
<rect x="165" y="10" width="12" height="12" />
<rect x="36" y="53" width="13" height="12" />
<rect x="45" y="53" width="13" height="12" />
<rect x="54" y="53" width="12" height="12" />
<rect x="37" y="44" width="12" height="12" />
<rect x="62" y="53" width="13" height="12" />
<rect x="71" y="53" width="12" height="12" />
<rect x="45" y="44" width="13" height="12" />
<rect x="54" y="44" width="12" height="12" />
<rect x="62" y="44" width="13" height="12" />
<rect x="71" y="44" width="12" height="12" />
<rect x="62" y="35" width="13" height="13" />
<rect x="71" y="35" width="12" height="13" />
<rect x="62" y="27" width="13" height="12" />
<rect x="71" y="27" width="12" height="12" />
<rect x="37" y="35" width="12" height="13" />
<rect x="45" y="35" width="13" height="13" />
<rect x="54" y="35" width="12" height="13" />
<rect x="37" y="27" width="12" height="12" />
<rect x="45" y="27" width="13" height="12" />
<rect x="54" y="27" width="12" height="12" />
<rect x="268" y="24" width="12" height="13" />
<rect x="259" y="16" width="13" height="12" />
<rect x="259" y="7" width="13" height="13" />
<rect x="259" y="0" width="13" height="11" />
<rect x="268" y="16" width="12" height="12" />
<rect x="268" y="7" width="12" height="13" />
<rect x="268" y="0" width="12" height="11" />
<rect x="276" y="16" width="13" height="12" />
<rect x="276" y="7" width="13" height="13" />
<rect x="276" y="0" width="13" height="11" />
<rect x="285" y="33" width="12" height="12" />
<rect x="285" y="24" width="12" height="13" />
<rect x="285" y="16" width="12" height="12" />
<rect x="293" y="50" width="7" height="13" />
<rect x="293" y="42" width="7" height="12" />
<rect x="285" y="50" width="12" height="13" />
<rect x="285" y="42" width="12" height="12" />
<rect x="11" y="44" width="12" height="12" />
<rect x="19" y="35" width="13" height="13" />
<rect x="28" y="35" width="12" height="13" />
<rect x="11" y="35" width="12" height="13" />
<rect x="19" y="27" width="13" height="12" />
<rect x="28" y="27" width="12" height="12" />
<rect x="11" y="27" width="12" height="12" />
<rect x="0" y="27" width="6" height="12" />
<rect x="2" y="27" width="13" height="12" />
<rect x="0" y="35" width="6" height="13" />
<rect x="2" y="35" width="13" height="13" />
<rect x="0" y="18" width="6" height="13" />
<rect x="2" y="18" width="13" height="13" />
<rect x="293" y="33" width="7" height="12" />
<rect x="276" y="44" width="13" height="13" />
<rect x="276" y="36" width="13" height="12" />
<rect x="19" y="18" width="13" height="13" />
<rect x="28" y="18" width="12" height="13" />
<rect x="11" y="18" width="12" height="13" />
<rect x="80" y="27" width="12" height="12" />
<rect x="62" y="18" width="13" height="13" />
<rect x="71" y="18" width="12" height="13" />
<rect x="79" y="18" width="13" height="13" />
<rect x="79" y="61" width="13" height="13" />
<rect x="114" y="10" width="12" height="12" />
<rect x="88" y="18" width="12" height="13" />
<rect x="80" y="10" width="12" height="12" />
<rect x="71" y="10" width="12" height="12" />
<rect x="114" y="0" width="12" height="5" />
<rect x="88" y="0" width="12" height="5" />
<rect x="156" y="35" width="13" height="13" />
<rect x="156" y="27" width="13" height="12" />
<rect x="165" y="35" width="12" height="13" />
<rect x="165" y="27" width="12" height="12" />
<rect x="225" y="33" width="12" height="13" />
<rect x="233" y="33" width="13" height="13" />
<rect x="242" y="33" width="13" height="13" />
<rect x="225" y="24" width="12" height="13" />
<rect x="251" y="33" width="12" height="13" />
<rect x="233" y="24" width="13" height="13" />
<rect x="242" y="24" width="12" height="13" />
<rect x="251" y="24" width="12" height="13" />
<rect x="259" y="24" width="13" height="13" />
<rect x="251" y="16" width="12" height="12" />
<rect x="251" y="7" width="12" height="13" />
<rect x="225" y="16" width="12" height="12" />
<rect x="233" y="16" width="13" height="12" />
<rect x="242" y="16" width="12" height="12" />
<rect x="225" y="7" width="12" height="13" />
<rect x="233" y="7" width="13" height="13" />
<rect x="242" y="7" width="12" height="13" />
</g>
</g>
</svg>