<?xml version="1.0" encoding="utf-8"?>
<svg xmlns="http://www.w3.org/2000/svg" width="300" height="300" viewBox="0 0 300 300" class="creatureMap" style="position:absolute;">
    <defs>
        <filter id="blur" x="-30%" y="-30%" width="160%" height="160%">
            <feGaussianBlur stdDeviation="3" />
        </filter>
        <pattern id="pattern-untameable" width="10" height="10" patternTransform="rotate(135)" patternUnits="userSpaceOnUse">'
            <rect width="4" height="10" fill="black"></rect>
        </pattern>
        <filter id="groupStroke">
            <feFlood result="outsideColor" flood-color="black"/>
            <feMorphology in="SourceAlpha" operator="dilate" radius="2"/>
            <feComposite result="strokeoutline1" in="outsideColor" operator="in"/>
            <feComposite result="strokeoutline2" in="strokeoutline1" in2="SourceAlpha" operator="out"/>
            <feGaussianBlur in="strokeoutline2" result="strokeblur" stdDeviation="1"/>
        </filter>
        <style>
            .spawningMap-very-common { fill: #0F0; }
            .spawningMap-common { fill: #B2FF00; }
            .spawningMap-uncommon { fill: #FF0; }
            .spawningMap-very-uncommon { fill: #FC0; }
            .spawningMap-rare { fill: #F60; }
            .spawningMap-very-rare { fill: #F00; }
            .spawning-map-point { stroke:black; stroke-width:1; }
        </style>
    </defs>

<g filter="url(#blur)" opacity="0.7">
<g class="spawningMap-rare">
<rect x="213" y="266" width="15" height="16" />
<rect x="213" y="256" width="15" height="15" />
<rect x="213" y="245" width="15" height="16" />
<rect x="213" y="235" width="15" height="15" />
<rect x="223" y="235" width="16" height="15" />
<rect x="223" y="256" width="16" height="15" />
<rect x="223" y="266" width="16" height="16" />
<rect x="234" y="266" width="15" height="16" />
<rect x="244" y="266" width="16" height="16" />
<rect x="234" y="256" width="15" height="15" />
<rect x="244" y="256" width="16" height="15" />
<rect x="255" y="256" width="15" height="15" />
<rect x="234" y="245" width="15" height="16" />
<rect x="234" y="235" width="15" height="15" />
<rect x="244" y="235" width="16" height="15" />
<rect x="244" y="245" width="16" height="16" />
<rect x="255" y="245" width="15" height="16" />
<rect x="255" y="235" width="15" height="15" />
<rect x="265" y="235" width="16" height="15" />
<rect x="265" y="245" width="16" height="16" />
<rect x="255" y="224" width="15" height="16" />
<rect x="244" y="224" width="16" height="16" />
<rect x="234" y="224" width="15" height="16" />
<rect x="234" y="214" width="15" height="15" />
<rect x="244" y="214" width="16" height="15" />
<rect x="244" y="203" width="16" height="16" />
<rect x="234" y="203" width="15" height="16" />
<rect x="223" y="224" width="16" height="16" />
</g>
<g class="spawningMap-very-uncommon">
<rect x="244" y="193" width="16" height="15" />
<rect x="255" y="193" width="15" height="15" />
<rect x="265" y="193" width="16" height="15" />
</g>
</g>
</svg>