<?xml version="1.0" encoding="utf-8"?>
<svg xmlns="http://www.w3.org/2000/svg" width="300" height="300"
        viewBox="0 0 300 300" class="creatureMap" style="position:absolute;">
    <defs>
        <filter id="blur" x="-30%" y="-30%" width="160%" height="160%">
            <feGaussianBlur stdDeviation="3" />
        </filter>
        <pattern id="pattern-untameable" width="10" height="10" patternTransform="rotate(135)" patternUnits="userSpaceOnUse">
            <rect width="4" height="10" fill="black"></rect>
        </pattern>
        <filter id="groupStroke">
            <feFlood result="outsideColor" flood-color="black"/>
            <feMorphology in="SourceAlpha" operator="dilate" radius="2"/>
            <feComposite result="strokeoutline1" in="outsideColor" operator="in"/>
            <feComposite result="strokeoutline2" in="strokeoutline1" in2="SourceAlpha" operator="out"/>
            <feGaussianBlur in="strokeoutline2" result="strokeblur" stdDeviation="1"/>
        </filter>
        <style>
            .spawningMap-very-common { fill: #0F0; }
            .spawningMap-common { fill: #B2FF00; }
            .spawningMap-uncommon { fill: #FF0; }
            .spawningMap-very-uncommon { fill: #FC0; }
            .spawningMap-rare { fill: #F60; }
            .spawningMap-very-rare { fill: #F00; }
            .spawning-map-point { stroke:black; stroke-width:1; }
        </style>
    </defs>

<g filter="url(#blur)" opacity="0.7">
<g class="spawningMap-very-rare">
<rect x="234" y="79" width="6" height="6" />
<rect x="18" y="13" width="25" height="168" />
<rect x="187" y="42" width="94" height="154" />
<rect x="46" y="0" width="144" height="32" />
</g>
<g class="spawningMap-rare">
<rect x="194" y="77" width="62" height="25" />
<rect x="21" y="273" width="153" height="13" />
<rect x="186" y="20" width="91" height="25" />
<rect x="252" y="41" width="23" height="65" />
</g>
</g>
<g class="spawning-map-point" opacity="0.8">
<g class="spawningMap-very-rare">
<circle cx="35" cy="99" r="4" />
<circle cx="33" cy="105" r="4" />
<circle cx="35" cy="102" r="4" />
<circle cx="36" cy="100" r="4" />
<circle cx="35" cy="97" r="4" />
<circle cx="38" cy="94" r="4" />
<circle cx="34" cy="105" r="4" />
<circle cx="34" cy="103" r="4" />
<circle cx="48" cy="107" r="4" />
<circle cx="48" cy="103" r="4" />
<circle cx="46" cy="100" r="4" />
<circle cx="48" cy="97" r="4" />
<circle cx="48" cy="98" r="4" />
<circle cx="50" cy="97" r="4" />
<circle cx="51" cy="95" r="4" />
<circle cx="37" cy="90" r="4" />
<circle cx="63" cy="85" r="4" />
<circle cx="60" cy="89" r="4" />
<circle cx="73" cy="88" r="4" />
<circle cx="54" cy="90" r="4" />
<circle cx="79" cy="87" r="4" />
<circle cx="78" cy="87" r="4" />
<circle cx="76" cy="87" r="4" />
<circle cx="71" cy="86" r="4" />
<circle cx="71" cy="89" r="4" />
<circle cx="65" cy="85" r="4" />
<circle cx="67" cy="87" r="4" />
<circle cx="65" cy="88" r="4" />
<circle cx="62" cy="85" r="4" />
<circle cx="61" cy="87" r="4" />
<circle cx="59" cy="90" r="4" />
<circle cx="57" cy="90" r="4" />
<circle cx="125" cy="65" r="4" />
<circle cx="119" cy="46" r="4" />
<circle cx="119" cy="48" r="4" />
<circle cx="116" cy="51" r="4" />
<circle cx="117" cy="52" r="4" />
<circle cx="120" cy="53" r="4" />
<circle cx="122" cy="56" r="4" />
<circle cx="124" cy="54" r="4" />
<circle cx="128" cy="52" r="4" />
<circle cx="126" cy="56" r="4" />
<circle cx="130" cy="55" r="4" />
<circle cx="129" cy="58" r="4" />
<circle cx="131" cy="63" r="4" />
<circle cx="126" cy="57" r="4" />
<circle cx="131" cy="66" r="4" />
<circle cx="129" cy="65" r="4" />
<circle cx="129" cy="63" r="4" />
<circle cx="130" cy="61" r="4" />
<circle cx="134" cy="63" r="4" />
<circle cx="138" cy="63" r="4" />
<circle cx="139" cy="62" r="4" />
<circle cx="142" cy="61" r="4" />
<circle cx="143" cy="62" r="4" />
<circle cx="141" cy="66" r="4" />
<circle cx="140" cy="65" r="4" />
<circle cx="139" cy="67" r="4" />
<circle cx="136" cy="65" r="4" />
<circle cx="132" cy="63" r="4" />
<circle cx="140" cy="72" r="4" />
<circle cx="141" cy="73" r="4" />
<circle cx="138" cy="76" r="4" />
<circle cx="138" cy="78" r="4" />
<circle cx="138" cy="72" r="4" />
<circle cx="142" cy="80" r="4" />
<circle cx="125" cy="65" r="4" />
<circle cx="121" cy="65" r="4" />
<circle cx="121" cy="64" r="4" />
<circle cx="121" cy="63" r="4" />
<circle cx="125" cy="62" r="4" />
<circle cx="159" cy="81" r="4" />
<circle cx="144" cy="70" r="4" />
<circle cx="146" cy="71" r="4" />
<circle cx="145" cy="73" r="4" />
<circle cx="145" cy="77" r="4" />
<circle cx="146" cy="79" r="4" />
<circle cx="144" cy="80" r="4" />
<circle cx="145" cy="81" r="4" />
<circle cx="149" cy="84" r="4" />
<circle cx="150" cy="84" r="4" />
<circle cx="151" cy="85" r="4" />
<circle cx="152" cy="86" r="4" />
<circle cx="155" cy="85" r="4" />
<circle cx="156" cy="83" r="4" />
<circle cx="156" cy="81" r="4" />
<circle cx="157" cy="80" r="4" />
<circle cx="161" cy="81" r="4" />
<circle cx="161" cy="83" r="4" />
<circle cx="164" cy="84" r="4" />
<circle cx="165" cy="86" r="4" />
<circle cx="165" cy="87" r="4" />
<circle cx="166" cy="87" r="4" />
<circle cx="166" cy="87" r="4" />
<circle cx="167" cy="87" r="4" />
<circle cx="167" cy="85" r="4" />
<circle cx="167" cy="83" r="4" />
<circle cx="166" cy="81" r="4" />
<circle cx="165" cy="79" r="4" />
<circle cx="165" cy="78" r="4" />
<circle cx="164" cy="76" r="4" />
<circle cx="164" cy="74" r="4" />
<circle cx="166" cy="74" r="4" />
<circle cx="131" cy="95" r="4" />
<circle cx="138" cy="82" r="4" />
<circle cx="139" cy="84" r="4" />
<circle cx="139" cy="86" r="4" />
<circle cx="140" cy="89" r="4" />
<circle cx="137" cy="89" r="4" />
<circle cx="136" cy="87" r="4" />
<circle cx="135" cy="87" r="4" />
<circle cx="133" cy="88" r="4" />
<circle cx="133" cy="91" r="4" />
<circle cx="131" cy="87" r="4" />
<circle cx="130" cy="88" r="4" />
<circle cx="128" cy="90" r="4" />
<circle cx="133" cy="95" r="4" />
<circle cx="133" cy="94" r="4" />
<circle cx="133" cy="93" r="4" />
</g>
</g>
<g fill="url(#pattern-untameable)" opacity="0.3">
<rect x="234" y="79" width="6" height="6"/>
<rect x="18" y="13" width="25" height="168"/>
<rect x="187" y="42" width="94" height="154"/>
<rect x="46" y="0" width="144" height="32"/>
<rect x="194" y="77" width="62" height="25"/>
<rect x="21" y="273" width="153" height="13"/>
<rect x="186" y="20" width="91" height="25"/>
<rect x="252" y="41" width="23" height="65"/>
</g>
</svg>