<?xml version="1.0" encoding="utf-8"?>
<svg xmlns="http://www.w3.org/2000/svg" width="300" height="300"
        viewBox="0 0 300 300" class="creatureMap" style="position:absolute;">
    <defs>
        <filter id="blur" x="-30%" y="-30%" width="160%" height="160%">
            <feGaussianBlur stdDeviation="3" />
        </filter>
        <pattern id="pattern-untameable" width="10" height="10" patternTransform="rotate(135)" patternUnits="userSpaceOnUse">
            <rect width="4" height="10" fill="black"></rect>
        </pattern>
        <filter id="groupStroke">
            <feFlood result="outsideColor" flood-color="black"/>
            <feMorphology in="SourceAlpha" operator="dilate" radius="2"/>
            <feComposite result="strokeoutline1" in="outsideColor" operator="in"/>
            <feComposite result="strokeoutline2" in="strokeoutline1" in2="SourceAlpha" operator="out"/>
            <feGaussianBlur in="strokeoutline2" result="strokeblur" stdDeviation="1"/>
        </filter>
        <style>
            .spawningMap-very-common { fill: #0F0; }
            .spawningMap-common { fill: #B2FF00; }
            .spawningMap-uncommon { fill: #FF0; }
            .spawningMap-very-uncommon { fill: #FC0; }
            .spawningMap-rare { fill: #F60; }
            .spawningMap-very-rare { fill: #F00; }
            .spawning-map-point { stroke:black; stroke-width:1; }
        </style>
    </defs>

<g filter="url(#blur)" opacity="0.7">
<g class="spawningMap-very-rare">
<rect x="188" y="229" width="19" height="17" />
</g>
<g class="spawningMap-uncommon">
<rect x="58" y="33" width="19" height="18" />
<rect x="113" y="228" width="17" height="17" />
<rect x="113" y="240" width="17" height="17" />
<rect x="74" y="204" width="18" height="17" />
<rect x="74" y="216" width="18" height="17" />
<rect x="113" y="216" width="16" height="17" />
<rect x="74" y="96" width="18" height="18" />
<rect x="74" y="109" width="18" height="17" />
<rect x="125" y="162" width="17" height="19" />
<rect x="138" y="162" width="17" height="19" />
<rect x="138" y="135" width="17" height="18" />
<rect x="162" y="135" width="17" height="18" />
</g>
<g class="spawningMap-common">
<rect x="59" y="148" width="18" height="19" />
<rect x="59" y="162" width="18" height="19" />
<rect x="45" y="33" width="18" height="18" />
<rect x="59" y="135" width="18" height="17" />
<rect x="59" y="108" width="19" height="18" />
<rect x="138" y="190" width="17" height="19" />
<rect x="74" y="177" width="18" height="18" />
<rect x="74" y="190" width="18" height="18" />
<rect x="102" y="148" width="16" height="19" />
<rect x="102" y="162" width="16" height="20" />
<rect x="113" y="148" width="17" height="19" />
<rect x="125" y="190" width="17" height="19" />
<rect x="138" y="177" width="17" height="18" />
<rect x="125" y="177" width="17" height="18" />
<rect x="138" y="148" width="17" height="19" />
<rect x="86" y="33" width="19" height="18" />
<rect x="46" y="204" width="18" height="17" />
<rect x="46" y="216" width="18" height="17" />
<rect x="59" y="96" width="19" height="18" />
<rect x="59" y="122" width="18" height="18" />
<rect x="175" y="241" width="18" height="17" />
</g>
<g class="spawningMap-very-common">
<rect x="202" y="253" width="19" height="17" />
<rect x="216" y="253" width="19" height="17" />
<rect x="230" y="253" width="18" height="17" />
<rect x="244" y="253" width="18" height="17" />
<rect x="258" y="253" width="18" height="17" />
<rect x="216" y="240" width="19" height="18" />
<rect x="230" y="240" width="18" height="18" />
<rect x="244" y="240" width="18" height="18" />
<rect x="258" y="240" width="18" height="18" />
<rect x="216" y="228" width="19" height="17" />
<rect x="230" y="228" width="18" height="17" />
<rect x="244" y="228" width="18" height="17" />
<rect x="258" y="228" width="18" height="17" />
<rect x="216" y="215" width="19" height="18" />
<rect x="230" y="215" width="18" height="18" />
<rect x="244" y="215" width="18" height="18" />
<rect x="258" y="215" width="18" height="18" />
<rect x="216" y="203" width="19" height="17" />
<rect x="230" y="203" width="18" height="17" />
<rect x="244" y="203" width="18" height="17" />
<rect x="258" y="203" width="18" height="17" />
<rect x="230" y="190" width="18" height="18" />
<rect x="244" y="190" width="18" height="18" />
<rect x="258" y="190" width="18" height="18" />
<rect x="230" y="178" width="18" height="17" />
<rect x="244" y="178" width="18" height="17" />
<rect x="258" y="178" width="18" height="17" />
<rect x="202" y="215" width="19" height="18" />
<rect x="202" y="203" width="19" height="17" />
<rect x="59" y="83" width="19" height="17" />
<rect x="113" y="71" width="17" height="17" />
<rect x="101" y="71" width="17" height="17" />
<rect x="87" y="159" width="8" height="8" />
<rect x="217" y="179" width="19" height="17" />
<rect x="217" y="191" width="19" height="17" />
<rect x="204" y="179" width="18" height="17" />
<rect x="175" y="229" width="18" height="17" />
<rect x="202" y="241" width="18" height="17" />
<rect x="202" y="229" width="18" height="17" />
<rect x="204" y="191" width="18" height="17" />
<rect x="188" y="241" width="19" height="17" />
<rect x="74" y="228" width="18" height="17" />
<rect x="88" y="228" width="18" height="17" />
<rect x="88" y="240" width="18" height="18" />
<rect x="175" y="216" width="18" height="17" />
<rect x="102" y="216" width="16" height="17" />
<rect x="188" y="204" width="19" height="17" />
<rect x="102" y="190" width="16" height="18" />
<rect x="102" y="177" width="16" height="18" />
<rect x="74" y="148" width="18" height="19" />
<rect x="74" y="162" width="18" height="19" />
<rect x="88" y="148" width="18" height="19" />
<rect x="88" y="162" width="18" height="19" />
<rect x="188" y="216" width="19" height="17" />
<rect x="113" y="162" width="17" height="20" />
<rect x="74" y="122" width="18" height="18" />
<rect x="74" y="135" width="18" height="17" />
<rect x="88" y="122" width="18" height="18" />
<rect x="88" y="135" width="18" height="17" />
<rect x="102" y="135" width="16" height="17" />
<rect x="113" y="135" width="17" height="17" />
<rect x="175" y="204" width="18" height="17" />
<rect x="88" y="96" width="18" height="18" />
<rect x="88" y="109" width="18" height="17" />
<rect x="125" y="240" width="17" height="18" />
<rect x="137" y="228" width="18" height="17" />
<rect x="137" y="240" width="18" height="18" />
<rect x="125" y="228" width="17" height="17" />
<rect x="125" y="228" width="17" height="17" />
<rect x="162" y="228" width="17" height="17" />
<rect x="162" y="240" width="17" height="17" />
<rect x="125" y="204" width="17" height="17" />
<rect x="138" y="216" width="17" height="17" />
<rect x="150" y="204" width="17" height="17" />
<rect x="150" y="216" width="17" height="17" />
<rect x="162" y="204" width="17" height="17" />
<rect x="162" y="216" width="17" height="17" />
<rect x="150" y="177" width="17" height="18" />
<rect x="150" y="190" width="17" height="19" />
<rect x="162" y="177" width="17" height="18" />
<rect x="162" y="177" width="17" height="18" />
<rect x="125" y="148" width="17" height="19" />
<rect x="150" y="148" width="17" height="19" />
<rect x="126" y="135" width="17" height="18" />
<rect x="138" y="122" width="17" height="18" />
<rect x="150" y="135" width="17" height="18" />
<rect x="175" y="177" width="18" height="18" />
<rect x="175" y="190" width="18" height="17" />
<rect x="189" y="177" width="19" height="18" />
<rect x="189" y="190" width="19" height="17" />
<rect x="175" y="162" width="18" height="19" />
<rect x="175" y="148" width="18" height="19" />
<rect x="204" y="148" width="19" height="19" />
<rect x="204" y="162" width="19" height="19" />
<rect x="218" y="162" width="19" height="19" />
<rect x="175" y="122" width="18" height="18" />
<rect x="175" y="135" width="18" height="18" />
<rect x="189" y="122" width="19" height="18" />
<rect x="189" y="135" width="19" height="18" />
<rect x="204" y="120" width="19" height="19" />
<rect x="204" y="134" width="19" height="19" />
<rect x="31" y="33" width="18" height="18" />
<rect x="114" y="31" width="18" height="19" />
<rect x="113" y="58" width="17" height="18" />
<rect x="59" y="204" width="19" height="17" />
<rect x="59" y="216" width="19" height="17" />
<rect x="45" y="108" width="19" height="18" />
<rect x="59" y="177" width="19" height="18" />
<rect x="59" y="190" width="19" height="18" />
<rect x="45" y="83" width="19" height="17" />
<rect x="247" y="56" width="8" height="9" />
<rect x="248" y="66" width="8" height="8" />
<rect x="209" y="55" width="8" height="8" />
<rect x="204" y="59" width="8" height="8" />
<rect x="204" y="63" width="8" height="8" />
<rect x="216" y="54" width="8" height="8" />
<rect x="221" y="47" width="8" height="8" />
<rect x="219" y="58" width="8" height="8" />
<rect x="226" y="55" width="8" height="8" />
<rect x="226" y="53" width="8" height="8" />
<rect x="224" y="59" width="8" height="8" />
<rect x="226" y="62" width="8" height="8" />
<rect x="231" y="58" width="8" height="8" />
<rect x="234" y="54" width="8" height="8" />
<rect x="235" y="48" width="8" height="8" />
<rect x="239" y="47" width="8" height="8" />
<rect x="236" y="55" width="8" height="9" />
<rect x="251" y="49" width="9" height="10" />
</g>
</g>
<g fill="url(#pattern-untameable)" opacity="0.3">
<rect x="188" y="229" width="19" height="17"/>
<rect x="58" y="33" width="19" height="18"/>
<rect x="113" y="228" width="17" height="17"/>
<rect x="113" y="240" width="17" height="17"/>
<rect x="74" y="204" width="18" height="17"/>
<rect x="74" y="216" width="18" height="17"/>
<rect x="113" y="216" width="16" height="17"/>
<rect x="74" y="96" width="18" height="18"/>
<rect x="74" y="109" width="18" height="17"/>
<rect x="125" y="162" width="17" height="19"/>
<rect x="138" y="162" width="17" height="19"/>
<rect x="138" y="135" width="17" height="18"/>
<rect x="162" y="135" width="17" height="18"/>
<rect x="59" y="148" width="18" height="19"/>
<rect x="59" y="162" width="18" height="19"/>
<rect x="45" y="33" width="18" height="18"/>
<rect x="59" y="135" width="18" height="17"/>
<rect x="59" y="108" width="19" height="18"/>
<rect x="138" y="190" width="17" height="19"/>
<rect x="74" y="177" width="18" height="18"/>
<rect x="74" y="190" width="18" height="18"/>
<rect x="102" y="148" width="16" height="19"/>
<rect x="102" y="162" width="16" height="20"/>
<rect x="113" y="148" width="17" height="19"/>
<rect x="125" y="190" width="17" height="19"/>
<rect x="138" y="177" width="17" height="18"/>
<rect x="125" y="177" width="17" height="18"/>
<rect x="138" y="148" width="17" height="19"/>
<rect x="86" y="33" width="19" height="18"/>
<rect x="46" y="204" width="18" height="17"/>
<rect x="46" y="216" width="18" height="17"/>
<rect x="59" y="96" width="19" height="18"/>
<rect x="59" y="122" width="18" height="18"/>
<rect x="175" y="241" width="18" height="17"/>
<rect x="202" y="253" width="19" height="17"/>
<rect x="216" y="253" width="19" height="17"/>
<rect x="230" y="253" width="18" height="17"/>
<rect x="244" y="253" width="18" height="17"/>
<rect x="258" y="253" width="18" height="17"/>
<rect x="216" y="240" width="19" height="18"/>
<rect x="230" y="240" width="18" height="18"/>
<rect x="244" y="240" width="18" height="18"/>
<rect x="258" y="240" width="18" height="18"/>
<rect x="216" y="228" width="19" height="17"/>
<rect x="230" y="228" width="18" height="17"/>
<rect x="244" y="228" width="18" height="17"/>
<rect x="258" y="228" width="18" height="17"/>
<rect x="216" y="215" width="19" height="18"/>
<rect x="230" y="215" width="18" height="18"/>
<rect x="244" y="215" width="18" height="18"/>
<rect x="258" y="215" width="18" height="18"/>
<rect x="216" y="203" width="19" height="17"/>
<rect x="230" y="203" width="18" height="17"/>
<rect x="244" y="203" width="18" height="17"/>
<rect x="258" y="203" width="18" height="17"/>
<rect x="230" y="190" width="18" height="18"/>
<rect x="244" y="190" width="18" height="18"/>
<rect x="258" y="190" width="18" height="18"/>
<rect x="230" y="178" width="18" height="17"/>
<rect x="244" y="178" width="18" height="17"/>
<rect x="258" y="178" width="18" height="17"/>
<rect x="202" y="215" width="19" height="18"/>
<rect x="202" y="203" width="19" height="17"/>
<rect x="59" y="83" width="19" height="17"/>
<rect x="113" y="71" width="17" height="17"/>
<rect x="101" y="71" width="17" height="17"/>
<rect x="87" y="159" width="8" height="8"/>
<rect x="217" y="179" width="19" height="17"/>
<rect x="217" y="191" width="19" height="17"/>
<rect x="204" y="179" width="18" height="17"/>
<rect x="175" y="229" width="18" height="17"/>
<rect x="202" y="241" width="18" height="17"/>
<rect x="202" y="229" width="18" height="17"/>
<rect x="204" y="191" width="18" height="17"/>
<rect x="188" y="241" width="19" height="17"/>
<rect x="74" y="228" width="18" height="17"/>
<rect x="88" y="228" width="18" height="17"/>
<rect x="88" y="240" width="18" height="18"/>
<rect x="175" y="216" width="18" height="17"/>
<rect x="102" y="216" width="16" height="17"/>
<rect x="188" y="204" width="19" height="17"/>
<rect x="102" y="190" width="16" height="18"/>
<rect x="102" y="177" width="16" height="18"/>
<rect x="74" y="148" width="18" height="19"/>
<rect x="74" y="162" width="18" height="19"/>
<rect x="88" y="148" width="18" height="19"/>
<rect x="88" y="162" width="18" height="19"/>
<rect x="188" y="216" width="19" height="17"/>
<rect x="113" y="162" width="17" height="20"/>
<rect x="74" y="122" width="18" height="18"/>
<rect x="74" y="135" width="18" height="17"/>
<rect x="88" y="122" width="18" height="18"/>
<rect x="88" y="135" width="18" height="17"/>
<rect x="102" y="135" width="16" height="17"/>
<rect x="113" y="135" width="17" height="17"/>
<rect x="175" y="204" width="18" height="17"/>
<rect x="88" y="96" width="18" height="18"/>
<rect x="88" y="109" width="18" height="17"/>
<rect x="125" y="240" width="17" height="18"/>
<rect x="137" y="228" width="18" height="17"/>
<rect x="137" y="240" width="18" height="18"/>
<rect x="125" y="228" width="17" height="17"/>
<rect x="125" y="228" width="17" height="17"/>
<rect x="162" y="228" width="17" height="17"/>
<rect x="162" y="240" width="17" height="17"/>
<rect x="125" y="204" width="17" height="17"/>
<rect x="138" y="216" width="17" height="17"/>
<rect x="150" y="204" width="17" height="17"/>
<rect x="150" y="216" width="17" height="17"/>
<rect x="162" y="204" width="17" height="17"/>
<rect x="162" y="216" width="17" height="17"/>
<rect x="150" y="177" width="17" height="18"/>
<rect x="150" y="190" width="17" height="19"/>
<rect x="162" y="177" width="17" height="18"/>
<rect x="162" y="177" width="17" height="18"/>
<rect x="125" y="148" width="17" height="19"/>
<rect x="150" y="148" width="17" height="19"/>
<rect x="126" y="135" width="17" height="18"/>
<rect x="138" y="122" width="17" height="18"/>
<rect x="150" y="135" width="17" height="18"/>
<rect x="175" y="177" width="18" height="18"/>
<rect x="175" y="190" width="18" height="17"/>
<rect x="189" y="177" width="19" height="18"/>
<rect x="189" y="190" width="19" height="17"/>
<rect x="175" y="162" width="18" height="19"/>
<rect x="175" y="148" width="18" height="19"/>
<rect x="204" y="148" width="19" height="19"/>
<rect x="204" y="162" width="19" height="19"/>
<rect x="218" y="162" width="19" height="19"/>
<rect x="175" y="122" width="18" height="18"/>
<rect x="175" y="135" width="18" height="18"/>
<rect x="189" y="122" width="19" height="18"/>
<rect x="189" y="135" width="19" height="18"/>
<rect x="204" y="120" width="19" height="19"/>
<rect x="204" y="134" width="19" height="19"/>
<rect x="31" y="33" width="18" height="18"/>
<rect x="114" y="31" width="18" height="19"/>
<rect x="113" y="58" width="17" height="18"/>
<rect x="59" y="204" width="19" height="17"/>
<rect x="59" y="216" width="19" height="17"/>
<rect x="45" y="108" width="19" height="18"/>
<rect x="59" y="177" width="19" height="18"/>
<rect x="59" y="190" width="19" height="18"/>
<rect x="45" y="83" width="19" height="17"/>
<rect x="247" y="56" width="8" height="9"/>
<rect x="248" y="66" width="8" height="8"/>
<rect x="209" y="55" width="8" height="8"/>
<rect x="204" y="59" width="8" height="8"/>
<rect x="204" y="63" width="8" height="8"/>
<rect x="216" y="54" width="8" height="8"/>
<rect x="221" y="47" width="8" height="8"/>
<rect x="219" y="58" width="8" height="8"/>
<rect x="226" y="55" width="8" height="8"/>
<rect x="226" y="53" width="8" height="8"/>
<rect x="224" y="59" width="8" height="8"/>
<rect x="226" y="62" width="8" height="8"/>
<rect x="231" y="58" width="8" height="8"/>
<rect x="234" y="54" width="8" height="8"/>
<rect x="235" y="48" width="8" height="8"/>
<rect x="239" y="47" width="8" height="8"/>
<rect x="236" y="55" width="8" height="9"/>
<rect x="251" y="49" width="9" height="10"/>
</g>
</svg>