<?xml version="1.0" encoding="utf-8"?>
<svg xmlns="http://www.w3.org/2000/svg" width="300" height="300"
        viewBox="0 0 300 300" class="creatureMap" style="position:absolute;">
    <defs>
        <filter id="blur" x="-30%" y="-30%" width="160%" height="160%">
            <feGaussianBlur stdDeviation="3" />
        </filter>
        <pattern id="pattern-untameable" width="10" height="10" patternTransform="rotate(135)" patternUnits="userSpaceOnUse">
            <rect width="4" height="10" fill="black"></rect>
        </pattern>
        <filter id="groupStroke">
            <feFlood result="outsideColor" flood-color="black"/>
            <feMorphology in="SourceAlpha" operator="dilate" radius="2"/>
            <feComposite result="strokeoutline1" in="outsideColor" operator="in"/>
            <feComposite result="strokeoutline2" in="strokeoutline1" in2="SourceAlpha" operator="out"/>
            <feGaussianBlur in="strokeoutline2" result="strokeblur" stdDeviation="1"/>
        </filter>
        <style>
            .spawningMap-very-common { fill: #0F0; }
            .spawningMap-common { fill: #B2FF00; }
            .spawningMap-uncommon { fill: #FF0; }
            .spawningMap-very-uncommon { fill: #FC0; }
            .spawningMap-rare { fill: #F60; }
            .spawningMap-very-rare { fill: #F00; }
            .spawning-map-point { stroke:black; stroke-width:1; }
        </style>
    </defs>

<g filter="url(#blur)" opacity="0.7">
<g class="spawningMap-rare">
<rect x="137" y="265" width="18" height="18" />
</g>
<g class="spawningMap-very-uncommon">
<rect x="102" y="240" width="16" height="17" />
<rect x="125" y="265" width="17" height="18" />
</g>
<g class="spawningMap-uncommon">
<rect x="113" y="264" width="17" height="17" />
<rect x="102" y="228" width="16" height="17" />
<rect x="204" y="178" width="18" height="17" />
<rect x="217" y="178" width="19" height="17" />
<rect x="125" y="215" width="17" height="17" />
<rect x="125" y="190" width="17" height="18" />
<rect x="113" y="190" width="17" height="18" />
<rect x="209" y="127" width="19" height="18" />
<rect x="209" y="140" width="19" height="18" />
<rect x="223" y="165" width="18" height="18" />
<rect x="209" y="102" width="19" height="18" />
<rect x="209" y="115" width="19" height="18" />
<rect x="223" y="102" width="18" height="18" />
<rect x="236" y="102" width="19" height="18" />
<rect x="250" y="102" width="19" height="18" />
<rect x="236" y="165" width="19" height="18" />
<rect x="250" y="165" width="19" height="18" />
</g>
<g class="spawningMap-common">
<rect x="102" y="252" width="16" height="17" />
<rect x="113" y="252" width="17" height="17" />
<rect x="125" y="252" width="17" height="18" />
<rect x="137" y="252" width="18" height="18" />
<rect x="130" y="228" width="14" height="13" />
<rect x="130" y="237" width="13" height="15" />
<rect x="137" y="240" width="17" height="17" />
<rect x="150" y="240" width="17" height="17" />
<rect x="125" y="203" width="17" height="17" />
<rect x="162" y="204" width="17" height="17" />
<rect x="137" y="190" width="18" height="18" />
<rect x="150" y="176" width="17" height="19" />
<rect x="223" y="115" width="18" height="18" />
<rect x="223" y="127" width="18" height="18" />
<rect x="223" y="140" width="18" height="18" />
<rect x="223" y="153" width="18" height="18" />
<rect x="236" y="115" width="19" height="18" />
<rect x="250" y="115" width="19" height="18" />
<rect x="236" y="127" width="19" height="18" />
<rect x="236" y="140" width="19" height="18" />
<rect x="250" y="127" width="19" height="18" />
<rect x="250" y="140" width="19" height="18" />
<rect x="236" y="153" width="19" height="18" />
<rect x="250" y="153" width="19" height="18" />
</g>
</g>
<g class="spawning-map-point" opacity="0.8">
<g class="spawningMap-very-common">
<circle cx="237" cy="145" r="4" />
<circle cx="234" cy="144" r="4" />
<circle cx="235" cy="145" r="4" />
<circle cx="233" cy="145" r="4" />
<circle cx="237" cy="143" r="4" />
<circle cx="235" cy="144" r="4" />
<circle cx="235" cy="143" r="4" />
<circle cx="236" cy="142" r="4" />
<circle cx="239" cy="144" r="4" />
<circle cx="236" cy="145" r="4" />
<circle cx="235" cy="143" r="4" />
<circle cx="235" cy="143" r="4" />
<circle cx="235" cy="142" r="4" />
<circle cx="236" cy="142" r="4" />
<circle cx="237" cy="142" r="4" />
<circle cx="237" cy="143" r="4" />
<circle cx="236" cy="144" r="4" />
</g>
</g>
<g fill="url(#pattern-untameable)" opacity="0.3">
<rect x="137" y="265" width="18" height="18"/>
<rect x="102" y="240" width="16" height="17"/>
<rect x="125" y="265" width="17" height="18"/>
<rect x="113" y="264" width="17" height="17"/>
<rect x="102" y="228" width="16" height="17"/>
<rect x="204" y="178" width="18" height="17"/>
<rect x="217" y="178" width="19" height="17"/>
<rect x="125" y="215" width="17" height="17"/>
<rect x="125" y="190" width="17" height="18"/>
<rect x="113" y="190" width="17" height="18"/>
<rect x="209" y="127" width="19" height="18"/>
<rect x="209" y="140" width="19" height="18"/>
<rect x="223" y="165" width="18" height="18"/>
<rect x="209" y="102" width="19" height="18"/>
<rect x="209" y="115" width="19" height="18"/>
<rect x="223" y="102" width="18" height="18"/>
<rect x="236" y="102" width="19" height="18"/>
<rect x="250" y="102" width="19" height="18"/>
<rect x="236" y="165" width="19" height="18"/>
<rect x="250" y="165" width="19" height="18"/>
<rect x="102" y="252" width="16" height="17"/>
<rect x="113" y="252" width="17" height="17"/>
<rect x="125" y="252" width="17" height="18"/>
<rect x="137" y="252" width="18" height="18"/>
<rect x="130" y="228" width="14" height="13"/>
<rect x="130" y="237" width="13" height="15"/>
<rect x="137" y="240" width="17" height="17"/>
<rect x="150" y="240" width="17" height="17"/>
<rect x="125" y="203" width="17" height="17"/>
<rect x="162" y="204" width="17" height="17"/>
<rect x="137" y="190" width="18" height="18"/>
<rect x="150" y="176" width="17" height="19"/>
<rect x="223" y="115" width="18" height="18"/>
<rect x="223" y="127" width="18" height="18"/>
<rect x="223" y="140" width="18" height="18"/>
<rect x="223" y="153" width="18" height="18"/>
<rect x="236" y="115" width="19" height="18"/>
<rect x="250" y="115" width="19" height="18"/>
<rect x="236" y="127" width="19" height="18"/>
<rect x="236" y="140" width="19" height="18"/>
<rect x="250" y="127" width="19" height="18"/>
<rect x="250" y="140" width="19" height="18"/>
<rect x="236" y="153" width="19" height="18"/>
<rect x="250" y="153" width="19" height="18"/>
</g>
</svg>