<?xml version="1.0" encoding="utf-8"?>
<svg xmlns="http://www.w3.org/2000/svg" width="300" height="300"
        viewBox="0 0 300 300" class="creatureMap" style="position:absolute;">
    <defs>
        <filter id="blur" x="-30%" y="-30%" width="160%" height="160%">
            <feGaussianBlur stdDeviation="3" />
        </filter>
        <pattern id="pattern-untameable" width="10" height="10" patternTransform="rotate(135)" patternUnits="userSpaceOnUse">
            <rect width="4" height="10" fill="black"></rect>
        </pattern>
        <filter id="groupStroke">
            <feFlood result="outsideColor" flood-color="black"/>
            <feMorphology in="SourceAlpha" operator="dilate" radius="2"/>
            <feComposite result="strokeoutline1" in="outsideColor" operator="in"/>
            <feComposite result="strokeoutline2" in="strokeoutline1" in2="SourceAlpha" operator="out"/>
            <feGaussianBlur in="strokeoutline2" result="strokeblur" stdDeviation="1"/>
        </filter>
        <style>
            .spawningMap-very-common { fill: #0F0; }
            .spawningMap-common { fill: #B2FF00; }
            .spawningMap-uncommon { fill: #FF0; }
            .spawningMap-very-uncommon { fill: #FC0; }
            .spawningMap-rare { fill: #F60; }
            .spawningMap-very-rare { fill: #F00; }
            .spawning-map-point { stroke:black; stroke-width:1; }
        </style>
    </defs>

<g filter="url(#blur)" opacity="0.7">
<g class="spawningMap-very-rare">
<rect x="155" y="219" width="16" height="21" />
<rect x="252" y="243" width="16" height="21" />
<rect x="261" y="220" width="16" height="13" />
<rect x="198" y="153" width="16" height="21" />
<rect x="214" y="253" width="16" height="21" />
<rect x="241" y="205" width="12" height="15" />
<rect x="210" y="240" width="16" height="16" />
<rect x="217" y="174" width="16" height="21" />
<rect x="235" y="158" width="16" height="21" />
<rect x="166" y="175" width="16" height="21" />
<rect x="194" y="170" width="16" height="21" />
<rect x="189" y="244" width="15" height="14" />
<rect x="252" y="196" width="12" height="15" />
<rect x="173" y="151" width="17" height="21" />
<rect x="116" y="37" width="17" height="21" />
<rect x="112" y="103" width="16" height="21" />
<rect x="81" y="28" width="17" height="21" />
<rect x="86" y="71" width="16" height="21" />
<rect x="38" y="127" width="17" height="21" />
<rect x="73" y="82" width="16" height="21" />
<rect x="118" y="70" width="16" height="21" />
<rect x="48" y="60" width="16" height="21" />
<rect x="44" y="110" width="16" height="21" />
<rect x="111" y="87" width="16" height="21" />
<rect x="31" y="88" width="16" height="21" />
<rect x="93" y="129" width="17" height="21" />
<rect x="67" y="32" width="16" height="21" />
<rect x="137" y="103" width="17" height="21" />
<rect x="155" y="24" width="16" height="21" />
<rect x="255" y="128" width="16" height="21" />
<rect x="229" y="100" width="16" height="21" />
<rect x="197" y="102" width="16" height="21" />
<rect x="219" y="119" width="17" height="18" />
<rect x="222" y="132" width="16" height="18" />
<rect x="157" y="80" width="17" height="21" />
<rect x="154" y="131" width="16" height="19" />
<rect x="173" y="78" width="16" height="21" />
<rect x="211" y="69" width="16" height="21" />
<rect x="138" y="179" width="16" height="21" />
<rect x="122" y="243" width="16" height="21" />
<rect x="103" y="206" width="16" height="21" />
<rect x="89" y="238" width="16" height="21" />
<rect x="88" y="194" width="16" height="22" />
<rect x="42" y="202" width="16" height="21" />
<rect x="114" y="160" width="16" height="21" />
<rect x="38" y="170" width="16" height="21" />
<rect x="62" y="165" width="16" height="21" />
<rect x="27" y="165" width="16" height="21" />
<rect x="34" y="256" width="16" height="21" />
<rect x="33" y="243" width="16" height="17" />
<rect x="99" y="189" width="16" height="21" />
<rect x="86" y="157" width="17" height="21" />
</g>
</g>
</svg>