<?xml version="1.0" encoding="utf-8"?>
<svg xmlns="http://www.w3.org/2000/svg" width="300" height="300"
        viewBox="0 0 300 300" class="creatureMap" style="position:absolute;">
    <defs>
        <filter id="blur" x="-30%" y="-30%" width="160%" height="160%">
            <feGaussianBlur stdDeviation="3" />
        </filter>
        <pattern id="pattern-untameable" width="10" height="10" patternTransform="rotate(135)" patternUnits="userSpaceOnUse">
            <rect width="4" height="10" fill="black"></rect>
        </pattern>
        <filter id="groupStroke">
            <feFlood result="outsideColor" flood-color="black"/>
            <feMorphology in="SourceAlpha" operator="dilate" radius="2"/>
            <feComposite result="strokeoutline1" in="outsideColor" operator="in"/>
            <feComposite result="strokeoutline2" in="strokeoutline1" in2="SourceAlpha" operator="out"/>
            <feGaussianBlur in="strokeoutline2" result="strokeblur" stdDeviation="1"/>
        </filter>
        <style>
            .spawningMap-very-common { fill: #0F0; }
            .spawningMap-common { fill: #B2FF00; }
            .spawningMap-uncommon { fill: #FF0; }
            .spawningMap-very-uncommon { fill: #FC0; }
            .spawningMap-rare { fill: #F60; }
            .spawningMap-very-rare { fill: #F00; }
            .spawning-map-point { stroke:black; stroke-width:1; }
        </style>
    </defs>

<g filter="url(#blur)" opacity="0.7">
<g class="spawningMap-very-uncommon">
<rect x="137" y="265" width="18" height="18" />
<rect x="101" y="58" width="17" height="18" />
</g>
<g class="spawningMap-uncommon">
<rect x="44" y="20" width="19" height="18" />
<rect x="113" y="71" width="17" height="17" />
<rect x="137" y="83" width="18" height="18" />
<rect x="125" y="215" width="17" height="17" />
<rect x="125" y="190" width="17" height="18" />
<rect x="137" y="190" width="18" height="18" />
<rect x="150" y="176" width="17" height="19" />
<rect x="113" y="44" width="17" height="19" />
<rect x="113" y="58" width="17" height="18" />
<rect x="113" y="190" width="17" height="18" />
</g>
<g class="spawningMap-common">
<rect x="58" y="33" width="19" height="18" />
<rect x="101" y="71" width="17" height="17" />
<rect x="113" y="83" width="17" height="18" />
<rect x="125" y="71" width="17" height="18" />
<rect x="137" y="71" width="18" height="18" />
<rect x="151" y="58" width="17" height="18" />
<rect x="178" y="44" width="18" height="18" />
<rect x="114" y="18" width="17" height="18" />
<rect x="178" y="58" width="18" height="18" />
<rect x="130" y="228" width="14" height="13" />
<rect x="130" y="237" width="13" height="15" />
<rect x="125" y="203" width="17" height="17" />
<rect x="162" y="204" width="17" height="17" />
<rect x="141" y="18" width="18" height="18" />
<rect x="128" y="32" width="17" height="18" />
<rect x="72" y="20" width="19" height="18" />
<rect x="141" y="32" width="18" height="18" />
<rect x="86" y="33" width="19" height="18" />
<rect x="100" y="18" width="18" height="18" />
<rect x="31" y="47" width="18" height="17" />
<rect x="114" y="31" width="18" height="19" />
<rect x="101" y="44" width="17" height="19" />
<rect x="125" y="44" width="17" height="19" />
<rect x="137" y="44" width="18" height="19" />
<rect x="137" y="58" width="18" height="18" />
<rect x="128" y="18" width="17" height="18" />
<rect x="155" y="32" width="17" height="18" />
<rect x="168" y="32" width="18" height="18" />
<rect x="155" y="19" width="17" height="19" />
<rect x="168" y="19" width="18" height="19" />
<rect x="151" y="45" width="17" height="18" />
<rect x="164" y="45" width="18" height="18" />
<rect x="164" y="58" width="18" height="18" />
</g>
<g class="spawningMap-very-common">
<rect x="152" y="92" width="10" height="10" />
<rect x="147" y="92" width="10" height="10" />
<rect x="151" y="97" width="10" height="10" />
<rect x="146" y="98" width="11" height="11" />
<rect x="113" y="96" width="17" height="17" />
<rect x="138" y="122" width="17" height="18" />
<rect x="126" y="122" width="17" height="18" />
<rect x="126" y="96" width="17" height="17" />
<rect x="126" y="108" width="17" height="18" />
<rect x="138" y="96" width="16" height="17" />
<rect x="138" y="108" width="16" height="18" />
<rect x="175" y="83" width="19" height="18" />
<rect x="189" y="71" width="19" height="17" />
<rect x="189" y="83" width="19" height="18" />
<rect x="31" y="20" width="18" height="18" />
<rect x="31" y="33" width="18" height="18" />
<rect x="175" y="71" width="19" height="17" />
<rect x="150" y="96" width="17" height="17" />
<rect x="150" y="108" width="17" height="18" />
<rect x="162" y="96" width="17" height="17" />
<rect x="162" y="108" width="17" height="18" />
<rect x="117" y="181" width="6" height="6" />
<rect x="127" y="169" width="7" height="6" />
</g>
</g>
<g fill="url(#pattern-untameable)" opacity="0.3">
<rect x="152" y="92" width="10" height="10"/>
<rect x="147" y="92" width="10" height="10"/>
<rect x="151" y="97" width="10" height="10"/>
<rect x="146" y="98" width="11" height="11"/>
</g>
<g filter="url(#groupStroke)" opacity="0.8">
<rect x="152" y="92" width="10" height="10"/>
<rect x="147" y="92" width="10" height="10"/>
<rect x="151" y="97" width="10" height="10"/>
<rect x="146" y="98" width="11" height="11"/>
</g>
</svg>