<?xml version="1.0" encoding="utf-8"?>
<svg xmlns="http://www.w3.org/2000/svg" width="300" height="300"
        viewBox="0 0 300 300" class="creatureMap" style="position:absolute;">
    <defs>
        <filter id="blur" x="-30%" y="-30%" width="160%" height="160%">
            <feGaussianBlur stdDeviation="3" />
        </filter>
        <pattern id="pattern-untameable" width="10" height="10" patternTransform="rotate(135)" patternUnits="userSpaceOnUse">
            <rect width="4" height="10" fill="black"></rect>
        </pattern>
        <filter id="groupStroke">
            <feFlood result="outsideColor" flood-color="black"/>
            <feMorphology in="SourceAlpha" operator="dilate" radius="2"/>
            <feComposite result="strokeoutline1" in="outsideColor" operator="in"/>
            <feComposite result="strokeoutline2" in="strokeoutline1" in2="SourceAlpha" operator="out"/>
            <feGaussianBlur in="strokeoutline2" result="strokeblur" stdDeviation="1"/>
        </filter>
        <style>
            .spawningMap-very-common { fill: #0F0; }
            .spawningMap-common { fill: #B2FF00; }
            .spawningMap-uncommon { fill: #FF0; }
            .spawningMap-very-uncommon { fill: #FC0; }
            .spawningMap-rare { fill: #F60; }
            .spawningMap-very-rare { fill: #F00; }
            .spawning-map-point { stroke:black; stroke-width:1; }
        </style>
    </defs>

<g class="spawning-map-point" opacity="0.8">
<g class="spawningMap-very-uncommon">
<circle cx="54" cy="90" r="4" />
<circle cx="62" cy="90" r="4" />
<circle cx="57" cy="94" r="4" />
<circle cx="67" cy="80" r="4" />
<circle cx="54" cy="76" r="4" />
<circle cx="71" cy="75" r="4" />
<circle cx="75" cy="81" r="4" />
<circle cx="71" cy="91" r="4" />
<circle cx="66" cy="85" r="4" />
<circle cx="48" cy="88" r="4" />
<circle cx="59" cy="102" r="4" />
<circle cx="62" cy="101" r="4" />
<circle cx="56" cy="100" r="4" />
<circle cx="48" cy="106" r="4" />
<circle cx="50" cy="106" r="4" />
<circle cx="59" cy="98" r="4" />
<circle cx="63" cy="99" r="4" />
<circle cx="49" cy="99" r="4" />
<circle cx="228" cy="198" r="4" />
<circle cx="228" cy="197" r="4" />
<circle cx="211" cy="197" r="4" />
<circle cx="211" cy="197" r="4" />
<circle cx="95" cy="76" r="4" />
<circle cx="88" cy="79" r="4" />
<circle cx="94" cy="80" r="4" />
<circle cx="93" cy="85" r="4" />
<circle cx="98" cy="79" r="4" />
<circle cx="97" cy="90" r="4" />
<circle cx="89" cy="95" r="4" />
<circle cx="80" cy="87" r="4" />
<circle cx="77" cy="93" r="4" />
<circle cx="80" cy="80" r="4" />
<circle cx="31" cy="106" r="4" />
<circle cx="31" cy="100" r="4" />
<circle cx="42" cy="106" r="4" />
<circle cx="35" cy="87" r="4" />
<circle cx="42" cy="90" r="4" />
<circle cx="47" cy="87" r="4" />
<circle cx="32" cy="89" r="4" />
<circle cx="45" cy="102" r="4" />
<circle cx="46" cy="97" r="4" />
<circle cx="46" cy="82" r="4" />
</g>
</g>
</svg>