<?xml version="1.0" encoding="utf-8"?>
<svg xmlns="http://www.w3.org/2000/svg" width="300" height="300"
        viewBox="0 0 300 300" class="creatureMap" style="position:absolute;">
    <defs>
        <filter id="blur" x="-30%" y="-30%" width="160%" height="160%">
            <feGaussianBlur stdDeviation="3" />
        </filter>
        <pattern id="pattern-untameable" width="10" height="10" patternTransform="rotate(135)" patternUnits="userSpaceOnUse">
            <rect width="4" height="10" fill="black"></rect>
        </pattern>
        <filter id="groupStroke">
            <feFlood result="outsideColor" flood-color="black"/>
            <feMorphology in="SourceAlpha" operator="dilate" radius="2"/>
            <feComposite result="strokeoutline1" in="outsideColor" operator="in"/>
            <feComposite result="strokeoutline2" in="strokeoutline1" in2="SourceAlpha" operator="out"/>
            <feGaussianBlur in="strokeoutline2" result="strokeblur" stdDeviation="1"/>
        </filter>
        <style>
            .spawningMap-very-common { fill: #0F0; }
            .spawningMap-common { fill: #B2FF00; }
            .spawningMap-uncommon { fill: #FF0; }
            .spawningMap-very-uncommon { fill: #FC0; }
            .spawningMap-rare { fill: #F60; }
            .spawningMap-very-rare { fill: #F00; }
            .spawning-map-point { stroke:black; stroke-width:1; }
        </style>
    </defs>

<g filter="url(#blur)" opacity="0.7">
<g class="spawningMap-very-rare">
<rect x="31" y="190" width="18" height="18" />
<rect x="31" y="176" width="18" height="19" />
<rect x="26" y="253" width="24" height="23" />
</g>
<g class="spawningMap-uncommon">
<rect x="45" y="20" width="18" height="18" />
<rect x="58" y="20" width="19" height="18" />
<rect x="45" y="7" width="18" height="18" />
<rect x="58" y="7" width="19" height="18" />
<rect x="45" y="253" width="19" height="23" />
<rect x="59" y="253" width="20" height="23" />
<rect x="72" y="7" width="19" height="18" />
<rect x="86" y="7" width="19" height="18" />
<rect x="100" y="5" width="18" height="18" />
<rect x="114" y="5" width="18" height="18" />
</g>
<g class="spawningMap-common">
<rect x="259" y="60" width="18" height="19" />
<rect x="259" y="47" width="18" height="18" />
<rect x="245" y="20" width="19" height="19" />
<rect x="245" y="34" width="19" height="18" />
<rect x="259" y="20" width="18" height="19" />
<rect x="259" y="34" width="18" height="18" />
<rect x="17" y="95" width="19" height="19" />
<rect x="17" y="109" width="19" height="18" />
<rect x="31" y="95" width="18" height="19" />
<rect x="31" y="109" width="18" height="18" />
<rect x="204" y="20" width="18" height="19" />
<rect x="204" y="34" width="18" height="18" />
<rect x="218" y="20" width="18" height="19" />
<rect x="72" y="20" width="19" height="18" />
<rect x="86" y="20" width="19" height="18" />
<rect x="114" y="18" width="18" height="18" />
<rect x="231" y="20" width="19" height="19" />
<rect x="17" y="148" width="19" height="19" />
<rect x="17" y="162" width="19" height="19" />
<rect x="31" y="148" width="18" height="19" />
<rect x="31" y="162" width="18" height="19" />
<rect x="74" y="253" width="19" height="23" />
<rect x="88" y="253" width="19" height="23" />
<rect x="234" y="79" width="6" height="6" />
</g>
<g class="spawningMap-very-common">
<rect x="232" y="71" width="18" height="17" />
<rect x="232" y="83" width="18" height="17" />
<rect x="245" y="71" width="19" height="17" />
<rect x="245" y="83" width="19" height="17" />
<rect x="245" y="59" width="19" height="17" />
<rect x="203" y="96" width="19" height="17" />
<rect x="203" y="108" width="19" height="17" />
<rect x="217" y="96" width="19" height="17" />
<rect x="217" y="108" width="19" height="17" />
<rect x="17" y="47" width="19" height="17" />
<rect x="17" y="59" width="19" height="17" />
<rect x="31" y="47" width="18" height="17" />
<rect x="31" y="59" width="18" height="17" />
<rect x="137" y="265" width="18" height="18" />
<rect x="17" y="71" width="19" height="17" />
<rect x="17" y="83" width="19" height="17" />
<rect x="31" y="71" width="18" height="17" />
<rect x="31" y="83" width="18" height="17" />
<rect x="17" y="229" width="19" height="17" />
<rect x="17" y="240" width="19" height="17" />
<rect x="17" y="20" width="19" height="18" />
<rect x="17" y="33" width="19" height="18" />
<rect x="31" y="20" width="18" height="18" />
<rect x="17" y="7" width="19" height="18" />
<rect x="31" y="7" width="18" height="18" />
<rect x="17" y="216" width="19" height="17" />
<rect x="100" y="18" width="18" height="18" />
<rect x="31" y="203" width="18" height="18" />
<rect x="31" y="216" width="18" height="17" />
<rect x="17" y="203" width="19" height="18" />
<rect x="17" y="190" width="19" height="18" />
<rect x="17" y="176" width="19" height="19" />
<rect x="17" y="123" width="19" height="17" />
<rect x="17" y="135" width="19" height="17" />
<rect x="31" y="123" width="18" height="17" />
<rect x="31" y="135" width="18" height="17" />
<rect x="247" y="56" width="8" height="9" />
<rect x="248" y="66" width="8" height="8" />
<rect x="209" y="55" width="8" height="8" />
<rect x="204" y="59" width="8" height="8" />
<rect x="204" y="63" width="8" height="8" />
<rect x="216" y="54" width="8" height="8" />
<rect x="221" y="47" width="8" height="8" />
<rect x="219" y="58" width="8" height="8" />
<rect x="226" y="55" width="8" height="8" />
<rect x="226" y="53" width="8" height="8" />
<rect x="224" y="59" width="8" height="8" />
<rect x="226" y="62" width="8" height="8" />
<rect x="231" y="58" width="8" height="8" />
<rect x="234" y="54" width="8" height="8" />
<rect x="235" y="48" width="8" height="8" />
<rect x="239" y="47" width="8" height="8" />
<rect x="236" y="55" width="8" height="9" />
<rect x="251" y="49" width="9" height="10" />
</g>
</g>
<g class="spawning-map-point" opacity="0.8">
<g class="spawningMap-very-uncommon">
<circle cx="35" cy="99" r="4" />
<circle cx="33" cy="105" r="4" />
<circle cx="35" cy="102" r="4" />
<circle cx="36" cy="100" r="4" />
<circle cx="35" cy="97" r="4" />
<circle cx="38" cy="94" r="4" />
<circle cx="34" cy="105" r="4" />
<circle cx="34" cy="103" r="4" />
<circle cx="48" cy="107" r="4" />
<circle cx="48" cy="103" r="4" />
<circle cx="46" cy="100" r="4" />
<circle cx="48" cy="97" r="4" />
<circle cx="48" cy="98" r="4" />
<circle cx="50" cy="97" r="4" />
<circle cx="51" cy="95" r="4" />
<circle cx="37" cy="90" r="4" />
<circle cx="63" cy="85" r="4" />
<circle cx="60" cy="89" r="4" />
<circle cx="73" cy="88" r="4" />
<circle cx="54" cy="90" r="4" />
<circle cx="79" cy="87" r="4" />
<circle cx="78" cy="87" r="4" />
<circle cx="76" cy="87" r="4" />
<circle cx="71" cy="86" r="4" />
<circle cx="71" cy="89" r="4" />
<circle cx="65" cy="85" r="4" />
<circle cx="67" cy="87" r="4" />
<circle cx="65" cy="88" r="4" />
<circle cx="62" cy="85" r="4" />
<circle cx="61" cy="87" r="4" />
<circle cx="59" cy="90" r="4" />
<circle cx="57" cy="90" r="4" />
<circle cx="125" cy="65" r="4" />
<circle cx="119" cy="46" r="4" />
<circle cx="119" cy="48" r="4" />
<circle cx="116" cy="51" r="4" />
<circle cx="117" cy="52" r="4" />
<circle cx="120" cy="53" r="4" />
<circle cx="122" cy="56" r="4" />
<circle cx="124" cy="54" r="4" />
<circle cx="128" cy="52" r="4" />
<circle cx="126" cy="56" r="4" />
<circle cx="130" cy="55" r="4" />
<circle cx="129" cy="58" r="4" />
<circle cx="131" cy="63" r="4" />
<circle cx="126" cy="57" r="4" />
<circle cx="131" cy="66" r="4" />
<circle cx="129" cy="65" r="4" />
<circle cx="129" cy="63" r="4" />
<circle cx="130" cy="61" r="4" />
<circle cx="134" cy="63" r="4" />
<circle cx="138" cy="63" r="4" />
<circle cx="139" cy="62" r="4" />
<circle cx="142" cy="61" r="4" />
<circle cx="143" cy="62" r="4" />
<circle cx="141" cy="66" r="4" />
<circle cx="140" cy="65" r="4" />
<circle cx="139" cy="67" r="4" />
<circle cx="136" cy="65" r="4" />
<circle cx="132" cy="63" r="4" />
<circle cx="140" cy="72" r="4" />
<circle cx="141" cy="73" r="4" />
<circle cx="138" cy="76" r="4" />
<circle cx="138" cy="78" r="4" />
<circle cx="138" cy="72" r="4" />
<circle cx="142" cy="80" r="4" />
<circle cx="125" cy="65" r="4" />
<circle cx="121" cy="65" r="4" />
<circle cx="121" cy="64" r="4" />
<circle cx="121" cy="63" r="4" />
<circle cx="125" cy="62" r="4" />
<circle cx="159" cy="81" r="4" />
<circle cx="144" cy="70" r="4" />
<circle cx="146" cy="71" r="4" />
<circle cx="145" cy="73" r="4" />
<circle cx="145" cy="77" r="4" />
<circle cx="146" cy="79" r="4" />
<circle cx="144" cy="80" r="4" />
<circle cx="145" cy="81" r="4" />
<circle cx="149" cy="84" r="4" />
<circle cx="150" cy="84" r="4" />
<circle cx="151" cy="85" r="4" />
<circle cx="152" cy="86" r="4" />
<circle cx="155" cy="85" r="4" />
<circle cx="156" cy="83" r="4" />
<circle cx="156" cy="81" r="4" />
<circle cx="157" cy="80" r="4" />
<circle cx="161" cy="81" r="4" />
<circle cx="161" cy="83" r="4" />
<circle cx="164" cy="84" r="4" />
<circle cx="165" cy="86" r="4" />
<circle cx="165" cy="87" r="4" />
<circle cx="166" cy="87" r="4" />
<circle cx="166" cy="87" r="4" />
<circle cx="167" cy="87" r="4" />
<circle cx="167" cy="85" r="4" />
<circle cx="167" cy="83" r="4" />
<circle cx="166" cy="81" r="4" />
<circle cx="165" cy="79" r="4" />
<circle cx="165" cy="78" r="4" />
<circle cx="164" cy="76" r="4" />
<circle cx="164" cy="74" r="4" />
<circle cx="166" cy="74" r="4" />
<circle cx="131" cy="95" r="4" />
<circle cx="138" cy="82" r="4" />
<circle cx="139" cy="84" r="4" />
<circle cx="139" cy="86" r="4" />
<circle cx="140" cy="89" r="4" />
<circle cx="137" cy="89" r="4" />
<circle cx="136" cy="87" r="4" />
<circle cx="135" cy="87" r="4" />
<circle cx="133" cy="88" r="4" />
<circle cx="133" cy="91" r="4" />
<circle cx="131" cy="87" r="4" />
<circle cx="130" cy="88" r="4" />
<circle cx="128" cy="90" r="4" />
<circle cx="133" cy="95" r="4" />
<circle cx="133" cy="94" r="4" />
<circle cx="133" cy="93" r="4" />
</g>
</g>
</svg>