<?xml version="1.0" encoding="utf-8"?>
<svg xmlns="http://www.w3.org/2000/svg" width="300" height="300"
        viewBox="0 0 300 300" class="creatureMap" style="position:absolute;">
    <defs>
        <filter id="blur" x="-30%" y="-30%" width="160%" height="160%">
            <feGaussianBlur stdDeviation="3" />
        </filter>
        <pattern id="pattern-untameable" width="10" height="10" patternTransform="rotate(135)" patternUnits="userSpaceOnUse">
            <rect width="4" height="10" fill="black"></rect>
        </pattern>
        <filter id="groupStroke">
            <feFlood result="outsideColor" flood-color="black"/>
            <feMorphology in="SourceAlpha" operator="dilate" radius="2"/>
            <feComposite result="strokeoutline1" in="outsideColor" operator="in"/>
            <feComposite result="strokeoutline2" in="strokeoutline1" in2="SourceAlpha" operator="out"/>
            <feGaussianBlur in="strokeoutline2" result="strokeblur" stdDeviation="1"/>
        </filter>
        <style>
            .spawningMap-very-common { fill: #0F0; }
            .spawningMap-common { fill: #B2FF00; }
            .spawningMap-uncommon { fill: #FF0; }
            .spawningMap-very-uncommon { fill: #FC0; }
            .spawningMap-rare { fill: #F60; }
            .spawningMap-very-rare { fill: #F00; }
            .spawning-map-point { stroke:black; stroke-width:1; }
        </style>
    </defs>

<g filter="url(#blur)" opacity="0.7">
<g class="spawningMap-very-rare">
<rect x="31" y="190" width="18" height="18" />
<rect x="31" y="176" width="18" height="19" />
<rect x="26" y="253" width="24" height="23" />
</g>
<g class="spawningMap-rare">
<rect x="45" y="20" width="18" height="18" />
<rect x="58" y="20" width="19" height="18" />
<rect x="45" y="7" width="18" height="18" />
<rect x="58" y="7" width="19" height="18" />
<rect x="45" y="253" width="19" height="23" />
<rect x="59" y="253" width="20" height="23" />
<rect x="72" y="7" width="19" height="18" />
<rect x="86" y="7" width="19" height="18" />
<rect x="100" y="5" width="18" height="18" />
<rect x="114" y="5" width="18" height="18" />
</g>
<g class="spawningMap-very-uncommon">
<rect x="232" y="71" width="18" height="17" />
<rect x="232" y="83" width="18" height="17" />
<rect x="245" y="71" width="19" height="17" />
<rect x="245" y="83" width="19" height="17" />
<rect x="245" y="59" width="19" height="17" />
<rect x="17" y="47" width="19" height="17" />
<rect x="17" y="59" width="19" height="17" />
<rect x="31" y="47" width="18" height="17" />
<rect x="31" y="59" width="18" height="17" />
<rect x="259" y="60" width="18" height="19" />
<rect x="259" y="47" width="18" height="18" />
<rect x="245" y="20" width="19" height="19" />
<rect x="245" y="34" width="19" height="18" />
<rect x="259" y="20" width="18" height="19" />
<rect x="259" y="34" width="18" height="18" />
<rect x="137" y="265" width="18" height="18" />
<rect x="17" y="71" width="19" height="17" />
<rect x="17" y="83" width="19" height="17" />
<rect x="31" y="71" width="18" height="17" />
<rect x="31" y="83" width="18" height="17" />
<rect x="17" y="95" width="19" height="19" />
<rect x="17" y="109" width="19" height="18" />
<rect x="31" y="95" width="18" height="19" />
<rect x="31" y="109" width="18" height="18" />
<rect x="17" y="20" width="19" height="18" />
<rect x="17" y="33" width="19" height="18" />
<rect x="31" y="20" width="18" height="18" />
<rect x="17" y="7" width="19" height="18" />
<rect x="31" y="7" width="18" height="18" />
<rect x="204" y="20" width="18" height="19" />
<rect x="204" y="34" width="18" height="18" />
<rect x="218" y="20" width="18" height="19" />
<rect x="72" y="20" width="19" height="18" />
<rect x="86" y="20" width="19" height="18" />
<rect x="100" y="18" width="18" height="18" />
<rect x="114" y="18" width="18" height="18" />
<rect x="17" y="190" width="19" height="18" />
<rect x="231" y="20" width="19" height="19" />
<rect x="17" y="176" width="19" height="19" />
<rect x="17" y="148" width="19" height="19" />
<rect x="17" y="162" width="19" height="19" />
<rect x="31" y="148" width="18" height="19" />
<rect x="31" y="162" width="18" height="19" />
<rect x="17" y="123" width="19" height="17" />
<rect x="17" y="135" width="19" height="17" />
<rect x="31" y="123" width="18" height="17" />
<rect x="31" y="135" width="18" height="17" />
<rect x="74" y="253" width="19" height="23" />
<rect x="88" y="253" width="19" height="23" />
</g>
<g class="spawningMap-uncommon">
<rect x="203" y="96" width="19" height="17" />
<rect x="203" y="108" width="19" height="17" />
<rect x="217" y="96" width="19" height="17" />
<rect x="217" y="108" width="19" height="17" />
<rect x="17" y="229" width="19" height="17" />
<rect x="17" y="240" width="19" height="17" />
<rect x="17" y="216" width="19" height="17" />
<rect x="31" y="203" width="18" height="18" />
<rect x="31" y="216" width="18" height="17" />
<rect x="17" y="203" width="19" height="18" />
</g>
</g>
</svg>