<?xml version="1.0" encoding="utf-8"?>
<svg xmlns="http://www.w3.org/2000/svg" width="300" height="300"
        viewBox="0 0 300 300" class="creatureMap" style="position:absolute;">
    <defs>
        <filter id="blur" x="-30%" y="-30%" width="160%" height="160%">
            <feGaussianBlur stdDeviation="3" />
        </filter>
        <pattern id="pattern-untameable" width="10" height="10" patternTransform="rotate(135)" patternUnits="userSpaceOnUse">
            <rect width="4" height="10" fill="black"></rect>
        </pattern>
        <filter id="groupStroke">
            <feFlood result="outsideColor" flood-color="black"/>
            <feMorphology in="SourceAlpha" operator="dilate" radius="2"/>
            <feComposite result="strokeoutline1" in="outsideColor" operator="in"/>
            <feComposite result="strokeoutline2" in="strokeoutline1" in2="SourceAlpha" operator="out"/>
            <feGaussianBlur in="strokeoutline2" result="strokeblur" stdDeviation="1"/>
        </filter>
        <style>
            .spawningMap-very-common { fill: #0F0; }
            .spawningMap-common { fill: #B2FF00; }
            .spawningMap-uncommon { fill: #FF0; }
            .spawningMap-very-uncommon { fill: #FC0; }
            .spawningMap-rare { fill: #F60; }
            .spawningMap-very-rare { fill: #F00; }
            .spawning-map-point { stroke:black; stroke-width:1; }
        </style>
    </defs>

<g filter="url(#blur)" opacity="0.7">
<g class="spawningMap-rare">
<rect x="44" y="33" width="19" height="18" />
<rect x="101" y="83" width="17" height="18" />
<rect x="125" y="83" width="17" height="18" />
<rect x="102" y="96" width="16" height="17" />
<rect x="137" y="176" width="18" height="19" />
<rect x="137" y="148" width="18" height="19" />
<rect x="137" y="162" width="18" height="19" />
<rect x="150" y="148" width="17" height="19" />
<rect x="150" y="162" width="17" height="19" />
<rect x="162" y="148" width="17" height="19" />
<rect x="138" y="134" width="17" height="18" />
<rect x="150" y="122" width="17" height="18" />
<rect x="162" y="122" width="17" height="18" />
<rect x="17" y="33" width="19" height="18" />
<rect x="72" y="33" width="19" height="18" />
<rect x="100" y="31" width="18" height="19" />
<rect x="125" y="58" width="17" height="18" />
<rect x="59" y="108" width="19" height="18" />
</g>
<g class="spawningMap-very-uncommon">
<rect x="102" y="264" width="16" height="17" />
</g>
<g class="spawningMap-uncommon">
<rect x="162" y="204" width="17" height="17" />
<rect x="137" y="190" width="18" height="18" />
<rect x="150" y="176" width="17" height="19" />
<rect x="189" y="189" width="19" height="18" />
<rect x="175" y="135" width="18" height="17" />
<rect x="189" y="122" width="19" height="18" />
<rect x="189" y="135" width="19" height="17" />
</g>
<g class="spawningMap-common">
<rect x="137" y="227" width="17" height="18" />
<rect x="150" y="228" width="17" height="17" />
<rect x="162" y="228" width="17" height="17" />
<rect x="150" y="204" width="17" height="17" />
<rect x="150" y="215" width="17" height="17" />
<rect x="125" y="176" width="17" height="19" />
<rect x="150" y="190" width="17" height="18" />
<rect x="162" y="190" width="17" height="18" />
<rect x="162" y="162" width="17" height="19" />
<rect x="162" y="135" width="17" height="17" />
<rect x="175" y="189" width="18" height="18" />
<rect x="189" y="177" width="19" height="17" />
<rect x="175" y="162" width="18" height="19" />
<rect x="189" y="148" width="19" height="19" />
<rect x="218" y="148" width="19" height="19" />
<rect x="102" y="215" width="16" height="18" />
<rect x="113" y="203" width="16" height="18" />
<rect x="113" y="215" width="16" height="18" />
<rect x="175" y="215" width="18" height="18" />
</g>
</g>
</svg>