<?xml version="1.0" encoding="utf-8"?>
<svg xmlns="http://www.w3.org/2000/svg" width="300" height="300"
        viewBox="0 0 300 300" class="creatureMap" style="position:absolute;">
    <defs>
        <filter id="blur" x="-30%" y="-30%" width="160%" height="160%">
            <feGaussianBlur stdDeviation="3" />
        </filter>
        <pattern id="pattern-untameable" width="10" height="10" patternTransform="rotate(135)" patternUnits="userSpaceOnUse">
            <rect width="4" height="10" fill="black"></rect>
        </pattern>
        <filter id="groupStroke">
            <feFlood result="outsideColor" flood-color="black"/>
            <feMorphology in="SourceAlpha" operator="dilate" radius="2"/>
            <feComposite result="strokeoutline1" in="outsideColor" operator="in"/>
            <feComposite result="strokeoutline2" in="strokeoutline1" in2="SourceAlpha" operator="out"/>
            <feGaussianBlur in="strokeoutline2" result="strokeblur" stdDeviation="1"/>
        </filter>
        <style>
            .spawningMap-very-common { fill: #0F0; }
            .spawningMap-common { fill: #B2FF00; }
            .spawningMap-uncommon { fill: #FF0; }
            .spawningMap-very-uncommon { fill: #FC0; }
            .spawningMap-rare { fill: #F60; }
            .spawningMap-very-rare { fill: #F00; }
            .spawning-map-point { stroke:black; stroke-width:1; }
        </style>
    </defs>

<g filter="url(#blur)" opacity="0.7">
<g class="spawningMap-rare">
<rect x="178" y="180" width="27" height="27" />
<rect x="174" y="153" width="38" height="11" />
<rect x="220" y="132" width="7" height="7" />
<rect x="225" y="138" width="7" height="7" />
<rect x="227" y="128" width="7" height="7" />
<rect x="214" y="126" width="7" height="7" />
<rect x="227" y="114" width="6" height="7" />
<rect x="221" y="136" width="7" height="7" />
<rect x="230" y="140" width="6" height="7" />
<rect x="229" y="128" width="9" height="12" />
<rect x="227" y="123" width="11" height="11" />
<rect x="166" y="131" width="47" height="15" />
</g>
<g class="spawningMap-very-uncommon">
<rect x="118" y="231" width="17" height="18" />
</g>
</g>
<g fill="url(#pattern-untameable)" opacity="0.3">
<rect x="118" y="231" width="17" height="18"/>
</g>
</svg>