<?xml version="1.0" encoding="utf-8"?>
<svg xmlns="http://www.w3.org/2000/svg" width="300" height="300"
        viewBox="0 0 300 300" class="creatureMap" style="position:absolute;">
    <defs>
        <filter id="blur" x="-30%" y="-30%" width="160%" height="160%">
            <feGaussianBlur stdDeviation="3" />
        </filter>
        <pattern id="pattern-untameable" width="10" height="10" patternTransform="rotate(135)" patternUnits="userSpaceOnUse">
            <rect width="4" height="10" fill="black"></rect>
        </pattern>
        <filter id="groupStroke">
            <feFlood result="outsideColor" flood-color="black"/>
            <feMorphology in="SourceAlpha" operator="dilate" radius="2"/>
            <feComposite result="strokeoutline1" in="outsideColor" operator="in"/>
            <feComposite result="strokeoutline2" in="strokeoutline1" in2="SourceAlpha" operator="out"/>
            <feGaussianBlur in="strokeoutline2" result="strokeblur" stdDeviation="1"/>
        </filter>
        <style>
            .spawningMap-very-common { fill: #0F0; }
            .spawningMap-common { fill: #B2FF00; }
            .spawningMap-uncommon { fill: #FF0; }
            .spawningMap-very-uncommon { fill: #FC0; }
            .spawningMap-rare { fill: #F60; }
            .spawningMap-very-rare { fill: #F00; }
            .spawning-map-point { stroke:black; stroke-width:1; }
        </style>
    </defs>

<g filter="url(#blur)" opacity="0.7">
<g class="spawningMap-very-uncommon">
<rect x="88" y="265" width="19" height="18" />
<rect x="17" y="252" width="19" height="18" />
<rect x="17" y="265" width="19" height="18" />
</g>
<g class="spawningMap-uncommon">
<rect x="86" y="20" width="19" height="18" />
<rect x="31" y="252" width="18" height="18" />
<rect x="31" y="265" width="18" height="18" />
</g>
<g class="spawningMap-common">
<rect x="45" y="108" width="19" height="18" />
<rect x="73" y="252" width="19" height="18" />
<rect x="73" y="265" width="19" height="18" />
<rect x="88" y="252" width="19" height="18" />
<rect x="59" y="265" width="18" height="18" />
<rect x="204" y="120" width="18" height="19" />
<rect x="31" y="215" width="18" height="17" />
<rect x="31" y="162" width="18" height="19" />
<rect x="74" y="228" width="18" height="17" />
<rect x="74" y="240" width="18" height="17" />
<rect x="88" y="228" width="18" height="17" />
<rect x="188" y="253" width="19" height="17" />
<rect x="113" y="122" width="17" height="17" />
<rect x="113" y="134" width="17" height="18" />
<rect x="74" y="108" width="18" height="18" />
<rect x="88" y="96" width="18" height="17" />
<rect x="88" y="108" width="18" height="18" />
<rect x="102" y="108" width="16" height="18" />
<rect x="113" y="108" width="17" height="18" />
<rect x="45" y="252" width="19" height="18" />
<rect x="45" y="265" width="19" height="18" />
<rect x="162" y="240" width="17" height="17" />
<rect x="17" y="227" width="19" height="18" />
<rect x="59" y="252" width="18" height="18" />
<rect x="162" y="176" width="17" height="19" />
<rect x="150" y="135" width="17" height="17" />
<rect x="204" y="120" width="18" height="19" />
<rect x="17" y="240" width="19" height="17" />
<rect x="175" y="177" width="18" height="17" />
<rect x="31" y="227" width="18" height="18" />
<rect x="204" y="162" width="19" height="19" />
<rect x="46" y="228" width="18" height="17" />
<rect x="175" y="122" width="18" height="18" />
<rect x="31" y="240" width="18" height="17" />
<rect x="46" y="240" width="18" height="17" />
<rect x="17" y="95" width="19" height="18" />
<rect x="59" y="228" width="19" height="17" />
<rect x="17" y="108" width="19" height="18" />
<rect x="31" y="95" width="18" height="18" />
<rect x="31" y="108" width="18" height="18" />
<rect x="17" y="20" width="19" height="18" />
<rect x="59" y="83" width="19" height="17" />
<rect x="59" y="240" width="19" height="17" />
<rect x="17" y="83" width="19" height="17" />
<rect x="31" y="71" width="18" height="17" />
<rect x="31" y="83" width="18" height="17" />
<rect x="17" y="47" width="19" height="17" />
<rect x="17" y="59" width="19" height="17" />
<rect x="31" y="59" width="18" height="17" />
<rect x="17" y="215" width="19" height="17" />
<rect x="31" y="203" width="18" height="17" />
<rect x="17" y="203" width="19" height="17" />
<rect x="46" y="204" width="18" height="17" />
<rect x="46" y="216" width="18" height="17" />
<rect x="59" y="204" width="19" height="17" />
<rect x="59" y="216" width="19" height="17" />
<rect x="17" y="176" width="19" height="19" />
<rect x="17" y="190" width="19" height="18" />
<rect x="31" y="176" width="18" height="19" />
<rect x="46" y="176" width="18" height="19" />
<rect x="46" y="190" width="18" height="18" />
<rect x="59" y="176" width="19" height="19" />
<rect x="59" y="190" width="19" height="18" />
<rect x="17" y="148" width="19" height="19" />
<rect x="175" y="241" width="18" height="17" />
<rect x="17" y="162" width="19" height="19" />
<rect x="31" y="148" width="18" height="19" />
<rect x="31" y="190" width="18" height="18" />
<rect x="45" y="162" width="18" height="19" />
<rect x="45" y="71" width="19" height="17" />
<rect x="45" y="95" width="19" height="18" />
<rect x="45" y="134" width="18" height="18" />
<rect x="45" y="83" width="19" height="17" />
<rect x="59" y="71" width="19" height="17" />
<rect x="17" y="71" width="19" height="17" />
<rect x="88" y="240" width="18" height="17" />
<rect x="59" y="95" width="19" height="18" />
<rect x="74" y="204" width="18" height="17" />
<rect x="74" y="216" width="18" height="17" />
<rect x="88" y="204" width="18" height="17" />
<rect x="74" y="190" width="18" height="18" />
<rect x="88" y="190" width="18" height="18" />
<rect x="102" y="190" width="16" height="18" />
<rect x="113" y="176" width="17" height="19" />
<rect x="113" y="162" width="17" height="19" />
<rect x="74" y="122" width="18" height="17" />
<rect x="88" y="122" width="18" height="17" />
<rect x="223" y="115" width="18" height="18" />
<rect x="223" y="127" width="18" height="18" />
<rect x="223" y="140" width="18" height="18" />
<rect x="223" y="153" width="18" height="18" />
<rect x="236" y="115" width="19" height="18" />
<rect x="250" y="115" width="19" height="18" />
<rect x="236" y="127" width="19" height="18" />
<rect x="236" y="140" width="19" height="18" />
<rect x="250" y="127" width="19" height="18" />
<rect x="250" y="140" width="19" height="18" />
<rect x="236" y="153" width="19" height="18" />
<rect x="250" y="153" width="19" height="18" />
</g>
<g class="spawningMap-very-common">
<rect x="189" y="162" width="19" height="19" />
<rect x="174" y="95" width="19" height="18" />
<rect x="174" y="108" width="19" height="19" />
<rect x="189" y="95" width="19" height="18" />
<rect x="189" y="108" width="19" height="19" />
<rect x="102" y="122" width="16" height="17" />
<rect x="74" y="96" width="18" height="17" />
<rect x="74" y="70" width="18" height="18" />
<rect x="74" y="83" width="18" height="17" />
<rect x="88" y="70" width="18" height="18" />
<rect x="88" y="83" width="18" height="17" />
<rect x="125" y="162" width="17" height="19" />
<rect x="126" y="134" width="17" height="18" />
<rect x="175" y="148" width="18" height="19" />
<rect x="209" y="127" width="19" height="18" />
<rect x="209" y="140" width="19" height="18" />
<rect x="223" y="165" width="18" height="18" />
<rect x="209" y="102" width="19" height="18" />
<rect x="209" y="115" width="19" height="18" />
<rect x="223" y="102" width="18" height="18" />
<rect x="236" y="102" width="19" height="18" />
<rect x="250" y="102" width="19" height="18" />
<rect x="236" y="165" width="19" height="18" />
<rect x="250" y="165" width="19" height="18" />
</g>
</g>
</svg>