<?xml version="1.0" encoding="utf-8"?>
<svg xmlns="http://www.w3.org/2000/svg" width="300" height="300"
        viewBox="0 0 300 300" class="creatureMap" style="position:absolute;">
    <defs>
        <filter id="blur" x="-30%" y="-30%" width="160%" height="160%">
            <feGaussianBlur stdDeviation="3" />
        </filter>
        <pattern id="pattern-untameable" width="10" height="10" patternTransform="rotate(135)" patternUnits="userSpaceOnUse">
            <rect width="4" height="10" fill="black"></rect>
        </pattern>
        <filter id="groupStroke">
            <feFlood result="outsideColor" flood-color="black"/>
            <feMorphology in="SourceAlpha" operator="dilate" radius="2"/>
            <feComposite result="strokeoutline1" in="outsideColor" operator="in"/>
            <feComposite result="strokeoutline2" in="strokeoutline1" in2="SourceAlpha" operator="out"/>
            <feGaussianBlur in="strokeoutline2" result="strokeblur" stdDeviation="1"/>
        </filter>
        <style>
            .spawningMap-very-common { fill: #0F0; }
            .spawningMap-common { fill: #B2FF00; }
            .spawningMap-uncommon { fill: #FF0; }
            .spawningMap-very-uncommon { fill: #FC0; }
            .spawningMap-rare { fill: #F60; }
            .spawningMap-very-rare { fill: #F00; }
            .spawning-map-point { stroke:black; stroke-width:1; }
        </style>
    </defs>

<g filter="url(#blur)" opacity="0.7">
<g class="spawningMap-very-common">
<rect x="130" y="228" width="14" height="13" />
<rect x="130" y="237" width="13" height="15" />
<rect x="125" y="215" width="17" height="17" />
<rect x="125" y="190" width="17" height="18" />
<rect x="113" y="190" width="17" height="18" />
</g>
</g>
<g class="spawning-map-point" opacity="0.8">
<g class="spawningMap-very-rare">
<circle cx="227" cy="199" r="4" />
<circle cx="228" cy="198" r="4" />
<circle cx="212" cy="195" r="4" />
<circle cx="227" cy="198" r="4" />
<circle cx="211" cy="196" r="4" />
<circle cx="211" cy="197" r="4" />
<circle cx="212" cy="197" r="4" />
</g>
<g class="spawningMap-rare">
<circle cx="78" cy="75" r="4" />
<circle cx="99" cy="84" r="4" />
<circle cx="51" cy="39" r="4" />
<circle cx="62" cy="85" r="4" />
<circle cx="99" cy="84" r="4" />
<circle cx="91" cy="75" r="4" />
<circle cx="86" cy="77" r="4" />
<circle cx="81" cy="79" r="4" />
<circle cx="55" cy="87" r="4" />
<circle cx="52" cy="89" r="4" />
<circle cx="50" cy="86" r="4" />
<circle cx="59" cy="81" r="4" />
<circle cx="63" cy="87" r="4" />
<circle cx="65" cy="87" r="4" />
<circle cx="70" cy="85" r="4" />
<circle cx="71" cy="90" r="4" />
<circle cx="73" cy="88" r="4" />
<circle cx="75" cy="89" r="4" />
<circle cx="73" cy="86" r="4" />
<circle cx="68" cy="82" r="4" />
<circle cx="68" cy="77" r="4" />
<circle cx="50" cy="37" r="4" />
<circle cx="52" cy="38" r="4" />
<circle cx="45" cy="35" r="4" />
<circle cx="46" cy="33" r="4" />
<circle cx="55" cy="31" r="4" />
<circle cx="59" cy="36" r="4" />
<circle cx="58" cy="34" r="4" />
<circle cx="62" cy="38" r="4" />
<circle cx="64" cy="39" r="4" />
<circle cx="68" cy="40" r="4" />
<circle cx="77" cy="31" r="4" />
<circle cx="77" cy="34" r="4" />
<circle cx="76" cy="32" r="4" />
<circle cx="76" cy="39" r="4" />
<circle cx="75" cy="36" r="4" />
<circle cx="76" cy="35" r="4" />
<circle cx="81" cy="37" r="4" />
<circle cx="81" cy="40" r="4" />
<circle cx="80" cy="45" r="4" />
<circle cx="84" cy="47" r="4" />
<circle cx="81" cy="47" r="4" />
<circle cx="82" cy="44" r="4" />
<circle cx="101" cy="34" r="4" />
<circle cx="100" cy="31" r="4" />
<circle cx="97" cy="29" r="4" />
<circle cx="93" cy="31" r="4" />
<circle cx="88" cy="31" r="4" />
<circle cx="88" cy="37" r="4" />
<circle cx="91" cy="34" r="4" />
<circle cx="94" cy="36" r="4" />
<circle cx="97" cy="34" r="4" />
<circle cx="98" cy="36" r="4" />
<circle cx="99" cy="39" r="4" />
<circle cx="96" cy="40" r="4" />
<circle cx="93" cy="38" r="4" />
<circle cx="93" cy="48" r="4" />
<circle cx="91" cy="45" r="4" />
<circle cx="87" cy="46" r="4" />
<circle cx="87" cy="41" r="4" />
<circle cx="81" cy="42" r="4" />
<circle cx="76" cy="47" r="4" />
<circle cx="75" cy="43" r="4" />
<circle cx="77" cy="40" r="4" />
<circle cx="82" cy="40" r="4" />
<circle cx="85" cy="38" r="4" />
<circle cx="86" cy="33" r="4" />
<circle cx="80" cy="31" r="4" />
<circle cx="79" cy="34" r="4" />
<circle cx="75" cy="34" r="4" />
<circle cx="73" cy="41" r="4" />
<circle cx="68" cy="43" r="4" />
<circle cx="61" cy="41" r="4" />
<circle cx="57" cy="40" r="4" />
<circle cx="48" cy="45" r="4" />
<circle cx="51" cy="45" r="4" />
<circle cx="59" cy="48" r="4" />
<circle cx="61" cy="46" r="4" />
<circle cx="72" cy="49" r="4" />
<circle cx="69" cy="41" r="4" />
<circle cx="66" cy="42" r="4" />
<circle cx="63" cy="40" r="4" />
<circle cx="58" cy="36" r="4" />
<circle cx="57" cy="34" r="4" />
<circle cx="53" cy="33" r="4" />
<circle cx="51" cy="31" r="4" />
<circle cx="45" cy="39" r="4" />
<circle cx="49" cy="39" r="4" />
<circle cx="48" cy="33" r="4" />
<circle cx="43" cy="34" r="4" />
<circle cx="41" cy="39" r="4" />
<circle cx="37" cy="39" r="4" />
<circle cx="34" cy="38" r="4" />
<circle cx="30" cy="37" r="4" />
<circle cx="29" cy="46" r="4" />
<circle cx="45" cy="49" r="4" />
<circle cx="43" cy="57" r="4" />
<circle cx="42" cy="60" r="4" />
<circle cx="46" cy="61" r="4" />
<circle cx="45" cy="69" r="4" />
<circle cx="49" cy="74" r="4" />
<circle cx="46" cy="74" r="4" />
<circle cx="49" cy="79" r="4" />
<circle cx="49" cy="81" r="4" />
<circle cx="60" cy="96" r="4" />
<circle cx="65" cy="90" r="4" />
<circle cx="64" cy="79" r="4" />
<circle cx="59" cy="84" r="4" />
<circle cx="56" cy="82" r="4" />
<circle cx="52" cy="85" r="4" />
<circle cx="51" cy="80" r="4" />
<circle cx="47" cy="69" r="4" />
<circle cx="65" cy="74" r="4" />
<circle cx="90" cy="83" r="4" />
<circle cx="85" cy="81" r="4" />
<circle cx="88" cy="77" r="4" />
<circle cx="94" cy="74" r="4" />
<circle cx="89" cy="74" r="4" />
<circle cx="83" cy="76" r="4" />
<circle cx="98" cy="74" r="4" />
<circle cx="103" cy="86" r="4" />
<circle cx="98" cy="82" r="4" />
<circle cx="95" cy="87" r="4" />
<circle cx="85" cy="86" r="4" />
<circle cx="87" cy="89" r="4" />
<circle cx="85" cy="89" r="4" />
<circle cx="93" cy="93" r="4" />
<circle cx="86" cy="96" r="4" />
<circle cx="85" cy="101" r="4" />
<circle cx="84" cy="106" r="4" />
<circle cx="81" cy="98" r="4" />
<circle cx="80" cy="93" r="4" />
<circle cx="78" cy="90" r="4" />
<circle cx="76" cy="88" r="4" />
<circle cx="71" cy="80" r="4" />
<circle cx="69" cy="83" r="4" />
<circle cx="64" cy="89" r="4" />
<circle cx="67" cy="92" r="4" />
<circle cx="63" cy="93" r="4" />
<circle cx="60" cy="92" r="4" />
<circle cx="58" cy="100" r="4" />
<circle cx="55" cy="98" r="4" />
<circle cx="72" cy="97" r="4" />
<circle cx="73" cy="90" r="4" />
<circle cx="79" cy="103" r="4" />
<circle cx="71" cy="103" r="4" />
<circle cx="68" cy="99" r="4" />
<circle cx="64" cy="97" r="4" />
<circle cx="69" cy="93" r="4" />
</g>
</g>
</svg>