<?xml version="1.0" encoding="utf-8"?>
<svg xmlns="http://www.w3.org/2000/svg" width="300" height="300"
        viewBox="0 0 300 300" class="creatureMap" style="position:absolute;">
    <defs>
        <filter id="blur" x="-30%" y="-30%" width="160%" height="160%">
            <feGaussianBlur stdDeviation="3" />
        </filter>
        <pattern id="pattern-untameable" width="10" height="10" patternTransform="rotate(135)" patternUnits="userSpaceOnUse">
            <rect width="4" height="10" fill="black"></rect>
        </pattern>
        <filter id="groupStroke">
            <feFlood result="outsideColor" flood-color="black"/>
            <feMorphology in="SourceAlpha" operator="dilate" radius="2"/>
            <feComposite result="strokeoutline1" in="outsideColor" operator="in"/>
            <feComposite result="strokeoutline2" in="strokeoutline1" in2="SourceAlpha" operator="out"/>
            <feGaussianBlur in="strokeoutline2" result="strokeblur" stdDeviation="1"/>
        </filter>
        <style>
            .spawningMap-very-common { fill: #0F0; }
            .spawningMap-common { fill: #B2FF00; }
            .spawningMap-uncommon { fill: #FF0; }
            .spawningMap-very-uncommon { fill: #FC0; }
            .spawningMap-rare { fill: #F60; }
            .spawningMap-very-rare { fill: #F00; }
            .spawning-map-point { stroke:black; stroke-width:1; }
        </style>
    </defs>

<g class="spawning-map-point" opacity="0.8">
<g class="spawningMap-rare">
<circle cx="123" cy="226" r="4" />
<circle cx="124" cy="226" r="4" />
<circle cx="125" cy="226" r="4" />
<circle cx="126" cy="225" r="4" />
<circle cx="124" cy="227" r="4" />
<circle cx="127" cy="227" r="4" />
<circle cx="127" cy="226" r="4" />
<circle cx="127" cy="226" r="4" />
<circle cx="127" cy="225" r="4" />
<circle cx="129" cy="227" r="4" />
<circle cx="129" cy="227" r="4" />
<circle cx="129" cy="227" r="4" />
<circle cx="128" cy="228" r="4" />
<circle cx="129" cy="229" r="4" />
<circle cx="129" cy="229" r="4" />
<circle cx="130" cy="230" r="4" />
<circle cx="130" cy="229" r="4" />
<circle cx="130" cy="227" r="4" />
<circle cx="130" cy="227" r="4" />
<circle cx="130" cy="228" r="4" />
<circle cx="131" cy="230" r="4" />
<circle cx="131" cy="230" r="4" />
<circle cx="132" cy="230" r="4" />
<circle cx="131" cy="229" r="4" />
<circle cx="133" cy="228" r="4" />
<circle cx="134" cy="228" r="4" />
<circle cx="135" cy="229" r="4" />
<circle cx="136" cy="229" r="4" />
<circle cx="136" cy="229" r="4" />
<circle cx="135" cy="229" r="4" />
<circle cx="137" cy="227" r="4" />
<circle cx="137" cy="227" r="4" />
<circle cx="137" cy="227" r="4" />
<circle cx="136" cy="228" r="4" />
<circle cx="137" cy="227" r="4" />
<circle cx="138" cy="227" r="4" />
<circle cx="139" cy="225" r="4" />
<circle cx="140" cy="224" r="4" />
<circle cx="139" cy="224" r="4" />
<circle cx="140" cy="224" r="4" />
<circle cx="140" cy="223" r="4" />
<circle cx="140" cy="226" r="4" />
<circle cx="142" cy="227" r="4" />
<circle cx="142" cy="227" r="4" />
<circle cx="142" cy="226" r="4" />
<circle cx="142" cy="227" r="4" />
<circle cx="142" cy="223" r="4" />
<circle cx="142" cy="223" r="4" />
<circle cx="142" cy="223" r="4" />
<circle cx="143" cy="224" r="4" />
<circle cx="144" cy="223" r="4" />
<circle cx="144" cy="223" r="4" />
<circle cx="145" cy="222" r="4" />
<circle cx="145" cy="220" r="4" />
<circle cx="144" cy="221" r="4" />
<circle cx="142" cy="221" r="4" />
<circle cx="142" cy="222" r="4" />
<circle cx="143" cy="220" r="4" />
<circle cx="143" cy="219" r="4" />
<circle cx="143" cy="219" r="4" />
<circle cx="145" cy="220" r="4" />
<circle cx="146" cy="219" r="4" />
<circle cx="146" cy="218" r="4" />
<circle cx="146" cy="217" r="4" />
<circle cx="146" cy="217" r="4" />
<circle cx="143" cy="217" r="4" />
<circle cx="143" cy="217" r="4" />
<circle cx="145" cy="219" r="4" />
<circle cx="144" cy="217" r="4" />
<circle cx="145" cy="217" r="4" />
<circle cx="145" cy="216" r="4" />
<circle cx="144" cy="215" r="4" />
<circle cx="143" cy="215" r="4" />
<circle cx="143" cy="213" r="4" />
<circle cx="145" cy="212" r="4" />
<circle cx="145" cy="212" r="4" />
<circle cx="145" cy="212" r="4" />
<circle cx="148" cy="211" r="4" />
</g>
</g>
</svg>