<?xml version="1.0" encoding="utf-8"?>
<svg xmlns="http://www.w3.org/2000/svg" width="300" height="300"
        viewBox="0 0 300 300" class="creatureMap" style="position:absolute;">
    <defs>
        <filter id="blur" x="-30%" y="-30%" width="160%" height="160%">
            <feGaussianBlur stdDeviation="3" />
        </filter>
        <pattern id="pattern-untameable" width="10" height="10" patternTransform="rotate(135)" patternUnits="userSpaceOnUse">
            <rect width="4" height="10" fill="black"></rect>
        </pattern>
        <filter id="groupStroke">
            <feFlood result="outsideColor" flood-color="black"/>
            <feMorphology in="SourceAlpha" operator="dilate" radius="2"/>
            <feComposite result="strokeoutline1" in="outsideColor" operator="in"/>
            <feComposite result="strokeoutline2" in="strokeoutline1" in2="SourceAlpha" operator="out"/>
            <feGaussianBlur in="strokeoutline2" result="strokeblur" stdDeviation="1"/>
        </filter>
        <style>
            .spawningMap-very-common { fill: #0F0; }
            .spawningMap-common { fill: #B2FF00; }
            .spawningMap-uncommon { fill: #FF0; }
            .spawningMap-very-uncommon { fill: #FC0; }
            .spawningMap-rare { fill: #F60; }
            .spawningMap-very-rare { fill: #F00; }
            .spawning-map-point { stroke:black; stroke-width:1; }
        </style>
    </defs>

<g filter="url(#blur)" opacity="0.7">
<g class="spawningMap-very-rare">
<rect x="110" y="19" width="32" height="62" />
<rect x="110" y="67" width="173" height="16" />
<rect x="265" y="85" width="35" height="69" />
<rect x="239" y="149" width="31" height="69" />
<rect x="238" y="85" width="32" height="69" />
<rect x="245" y="19" width="25" height="71" />
<rect x="236" y="9" width="43" height="218" />
<rect x="103" y="201" width="113" height="23" />
<rect x="265" y="149" width="35" height="69" />
<rect x="265" y="3" width="35" height="87" />
<rect x="265" y="149" width="35" height="69" />
<rect x="265" y="85" width="35" height="69" />
<rect x="265" y="3" width="35" height="87" />
<rect x="239" y="149" width="31" height="69" />
<rect x="238" y="85" width="32" height="69" />
<rect x="245" y="19" width="25" height="71" />
</g>
<g class="spawningMap-rare">
<rect x="253" y="28" width="30" height="34" />
</g>
<g class="spawningMap-uncommon">
<rect x="135" y="193" width="15" height="13" />
<rect x="215" y="186" width="14" height="14" />
<rect x="190" y="194" width="15" height="14" />
</g>
</g>
</svg>