<?xml version="1.0" encoding="utf-8"?>
<svg xmlns="http://www.w3.org/2000/svg" width="300" height="300"
        viewBox="0 0 300 300" class="creatureMap" style="position:absolute;">
    <defs>
        <filter id="blur" x="-30%" y="-30%" width="160%" height="160%">
            <feGaussianBlur stdDeviation="3" />
        </filter>
        <pattern id="pattern-untameable" width="10" height="10" patternTransform="rotate(135)" patternUnits="userSpaceOnUse">
            <rect width="4" height="10" fill="black"></rect>
        </pattern>
        <filter id="groupStroke">
            <feFlood result="outsideColor" flood-color="black"/>
            <feMorphology in="SourceAlpha" operator="dilate" radius="2"/>
            <feComposite result="strokeoutline1" in="outsideColor" operator="in"/>
            <feComposite result="strokeoutline2" in="strokeoutline1" in2="SourceAlpha" operator="out"/>
            <feGaussianBlur in="strokeoutline2" result="strokeblur" stdDeviation="1"/>
        </filter>
        <style>
            .spawningMap-very-common { fill: #0F0; }
            .spawningMap-common { fill: #B2FF00; }
            .spawningMap-uncommon { fill: #FF0; }
            .spawningMap-very-uncommon { fill: #FC0; }
            .spawningMap-rare { fill: #F60; }
            .spawningMap-very-rare { fill: #F00; }
            .spawning-map-point { stroke:black; stroke-width:1; }
        </style>
    </defs>

<g filter="url(#blur)" opacity="0.7">
<g class="spawningMap-uncommon">
<rect x="210" y="200" width="15" height="14" />
<rect x="259" y="164" width="15" height="14" />
<rect x="225" y="176" width="15" height="14" />
<rect x="247" y="48" width="15" height="14" />
<rect x="212" y="70" width="15" height="14" />
<rect x="214" y="179" width="14" height="14" />
<rect x="186" y="206" width="14" height="14" />
<rect x="145" y="209" width="15" height="14" />
<rect x="125" y="197" width="14" height="13" />
<rect x="239" y="65" width="15" height="14" />
<rect x="264" y="82" width="14" height="14" />
<rect x="120" y="62" width="14" height="14" />
<rect x="116" y="44" width="14" height="14" />
<rect x="232" y="180" width="14" height="14" />
<rect x="269" y="145" width="14" height="14" />
<rect x="262" y="129" width="15" height="13" />
<rect x="249" y="179" width="15" height="13" />
<rect x="259" y="116" width="14" height="14" />
<rect x="257" y="104" width="15" height="14" />
<rect x="262" y="95" width="14" height="13" />
<rect x="250" y="68" width="15" height="14" />
</g>
</g>
</svg>