<?xml version="1.0" encoding="utf-8"?>
<svg xmlns="http://www.w3.org/2000/svg" width="300" height="300"
        viewBox="0 0 300 300" class="creatureMap" style="position:absolute;">
    <defs>
        <filter id="blur" x="-30%" y="-30%" width="160%" height="160%">
            <feGaussianBlur stdDeviation="3" />
        </filter>
        <pattern id="pattern-untameable" width="10" height="10" patternTransform="rotate(135)" patternUnits="userSpaceOnUse">
            <rect width="4" height="10" fill="black"></rect>
        </pattern>
        <filter id="groupStroke">
            <feFlood result="outsideColor" flood-color="black"/>
            <feMorphology in="SourceAlpha" operator="dilate" radius="2"/>
            <feComposite result="strokeoutline1" in="outsideColor" operator="in"/>
            <feComposite result="strokeoutline2" in="strokeoutline1" in2="SourceAlpha" operator="out"/>
            <feGaussianBlur in="strokeoutline2" result="strokeblur" stdDeviation="1"/>
        </filter>
        <style>
            .spawningMap-very-common { fill: #0F0; }
            .spawningMap-common { fill: #B2FF00; }
            .spawningMap-uncommon { fill: #FF0; }
            .spawningMap-very-uncommon { fill: #FC0; }
            .spawningMap-rare { fill: #F60; }
            .spawningMap-very-rare { fill: #F00; }
            .spawning-map-point { stroke:black; stroke-width:1; }
        </style>
    </defs>

<g filter="url(#blur)" opacity="0.7">
<g class="spawningMap-uncommon">
<rect x="71" y="245" width="24" height="14" />
<rect x="102" y="231" width="17" height="23" />
<rect x="123" y="278" width="24" height="17" />
<rect x="160" y="239" width="25" height="16" />
</g>
<g class="spawningMap-common">
<rect x="158" y="83" width="15" height="14" />
<rect x="135" y="251" width="16" height="16" />
<rect x="172" y="268" width="17" height="17" />
<rect x="175" y="85" width="14" height="13" />
</g>
<g class="spawningMap-very-common">
<rect x="183" y="120" width="15" height="14" />
<rect x="152" y="152" width="14" height="13" />
<rect x="84" y="113" width="15" height="13" />
<rect x="186" y="146" width="15" height="14" />
<rect x="98" y="83" width="15" height="14" />
<rect x="60" y="91" width="15" height="14" />
<rect x="45" y="117" width="15" height="14" />
<rect x="197" y="114" width="15" height="14" />
<rect x="187" y="153" width="15" height="13" />
<rect x="174" y="152" width="15" height="13" />
<rect x="174" y="164" width="14" height="14" />
<rect x="74" y="147" width="15" height="14" />
<rect x="121" y="125" width="14" height="14" />
<rect x="123" y="111" width="15" height="14" />
<rect x="193" y="262" width="14" height="14" />
</g>
</g>
</svg>