<?xml version="1.0" encoding="utf-8"?>
<svg xmlns="http://www.w3.org/2000/svg" width="300" height="300"
        viewBox="0 0 300 300" class="creatureMap" style="position:absolute;">
    <defs>
        <filter id="blur" x="-30%" y="-30%" width="160%" height="160%">
            <feGaussianBlur stdDeviation="3" />
        </filter>
        <pattern id="pattern-untameable" width="10" height="10" patternTransform="rotate(135)" patternUnits="userSpaceOnUse">
            <rect width="4" height="10" fill="black"></rect>
        </pattern>
        <filter id="groupStroke">
            <feFlood result="outsideColor" flood-color="black"/>
            <feMorphology in="SourceAlpha" operator="dilate" radius="2"/>
            <feComposite result="strokeoutline1" in="outsideColor" operator="in"/>
            <feComposite result="strokeoutline2" in="strokeoutline1" in2="SourceAlpha" operator="out"/>
            <feGaussianBlur in="strokeoutline2" result="strokeblur" stdDeviation="1"/>
        </filter>
        <style>
            .spawningMap-very-common { fill: #0F0; }
            .spawningMap-common { fill: #B2FF00; }
            .spawningMap-uncommon { fill: #FF0; }
            .spawningMap-very-uncommon { fill: #FC0; }
            .spawningMap-rare { fill: #F60; }
            .spawningMap-very-rare { fill: #F00; }
            .spawning-map-point { stroke:black; stroke-width:1; }
        </style>
    </defs>

<g filter="url(#blur)" opacity="0.7">
<g class="spawningMap-very-rare">
<rect x="58" y="0" width="58" height="27" />
</g>
<g class="spawningMap-rare">
<rect x="13" y="10" width="33" height="21" />
<rect x="115" y="0" width="58" height="21" />
<rect x="172" y="0" width="58" height="15" />
<rect x="229" y="0" width="58" height="15" />
<rect x="284" y="0" width="16" height="36" />
<rect x="284" y="35" width="16" height="59" />
<rect x="284" y="92" width="16" height="59" />
<rect x="0" y="126" width="11" height="34" />
<rect x="8" y="291" width="63" height="9" />
<rect x="14" y="0" width="47" height="15" />
<rect x="279" y="248" width="21" height="48" />
<rect x="201" y="291" width="63" height="9" />
<rect x="136" y="291" width="64" height="9" />
<rect x="72" y="291" width="64" height="9" />
</g>
</g>
</svg>