<?xml version="1.0" encoding="utf-8"?>
<svg xmlns="http://www.w3.org/2000/svg" width="300" height="300" viewBox="0 0 300 300" class="creatureMap" style="position:absolute;">
    <defs>
        <filter id="blur" x="-30%" y="-30%" width="160%" height="160%">
            <feGaussianBlur stdDeviation="3" />
        </filter>
        <pattern id="pattern-untameable" width="10" height="10" patternTransform="rotate(135)" patternUnits="userSpaceOnUse">'
            <rect width="4" height="10" fill="black"></rect>
        </pattern>
        <filter id="groupStroke">
            <feFlood result="outsideColor" flood-color="black"/>
            <feMorphology in="SourceAlpha" operator="dilate" radius="2"/>
            <feComposite result="strokeoutline1" in="outsideColor" operator="in"/>
            <feComposite result="strokeoutline2" in="strokeoutline1" in2="SourceAlpha" operator="out"/>
            <feGaussianBlur in="strokeoutline2" result="strokeblur" stdDeviation="1"/>
        </filter>
        <style>
            .spawningMap-very-common { fill: #0F0; }
            .spawningMap-common { fill: #B2FF00; }
            .spawningMap-uncommon { fill: #FF0; }
            .spawningMap-very-uncommon { fill: #FC0; }
            .spawningMap-rare { fill: #F60; }
            .spawningMap-very-rare { fill: #F00; }
            .spawning-map-point { stroke:black; stroke-width:1; }
        </style>
    </defs>

<g filter="url(#blur)" opacity="0.7">
<g class="spawningMap-very-uncommon">
<rect x="54" y="262" width="13" height="13" />
<rect x="62" y="262" width="13" height="13" />
<rect x="38" y="269" width="13" height="14" />
<rect x="38" y="262" width="13" height="13" />
<rect x="46" y="269" width="13" height="14" />
<rect x="46" y="262" width="13" height="13" />
<rect x="58" y="269" width="16" height="14" />
<rect x="69" y="269" width="13" height="14" />
<rect x="69" y="262" width="13" height="13" />
</g>
<g class="spawningMap-uncommon">
<rect x="200" y="237" width="13" height="13" />
<rect x="200" y="245" width="13" height="13" />
<rect x="200" y="253" width="13" height="13" />
<rect x="177" y="261" width="13" height="13" />
<rect x="208" y="269" width="13" height="13" />
<rect x="200" y="269" width="13" height="13" />
<rect x="192" y="269" width="13" height="13" />
<rect x="185" y="269" width="13" height="13" />
<rect x="208" y="245" width="13" height="13" />
<rect x="208" y="253" width="13" height="13" />
<rect x="208" y="261" width="13" height="13" />
<rect x="200" y="261" width="13" height="13" />
<rect x="192" y="261" width="13" height="13" />
<rect x="185" y="261" width="13" height="13" />
</g>
</g>
<g class="spawning-map-point" opacity="0.8">
<g class="spawningMap-very-rare">
<circle cx="232" cy="122" r="4" />
<circle cx="238" cy="117" r="4" />
<circle cx="230" cy="124" r="4" />
<circle cx="233" cy="124" r="4" />
<circle cx="235" cy="125" r="4" />
<circle cx="238" cy="122" r="4" />
<circle cx="239" cy="120" r="4" />
<circle cx="244" cy="120" r="4" />
<circle cx="246" cy="119" r="4" />
<circle cx="237" cy="114" r="4" />
<circle cx="236" cy="117" r="4" />
<circle cx="236" cy="115" r="4" />
<circle cx="234" cy="114" r="4" />
<circle cx="232" cy="115" r="4" />
<circle cx="229" cy="115" r="4" />
<circle cx="224" cy="119" r="4" />
<circle cx="219" cy="118" r="4" />
<circle cx="218" cy="112" r="4" />
<circle cx="219" cy="111" r="4" />
<circle cx="235" cy="109" r="4" />
<circle cx="229" cy="117" r="4" />
<circle cx="225" cy="117" r="4" />
<circle cx="255" cy="109" r="4" />
<circle cx="240" cy="99" r="4" />
<circle cx="269" cy="104" r="4" />
<circle cx="265" cy="103" r="4" />
<circle cx="269" cy="98" r="4" />
<circle cx="216" cy="89" r="4" />
<circle cx="216" cy="91" r="4" />
<circle cx="207" cy="125" r="4" />
<circle cx="203" cy="126" r="4" />
<circle cx="204" cy="122" r="4" />
<circle cx="204" cy="120" r="4" />
<circle cx="201" cy="125" r="4" />
<circle cx="199" cy="111" r="4" />
<circle cx="201" cy="108" r="4" />
<circle cx="203" cy="106" r="4" />
<circle cx="194" cy="100" r="4" />
<circle cx="194" cy="99" r="4" />
<circle cx="190" cy="98" r="4" />
<circle cx="168" cy="123" r="4" />
<circle cx="172" cy="124" r="4" />
<circle cx="182" cy="128" r="4" />
</g>
</g>
</svg>