<?xml version="1.0" encoding="utf-8"?>
<svg xmlns="http://www.w3.org/2000/svg" width="300" height="300" viewBox="0 0 300 300" class="creatureMap" style="position:absolute;">
    <defs>
        <filter id="blur" x="-30%" y="-30%" width="160%" height="160%">
            <feGaussianBlur stdDeviation="3" />
        </filter>
        <pattern id="pattern-untameable" width="10" height="10" patternTransform="rotate(135)" patternUnits="userSpaceOnUse">'
            <rect width="4" height="10" fill="black"></rect>
        </pattern>
        <filter id="groupStroke">
            <feFlood result="outsideColor" flood-color="black"/>
            <feMorphology in="SourceAlpha" operator="dilate" radius="2"/>
            <feComposite result="strokeoutline1" in="outsideColor" operator="in"/>
            <feComposite result="strokeoutline2" in="strokeoutline1" in2="SourceAlpha" operator="out"/>
            <feGaussianBlur in="strokeoutline2" result="strokeblur" stdDeviation="1"/>
        </filter>
        <style>
            .spawningMap-very-common { fill: #0F0; }
            .spawningMap-common { fill: #B2FF00; }
            .spawningMap-uncommon { fill: #FF0; }
            .spawningMap-very-uncommon { fill: #FC0; }
            .spawningMap-rare { fill: #F60; }
            .spawningMap-very-rare { fill: #F00; }
            .spawning-map-point { stroke:black; stroke-width:1; }
        </style>
    </defs>

<g filter="url(#blur)" opacity="0.7">
<g class="spawningMap-rare">
<rect x="263" y="53" width="20" height="94" />
<rect x="58" y="13" width="36" height="32" />
<rect x="15" y="165" width="44" height="58" />
<rect x="83" y="28" width="18" height="34" />
</g>
<g class="spawningMap-very-uncommon">
<rect x="27" y="218" width="20" height="57" />
<rect x="106" y="6" width="42" height="19" />
<rect x="116" y="220" width="23" height="60" />
<rect x="46" y="262" width="71" height="19" />
<rect x="46" y="231" width="71" height="20" />
<rect x="149" y="25" width="84" height="18" />
<rect x="46" y="216" width="71" height="19" />
<rect x="46" y="246" width="71" height="20" />
<rect x="59" y="150" width="20" height="58" />
</g>
</g>
</svg>