<?xml version="1.0" encoding="utf-8"?>
<svg xmlns="http://www.w3.org/2000/svg" width="300" height="300" viewBox="0 0 300 300" class="creatureMap" style="position:absolute;">
    <defs>
        <filter id="blur" x="-30%" y="-30%" width="160%" height="160%">
            <feGaussianBlur stdDeviation="3" />
        </filter>
        <pattern id="pattern-untameable" width="10" height="10" patternTransform="rotate(135)" patternUnits="userSpaceOnUse">'
            <rect width="4" height="10" fill="black"></rect>
        </pattern>
        <filter id="groupStroke">
            <feFlood result="outsideColor" flood-color="black"/>
            <feMorphology in="SourceAlpha" operator="dilate" radius="2"/>
            <feComposite result="strokeoutline1" in="outsideColor" operator="in"/>
            <feComposite result="strokeoutline2" in="strokeoutline1" in2="SourceAlpha" operator="out"/>
            <feGaussianBlur in="strokeoutline2" result="strokeblur" stdDeviation="1"/>
        </filter>
        <style>
            .spawningMap-very-common { fill: #0F0; }
            .spawningMap-common { fill: #B2FF00; }
            .spawningMap-uncommon { fill: #FF0; }
            .spawningMap-very-uncommon { fill: #FC0; }
            .spawningMap-rare { fill: #F60; }
            .spawningMap-very-rare { fill: #F00; }
            .spawning-map-point { stroke:black; stroke-width:1; }
        </style>
    </defs>

<g filter="url(#blur)" opacity="0.7">
<g class="spawningMap-very-uncommon">
<rect x="13" y="193" width="16" height="15" />
<rect x="13" y="245" width="16" height="16" />
<rect x="13" y="235" width="16" height="15" />
<rect x="23" y="235" width="16" height="15" />
<rect x="23" y="245" width="16" height="16" />
<rect x="34" y="245" width="16" height="16" />
<rect x="34" y="235" width="16" height="15" />
<rect x="181" y="56" width="16" height="16" />
<rect x="181" y="45" width="16" height="16" />
<rect x="181" y="35" width="16" height="15" />
<rect x="181" y="14" width="16" height="15" />
<rect x="192" y="3" width="15" height="16" />
<rect x="181" y="24" width="16" height="16" />
<rect x="286" y="77" width="14" height="16" />
<rect x="276" y="87" width="15" height="16" />
<rect x="286" y="87" width="14" height="16" />
<rect x="276" y="98" width="15" height="16" />
<rect x="265" y="98" width="16" height="16" />
<rect x="255" y="98" width="15" height="16" />
<rect x="244" y="98" width="16" height="16" />
<rect x="234" y="98" width="15" height="16" />
<rect x="223" y="98" width="16" height="16" />
<rect x="213" y="98" width="15" height="16" />
<rect x="202" y="87" width="16" height="16" />
<rect x="192" y="77" width="15" height="16" />
<rect x="118" y="98" width="16" height="16" />
<rect x="213" y="172" width="15" height="15" />
<rect x="223" y="172" width="16" height="15" />
<rect x="234" y="172" width="15" height="15" />
<rect x="286" y="182" width="14" height="16" />
<rect x="202" y="182" width="16" height="16" />
<rect x="118" y="193" width="16" height="15" />
<rect x="129" y="193" width="15" height="15" />
<rect x="66" y="182" width="15" height="16" />
<rect x="76" y="193" width="16" height="15" />
<rect x="87" y="193" width="15" height="15" />
<rect x="87" y="203" width="15" height="16" />
<rect x="76" y="203" width="16" height="16" />
<rect x="66" y="203" width="15" height="16" />
<rect x="66" y="214" width="15" height="15" />
<rect x="76" y="214" width="16" height="15" />
<rect x="87" y="214" width="15" height="15" />
<rect x="76" y="224" width="16" height="16" />
<rect x="66" y="224" width="15" height="16" />
<rect x="55" y="224" width="16" height="16" />
<rect x="55" y="214" width="16" height="15" />
<rect x="55" y="203" width="16" height="16" />
<rect x="55" y="193" width="16" height="15" />
<rect x="55" y="182" width="16" height="16" />
<rect x="44" y="182" width="16" height="16" />
<rect x="44" y="193" width="16" height="15" />
<rect x="44" y="203" width="16" height="16" />
<rect x="44" y="214" width="16" height="15" />
<rect x="44" y="224" width="16" height="16" />
<rect x="34" y="224" width="16" height="16" />
<rect x="34" y="214" width="16" height="15" />
<rect x="34" y="203" width="16" height="16" />
<rect x="34" y="193" width="16" height="15" />
<rect x="23" y="193" width="16" height="15" />
<rect x="23" y="203" width="16" height="16" />
<rect x="23" y="214" width="16" height="15" />
<rect x="23" y="224" width="16" height="16" />
<rect x="13" y="224" width="16" height="16" />
<rect x="13" y="214" width="16" height="15" />
<rect x="13" y="203" width="16" height="16" />
</g>
<g class="spawningMap-uncommon">
<rect x="34" y="14" width="16" height="15" />
<rect x="44" y="14" width="16" height="15" />
<rect x="44" y="24" width="16" height="16" />
<rect x="76" y="98" width="16" height="16" />
<rect x="87" y="98" width="15" height="16" />
<rect x="223" y="119" width="16" height="16" />
</g>
</g>
</svg>